<?xml version="1.0" encoding="UTF-8" standalone="no"?>
<!DOCTYPE svg PUBLIC "-//W3C//DTD SVG 1.1//EN" "http://www.w3.org/Graphics/SVG/1.1/DTD/svg11.dtd">
<svg xmlns="http://www.w3.org/2000/svg" xmlns:xlink="http://www.w3.org/1999/xlink" version="1.1" width="194.653pt" height="174.859pt" viewBox="0 0 194.653 174.859">
<path transform="matrix(1,0,0,-1,40.843,167.913)" stroke-width="1" stroke-linecap="butt" stroke-miterlimit="10" stroke-linejoin="miter" fill="none" stroke="#f2f2f2" d="M -32.27684 0 L -32.27684 161.3842 M 0 0 L 0 161.3842 M 32.27684 0 L 32.27684 161.3842 M 64.55368 0 L 64.55368 161.3842 M 96.83052 0 L 96.83052 161.3842 M 129.10736 0 L 129.10736 161.3842 "/>
<path transform="matrix(1,0,0,-1,40.843,167.913)" stroke-width="1" stroke-linecap="butt" stroke-miterlimit="10" stroke-linejoin="miter" fill="none" stroke="#f2f2f2" d="M -16.13841 0 L -16.13841 161.3842 M 16.13841 0 L 16.13841 161.3842 M 48.41525 0 L 48.41525 161.3842 M 112.96893 0 L 112.96893 161.3842 M 145.24578 0 L 145.24578 161.3842 "/>
<path transform="matrix(1,0,0,-1,40.843,167.913)" stroke-width="1" stroke-linecap="butt" stroke-miterlimit="10" stroke-linejoin="miter" fill="none" stroke="#f2f2f2" d="M -40.64388 16.13841 L 153.61283 16.13841 M -40.64388 48.41525 L 153.61283 48.41525 M -40.64388 80.6921 L 153.61283 80.6921 M -40.64388 112.96893 L 153.61283 112.96893 M -40.64388 145.24578 L 153.61283 145.24578 "/>
<path transform="matrix(1,0,0,-1,40.843,167.913)" stroke-width="1" stroke-linecap="butt" stroke-miterlimit="10" stroke-linejoin="miter" fill="none" stroke="#f2f2f2" d="M -40.64388 0 L 153.61283 0 M -40.64388 32.27684 L 153.61283 32.27684 M -40.64388 96.83052 L 153.61283 96.83052 M -40.64388 129.10736 L 153.61283 129.10736 M -40.64388 161.3842 L 153.61283 161.3842 "/>
<path transform="matrix(1,0,0,-1,40.843,167.913)" stroke-width="1" stroke-linecap="butt" stroke-miterlimit="10" stroke-linejoin="miter" fill="none" stroke="#808080" d="M -32.27684 63.13628 L -32.27684 65.97107 M 0 63.13628 L 0 65.97107 M 32.27684 63.13628 L 32.27684 65.97107 M 64.55368 63.13628 L 64.55368 65.97107 M 96.83052 63.13628 L 96.83052 65.97107 M 129.10736 63.13628 L 129.10736 65.97107 "/>
<path transform="matrix(1,0,0,-1,40.843,167.913)" stroke-width="1" stroke-linecap="butt" stroke-miterlimit="10" stroke-linejoin="miter" fill="none" stroke="#808080" d="M -16.13841 62.42778 L -16.13841 66.67955 M 16.13841 62.42778 L 16.13841 66.67955 M 48.41525 62.42778 L 48.41525 66.67955 M 112.96893 62.42778 L 112.96893 66.67955 M 145.24578 62.42778 L 145.24578 66.67955 "/>
<path transform="matrix(1,0,0,-1,40.843,167.913)" stroke-width="1" stroke-linecap="butt" stroke-miterlimit="10" stroke-linejoin="miter" fill="none" stroke="#808080" d="M 79.27469 16.13841 L 82.1095 16.13841 M 79.27469 48.41525 L 82.1095 48.41525 M 79.27469 80.6921 L 82.1095 80.6921 M 79.27469 112.96893 L 82.1095 112.96893 M 79.27469 145.24578 L 82.1095 145.24578 "/>
<path transform="matrix(1,0,0,-1,40.843,167.913)" stroke-width="1" stroke-linecap="butt" stroke-miterlimit="10" stroke-linejoin="miter" fill="none" stroke="#808080" d="M 78.56621 0 L 82.81796 0 M 78.56621 32.27684 L 82.81796 32.27684 M 78.56621 96.83052 L 82.81796 96.83052 M 78.56621 129.10736 L 82.81796 129.10736 M 78.56621 161.3842 L 82.81796 161.3842 "/>
<path transform="matrix(1,0,0,-1,40.843,167.913)" stroke-width="1" stroke-linecap="butt" stroke-miterlimit="10" stroke-linejoin="miter" fill="none" stroke="#000000" d="M -40.64388 64.55368 L 151.6203 64.55368 "/>
<path transform="matrix(1,0,0,-1,192.4633,103.359317)" d="M 1.99252 0 L -1.19551 1.59401 L 0 0 L -1.19551 -1.59401 "/>
<path transform="matrix(1,0,0,-1,40.843,167.913)" stroke-width="1" stroke-linecap="butt" stroke-miterlimit="10" stroke-linejoin="miter" fill="none" stroke="#000000" d="M 80.6921 0 L 80.6921 159.39168 "/>
<path transform="matrix(0,-1,-1,-0,121.535099,8.521317)" d="M 1.99252 0 L -1.19551 1.59401 L 0 0 L -1.19551 -1.59401 "/>
<symbol id="font_0_1">
<path d="M .57600006 0 C .59300008 0 .611 0 .611 .019999996 C .611 .040000008 .59300008 .040000008 .57600006 .040000008 L .035000005 .040000008 C .018 .040000008 0 .040000008 0 .019999996 C 0 0 .018 0 .035000005 0 L .57600006 0 Z "/>
</symbol>
<use xlink:href="#font_0_1" transform="matrix(9.9626,0,0,-9.9626,19.165896,113.1346)"/>
<symbol id="font_1_3">
<path d="M .089999999 .35000003 L .089999999 .37400005 C .089999999 .62700006 .21400002 .66300007 .26500003 .66300007 C .28900004 .66300007 .33100004 .65700009 .35300002 .623 C .33800004 .623 .298 .623 .298 .57800009 C .298 .54700008 .32200004 .53200009 .344 .53200009 C .36 .53200009 .39000003 .54100009 .39000003 .58000007 C .39000003 .64000007 .34600003 .688 .263 .688 C .13499999 .688 0 .559 0 .33800004 C 0 .071 .116000007 0 .20900002 0 C .32000003 0 .41500003 .094000007 .41500003 .22600001 C .41500003 .35300005 .32600004 .44900004 .215 .44900004 C .14700002 .44900004 .11000001 .39800004 .089999999 .35000003 M .20900002 .028 C .146 .028 .116000007 .088 .11000001 .103 C .092 .15 .092 .23 .092 .24800001 C .092 .32600004 .124000009 .42600004 .21400002 .42600004 C .23000002 .42600004 .27600003 .42600004 .307 .36400003 C .32500003 .32700003 .32500003 .27600003 .32500003 .22700002 C .32500003 .179 .32500003 .12900001 .30800004 .093 C .27800004 .033000005 .23200003 .028 .20900002 .028 Z "/>
</symbol>
<use xlink:href="#font_1_3" transform="matrix(9.9626,0,0,-9.9626,26.506428,115.64517)"/>
<use xlink:href="#font_0_1" transform="matrix(9.9626,0,0,-9.9626,51.442895,113.1346)"/>
<symbol id="font_1_2">
<path d="M .266 .165 L .266 .078 C .266 .042000005 .26400004 .031000002 .19000001 .031000002 L .16900002 .031000002 L .16900002 0 C .21000001 .003 .26200003 .003 .30400003 .003 C .34600003 .003 .39900003 .003 .44000004 0 L .44000004 .031000002 L .41900004 .031000002 C .34500004 .031000002 .34300003 .042000005 .34300003 .078 L .34300003 .165 L .44300003 .165 L .44300003 .19600001 L .34300003 .19600001 L .34300003 .651 C .34300003 .671 .34300003 .67700007 .32700003 .67700007 C .31800003 .67700007 .31500004 .67700007 .307 .665 L 0 .19600001 L 0 .165 L .266 .165 M .272 .19600001 L .028 .19600001 L .272 .569 L .272 .19600001 Z "/>
</symbol>
<use xlink:href="#font_1_2" transform="matrix(9.9626,0,0,-9.9626,58.64395,115.425998)"/>
<use xlink:href="#font_0_1" transform="matrix(9.9626,0,0,-9.9626,83.718898,113.1346)"/>
<symbol id="font_1_1">
<path d="M .07700001 .07700001 L .18300002 .18 C .33900003 .31800003 .39900003 .372 .39900003 .47200004 C .39900003 .586 .30900003 .666 .18700002 .666 C .074 .666 0 .574 0 .485 C 0 .42900003 .05 .42900003 .053000008 .42900003 C .07000001 .42900003 .105000007 .441 .105000007 .48200003 C .105000007 .508 .08700001 .53400006 .052000006 .53400006 C .044000005 .53400006 .042000008 .53400006 .039 .53300008 C .062000004 .59800007 .11600001 .63500007 .17400001 .63500007 C .26500003 .63500007 .308 .554 .308 .47200004 C .308 .39200003 .25800003 .31300003 .20300003 .25100003 L .011000004 .037 C 0 .026 0 .024 0 0 L .37100003 0 L .39900003 .17400001 L .374 .17400001 C .36900003 .14400001 .36200003 .1 .352 .085 C .345 .07700001 .279 .07700001 .257 .07700001 L .07700001 .07700001 Z "/>
</symbol>
<use xlink:href="#font_1_1" transform="matrix(9.9626,0,0,-9.9626,91.13913,115.425998)"/>
<use xlink:href="#font_1_1" transform="matrix(9.9626,0,0,-9.9626,151.81713,115.425998)"/>
<use xlink:href="#font_1_2" transform="matrix(9.9626,0,0,-9.9626,183.87496,115.425998)"/>
<use xlink:href="#font_0_1" transform="matrix(9.9626,0,0,-9.9626,103.98489,168.4166)"/>
<use xlink:href="#font_1_2" transform="matrix(9.9626,0,0,-9.9626,111.18595,170.708)"/>
<use xlink:href="#font_0_1" transform="matrix(9.9626,0,0,-9.9626,103.98489,136.1406)"/>
<use xlink:href="#font_1_1" transform="matrix(9.9626,0,0,-9.9626,111.40513,138.43199)"/>
<use xlink:href="#font_1_1" transform="matrix(9.9626,0,0,-9.9626,111.40513,74.29399)"/>
<use xlink:href="#font_1_2" transform="matrix(9.9626,0,0,-9.9626,111.18595,42.018007)"/>
<use xlink:href="#font_1_3" transform="matrix(9.9626,0,0,-9.9626,111.325428,9.960175)"/>
<clipPath id="cp2">
<path transform="matrix(1,0,0,-1,40.843,167.913)" d="M -40.64388 0 L 153.61283 0 L 153.61283 161.3842 L -40.64388 161.3842 Z "/>
</clipPath>
<g clip-path="url(#cp2)">
<path transform="matrix(1,0,0,-1,40.843,167.913)" d="M 115.78702 80.6921 C 115.78702 82.24849 114.52533 83.51018 112.96893 83.51018 C 111.41254 83.51018 110.15085 82.24849 110.15085 80.6921 C 110.15085 79.1357 111.41254 77.87401 112.96893 77.87401 C 114.52533 77.87401 115.78702 79.1357 115.78702 80.6921 Z M 112.96893 80.6921 "/>
<symbol id="font_3_2">
<path d="M .192 .694 C .192 .695 .192 .705 .179 .705 C .156 .705 .083000008 .697 .057 .695 C .049 .694 .038 .693 .038 .675 C .038 .663 .047000003 .663 .062000004 .663 C .11 .663 .112 .656 .112 .646 C .112 .639 .103 .605 .098000008 .584 L .015999999 .25800003 C .0040000008 .20800002 0 .19200002 0 .15700002 C 0 .062000004 .053 0 .127 0 C .24500002 0 .36800004 .14900002 .36800004 .293 C .36800004 .38400004 .31500004 .45300005 .235 .45300005 C .18900001 .45300005 .148 .42400003 .118 .39300005 L .192 .694 M .098000008 .316 C .104 .33800004 .104 .34000004 .113000009 .351 C .162 .41600005 .207 .43100003 .233 .43100003 C .26900003 .43100003 .29600004 .40100003 .29600004 .337 C .29600004 .27800004 .263 .16300002 .24500002 .12500002 C .212 .058000003 .16600001 .022000002 .127 .022000002 C .092999998 .022000002 .060000007 .049000004 .060000007 .123 C .060000007 .14200002 .060000007 .16100002 .076000008 .22400002 L .098000008 .316 Z "/>
</symbol>
<use xlink:href="#font_3_2" transform="matrix(9.9626,0,0,-9.9626,143.46524,90.79058)"/>
<path transform="matrix(1,0,0,-1,40.843,167.913)" d="M 2.81807 16.13841 C 2.81807 17.69481 1.55638 18.9565 0 18.9565 C -1.55638 18.9565 -2.81807 17.69481 -2.81807 16.13841 C -2.81807 14.58202 -1.55638 13.32033 0 13.32033 C 1.55638 13.32033 2.81807 14.58202 2.81807 16.13841 Z M 0 16.13841 "/>
<symbol id="font_3_3">
<path d="M .35500003 .39100004 C .33900003 .39100004 .32500003 .39100004 .31100003 .37700004 C .29500003 .36200003 .293 .34500004 .293 .33800004 C .293 .314 .31100003 .30300004 .33 .30300004 C .359 .30300004 .386 .32700003 .386 .367 C .386 .41600005 .33900003 .45300005 .268 .45300005 C .13300002 .45300005 0 .31000004 0 .16900002 C 0 .079 .058000007 0 .162 0 C .305 0 .389 .106000009 .389 .11800001 C .389 .124000009 .38300003 .13100001 .377 .13100001 C .372 .13100001 .37 .12900001 .36400003 .12100001 C .285 .022000002 .176 .022000002 .164 .022000002 C .101 .022000002 .074 .071 .074 .13100001 C .074 .17200002 .094000007 .26900003 .12800002 .33100004 C .15900001 .388 .21400002 .43100003 .269 .43100003 C .303 .43100003 .34100003 .418 .35500003 .39100004 Z "/>
</symbol>
<use xlink:href="#font_3_3" transform="matrix(9.9626,0,0,-9.9626,30.402466,154.02959)"/>
<path transform="matrix(1,0,0,-1,40.843,167.913)" d="M 83.51018 129.10736 C 83.51018 130.66374 82.24849 131.92543 80.6921 131.92543 C 79.1357 131.92543 77.87401 130.66374 77.87401 129.10736 C 77.87401 127.55096 79.1357 126.28928 80.6921 126.28928 C 82.24849 126.28928 83.51018 127.55096 83.51018 129.10736 Z M 80.6921 129.10736 "/>
<symbol id="font_3_1">
<path d="M .33300004 .38900004 C .31500004 .42600004 .286 .45300005 .24100001 .45300005 C .124 .45300005 0 .30600003 0 .16000001 C 0 .06600001 .055000005 0 .133 0 C .153 0 .20300001 .0040000008 .263 .075 C .27100004 .033000005 .30600003 0 .35400004 0 C .38900004 0 .41200004 .023000002 .42800004 .055000005 C .44500003 .091000009 .45800004 .15200001 .45800004 .15400002 C .45800004 .16400002 .44900004 .16400002 .44600005 .16400002 C .43600003 .16400002 .43500004 .16000001 .43200005 .14600002 C .41500003 .081 .397 .022000002 .35600005 .022000002 C .32900004 .022000002 .32600004 .048 .32600004 .068 C .32600004 .09 .32800005 .098000008 .33900003 .14200002 C .35000003 .18400002 .35200004 .19400002 .36100004 .23200003 L .397 .37200005 C .40400005 .40000005 .40400005 .40200005 .40400005 .40600003 C .40400005 .42300005 .39200003 .43300004 .37500004 .43300004 C .35100005 .43300004 .33600004 .411 .33300004 .38900004 M .26800005 .13000001 C .263 .112 .263 .11000001 .24800001 .093 C .20400001 .038000004 .163 .022000002 .135 .022000002 C .08499999 .022000002 .07100001 .077 .07100001 .116000007 C .07100001 .16600001 .103 .28900004 .126 .335 C .157 .39400003 .202 .43100003 .242 .43100003 C .307 .43100003 .32100005 .34900005 .32100005 .34300003 C .32100005 .337 .31900005 .33100004 .31800003 .32600004 L .26800005 .13000001 Z "/>
</symbol>
<use xlink:href="#font_3_1" transform="matrix(9.9626,0,0,-9.9626,128.4695,41.061586)"/>
</g>
<path transform="matrix(1,0,0,-1,40.843,167.913)" d="M 114.96149 80.6921 C 114.96149 81.79257 114.06941 82.68465 112.96893 82.68465 C 111.86847 82.68465 110.97638 81.79257 110.97638 80.6921 C 110.97638 79.59163 111.86847 78.69954 112.96893 78.69954 C 114.06941 78.69954 114.96149 79.59163 114.96149 80.6921 Z M 112.96893 80.6921 "/>
<path transform="matrix(1,0,0,-1,40.843,167.913)" stroke-width="1" stroke-linecap="butt" stroke-miterlimit="10" stroke-linejoin="miter" fill="none" stroke="#000000" d="M 114.96149 80.6921 C 114.96149 81.79257 114.06941 82.68465 112.96893 82.68465 C 111.86847 82.68465 110.97638 81.79257 110.97638 80.6921 C 110.97638 79.59163 111.86847 78.69954 112.96893 78.69954 C 114.06941 78.69954 114.96149 79.59163 114.96149 80.6921 Z M 112.96893 80.6921 "/>
<path transform="matrix(1,0,0,-1,40.843,167.913)" d="M 1.99255 16.13841 C 1.99255 17.23888 1.10046 18.13097 0 18.13097 C -1.10046 18.13097 -1.99255 17.23888 -1.99255 16.13841 C -1.99255 15.03795 -1.10046 14.14586 0 14.14586 C 1.10046 14.14586 1.99255 15.03795 1.99255 16.13841 Z M 0 16.13841 "/>
<path transform="matrix(1,0,0,-1,40.843,167.913)" stroke-width="1" stroke-linecap="butt" stroke-miterlimit="10" stroke-linejoin="miter" fill="none" stroke="#000000" d="M 1.99255 16.13841 C 1.99255 17.23888 1.10046 18.13097 0 18.13097 C -1.10046 18.13097 -1.99255 17.23888 -1.99255 16.13841 C -1.99255 15.03795 -1.10046 14.14586 0 14.14586 C 1.10046 14.14586 1.99255 15.03795 1.99255 16.13841 Z M 0 16.13841 "/>
<path transform="matrix(1,0,0,-1,40.843,167.913)" d="M 82.68465 129.10736 C 82.68465 130.20783 81.79257 131.09992 80.6921 131.09992 C 79.59163 131.09992 78.69954 130.20783 78.69954 129.10736 C 78.69954 128.00688 79.59163 127.1148 80.6921 127.1148 C 81.79257 127.1148 82.68465 128.00688 82.68465 129.10736 Z M 80.6921 129.10736 "/>
<path transform="matrix(1,0,0,-1,40.843,167.913)" stroke-width="1" stroke-linecap="butt" stroke-miterlimit="10" stroke-linejoin="miter" fill="none" stroke="#000000" d="M 82.68465 129.10736 C 82.68465 130.20783 81.79257 131.09992 80.6921 131.09992 C 79.59163 131.09992 78.69954 130.20783 78.69954 129.10736 C 78.69954 128.00688 79.59163 127.1148 80.6921 127.1148 C 81.79257 127.1148 82.68465 128.00688 82.68465 129.10736 Z M 80.6921 129.10736 "/>
<symbol id="font_3_4">
<path d="M .305 .31300003 C .311 .33900003 .334 .43100003 .404 .43100003 C .409 .43100003 .433 .43100003 .454 .418 C .426 .41300003 .40600003 .388 .40600003 .36400003 C .40600003 .34800003 .417 .32900004 .444 .32900004 C .46600003 .32900004 .498 .34700004 .498 .38700003 C .498 .43900005 .439 .45300005 .405 .45300005 C .347 .45300005 .312 .40000005 .3 .37700004 C .275 .44300003 .221 .45300005 .19200002 .45300005 C .08800001 .45300005 .031000002 .32400004 .031000002 .29900003 C .031000002 .28900004 .041 .28900004 .043000007 .28900004 C .051000008 .28900004 .054000006 .291 .056 .3 C .09 .40600003 .156 .43100003 .19000001 .43100003 C .209 .43100003 .244 .42200003 .244 .36400003 C .244 .33300004 .22700002 .26600004 .19000001 .126 C .17400001 .064 .13900002 .022000002 .095000009 .022000002 C .08900001 .022000002 .06600001 .022000002 .045 .035 C .07000001 .040000004 .09200001 .061 .09200001 .089 C .09200001 .116000007 .07000001 .124000009 .055000009 .124000009 C .025 .124000009 0 .098000008 0 .06600001 C 0 .020000002 .050000006 0 .094000007 0 C .16000001 0 .19600001 .07000001 .19900002 .076000008 C .21100001 .039 .24700003 0 .307 0 C .41 0 .467 .12900001 .467 .15400002 C .467 .16400002 .458 .16400002 .455 .16400002 C .446 .16400002 .444 .16000001 .442 .15300001 C .409 .046 .341 .022000002 .30900003 .022000002 C .27 .022000002 .254 .054 .254 .08800001 C .254 .11000001 .26 .13200002 .271 .17600002 L .305 .31300003 Z "/>
</symbol>
<use xlink:href="#font_3_4" transform="matrix(9.9626,0,0,-9.9626,185.56092,99.936588)"/>
<symbol id="font_3_5">
<path d="M .45700003 .586 C .461 .6 .461 .602 .461 .609 C .461 .62700006 .447 .63600006 .432 .63600006 C .42200003 .63600006 .40600003 .63 .397 .615 C .395 .61 .387 .579 .38300003 .561 C .37600003 .535 .36900003 .508 .363 .48100005 L .318 .301 C .314 .286 .271 .21600002 .20500002 .21600002 C .15400002 .21600002 .143 .26000003 .143 .29700003 C .143 .34300003 .16000001 .40500004 .194 .49300004 C .21000001 .53400006 .21400002 .545 .21400002 .56500008 C .21400002 .61 .18200001 .6470001 .13200002 .6470001 C .037 .6470001 0 .50200006 0 .49300004 C 0 .48300005 .01 .48300005 .012 .48300005 C .022000002 .48300005 .023 .485 .028000003 .50100007 C .055000009 .595 .095000009 .625 .12900001 .625 C .13700001 .625 .15400002 .625 .15400002 .59300008 C .15400002 .568 .14400001 .54200008 .13700001 .523 C .097 .41700004 .079 .36 .079 .31300003 C .079 .224 .142 .194 .201 .194 C .24000003 .194 .274 .21100001 .30200003 .23900002 C .289 .187 .277 .13800001 .237 .08500001 C .21100001 .051 .17300001 .022 .127 .022 C .113000009 .022 .068 .025000006 .051000008 .06400001 C .067 .06400001 .080000009 .06400001 .094000007 .076000008 C .104 .08500001 .11400001 .098000008 .11400001 .117000009 C .11400001 .148 .087000008 .15200001 .07700001 .15200001 C .054000006 .15200001 .021 .136 .021 .087000008 C .021 .037 .065000008 0 .127 0 C .23 0 .333 .091000009 .361 .20400001 L .45700003 .586 Z "/>
</symbol>
<use xlink:href="#font_3_5" transform="matrix(9.9626,0,0,-9.9626,125.36091,16.35732)"/>
</svg>
