<?xml version="1.0" encoding="iso-8859-1" standalone="no"?> 
<?xml-stylesheet href="fxNotation.css" type="text/css"?> 
<svg xmlns="http://www.w3.org/2000/svg" xmlns:xlink="http://www.w3.org/1999/xlink" width="218.71701pt" height="183.99437pt" viewBox="-14.00002 -15.44424 218.71701 183.99437 "> 
<g transform="translate(0, 168.55013 ) scale(1,-1) translate(0,15.44424 )"> 
    <g stroke="#000" fill="#000">
 <g stroke-width="0.4">
 <g stroke-width="0.2">
 <g stroke="#808080" fill="#808080">
 <path d=" M 4.64273 -1.4227 L 4.64273 1.42271 M 9.28546 -1.4227 L 9.28546 1.42271 M 13.9282 -1.4227 L 13.9282 1.42271 M 18.57094 -1.4227 L 18.57094 1.42271 M 23.21368 -1.4227 L 23.21368 1.42271 M 32.49918 -1.4227 L 32.49918 1.42271 M 37.1419 -1.4227 L 37.1419 1.42271 M 41.78465 -1.4227 L 41.78465 1.42271 M 46.42738 -1.4227 L 46.42738 1.42271 M 51.07013 -1.4227 L 51.07013 1.42271 M 60.35562 -1.4227 L 60.35562 1.42271 M 64.99835 -1.4227 L 64.99835 1.42271 M 69.6411 -1.4227 L 69.6411 1.42271 M 74.28383 -1.4227 L 74.28383 1.42271 M 78.92657 -1.4227 L 78.92657 1.42271 M 88.21207 -1.4227 L 88.21207 1.42271 M 92.8548 -1.4227 L 92.8548 1.42271 M 97.49754 -1.4227 L 97.49754 1.42271 M 102.14027 -1.4227 L 102.14027 1.42271 M 106.78302 -1.4227 L 106.78302 1.42271 M 116.06851 -1.4227 L 116.06851 1.42271 M 120.71124 -1.4227 L 120.71124 1.42271 M 125.35399 -1.4227 L 125.35399 1.42271 M 129.99672 -1.4227 L 129.99672 1.42271 M 134.63947 -1.4227 L 134.63947 1.42271 M 143.92496 -1.4227 L 143.92496 1.42271 M 148.56769 -1.4227 L 148.56769 1.42271 M 153.21043 -1.4227 L 153.21043 1.42271 M 157.85316 -1.4227 L 157.85316 1.42271 M 162.49591 -1.4227 L 162.49591 1.42271 M 171.7814 -1.4227 L 171.7814 1.42271 M 176.42413 -1.4227 L 176.42413 1.42271 M 181.06688 -1.4227 L 181.06688 1.42271 M 185.70961 -1.4227 L 185.70961 1.42271 M 190.35236 -1.4227 L 190.35236 1.42271  " fill="none"/>
 </g>
 </g>
 <g stroke-width="0.2">
 <g stroke="#808080" fill="#808080">
 <path d=" M 27.85645 -2.13387 L 27.85645 2.13387 M 55.71289 -2.13387 L 55.71289 2.13387 M 83.56934 -2.13387 L 83.56934 2.13387 M 111.42578 -2.13387 L 111.42578 2.13387 M 139.28223 -2.13387 L 139.28223 2.13387 M 167.13867 -2.13387 L 167.13867 2.13387 M 194.99512 -2.13387 L 194.99512 2.13387  " fill="none"/>
 </g>
 </g>
 <g stroke-width="0.2">
 <g stroke="#808080" fill="#808080">
 <path d=" M -1.42284 5.39983 L 1.42285 5.39983 M -1.42284 10.79965 L 1.42285 10.79965 M -1.42284 16.19948 L 1.42285 16.19948 M -1.42284 21.5993 L 1.42285 21.5993 M -1.42284 26.99913 L 1.42285 26.99913 M -1.42284 37.79881 L 1.42285 37.79881 M -1.42284 43.19864 L 1.42285 43.19864 M -1.42284 48.59846 L 1.42285 48.59846 M -1.42284 53.99829 L 1.42285 53.99829 M -1.42284 59.39812 L 1.42285 59.39812 M -1.42284 70.1978 L 1.42285 70.1978 M -1.42284 75.59763 L 1.42285 75.59763 M -1.42284 80.99745 L 1.42285 80.99745 M -1.42284 86.39728 L 1.42285 86.39728 M -1.42284 91.7971 L 1.42285 91.7971 M -1.42284 102.59679 L 1.42285 102.59679 M -1.42284 107.99661 L 1.42285 107.99661 M -1.42284 113.39644 L 1.42285 113.39644 M -1.42284 118.79626 L 1.42285 118.79626 M -1.42284 124.19609 L 1.42285 124.19609 M -1.42284 134.99577 L 1.42285 134.99577 M -1.42284 140.3956 L 1.42285 140.3956 M -1.42284 145.79543 L 1.42285 145.79543 M -1.42284 151.19525 L 1.42285 151.19525 M -1.42284 156.59508 L 1.42285 156.59508  " fill="none"/>
 </g>
 </g>
 <g stroke-width="0.2">
 <g stroke="#808080" fill="#808080">
 <path d=" M -2.13406 32.39899 L 2.13406 32.39899 M -2.13406 64.79797 L 2.13406 64.79797 M -2.13406 97.19696 L 2.13406 97.19696 M -2.13406 129.59595 L 2.13406 129.59595 M -2.13406 161.99493 L 2.13406 161.99493  " fill="none"/>
 </g>
 </g>
 <path d=" M 0.0 0.0 L 192.99515 0.0  " fill="none"/>
 <g transform="translate(192.99515,0.0)">
 <path d=" M 1.99997 0.0 L -1.19998 1.59998 L 0.0 0.0 L -1.19998 -1.59998  " stroke="none"/>
  </g>
 <path d=" M 0.0 0.0 L 0.0 159.99496  " fill="none"/>
 <g transform="matrix(0.0,1.0,-1.0,0.0,0.0,159.99496)">
 <path d=" M 1.99997 0.0 L -1.19998 1.59998 L 0.0 0.0 L -1.19998 -1.59998  " stroke="none"/>
  </g>
 <g transform="translate(21.46754,-12.11127)">
 <g fill="#000">
 <text style="stroke:none" transform="scale(1,-1) translate(6.3889,0)" text-anchor="middle"  font-size="10"> 
<g fill="#000">
 <g stroke="none"> 0.5</g> </g>
 </text> 
</g>
 </g>
 <g transform="translate(53.21289,-12.11127)">
 <g fill="#000">
 <text style="stroke:none" transform="scale(1,-1) translate(2.5,0)" text-anchor="middle"  font-size="10"> 
<g fill="#000">
 <g stroke="none"> 1 </g> </g>
 </text> 
</g>
 </g>
 <g transform="translate(77.18044,-12.11127)">
 <g fill="#000">
 <text style="stroke:none" transform="scale(1,-1) translate(6.3889,0)" text-anchor="middle"  font-size="10"> 
<g fill="#000">
 <g stroke="none"> 1.5</g> </g>
 </text> 
</g>
 </g>
 <g transform="translate(108.92578,-12.11127)">
 <g fill="#000">
 <text style="stroke:none" transform="scale(1,-1) translate(2.5,0)" text-anchor="middle"  font-size="10"> 
<g fill="#000">
 <g stroke="none"> 2 </g> </g>
 </text> 
</g>
 </g>
 <g transform="translate(132.89333,-12.11127)">
 <g fill="#000">
 <text style="stroke:none" transform="scale(1,-1) translate(6.3889,0)" text-anchor="middle"  font-size="10"> 
<g fill="#000">
 <g stroke="none"> 2.5</g> </g>
 </text> 
</g>
 </g>
 <g transform="translate(164.63867,-12.11127)">
 <g fill="#000">
 <text style="stroke:none" transform="scale(1,-1) translate(2.5,0)" text-anchor="middle"  font-size="10"> 
<g fill="#000">
 <g stroke="none"> 3 </g> </g>
 </text> 
</g>
 </g>
 <g transform="translate(188.60622,-12.11127)">
 <g fill="#000">
 <text style="stroke:none" transform="scale(1,-1) translate(6.3889,0)" text-anchor="middle"  font-size="10"> 
<g fill="#000">
 <g stroke="none"> 3.5</g> </g>
 </text> 
</g>
 </g>
 <g transform="translate(-10.66704,29.17677)">
 <g fill="#000">
 <text style="stroke:none" transform="scale(1,-1) translate(2.5,0)" text-anchor="middle"  font-size="10"> 
<g fill="#000">
 <g stroke="none"> 1 </g> </g>
 </text> 
</g>
 </g>
 <g transform="translate(-10.66704,61.57576)">
 <g fill="#000">
 <text style="stroke:none" transform="scale(1,-1) translate(2.5,0)" text-anchor="middle"  font-size="10"> 
<g fill="#000">
 <g stroke="none"> 2 </g> </g>
 </text> 
</g>
 </g>
 <g transform="translate(-10.66704,93.97475)">
 <g fill="#000">
 <text style="stroke:none" transform="scale(1,-1) translate(2.5,0)" text-anchor="middle"  font-size="10"> 
<g fill="#000">
 <g stroke="none"> 3 </g> </g>
 </text> 
</g>
 </g>
 <g transform="translate(-10.66704,126.37373)">
 <g fill="#000">
 <text style="stroke:none" transform="scale(1,-1) translate(2.5,0)" text-anchor="middle"  font-size="10"> 
<g fill="#000">
 <g stroke="none"> 4 </g> </g>
 </text> 
</g>
 </g>
 <g transform="translate(-10.66704,158.77272)">
 <g fill="#000">
 <text style="stroke:none" transform="scale(1,-1) translate(2.5,0)" text-anchor="middle"  font-size="10"> 
<g fill="#000">
 <g stroke="none"> 5 </g> </g>
 </text> 
</g>
 </g>
 <clipPath id="pgfcp1"><path d=" M 0.0 0.0 L 194.99512 0.0 L 194.99512 161.99493 L 0.0 161.99493 Z  "/> </clipPath>
 <g clip-path="url(#pgfcp1)">
 <g stroke-width="0.8">
 <g stroke="#00f" fill="#00f">
 <path d=" M 0.0 0.0 L 0.67123 3.55618 L 1.34247 5.02922 L 2.01372 6.1595 L 2.68495 7.1124 L 3.35619 7.95189 L 4.02744 8.71086 L 4.69867 9.40881 L 5.36992 10.05844 L 6.04115 10.66875 L 6.71239 11.24585 L 7.38364 11.79474 L 8.05487 12.3192 L 8.7261 12.82224 L 9.39735 13.30626 L 10.06859 13.77328 L 10.73984 14.22499 L 11.41107 14.66278 L 12.0823 15.08789 L 12.75356 15.50133 L 13.42479 15.90402 L 14.09602 16.29678 L 14.76727 16.68028 L 15.4385 17.05518 L 16.10974 17.422 L 16.78099 17.78125 L 17.45222 18.13338 L 18.12346 18.4788 L 18.79471 18.8179 L 19.46594 19.15099 L 20.13718 19.47838 L 20.80843 19.80035 L 21.47966 20.11717 L 22.1509 20.4291 L 22.82214 20.73631 L 23.49338 21.03905 L 24.16461 21.3375 L 24.83586 21.63182 L 25.5071 21.9222 L 26.17833 22.20877 L 26.84958 22.4917 L 27.52081 22.7711 L 28.19205 23.04713 L 28.8633 23.31989 L 29.53453 23.5895 L 30.20576 23.85605 L 30.87701 24.11966 L 31.54825 24.38042 L 32.21948 24.63841 L 32.89073 24.89375 L 33.56197 25.14648 L 34.2332 25.3967 L 34.90445 25.64447 L 35.57568 25.8899 L 36.24692 26.13298 L 36.91817 26.37386 L 37.5894 26.61253 L 38.26065 26.84909 L 38.93188 27.08359 L 39.60312 27.31607 L 40.27437 27.54659 L 40.9456 27.77519 L 41.61684 28.00194 L 42.28809 28.22685 L 42.95932 28.45 L 43.63055 28.6714 L 44.3018 28.89111 L 44.97304 29.10916 L 45.64427 29.32558 L 46.31552 29.54042 L 46.98676 29.75371 L 47.65799 29.96548 L 48.32924 30.17578 L 49.00047 30.3846 L 49.6717 30.59201 L 50.34296 30.79802 L 51.01419 31.00267 L 51.68542 31.20596 L 52.35667 31.40794 L 53.02791 31.60864 L 53.69914 31.80806 L 54.37039 32.00624 L 55.04163 32.2032 L 55.71286 32.39897 L 56.38411 32.59305 L 57.05534 32.78647 L 57.72658 32.97879 L 58.39783 33.16994 L 59.06906 33.36003 L 59.7403 33.54909 L 60.41154 33.73706 L 61.08278 33.9239 L 61.75401 34.1098 L 62.42526 34.29468 L 63.0965 34.4786 L 63.76773 34.6615 L 64.43898 34.84346 L 65.11021 35.02443 L 65.78146 35.20453 L 66.4527 35.38367 L 67.12393 35.56197 L 67.79518 35.73932 L 68.46642 35.91582 L 69.13765 36.09143 L 69.8089 36.26622 L 70.48013 36.44014 L 71.15137 36.61325 L 71.82262 36.78558 L 72.49385 36.95706 L 73.16508 37.12778 L 73.83633 37.2977 L 74.50757 37.46686 L 75.1788 37.63524 L 75.85005 37.80287 L 76.52129 37.96979 L 77.19252 38.13593 L 77.86377 38.30142 L 78.535 38.46611 L 79.20624 38.63014 L 79.87749 38.7935 L 80.54872 38.95615 L 81.21996 39.11813 L 81.8912 39.27945 L 82.56244 39.44012 L 83.23367 39.60011 L 83.90492 39.75945 L 84.57616 39.9182 L 85.24739 40.07628 L 85.91864 40.23373 L 86.58987 40.39061 L 87.26111 40.54688 L 87.93236 40.70251 L 88.60359 40.85754 L 89.27483 41.01202 L 89.94608 41.16592 L 90.61731 41.31929 L 91.28854 41.47198 L 91.9598 41.6242 L 92.63103 41.77583 L 93.30226 41.92691 L 93.97351 42.07742 L 94.64474 42.22748 L 95.316 42.377 L 95.98723 42.52592 L 96.65846 42.67435 L 97.32971 42.82225 L 98.00095 42.96967 L 98.67218 43.11656 L 99.34343 43.263 L 100.01466 43.40886 L 100.6859 43.55434 L 101.35715 43.69926 L 102.02838 43.84373 L 102.69962 43.98767 L 103.37086 44.13121 L 104.0421 44.27428 L 104.71333 44.41687 L 105.38458 44.55896 L 106.05582 44.70068 L 106.72705 44.8419 L 107.3983 44.98271 L 108.06953 45.12303 L 108.74077 45.26297 L 109.41202 45.40248 L 110.08325 45.54153 L 110.75449 45.68016 L 111.42574 45.81837 L 112.09697 45.95618 L 112.7682 46.09354 L 113.43945 46.23053 L 114.11069 46.36708 L 114.78192 46.5033 L 115.45317 46.63904 L 116.1244 46.77444 L 116.79564 46.90941 L 117.46689 47.04404 L 118.13812 47.17827 L 118.80936 47.31207 L 119.4806 47.44556 L 120.15184 47.57864 L 120.82307 47.71138 L 121.49432 47.8437 L 122.16556 47.97572 L 122.8368 48.1073 L 123.50804 48.23859 L 124.17928 48.36948 L 124.85052 48.50005 L 125.52176 48.63025 L 126.193 48.76007 L 126.86424 48.88962 L 127.53548 49.01878 L 128.20671 49.14764 L 128.87796 49.2761 L 129.5492 49.40424 L 130.22043 49.53209 L 130.89168 49.65958 L 131.56291 49.78674 L 132.23415 49.91357 L 132.9054 50.0401 L 133.57663 50.16632 L 134.24786 50.29219 L 134.91911 50.41774 L 135.59035 50.54303 L 136.26158 50.66798 L 136.93283 50.79263 L 137.60406 50.91695 L 138.2753 51.041 L 138.94655 51.16473 L 139.61778 51.28818 L 140.28902 51.41136 L 140.96027 51.53418 L 141.6315 51.65674 L 142.30273 51.77898 L 142.97398 51.90097 L 143.64522 52.02266 L 144.31645 52.14409 L 144.9877 52.26517 L 145.65894 52.38605 L 146.33017 52.5066 L 147.00142 52.6269 L 147.67265 52.74693 L 148.34389 52.86665 L 149.01514 52.9861 L 149.68637 53.10533 L 150.35762 53.22424 L 151.02885 53.34296 L 151.70009 53.46133 L 152.37134 53.57948 L 153.04257 53.69739 L 153.7138 53.815 L 154.38506 53.93239 L 155.05629 54.04947 L 155.72752 54.16637 L 156.39877 54.28297 L 157.07 54.39935 L 157.74124 54.51544 L 158.41249 54.63133 L 159.08372 54.74696 L 159.75496 54.86234 L 160.42621 54.97748 L 161.09744 55.09236 L 161.76868 55.20699 L 162.43993 55.3214 L 163.11116 55.4356 L 163.7824 55.54955 L 164.45364 55.66327 L 165.12488 55.77676 L 165.79611 55.89003 L 166.46736 56.00304 L 166.43846 55.9982  " fill="none"/>
 <g transform="matrix(0.98611,0.16571,-0.16571,0.98611,166.43845,55.99818)">
 <g stroke-width="0.64">
 <g stroke-dasharray="none" stroke-dashoffset="0.0">
 <g stroke-linecap="round">
 <g stroke-linejoin="round">
 <path d=" M -1.55997 2.07996 C -1.42996 1.29997 0.0 0.12999 0.38998 0.0 C 0.0 -0.12999 -1.42996 -1.29997 -1.55997 -2.07996  " fill="none"/>
 </g>
 </g>
 </g>
 </g>
  </g>
 <g transform="translate(66.61684,25.17236)">
 <g fill="#00f">
 <text style="stroke:none" transform="scale(1,-1) translate(44.80894,0)" text-anchor="middle"  font-size="10"> 
<g fill="#00f">
 <g stroke="none"> f(x) = projected profits</g> </g>
 </text> 
</g>
 </g>
 </g>
 </g>
 <g stroke-width="0.8">
 <g stroke="#800080" fill="#800080">
 <path d=" M 0.0 0.0 L 0.57762 6.59781 L 1.15524 9.33072 L 1.73286 11.42792 L 2.31049 13.19583 L 2.88812 14.75339 L 3.46574 16.16151 L 4.04337 17.45644 L 4.621 18.66171 L 5.19862 19.79375 L 5.77625 20.86444 L 6.35388 21.88281 L 6.9315 22.85585 L 7.50912 23.78912 L 8.08675 24.68713 L 8.66438 25.5536 L 9.242 26.39166 L 9.81963 27.20389 L 10.39725 27.99257 L 10.97488 28.75964 L 11.5525 29.50676 L 12.13013 30.23544 L 12.70775 30.94696 L 13.28539 31.64249 L 13.863 32.32304 L 14.44063 32.98906 L 15.01825 33.64236 L 15.59587 34.2832 L 16.17351 34.91237 L 16.75113 35.5303 L 17.32875 36.1377 L 17.90637 36.73503 L 18.48401 37.32285 L 19.06163 37.90155 L 19.63925 38.47153 L 20.21687 39.03316 L 20.79451 39.58685 L 21.37213 40.13293 L 21.94975 40.67168 L 22.52737 41.20331 L 23.10501 41.72824 L 23.68263 42.24661 L 24.26025 42.75868 L 24.83788 43.26476 L 25.41551 43.76494 L 25.99313 44.25945 L 26.57076 44.7485 L 27.14838 45.23232 L 27.726 45.71095 L 28.30363 46.18465 L 28.88126 46.65356 L 29.45888 47.11777 L 30.0365 47.57751 L 30.61414 48.03282 L 31.19176 48.48381 L 31.76938 48.9307 L 32.347 49.37349 L 32.92464 49.8124 L 33.50226 50.24745 L 34.07988 50.67877 L 34.6575 51.10648 L 35.23514 51.53058 L 35.81276 51.95125 L 36.39038 52.36855 L 36.968 52.7825 L 37.54564 53.1933 L 38.12326 53.60088 L 38.70088 54.00545 L 39.2785 54.40697 L 39.85612 54.80557 L 40.43376 55.20125 L 41.01138 55.5942 L 41.589 55.9843 L 42.16663 56.37173 L 42.74426 56.75653 L 43.32188 57.13875 L 43.8995 57.51837 L 44.47713 57.89558 L 45.05476 58.27031 L 45.63239 58.64261 L 46.21 59.0126 L 46.78763 59.38034 L 47.36526 59.74576 L 47.94289 60.10893 L 48.52051 60.46994 L 49.09813 60.82883 L 49.67577 61.18561 L 50.25339 61.54031 L 50.83101 61.893 L 51.40863 62.24367 L 51.98625 62.59235 L 52.56389 62.93913 L 53.14151 63.284 L 53.71913 63.627 L 54.29675 63.96815 L 54.87439 64.30754 L 55.45201 64.64511 L 56.02963 64.98093 L 56.60725 65.31502 L 57.18489 65.6474 L 57.76251 65.97813 L 58.34013 66.30724 L 58.91776 66.63469 L 59.49539 66.9605 L 60.07301 67.28477 L 60.65063 67.60748 L 61.22826 67.92868 L 61.8059 68.24832 L 62.38351 68.56648 L 62.96114 68.8832 L 63.53876 69.19846 L 64.11638 69.51228 L 64.69402 69.8247 L 65.27164 70.1357 L 65.84926 70.4454 L 66.42688 70.75368 L 67.00452 71.06062 L 67.58214 71.3663 L 68.15976 71.67064 L 68.73738 71.97363 L 69.31502 72.27539 L 69.89264 72.57599 L 70.47026 72.87526 L 71.04788 73.17326 L 71.62552 73.47014 L 72.20314 73.76581 L 72.78076 74.06029 L 73.35838 74.35359 L 73.936 74.64577 L 74.51364 74.93674 L 75.09126 75.22665 L 75.66888 75.51546 L 76.2465 75.80313 L 76.82414 76.08969 L 77.40176 76.3752 L 77.97939 76.65965 L 78.557 76.94305 L 79.13464 77.2254 L 79.71227 77.50676 L 80.28989 77.78708 L 80.86751 78.06639 L 81.44514 78.34473 L 82.02277 78.62202 L 82.60039 78.89836 L 83.17801 79.17378 L 83.75565 79.44821 L 84.33327 79.72168 L 84.91089 79.99423 L 85.48851 80.26588 L 86.06613 80.53654 L 86.64377 80.80637 L 87.22139 81.07529 L 87.79901 81.34329 L 88.37663 81.61044 L 88.95427 81.87677 L 89.53189 82.14212 L 90.10951 82.40665 L 90.68713 82.67035 L 91.26477 82.93327 L 91.84239 83.19528 L 92.42001 83.45651 L 92.99763 83.7169 L 93.57527 83.97641 L 94.1529 84.23521 L 94.73051 84.49324 L 95.30814 84.75046 L 95.88577 85.0069 L 96.4634 85.26253 L 97.04102 85.51747 L 97.61864 85.77158 L 98.19626 86.02493 L 98.7739 86.27762 L 99.35152 86.5295 L 99.92914 86.78069 L 100.50676 87.03113 L 101.0844 87.28088 L 101.66202 87.5299 L 102.23964 87.77824 L 102.81726 88.02586 L 103.3949 88.27275 L 103.97252 88.51895 L 104.55014 88.7645 L 105.12776 89.00937 L 105.7054 89.25357 L 106.28302 89.4971 L 106.86064 89.74 L 107.43826 89.9822 L 108.0159 90.22379 L 108.59352 90.46468 L 109.17114 90.70494 L 109.74876 90.94456 L 110.32639 91.18361 L 110.90402 91.42197 L 111.48164 91.65977 L 112.05927 91.89693 L 112.63689 92.13348 L 113.21452 92.36937 L 113.79214 92.60475 L 114.36977 92.83948 L 114.94739 93.07362 L 115.52502 93.30719 L 116.10265 93.54015 L 116.68027 93.77254 L 117.25789 94.00435 L 117.83553 94.23563 L 118.41315 94.46637 L 118.99077 94.69643 L 119.56839 94.92601 L 120.14603 95.15508 L 120.72365 95.38345 L 121.30127 95.6114 L 121.87889 95.83879 L 122.45651 96.06558 L 123.03415 96.29192 L 123.61177 96.51767 L 124.18939 96.74298 L 124.76701 96.96767 L 125.34465 97.19186 L 125.92227 97.41554 L 126.4999 97.63872 L 127.07751 97.86139 L 127.65515 98.08356 L 128.23277 98.30522 L 128.8104 98.52635 L 129.38802 98.74706 L 129.96565 98.96724 L 130.54327 99.1869 L 131.1209 99.40608 L 131.69852 99.62483 L 132.27615 99.84302 L 132.85378 100.06079 L 133.4314 100.27809 L 134.00902 100.49495 L 134.58664 100.71127 L 135.16428 100.92717 L 135.7419 101.1426 L 136.31952 101.35756 L 136.89714 101.57208 L 137.47478 101.78613 L 138.0524 101.99974 L 138.63002 102.21294 L 139.20764 102.42566 L 139.78528 102.63943 L 140.3629 102.85126 L 140.94052 103.0627 L 141.51814 103.27368 L 142.09578 103.4842 L 142.6734 103.6943 L 143.25102 103.90404 L 143.82864 104.1133 L 144.40628 104.32214 L 144.9839 104.5306 L 145.56152 104.73863 L 146.13914 104.94621 L 146.71677 105.15343 L 147.2944 105.3602 L 147.87202 105.56657 L 148.44965 105.77257 L 149.02727 105.97818 L 149.6049 106.18333 L 150.18253 106.38812 L 150.76015 106.59253 L 151.33777 106.79654 L 151.9154 107.00014 L 152.49303 107.20338 L 153.07065 107.40623 L 153.64827 107.60869 L 154.2259 107.81076 L 154.80353 108.01248 L 155.38115 108.2138 L 155.95877 108.41475 L 156.53639 108.61536 L 157.11403 108.81555 L 157.69165 109.0154 L 158.26927 109.21487 L 158.8469 109.414 L 159.42453 109.61273 L 160.00215 109.81114 L 160.57977 110.0092 L 161.1574 110.20683 L 161.73503 110.40417 L 162.31265 110.60117 L 162.89027 110.79779 L 163.4679 110.99406 L 164.04553 111.18997 L 164.62315 111.38557 L 165.20078 111.58081 L 165.7784 111.77573 L 166.35603 111.97028 L 166.93365 112.1645 L 167.51128 112.35838 L 168.0889 112.55197 L 168.66652 112.7452 L 169.24416 112.93806 L 169.82178 113.13062 L 170.3994 113.32288 L 170.97702 113.51477 L 171.55466 113.70634 L 172.13228 113.89763 L 172.0358 113.86574  " fill="none"/>
 <g transform="matrix(0.94943,0.31383,-0.31383,0.94943,172.0358,113.86572)">
 <g stroke-width="0.64">
 <g stroke-dasharray="none" stroke-dashoffset="0.0">
 <g stroke-linecap="round">
 <g stroke-linejoin="round">
 <path d=" M -1.55997 2.07996 C -1.42996 1.29997 0.0 0.12999 0.38998 0.0 C 0.0 -0.12999 -1.42996 -1.29997 -1.55997 -2.07996  " fill="none"/>
 </g>
 </g>
 </g>
 </g>
  </g>
 <g transform="translate(72.72177,115.88953)">
 <g fill="#800080">
 <text style="stroke:none" transform="scale(1,-1) translate(38.70401,0)" text-anchor="middle"  font-size="10"> 
<g fill="#800080">
 <g stroke="none"> g(x) = actual profits </g> </g>
 </text> 
</g>
 </g>
 </g>
 </g>
 </g>
 <g transform="translate(192.13748,3.53297)">
 <g fill="#000">
 <text style="stroke:none" transform="scale(1,-1) translate(2.85764,0)" text-anchor="middle"  font-size="10"> 
<g fill="#000">
 <g stroke="none"> x </g> </g>
 </text> 
</g>
 </g>
 <g transform="translate(3.53297,160.81438)">
 <g fill="#000">
 <text style="stroke:none" transform="scale(1,-1) translate(2.6308,0)" text-anchor="middle"  font-size="10"> 
<g fill="#000">
 <g stroke="none"> y </g> </g>
 </text> 
</g>
 </g>
 </g>
 </g>
 
                                                        </g> 
</svg> 
