<?xml version="1.0" encoding="UTF-8" standalone="no"?>
<!DOCTYPE svg PUBLIC "-//W3C//DTD SVG 1.1//EN" "http://www.w3.org/Graphics/SVG/1.1/DTD/svg11.dtd">
<svg xmlns="http://www.w3.org/2000/svg" xmlns:xlink="http://www.w3.org/1999/xlink" version="1.1" width="209.763pt" height="166.377pt" viewBox="0 0 209.763 166.377">
<path transform="matrix(1,0,0,-1,9.686,163.678)" stroke-width="1" stroke-linecap="butt" stroke-miterlimit="10" stroke-linejoin="miter" fill="none" stroke="#808080" d="M 0 70.07785 L 0 74.32967 M 24.28363 70.07785 L 24.28363 74.32967 M 48.56728 70.07785 L 48.56728 74.32967 M 97.13455 70.07785 L 97.13455 74.32967 M 121.4182 70.07785 L 121.4182 74.32967 M 145.70183 70.07785 L 145.70183 74.32967 M 169.98548 70.07785 L 169.98548 74.32967 M 194.26912 70.07785 L 194.26912 74.32967 "/>
<path transform="matrix(1,0,0,-1,9.686,163.678)" stroke-width="1" stroke-linecap="butt" stroke-miterlimit="10" stroke-linejoin="miter" fill="none" stroke="#808080" d="M 70.72496 4.24727 L 74.97685 4.24727 M 70.72496 21.23639 L 74.97685 21.23639 M 70.72496 38.22552 L 74.97685 38.22552 M 70.72496 55.21465 L 74.97685 55.21465 M 70.72496 89.19289 L 74.97685 89.19289 M 70.72496 106.182 L 74.97685 106.182 M 70.72496 123.17113 L 74.97685 123.17113 M 70.72496 140.16027 L 74.97685 140.16027 M 70.72496 157.14939 L 74.97685 157.14939 "/>
<path transform="matrix(1,0,0,-1,9.686,163.678)" stroke-width="1" stroke-linecap="butt" stroke-miterlimit="10" stroke-linejoin="miter" fill="none" stroke="#000000" d="M 0 72.20377 L 192.2766 72.20377 "/>
<path transform="matrix(1,0,0,-1,201.9626,91.47422)" d="M 1.99252 0 L -1.19551 1.59401 L 0 0 L -1.19551 -1.59401 "/>
<path transform="matrix(1,0,0,-1,9.686,163.678)" stroke-width="1" stroke-linecap="butt" stroke-miterlimit="10" stroke-linejoin="miter" fill="none" stroke="#000000" d="M 72.8509 0 L 72.8509 159.40415 "/>
<path transform="matrix(0,-1,-1,-0,82.536899,4.2738497)" d="M 1.99252 0 L -1.19551 1.59401 L 0 0 L -1.19551 -1.59401 "/>
<symbol id="font_0_1">
<path d="M .57600006 0 C .59300008 0 .611 0 .611 .019999996 C .611 .040000008 .59300008 .040000008 .57600006 .040000008 L .035000005 .040000008 C .018 .040000008 0 .040000008 0 .019999996 C 0 0 .018 0 .035000005 0 L .57600006 0 Z "/>
</symbol>
<use xlink:href="#font_0_1" transform="matrix(9.9626,0,0,-9.9626,4.147896,101.25059)"/>
<symbol id="font_1_4">
<path d="M .24800003 .37400005 C .33 .40100003 .388 .47100006 .388 .55 C .388 .632 .3 .688 .204 .688 C .10300001 .688 .027000003 .628 .027000003 .55200007 C .027000003 .519 .049000004 .5 .078 .5 C .109000008 .5 .12900001 .522 .12900001 .55100008 C .12900001 .6010001 .082 .6010001 .067 .6010001 C .098 .65000006 .164 .66300007 .20000002 .66300007 C .24100003 .66300007 .29600004 .64100006 .29600004 .55100008 C .29600004 .53900006 .29400004 .48100005 .268 .43700005 C .238 .38900004 .204 .38600005 .17900002 .38500003 C .171 .38400004 .14700002 .38200004 .14000002 .38200004 C .132 .38100005 .125 .38000003 .125 .37000004 C .125 .35900004 .132 .35900004 .14900002 .35900004 L .19300002 .35900004 C .275 .35900004 .312 .29100005 .312 .193 C .312 .057000005 .24300003 .028 .199 .028 C .15600002 .028 .081 .045 .046000005 .104 C .081 .09900001 .11200001 .12100001 .11200001 .15900001 C .11200001 .19500001 .085 .215 .056 .215 C .031999999 .215 0 .201 0 .157 C 0 .06600001 .093 0 .20200002 0 C .32400004 0 .41500003 .091000009 .41500003 .193 C .41500003 .27500005 .35200004 .35300005 .24800003 .37400005 Z "/>
</symbol>
<use xlink:href="#font_1_4" transform="matrix(9.9626,0,0,-9.9626,11.48743,103.76116)"/>
<use xlink:href="#font_0_1" transform="matrix(9.9626,0,0,-9.9626,28.430897,101.25059)"/>
<symbol id="font_1_3">
<path d="M .07700001 .07700001 L .18300002 .18 C .33900003 .31800003 .39900003 .372 .39900003 .47200004 C .39900003 .586 .30900003 .666 .18700002 .666 C .074 .666 0 .574 0 .485 C 0 .42900003 .05 .42900003 .053000008 .42900003 C .07000001 .42900003 .105000007 .441 .105000007 .48200003 C .105000007 .508 .08700001 .53400006 .052000006 .53400006 C .044000005 .53400006 .042000008 .53400006 .039 .53300008 C .062000004 .59800007 .11600001 .63500007 .17400001 .63500007 C .26500003 .63500007 .308 .554 .308 .47200004 C .308 .39200003 .25800003 .31300003 .20300003 .25100003 L .011000004 .037 C 0 .026 0 .024 0 0 L .37100003 0 L .39900003 .17400001 L .374 .17400001 C .36900003 .14400001 .36200003 .1 .352 .085 C .345 .07700001 .279 .07700001 .257 .07700001 L .07700001 .07700001 Z "/>
</symbol>
<use xlink:href="#font_1_3" transform="matrix(9.9626,0,0,-9.9626,35.85113,103.541988)"/>
<use xlink:href="#font_0_1" transform="matrix(9.9626,0,0,-9.9626,52.713899,101.25059)"/>
<symbol id="font_1_2">
<path d="M .205 .64000007 C .205 .66400006 .205 .666 .18200003 .666 C .120000008 .60200008 .032000007 .60200008 0 .60200008 L 0 .57100006 C .020000004 .57100006 .07900001 .57100006 .13100001 .597 L .13100001 .079 C .13100001 .043 .128 .031000002 .038000004 .031000002 L .0060000049 .031000002 L .0060000049 0 C .04100001 .003 .128 .003 .168 .003 C .20800002 .003 .29500003 .003 .33000005 0 L .33000005 .031000002 L .29800005 .031000002 C .20800002 .031000002 .205 .042000005 .205 .079 L .205 .64000007 Z "/>
</symbol>
<use xlink:href="#font_1_2" transform="matrix(9.9626,0,0,-9.9626,60.522676,103.541988)"/>
<use xlink:href="#font_1_2" transform="matrix(9.9626,0,0,-9.9626,105.21467,103.541988)"/>
<use xlink:href="#font_1_3" transform="matrix(9.9626,0,0,-9.9626,129.11013,103.541988)"/>
<use xlink:href="#font_1_4" transform="matrix(9.9626,0,0,-9.9626,153.31343,103.76116)"/>
<symbol id="font_1_5">
<path d="M .266 .165 L .266 .078 C .266 .042000005 .26400004 .031000002 .19000001 .031000002 L .16900002 .031000002 L .16900002 0 C .21000001 .003 .26200003 .003 .30400003 .003 C .34600003 .003 .39900003 .003 .44000004 0 L .44000004 .031000002 L .41900004 .031000002 C .34500004 .031000002 .34300003 .042000005 .34300003 .078 L .34300003 .165 L .44300003 .165 L .44300003 .19600001 L .34300003 .19600001 L .34300003 .651 C .34300003 .671 .34300003 .67700007 .32700003 .67700007 C .31800003 .67700007 .31500004 .67700007 .307 .665 L 0 .19600001 L 0 .165 L .266 .165 M .272 .19600001 L .028 .19600001 L .272 .569 L .272 .19600001 Z "/>
</symbol>
<use xlink:href="#font_1_5" transform="matrix(9.9626,0,0,-9.9626,177.45696,103.541988)"/>
<symbol id="font_1_6">
<path d="M .39900003 .223 C .39900003 .34200005 .317 .44200004 .209 .44200004 C .16100002 .44200004 .118000019 .42600004 .082 .39100004 L .082 .586 C .10200001 .58000007 .135 .573 .16700001 .573 C .29 .573 .36 .66400006 .36 .67700007 C .36 .683 .357 .688 .35 .688 C .349 .688 .347 .688 .342 .68500009 C .322 .67600008 .273 .656 .20600002 .656 C .16600001 .656 .120000008 .66300007 .073 .6840001 C .065 .68700006 .06300001 .68700006 .061000009 .68700006 C .051000004 .68700006 .051000004 .679 .051000004 .66300007 L .051000004 .36700005 C .051000004 .34900005 .051000004 .34100003 .065 .34100003 C .07200001 .34100003 .074 .34400005 .07800001 .35000003 C .08900002 .36600004 .12600002 .42000006 .207 .42000006 C .259 .42000006 .284 .37400005 .292 .35600005 C .308 .31900005 .31 .28000004 .31 .23 C .31 .19500001 .31 .135 .286 .093 C .262 .054000006 .22500001 .028 .17900002 .028 C .106000009 .028 .049000008 .08100001 .032 .14000002 C .035 .13900002 .038000008 .13800001 .049000008 .13800001 C .082 .13800001 .09900001 .163 .09900001 .187 C .09900001 .21100001 .082 .23600002 .049000008 .23600002 C .035 .23600002 0 .22900002 0 .18300002 C 0 .097 .069000009 0 .18100001 0 C .297 0 .39900003 .096 .39900003 .223 Z "/>
</symbol>
<use xlink:href="#font_1_6" transform="matrix(9.9626,0,0,-9.9626,201.96013,103.76116)"/>
<use xlink:href="#font_0_1" transform="matrix(9.9626,0,0,-9.9626,60.004899,159.9346)"/>
<symbol id="font_1_8">
<path d="M .121 .47900004 C .075 .509 .071 .54300007 .071 .56000009 C .071 .62100008 .136 .66300007 .20700002 .66300007 C .28000004 .66300007 .344 .61100009 .344 .53900006 C .344 .48200003 .305 .43400005 .245 .39900003 L .121 .47900004 M .26700003 .38400004 C .33900003 .42100004 .388 .47300006 .388 .53900006 C .388 .63100007 .29900003 .688 .208 .688 C .108 .688 .027000003 .614 .027000003 .521 C .027000003 .503 .029 .45800004 .071 .41100005 C .082 .39900003 .11900001 .37400005 .144 .35700003 C .086 .32800005 0 .272 0 .17300001 C 0 .067 .102000009 0 .20700002 0 C .32000003 0 .41500003 .083000008 .41500003 .19000001 C .41500003 .22600001 .404 .27100004 .36600004 .31300003 C .34700004 .33400003 .33100004 .34400005 .26700003 .38400004 M .167 .34200005 L .29000003 .26400004 C .31800003 .245 .365 .215 .365 .154 C .365 .080000009 .29000003 .028 .208 .028 C .122 .028 .050000006 .09 .050000006 .17300001 C .050000006 .231 .082 .29500003 .167 .34200005 Z "/>
</symbol>
<symbol id="font_1_1">
<path d="M .421 .34200005 C .421 .42200003 .416 .50200006 .381 .57600006 C .335 .67200008 .25300003 .688 .211 .688 C .15100001 .688 .07800001 .66200008 .037000006 .56900009 C .0050000029 .5 0 .42200003 0 .34200005 C 0 .26700003 .0040000008 .177 .045000007 .101 C .088 .020000002 .161 0 .21000001 0 C .264 0 .34 .021000002 .384 .116000007 C .416 .185 .421 .263 .421 .34200005 M .21000001 .022000002 C .171 .022000002 .112 .047000003 .094 .143 C .083000008 .20300001 .083000008 .29500003 .083000008 .35400004 C .083000008 .41800005 .083000008 .48400004 .091000009 .53800007 C .11 .65700009 .185 .66600009 .21000001 .66600009 C .243 .66600009 .30900003 .64800009 .328 .549 C .338 .49300004 .338 .41700004 .338 .35400004 C .338 .279 .338 .21100001 .32700003 .147 C .312 .052 .255 .022000002 .21000001 .022000002 Z "/>
</symbol>
<use xlink:href="#font_1_8" transform="matrix(9.9626,0,0,-9.9626,67.34543,162.44518)"/>
<use xlink:href="#font_1_1" transform="matrix(9.9626,0,0,-9.9626,72.296848,162.44518)"/>
<use xlink:href="#font_0_1" transform="matrix(9.9626,0,0,-9.9626,60.004899,142.9456)"/>
<symbol id="font_1_7">
<path d="M .089999999 .35000003 L .089999999 .37400005 C .089999999 .62700006 .21400002 .66300007 .26500003 .66300007 C .28900004 .66300007 .33100004 .65700009 .35300002 .623 C .33800004 .623 .298 .623 .298 .57800009 C .298 .54700008 .32200004 .53200009 .344 .53200009 C .36 .53200009 .39000003 .54100009 .39000003 .58000007 C .39000003 .64000007 .34600003 .688 .263 .688 C .13499999 .688 0 .559 0 .33800004 C 0 .071 .116000007 0 .20900002 0 C .32000003 0 .41500003 .094000007 .41500003 .22600001 C .41500003 .35300005 .32600004 .44900004 .215 .44900004 C .14700002 .44900004 .11000001 .39800004 .089999999 .35000003 M .20900002 .028 C .146 .028 .116000007 .088 .11000001 .103 C .092 .15 .092 .23 .092 .24800001 C .092 .32600004 .124000009 .42600004 .21400002 .42600004 C .23000002 .42600004 .27600003 .42600004 .307 .36400003 C .32500003 .32700003 .32500003 .27600003 .32500003 .22700002 C .32500003 .179 .32500003 .12900001 .30800004 .093 C .27800004 .033000005 .23200003 .028 .20900002 .028 Z "/>
</symbol>
<use xlink:href="#font_1_7" transform="matrix(9.9626,0,0,-9.9626,67.34543,145.45618)"/>
<use xlink:href="#font_1_1" transform="matrix(9.9626,0,0,-9.9626,72.296848,145.45618)"/>
<use xlink:href="#font_0_1" transform="matrix(9.9626,0,0,-9.9626,60.004899,125.95659)"/>
<use xlink:href="#font_1_5" transform="matrix(9.9626,0,0,-9.9626,67.205959,128.24799)"/>
<use xlink:href="#font_1_1" transform="matrix(9.9626,0,0,-9.9626,72.296848,128.46717)"/>
<use xlink:href="#font_0_1" transform="matrix(9.9626,0,0,-9.9626,60.004899,108.9686)"/>
<use xlink:href="#font_1_3" transform="matrix(9.9626,0,0,-9.9626,67.42513,111.259998)"/>
<use xlink:href="#font_1_1" transform="matrix(9.9626,0,0,-9.9626,72.296848,111.47917)"/>
<use xlink:href="#font_1_3" transform="matrix(9.9626,0,0,-9.9626,67.42513,77.69698)"/>
<use xlink:href="#font_1_1" transform="matrix(9.9626,0,0,-9.9626,72.296848,77.91616)"/>
<use xlink:href="#font_1_5" transform="matrix(9.9626,0,0,-9.9626,67.205959,60.707986)"/>
<use xlink:href="#font_1_1" transform="matrix(9.9626,0,0,-9.9626,72.296848,60.927164)"/>
<use xlink:href="#font_1_7" transform="matrix(9.9626,0,0,-9.9626,67.34543,43.938165)"/>
<use xlink:href="#font_1_1" transform="matrix(9.9626,0,0,-9.9626,72.296848,43.938165)"/>
<use xlink:href="#font_1_8" transform="matrix(9.9626,0,0,-9.9626,67.34543,26.949173)"/>
<use xlink:href="#font_1_1" transform="matrix(9.9626,0,0,-9.9626,72.296848,26.949173)"/>
<use xlink:href="#font_1_2" transform="matrix(9.9626,0,0,-9.9626,62.832674,9.740997)"/>
<use xlink:href="#font_1_1" transform="matrix(9.9626,0,0,-9.9626,67.31584,9.960175)"/>
<use xlink:href="#font_1_1" transform="matrix(9.9626,0,0,-9.9626,72.29714,9.960175)"/>
<clipPath id="cp2">
<path transform="matrix(1,0,0,-1,9.686,163.678)" d="M 0 0 L 194.26912 0 L 194.26912 161.39667 L 0 161.39667 Z "/>
</clipPath>
<g clip-path="url(#cp2)">
<path transform="matrix(1,0,0,-1,9.686,163.678)" stroke-width="1" stroke-linecap="butt" stroke-miterlimit="10" stroke-linejoin="miter" fill="none" stroke="#000000" d="M 24.43706 4.67908 L 24.77092 5.61877 L 25.25821 6.97192 L 25.7455 8.30685 L 26.2328 9.62367 L 26.72008 10.92242 L 27.20738 12.20345 L 27.69467 13.46674 L 28.18196 14.71239 L 28.66925 15.94057 L 29.15656 17.15138 L 29.64383 18.345 L 30.13113 19.52147 L 30.61842 20.68094 L 31.10571 21.82356 L 31.593 22.94937 L 32.0803 24.05862 L 32.56758 25.15138 L 33.05489 26.22778 L 33.54218 27.28795 L 34.02946 28.33197 L 34.51675 29.36002 L 35.00406 30.37215 L 35.49133 31.36858 L 35.97864 32.34932 L 36.46593 33.3145 L 36.95322 34.26442 L 37.4405 35.19902 L 37.92781 36.11852 L 38.41508 37.023 L 38.90239 37.91258 L 39.38968 38.7874 L 39.87697 39.6476 L 40.36427 40.49324 L 40.85155 41.32455 L 41.33885 42.1415 L 41.82614 42.94432 L 42.31343 43.73317 L 42.80072 44.5081 L 43.28802 45.26927 L 43.7753 46.01675 L 44.2626 46.75073 L 44.7499 47.4713 L 45.23718 48.1786 L 45.72447 48.87274 L 46.21178 49.55376 L 46.69905 50.22197 L 47.18636 50.87737 L 47.67365 51.52008 L 48.16093 52.15028 L 48.64822 52.76805 L 49.13553 53.37355 L 49.6228 53.96684 L 50.1101 54.54813 L 50.5974 55.11746 L 51.08469 55.67499 L 51.57198 56.22086 L 52.05928 56.75514 L 52.54657 57.27802 L 53.03386 57.78961 L 53.52116 58.29002 L 54.00844 58.77936 L 54.49574 59.25777 L 54.98303 59.72536 L 55.47032 60.18227 L 55.95761 60.62862 L 56.4449 61.06451 L 56.93219 61.49011 L 57.4195 61.90547 L 57.90678 62.3108 L 58.39407 62.70618 L 58.88138 63.09175 L 59.36865 63.4676 L 59.85596 63.8339 L 60.34325 64.19072 L 60.83054 64.53822 L 61.31783 64.87651 L 61.80513 65.20573 L 62.2924 65.526 L 62.77971 65.8374 L 63.26701 66.14012 L 63.75429 66.43425 L 64.2416 66.71992 L 64.72888 66.99725 L 65.21617 67.26636 L 65.70346 67.52736 L 66.19077 67.78041 L 66.67804 68.0256 L 67.16534 68.26309 L 67.65263 68.49297 L 68.13992 68.71536 L 68.62721 68.93044 L 69.11452 69.13826 L 69.60179 69.33899 L 70.0891 69.53271 L 70.5764 69.71959 L 71.06367 69.89975 L 71.55098 70.0733 L 72.03825 70.24036 L 72.52556 70.40105 L 73.01285 70.5555 L 73.50014 70.70381 L 73.98743 70.84616 L 74.47473 70.98264 L 74.962 71.11337 L 75.44931 71.23846 L 75.93661 71.35808 L 76.42389 71.47232 L 76.9112 71.5813 L 77.39848 71.68517 L 77.88577 71.78403 L 78.37306 71.87799 L 78.86037 71.96721 L 79.34764 72.05177 L 79.83495 72.13187 L 80.32225 72.20753 L 80.80952 72.27896 L 81.29683 72.34624 L 81.78412 72.40952 L 82.27141 72.46889 L 82.7587 72.52449 L 83.246 72.57646 L 83.73328 72.62491 L 84.22058 72.66995 L 84.70787 72.71172 L 85.19516 72.75034 L 85.68245 72.78592 L 86.16975 72.81862 L 86.65704 72.84853 L 87.14433 72.87578 L 87.63162 72.9005 L 88.11891 72.9228 L 88.60622 72.94283 L 89.09349 72.9607 L 89.5808 72.97652 L 90.06808 72.99042 L 90.55537 73.00253 L 91.04266 73.01299 L 91.52997 73.0219 L 92.01724 73.02937 L 92.50455 73.03554 L 92.99184 73.04056 L 93.47913 73.04451 L 93.96642 73.04755 L 94.45372 73.04979 L 94.94101 73.05133 L 95.4283 73.05234 L 95.9156 73.05289 L 96.40288 73.05315 L 96.89018 73.05322 L 97.37747 73.05322 L 97.86476 73.05328 L 98.35205 73.05354 L 98.83936 73.0541 L 99.32663 73.05508 L 99.81393 73.05664 L 100.30122 73.05887 L 100.78851 73.0619 L 101.2758 73.06586 L 101.7631 73.07086 L 102.2504 73.07704 L 102.73769 73.08452 L 103.22498 73.09341 L 103.71227 73.10385 L 104.19957 73.11598 L 104.68684 73.12987 L 105.17415 73.14568 L 105.66144 73.16354 L 106.14873 73.18356 L 106.63602 73.20587 L 107.12332 73.23056 L 107.6106 73.25781 L 108.0979 73.2877 L 108.58519 73.32039 L 109.07248 73.35599 L 109.55977 73.39458 L 110.04707 73.43634 L 110.53435 73.48138 L 111.02165 73.52982 L 111.50894 73.58176 L 111.99623 73.63737 L 112.48352 73.69673 L 112.97083 73.76 L 113.4581 73.82726 L 113.9454 73.89867 L 114.4327 73.97433 L 114.91998 74.0544 L 115.40727 74.13896 L 115.89458 74.22816 L 116.38185 74.32211 L 116.86916 74.42097 L 117.35646 74.5248 L 117.84373 74.63377 L 118.33104 74.748 L 118.81831 74.8676 L 119.30562 74.99268 L 119.79291 75.12338 L 120.2802 75.25984 L 120.76749 75.40218 L 121.25479 75.55048 L 121.74207 75.70491 L 122.22937 75.86559 L 122.71666 76.03262 L 123.20395 76.20615 L 123.69124 76.38629 L 124.17854 76.57312 L 124.66582 76.76685 L 125.15312 76.96754 L 125.64041 77.17535 L 126.1277 77.3904 L 126.61499 77.61278 L 127.1023 77.84264 L 127.58957 78.0801 L 128.07688 78.32527 L 128.56417 78.5783 L 129.05146 78.83926 L 129.53874 79.10835 L 130.02605 79.38565 L 130.51332 79.6713 L 131.00063 79.96541 L 131.48792 80.2681 L 131.9752 80.5795 L 132.46251 80.89973 L 132.9498 81.22893 L 133.43709 81.5672 L 133.92438 81.91464 L 134.41167 82.27144 L 134.89896 82.63771 L 135.38626 83.01353 L 135.87354 83.39905 L 136.36084 83.7944 L 136.84813 84.1997 L 137.33542 84.61507 L 137.82271 85.04063 L 138.31002 85.47649 L 138.79729 85.92278 L 139.28459 86.37967 L 139.77188 86.84724 L 140.25917 87.32559 L 140.74646 87.81491 L 141.23377 88.31528 L 141.72104 88.82683 L 142.20835 89.34969 L 142.69564 89.88396 L 143.18292 90.4298 L 143.67021 90.98726 L 144.15752 91.55656 L 144.64479 92.13779 L 145.1321 92.73108 L 145.61939 93.3365 L 146.10668 93.95425 L 146.59397 94.58443 L 147.08127 95.2271 L 147.56856 95.88246 L 148.05585 96.55061 L 148.54315 97.23166 L 149.03043 97.92569 L 149.51773 98.63293 L 150.005 99.35347 L 150.49231 100.08742 L 150.9796 100.83487 L 151.46689 101.59598 L 151.95418 102.3709 L 152.44149 103.15967 L 152.92876 103.9625 L 153.41606 104.77945 L 153.90335 105.6106 L 154.39064 106.45624 L 154.87793 107.31636 L 155.36524 108.19113 L 155.85251 109.0807 L 156.33982 109.98515 L 156.8271 110.90459 L 157.31439 111.83917 L 157.80168 112.789 L 158.28899 113.75423 L 158.77626 114.73485 L 159.26357 115.73122 L 159.75086 116.74332 L 160.23815 117.7713 L 160.72544 118.81526 L 161.21274 119.87537 L 161.70001 120.95174 L 162.18732 122.04446 L 162.67462 123.15369 L 163.1619 124.27951 L 163.6492 125.42198 L 164.13649 126.5814 L 164.62378 127.75786 L 165.11107 128.95137 L 165.59836 130.16217 L 166.08565 131.39028 L 166.57295 132.6359 L 167.06023 133.89911 L 167.54753 135.18006 L 168.03482 136.47887 L 168.52211 137.79557 L 169.0094 139.13042 L 169.4967 140.48352 L 169.83057 141.42316 "/>
<path transform="matrix(-.33478,.94225,.94225,.33478,34.12306,158.9989)" stroke-width="1" stroke-linecap="round" stroke-linejoin="round" fill="none" stroke="#000000" d="M -1.19551 1.59401 C -1.09587 .99626 0 .09961 .29886 0 C 0 -.09961 -1.09587 -.99626 -1.19551 -1.59401 "/>
<path transform="matrix(.33478,-.94225,-.94225,-.33478,179.51657,22.254853)" stroke-width="1" stroke-linecap="round" stroke-linejoin="round" fill="none" stroke="#000000" d="M -1.19551 1.59401 C -1.09587 .99626 0 .09961 .29886 0 C 0 -.09961 -1.09587 -.99626 -1.19551 -1.59401 "/>
</g>
<symbol id="font_3_1">
<path d="M .305 .31300003 C .311 .33900003 .334 .43100003 .404 .43100003 C .409 .43100003 .433 .43100003 .454 .418 C .426 .41300003 .40600003 .388 .40600003 .36400003 C .40600003 .34800003 .417 .32900004 .444 .32900004 C .46600003 .32900004 .498 .34700004 .498 .38700003 C .498 .43900005 .439 .45300005 .405 .45300005 C .347 .45300005 .312 .40000005 .3 .37700004 C .275 .44300003 .221 .45300005 .19200002 .45300005 C .08800001 .45300005 .031000002 .32400004 .031000002 .29900003 C .031000002 .28900004 .041 .28900004 .043000007 .28900004 C .051000008 .28900004 .054000006 .291 .056 .3 C .09 .40600003 .156 .43100003 .19000001 .43100003 C .209 .43100003 .244 .42200003 .244 .36400003 C .244 .33300004 .22700002 .26600004 .19000001 .126 C .17400001 .064 .13900002 .022000002 .095000009 .022000002 C .08900001 .022000002 .06600001 .022000002 .045 .035 C .07000001 .040000004 .09200001 .061 .09200001 .089 C .09200001 .116000007 .07000001 .124000009 .055000009 .124000009 C .025 .124000009 0 .098000008 0 .06600001 C 0 .020000002 .050000006 0 .094000007 0 C .16000001 0 .19600001 .07000001 .19900002 .076000008 C .21100001 .039 .24700003 0 .307 0 C .41 0 .467 .12900001 .467 .15400002 C .467 .16400002 .458 .16400002 .455 .16400002 C .446 .16400002 .444 .16000001 .442 .15300001 C .409 .046 .341 .022000002 .30900003 .022000002 C .27 .022000002 .254 .054 .254 .08800001 C .254 .11000001 .26 .13200002 .271 .17600002 L .305 .31300003 Z "/>
</symbol>
<use xlink:href="#font_3_1" transform="matrix(9.9626,0,0,-9.9626,195.05892,88.05357)"/>
<symbol id="font_3_2">
<path d="M .45700003 .586 C .461 .6 .461 .602 .461 .609 C .461 .62700006 .447 .63600006 .432 .63600006 C .42200003 .63600006 .40600003 .63 .397 .615 C .395 .61 .387 .579 .38300003 .561 C .37600003 .535 .36900003 .508 .363 .48100005 L .318 .301 C .314 .286 .271 .21600002 .20500002 .21600002 C .15400002 .21600002 .143 .26000003 .143 .29700003 C .143 .34300003 .16000001 .40500004 .194 .49300004 C .21000001 .53400006 .21400002 .545 .21400002 .56500008 C .21400002 .61 .18200001 .6470001 .13200002 .6470001 C .037 .6470001 0 .50200006 0 .49300004 C 0 .48300005 .01 .48300005 .012 .48300005 C .022000002 .48300005 .023 .485 .028000003 .50100007 C .055000009 .595 .095000009 .625 .12900001 .625 C .13700001 .625 .15400002 .625 .15400002 .59300008 C .15400002 .568 .14400001 .54200008 .13700001 .523 C .097 .41700004 .079 .36 .079 .31300003 C .079 .224 .142 .194 .201 .194 C .24000003 .194 .274 .21100001 .30200003 .23900002 C .289 .187 .277 .13800001 .237 .08500001 C .21100001 .051 .17300001 .022 .127 .022 C .113000009 .022 .068 .025000006 .051000008 .06400001 C .067 .06400001 .080000009 .06400001 .094000007 .076000008 C .104 .08500001 .11400001 .098000008 .11400001 .117000009 C .11400001 .148 .087000008 .15200001 .07700001 .15200001 C .054000006 .15200001 .021 .136 .021 .087000008 C .021 .037 .065000008 0 .127 0 C .23 0 .333 .091000009 .361 .20400001 L .45700003 .586 Z "/>
</symbol>
<use xlink:href="#font_3_2" transform="matrix(9.9626,0,0,-9.9626,86.35792,12.112326)"/>
</svg>
