<?xml version="1.0" encoding="UTF-8" standalone="no"?>
<!DOCTYPE svg PUBLIC "-//W3C//DTD SVG 1.1//EN" "http://www.w3.org/Graphics/SVG/1.1/DTD/svg11.dtd">
<svg xmlns="http://www.w3.org/2000/svg" xmlns:xlink="http://www.w3.org/1999/xlink" version="1.1" width="209.76pt" height="161.787pt" viewBox="0 0 209.76 161.787">
<path transform="matrix(1,0,0,-1,9.686,161.588)" stroke-width="1" stroke-linecap="butt" stroke-miterlimit="10" stroke-linejoin="miter" fill="none" stroke="#808080" d="M 0 24.77238 L 0 29.02434 M 38.85321 24.77238 L 38.85321 29.02434 M 77.70642 24.77238 L 77.70642 29.02434 M 116.55965 24.77238 L 116.55965 29.02434 M 194.26607 24.77238 L 194.26607 29.02434 "/>
<path transform="matrix(1,0,0,-1,9.686,161.588)" stroke-width="1" stroke-linecap="butt" stroke-miterlimit="10" stroke-linejoin="miter" fill="none" stroke="#808080" d="M 153.28694 53.79675 L 157.53876 53.79675 M 153.28694 80.69513 L 157.53876 80.69513 M 153.28694 107.59352 L 157.53876 107.59352 M 153.28694 134.4919 L 157.53876 134.4919 "/>
<path transform="matrix(1,0,0,-1,9.686,161.588)" stroke-width="1" stroke-linecap="butt" stroke-miterlimit="10" stroke-linejoin="miter" fill="none" stroke="#000000" d="M 0 26.89838 L 192.27355 26.89838 "/>
<path transform="matrix(1,0,0,-1,201.95955,134.68962)" d="M 1.99252 0 L -1.19551 1.59401 L 0 0 L -1.19551 -1.59401 "/>
<path transform="matrix(1,0,0,-1,9.686,161.588)" stroke-width="1" stroke-linecap="butt" stroke-miterlimit="10" stroke-linejoin="miter" fill="none" stroke="#000000" d="M 155.41286 0 L 155.41286 159.39775 "/>
<path transform="matrix(0,-1,-1,-0,165.09886,2.1902467)" d="M 1.99252 0 L -1.19551 1.59401 L 0 0 L -1.19551 -1.59401 "/>
<symbol id="font_0_1">
<path d="M .57600006 0 C .59300008 0 .611 0 .611 .019999996 C .611 .040000008 .59300008 .040000008 .57600006 .040000008 L .035000005 .040000008 C .018 .040000008 0 .040000008 0 .019999996 C 0 0 .018 0 .035000005 0 L .57600006 0 Z "/>
</symbol>
<use xlink:href="#font_0_1" transform="matrix(9.9626,0,0,-9.9626,4.147896,144.4646)"/>
<symbol id="font_1_6">
<path d="M .121 .47900004 C .075 .509 .071 .54300007 .071 .56000009 C .071 .62100008 .136 .66300007 .20700002 .66300007 C .28000004 .66300007 .344 .61100009 .344 .53900006 C .344 .48200003 .305 .43400005 .245 .39900003 L .121 .47900004 M .26700003 .38400004 C .33900003 .42100004 .388 .47300006 .388 .53900006 C .388 .63100007 .29900003 .688 .208 .688 C .108 .688 .027000003 .614 .027000003 .521 C .027000003 .503 .029 .45800004 .071 .41100005 C .082 .39900003 .11900001 .37400005 .144 .35700003 C .086 .32800005 0 .272 0 .17300001 C 0 .067 .102000009 0 .20700002 0 C .32000003 0 .41500003 .083000008 .41500003 .19000001 C .41500003 .22600001 .404 .27100004 .36600004 .31300003 C .34700004 .33400003 .33100004 .34400005 .26700003 .38400004 M .167 .34200005 L .29000003 .26400004 C .31800003 .245 .365 .215 .365 .154 C .365 .080000009 .29000003 .028 .208 .028 C .122 .028 .050000006 .09 .050000006 .17300001 C .050000006 .231 .082 .29500003 .167 .34200005 Z "/>
</symbol>
<use xlink:href="#font_1_6" transform="matrix(9.9626,0,0,-9.9626,11.48743,146.97518)"/>
<use xlink:href="#font_0_1" transform="matrix(9.9626,0,0,-9.9626,42.999898,144.4646)"/>
<symbol id="font_1_5">
<path d="M .089999999 .35000003 L .089999999 .37400005 C .089999999 .62700006 .21400002 .66300007 .26500003 .66300007 C .28900004 .66300007 .33100004 .65700009 .35300002 .623 C .33800004 .623 .298 .623 .298 .57800009 C .298 .54700008 .32200004 .53200009 .344 .53200009 C .36 .53200009 .39000003 .54100009 .39000003 .58000007 C .39000003 .64000007 .34600003 .688 .263 .688 C .13499999 .688 0 .559 0 .33800004 C 0 .071 .116000007 0 .20900002 0 C .32000003 0 .41500003 .094000007 .41500003 .22600001 C .41500003 .35300005 .32600004 .44900004 .215 .44900004 C .14700002 .44900004 .11000001 .39800004 .089999999 .35000003 M .20900002 .028 C .146 .028 .116000007 .088 .11000001 .103 C .092 .15 .092 .23 .092 .24800001 C .092 .32600004 .124000009 .42600004 .21400002 .42600004 C .23000002 .42600004 .27600003 .42600004 .307 .36400003 C .32500003 .32700003 .32500003 .27600003 .32500003 .22700002 C .32500003 .179 .32500003 .12900001 .30800004 .093 C .27800004 .033000005 .23200003 .028 .20900002 .028 Z "/>
</symbol>
<use xlink:href="#font_1_5" transform="matrix(9.9626,0,0,-9.9626,50.34043,146.97518)"/>
<use xlink:href="#font_0_1" transform="matrix(9.9626,0,0,-9.9626,81.85289,144.4646)"/>
<symbol id="font_1_4">
<path d="M .266 .165 L .266 .078 C .266 .042000005 .26400004 .031000002 .19000001 .031000002 L .16900002 .031000002 L .16900002 0 C .21000001 .003 .26200003 .003 .30400003 .003 C .34600003 .003 .39900003 .003 .44000004 0 L .44000004 .031000002 L .41900004 .031000002 C .34500004 .031000002 .34300003 .042000005 .34300003 .078 L .34300003 .165 L .44300003 .165 L .44300003 .19600001 L .34300003 .19600001 L .34300003 .651 C .34300003 .671 .34300003 .67700007 .32700003 .67700007 C .31800003 .67700007 .31500004 .67700007 .307 .665 L 0 .19600001 L 0 .165 L .266 .165 M .272 .19600001 L .028 .19600001 L .272 .569 L .272 .19600001 Z "/>
</symbol>
<use xlink:href="#font_1_4" transform="matrix(9.9626,0,0,-9.9626,89.05395,146.756)"/>
<use xlink:href="#font_0_1" transform="matrix(9.9626,0,0,-9.9626,120.705898,144.4646)"/>
<symbol id="font_1_2">
<path d="M .07700001 .07700001 L .18300002 .18 C .33900003 .31800003 .39900003 .372 .39900003 .47200004 C .39900003 .586 .30900003 .666 .18700002 .666 C .074 .666 0 .574 0 .485 C 0 .42900003 .05 .42900003 .053000008 .42900003 C .07000001 .42900003 .105000007 .441 .105000007 .48200003 C .105000007 .508 .08700001 .53400006 .052000006 .53400006 C .044000005 .53400006 .042000008 .53400006 .039 .53300008 C .062000004 .59800007 .11600001 .63500007 .17400001 .63500007 C .26500003 .63500007 .308 .554 .308 .47200004 C .308 .39200003 .25800003 .31300003 .20300003 .25100003 L .011000004 .037 C 0 .026 0 .024 0 0 L .37100003 0 L .39900003 .17400001 L .374 .17400001 C .36900003 .14400001 .36200003 .1 .352 .085 C .345 .07700001 .279 .07700001 .257 .07700001 L .07700001 .07700001 Z "/>
</symbol>
<use xlink:href="#font_1_2" transform="matrix(9.9626,0,0,-9.9626,128.12512,146.756)"/>
<use xlink:href="#font_1_2" transform="matrix(9.9626,0,0,-9.9626,201.95713,146.756)"/>
<symbol id="font_1_1">
<path d="M .205 .64000007 C .205 .66400006 .205 .666 .18200003 .666 C .120000008 .60200008 .032000007 .60200008 0 .60200008 L 0 .57100006 C .020000004 .57100006 .07900001 .57100006 .13100001 .597 L .13100001 .079 C .13100001 .043 .128 .031000002 .038000004 .031000002 L .0060000049 .031000002 L .0060000049 0 C .04100001 .003 .128 .003 .168 .003 C .20800002 .003 .29500003 .003 .33000005 0 L .33000005 .031000002 L .29800005 .031000002 C .20800002 .031000002 .205 .042000005 .205 .079 L .205 .64000007 Z "/>
</symbol>
<use xlink:href="#font_1_1" transform="matrix(9.9626,0,0,-9.9626,155.35569,111.002)"/>
<use xlink:href="#font_1_2" transform="matrix(9.9626,0,0,-9.9626,154.96714,84.10399)"/>
<symbol id="font_1_3">
<path d="M .24800003 .37400005 C .33 .40100003 .388 .47100006 .388 .55 C .388 .632 .3 .688 .204 .688 C .10300001 .688 .027000003 .628 .027000003 .55200007 C .027000003 .519 .049000004 .5 .078 .5 C .109000008 .5 .12900001 .522 .12900001 .55100008 C .12900001 .6010001 .082 .6010001 .067 .6010001 C .098 .65000006 .164 .66300007 .20000002 .66300007 C .24100003 .66300007 .29600004 .64100006 .29600004 .55100008 C .29600004 .53900006 .29400004 .48100005 .268 .43700005 C .238 .38900004 .204 .38600005 .17900002 .38500003 C .171 .38400004 .14700002 .38200004 .14000002 .38200004 C .132 .38100005 .125 .38000003 .125 .37000004 C .125 .35900004 .132 .35900004 .14900002 .35900004 L .19300002 .35900004 C .275 .35900004 .312 .29100005 .312 .193 C .312 .057000005 .24300003 .028 .199 .028 C .15600002 .028 .081 .045 .046000005 .104 C .081 .09900001 .11200001 .12100001 .11200001 .15900001 C .11200001 .19500001 .085 .215 .056 .215 C .031999999 .215 0 .201 0 .157 C 0 .06600001 .093 0 .20200002 0 C .32400004 0 .41500003 .091000009 .41500003 .193 C .41500003 .27500005 .35200004 .35300005 .24800003 .37400005 Z "/>
</symbol>
<use xlink:href="#font_1_3" transform="matrix(9.9626,0,0,-9.9626,154.88744,57.425165)"/>
<use xlink:href="#font_1_4" transform="matrix(9.9626,0,0,-9.9626,154.74796,30.307999)"/>
<clipPath id="cp2">
<path transform="matrix(1,0,0,-1,9.686,161.588)" d="M 0 0 L 194.26607 0 L 194.26607 161.39028 L 0 161.39028 Z "/>
</clipPath>
<g clip-path="url(#cp2)">
<path transform="matrix(1,0,0,-1,9.686,161.588)" stroke-width="1" stroke-linecap="butt" stroke-miterlimit="10" stroke-linejoin="miter" fill="none" stroke="#000000" d="M 19.86432 113.80682 L 19.75145 113.84178 L 20.07631 113.74094 L 20.40117 113.64 L 20.72601 113.53879 L 21.05087 113.43742 L 21.37573 113.33594 L 21.70059 113.23425 L 22.02545 113.1324 L 22.35031 113.03032 L 22.67516 112.92813 L 23.00003 112.82573 L 23.32487 112.72313 L 23.64972 112.6204 L 23.9746 112.51747 L 24.29944 112.41437 L 24.62431 112.31111 L 24.94916 112.20766 L 25.27402 112.10396 L 25.59888 112.0001 L 25.92372 111.89607 L 26.24858 111.79185 L 26.57344 111.6875 L 26.8983 111.58292 L 27.22316 111.47812 L 27.54802 111.37314 L 27.87286 111.26799 L 28.19774 111.16263 L 28.52258 111.05705 L 28.84743 110.95134 L 29.1723 110.84538 L 29.49715 110.73927 L 29.82202 110.63292 L 30.14687 110.5264 L 30.47173 110.41963 L 30.79659 110.31274 L 31.12143 110.20555 L 31.44629 110.09822 L 31.77115 109.99068 L 32.09601 109.88297 L 32.42087 109.77496 L 32.74573 109.66684 L 33.07057 109.55843 L 33.39545 109.44981 L 33.72029 109.34102 L 34.04514 109.23203 L 34.37001 109.12279 L 34.69485 109.01334 L 35.01973 108.90369 L 35.34457 108.7938 L 35.66943 108.6837 L 35.9943 108.5734 L 36.31915 108.46281 L 36.644 108.35205 L 36.96886 108.24106 L 37.29372 108.12984 L 37.61858 108.0184 L 37.94344 107.90671 L 38.26828 107.79478 L 38.59315 107.68265 L 38.918 107.57027 L 39.24284 107.45767 L 39.56772 107.34477 L 39.89256 107.23172 L 40.21744 107.11838 L 40.54228 107.0048 L 40.86714 106.891 L 41.192 106.77696 L 41.51686 106.66264 L 41.8417 106.54808 L 42.16656 106.43327 L 42.49142 106.31825 L 42.81628 106.20294 L 43.14114 106.08736 L 43.46599 105.97154 L 43.79086 105.85547 L 44.1157 105.73917 L 44.44055 105.62256 L 44.76543 105.5057 L 45.09027 105.3886 L 45.41515 105.2712 L 45.73999 105.15355 L 46.06485 105.03563 L 46.38971 104.91742 L 46.71457 104.79895 L 47.03941 104.68019 L 47.36427 104.5612 L 47.68913 104.44186 L 48.01399 104.3223 L 48.33885 104.20242 L 48.6637 104.08228 L 48.98857 103.96179 L 49.31342 103.84111 L 49.63826 103.72006 L 49.96313 103.59872 L 50.28798 103.47711 L 50.61285 103.35521 L 50.9377 103.23302 L 51.26256 103.11047 L 51.58742 102.98767 L 51.91228 102.86453 L 52.23712 102.74106 L 52.56198 102.61732 L 52.88684 102.49332 L 53.2117 102.3689 L 53.53656 102.2442 L 53.8614 102.11917 L 54.18628 101.99384 L 54.51112 101.86816 L 54.83598 101.74217 L 55.16084 101.61583 L 55.48569 101.48914 L 55.81056 101.36212 L 56.1354 101.23479 L 56.46027 101.1071 L 56.78513 100.97903 L 57.10999 100.85065 L 57.43483 100.72194 L 57.75969 100.5928 L 58.08455 100.4634 L 58.40941 100.33359 L 58.73427 100.2034 L 59.05911 100.07288 L 59.38399 99.94194 L 59.70883 99.81068 L 60.03369 99.679 L 60.35855 99.54697 L 60.6834 99.41458 L 61.00827 99.28174 L 61.33311 99.14857 L 61.65797 99.01503 L 61.98283 98.88101 L 62.3077 98.74666 L 62.63254 98.61186 L 62.9574 98.47667 L 63.28226 98.3411 L 63.60712 98.20506 L 63.93198 98.06862 L 64.25682 97.9318 L 64.5817 97.7945 L 64.90654 97.65678 L 65.2314 97.51863 L 65.55626 97.38008 L 65.8811 97.24107 L 66.20598 97.10161 L 66.53082 96.96167 L 66.85568 96.8213 L 67.18054 96.68048 L 67.5054 96.53918 L 67.83025 96.39742 L 68.15512 96.25519 L 68.47997 96.11247 L 68.80482 95.96928 L 69.12968 95.8256 L 69.45453 95.6814 L 69.7794 95.5367 L 70.10425 95.39154 L 70.42911 95.24586 L 70.75397 95.09964 L 71.07881 94.95296 L 71.40369 94.8057 L 71.72853 94.6579 L 72.05339 94.5096 L 72.37825 94.36073 L 72.70311 94.21135 L 73.02795 94.06137 L 73.35283 93.91087 L 73.67767 93.75978 L 74.00253 93.60812 L 74.3274 93.45586 L 74.65224 93.30304 L 74.97711 93.14961 L 75.30196 92.99562 L 75.62682 92.84099 L 75.95168 92.68576 L 76.27652 92.52988 L 76.6014 92.37335 L 76.92624 92.21625 L 77.2511 92.05847 L 77.57596 91.90005 L 77.90082 91.74095 L 78.22566 91.58116 L 78.55054 91.42075 L 78.87538 91.2596 L 79.20024 91.0978 L 79.5251 90.93523 L 79.84995 90.772 L 80.17482 90.60805 L 80.49966 90.44337 L 80.82452 90.27791 L 81.14938 90.11171 L 81.47423 89.94473 L 81.7991 89.777 L 82.12395 89.60843 L 82.4488 89.43915 L 82.77367 89.26903 L 83.09853 89.09807 L 83.42337 88.9263 L 83.74825 88.7537 L 84.07309 88.5802 L 84.39795 88.40585 L 84.72281 88.23062 L 85.04765 88.05452 L 85.37253 87.87744 L 85.69737 87.69946 L 86.02223 87.52057 L 86.34709 87.34073 L 86.67195 87.15991 L 86.99681 86.9781 L 87.32166 86.79527 L 87.64651 86.61145 L 87.97137 86.42659 L 88.29623 86.24065 L 88.62108 86.05367 L 88.94595 85.86555 L 89.2708 85.67638 L 89.59566 85.48608 L 89.92052 85.29462 L 90.24536 85.10194 L 90.57024 84.90813 L 90.89508 84.71304 L 91.21994 84.51678 L 91.5448 84.31926 L 91.86966 84.12036 L 92.19452 83.92024 L 92.51936 83.71872 L 92.84422 83.5159 L 93.16908 83.31166 L 93.49394 83.10596 L 93.81879 82.89883 L 94.14366 82.69022 L 94.4685 82.48007 L 94.79337 82.26842 L 95.11823 82.05516 L 95.44307 81.84024 L 95.76794 81.62369 L 96.09279 81.40546 L 96.41765 81.18549 L 96.74251 80.96371 L 97.06737 80.7401 L 97.39223 80.51508 L 97.71707 80.28769 L 98.04193 80.05833 L 98.36679 79.82697 L 98.69165 79.59352 L 99.0165 79.35794 L 99.34137 79.12016 L 99.66621 78.88014 L 99.99107 78.63779 L 100.31593 78.39307 L 100.64078 78.14587 L 100.96565 77.89615 L 101.2905 77.6438 L 101.61536 77.38876 L 101.94022 77.13092 L 102.26508 76.87022 L 102.58994 76.60654 L 102.91478 76.33975 L 103.23964 76.0698 L 103.5645 75.79651 L 103.88936 75.51979 L 104.2142 75.23949 L 104.53908 74.95549 L 104.86392 74.66763 L 105.1888 74.37573 L 105.51364 74.07965 L 105.83849 73.77916 L 106.16336 73.47409 L 106.4882 73.16423 L 106.81306 72.8493 L 107.13792 72.5291 L 107.46278 72.20332 L 107.78764 71.87167 L 108.11249 71.53384 L 108.43735 71.18942 L 108.7622 70.83806 L 109.08707 70.4793 L 109.41191 70.11264 L 109.73679 69.73756 L 110.06163 69.35344 L 110.3865 68.95958 L 110.71135 68.55524 L 111.0362 68.13947 L 111.36107 67.7113 L 111.68591 67.26953 L 112.01079 66.81277 L 112.33563 66.3394 L 112.66049 65.84744 L 112.98535 65.33452 L 113.3102 64.79771 L 113.63506 64.23334 L 113.95992 63.63664 L 114.28477 63.00134 L 114.60963 62.31882 L 114.9345 61.57654 L 115.25934 60.75566 L 115.58421 59.824 L 115.90906 58.71907 L 116.2339 57.27966 L 116.55878 53.97597 "/>
<path transform="matrix(-.95515,-.29593,-.29593,.95515,29.55032,47.781175)" stroke-width="1" stroke-linecap="round" stroke-linejoin="round" fill="none" stroke="#000000" d="M -1.19551 1.59401 C -1.09587 .99626 0 .09961 .29886 0 C 0 -.09961 -1.09587 -.99626 -1.19551 -1.59401 "/>
</g>
<symbol id="font_3_1">
<path d="M .305 .31300003 C .311 .33900003 .334 .43100003 .404 .43100003 C .409 .43100003 .433 .43100003 .454 .418 C .426 .41300003 .40600003 .388 .40600003 .36400003 C .40600003 .34800003 .417 .32900004 .444 .32900004 C .46600003 .32900004 .498 .34700004 .498 .38700003 C .498 .43900005 .439 .45300005 .405 .45300005 C .347 .45300005 .312 .40000005 .3 .37700004 C .275 .44300003 .221 .45300005 .19200002 .45300005 C .08800001 .45300005 .031000002 .32400004 .031000002 .29900003 C .031000002 .28900004 .041 .28900004 .043000007 .28900004 C .051000008 .28900004 .054000006 .291 .056 .3 C .09 .40600003 .156 .43100003 .19000001 .43100003 C .209 .43100003 .244 .42200003 .244 .36400003 C .244 .33300004 .22700002 .26600004 .19000001 .126 C .17400001 .064 .13900002 .022000002 .095000009 .022000002 C .08900001 .022000002 .06600001 .022000002 .045 .035 C .07000001 .040000004 .09200001 .061 .09200001 .089 C .09200001 .116000007 .07000001 .124000009 .055000009 .124000009 C .025 .124000009 0 .098000008 0 .06600001 C 0 .020000002 .050000006 0 .094000007 0 C .16000001 0 .19600001 .07000001 .19900002 .076000008 C .21100001 .039 .24700003 0 .307 0 C .41 0 .467 .12900001 .467 .15400002 C .467 .16400002 .458 .16400002 .455 .16400002 C .446 .16400002 .444 .16000001 .442 .15300001 C .409 .046 .341 .022000002 .30900003 .022000002 C .27 .022000002 .254 .054 .254 .08800001 C .254 .11000001 .26 .13200002 .271 .17600002 L .305 .31300003 Z "/>
</symbol>
<use xlink:href="#font_3_1" transform="matrix(9.9626,0,0,-9.9626,195.06491,131.27458)"/>
<symbol id="font_3_2">
<path d="M .45700003 .586 C .461 .6 .461 .602 .461 .609 C .461 .62700006 .447 .63600006 .432 .63600006 C .42200003 .63600006 .40600003 .63 .397 .615 C .395 .61 .387 .579 .38300003 .561 C .37600003 .535 .36900003 .508 .363 .48100005 L .318 .301 C .314 .286 .271 .21600002 .20500002 .21600002 C .15400002 .21600002 .143 .26000003 .143 .29700003 C .143 .34300003 .16000001 .40500004 .194 .49300004 C .21000001 .53400006 .21400002 .545 .21400002 .56500008 C .21400002 .61 .18200001 .6470001 .13200002 .6470001 C .037 .6470001 0 .50200006 0 .49300004 C 0 .48300005 .01 .48300005 .012 .48300005 C .022000002 .48300005 .023 .485 .028000003 .50100007 C .055000009 .595 .095000009 .625 .12900001 .625 C .13700001 .625 .15400002 .625 .15400002 .59300008 C .15400002 .568 .14400001 .54200008 .13700001 .523 C .097 .41700004 .079 .36 .079 .31300003 C .079 .224 .142 .194 .201 .194 C .24000003 .194 .274 .21100001 .30200003 .23900002 C .289 .187 .277 .13800001 .237 .08500001 C .21100001 .051 .17300001 .022 .127 .022 C .113000009 .022 .068 .025000006 .051000008 .06400001 C .067 .06400001 .080000009 .06400001 .094000007 .076000008 C .104 .08500001 .11400001 .098000008 .11400001 .117000009 C .11400001 .148 .087000008 .15200001 .07700001 .15200001 C .054000006 .15200001 .021 .136 .021 .087000008 C .021 .037 .065000008 0 .127 0 C .23 0 .333 .091000009 .361 .20400001 L .45700003 .586 Z "/>
</symbol>
<use xlink:href="#font_3_2" transform="matrix(9.9626,0,0,-9.9626,168.92992,10.016333)"/>
</svg>
