<?xml version="1.0" encoding="UTF-8" standalone="no"?>
<!DOCTYPE svg PUBLIC "-//W3C//DTD SVG 1.1//EN" "http://www.w3.org/Graphics/SVG/1.1/DTD/svg11.dtd">
<svg xmlns="http://www.w3.org/2000/svg" xmlns:xlink="http://www.w3.org/1999/xlink" version="1.1" width="202.773pt" height="168.123pt" viewBox="0 0 202.773 168.123">
<path transform="matrix(1,0,0,-1,.199,167.924)" stroke-width="1" stroke-linecap="butt" stroke-miterlimit="10" stroke-linejoin="miter" fill="none" stroke="#808080" d="M 14.94415 51.67194 L 14.94415 55.92459 M 74.72076 51.67194 L 74.72076 55.92459 M 104.60907 51.67194 L 104.60907 55.92459 M 134.49738 51.67194 L 134.49738 55.92459 M 164.38568 51.67194 L 164.38568 55.92459 M 194.27399 51.67194 L 194.27399 55.92459 "/>
<path transform="matrix(1,0,0,-1,.199,167.924)" stroke-width="1" stroke-linecap="butt" stroke-miterlimit="10" stroke-linejoin="miter" fill="none" stroke="#808080" d="M 42.70627 10.75964 L 46.95862 10.75964 M 42.70627 32.27896 L 46.95862 32.27896 M 42.70627 75.31758 L 46.95862 75.31758 M 42.70627 96.8369 L 46.95862 96.8369 M 42.70627 118.35622 L 46.95862 118.35622 M 42.70627 139.87552 L 46.95862 139.87552 M 42.70627 161.39484 L 46.95862 161.39484 "/>
<path transform="matrix(1,0,0,-1,.199,167.924)" stroke-width="1" stroke-linecap="butt" stroke-miterlimit="10" stroke-linejoin="miter" fill="none" stroke="#000000" d="M 0 53.79828 L 192.28145 53.79828 "/>
<path transform="matrix(1,0,0,-1,192.48046,114.12572)" d="M 1.99252 0 L -1.19551 1.59401 L 0 0 L -1.19551 -1.59401 "/>
<path transform="matrix(1,0,0,-1,.199,167.924)" stroke-width="1" stroke-linecap="butt" stroke-miterlimit="10" stroke-linejoin="miter" fill="none" stroke="#000000" d="M 44.83246 0 L 44.83246 159.40232 "/>
<path transform="matrix(0,-1,-1,-0,45.03146,8.521683)" d="M 1.99252 0 L -1.19551 1.59401 L 0 0 L -1.19551 -1.59401 "/>
<symbol id="font_0_1">
<path d="M .57600006 0 C .59300008 0 .611 0 .611 .019999996 C .611 .040000008 .59300008 .040000008 .57600006 .040000008 L .035000005 .040000008 C .018 .040000008 0 .040000008 0 .019999996 C 0 0 .018 0 .035000005 0 L .57600006 0 Z "/>
</symbol>
<use xlink:href="#font_0_1" transform="matrix(9.9626,0,0,-9.9626,9.604897,123.90159)"/>
<symbol id="font_1_3">
<path d="M .07700001 .07700001 L .18300002 .18 C .33900003 .31800003 .39900003 .372 .39900003 .47200004 C .39900003 .586 .30900003 .666 .18700002 .666 C .074 .666 0 .574 0 .485 C 0 .42900003 .05 .42900003 .053000008 .42900003 C .07000001 .42900003 .105000007 .441 .105000007 .48200003 C .105000007 .508 .08700001 .53400006 .052000006 .53400006 C .044000005 .53400006 .042000008 .53400006 .039 .53300008 C .062000004 .59800007 .11600001 .63500007 .17400001 .63500007 C .26500003 .63500007 .308 .554 .308 .47200004 C .308 .39200003 .25800003 .31300003 .20300003 .25100003 L .011000004 .037 C 0 .026 0 .024 0 0 L .37100003 0 L .39900003 .17400001 L .374 .17400001 C .36900003 .14400001 .36200003 .1 .352 .085 C .345 .07700001 .279 .07700001 .257 .07700001 L .07700001 .07700001 Z "/>
</symbol>
<use xlink:href="#font_1_3" transform="matrix(9.9626,0,0,-9.9626,17.025132,126.192989)"/>
<use xlink:href="#font_1_3" transform="matrix(9.9626,0,0,-9.9626,72.926128,126.192989)"/>
<symbol id="font_1_4">
<path d="M .266 .165 L .266 .078 C .266 .042000005 .26400004 .031000002 .19000001 .031000002 L .16900002 .031000002 L .16900002 0 C .21000001 .003 .26200003 .003 .30400003 .003 C .34600003 .003 .39900003 .003 .44000004 0 L .44000004 .031000002 L .41900004 .031000002 C .34500004 .031000002 .34300003 .042000005 .34300003 .078 L .34300003 .165 L .44300003 .165 L .44300003 .19600001 L .34300003 .19600001 L .34300003 .651 C .34300003 .671 .34300003 .67700007 .32700003 .67700007 C .31800003 .67700007 .31500004 .67700007 .307 .665 L 0 .19600001 L 0 .165 L .266 .165 M .272 .19600001 L .028 .19600001 L .272 .569 L .272 .19600001 Z "/>
</symbol>
<use xlink:href="#font_1_4" transform="matrix(9.9626,0,0,-9.9626,102.59495,126.192989)"/>
<symbol id="font_1_5">
<path d="M .089999999 .35000003 L .089999999 .37400005 C .089999999 .62700006 .21400002 .66300007 .26500003 .66300007 C .28900004 .66300007 .33100004 .65700009 .35300002 .623 C .33800004 .623 .298 .623 .298 .57800009 C .298 .54700008 .32200004 .53200009 .344 .53200009 C .36 .53200009 .39000003 .54100009 .39000003 .58000007 C .39000003 .64000007 .34600003 .688 .263 .688 C .13499999 .688 0 .559 0 .33800004 C 0 .071 .116000007 0 .20900002 0 C .32000003 0 .41500003 .094000007 .41500003 .22600001 C .41500003 .35300005 .32600004 .44900004 .215 .44900004 C .14700002 .44900004 .11000001 .39800004 .089999999 .35000003 M .20900002 .028 C .146 .028 .116000007 .088 .11000001 .103 C .092 .15 .092 .23 .092 .24800001 C .092 .32600004 .124000009 .42600004 .21400002 .42600004 C .23000002 .42600004 .27600003 .42600004 .307 .36400003 C .32500003 .32700003 .32500003 .27600003 .32500003 .22700002 C .32500003 .179 .32500003 .12900001 .30800004 .093 C .27800004 .033000005 .23200003 .028 .20900002 .028 Z "/>
</symbol>
<use xlink:href="#font_1_5" transform="matrix(9.9626,0,0,-9.9626,132.62244,126.41216)"/>
<symbol id="font_1_6">
<path d="M .121 .47900004 C .075 .509 .071 .54300007 .071 .56000009 C .071 .62100008 .136 .66300007 .20700002 .66300007 C .28000004 .66300007 .344 .61100009 .344 .53900006 C .344 .48200003 .305 .43400005 .245 .39900003 L .121 .47900004 M .26700003 .38400004 C .33900003 .42100004 .388 .47300006 .388 .53900006 C .388 .63100007 .29900003 .688 .208 .688 C .108 .688 .027000003 .614 .027000003 .521 C .027000003 .503 .029 .45800004 .071 .41100005 C .082 .39900003 .11900001 .37400005 .144 .35700003 C .086 .32800005 0 .272 0 .17300001 C 0 .067 .102000009 0 .20700002 0 C .32000003 0 .41500003 .083000008 .41500003 .19000001 C .41500003 .22600001 .404 .27100004 .36600004 .31300003 C .34700004 .33400003 .33100004 .34400005 .26700003 .38400004 M .167 .34200005 L .29000003 .26400004 C .31800003 .245 .365 .215 .365 .154 C .365 .080000009 .29000003 .028 .208 .028 C .122 .028 .050000006 .09 .050000006 .17300001 C .050000006 .231 .082 .29500003 .167 .34200005 Z "/>
</symbol>
<use xlink:href="#font_1_6" transform="matrix(9.9626,0,0,-9.9626,162.51044,126.41216)"/>
<symbol id="font_1_2">
<path d="M .205 .64000007 C .205 .66400006 .205 .666 .18200003 .666 C .120000008 .60200008 .032000007 .60200008 0 .60200008 L 0 .57100006 C .020000004 .57100006 .07900001 .57100006 .13100001 .597 L .13100001 .079 C .13100001 .043 .128 .031000002 .038000004 .031000002 L .0060000049 .031000002 L .0060000049 0 C .04100001 .003 .128 .003 .168 .003 C .20800002 .003 .29500003 .003 .33000005 0 L .33000005 .031000002 L .29800005 .031000002 C .20800002 .031000002 .205 .042000005 .205 .079 L .205 .64000007 Z "/>
</symbol>
<symbol id="font_1_1">
<path d="M .421 .34200005 C .421 .42200003 .416 .50200006 .381 .57600006 C .335 .67200008 .25300003 .688 .211 .688 C .15100001 .688 .07800001 .66200008 .037000006 .56900009 C .0050000029 .5 0 .42200003 0 .34200005 C 0 .26700003 .0040000008 .177 .045000007 .101 C .088 .020000002 .161 0 .21000001 0 C .264 0 .34 .021000002 .384 .116000007 C .416 .185 .421 .263 .421 .34200005 M .21000001 .022000002 C .171 .022000002 .112 .047000003 .094 .143 C .083000008 .20300001 .083000008 .29500003 .083000008 .35400004 C .083000008 .41800005 .083000008 .48400004 .091000009 .53800007 C .11 .65700009 .185 .66600009 .21000001 .66600009 C .243 .66600009 .30900003 .64800009 .328 .549 C .338 .49300004 .338 .41700004 .338 .35400004 C .338 .279 .338 .21100001 .32700003 .147 C .312 .052 .255 .022000002 .21000001 .022000002 Z "/>
</symbol>
<use xlink:href="#font_1_2" transform="matrix(9.9626,0,0,-9.9626,190.37567,126.192989)"/>
<use xlink:href="#font_1_1" transform="matrix(9.9626,0,0,-9.9626,194.85883,126.41216)"/>
<use xlink:href="#font_0_1" transform="matrix(9.9626,0,0,-9.9626,27.481896,157.6676)"/>
<use xlink:href="#font_1_4" transform="matrix(9.9626,0,0,-9.9626,34.682954,159.959)"/>
<use xlink:href="#font_0_1" transform="matrix(9.9626,0,0,-9.9626,27.481896,136.1486)"/>
<use xlink:href="#font_1_3" transform="matrix(9.9626,0,0,-9.9626,34.90213,138.44)"/>
<use xlink:href="#font_1_3" transform="matrix(9.9626,0,0,-9.9626,34.902135,95.816989)"/>
<use xlink:href="#font_1_4" transform="matrix(9.9626,0,0,-9.9626,34.682958,74.29799)"/>
<use xlink:href="#font_1_5" transform="matrix(9.9626,0,0,-9.9626,34.822435,52.998178)"/>
<use xlink:href="#font_1_6" transform="matrix(9.9626,0,0,-9.9626,34.822435,31.479172)"/>
<use xlink:href="#font_1_2" transform="matrix(9.9626,0,0,-9.9626,30.30867,9.740997)"/>
<use xlink:href="#font_1_1" transform="matrix(9.9626,0,0,-9.9626,34.79184,9.960175)"/>
<clipPath id="cp2">
<path transform="matrix(1,0,0,-1,.199,167.924)" d="M 0 0 L 194.27399 0 L 194.27399 161.39484 L 0 161.39484 Z "/>
</clipPath>
<g clip-path="url(#cp2)">
<path transform="matrix(1,0,0,-1,.199,167.924)" stroke-width="1" stroke-linecap="butt" stroke-miterlimit="10" stroke-linejoin="miter" fill="none" stroke="#000000" d="M 1.53207 145.93013 L 2.08917 139.17829 L 2.68396 133.78748 L 3.27873 129.4791 L 3.8735 125.8916 L 4.46829 122.8189 L 5.06306 120.1296 L 5.65784 117.74011 L 6.25261 115.58775 L 6.8474 113.6325 L 7.44217 111.83952 L 8.03694 110.18533 L 8.63173 108.64883 L 9.2265 107.21674 L 9.82127 105.87263 L 10.41606 104.60558 L 11.01083 103.41383 L 11.6056 102.27913 L 12.20036 101.20273 L 12.79517 100.17863 L 13.38994 99.20035 L 13.9847 98.26535 L 14.5795 97.36842 L 15.17427 96.5085 L 15.76903 95.68109 L 16.36383 94.88443 L 16.9586 94.11621 L 17.55336 93.37337 L 18.14815 92.6572 L 18.74294 91.96298 L 19.33769 91.29135 L 19.93248 90.63913 L 20.52727 90.0071 L 21.12202 89.39227 L 21.71681 88.79405 L 22.31157 88.21281 L 22.90636 87.64708 L 23.50114 87.09554 L 24.0959 86.55862 L 24.69069 86.03398 L 25.28548 85.51967 L 25.88023 85.01956 L 26.47502 84.53215 L 27.06981 84.0542 L 27.66457 83.58746 L 28.25935 83.13081 L 28.85414 82.68362 L 29.4489 82.24142 L 30.04367 81.80995 L 30.63847 81.38754 L 31.23323 80.97415 L 31.828 80.56873 L 32.4228 80.17018 L 33.01756 79.77853 L 33.61234 79.3942 L 34.20714 79.01653 L 34.8019 78.64575 L 35.39667 78.28142 L 35.99147 77.9227 L 36.58623 77.5698 L 37.181 77.22269 L 37.7758 76.88116 L 38.37056 76.54527 L 38.96533 76.2143 L 39.56013 75.8887 L 40.15489 75.56741 L 40.74966 75.25066 L 41.34447 74.93842 L 41.93922 74.63133 L 42.534 74.32898 L 43.12877 74.03052 L 43.72356 73.73549 L 44.31833 73.44452 L 44.9131 73.15855 L 45.50789 72.87515 L 46.10266 72.59624 L 46.69743 72.31973 L 47.29222 72.04814 L 47.887 71.77896 L 48.48177 71.51233 L 49.07655 71.24959 L 49.67133 70.99046 L 50.2661 70.73569 L 50.86089 70.48221 L 51.45566 70.23236 L 52.05043 69.98509 L 52.64522 69.74106 L 53.23999 69.49896 L 53.83476 69.26031 L 54.42955 69.02383 L 55.02432 68.7912 L 55.6191 68.5573 L 56.21388 68.3292 L 56.80865 68.10278 L 57.40343 67.87964 L 57.99821 67.65736 L 58.59299 67.437 L 59.18776 67.22113 L 59.78253 67.00294 L 60.37732 66.7901 L 60.97209 66.57922 L 61.56686 66.3705 L 62.16165 66.16393 L 62.75642 65.95842 L 63.3512 65.75548 L 63.94598 65.55426 L 64.54076 65.35544 L 65.13553 65.15787 L 65.73029 64.9625 L 66.32509 64.76883 L 66.91986 64.57664 L 67.51462 64.38577 L 68.10942 64.19705 L 68.7042 64.01025 L 69.29895 63.82477 L 69.89375 63.64055 L 70.48853 63.45828 L 71.08328 63.27708 L 71.67807 63.09761 L 72.27286 62.9201 L 72.86761 62.74384 L 73.4624 62.5687 L 74.05719 62.39479 L 74.65195 62.22328 L 75.24673 62.05264 L 75.84152 61.88309 L 76.43628 61.71457 L 77.03107 61.54823 L 77.62582 61.38275 L 78.22061 61.21811 L 78.8154 61.05565 L 79.41016 60.8934 L 80.00494 60.73349 L 80.59973 60.57428 L 81.19449 60.41568 L 81.78928 60.25902 L 82.38406 60.1028 L 82.97882 59.94807 L 83.57361 59.79504 L 84.1684 59.64206 L 84.76315 59.49077 L 85.35793 59.34033 L 85.95273 59.191 L 86.54749 59.04144 L 87.14226 58.89447 L 87.73706 58.74834 L 88.33182 58.60225 L 88.92659 58.45827 L 89.5214 58.31516 L 90.11615 58.17271 L 90.71092 58.03154 L 91.3057 57.89037 L 91.90048 57.75139 L 92.49525 57.61256 L 93.09003 57.47374 L 93.68481 57.33688 L 94.27959 57.20068 L 94.87436 57.06511 L 95.46915 56.93083 L 96.06392 56.79805 L 96.65869 56.66507 L 97.25346 56.53337 L 97.84825 56.40274 L 98.44302 56.2717 L 99.0378 56.14174 L 99.63258 56.01367 L 100.22736 55.885 L 100.82213 55.75888 L 101.41689 55.63022 L 102.01169 55.50432 L 102.60646 55.37909 L 103.20122 55.25447 L 103.79602 55.13202 L 104.3908 55.00763 L 104.98555 54.8865 L 105.58035 54.76427 L 106.17513 54.64377 L 106.76988 54.52434 L 107.36467 54.40468 L 107.95946 54.28587 L 108.55421 54.1673 L 109.149 54.05067 L 109.74379 53.933 L 110.33855 53.81807 L 110.93333 53.70143 L 111.52812 53.58716 L 112.12288 53.47289 L 112.71767 53.35886 L 113.31242 53.24586 L 113.90721 53.13373 L 114.502 53.02098 L 115.09676 52.91039 L 115.69154 52.80064 L 116.28633 52.68916 L 116.88109 52.57552 L 117.47588 52.46814 L 118.07066 52.35907 L 118.66542 52.25146 L 119.2602 52.14473 L 119.855 52.03499 L 120.44975 51.92867 L 121.04453 51.82257 L 121.63933 51.71669 L 122.23409 51.6119 L 122.82886 51.50754 L 123.42366 51.40361 L 124.01842 51.3005 L 124.61319 51.19745 L 125.208 51.09523 L 125.80275 50.99301 L 126.39752 50.89168 L 126.9923 50.7905 L 127.58708 50.68979 L 128.18186 50.58974 L 128.77663 50.48965 L 129.37142 50.39046 L 129.96619 50.29211 L 130.56096 50.19377 L 131.15575 50.09628 L 131.75052 49.99883 L 132.34529 49.90154 L 132.94007 49.80513 L 133.53485 49.70915 L 134.12963 49.61363 L 134.7244 49.51851 L 135.31919 49.42337 L 135.91396 49.3289 L 136.50873 49.23509 L 137.10352 49.14148 L 137.69829 49.04852 L 138.29306 48.956 L 138.88782 48.86366 L 139.48262 48.77202 L 140.0774 48.6801 L 140.67215 48.58887 L 141.26696 48.49826 L 141.86173 48.40767 L 142.45648 48.3173 L 143.05127 48.22757 L 143.64606 48.13869 L 144.24082 48.0496 L 144.8356 47.96094 L 145.43039 47.87314 L 146.02515 47.7847 L 146.61994 47.69733 L 147.21472 47.61038 L 147.80948 47.52322 L 148.40427 47.43695 L 148.99906 47.35107 L 149.59381 47.26521 L 150.1886 47.17958 L 150.78336 47.09479 L 151.37815 47.01021 L 151.97293 46.92566 L 152.56769 46.84172 L 153.16248 46.758 L 153.75727 46.67451 L 154.35202 46.59212 L 154.94681 46.50903 L 155.5416 46.42662 L 156.13636 46.3442 L 156.73113 46.2624 L 157.32593 46.18106 L 157.92069 46.10016 L 158.51546 46.01883 L 159.11026 45.93835 L 159.70502 45.85786 L 160.29979 45.77844 L 160.89456 45.69838 L 161.48935 45.61922 L 162.08412 45.54001 L 162.6789 45.46082 L 163.27368 45.3825 L 163.86846 45.30396 L 164.46323 45.22603 L 165.05802 45.14857 L 165.65279 45.07112 L 166.24756 44.99428 L 166.84233 44.91725 L 167.43712 44.84 L 168.03189 44.76404 L 168.62667 44.68872 L 169.22145 44.61276 L 169.81621 44.53702 L 170.411 44.46144 L 171.00579 44.3868 L 171.60054 44.31192 L 172.19533 44.23744 L 172.79012 44.163 L 173.38488 44.08939 L 173.97966 44.01581 L 174.57442 43.942 L 175.1692 43.86841 L 175.76399 43.7961 L 176.35875 43.724 L 176.95354 43.65106 L 177.54833 43.57854 L 178.14308 43.50645 L 178.73787 43.43459 L 178.87764 43.41783 "/>
<path transform="matrix(-.08221,-.99655,-.99655,.08221,1.73109,21.993866)" stroke-width="1" stroke-linecap="round" stroke-linejoin="round" fill="none" stroke="#000000" d="M -1.19551 1.59401 C -1.09587 .99626 0 .09961 .29886 0 C 0 -.09961 -1.09587 -.99626 -1.19551 -1.59401 "/>
<path transform="matrix(.99287,.11896,.11896,-.99287,179.07663,124.506168)" stroke-width="1" stroke-linecap="round" stroke-linejoin="round" fill="none" stroke="#000000" d="M -1.19551 1.59401 C -1.09587 .99626 0 .09961 .29886 0 C 0 -.09961 -1.09587 -.99626 -1.19551 -1.59401 "/>
</g>
<symbol id="font_3_1">
<path d="M .305 .31300003 C .311 .33900003 .334 .43100003 .404 .43100003 C .409 .43100003 .433 .43100003 .454 .418 C .426 .41300003 .40600003 .388 .40600003 .36400003 C .40600003 .34800003 .417 .32900004 .444 .32900004 C .46600003 .32900004 .498 .34700004 .498 .38700003 C .498 .43900005 .439 .45300005 .405 .45300005 C .347 .45300005 .312 .40000005 .3 .37700004 C .275 .44300003 .221 .45300005 .19200002 .45300005 C .08800001 .45300005 .031000002 .32400004 .031000002 .29900003 C .031000002 .28900004 .041 .28900004 .043000007 .28900004 C .051000008 .28900004 .054000006 .291 .056 .3 C .09 .40600003 .156 .43100003 .19000001 .43100003 C .209 .43100003 .244 .42200003 .244 .36400003 C .244 .33300004 .22700002 .26600004 .19000001 .126 C .17400001 .064 .13900002 .022000002 .095000009 .022000002 C .08900001 .022000002 .06600001 .022000002 .045 .035 C .07000001 .040000004 .09200001 .061 .09200001 .089 C .09200001 .116000007 .07000001 .124000009 .055000009 .124000009 C .025 .124000009 0 .098000008 0 .06600001 C 0 .020000002 .050000006 0 .094000007 0 C .16000001 0 .19600001 .07000001 .19900002 .076000008 C .21100001 .039 .24700003 0 .307 0 C .41 0 .467 .12900001 .467 .15400002 C .467 .16400002 .458 .16400002 .455 .16400002 C .446 .16400002 .444 .16000001 .442 .15300001 C .409 .046 .341 .022000002 .30900003 .022000002 C .27 .022000002 .254 .054 .254 .08800001 C .254 .11000001 .26 .13200002 .271 .17600002 L .305 .31300003 Z "/>
</symbol>
<use xlink:href="#font_3_1" transform="matrix(9.9626,0,0,-9.9626,185.58292,110.70659)"/>
<symbol id="font_3_2">
<path d="M .45700003 .586 C .461 .6 .461 .602 .461 .609 C .461 .62700006 .447 .63600006 .432 .63600006 C .42200003 .63600006 .40600003 .63 .397 .615 C .395 .61 .387 .579 .38300003 .561 C .37600003 .535 .36900003 .508 .363 .48100005 L .318 .301 C .314 .286 .271 .21600002 .20500002 .21600002 C .15400002 .21600002 .143 .26000003 .143 .29700003 C .143 .34300003 .16000001 .40500004 .194 .49300004 C .21000001 .53400006 .21400002 .545 .21400002 .56500008 C .21400002 .61 .18200001 .6470001 .13200002 .6470001 C .037 .6470001 0 .50200006 0 .49300004 C 0 .48300005 .01 .48300005 .012 .48300005 C .022000002 .48300005 .023 .485 .028000003 .50100007 C .055000009 .595 .095000009 .625 .12900001 .625 C .13700001 .625 .15400002 .625 .15400002 .59300008 C .15400002 .568 .14400001 .54200008 .13700001 .523 C .097 .41700004 .079 .36 .079 .31300003 C .079 .224 .142 .194 .201 .194 C .24000003 .194 .274 .21100001 .30200003 .23900002 C .289 .187 .277 .13800001 .237 .08500001 C .21100001 .051 .17300001 .022 .127 .022 C .113000009 .022 .068 .025000006 .051000008 .06400001 C .067 .06400001 .080000009 .06400001 .094000007 .076000008 C .104 .08500001 .11400001 .098000008 .11400001 .117000009 C .11400001 .148 .087000008 .15200001 .07700001 .15200001 C .054000006 .15200001 .021 .136 .021 .087000008 C .021 .037 .065000008 0 .127 0 C .23 0 .333 .091000009 .361 .20400001 L .45700003 .586 Z "/>
</symbol>
<use xlink:href="#font_3_2" transform="matrix(9.9626,0,0,-9.9626,48.847917,16.38233)"/>
</svg>
