<?xml version="1.0" encoding="UTF-8" standalone="no"?>
<!DOCTYPE svg PUBLIC "-//W3C//DTD SVG 1.1//EN" "http://www.w3.org/Graphics/SVG/1.1/DTD/svg11.dtd">
<svg xmlns="http://www.w3.org/2000/svg" xmlns:xlink="http://www.w3.org/1999/xlink" version="1.1" width="204.15pt" height="174.864pt" viewBox="0 0 204.15 174.864">
<path transform="matrix(1,0,0,-1,9.686,167.918)" stroke-width="1" stroke-linecap="butt" stroke-miterlimit="10" stroke-linejoin="miter" fill="none" stroke="#808080" d="M 0 7.96077 L 0 12.21283 M 21.58528 7.96077 L 21.58528 12.21283 M 43.17058 7.96077 L 43.17058 12.21283 M 64.75586 7.96077 L 64.75586 12.21283 M 107.92644 7.96077 L 107.92644 12.21283 M 129.51174 7.96077 L 129.51174 12.21283 M 151.09702 7.96077 L 151.09702 12.21283 "/>
<path transform="matrix(1,0,0,-1,9.686,167.918)" stroke-width="1" stroke-linecap="butt" stroke-miterlimit="10" stroke-linejoin="miter" fill="none" stroke="#808080" d="M 84.21516 0 L 88.46712 0 M 84.21516 20.17363 L 88.46712 20.17363 M 84.21516 30.26044 L 88.46712 30.26044 M 84.21516 40.34726 L 88.46712 40.34726 M 84.21516 50.43408 L 88.46712 50.43408 M 84.21516 60.52089 L 88.46712 60.52089 M 84.21516 70.60771 L 88.46712 70.60771 M 84.21516 80.69452 L 88.46712 80.69452 M 84.21516 90.78134 L 88.46712 90.78134 M 84.21516 100.86816 L 88.46712 100.86816 M 84.21516 110.95497 L 88.46712 110.95497 M 84.21516 121.0418 L 88.46712 121.0418 M 84.21516 131.12862 L 88.46712 131.12862 M 84.21516 141.21543 L 88.46712 141.21543 M 84.21516 151.30225 L 88.46712 151.30225 M 84.21516 161.38906 L 88.46712 161.38906 "/>
<path transform="matrix(1,0,0,-1,9.686,167.918)" stroke-width="1" stroke-linecap="butt" stroke-miterlimit="10" stroke-linejoin="miter" fill="none" stroke="#000000" d="M 0 10.0868 L 192.27507 10.0868 "/>
<path transform="matrix(1,0,0,-1,201.96108,157.8312)" d="M 1.99252 0 L -1.19551 1.59401 L 0 0 L -1.19551 -1.59401 "/>
<path transform="matrix(1,0,0,-1,9.686,167.918)" stroke-width="1" stroke-linecap="butt" stroke-miterlimit="10" stroke-linejoin="miter" fill="none" stroke="#000000" d="M 86.34116 0 L 86.34116 159.39653 "/>
<path transform="matrix(0,-1,-1,-0,96.02716,8.521469)" d="M 1.99252 0 L -1.19551 1.59401 L 0 0 L -1.19551 -1.59401 "/>
<symbol id="font_0_1">
<path d="M .57600006 0 C .59300008 0 .611 0 .611 .019999996 C .611 .040000008 .59300008 .040000008 .57600006 .040000008 L .035000005 .040000008 C .018 .040000008 0 .040000008 0 .019999996 C 0 0 .018 0 .035000005 0 L .57600006 0 Z "/>
</symbol>
<use xlink:href="#font_0_1" transform="matrix(9.9626,0,0,-9.9626,4.147896,167.6066)"/>
<symbol id="font_1_5">
<path d="M .266 .165 L .266 .078 C .266 .042000005 .26400004 .031000002 .19000001 .031000002 L .16900002 .031000002 L .16900002 0 C .21000001 .003 .26200003 .003 .30400003 .003 C .34600003 .003 .39900003 .003 .44000004 0 L .44000004 .031000002 L .41900004 .031000002 C .34500004 .031000002 .34300003 .042000005 .34300003 .078 L .34300003 .165 L .44300003 .165 L .44300003 .19600001 L .34300003 .19600001 L .34300003 .651 C .34300003 .671 .34300003 .67700007 .32700003 .67700007 C .31800003 .67700007 .31500004 .67700007 .307 .665 L 0 .19600001 L 0 .165 L .266 .165 M .272 .19600001 L .028 .19600001 L .272 .569 L .272 .19600001 Z "/>
</symbol>
<use xlink:href="#font_1_5" transform="matrix(9.9626,0,0,-9.9626,11.347953,169.898)"/>
<use xlink:href="#font_0_1" transform="matrix(9.9626,0,0,-9.9626,25.732897,167.6066)"/>
<symbol id="font_1_4">
<path d="M .24800003 .37400005 C .33 .40100003 .388 .47100006 .388 .55 C .388 .632 .3 .688 .204 .688 C .10300001 .688 .027000003 .628 .027000003 .55200007 C .027000003 .519 .049000004 .5 .078 .5 C .109000008 .5 .12900001 .522 .12900001 .55100008 C .12900001 .6010001 .082 .6010001 .067 .6010001 C .098 .65000006 .164 .66300007 .20000002 .66300007 C .24100003 .66300007 .29600004 .64100006 .29600004 .55100008 C .29600004 .53900006 .29400004 .48100005 .268 .43700005 C .238 .38900004 .204 .38600005 .17900002 .38500003 C .171 .38400004 .14700002 .38200004 .14000002 .38200004 C .132 .38100005 .125 .38000003 .125 .37000004 C .125 .35900004 .132 .35900004 .14900002 .35900004 L .19300002 .35900004 C .275 .35900004 .312 .29100005 .312 .193 C .312 .057000005 .24300003 .028 .199 .028 C .15600002 .028 .081 .045 .046000005 .104 C .081 .09900001 .11200001 .12100001 .11200001 .15900001 C .11200001 .19500001 .085 .215 .056 .215 C .031999999 .215 0 .201 0 .157 C 0 .06600001 .093 0 .20200002 0 C .32400004 0 .41500003 .091000009 .41500003 .193 C .41500003 .27500005 .35200004 .35300005 .24800003 .37400005 Z "/>
</symbol>
<use xlink:href="#font_1_4" transform="matrix(9.9626,0,0,-9.9626,33.07243,170.11717)"/>
<use xlink:href="#font_0_1" transform="matrix(9.9626,0,0,-9.9626,47.317899,167.6066)"/>
<symbol id="font_1_3">
<path d="M .07700001 .07700001 L .18300002 .18 C .33900003 .31800003 .39900003 .372 .39900003 .47200004 C .39900003 .586 .30900003 .666 .18700002 .666 C .074 .666 0 .574 0 .485 C 0 .42900003 .05 .42900003 .053000008 .42900003 C .07000001 .42900003 .105000007 .441 .105000007 .48200003 C .105000007 .508 .08700001 .53400006 .052000006 .53400006 C .044000005 .53400006 .042000008 .53400006 .039 .53300008 C .062000004 .59800007 .11600001 .63500007 .17400001 .63500007 C .26500003 .63500007 .308 .554 .308 .47200004 C .308 .39200003 .25800003 .31300003 .20300003 .25100003 L .011000004 .037 C 0 .026 0 .024 0 0 L .37100003 0 L .39900003 .17400001 L .374 .17400001 C .36900003 .14400001 .36200003 .1 .352 .085 C .345 .07700001 .279 .07700001 .257 .07700001 L .07700001 .07700001 Z "/>
</symbol>
<use xlink:href="#font_1_3" transform="matrix(9.9626,0,0,-9.9626,54.737134,169.898)"/>
<use xlink:href="#font_0_1" transform="matrix(9.9626,0,0,-9.9626,68.90289,167.6066)"/>
<symbol id="font_1_2">
<path d="M .205 .64000007 C .205 .66400006 .205 .666 .18200003 .666 C .120000008 .60200008 .032000007 .60200008 0 .60200008 L 0 .57100006 C .020000004 .57100006 .07900001 .57100006 .13100001 .597 L .13100001 .079 C .13100001 .043 .128 .031000002 .038000004 .031000002 L .0060000049 .031000002 L .0060000049 0 C .04100001 .003 .128 .003 .168 .003 C .20800002 .003 .29500003 .003 .33000005 0 L .33000005 .031000002 L .29800005 .031000002 C .20800002 .031000002 .205 .042000005 .205 .079 L .205 .64000007 Z "/>
</symbol>
<use xlink:href="#font_1_2" transform="matrix(9.9626,0,0,-9.9626,76.71067,169.898)"/>
<use xlink:href="#font_1_2" transform="matrix(9.9626,0,0,-9.9626,116.00667,169.898)"/>
<use xlink:href="#font_1_3" transform="matrix(9.9626,0,0,-9.9626,137.20313,169.898)"/>
<use xlink:href="#font_1_4" transform="matrix(9.9626,0,0,-9.9626,158.70844,170.11717)"/>
<use xlink:href="#font_0_1" transform="matrix(9.9626,0,0,-9.9626,78.47689,168.4216)"/>
<use xlink:href="#font_1_5" transform="matrix(9.9626,0,0,-9.9626,85.67795,170.713)"/>
<use xlink:href="#font_1_5" transform="matrix(9.9626,0,0,-9.9626,85.67795,150.955)"/>
<symbol id="font_1_8">
<path d="M .121 .47900004 C .075 .509 .071 .54300007 .071 .56000009 C .071 .62100008 .136 .66300007 .20700002 .66300007 C .28000004 .66300007 .344 .61100009 .344 .53900006 C .344 .48200003 .305 .43400005 .245 .39900003 L .121 .47900004 M .26700003 .38400004 C .33900003 .42100004 .388 .47300006 .388 .53900006 C .388 .63100007 .29900003 .688 .208 .688 C .108 .688 .027000003 .614 .027000003 .521 C .027000003 .503 .029 .45800004 .071 .41100005 C .082 .39900003 .11900001 .37400005 .144 .35700003 C .086 .32800005 0 .272 0 .17300001 C 0 .067 .102000009 0 .20700002 0 C .32000003 0 .41500003 .083000008 .41500003 .19000001 C .41500003 .22600001 .404 .27100004 .36600004 .31300003 C .34700004 .33400003 .33100004 .34400005 .26700003 .38400004 M .167 .34200005 L .29000003 .26400004 C .31800003 .245 .365 .215 .365 .154 C .365 .080000009 .29000003 .028 .208 .028 C .122 .028 .050000006 .09 .050000006 .17300001 C .050000006 .231 .082 .29500003 .167 .34200005 Z "/>
</symbol>
<use xlink:href="#font_1_8" transform="matrix(9.9626,0,0,-9.9626,85.81742,141.08718)"/>
<use xlink:href="#font_1_2" transform="matrix(9.9626,0,0,-9.9626,81.30367,130.782)"/>
<use xlink:href="#font_1_3" transform="matrix(9.9626,0,0,-9.9626,85.89643,130.782)"/>
<symbol id="font_1_7">
<path d="M .089999999 .35000003 L .089999999 .37400005 C .089999999 .62700006 .21400002 .66300007 .26500003 .66300007 C .28900004 .66300007 .33100004 .65700009 .35300002 .623 C .33800004 .623 .298 .623 .298 .57800009 C .298 .54700008 .32200004 .53200009 .344 .53200009 C .36 .53200009 .39000003 .54100009 .39000003 .58000007 C .39000003 .64000007 .34600003 .688 .263 .688 C .13499999 .688 0 .559 0 .33800004 C 0 .071 .116000007 0 .20900002 0 C .32000003 0 .41500003 .094000007 .41500003 .22600001 C .41500003 .35300005 .32600004 .44900004 .215 .44900004 C .14700002 .44900004 .11000001 .39800004 .089999999 .35000003 M .20900002 .028 C .146 .028 .116000007 .088 .11000001 .103 C .092 .15 .092 .23 .092 .24800001 C .092 .32600004 .124000009 .42600004 .21400002 .42600004 C .23000002 .42600004 .27600003 .42600004 .307 .36400003 C .32500003 .32700003 .32500003 .27600003 .32500003 .22700002 C .32500003 .179 .32500003 .12900001 .30800004 .093 C .27800004 .033000005 .23200003 .028 .20900002 .028 Z "/>
</symbol>
<use xlink:href="#font_1_2" transform="matrix(9.9626,0,0,-9.9626,81.30367,120.695)"/>
<use xlink:href="#font_1_7" transform="matrix(9.9626,0,0,-9.9626,85.81673,120.91418)"/>
<symbol id="font_1_1">
<path d="M .421 .34200005 C .421 .42200003 .416 .50200006 .381 .57600006 C .335 .67200008 .25300003 .688 .211 .688 C .15100001 .688 .07800001 .66200008 .037000006 .56900009 C .0050000029 .5 0 .42200003 0 .34200005 C 0 .26700003 .0040000008 .177 .045000007 .101 C .088 .020000002 .161 0 .21000001 0 C .264 0 .34 .021000002 .384 .116000007 C .416 .185 .421 .263 .421 .34200005 M .21000001 .022000002 C .171 .022000002 .112 .047000003 .094 .143 C .083000008 .20300001 .083000008 .29500003 .083000008 .35400004 C .083000008 .41800005 .083000008 .48400004 .091000009 .53800007 C .11 .65700009 .185 .66600009 .21000001 .66600009 C .243 .66600009 .30900003 .64800009 .328 .549 C .338 .49300004 .338 .41700004 .338 .35400004 C .338 .279 .338 .21100001 .32700003 .147 C .312 .052 .255 .022000002 .21000001 .022000002 Z "/>
</symbol>
<use xlink:href="#font_1_3" transform="matrix(9.9626,0,0,-9.9626,80.91513,110.608)"/>
<use xlink:href="#font_1_1" transform="matrix(9.9626,0,0,-9.9626,85.78684,110.82718)"/>
<use xlink:href="#font_1_3" transform="matrix(9.9626,0,0,-9.9626,80.91513,100.521999)"/>
<use xlink:href="#font_1_5" transform="matrix(9.9626,0,0,-9.9626,85.67725,100.521999)"/>
<use xlink:href="#font_1_3" transform="matrix(9.9626,0,0,-9.9626,80.91513,90.435)"/>
<use xlink:href="#font_1_8" transform="matrix(9.9626,0,0,-9.9626,85.81673,90.654178)"/>
<use xlink:href="#font_1_4" transform="matrix(9.9626,0,0,-9.9626,80.83543,80.56718)"/>
<use xlink:href="#font_1_3" transform="matrix(9.9626,0,0,-9.9626,85.89643,80.348)"/>
<use xlink:href="#font_1_4" transform="matrix(9.9626,0,0,-9.9626,80.83543,70.48018)"/>
<use xlink:href="#font_1_7" transform="matrix(9.9626,0,0,-9.9626,85.81673,70.48018)"/>
<use xlink:href="#font_1_5" transform="matrix(9.9626,0,0,-9.9626,80.69595,60.17501)"/>
<use xlink:href="#font_1_1" transform="matrix(9.9626,0,0,-9.9626,85.78684,60.394189)"/>
<use xlink:href="#font_1_5" transform="matrix(9.9626,0,0,-9.9626,80.69595,50.087999)"/>
<use xlink:href="#font_1_5" transform="matrix(9.9626,0,0,-9.9626,85.67725,50.087999)"/>
<use xlink:href="#font_1_5" transform="matrix(9.9626,0,0,-9.9626,80.69595,40.001008)"/>
<use xlink:href="#font_1_8" transform="matrix(9.9626,0,0,-9.9626,85.81673,40.220186)"/>
<symbol id="font_1_6">
<path d="M .39900003 .223 C .39900003 .34200005 .317 .44200004 .209 .44200004 C .16100002 .44200004 .118000019 .42600004 .082 .39100004 L .082 .586 C .10200001 .58000007 .135 .573 .16700001 .573 C .29 .573 .36 .66400006 .36 .67700007 C .36 .683 .357 .688 .35 .688 C .349 .688 .347 .688 .342 .68500009 C .322 .67600008 .273 .656 .20600002 .656 C .16600001 .656 .120000008 .66300007 .073 .6840001 C .065 .68700006 .06300001 .68700006 .061000009 .68700006 C .051000004 .68700006 .051000004 .679 .051000004 .66300007 L .051000004 .36700005 C .051000004 .34900005 .051000004 .34100003 .065 .34100003 C .07200001 .34100003 .074 .34400005 .07800001 .35000003 C .08900002 .36600004 .12600002 .42000006 .207 .42000006 C .259 .42000006 .284 .37400005 .292 .35600005 C .308 .31900005 .31 .28000004 .31 .23 C .31 .19500001 .31 .135 .286 .093 C .262 .054000006 .22500001 .028 .17900002 .028 C .106000009 .028 .049000008 .08100001 .032 .14000002 C .035 .13900002 .038000008 .13800001 .049000008 .13800001 C .082 .13800001 .09900001 .163 .09900001 .187 C .09900001 .21100001 .082 .23600002 .049000008 .23600002 C .035 .23600002 0 .22900002 0 .18300002 C 0 .097 .069000009 0 .18100001 0 C .297 0 .39900003 .096 .39900003 .223 Z "/>
</symbol>
<use xlink:href="#font_1_6" transform="matrix(9.9626,0,0,-9.9626,80.91513,30.13417)"/>
<use xlink:href="#font_1_3" transform="matrix(9.9626,0,0,-9.9626,85.89643,29.914994)"/>
<use xlink:href="#font_1_6" transform="matrix(9.9626,0,0,-9.9626,80.91513,20.04718)"/>
<use xlink:href="#font_1_7" transform="matrix(9.9626,0,0,-9.9626,85.81673,20.04718)"/>
<use xlink:href="#font_1_7" transform="matrix(9.9626,0,0,-9.9626,80.83543,9.960175)"/>
<use xlink:href="#font_1_1" transform="matrix(9.9626,0,0,-9.9626,85.78684,9.960175)"/>
<clipPath id="cp2">
<path transform="matrix(1,0,0,-1,9.686,167.918)" d="M 0 0 L 194.2676 0 L 194.2676 161.38906 L 0 161.38906 Z "/>
</clipPath>
<g clip-path="url(#cp2)">
<path transform="matrix(1,0,0,-1,9.686,167.918)" stroke-width="1" stroke-linecap="butt" stroke-miterlimit="10" stroke-linejoin="miter" fill="none" stroke="#000000" d="M 21.65656 142.27104 L 22.16281 139.05558 L 22.74033 135.51863 L 23.31787 132.07399 L 23.89539 128.72138 L 24.47292 125.45477 L 25.05045 122.27716 L 25.62798 119.18279 L 26.2055 116.16985 L 26.78304 113.23636 L 27.36057 110.37926 L 27.9381 107.59857 L 28.51563 104.89078 L 29.09315 102.2551 L 29.67068 99.68976 L 30.2482 97.19049 L 30.82574 94.75832 L 31.40326 92.38992 L 31.98079 90.08282 L 32.55833 87.83725 L 33.13585 85.65118 L 33.7134 83.52411 L 34.29091 81.45331 L 34.86844 79.43518 L 35.44597 77.47128 L 36.0235 75.55931 L 36.60103 73.69754 L 37.17856 71.88545 L 37.75609 70.12102 L 38.33362 68.40273 L 38.91115 66.73083 L 39.48866 65.10155 L 40.06621 63.51591 L 40.64372 61.97337 L 41.22127 60.46893 L 41.79878 59.00635 L 42.37631 57.58057 L 42.95386 56.19516 L 43.53137 54.84453 L 44.10892 53.52896 L 44.68643 52.24995 L 45.26396 51.00397 L 45.84149 49.79002 L 46.41902 48.60912 L 46.99654 47.45895 L 47.57408 46.33858 L 48.15161 45.24893 L 48.72914 44.18732 L 49.30667 43.1544 L 49.88419 42.14825 L 50.46173 41.16858 L 51.03925 40.2146 L 51.61679 39.28662 L 52.1943 38.38234 L 52.77184 37.50201 L 53.34938 36.64514 L 53.9269 35.8112 L 54.50443 34.99898 L 55.08195 34.2084 L 55.65948 33.4383 L 56.23701 32.68909 L 56.81454 31.9588 L 57.39207 31.24843 L 57.9696 30.55673 L 58.54713 29.88239 L 59.12466 29.22691 L 59.7022 28.58817 L 60.27971 27.96664 L 60.85725 27.36191 L 61.43477 26.77237 L 62.0123 26.19867 L 62.58984 25.64006 L 63.16736 25.09648 L 63.7449 24.56718 L 64.32242 24.05157 L 64.89995 23.55 L 65.47748 23.06125 L 66.05501 22.58537 L 66.63254 22.12277 L 67.21007 21.67151 L 67.7876 21.23257 L 68.36513 20.80545 L 68.94266 20.38905 L 69.52019 19.98396 L 70.09772 19.58972 L 70.67523 19.20544 L 71.25278 18.83183 L 71.83029 18.46774 L 72.40784 18.1131 L 72.98537 17.76834 L 73.56288 17.43219 L 74.14043 17.10526 L 74.71794 16.7869 L 75.29549 16.47675 L 75.873 16.17496 L 76.45053 15.88112 L 77.02806 15.59491 L 77.60559 15.31644 L 78.18314 15.0451 L 78.76065 14.78105 L 79.33818 14.5241 L 79.91571 14.27382 L 80.49324 14.03009 L 81.07077 13.79301 L 81.6483 13.56189 L 82.22583 13.33698 L 82.80336 13.11797 L 83.38089 12.90483 L 83.95842 12.69734 L 84.53595 12.49518 L 85.11346 12.29858 L 85.69101 12.10709 L 86.26852 11.92056 L 86.84607 11.73901 L 87.42358 11.56221 L 88.00113 11.39009 L 88.57866 11.22267 L 89.15617 11.0595 L 89.73372 10.90068 L 90.31123 10.74608 L 90.88878 10.59554 L 91.4663 10.44891 L 92.04384 10.30603 L 92.62135 10.16724 L 93.19888 10.03201 L 93.77643 9.9003 L 94.35394 9.77211 L 94.93149 9.6473 L 95.509 9.52565 L 96.08653 9.40744 L 96.66406 9.29216 L 97.2416 9.18 L 97.81912 9.07086 L 98.39665 8.96446 L 98.97418 8.86098 L 99.55171 8.76024 L 100.12924 8.66211 L 100.70677 8.5666 L 101.2843 8.47356 L 101.86182 8.38298 L 102.43936 8.29488 L 103.01688 8.20898 L 103.59442 8.12544 L 104.17195 8.04411 L 104.74947 7.96484 L 105.32701 7.88779 L 105.90453 7.81262 L 106.48207 7.73955 L 107.05959 7.66835 L 107.63713 7.59906 L 108.21465 7.53217 L 108.79218 7.46655 L 109.36972 7.4025 L 109.94724 7.3402 L 110.52477 7.27968 L 111.1023 7.22063 L 111.67982 7.16312 L 112.25735 7.10713 L 112.83488 7.05263 L 113.4124 6.99971 L 113.98994 6.94798 L 114.56747 6.89755 L 115.145 6.8486 L 115.72253 6.80092 L 116.30005 6.75452 L 116.8776 6.70938 L 117.45511 6.66548 L 118.03264 6.62262 L 118.61017 6.58098 L 119.1877 6.54039 L 119.76524 6.50075 L 120.34276 6.46243 L 120.92029 6.42484 L 121.49782 6.38829 L 122.07535 6.35297 L 122.65288 6.31842 L 123.23041 6.28462 L 123.80792 6.25179 L 124.38547 6.22002 L 124.963 6.18901 L 125.54051 6.15874 L 126.11806 6.12923 L 126.69557 6.10046 L 127.27312 6.07272 L 127.85063 6.04547 L 128.42816 6.01901 L 129.00569 5.99327 L 129.58322 5.96805 L 130.16077 5.94388 L 130.73828 5.91989 L 131.31581 5.89691 L 131.89334 5.87422 L 132.47087 5.85228 L 133.04839 5.83107 L 133.62593 5.81015 L 134.20345 5.78998 L 134.78099 5.77032 L 135.35852 5.75111 L 135.93604 5.73245 L 136.51358 5.71407 L 137.0911 5.69641 L 137.66864 5.67924 L 138.24616 5.66235 L 138.82369 5.64595 L 139.40122 5.63008 L 139.97875 5.61469 L 140.55628 5.59955 L 141.1338 5.58492 L 141.71134 5.57056 L 142.28887 5.55667 L 142.8664 5.54305 L 143.44391 5.5299 L 144.02146 5.51706 L 144.59897 5.50443 L 145.17652 5.49236 L 145.75405 5.4805 L 146.33156 5.46887 L 146.9091 5.45781 L 147.48662 5.4467 L 148.06415 5.4361 L 148.64168 5.42577 L 149.21921 5.41566 L 149.79676 5.40582 L 150.37427 5.39622 L 150.9518 5.38692 L 151.52933 5.37784 L 152.10686 5.369 L 152.68439 5.36043 L 153.26192 5.3521 L 153.83943 5.34404 L 154.41698 5.33594 L 154.9945 5.32816 L 155.57202 5.32083 L 156.14957 5.31352 L 156.72708 5.30621 L 157.30463 5.29941 L 157.88214 5.29263 L 158.45967 5.28606 L 159.0372 5.27965 L 159.61473 5.27342 L 160.19228 5.26733 L 160.76979 5.26143 L 161.34732 5.25566 L 161.92485 5.25008 L 162.50238 5.24461 L 163.0799 5.23929 L 163.65744 5.23413 L 164.23496 5.2291 L 164.8125 5.2242 L 165.39003 5.21942 L 165.96755 5.21477 L 166.54509 5.21024 L 167.1226 5.20584 L 167.70015 5.20155 L 168.27767 5.19739 L 168.8552 5.19331 L 169.43273 5.18936 L 170.01026 5.1855 L 170.58779 5.18175 L 171.16532 5.17809 L 171.74285 5.17455 L 172.32038 5.17108 L 172.8979 5.16771 L 173.47542 5.16443 L 174.05297 5.16122 L 174.63048 5.15811 L 175.20803 5.15509 L 175.78556 5.15215 L 176.36307 5.14926 L 176.94062 5.14647 L 177.51813 5.14375 L 178.09566 5.1411 L 178.67319 5.13852 L 179.25072 5.13602 L 179.82825 5.13356 L 180.40578 5.1312 L 180.9833 5.12886 L 181.56084 5.12662 L 182.13837 5.1244 L 182.7159 5.12228 L 183.29343 5.12021 L 183.87094 5.11816 L 184.44849 5.11618 L 185.026 5.11427 L 185.60353 5.1124 L 186.18108 5.11058 L 186.75859 5.1088 L 187.33614 5.10709 L 187.91365 5.1054 L 188.49118 5.10378 L 189.06871 5.10217 L 189.64624 5.10062 L 190.22377 5.0991 L 190.8013 5.09763 L 191.37883 5.09619 L 191.95636 5.09482 L 192.53389 5.09344 L 193.1114 5.09212 L 193.68895 5.09085 L 193.80821 5.09058 "/>
<path transform="matrix(-.15553,-.98781,-.98781,.15553,31.342572,25.646958)" stroke-width="1" stroke-linecap="round" stroke-linejoin="round" fill="none" stroke="#000000" d="M -1.19551 1.59401 C -1.09587 .99626 0 .09961 .29886 0 C 0 -.09961 -1.09587 -.99626 -1.19551 -1.59401 "/>
<path transform="matrix(.99997,.00217,.00217,-.99997,203.49422,162.82743)" stroke-width="1" stroke-linecap="round" stroke-linejoin="round" fill="none" stroke="#000000" d="M -1.19551 1.59401 C -1.09587 .99626 0 .09961 .29886 0 C 0 -.09961 -1.09587 -.99626 -1.19551 -1.59401 "/>
</g>
<symbol id="font_3_1">
<path d="M .305 .31300003 C .311 .33900003 .334 .43100003 .404 .43100003 C .409 .43100003 .433 .43100003 .454 .418 C .426 .41300003 .40600003 .388 .40600003 .36400003 C .40600003 .34800003 .417 .32900004 .444 .32900004 C .46600003 .32900004 .498 .34700004 .498 .38700003 C .498 .43900005 .439 .45300005 .405 .45300005 C .347 .45300005 .312 .40000005 .3 .37700004 C .275 .44300003 .221 .45300005 .19200002 .45300005 C .08800001 .45300005 .031000002 .32400004 .031000002 .29900003 C .031000002 .28900004 .041 .28900004 .043000007 .28900004 C .051000008 .28900004 .054000006 .291 .056 .3 C .09 .40600003 .156 .43100003 .19000001 .43100003 C .209 .43100003 .244 .42200003 .244 .36400003 C .244 .33300004 .22700002 .26600004 .19000001 .126 C .17400001 .064 .13900002 .022000002 .095000009 .022000002 C .08900001 .022000002 .06600001 .022000002 .045 .035 C .07000001 .040000004 .09200001 .061 .09200001 .089 C .09200001 .116000007 .07000001 .124000009 .055000009 .124000009 C .025 .124000009 0 .098000008 0 .06600001 C 0 .020000002 .050000006 0 .094000007 0 C .16000001 0 .19600001 .07000001 .19900002 .076000008 C .21100001 .039 .24700003 0 .307 0 C .41 0 .467 .12900001 .467 .15400002 C .467 .16400002 .458 .16400002 .455 .16400002 C .446 .16400002 .444 .16000001 .442 .15300001 C .409 .046 .341 .022000002 .30900003 .022000002 C .27 .022000002 .254 .054 .254 .08800001 C .254 .11000001 .26 .13200002 .271 .17600002 L .305 .31300003 Z "/>
</symbol>
<use xlink:href="#font_3_1" transform="matrix(9.9626,0,0,-9.9626,195.06291,154.41959)"/>
<symbol id="font_3_2">
<path d="M .45700003 .586 C .461 .6 .461 .602 .461 .609 C .461 .62700006 .447 .63600006 .432 .63600006 C .42200003 .63600006 .40600003 .63 .397 .615 C .395 .61 .387 .579 .38300003 .561 C .37600003 .535 .36900003 .508 .363 .48100005 L .318 .301 C .314 .286 .271 .21600002 .20500002 .21600002 C .15400002 .21600002 .143 .26000003 .143 .29700003 C .143 .34300003 .16000001 .40500004 .194 .49300004 C .21000001 .53400006 .21400002 .545 .21400002 .56500008 C .21400002 .61 .18200001 .6470001 .13200002 .6470001 C .037 .6470001 0 .50200006 0 .49300004 C 0 .48300005 .01 .48300005 .012 .48300005 C .022000002 .48300005 .023 .485 .028000003 .50100007 C .055000009 .595 .095000009 .625 .12900001 .625 C .13700001 .625 .15400002 .625 .15400002 .59300008 C .15400002 .568 .14400001 .54200008 .13700001 .523 C .097 .41700004 .079 .36 .079 .31300003 C .079 .224 .142 .194 .201 .194 C .24000003 .194 .274 .21100001 .30200003 .23900002 C .289 .187 .277 .13800001 .237 .08500001 C .21100001 .051 .17300001 .022 .127 .022 C .113000009 .022 .068 .025000006 .051000008 .06400001 C .067 .06400001 .080000009 .06400001 .094000007 .076000008 C .104 .08500001 .11400001 .098000008 .11400001 .117000009 C .11400001 .148 .087000008 .15200001 .07700001 .15200001 C .054000006 .15200001 .021 .136 .021 .087000008 C .021 .037 .065000008 0 .127 0 C .23 0 .333 .091000009 .361 .20400001 L .45700003 .586 Z "/>
</symbol>
<use xlink:href="#font_3_2" transform="matrix(9.9626,0,0,-9.9626,99.84692,16.347327)"/>
</svg>
