<?xml version="1.0" encoding="UTF-8" standalone="no"?>
<!DOCTYPE svg PUBLIC "-//W3C//DTD SVG 1.1//EN" "http://www.w3.org/Graphics/SVG/1.1/DTD/svg11.dtd">
<svg xmlns="http://www.w3.org/2000/svg" xmlns:xlink="http://www.w3.org/1999/xlink" version="1.1" width="194.665pt" height="168.527pt" viewBox="0 0 194.665 168.527">
<path transform="matrix(1,0,0,-1,.199,161.581)" stroke-width="1" stroke-linecap="butt" stroke-miterlimit="10" stroke-linejoin="miter" fill="none" stroke="#808080" d="M 27.75273 14.01253 L 27.75273 18.26428 M 55.50546 14.01253 L 55.50546 18.26428 M 83.2582 14.01253 L 83.2582 18.26428 M 138.76366 14.01253 L 138.76366 18.26428 M 166.51639 14.01253 L 166.51639 18.26428 "/>
<path transform="matrix(1,0,0,-1,.199,161.581)" stroke-width="1" stroke-linecap="butt" stroke-miterlimit="10" stroke-linejoin="miter" fill="none" stroke="#808080" d="M 108.88493 0 L 113.13689 0 M 108.88493 32.27684 L 113.13689 32.27684 M 108.88493 48.41525 L 113.13689 48.41525 M 108.88493 64.55368 L 113.13689 64.55368 M 108.88493 80.6921 L 113.13689 80.6921 M 108.88493 96.83052 L 113.13689 96.83052 M 108.88493 112.96893 L 113.13689 112.96893 M 108.88493 129.10736 L 113.13689 129.10736 M 108.88493 145.24578 L 113.13689 145.24578 "/>
<path transform="matrix(1,0,0,-1,.199,161.581)" stroke-width="1" stroke-linecap="butt" stroke-miterlimit="10" stroke-linejoin="miter" fill="none" stroke="#000000" d="M 0 16.13841 L 192.2766 16.13841 "/>
<path transform="matrix(1,0,0,-1,192.4756,145.44258)" d="M 1.99252 0 L -1.19551 1.59401 L 0 0 L -1.19551 -1.59401 "/>
<path transform="matrix(1,0,0,-1,.199,161.581)" stroke-width="1" stroke-linecap="butt" stroke-miterlimit="10" stroke-linejoin="miter" fill="none" stroke="#000000" d="M 111.01093 0 L 111.01093 159.39168 "/>
<path transform="matrix(0,-1,-1,-0,111.20993,2.1893159)" d="M 1.99252 0 L -1.19551 1.59401 L 0 0 L -1.19551 -1.59401 "/>
<symbol id="font_0_1">
<path d="M .57600006 0 C .59300008 0 .611 0 .611 .019999996 C .611 .040000008 .59300008 .040000008 .57600006 .040000008 L .035000005 .040000008 C .018 .040000008 0 .040000008 0 .019999996 C 0 0 .018 0 .035000005 0 L .57600006 0 Z "/>
</symbol>
<use xlink:href="#font_0_1" transform="matrix(9.9626,0,0,-9.9626,22.413897,155.21759)"/>
<symbol id="font_1_3">
<path d="M .24800003 .37400005 C .33 .40100003 .388 .47100006 .388 .55 C .388 .632 .3 .688 .204 .688 C .10300001 .688 .027000003 .628 .027000003 .55200007 C .027000003 .519 .049000004 .5 .078 .5 C .109000008 .5 .12900001 .522 .12900001 .55100008 C .12900001 .6010001 .082 .6010001 .067 .6010001 C .098 .65000006 .164 .66300007 .20000002 .66300007 C .24100003 .66300007 .29600004 .64100006 .29600004 .55100008 C .29600004 .53900006 .29400004 .48100005 .268 .43700005 C .238 .38900004 .204 .38600005 .17900002 .38500003 C .171 .38400004 .14700002 .38200004 .14000002 .38200004 C .132 .38100005 .125 .38000003 .125 .37000004 C .125 .35900004 .132 .35900004 .14900002 .35900004 L .19300002 .35900004 C .275 .35900004 .312 .29100005 .312 .193 C .312 .057000005 .24300003 .028 .199 .028 C .15600002 .028 .081 .045 .046000005 .104 C .081 .09900001 .11200001 .12100001 .11200001 .15900001 C .11200001 .19500001 .085 .215 .056 .215 C .031999999 .215 0 .201 0 .157 C 0 .06600001 .093 0 .20200002 0 C .32400004 0 .41500003 .091000009 .41500003 .193 C .41500003 .27500005 .35200004 .35300005 .24800003 .37400005 Z "/>
</symbol>
<use xlink:href="#font_1_3" transform="matrix(9.9626,0,0,-9.9626,29.753428,157.72817)"/>
<use xlink:href="#font_0_1" transform="matrix(9.9626,0,0,-9.9626,50.165899,155.21759)"/>
<symbol id="font_1_2">
<path d="M .07700001 .07700001 L .18300002 .18 C .33900003 .31800003 .39900003 .372 .39900003 .47200004 C .39900003 .586 .30900003 .666 .18700002 .666 C .074 .666 0 .574 0 .485 C 0 .42900003 .05 .42900003 .053000008 .42900003 C .07000001 .42900003 .105000007 .441 .105000007 .48200003 C .105000007 .508 .08700001 .53400006 .052000006 .53400006 C .044000005 .53400006 .042000008 .53400006 .039 .53300008 C .062000004 .59800007 .11600001 .63500007 .17400001 .63500007 C .26500003 .63500007 .308 .554 .308 .47200004 C .308 .39200003 .25800003 .31300003 .20300003 .25100003 L .011000004 .037 C 0 .026 0 .024 0 0 L .37100003 0 L .39900003 .17400001 L .374 .17400001 C .36900003 .14400001 .36200003 .1 .352 .085 C .345 .07700001 .279 .07700001 .257 .07700001 L .07700001 .07700001 Z "/>
</symbol>
<use xlink:href="#font_1_2" transform="matrix(9.9626,0,0,-9.9626,57.586133,157.50899)"/>
<use xlink:href="#font_0_1" transform="matrix(9.9626,0,0,-9.9626,77.91789,155.21759)"/>
<symbol id="font_1_1">
<path d="M .205 .64000007 C .205 .66400006 .205 .666 .18200003 .666 C .120000008 .60200008 .032000007 .60200008 0 .60200008 L 0 .57100006 C .020000004 .57100006 .07900001 .57100006 .13100001 .597 L .13100001 .079 C .13100001 .043 .128 .031000002 .038000004 .031000002 L .0060000049 .031000002 L .0060000049 0 C .04100001 .003 .128 .003 .168 .003 C .20800002 .003 .29500003 .003 .33000005 0 L .33000005 .031000002 L .29800005 .031000002 C .20800002 .031000002 .205 .042000005 .205 .079 L .205 .64000007 Z "/>
</symbol>
<use xlink:href="#font_1_1" transform="matrix(9.9626,0,0,-9.9626,85.72667,157.50899)"/>
<use xlink:href="#font_1_1" transform="matrix(9.9626,0,0,-9.9626,137.35668,157.50899)"/>
<use xlink:href="#font_1_2" transform="matrix(9.9626,0,0,-9.9626,164.72113,157.50899)"/>
<use xlink:href="#font_0_1" transform="matrix(9.9626,0,0,-9.9626,93.6599,162.0846)"/>
<use xlink:href="#font_1_1" transform="matrix(9.9626,0,0,-9.9626,101.46867,164.37599)"/>
<use xlink:href="#font_1_1" transform="matrix(9.9626,0,0,-9.9626,101.46867,132.51502)"/>
<use xlink:href="#font_1_2" transform="matrix(9.9626,0,0,-9.9626,101.08013,116.37701)"/>
<use xlink:href="#font_1_3" transform="matrix(9.9626,0,0,-9.9626,101.00043,100.45818)"/>
<symbol id="font_1_4">
<path d="M .266 .165 L .266 .078 C .266 .042000005 .26400004 .031000002 .19000001 .031000002 L .16900002 .031000002 L .16900002 0 C .21000001 .003 .26200003 .003 .30400003 .003 C .34600003 .003 .39900003 .003 .44000004 0 L .44000004 .031000002 L .41900004 .031000002 C .34500004 .031000002 .34300003 .042000005 .34300003 .078 L .34300003 .165 L .44300003 .165 L .44300003 .19600001 L .34300003 .19600001 L .34300003 .651 C .34300003 .671 .34300003 .67700007 .32700003 .67700007 C .31800003 .67700007 .31500004 .67700007 .307 .665 L 0 .19600001 L 0 .165 L .266 .165 M .272 .19600001 L .028 .19600001 L .272 .569 L .272 .19600001 Z "/>
</symbol>
<use xlink:href="#font_1_4" transform="matrix(9.9626,0,0,-9.9626,100.860958,84.09999)"/>
<symbol id="font_1_5">
<path d="M .39900003 .223 C .39900003 .34200005 .317 .44200004 .209 .44200004 C .16100002 .44200004 .118000019 .42600004 .082 .39100004 L .082 .586 C .10200001 .58000007 .135 .573 .16700001 .573 C .29 .573 .36 .66400006 .36 .67700007 C .36 .683 .357 .688 .35 .688 C .349 .688 .347 .688 .342 .68500009 C .322 .67600008 .273 .656 .20600002 .656 C .16600001 .656 .120000008 .66300007 .073 .6840001 C .065 .68700006 .06300001 .68700006 .061000009 .68700006 C .051000004 .68700006 .051000004 .679 .051000004 .66300007 L .051000004 .36700005 C .051000004 .34900005 .051000004 .34100003 .065 .34100003 C .07200001 .34100003 .074 .34400005 .07800001 .35000003 C .08900002 .36600004 .12600002 .42000006 .207 .42000006 C .259 .42000006 .284 .37400005 .292 .35600005 C .308 .31900005 .31 .28000004 .31 .23 C .31 .19500001 .31 .135 .286 .093 C .262 .054000006 .22500001 .028 .17900002 .028 C .106000009 .028 .049000008 .08100001 .032 .14000002 C .035 .13900002 .038000008 .13800001 .049000008 .13800001 C .082 .13800001 .09900001 .163 .09900001 .187 C .09900001 .21100001 .082 .23600002 .049000008 .23600002 C .035 .23600002 0 .22900002 0 .18300002 C 0 .097 .069000009 0 .18100001 0 C .297 0 .39900003 .096 .39900003 .223 Z "/>
</symbol>
<use xlink:href="#font_1_5" transform="matrix(9.9626,0,0,-9.9626,101.08013,68.18117)"/>
<symbol id="font_1_6">
<path d="M .089999999 .35000003 L .089999999 .37400005 C .089999999 .62700006 .21400002 .66300007 .26500003 .66300007 C .28900004 .66300007 .33100004 .65700009 .35300002 .623 C .33800004 .623 .298 .623 .298 .57800009 C .298 .54700008 .32200004 .53200009 .344 .53200009 C .36 .53200009 .39000003 .54100009 .39000003 .58000007 C .39000003 .64000007 .34600003 .688 .263 .688 C .13499999 .688 0 .559 0 .33800004 C 0 .071 .116000007 0 .20900002 0 C .32000003 0 .41500003 .094000007 .41500003 .22600001 C .41500003 .35300005 .32600004 .44900004 .215 .44900004 C .14700002 .44900004 .11000001 .39800004 .089999999 .35000003 M .20900002 .028 C .146 .028 .116000007 .088 .11000001 .103 C .092 .15 .092 .23 .092 .24800001 C .092 .32600004 .124000009 .42600004 .21400002 .42600004 C .23000002 .42600004 .27600003 .42600004 .307 .36400003 C .32500003 .32700003 .32500003 .27600003 .32500003 .22700002 C .32500003 .179 .32500003 .12900001 .30800004 .093 C .27800004 .033000005 .23200003 .028 .20900002 .028 Z "/>
</symbol>
<use xlink:href="#font_1_6" transform="matrix(9.9626,0,0,-9.9626,101.00043,52.043169)"/>
<symbol id="font_1_7">
<path d="M .42000003 .63100007 C .42900003 .64300009 .42900003 .64500007 .42900003 .66600009 L .18600002 .66600009 C .064 .66600009 .062000008 .679 .058000007 .6980001 L .033 .6980001 L 0 .49200005 L .024999999 .49200005 C .028000005 .508 .037 .57100006 .050000006 .58300009 C .057000005 .58900007 .13500002 .58900007 .148 .58900007 L .35500003 .58900007 C .344 .573 .26500003 .46400006 .24300003 .43100003 C .153 .29600004 .12000001 .157 .12000001 .055 C .12000001 .045 .12000001 0 .16600001 0 C .21200001 0 .21200001 .045 .21200001 .055 L .21200001 .106000009 C .21200001 .16100002 .21500004 .216 .22300002 .27 C .22700003 .29300005 .24100003 .37900005 .28500004 .44100005 L .42000003 .63100007 Z "/>
</symbol>
<use xlink:href="#font_1_7" transform="matrix(9.9626,0,0,-9.9626,101.13991,35.90518)"/>
<symbol id="font_1_8">
<path d="M .121 .47900004 C .075 .509 .071 .54300007 .071 .56000009 C .071 .62100008 .136 .66300007 .20700002 .66300007 C .28000004 .66300007 .344 .61100009 .344 .53900006 C .344 .48200003 .305 .43400005 .245 .39900003 L .121 .47900004 M .26700003 .38400004 C .33900003 .42100004 .388 .47300006 .388 .53900006 C .388 .63100007 .29900003 .688 .208 .688 C .108 .688 .027000003 .614 .027000003 .521 C .027000003 .503 .029 .45800004 .071 .41100005 C .082 .39900003 .11900001 .37400005 .144 .35700003 C .086 .32800005 0 .272 0 .17300001 C 0 .067 .102000009 0 .20700002 0 C .32000003 0 .41500003 .083000008 .41500003 .19000001 C .41500003 .22600001 .404 .27100004 .36600004 .31300003 C .34700004 .33400003 .33100004 .34400005 .26700003 .38400004 M .167 .34200005 L .29000003 .26400004 C .31800003 .245 .365 .215 .365 .154 C .365 .080000009 .29000003 .028 .208 .028 C .122 .028 .050000006 .09 .050000006 .17300001 C .050000006 .231 .082 .29500003 .167 .34200005 Z "/>
</symbol>
<use xlink:href="#font_1_8" transform="matrix(9.9626,0,0,-9.9626,101.00043,19.766175)"/>
<clipPath id="cp2">
<path transform="matrix(1,0,0,-1,.199,161.581)" d="M 0 0 L 194.26912 0 L 194.26912 161.3842 L 0 161.3842 Z "/>
</clipPath>
<g clip-path="url(#cp2)">
<path transform="matrix(1,0,0,-1,.199,161.581)" stroke-width="1" stroke-linecap="butt" stroke-miterlimit="10" stroke-linejoin="miter" fill="none" stroke="#000000" d="M 28.21077 16.95535 L 28.21681 16.95555 L 28.6809 16.96933 L 29.14499 16.98332 L 29.60907 16.99757 L 30.07315 17.01205 L 30.53725 17.02678 L 31.00134 17.04178 L 31.46542 17.057 L 31.92952 17.0725 L 32.3936 17.08823 L 32.85768 17.10425 L 33.32178 17.12054 L 33.78587 17.1371 L 34.24995 17.15395 L 34.71405 17.17108 L 35.17813 17.18849 L 35.64221 17.20618 L 36.10631 17.22418 L 36.57039 17.24251 L 37.03448 17.26112 L 37.49858 17.28006 L 37.96266 17.29932 L 38.42674 17.31888 L 38.89084 17.33878 L 39.35492 17.35902 L 39.81902 17.37961 L 40.28311 17.40054 L 40.7472 17.42183 L 41.21127 17.44347 L 41.67537 17.46545 L 42.13945 17.48784 L 42.60355 17.5106 L 43.06764 17.53374 L 43.53172 17.55727 L 43.9958 17.5812 L 44.4599 17.60553 L 44.92398 17.63028 L 45.38806 17.65541 L 45.85217 17.68098 L 46.31625 17.70702 L 46.78033 17.73346 L 47.24443 17.76048 L 47.70851 17.78807 L 48.17259 17.81534 L 48.6367 17.84296 L 49.10078 17.872 L 49.56487 17.90103 L 50.02896 17.93155 L 50.49304 17.96075 L 50.95712 17.99141 L 51.42123 18.0237 L 51.88531 18.05597 L 52.34941 18.08824 L 52.81349 18.12053 L 53.27757 18.15442 L 53.74167 18.18848 L 54.20575 18.2222 L 54.66985 18.2577 L 55.13394 18.29337 L 55.59802 18.33032 L 56.0621 18.36598 L 56.5262 18.40472 L 56.99028 18.44185 L 57.45438 18.4822 L 57.91847 18.52094 L 58.38255 18.56128 L 58.84663 18.60162 L 59.31073 18.64357 L 59.77481 18.68568 L 60.23889 18.72926 L 60.703 18.77284 L 61.16708 18.8164 L 61.63116 18.86143 L 62.09526 18.90825 L 62.55934 18.95505 L 63.02342 19.00185 L 63.48753 19.05043 L 63.95161 19.1003 L 64.4157 19.14886 L 64.87979 19.2005 L 65.34387 19.25198 L 65.80795 19.3038 L 66.27206 19.35866 L 66.73615 19.41191 L 67.20023 19.4668 L 67.66432 19.52344 L 68.1284 19.58154 L 68.59248 19.63786 L 69.05658 19.69772 L 69.52068 19.7573 L 69.98476 19.81862 L 70.44885 19.87994 L 70.91293 19.94481 L 71.37701 20.00758 L 71.84111 20.07376 L 72.3052 20.14009 L 72.76929 20.2077 L 73.23338 20.2755 L 73.69746 20.3449 L 74.16154 20.41605 L 74.62564 20.48868 L 75.08974 20.56274 L 75.55382 20.63715 L 76.01791 20.71301 L 76.482 20.79063 L 76.94608 20.86794 L 77.41017 20.94879 L 77.87425 21.02948 L 78.33836 21.11179 L 78.80244 21.1957 L 79.26653 21.28108 L 79.73062 21.36838 L 80.1947 21.45554 L 80.65878 21.54591 L 81.1229 21.63629 L 81.58698 21.73006 L 82.05106 21.82365 L 82.51515 21.91885 L 82.97923 22.01715 L 83.44331 22.11575 L 83.90741 22.21742 L 84.3715 22.31909 L 84.83559 22.424 L 85.29968 22.5289 L 85.76376 22.63734 L 86.22786 22.74677 L 86.69196 22.85844 L 87.15604 22.97142 L 87.62012 23.0876 L 88.08421 23.20381 L 88.54831 23.32323 L 89.01239 23.44427 L 89.47649 23.56853 L 89.94057 23.69296 L 90.40466 23.82047 L 90.86876 23.94957 L 91.33284 24.08206 L 91.79692 24.21602 L 92.26102 24.35141 L 92.72511 24.49037 L 93.1892 24.6306 L 93.65329 24.77457 L 94.11737 24.9198 L 94.58145 25.06828 L 95.04556 25.2182 L 95.50964 25.37169 L 95.97372 25.52821 L 96.43782 25.68639 L 96.90192 25.84793 L 97.366 26.01093 L 97.8301 26.17714 L 98.29417 26.34677 L 98.75826 26.51945 L 99.22237 26.69374 L 99.68645 26.87126 L 100.15053 27.05202 L 100.61462 27.23778 L 101.0787 27.42336 L 101.5428 27.6138 L 102.0069 27.80762 L 102.47098 28.00467 L 102.93506 28.20479 L 103.39915 28.40813 L 103.86325 28.61485 L 104.32733 28.82611 L 104.79143 29.03946 L 105.25551 29.25732 L 105.7196 29.47842 L 106.1837 29.70274 L 106.64778 29.93192 L 107.11188 30.16447 L 107.57596 30.40155 L 108.04004 30.64217 L 108.50415 30.88602 L 108.96823 31.13438 L 109.43231 31.38792 L 109.89641 31.64468 L 110.3605 31.90628 L 110.82458 32.17241 L 111.28868 32.43918 L 111.75276 32.71385 L 112.21686 32.99321 L 112.68095 33.2774 L 113.14503 33.56628 L 113.60912 33.86017 L 114.07323 34.15889 L 114.53731 34.46277 L 115.00139 34.77214 L 115.46548 35.08635 L 115.92957 35.40541 L 116.39366 35.73029 L 116.85776 36.0608 L 117.32184 36.39696 L 117.78592 36.73813 L 118.25002 37.08559 L 118.71411 37.43901 L 119.17819 37.7981 L 119.64229 38.163 L 120.10637 38.53433 L 120.57045 38.9123 L 121.03456 39.29622 L 121.49864 39.68678 L 121.96272 40.0838 L 122.42682 40.48709 L 122.8909 40.89796 L 123.355 41.3153 L 123.81909 41.74008 L 124.28317 42.17177 L 124.74725 42.61026 L 125.21135 43.05696 L 125.67545 43.51062 L 126.13953 43.97234 L 126.60362 44.44164 L 127.0677 44.919 L 127.5318 45.4043 L 127.9959 45.89798 L 128.45998 46.4002 L 128.92406 46.90953 L 129.38816 47.42854 L 129.85225 47.95627 L 130.31633 48.49255 L 130.78043 49.0385 L 131.2445 49.5935 L 131.7086 50.15755 L 132.1727 50.73047 L 132.63678 51.31386 L 133.10088 51.90761 L 133.56496 52.51038 L 134.02906 53.1238 L 134.49315 53.74706 L 134.95723 54.38194 L 135.42131 55.02618 L 135.8854 55.68188 L 136.3495 56.34921 L 136.81359 57.02719 L 137.27768 57.71614 L 137.74176 58.41783 L 138.20586 59.13068 L 138.66996 59.85448 L 139.13404 60.5925 L 139.59812 61.34212 L 140.06221 62.10466 L 140.52629 62.87915 L 140.99037 63.66734 L 141.45449 64.46942 L 141.91857 65.28313 L 142.38265 66.112 L 142.84674 66.95538 L 143.31082 67.81186 L 143.7749 68.68349 L 144.23902 69.56932 L 144.7031 70.47032 L 145.16718 71.3857 L 145.63127 72.31673 L 146.09535 73.26535 L 146.55944 74.22865 L 147.02355 75.2076 L 147.48763 76.20432 L 147.9517 77.21748 L 148.4158 78.24648 L 148.87989 79.29433 L 149.34397 80.35963 L 149.80806 81.44171 L 150.27216 82.54349 L 150.73624 83.66333 L 151.20034 84.80222 L 151.66442 85.95837 L 152.1285 87.136 L 152.59259 88.33282 L 153.05669 89.55078 L 153.52077 90.78893 L 153.98487 92.04707 L 154.44895 93.32782 L 154.91303 94.63002 L 155.37712 95.95386 L 155.84122 97.29852 L 156.3053 98.66788 L 156.7694 100.05884 L 157.23348 101.47433 L 157.69756 102.91179 L 158.16165 104.37587 L 158.62574 105.86317 L 159.08985 107.37776 L 159.55393 108.91544 L 160.018 110.47974 L 160.4821 112.07066 L 160.94618 113.68709 L 161.41027 115.3337 L 161.87438 117.00627 L 162.33846 118.7063 L 162.80254 120.43585 L 163.26663 122.19574 L 163.73072 123.98259 L 164.1948 125.80333 L 164.65889 127.65102 L 165.12299 129.53163 L 165.58707 131.4421 L 166.05117 133.38565 L 166.4106 134.91777 "/>
<path transform="matrix(-.99951,.02954,.02954,.99951,28.40977,144.62563)" stroke-width="1" stroke-linecap="round" stroke-linejoin="round" fill="none" stroke="#000000" d="M -1.19551 1.59401 C -1.09587 .99626 0 .09961 .29886 0 C 0 -.09961 -1.09587 -.99626 -1.19551 -1.59401 "/>
<path transform="matrix(.22838,-.97353,-.97353,-.22838,166.60959,26.663239)" stroke-width="1" stroke-linecap="round" stroke-linejoin="round" fill="none" stroke="#000000" d="M -1.19551 1.59401 C -1.09587 .99626 0 .09961 .29886 0 C 0 -.09961 -1.09587 -.99626 -1.19551 -1.59401 "/>
<symbol id="font_3_3">
<path d="M .45700003 .586 C .461 .6 .461 .602 .461 .609 C .461 .62700006 .447 .63600006 .432 .63600006 C .42200003 .63600006 .40600003 .63 .397 .615 C .395 .61 .387 .579 .38300003 .561 C .37600003 .535 .36900003 .508 .363 .48100005 L .318 .301 C .314 .286 .271 .21600002 .20500002 .21600002 C .15400002 .21600002 .143 .26000003 .143 .29700003 C .143 .34300003 .16000001 .40500004 .194 .49300004 C .21000001 .53400006 .21400002 .545 .21400002 .56500008 C .21400002 .61 .18200001 .6470001 .13200002 .6470001 C .037 .6470001 0 .50200006 0 .49300004 C 0 .48300005 .01 .48300005 .012 .48300005 C .022000002 .48300005 .023 .485 .028000003 .50100007 C .055000009 .595 .095000009 .625 .12900001 .625 C .13700001 .625 .15400002 .625 .15400002 .59300008 C .15400002 .568 .14400001 .54200008 .13700001 .523 C .097 .41700004 .079 .36 .079 .31300003 C .079 .224 .142 .194 .201 .194 C .24000003 .194 .274 .21100001 .30200003 .23900002 C .289 .187 .277 .13800001 .237 .08500001 C .21100001 .051 .17300001 .022 .127 .022 C .113000009 .022 .068 .025000006 .051000008 .06400001 C .067 .06400001 .080000009 .06400001 .094000007 .076000008 C .104 .08500001 .11400001 .098000008 .11400001 .117000009 C .11400001 .148 .087000008 .15200001 .07700001 .15200001 C .054000006 .15200001 .021 .136 .021 .087000008 C .021 .037 .065000008 0 .127 0 C .23 0 .333 .091000009 .361 .20400001 L .45700003 .586 Z "/>
</symbol>
<use xlink:href="#font_3_3" transform="matrix(9.9626,0,0,-9.9626,161.87192,62.771329)"/>
<symbol id="font_1_9">
<path d="M .63100007 .19400002 C .646 .19400002 .665 .19400002 .665 .214 C .665 .23400001 .646 .23400001 .632 .23400001 L .033 .23400001 C .019000002 .23400001 0 .23400001 0 .214 C 0 .19400002 .019000002 .19400002 .034 .19400002 L .63100007 .19400002 M .632 0 C .646 0 .665 0 .665 .02000001 C .665 .040000008 .646 .040000008 .63100007 .040000008 L .034 .040000008 C .019000002 .040000008 0 .040000008 0 .02000001 C 0 0 .019000002 0 .033 0 L .632 0 Z "/>
</symbol>
<use xlink:href="#font_1_9" transform="matrix(9.9626,0,0,-9.9626,170.14992,59.40397)"/>
<symbol id="font_3_1">
<path d="M .141 .24200002 C .17 .24200002 .24400002 .24400002 .294 .26500003 C .36400003 .29500003 .36900003 .35400004 .36900003 .36800004 C .36900003 .41200004 .331 .45300005 .26200003 .45300005 C .15100001 .45300005 0 .35600005 0 .18100001 C 0 .079 .059 0 .157 0 C .3 0 .384 .106000009 .384 .11800001 C .384 .124000009 .37800003 .13100001 .372 .13100001 C .367 .13100001 .365 .12900001 .35900004 .12100001 C .28 .022000002 .171 .022000002 .15900001 .022000002 C .081 .022000002 .072000008 .106000009 .072000008 .13800001 C .072000008 .15000002 .073 .18100001 .088 .24200002 L .141 .24200002 M .094 .26400004 C .133 .41600005 .236 .43100003 .26200003 .43100003 C .30900003 .43100003 .33600004 .40200005 .33600004 .36800004 C .33600004 .26400004 .17600002 .26400004 .135 .26400004 L .094 .26400004 Z "/>
</symbol>
<use xlink:href="#font_3_1" transform="matrix(9.9626,0,0,-9.9626,180.5663,60.838586)"/>
<symbol id="font_4_1">
<path d="M .201 .116000007 C .19100002 .082 .15800002 .028 .107 .028 C .10400001 .028 .07400001 .028 .053000004 .042000005 C .094000007 .055000005 .09700001 .091 .09700001 .097 C .09700001 .119 .080000009 .134 .057000005 .134 C .029000007 .134 0 .11 0 .073 C 0 .023000002 .056 0 .10500001 0 C .15100003 0 .192 .029000003 .21700001 .071 C .241 .018000002 .296 0 .336 0 C .451 0 .512 .125 .512 .15300001 C .512 .16600001 .49900005 .16600001 .49600003 .16600001 C .48200003 .16600001 .48100005 .16100002 .47700004 .14900002 C .456 .08 .39600004 .028 .34 .028 C .3 .028 .279 .055000005 .279 .093 C .279 .119 .303 .21000001 .331 .321 C .351 .398 .39600004 .423 .42900003 .423 C .43100003 .423 .46200005 .423 .483 .409 C .451 .4 .439 .372 .439 .354 C .439 .33200003 .456 .317 .479 .317 C .50200006 .317 .535 .336 .535 .37800003 C .535 .43400003 .47100006 .451 .43100003 .451 C .381 .451 .34100003 .418 .319 .38 C .301 .421 .255 .451 .199 .451 C .087000008 .451 .023000002 .328 .023000002 .298 C .023000002 .285 .037 .285 .040000008 .285 C .053000004 .285 .054000006 .289 .059000009 .30200003 C .084 .38 .14700002 .423 .19600001 .423 C .229 .423 .256 .405 .256 .357 C .256 .337 .24400002 .287 .23500002 .25300003 L .201 .116000007 Z "/>
</symbol>
<use xlink:href="#font_4_1" transform="matrix(6.9738,0,0,-6.9738,185.08177,56.684736)"/>
</g>
<symbol id="font_3_2">
<path d="M .305 .31300003 C .311 .33900003 .334 .43100003 .404 .43100003 C .409 .43100003 .433 .43100003 .454 .418 C .426 .41300003 .40600003 .388 .40600003 .36400003 C .40600003 .34800003 .417 .32900004 .444 .32900004 C .46600003 .32900004 .498 .34700004 .498 .38700003 C .498 .43900005 .439 .45300005 .405 .45300005 C .347 .45300005 .312 .40000005 .3 .37700004 C .275 .44300003 .221 .45300005 .19200002 .45300005 C .08800001 .45300005 .031000002 .32400004 .031000002 .29900003 C .031000002 .28900004 .041 .28900004 .043000007 .28900004 C .051000008 .28900004 .054000006 .291 .056 .3 C .09 .40600003 .156 .43100003 .19000001 .43100003 C .209 .43100003 .244 .42200003 .244 .36400003 C .244 .33300004 .22700002 .26600004 .19000001 .126 C .17400001 .064 .13900002 .022000002 .095000009 .022000002 C .08900001 .022000002 .06600001 .022000002 .045 .035 C .07000001 .040000004 .09200001 .061 .09200001 .089 C .09200001 .116000007 .07000001 .124000009 .055000009 .124000009 C .025 .124000009 0 .098000008 0 .06600001 C 0 .020000002 .050000006 0 .094000007 0 C .16000001 0 .19600001 .07000001 .19900002 .076000008 C .21100001 .039 .24700003 0 .307 0 C .41 0 .467 .12900001 .467 .15400002 C .467 .16400002 .458 .16400002 .455 .16400002 C .446 .16400002 .444 .16000001 .442 .15300001 C .409 .046 .341 .022000002 .30900003 .022000002 C .27 .022000002 .254 .054 .254 .08800001 C .254 .11000001 .26 .13200002 .271 .17600002 L .305 .31300003 Z "/>
</symbol>
<use xlink:href="#font_3_2" transform="matrix(9.9626,0,0,-9.9626,185.57592,142.02959)"/>
<use xlink:href="#font_3_3" transform="matrix(9.9626,0,0,-9.9626,115.041919,10.027334)"/>
</svg>
