<?xml version="1.0" encoding="UTF-8" standalone="no"?>
<!DOCTYPE svg PUBLIC "-//W3C//DTD SVG 1.1//EN" "http://www.w3.org/Graphics/SVG/1.1/DTD/svg11.dtd">
<svg xmlns="http://www.w3.org/2000/svg" xmlns:xlink="http://www.w3.org/1999/xlink" version="1.1" width="194.665pt" height="165.373pt" viewBox="0 0 194.665 165.373">
<path transform="matrix(1,0,0,-1,.199,163.174)" stroke-width="1" stroke-linecap="butt" stroke-miterlimit="10" stroke-linejoin="miter" fill="none" stroke="#808080" d="M 24.28363 78.56995 L 24.28363 82.82182 M 48.56728 78.56995 L 48.56728 82.82182 M 72.8509 78.56995 L 72.8509 82.82182 M 121.4182 78.56995 L 121.4182 82.82182 M 145.70183 78.56995 L 145.70183 82.82182 M 169.98548 78.56995 L 169.98548 82.82182 "/>
<path transform="matrix(1,0,0,-1,.199,163.174)" stroke-width="1" stroke-linecap="butt" stroke-miterlimit="10" stroke-linejoin="miter" fill="none" stroke="#808080" d="M 95.0086 4.74681 L 99.26048 4.74681 M 95.0086 14.24045 L 99.26048 14.24045 M 95.0086 23.73409 L 99.26048 23.73409 M 95.0086 33.22772 L 99.26048 33.22772 M 95.0086 42.72136 L 99.26048 42.72136 M 95.0086 52.21498 L 99.26048 52.21498 M 95.0086 61.70862 L 99.26048 61.70862 M 95.0086 71.20226 L 99.26048 71.20226 M 95.0086 90.18953 L 99.26048 90.18953 M 95.0086 99.68317 L 99.26048 99.68317 M 95.0086 109.1768 L 99.26048 109.1768 M 95.0086 118.67044 L 99.26048 118.67044 M 95.0086 128.16408 L 99.26048 128.16408 M 95.0086 137.6577 L 99.26048 137.6577 M 95.0086 147.15134 L 99.26048 147.15134 M 95.0086 156.64498 L 99.26048 156.64498 "/>
<path transform="matrix(1,0,0,-1,.199,163.174)" stroke-width="1" stroke-linecap="butt" stroke-miterlimit="10" stroke-linejoin="miter" fill="none" stroke="#000000" d="M 0 80.69589 L 192.2766 80.69589 "/>
<path transform="matrix(1,0,0,-1,192.4756,82.4781)" d="M 1.99252 0 L -1.19551 1.59401 L 0 0 L -1.19551 -1.59401 "/>
<path transform="matrix(1,0,0,-1,.199,163.174)" stroke-width="1" stroke-linecap="butt" stroke-miterlimit="10" stroke-linejoin="miter" fill="none" stroke="#000000" d="M 97.13455 0 L 97.13455 159.39928 "/>
<path transform="matrix(0,-1,-1,-0,97.33355,3.7747193)" d="M 1.99252 0 L -1.19551 1.59401 L 0 0 L -1.19551 -1.59401 "/>
<symbol id="font_0_1">
<path d="M .57600006 0 C .59300008 0 .611 0 .611 .019999996 C .611 .040000008 .59300008 .040000008 .57600006 .040000008 L .035000005 .040000008 C .018 .040000008 0 .040000008 0 .019999996 C 0 0 .018 0 .035000005 0 L .57600006 0 Z "/>
</symbol>
<use xlink:href="#font_0_1" transform="matrix(9.9626,0,0,-9.9626,18.944897,92.2536)"/>
<symbol id="font_1_3">
<path d="M .24800003 .37400005 C .33 .40100003 .388 .47100006 .388 .55 C .388 .632 .3 .688 .204 .688 C .10300001 .688 .027000003 .628 .027000003 .55200007 C .027000003 .519 .049000004 .5 .078 .5 C .109000008 .5 .12900001 .522 .12900001 .55100008 C .12900001 .6010001 .082 .6010001 .067 .6010001 C .098 .65000006 .164 .66300007 .20000002 .66300007 C .24100003 .66300007 .29600004 .64100006 .29600004 .55100008 C .29600004 .53900006 .29400004 .48100005 .268 .43700005 C .238 .38900004 .204 .38600005 .17900002 .38500003 C .171 .38400004 .14700002 .38200004 .14000002 .38200004 C .132 .38100005 .125 .38000003 .125 .37000004 C .125 .35900004 .132 .35900004 .14900002 .35900004 L .19300002 .35900004 C .275 .35900004 .312 .29100005 .312 .193 C .312 .057000005 .24300003 .028 .199 .028 C .15600002 .028 .081 .045 .046000005 .104 C .081 .09900001 .11200001 .12100001 .11200001 .15900001 C .11200001 .19500001 .085 .215 .056 .215 C .031999999 .215 0 .201 0 .157 C 0 .06600001 .093 0 .20200002 0 C .32400004 0 .41500003 .091000009 .41500003 .193 C .41500003 .27500005 .35200004 .35300005 .24800003 .37400005 Z "/>
</symbol>
<use xlink:href="#font_1_3" transform="matrix(9.9626,0,0,-9.9626,26.28443,94.764179)"/>
<use xlink:href="#font_0_1" transform="matrix(9.9626,0,0,-9.9626,43.227899,92.2536)"/>
<symbol id="font_1_2">
<path d="M .07700001 .07700001 L .18300002 .18 C .33900003 .31800003 .39900003 .372 .39900003 .47200004 C .39900003 .586 .30900003 .666 .18700002 .666 C .074 .666 0 .574 0 .485 C 0 .42900003 .05 .42900003 .053000008 .42900003 C .07000001 .42900003 .105000007 .441 .105000007 .48200003 C .105000007 .508 .08700001 .53400006 .052000006 .53400006 C .044000005 .53400006 .042000008 .53400006 .039 .53300008 C .062000004 .59800007 .11600001 .63500007 .17400001 .63500007 C .26500003 .63500007 .308 .554 .308 .47200004 C .308 .39200003 .25800003 .31300003 .20300003 .25100003 L .011000004 .037 C 0 .026 0 .024 0 0 L .37100003 0 L .39900003 .17400001 L .374 .17400001 C .36900003 .14400001 .36200003 .1 .352 .085 C .345 .07700001 .279 .07700001 .257 .07700001 L .07700001 .07700001 Z "/>
</symbol>
<use xlink:href="#font_1_2" transform="matrix(9.9626,0,0,-9.9626,50.648134,94.545)"/>
<use xlink:href="#font_0_1" transform="matrix(9.9626,0,0,-9.9626,67.510898,92.2536)"/>
<symbol id="font_1_1">
<path d="M .205 .64000007 C .205 .66400006 .205 .666 .18200003 .666 C .120000008 .60200008 .032000007 .60200008 0 .60200008 L 0 .57100006 C .020000004 .57100006 .07900001 .57100006 .13100001 .597 L .13100001 .079 C .13100001 .043 .128 .031000002 .038000004 .031000002 L .0060000049 .031000002 L .0060000049 0 C .04100001 .003 .128 .003 .168 .003 C .20800002 .003 .29500003 .003 .33000005 0 L .33000005 .031000002 L .29800005 .031000002 C .20800002 .031000002 .205 .042000005 .205 .079 L .205 .64000007 Z "/>
</symbol>
<use xlink:href="#font_1_1" transform="matrix(9.9626,0,0,-9.9626,75.31967,94.545)"/>
<use xlink:href="#font_1_1" transform="matrix(9.9626,0,0,-9.9626,120.01167,94.545)"/>
<use xlink:href="#font_1_2" transform="matrix(9.9626,0,0,-9.9626,143.90714,94.545)"/>
<use xlink:href="#font_1_3" transform="matrix(9.9626,0,0,-9.9626,168.11043,94.764179)"/>
<use xlink:href="#font_0_1" transform="matrix(9.9626,0,0,-9.9626,79.7839,158.9306)"/>
<symbol id="font_1_8">
<path d="M .121 .47900004 C .075 .509 .071 .54300007 .071 .56000009 C .071 .62100008 .136 .66300007 .20700002 .66300007 C .28000004 .66300007 .344 .61100009 .344 .53900006 C .344 .48200003 .305 .43400005 .245 .39900003 L .121 .47900004 M .26700003 .38400004 C .33900003 .42100004 .388 .47300006 .388 .53900006 C .388 .63100007 .29900003 .688 .208 .688 C .108 .688 .027000003 .614 .027000003 .521 C .027000003 .503 .029 .45800004 .071 .41100005 C .082 .39900003 .11900001 .37400005 .144 .35700003 C .086 .32800005 0 .272 0 .17300001 C 0 .067 .102000009 0 .20700002 0 C .32000003 0 .41500003 .083000008 .41500003 .19000001 C .41500003 .22600001 .404 .27100004 .36600004 .31300003 C .34700004 .33400003 .33100004 .34400005 .26700003 .38400004 M .167 .34200005 L .29000003 .26400004 C .31800003 .245 .365 .215 .365 .154 C .365 .080000009 .29000003 .028 .208 .028 C .122 .028 .050000006 .09 .050000006 .17300001 C .050000006 .231 .082 .29500003 .167 .34200005 Z "/>
</symbol>
<use xlink:href="#font_1_8" transform="matrix(9.9626,0,0,-9.9626,87.12443,161.44118)"/>
<use xlink:href="#font_0_1" transform="matrix(9.9626,0,0,-9.9626,79.7839,149.4376)"/>
<symbol id="font_1_7">
<path d="M .42000003 .63100007 C .42900003 .64300009 .42900003 .64500007 .42900003 .66600009 L .18600002 .66600009 C .064 .66600009 .062000008 .679 .058000007 .6980001 L .033 .6980001 L 0 .49200005 L .024999999 .49200005 C .028000005 .508 .037 .57100006 .050000006 .58300009 C .057000005 .58900007 .13500002 .58900007 .148 .58900007 L .35500003 .58900007 C .344 .573 .26500003 .46400006 .24300003 .43100003 C .153 .29600004 .12000001 .157 .12000001 .055 C .12000001 .045 .12000001 0 .16600001 0 C .21200001 0 .21200001 .045 .21200001 .055 L .21200001 .106000009 C .21200001 .16100002 .21500004 .216 .22300002 .27 C .22700003 .29300005 .24100003 .37900005 .28500004 .44100005 L .42000003 .63100007 Z "/>
</symbol>
<use xlink:href="#font_1_7" transform="matrix(9.9626,0,0,-9.9626,87.26391,151.94818)"/>
<use xlink:href="#font_0_1" transform="matrix(9.9626,0,0,-9.9626,79.7839,139.9436)"/>
<symbol id="font_1_6">
<path d="M .089999999 .35000003 L .089999999 .37400005 C .089999999 .62700006 .21400002 .66300007 .26500003 .66300007 C .28900004 .66300007 .33100004 .65700009 .35300002 .623 C .33800004 .623 .298 .623 .298 .57800009 C .298 .54700008 .32200004 .53200009 .344 .53200009 C .36 .53200009 .39000003 .54100009 .39000003 .58000007 C .39000003 .64000007 .34600003 .688 .263 .688 C .13499999 .688 0 .559 0 .33800004 C 0 .071 .116000007 0 .20900002 0 C .32000003 0 .41500003 .094000007 .41500003 .22600001 C .41500003 .35300005 .32600004 .44900004 .215 .44900004 C .14700002 .44900004 .11000001 .39800004 .089999999 .35000003 M .20900002 .028 C .146 .028 .116000007 .088 .11000001 .103 C .092 .15 .092 .23 .092 .24800001 C .092 .32600004 .124000009 .42600004 .21400002 .42600004 C .23000002 .42600004 .27600003 .42600004 .307 .36400003 C .32500003 .32700003 .32500003 .27600003 .32500003 .22700002 C .32500003 .179 .32500003 .12900001 .30800004 .093 C .27800004 .033000005 .23200003 .028 .20900002 .028 Z "/>
</symbol>
<use xlink:href="#font_1_6" transform="matrix(9.9626,0,0,-9.9626,87.12443,142.45418)"/>
<use xlink:href="#font_0_1" transform="matrix(9.9626,0,0,-9.9626,79.7839,130.4506)"/>
<symbol id="font_1_5">
<path d="M .39900003 .223 C .39900003 .34200005 .317 .44200004 .209 .44200004 C .16100002 .44200004 .118000019 .42600004 .082 .39100004 L .082 .586 C .10200001 .58000007 .135 .573 .16700001 .573 C .29 .573 .36 .66400006 .36 .67700007 C .36 .683 .357 .688 .35 .688 C .349 .688 .347 .688 .342 .68500009 C .322 .67600008 .273 .656 .20600002 .656 C .16600001 .656 .120000008 .66300007 .073 .6840001 C .065 .68700006 .06300001 .68700006 .061000009 .68700006 C .051000004 .68700006 .051000004 .679 .051000004 .66300007 L .051000004 .36700005 C .051000004 .34900005 .051000004 .34100003 .065 .34100003 C .07200001 .34100003 .074 .34400005 .07800001 .35000003 C .08900002 .36600004 .12600002 .42000006 .207 .42000006 C .259 .42000006 .284 .37400005 .292 .35600005 C .308 .31900005 .31 .28000004 .31 .23 C .31 .19500001 .31 .135 .286 .093 C .262 .054000006 .22500001 .028 .17900002 .028 C .106000009 .028 .049000008 .08100001 .032 .14000002 C .035 .13900002 .038000008 .13800001 .049000008 .13800001 C .082 .13800001 .09900001 .163 .09900001 .187 C .09900001 .21100001 .082 .23600002 .049000008 .23600002 C .035 .23600002 0 .22900002 0 .18300002 C 0 .097 .069000009 0 .18100001 0 C .297 0 .39900003 .096 .39900003 .223 Z "/>
</symbol>
<use xlink:href="#font_1_5" transform="matrix(9.9626,0,0,-9.9626,87.20413,132.96118)"/>
<use xlink:href="#font_0_1" transform="matrix(9.9626,0,0,-9.9626,79.7839,120.956607)"/>
<symbol id="font_1_4">
<path d="M .266 .165 L .266 .078 C .266 .042000005 .26400004 .031000002 .19000001 .031000002 L .16900002 .031000002 L .16900002 0 C .21000001 .003 .26200003 .003 .30400003 .003 C .34600003 .003 .39900003 .003 .44000004 0 L .44000004 .031000002 L .41900004 .031000002 C .34500004 .031000002 .34300003 .042000005 .34300003 .078 L .34300003 .165 L .44300003 .165 L .44300003 .19600001 L .34300003 .19600001 L .34300003 .651 C .34300003 .671 .34300003 .67700007 .32700003 .67700007 C .31800003 .67700007 .31500004 .67700007 .307 .665 L 0 .19600001 L 0 .165 L .266 .165 M .272 .19600001 L .028 .19600001 L .272 .569 L .272 .19600001 Z "/>
</symbol>
<use xlink:href="#font_1_4" transform="matrix(9.9626,0,0,-9.9626,86.984958,123.248)"/>
<use xlink:href="#font_0_1" transform="matrix(9.9626,0,0,-9.9626,79.7839,111.46361)"/>
<use xlink:href="#font_1_3" transform="matrix(9.9626,0,0,-9.9626,87.12443,113.97418)"/>
<use xlink:href="#font_0_1" transform="matrix(9.9626,0,0,-9.9626,79.7839,101.969608)"/>
<use xlink:href="#font_1_2" transform="matrix(9.9626,0,0,-9.9626,87.20413,104.261)"/>
<use xlink:href="#font_0_1" transform="matrix(9.9626,0,0,-9.9626,79.7839,92.4766)"/>
<use xlink:href="#font_1_1" transform="matrix(9.9626,0,0,-9.9626,87.592678,94.768)"/>
<use xlink:href="#font_1_1" transform="matrix(9.9626,0,0,-9.9626,87.592678,76.196)"/>
<use xlink:href="#font_1_2" transform="matrix(9.9626,0,0,-9.9626,87.20413,66.70199)"/>
<use xlink:href="#font_1_3" transform="matrix(9.9626,0,0,-9.9626,87.12443,57.428178)"/>
<use xlink:href="#font_1_4" transform="matrix(9.9626,0,0,-9.9626,86.984958,47.71499)"/>
<use xlink:href="#font_1_5" transform="matrix(9.9626,0,0,-9.9626,87.20413,38.441164)"/>
<use xlink:href="#font_1_6" transform="matrix(9.9626,0,0,-9.9626,87.12443,28.947175)"/>
<use xlink:href="#font_1_7" transform="matrix(9.9626,0,0,-9.9626,87.26391,19.454178)"/>
<use xlink:href="#font_1_8" transform="matrix(9.9626,0,0,-9.9626,87.12443,9.960175)"/>
<clipPath id="cp2">
<path transform="matrix(1,0,0,-1,.199,163.174)" d="M 0 0 L 194.26912 0 L 194.26912 161.3918 L 0 161.3918 Z "/>
</clipPath>
<g clip-path="url(#cp2)">
<path transform="matrix(1,0,0,-1,.199,163.174)" stroke-width="1" stroke-linecap="butt" stroke-miterlimit="10" stroke-linejoin="miter" fill="none" stroke="#000000" d="M 48.66336 5.19487 L 48.89212 6.26064 L 49.217 7.75421 L 49.54184 9.22781 L 49.86671 10.68135 L 50.19156 12.11496 L 50.51642 13.5289 L 50.84128 14.92328 L 51.16614 16.29837 L 51.491 17.654 L 51.81586 18.9905 L 52.14072 20.30794 L 52.46558 21.60649 L 52.79042 22.88646 L 53.1153 24.14764 L 53.44014 25.39038 L 53.76501 26.61475 L 54.08986 27.82094 L 54.41473 29.00919 L 54.73958 30.17934 L 55.06445 31.33171 L 55.3893 32.46643 L 55.71416 33.5836 L 56.03902 34.68355 L 56.36388 35.7661 L 56.68874 36.83154 L 57.0136 37.88 L 57.33846 38.91162 L 57.66331 39.92664 L 57.98817 40.92497 L 58.31303 41.90689 L 58.63788 42.8725 L 58.96275 43.82196 L 59.2876 44.75548 L 59.61247 45.67305 L 59.93733 46.57483 L 60.26219 47.461 L 60.58705 48.3317 L 60.9119 49.18715 L 61.23677 50.0273 L 61.56161 50.85237 L 61.88649 51.66252 L 62.21133 52.45789 L 62.53621 53.23866 L 62.86105 54.00482 L 63.18593 54.7566 L 63.51077 55.49414 L 63.83563 56.21754 L 64.16049 56.92706 L 64.48535 57.62267 L 64.81021 58.30455 L 65.13507 58.97285 L 65.45993 59.62776 L 65.78479 60.26942 L 66.10963 60.89786 L 66.43451 61.51326 L 66.75935 62.11578 L 67.08423 62.70555 L 67.40907 63.28278 L 67.73395 63.84746 L 68.05879 64.39978 L 68.38367 64.93991 L 68.70851 65.46799 L 69.03337 65.98416 L 69.35823 66.4885 L 69.68309 66.98117 L 70.00795 67.46231 L 70.33281 67.93207 L 70.65768 68.39063 L 70.98253 68.83803 L 71.30739 69.27443 L 71.63225 69.70003 L 71.9571 70.1149 L 72.28197 70.51924 L 72.60683 70.9131 L 72.93169 71.29668 L 73.25655 71.6701 L 73.5814 72.0335 L 73.90627 72.38701 L 74.23111 72.73076 L 74.55598 73.06491 L 74.88083 73.38957 L 75.2057 73.7049 L 75.53055 74.011 L 75.85542 74.30807 L 76.18027 74.59618 L 76.50513 74.8755 L 76.82999 75.14615 L 77.15485 75.4083 L 77.4797 75.66205 L 77.80457 75.90755 L 78.12943 76.14493 L 78.45428 76.37434 L 78.77914 76.59589 L 79.104 76.80975 L 79.42885 77.01604 L 79.75372 77.2149 L 80.07857 77.40646 L 80.40344 77.59087 L 80.72829 77.76823 L 81.05316 77.93872 L 81.37802 78.10246 L 81.70287 78.2596 L 82.02774 78.41023 L 82.35258 78.55455 L 82.67746 78.69264 L 83.0023 78.82466 L 83.32718 78.95078 L 83.65202 79.07108 L 83.9769 79.18571 L 84.30174 79.29483 L 84.6266 79.39856 L 84.95146 79.49704 L 85.27632 79.59041 L 85.60118 79.67879 L 85.92604 79.76234 L 86.2509 79.84117 L 86.57576 79.91545 L 86.90062 79.98529 L 87.22548 80.05084 L 87.55032 80.11223 L 87.8752 80.16959 L 88.20004 80.22307 L 88.52492 80.27278 L 88.84976 80.3189 L 89.17464 80.36153 L 89.49948 80.4008 L 89.82434 80.4369 L 90.1492 80.46991 L 90.47406 80.5 L 90.79892 80.52728 L 91.12378 80.55191 L 91.44864 80.57402 L 91.7735 80.59373 L 92.09836 80.6112 L 92.42322 80.62656 L 92.74808 80.63994 L 93.07294 80.65146 L 93.3978 80.6613 L 93.72266 80.66956 L 94.04752 80.67639 L 94.37238 80.68192 L 94.69724 80.68628 L 95.02208 80.68964 L 95.34695 80.6921 L 95.6718 80.69382 L 95.99667 80.6949 L 96.32152 80.69553 L 96.6464 80.6958 L 96.97124 80.69588 L 97.29611 80.69589 L 97.62096 80.69597 L 97.94582 80.69624 L 98.27069 80.69685 L 98.59554 80.69795 L 98.92041 80.69966 L 99.24525 80.70213 L 99.57013 80.70547 L 99.89497 80.70984 L 100.21983 80.71535 L 100.5447 80.72218 L 100.86955 80.73044 L 101.19441 80.74025 L 101.51927 80.75177 L 101.84413 80.76514 L 102.16899 80.78047 L 102.49385 80.79793 L 102.81871 80.81764 L 103.14355 80.83974 L 103.46843 80.86435 L 103.79327 80.89162 L 104.11815 80.92169 L 104.443 80.9547 L 104.76787 80.99075 L 105.09271 81.03003 L 105.41757 81.07265 L 105.74243 81.11874 L 106.06729 81.16843 L 106.39215 81.22188 L 106.71701 81.27922 L 107.04187 81.34059 L 107.36673 81.40611 L 107.69159 81.47592 L 108.01645 81.55019 L 108.3413 81.629 L 108.66617 81.71251 L 108.99103 81.80087 L 109.31589 81.89423 L 109.64075 81.99268 L 109.9656 82.09637 L 110.29047 82.20546 L 110.61531 82.32007 L 110.94019 82.44034 L 111.26503 82.5664 L 111.5899 82.69841 L 111.91475 82.83647 L 112.23962 82.98076 L 112.56447 83.13136 L 112.88934 83.28844 L 113.21419 83.45215 L 113.53905 83.6226 L 113.8639 83.79994 L 114.18877 83.98431 L 114.51363 84.17583 L 114.83849 84.37463 L 115.16335 84.5809 L 115.4882 84.79471 L 115.81306 85.01624 L 116.13792 85.24559 L 116.46277 85.48294 L 116.78764 85.7284 L 117.11249 85.98209 L 117.43736 86.24419 L 117.7622 86.5148 L 118.08708 86.79408 L 118.41193 87.08214 L 118.73679 87.37914 L 119.06165 87.68521 L 119.3865 88.00047 L 119.71138 88.3251 L 120.03622 88.6592 L 120.3611 89.0029 L 120.68594 89.35635 L 121.01082 89.7197 L 121.33566 90.09306 L 121.66052 90.47658 L 121.98538 90.8704 L 122.31024 91.27467 L 122.6351 91.68951 L 122.95996 92.11502 L 123.28482 92.55138 L 123.60968 92.9987 L 123.93452 93.45721 L 124.2594 93.92691 L 124.58424 94.408 L 124.90912 94.90062 L 125.23396 95.40488 L 125.55884 95.92094 L 125.88368 96.44899 L 126.20856 96.98907 L 126.5334 97.54132 L 126.85826 98.10594 L 127.18312 98.68303 L 127.50798 99.27278 L 127.83284 99.87524 L 128.1577 100.49059 L 128.48256 101.11893 L 128.80742 101.76053 L 129.13227 102.41536 L 129.45714 103.0836 L 129.78199 103.76543 L 130.10686 104.46094 L 130.4317 105.1703 L 130.75658 105.89372 L 131.08144 106.63116 L 131.4063 107.38287 L 131.73116 108.14897 L 132.056 108.92958 L 132.38088 109.72495 L 132.70572 110.535 L 133.0306 111.36 L 133.35544 112.20006 L 133.68032 113.05545 L 134.00516 113.92607 L 134.33002 114.81216 L 134.65488 115.71387 L 134.97974 116.63132 L 135.3046 117.56477 L 135.62946 118.51413 L 135.95432 119.47968 L 136.27918 120.46149 L 136.60404 121.45975 L 136.9289 122.47456 L 137.25374 123.5062 L 137.57862 124.55457 L 137.90346 125.61992 L 138.22834 126.7024 L 138.55318 127.8021 L 138.87805 128.91931 L 139.2029 130.05394 L 139.52776 131.20623 L 139.85262 132.37628 L 140.17748 133.56443 L 140.50234 134.77051 L 140.8272 135.9948 L 141.15206 137.2374 L 141.47692 138.49852 L 141.80179 139.77822 L 142.12664 141.07683 L 142.45149 142.39418 L 142.77635 143.73055 L 143.10121 145.08608 L 143.42607 146.46092 L 143.75093 147.85535 L 144.07579 149.26917 L 144.40065 150.70273 L 144.72551 152.15608 L 145.05037 153.62963 L 145.37522 155.12306 L 145.60399 156.18874 "/>
<path transform="matrix(-.2097,.97774,.97774,.2097,48.862363,157.97911)" stroke-width="1" stroke-linecap="round" stroke-linejoin="round" fill="none" stroke="#000000" d="M -1.19551 1.59401 C -1.09587 .99626 0 .09961 .29886 0 C 0 -.09961 -1.09587 -.99626 -1.19551 -1.59401 "/>
<path transform="matrix(.2097,-.97774,-.97774,-.2097,145.803,6.9852755)" stroke-width="1" stroke-linecap="round" stroke-linejoin="round" fill="none" stroke="#000000" d="M -1.19551 1.59401 C -1.09587 .99626 0 .09961 .29886 0 C 0 -.09961 -1.09587 -.99626 -1.19551 -1.59401 "/>
<symbol id="font_3_2">
<path d="M .45700003 .586 C .461 .6 .461 .602 .461 .609 C .461 .62700006 .447 .63600006 .432 .63600006 C .42200003 .63600006 .40600003 .63 .397 .615 C .395 .61 .387 .579 .38300003 .561 C .37600003 .535 .36900003 .508 .363 .48100005 L .318 .301 C .314 .286 .271 .21600002 .20500002 .21600002 C .15400002 .21600002 .143 .26000003 .143 .29700003 C .143 .34300003 .16000001 .40500004 .194 .49300004 C .21000001 .53400006 .21400002 .545 .21400002 .56500008 C .21400002 .61 .18200001 .6470001 .13200002 .6470001 C .037 .6470001 0 .50200006 0 .49300004 C 0 .48300005 .01 .48300005 .012 .48300005 C .022000002 .48300005 .023 .485 .028000003 .50100007 C .055000009 .595 .095000009 .625 .12900001 .625 C .13700001 .625 .15400002 .625 .15400002 .59300008 C .15400002 .568 .14400001 .54200008 .13700001 .523 C .097 .41700004 .079 .36 .079 .31300003 C .079 .224 .142 .194 .201 .194 C .24000003 .194 .274 .21100001 .30200003 .23900002 C .289 .187 .277 .13800001 .237 .08500001 C .21100001 .051 .17300001 .022 .127 .022 C .113000009 .022 .068 .025000006 .051000008 .06400001 C .067 .06400001 .080000009 .06400001 .094000007 .076000008 C .104 .08500001 .11400001 .098000008 .11400001 .117000009 C .11400001 .148 .087000008 .15200001 .07700001 .15200001 C .054000006 .15200001 .021 .136 .021 .087000008 C .021 .037 .065000008 0 .127 0 C .23 0 .333 .091000009 .361 .20400001 L .45700003 .586 Z "/>
</symbol>
<use xlink:href="#font_3_2" transform="matrix(9.9626,0,0,-9.9626,141.42192,35.733327)"/>
<symbol id="font_1_9">
<path d="M .63100007 .19400002 C .646 .19400002 .665 .19400002 .665 .214 C .665 .23400001 .646 .23400001 .632 .23400001 L .033 .23400001 C .019000002 .23400001 0 .23400001 0 .214 C 0 .19400002 .019000002 .19400002 .034 .19400002 L .63100007 .19400002 M .632 0 C .646 0 .665 0 .665 .02000001 C .665 .040000008 .646 .040000008 .63100007 .040000008 L .034 .040000008 C .019000002 .040000008 0 .040000008 0 .02000001 C 0 0 .019000002 0 .033 0 L .632 0 Z "/>
</symbol>
<use xlink:href="#font_1_9" transform="matrix(9.9626,0,0,-9.9626,149.69992,32.365968)"/>
<symbol id="font_3_1">
<path d="M .305 .31300003 C .311 .33900003 .334 .43100003 .404 .43100003 C .409 .43100003 .433 .43100003 .454 .418 C .426 .41300003 .40600003 .388 .40600003 .36400003 C .40600003 .34800003 .417 .32900004 .444 .32900004 C .46600003 .32900004 .498 .34700004 .498 .38700003 C .498 .43900005 .439 .45300005 .405 .45300005 C .347 .45300005 .312 .40000005 .3 .37700004 C .275 .44300003 .221 .45300005 .19200002 .45300005 C .08800001 .45300005 .031000002 .32400004 .031000002 .29900003 C .031000002 .28900004 .041 .28900004 .043000007 .28900004 C .051000008 .28900004 .054000006 .291 .056 .3 C .09 .40600003 .156 .43100003 .19000001 .43100003 C .209 .43100003 .244 .42200003 .244 .36400003 C .244 .33300004 .22700002 .26600004 .19000001 .126 C .17400001 .064 .13900002 .022000002 .095000009 .022000002 C .08900001 .022000002 .06600001 .022000002 .045 .035 C .07000001 .040000004 .09200001 .061 .09200001 .089 C .09200001 .116000007 .07000001 .124000009 .055000009 .124000009 C .025 .124000009 0 .098000008 0 .06600001 C 0 .020000002 .050000006 0 .094000007 0 C .16000001 0 .19600001 .07000001 .19900002 .076000008 C .21100001 .039 .24700003 0 .307 0 C .41 0 .467 .12900001 .467 .15400002 C .467 .16400002 .458 .16400002 .455 .16400002 C .446 .16400002 .444 .16000001 .442 .15300001 C .409 .046 .341 .022000002 .30900003 .022000002 C .27 .022000002 .254 .054 .254 .08800001 C .254 .11000001 .26 .13200002 .271 .17600002 L .305 .31300003 Z "/>
</symbol>
<use xlink:href="#font_3_1" transform="matrix(9.9626,0,0,-9.9626,159.94693,33.800584)"/>
<symbol id="font_4_1">
<path d="M .219 .35400004 C .29700003 .35400004 .35300002 .3 .35300002 .193 C .35300002 .069000009 .28100003 .032 .223 .032 C .18300002 .032 .095 .043000007 .053000008 .102000009 C .10000001 .10400001 .111 .13700001 .111 .158 C .111 .19 .087 .213 .056000007 .213 C .028 .213 0 .19600001 0 .155 C 0 .061000006 .104 0 .22500001 0 C .36400003 0 .46 .09300001 .46 .193 C .46 .27100004 .39600004 .34900005 .286 .37200005 C .39100004 .41000004 .42900003 .48500005 .42900003 .546 C .42900003 .625 .33800004 .684 .22700002 .684 C .116 .684 .031 .63 .031 .55 C .031 .51600006 .053000008 .49700005 .083000008 .49700005 C .11400001 .49700005 .134 .52 .134 .548 C .134 .577 .11400001 .598 .083000008 .6 C .118 .644 .187 .65500006 .22400002 .65500006 C .26900003 .65500006 .33200003 .633 .33200003 .546 C .33200003 .504 .31800003 .45800004 .29200004 .42700003 C .25900004 .38900004 .23100002 .38700003 .18100001 .38400004 C .156 .38200004 .154 .38200004 .149 .38100005 C .147 .38100005 .139 .37900005 .139 .36800004 C .139 .35400004 .148 .35400004 .165 .35400004 L .219 .35400004 Z "/>
</symbol>
<use xlink:href="#font_4_1" transform="matrix(6.9738,0,0,-6.9738,165.7286,29.717465)"/>
</g>
<use xlink:href="#font_3_1" transform="matrix(9.9626,0,0,-9.9626,185.58391,79.051578)"/>
<use xlink:href="#font_3_2" transform="matrix(9.9626,0,0,-9.9626,101.15691,11.612326)"/>
</svg>
