<?xml version="1.0" encoding="UTF-8" standalone="no"?>
<!DOCTYPE svg PUBLIC "-//W3C//DTD SVG 1.1//EN" "http://www.w3.org/Graphics/SVG/1.1/DTD/svg11.dtd">
<svg xmlns="http://www.w3.org/2000/svg" xmlns:xlink="http://www.w3.org/1999/xlink" version="1.1" width="204.156pt" height="161.793pt" viewBox="0 0 204.156 161.793">
<path transform="matrix(1,0,0,-1,9.686,220.256)" stroke-width="1" stroke-linecap="butt" stroke-miterlimit="10" stroke-linejoin="miter" fill="none" stroke="#808080" d="M 0 137.23473 L 0 141.48668 M 35.3224 137.23473 L 35.3224 141.48668 M 52.9836 137.23473 L 52.9836 141.48668 M 70.6448 137.23473 L 70.6448 141.48668 M 88.306 137.23473 L 88.306 141.48668 M 105.96721 137.23473 L 105.96721 141.48668 M 123.6284 137.23473 L 123.6284 141.48668 M 141.28961 137.23473 L 141.28961 141.48668 M 158.95082 137.23473 L 158.95082 141.48668 M 176.61202 137.23473 L 176.61202 141.48668 "/>
<path transform="matrix(1,0,0,-1,9.686,220.256)" stroke-width="1" stroke-linecap="butt" stroke-miterlimit="10" stroke-linejoin="miter" fill="none" stroke="#808080" d="M 15.53485 78.83705 L 19.78752 78.83705 M 15.53485 99.0116 L 19.78752 99.0116 M 15.53485 119.18614 L 19.78752 119.18614 M 15.53485 159.53524 L 19.78752 159.53524 M 15.53485 179.70978 L 19.78752 179.70978 M 15.53485 199.88433 L 19.78752 199.88433 "/>
<path transform="matrix(1,0,0,-1,9.686,220.256)" stroke-width="1" stroke-linecap="butt" stroke-miterlimit="10" stroke-linejoin="miter" fill="none" stroke="#000000" d="M 0 139.36069 L 192.2807 139.36069 "/>
<path transform="matrix(1,0,0,-1,201.9667,80.89531)" d="M 1.99252 0 L -1.19551 1.59401 L 0 0 L -1.19551 -1.59401 "/>
<path transform="matrix(1,0,0,-1,9.686,220.256)" stroke-width="1" stroke-linecap="butt" stroke-miterlimit="10" stroke-linejoin="miter" fill="none" stroke="#000000" d="M 17.6612 58.6625 L 17.6612 218.06635 "/>
<path transform="matrix(0,-1,-1,-0,27.347199,2.1896516)" d="M 1.99252 0 L -1.19551 1.59401 L 0 0 L -1.19551 -1.59401 "/>
<symbol id="font_0_1">
<path d="M .57600006 0 C .59300008 0 .611 0 .611 .019999996 C .611 .040000008 .59300008 .040000008 .57600006 .040000008 L .035000005 .040000008 C .018 .040000008 0 .040000008 0 .019999996 C 0 0 .018 0 .035000005 0 L .57600006 0 Z "/>
</symbol>
<use xlink:href="#font_0_1" transform="matrix(9.9626,0,0,-9.9626,4.147896,90.6716)"/>
<symbol id="font_1_3">
<path d="M .205 .64000007 C .205 .66400006 .205 .666 .18200003 .666 C .120000008 .60200008 .032000007 .60200008 0 .60200008 L 0 .57100006 C .020000004 .57100006 .07900001 .57100006 .13100001 .597 L .13100001 .079 C .13100001 .043 .128 .031000002 .038000004 .031000002 L .0060000049 .031000002 L .0060000049 0 C .04100001 .003 .128 .003 .168 .003 C .20800002 .003 .29500003 .003 .33000005 0 L .33000005 .031000002 L .29800005 .031000002 C .20800002 .031000002 .205 .042000005 .205 .079 L .205 .64000007 Z "/>
</symbol>
<use xlink:href="#font_1_3" transform="matrix(9.9626,0,0,-9.9626,11.955671,92.963)"/>
<use xlink:href="#font_1_3" transform="matrix(9.9626,0,0,-9.9626,43.403676,92.963)"/>
<symbol id="font_1_4">
<path d="M .07700001 .07700001 L .18300002 .18 C .33900003 .31800003 .39900003 .372 .39900003 .47200004 C .39900003 .586 .30900003 .666 .18700002 .666 C .074 .666 0 .574 0 .485 C 0 .42900003 .05 .42900003 .053000008 .42900003 C .07000001 .42900003 .105000007 .441 .105000007 .48200003 C .105000007 .508 .08700001 .53400006 .052000006 .53400006 C .044000005 .53400006 .042000008 .53400006 .039 .53300008 C .062000004 .59800007 .11600001 .63500007 .17400001 .63500007 C .26500003 .63500007 .308 .554 .308 .47200004 C .308 .39200003 .25800003 .31300003 .20300003 .25100003 L .011000004 .037 C 0 .026 0 .024 0 0 L .37100003 0 L .39900003 .17400001 L .374 .17400001 C .36900003 .14400001 .36200003 .1 .352 .085 C .345 .07700001 .279 .07700001 .257 .07700001 L .07700001 .07700001 Z "/>
</symbol>
<use xlink:href="#font_1_4" transform="matrix(9.9626,0,0,-9.9626,60.676134,92.963)"/>
<symbol id="font_1_5">
<path d="M .24800003 .37400005 C .33 .40100003 .388 .47100006 .388 .55 C .388 .632 .3 .688 .204 .688 C .10300001 .688 .027000003 .628 .027000003 .55200007 C .027000003 .519 .049000004 .5 .078 .5 C .109000008 .5 .12900001 .522 .12900001 .55100008 C .12900001 .6010001 .082 .6010001 .067 .6010001 C .098 .65000006 .164 .66300007 .20000002 .66300007 C .24100003 .66300007 .29600004 .64100006 .29600004 .55100008 C .29600004 .53900006 .29400004 .48100005 .268 .43700005 C .238 .38900004 .204 .38600005 .17900002 .38500003 C .171 .38400004 .14700002 .38200004 .14000002 .38200004 C .132 .38100005 .125 .38000003 .125 .37000004 C .125 .35900004 .132 .35900004 .14900002 .35900004 L .19300002 .35900004 C .275 .35900004 .312 .29100005 .312 .193 C .312 .057000005 .24300003 .028 .199 .028 C .15600002 .028 .081 .045 .046000005 .104 C .081 .09900001 .11200001 .12100001 .11200001 .15900001 C .11200001 .19500001 .085 .215 .056 .215 C .031999999 .215 0 .201 0 .157 C 0 .06600001 .093 0 .20200002 0 C .32400004 0 .41500003 .091000009 .41500003 .193 C .41500003 .27500005 .35200004 .35300005 .24800003 .37400005 Z "/>
</symbol>
<use xlink:href="#font_1_5" transform="matrix(9.9626,0,0,-9.9626,78.25742,93.182178)"/>
<symbol id="font_1_6">
<path d="M .266 .165 L .266 .078 C .266 .042000005 .26400004 .031000002 .19000001 .031000002 L .16900002 .031000002 L .16900002 0 C .21000001 .003 .26200003 .003 .30400003 .003 C .34600003 .003 .39900003 .003 .44000004 0 L .44000004 .031000002 L .41900004 .031000002 C .34500004 .031000002 .34300003 .042000005 .34300003 .078 L .34300003 .165 L .44300003 .165 L .44300003 .19600001 L .34300003 .19600001 L .34300003 .651 C .34300003 .671 .34300003 .67700007 .32700003 .67700007 C .31800003 .67700007 .31500004 .67700007 .307 .665 L 0 .19600001 L 0 .165 L .266 .165 M .272 .19600001 L .028 .19600001 L .272 .569 L .272 .19600001 Z "/>
</symbol>
<use xlink:href="#font_1_6" transform="matrix(9.9626,0,0,-9.9626,95.77895,92.963)"/>
<symbol id="font_1_7">
<path d="M .39900003 .223 C .39900003 .34200005 .317 .44200004 .209 .44200004 C .16100002 .44200004 .118000019 .42600004 .082 .39100004 L .082 .586 C .10200001 .58000007 .135 .573 .16700001 .573 C .29 .573 .36 .66400006 .36 .67700007 C .36 .683 .357 .688 .35 .688 C .349 .688 .347 .688 .342 .68500009 C .322 .67600008 .273 .656 .20600002 .656 C .16600001 .656 .120000008 .66300007 .073 .6840001 C .065 .68700006 .06300001 .68700006 .061000009 .68700006 C .051000004 .68700006 .051000004 .679 .051000004 .66300007 L .051000004 .36700005 C .051000004 .34900005 .051000004 .34100003 .065 .34100003 C .07200001 .34100003 .074 .34400005 .07800001 .35000003 C .08900002 .36600004 .12600002 .42000006 .207 .42000006 C .259 .42000006 .284 .37400005 .292 .35600005 C .308 .31900005 .31 .28000004 .31 .23 C .31 .19500001 .31 .135 .286 .093 C .262 .054000006 .22500001 .028 .17900002 .028 C .106000009 .028 .049000008 .08100001 .032 .14000002 C .035 .13900002 .038000008 .13800001 .049000008 .13800001 C .082 .13800001 .09900001 .163 .09900001 .187 C .09900001 .21100001 .082 .23600002 .049000008 .23600002 C .035 .23600002 0 .22900002 0 .18300002 C 0 .097 .069000009 0 .18100001 0 C .297 0 .39900003 .096 .39900003 .223 Z "/>
</symbol>
<use xlink:href="#font_1_7" transform="matrix(9.9626,0,0,-9.9626,113.65913,93.182178)"/>
<symbol id="font_1_8">
<path d="M .089999999 .35000003 L .089999999 .37400005 C .089999999 .62700006 .21400002 .66300007 .26500003 .66300007 C .28900004 .66300007 .33100004 .65700009 .35300002 .623 C .33800004 .623 .298 .623 .298 .57800009 C .298 .54700008 .32200004 .53200009 .344 .53200009 C .36 .53200009 .39000003 .54100009 .39000003 .58000007 C .39000003 .64000007 .34600003 .688 .263 .688 C .13499999 .688 0 .559 0 .33800004 C 0 .071 .116000007 0 .20900002 0 C .32000003 0 .41500003 .094000007 .41500003 .22600001 C .41500003 .35300005 .32600004 .44900004 .215 .44900004 C .14700002 .44900004 .11000001 .39800004 .089999999 .35000003 M .20900002 .028 C .146 .028 .116000007 .088 .11000001 .103 C .092 .15 .092 .23 .092 .24800001 C .092 .32600004 .124000009 .42600004 .21400002 .42600004 C .23000002 .42600004 .27600003 .42600004 .307 .36400003 C .32500003 .32700003 .32500003 .27600003 .32500003 .22700002 C .32500003 .179 .32500003 .12900001 .30800004 .093 C .27800004 .033000005 .23200003 .028 .20900002 .028 Z "/>
</symbol>
<use xlink:href="#font_1_8" transform="matrix(9.9626,0,0,-9.9626,131.24044,93.182178)"/>
<symbol id="font_1_9">
<path d="M .42000003 .63100007 C .42900003 .64300009 .42900003 .64500007 .42900003 .66600009 L .18600002 .66600009 C .064 .66600009 .062000008 .679 .058000007 .6980001 L .033 .6980001 L 0 .49200005 L .024999999 .49200005 C .028000005 .508 .037 .57100006 .050000006 .58300009 C .057000005 .58900007 .13500002 .58900007 .148 .58900007 L .35500003 .58900007 C .344 .573 .26500003 .46400006 .24300003 .43100003 C .153 .29600004 .12000001 .157 .12000001 .055 C .12000001 .045 .12000001 0 .16600001 0 C .21200001 0 .21200001 .045 .21200001 .055 L .21200001 .106000009 C .21200001 .16100002 .21500004 .216 .22300002 .27 C .22700003 .29300005 .24100003 .37900005 .28500004 .44100005 L .42000003 .63100007 Z "/>
</symbol>
<use xlink:href="#font_1_9" transform="matrix(9.9626,0,0,-9.9626,149.04091,93.182178)"/>
<symbol id="font_1_a">
<path d="M .121 .47900004 C .075 .509 .071 .54300007 .071 .56000009 C .071 .62100008 .136 .66300007 .20700002 .66300007 C .28000004 .66300007 .344 .61100009 .344 .53900006 C .344 .48200003 .305 .43400005 .245 .39900003 L .121 .47900004 M .26700003 .38400004 C .33900003 .42100004 .388 .47300006 .388 .53900006 C .388 .63100007 .29900003 .688 .208 .688 C .108 .688 .027000003 .614 .027000003 .521 C .027000003 .503 .029 .45800004 .071 .41100005 C .082 .39900003 .11900001 .37400005 .144 .35700003 C .086 .32800005 0 .272 0 .17300001 C 0 .067 .102000009 0 .20700002 0 C .32000003 0 .41500003 .083000008 .41500003 .19000001 C .41500003 .22600001 .404 .27100004 .36600004 .31300003 C .34700004 .33400003 .33100004 .34400005 .26700003 .38400004 M .167 .34200005 L .29000003 .26400004 C .31800003 .245 .365 .215 .365 .154 C .365 .080000009 .29000003 .028 .208 .028 C .122 .028 .050000006 .09 .050000006 .17300001 C .050000006 .231 .082 .29500003 .167 .34200005 Z "/>
</symbol>
<use xlink:href="#font_1_a" transform="matrix(9.9626,0,0,-9.9626,166.56243,93.182178)"/>
<symbol id="font_1_b">
<path d="M .32500003 .34000004 L .32500003 .30800004 C .32500003 .074 .22100002 .028 .16300002 .028 C .146 .028 .092 .030000002 .065000008 .064 C .109000008 .064 .117000009 .093 .117000009 .11000001 C .117000009 .141 .093 .156 .071 .156 C .055 .156 .024999999 .147 .024999999 .108 C .024999999 .041 .079 0 .164 0 C .293 0 .41500003 .136 .41500003 .35100005 C .41500003 .62000009 .3 .688 .21100003 .688 C .15600002 .688 .107 .67 .064 .62500008 C .023000002 .58000007 0 .53800007 0 .46300004 C 0 .33800004 .08800001 .24000001 .20000002 .24000001 C .261 .24000001 .30200003 .28200004 .32500003 .34000004 M .201 .263 C .185 .263 .139 .263 .108 .32600004 C .089999999 .36300005 .089999999 .41300006 .089999999 .46200005 C .089999999 .51600006 .089999999 .563 .11100001 .6 C .13800001 .65000006 .176 .66300007 .21100003 .66300007 C .25700004 .66300007 .29000003 .62900009 .307 .58400008 C .31900005 .55200007 .323 .48900003 .323 .44300006 C .323 .36000005 .28900004 .263 .201 .263 Z "/>
</symbol>
<use xlink:href="#font_1_b" transform="matrix(9.9626,0,0,-9.9626,184.22344,93.182178)"/>
<use xlink:href="#font_0_1" transform="matrix(9.9626,0,0,-9.9626,9.797895,141.9236)"/>
<use xlink:href="#font_1_5" transform="matrix(9.9626,0,0,-9.9626,17.137429,144.43418)"/>
<use xlink:href="#font_0_1" transform="matrix(9.9626,0,0,-9.9626,9.797895,121.748607)"/>
<use xlink:href="#font_1_4" transform="matrix(9.9626,0,0,-9.9626,17.21713,124.04)"/>
<use xlink:href="#font_0_1" transform="matrix(9.9626,0,0,-9.9626,9.797895,101.5746)"/>
<use xlink:href="#font_1_3" transform="matrix(9.9626,0,0,-9.9626,17.60567,103.866)"/>
<use xlink:href="#font_1_3" transform="matrix(9.9626,0,0,-9.9626,17.60567,63.933)"/>
<use xlink:href="#font_1_4" transform="matrix(9.9626,0,0,-9.9626,17.21713,43.757997)"/>
<use xlink:href="#font_1_5" transform="matrix(9.9626,0,0,-9.9626,17.137429,23.803177)"/>
<clipPath id="cp2">
<path transform="matrix(1,0,0,-1,9.686,220.256)" d="M 0 58.6625 L 194.27323 58.6625 L 194.27323 220.05887 L 0 220.05887 Z "/>
</clipPath>
<g clip-path="url(#cp2)">
<path transform="matrix(1,0,0,-1,9.686,220.256)" stroke-width="1" stroke-linecap="butt" stroke-miterlimit="10" stroke-linejoin="miter" fill="none" stroke="#000000" d="M 17.68234 .45822 L 18.21042 69.3409 L 18.74194 82.99846 L 19.27348 91.06808 L 19.80505 96.81702 L 20.3366 101.28468 L 20.86813 104.9391 L 21.39966 108.03568 L 21.93123 110.71748 L 22.46277 113.08417 L 22.99431 115.20148 L 23.52588 117.11827 L 24.05742 118.86739 L 24.58894 120.47652 L 25.12051 121.97145 L 25.65207 123.36026 L 26.18361 124.65991 L 26.71515 125.88068 L 27.2467 127.03082 L 27.77824 128.11965 L 28.30978 129.15219 L 28.84135 130.13448 L 29.3729 131.07178 L 29.90443 131.96694 L 30.43599 132.82434 L 30.96753 133.64464 L 31.49907 134.43408 L 32.03061 135.1987 L 32.56218 135.93102 L 33.09372 136.63875 L 33.62526 137.32227 L 34.15683 137.98319 L 34.68837 138.62352 L 35.21991 139.24309 L 35.75148 139.8447 L 36.283 140.42855 L 36.81454 140.99666 L 37.34608 141.54843 L 37.87766 142.08629 L 38.4092 142.61022 L 38.94072 143.12064 L 39.47229 143.61835 L 40.00383 144.10353 L 40.53539 144.57785 L 41.06694 145.04164 L 41.5985 145.49477 L 42.13002 145.93741 L 42.66156 146.37175 L 43.19313 146.79462 L 43.72467 147.21123 L 44.25621 147.61814 L 44.78777 148.018 L 45.3193 148.40959 L 45.85085 148.79232 L 46.38242 149.16916 L 46.91396 149.53937 L 47.4455 149.90291 L 47.97705 150.2598 L 48.50859 150.60942 L 49.04015 150.95421 L 49.57169 151.29314 L 50.10326 151.6262 L 50.63478 151.95446 L 51.16632 152.27826 L 51.69789 152.59319 L 52.22943 152.9063 L 52.76097 153.21315 L 53.29251 153.52 L 53.82407 153.81859 L 54.3556 154.11293 L 54.88715 154.40325 L 55.41872 154.68932 L 55.95026 154.97116 L 56.4818 155.24916 L 57.01335 155.52355 L 57.5449 155.79448 L 58.07645 156.06159 L 58.60799 156.32488 L 59.13956 156.58553 L 59.67108 156.84255 L 60.20262 157.09595 L 60.73419 157.34632 L 61.26573 157.59365 L 61.79727 157.83856 L 62.32883 158.07985 L 62.86037 158.31812 L 63.3919 158.55477 L 63.92348 158.78719 L 64.45502 159.01818 L 64.98657 159.24553 L 65.5181 159.47069 L 66.04967 159.69382 L 66.5812 159.91393 L 67.11275 160.13282 L 67.64432 160.34787 L 68.17584 160.56153 L 68.70738 160.77275 L 69.23892 160.98015 L 69.7705 161.18775 L 70.30203 161.39273 L 70.83357 161.59587 L 71.36513 161.796 L 71.89667 161.99492 L 72.42822 162.19164 L 72.95978 162.3865 L 73.49133 162.57979 L 74.02286 162.76963 L 74.5544 162.95886 L 75.08597 163.1477 L 75.61751 163.3333 L 76.14905 163.51811 L 76.68062 163.69928 L 77.21214 163.88085 L 77.74368 164.0602 L 78.27525 164.23754 L 78.8068 164.41426 L 79.33833 164.58837 L 79.86989 164.76087 L 80.40143 164.93355 L 80.93298 165.1022 L 81.46452 165.27248 L 81.9961 165.43833 L 82.52763 165.60578 L 83.05916 165.76959 L 83.59073 165.93219 L 84.12227 166.0952 L 84.65381 166.25418 L 85.18535 166.41536 L 85.7169 166.57213 L 86.24844 166.7291 L 86.77998 166.88524 L 87.31155 167.03977 L 87.8431 167.19432 L 88.37465 167.34784 L 88.9062 167.49875 L 89.43774 167.64905 L 89.96928 167.79773 L 90.50082 167.94542 L 91.0324 168.09168 L 91.56392 168.23754 L 92.09546 168.38219 L 92.62703 168.52564 L 93.15857 168.66828 L 93.69011 168.80948 L 94.22166 168.9501 L 94.7532 169.0899 L 95.28474 169.22872 L 95.81631 169.3663 L 96.34787 169.50269 L 96.87941 169.63866 L 97.41093 169.77384 L 97.9425 169.90758 L 98.47404 170.04094 L 99.00558 170.17328 L 99.53716 170.30503 L 100.06868 170.43556 L 100.60022 170.56508 L 101.13176 170.69379 L 101.66333 170.82149 L 102.19487 170.94899 L 102.72641 171.0759 L 103.25797 171.20117 L 103.78952 171.32607 L 104.32106 171.45034 L 104.85263 171.5742 L 105.38417 171.69606 L 105.9157 171.81812 L 106.44724 171.93897 L 106.9788 172.0596 L 107.51035 172.17945 L 108.04189 172.29828 L 108.57346 172.4165 L 109.10498 172.53412 L 109.63652 172.65071 L 110.16809 172.76795 L 110.69963 172.88272 L 111.23119 172.99771 L 111.76273 173.1121 L 112.29428 173.2255 L 112.82582 173.33867 L 113.35736 173.45104 L 113.88893 173.5628 L 114.42047 173.67398 L 114.952 173.78414 L 115.48357 173.89449 L 116.0151 174.00403 L 116.54665 174.11237 L 117.07819 174.22029 L 117.60974 174.32764 L 118.14128 174.43535 L 118.67284 174.54189 L 119.20439 174.64739 L 119.73595 174.7529 L 120.26749 174.85701 L 120.79904 174.96192 L 121.33058 175.06562 L 121.86212 175.1685 L 122.39366 175.27138 L 122.92523 175.37267 L 123.45676 175.47476 L 123.9883 175.57643 L 124.51987 175.6765 L 125.0514 175.77596 L 125.58295 175.87561 L 126.11452 175.97568 L 126.64604 176.07454 L 127.1776 176.17159 L 127.70915 176.26903 L 128.2407 176.36606 L 128.77225 176.4637 L 129.30377 176.55994 L 129.83535 176.65538 L 130.36688 176.75058 L 130.89842 176.84542 L 131.43 176.94084 L 131.96154 177.03507 L 132.49306 177.12766 L 133.0246 177.22066 L 133.55617 177.31366 L 134.0877 177.40686 L 134.61927 177.49806 L 135.1508 177.59006 L 135.68236 177.68042 L 136.2139 177.77285 L 136.74547 177.8616 L 137.27701 177.95178 L 137.80855 178.04035 L 138.34008 178.12932 L 138.87165 178.21929 L 139.40319 178.30767 L 139.93473 178.39441 L 140.4663 178.48217 L 140.99782 178.56832 L 141.52936 178.65627 L 142.06093 178.74283 L 142.59247 178.82776 L 143.12403 178.9129 L 143.65558 178.99845 L 144.18712 179.08579 L 144.71866 179.16892 L 145.2502 179.25205 L 145.78177 179.33615 L 146.31331 179.41988 L 146.84484 179.50402 L 147.3764 179.58673 L 147.90795 179.66864 L 148.43949 179.75016 L 148.97103 179.83045 L 149.5026 179.91457 L 150.03412 179.99546 L 150.56568 180.07515 L 151.09723 180.15586 L 151.62879 180.23534 L 152.16033 180.31786 L 152.69188 180.39694 L 153.22342 180.4744 L 153.75496 180.55269 L 154.2865 180.63016 L 154.81807 180.71207 L 155.34961 180.78812 L 155.88114 180.86579 L 156.4127 180.94326 L 156.94425 181.01873 L 157.47579 181.0984 L 158.00736 181.17447 L 158.53888 181.25113 L 159.07044 181.3294 L 159.602 181.40506 L 160.13355 181.4801 L 160.66509 181.55556 L 161.19663 181.63 L 161.72818 181.70507 L 162.25972 181.7787 L 162.79126 181.85274 L 163.32283 181.92618 L 163.85437 182.0002 L 164.3859 182.07366 L 164.91744 182.14627 L 165.449 182.2189 L 165.98055 182.29132 L 166.5121 182.36374 L 167.04367 182.43538 L 167.5752 182.50719 L 168.10674 182.57862 L 168.6383 182.64923 L 169.16985 182.72045 L 169.70139 182.79105 L 170.23291 182.86167 L 170.76448 182.93166 L 171.29602 183.00188 L 171.82756 183.07147 L 172.35913 183.14087 L 172.89067 183.21007 L 173.4222 183.27887 L 173.95377 183.34786 L 174.48532 183.41626 L 175.01686 183.48485 L 175.54843 183.55284 L 176.07996 183.62064 L 176.15689 183.63039 "/>
<path transform="matrix(.99203,-.12573,-.12573,-.99203,185.8429,36.62561)" stroke-width="1" stroke-linecap="round" stroke-linejoin="round" fill="none" stroke="#000000" d="M -1.19551 1.59401 C -1.09587 .99626 0 .09961 .29886 0 C 0 -.09961 -1.09587 -.99626 -1.19551 -1.59401 "/>
<symbol id="font_3_2">
<path d="M .45700003 .586 C .461 .6 .461 .602 .461 .609 C .461 .62700006 .447 .63600006 .432 .63600006 C .42200003 .63600006 .40600003 .63 .397 .615 C .395 .61 .387 .579 .38300003 .561 C .37600003 .535 .36900003 .508 .363 .48100005 L .318 .301 C .314 .286 .271 .21600002 .20500002 .21600002 C .15400002 .21600002 .143 .26000003 .143 .29700003 C .143 .34300003 .16000001 .40500004 .194 .49300004 C .21000001 .53400006 .21400002 .545 .21400002 .56500008 C .21400002 .61 .18200001 .6470001 .13200002 .6470001 C .037 .6470001 0 .50200006 0 .49300004 C 0 .48300005 .01 .48300005 .012 .48300005 C .022000002 .48300005 .023 .485 .028000003 .50100007 C .055000009 .595 .095000009 .625 .12900001 .625 C .13700001 .625 .15400002 .625 .15400002 .59300008 C .15400002 .568 .14400001 .54200008 .13700001 .523 C .097 .41700004 .079 .36 .079 .31300003 C .079 .224 .142 .194 .201 .194 C .24000003 .194 .274 .21100001 .30200003 .23900002 C .289 .187 .277 .13800001 .237 .08500001 C .21100001 .051 .17300001 .022 .127 .022 C .113000009 .022 .068 .025000006 .051000008 .06400001 C .067 .06400001 .080000009 .06400001 .094000007 .076000008 C .104 .08500001 .11400001 .098000008 .11400001 .117000009 C .11400001 .148 .087000008 .15200001 .07700001 .15200001 C .054000006 .15200001 .021 .136 .021 .087000008 C .021 .037 .065000008 0 .127 0 C .23 0 .333 .091000009 .361 .20400001 L .45700003 .586 Z "/>
</symbol>
<use xlink:href="#font_3_2" transform="matrix(9.9626,0,0,-9.9626,88.392917,41.054334)"/>
<symbol id="font_1_c">
<path d="M .63100007 .19400002 C .646 .19400002 .665 .19400002 .665 .214 C .665 .23400001 .646 .23400001 .632 .23400001 L .033 .23400001 C .019000002 .23400001 0 .23400001 0 .214 C 0 .19400002 .019000002 .19400002 .034 .19400002 L .63100007 .19400002 M .632 0 C .646 0 .665 0 .665 .02000001 C .665 .040000008 .646 .040000008 .63100007 .040000008 L .034 .040000008 C .019000002 .040000008 0 .040000008 0 .02000001 C 0 0 .019000002 0 .033 0 L .632 0 Z "/>
</symbol>
<symbol id="font_1_d">
<path d="M .144 .694 L 0 .683 L 0 .652 C .07000001 .652 .07800001 .64500007 .07800001 .596 L .07800001 .076000008 C .07800001 .031000002 .067 .031000002 0 .031000002 L 0 0 C .033 .001 .086 .003 .11100001 .003 C .136 .003 .185 .001 .22200004 0 L .22200004 .031000002 C .155 .031000002 .144 .031000002 .144 .076000008 L .144 .694 Z "/>
</symbol>
<symbol id="font_1_e">
<path d="M .07800001 .344 L .07800001 .076000008 C .07800001 .031000002 .067 .031000002 0 .031000002 L 0 0 C .035 .001 .08600001 .003 .113000009 .003 C .139 .003 .191 .001 .225 0 L .225 .031000002 C .158 .031000002 .147 .031000002 .147 .076000008 L .147 .26000003 C .147 .36400003 .218 .42000003 .282 .42000003 C .345 .42000003 .356 .36600004 .356 .30900003 L .356 .076000008 C .356 .031000002 .345 .031000002 .278 .031000002 L .278 0 C .31300003 .001 .36400003 .003 .391 .003 C .41700004 .003 .46900005 .001 .503 0 L .503 .031000002 C .451 .031000002 .42600004 .031000002 .425 .061000006 L .425 .252 C .425 .33800004 .425 .36900003 .39400003 .40500004 C .38000003 .42200003 .347 .44200004 .289 .44200004 C .216 .44200004 .169 .39900003 .141 .337 L .141 .44200004 L 0 .43100003 L 0 .4 C .07000001 .4 .07800001 .393 .07800001 .344 Z "/>
</symbol>
<symbol id="font_1_1">
<path d="M .23200003 .00999999 C .23200003 .012999982 .23200003 .014999986 .215 .03199999 C .09 .15799999 .058 .347 .058 .5 C .058 .674 .096 .84800007 .21900001 .97300007 C .23200003 .985 .23200003 .98700007 .23200003 .99 C .23200003 .99700006 .22800002 1 .222 1 C .21200001 1 .12200001 .93200007 .06299999 .805 C .012000002 .69500008 0 .584 0 .5 C 0 .422 .011 .301 .066 .188 C .126 .065 .21200001 0 .222 0 C .22800002 0 .23200003 .0029999912 .23200003 .00999999 Z "/>
</symbol>
<use xlink:href="#font_1_c" transform="matrix(9.9626,0,0,-9.9626,96.670909,37.686975)"/>
<use xlink:href="#font_1_d" transform="matrix(9.9626,0,0,-9.9626,106.962268,39.012)"/>
<use xlink:href="#font_1_e" transform="matrix(9.9626,0,0,-9.9626,109.7219,39.012)"/>
<use xlink:href="#font_1_1" transform="matrix(9.9626,0,0,-9.9626,115.928607,41.50265)"/>
<symbol id="font_3_1">
<path d="M .305 .31300003 C .311 .33900003 .334 .43100003 .404 .43100003 C .409 .43100003 .433 .43100003 .454 .418 C .426 .41300003 .40600003 .388 .40600003 .36400003 C .40600003 .34800003 .417 .32900004 .444 .32900004 C .46600003 .32900004 .498 .34700004 .498 .38700003 C .498 .43900005 .439 .45300005 .405 .45300005 C .347 .45300005 .312 .40000005 .3 .37700004 C .275 .44300003 .221 .45300005 .19200002 .45300005 C .08800001 .45300005 .031000002 .32400004 .031000002 .29900003 C .031000002 .28900004 .041 .28900004 .043000007 .28900004 C .051000008 .28900004 .054000006 .291 .056 .3 C .09 .40600003 .156 .43100003 .19000001 .43100003 C .209 .43100003 .244 .42200003 .244 .36400003 C .244 .33300004 .22700002 .26600004 .19000001 .126 C .17400001 .064 .13900002 .022000002 .095000009 .022000002 C .08900001 .022000002 .06600001 .022000002 .045 .035 C .07000001 .040000004 .09200001 .061 .09200001 .089 C .09200001 .116000007 .07000001 .124000009 .055000009 .124000009 C .025 .124000009 0 .098000008 0 .06600001 C 0 .020000002 .050000006 0 .094000007 0 C .16000001 0 .19600001 .07000001 .19900002 .076000008 C .21100001 .039 .24700003 0 .307 0 C .41 0 .467 .12900001 .467 .15400002 C .467 .16400002 .458 .16400002 .455 .16400002 C .446 .16400002 .444 .16000001 .442 .15300001 C .409 .046 .341 .022000002 .30900003 .022000002 C .27 .022000002 .254 .054 .254 .08800001 C .254 .11000001 .26 .13200002 .271 .17600002 L .305 .31300003 Z "/>
</symbol>
<use xlink:href="#font_3_1" transform="matrix(9.9626,0,0,-9.9626,119.09492,39.12159)"/>
<symbol id="font_1_2">
<path d="M .232 .5 C .232 .578 .22100002 .699 .16600001 .81200006 C .106 .93500009 .020000004 1 .009999998 1 C .0040000008 1 0 .99600008 0 .99 C 0 .98700007 0 .985 .019000002 .967 C .117000009 .86800006 .174 .709 .174 .5 C .174 .329 .137 .153 .012999997 .026999996 C 0 .014999986 0 .012999982 0 .00999999 C 0 .003999993 .0040000008 0 .009999998 0 C .020000004 0 .11000001 .06799999 .169 .195 C .22 .305 .232 .416 .232 .5 Z "/>
</symbol>
<use xlink:href="#font_1_2" transform="matrix(9.9626,0,0,-9.9626,125.06687,41.50265)"/>
</g>
<use xlink:href="#font_3_1" transform="matrix(9.9626,0,0,-9.9626,195.06592,77.462589)"/>
<use xlink:href="#font_3_2" transform="matrix(9.9626,0,0,-9.9626,31.158915,10.016333)"/>
</svg>
