<?xml version="1.0" encoding="UTF-8" standalone="no"?>
<!DOCTYPE svg PUBLIC "-//W3C//DTD SVG 1.1//EN" "http://www.w3.org/Graphics/SVG/1.1/DTD/svg11.dtd">
<svg xmlns="http://www.w3.org/2000/svg" xmlns:xlink="http://www.w3.org/1999/xlink" version="1.1" width="194.662pt" height="161.781pt" viewBox="0 0 194.662 161.781">
<path transform="matrix(1,0,0,-1,.199,161.582)" stroke-width="1" stroke-linecap="butt" stroke-miterlimit="10" stroke-linejoin="miter" fill="none" stroke="#808080" d="M 19.4266 30.15094 L 19.4266 34.40271 M 38.85321 30.15094 L 38.85321 34.40271 M 58.27982 30.15094 L 58.27982 34.40271 M 77.70642 30.15094 L 77.70642 34.40271 M 116.55965 30.15094 L 116.55965 34.40271 M 135.98625 30.15094 L 135.98625 34.40271 M 155.41286 30.15094 L 155.41286 34.40271 M 174.83946 30.15094 L 174.83946 34.40271 "/>
<path transform="matrix(1,0,0,-1,.199,161.582)" stroke-width="1" stroke-linecap="butt" stroke-miterlimit="10" stroke-linejoin="miter" fill="none" stroke="#808080" d="M 95.00711 16.13841 L 99.25894 16.13841 M 95.00711 48.41525 L 99.25894 48.41525 M 95.00711 64.55368 L 99.25894 64.55368 M 95.00711 80.6921 L 99.25894 80.6921 M 95.00711 96.83052 L 99.25894 96.83052 M 95.00711 112.96893 L 99.25894 112.96893 M 95.00711 129.10736 L 99.25894 129.10736 M 95.00711 145.24578 L 99.25894 145.24578 "/>
<path transform="matrix(1,0,0,-1,.199,161.582)" stroke-width="1" stroke-linecap="butt" stroke-miterlimit="10" stroke-linejoin="miter" fill="none" stroke="#000000" d="M 0 32.27684 L 192.27355 32.27684 "/>
<path transform="matrix(1,0,0,-1,192.47255,129.30516)" d="M 1.99252 0 L -1.19551 1.59401 L 0 0 L -1.19551 -1.59401 "/>
<path transform="matrix(1,0,0,-1,.199,161.582)" stroke-width="1" stroke-linecap="butt" stroke-miterlimit="10" stroke-linejoin="miter" fill="none" stroke="#000000" d="M 97.13303 0 L 97.13303 159.39168 "/>
<path transform="matrix(0,-1,-1,-0,97.33203,2.1903229)" d="M 1.99252 0 L -1.19551 1.59401 L 0 0 L -1.19551 -1.59401 "/>
<symbol id="font_0_1">
<path d="M .57600006 0 C .59300008 0 .611 0 .611 .019999996 C .611 .040000008 .59300008 .040000008 .57600006 .040000008 L .035000005 .040000008 C .018 .040000008 0 .040000008 0 .019999996 C 0 0 .018 0 .035000005 0 L .57600006 0 Z "/>
</symbol>
<use xlink:href="#font_0_1" transform="matrix(9.9626,0,0,-9.9626,14.087896,139.0796)"/>
<symbol id="font_1_4">
<path d="M .266 .165 L .266 .078 C .266 .042000005 .26400004 .031000002 .19000001 .031000002 L .16900002 .031000002 L .16900002 0 C .21000001 .003 .26200003 .003 .30400003 .003 C .34600003 .003 .39900003 .003 .44000004 0 L .44000004 .031000002 L .41900004 .031000002 C .34500004 .031000002 .34300003 .042000005 .34300003 .078 L .34300003 .165 L .44300003 .165 L .44300003 .19600001 L .34300003 .19600001 L .34300003 .651 C .34300003 .671 .34300003 .67700007 .32700003 .67700007 C .31800003 .67700007 .31500004 .67700007 .307 .665 L 0 .19600001 L 0 .165 L .266 .165 M .272 .19600001 L .028 .19600001 L .272 .569 L .272 .19600001 Z "/>
</symbol>
<use xlink:href="#font_1_4" transform="matrix(9.9626,0,0,-9.9626,21.287953,141.371)"/>
<use xlink:href="#font_0_1" transform="matrix(9.9626,0,0,-9.9626,33.513898,139.0796)"/>
<symbol id="font_1_3">
<path d="M .24800003 .37400005 C .33 .40100003 .388 .47100006 .388 .55 C .388 .632 .3 .688 .204 .688 C .10300001 .688 .027000003 .628 .027000003 .55200007 C .027000003 .519 .049000004 .5 .078 .5 C .109000008 .5 .12900001 .522 .12900001 .55100008 C .12900001 .6010001 .082 .6010001 .067 .6010001 C .098 .65000006 .164 .66300007 .20000002 .66300007 C .24100003 .66300007 .29600004 .64100006 .29600004 .55100008 C .29600004 .53900006 .29400004 .48100005 .268 .43700005 C .238 .38900004 .204 .38600005 .17900002 .38500003 C .171 .38400004 .14700002 .38200004 .14000002 .38200004 C .132 .38100005 .125 .38000003 .125 .37000004 C .125 .35900004 .132 .35900004 .14900002 .35900004 L .19300002 .35900004 C .275 .35900004 .312 .29100005 .312 .193 C .312 .057000005 .24300003 .028 .199 .028 C .15600002 .028 .081 .045 .046000005 .104 C .081 .09900001 .11200001 .12100001 .11200001 .15900001 C .11200001 .19500001 .085 .215 .056 .215 C .031999999 .215 0 .201 0 .157 C 0 .06600001 .093 0 .20200002 0 C .32400004 0 .41500003 .091000009 .41500003 .193 C .41500003 .27500005 .35200004 .35300005 .24800003 .37400005 Z "/>
</symbol>
<use xlink:href="#font_1_3" transform="matrix(9.9626,0,0,-9.9626,40.85443,141.59018)"/>
<use xlink:href="#font_0_1" transform="matrix(9.9626,0,0,-9.9626,52.9399,139.0796)"/>
<symbol id="font_1_2">
<path d="M .07700001 .07700001 L .18300002 .18 C .33900003 .31800003 .39900003 .372 .39900003 .47200004 C .39900003 .586 .30900003 .666 .18700002 .666 C .074 .666 0 .574 0 .485 C 0 .42900003 .05 .42900003 .053000008 .42900003 C .07000001 .42900003 .105000007 .441 .105000007 .48200003 C .105000007 .508 .08700001 .53400006 .052000006 .53400006 C .044000005 .53400006 .042000008 .53400006 .039 .53300008 C .062000004 .59800007 .11600001 .63500007 .17400001 .63500007 C .26500003 .63500007 .308 .554 .308 .47200004 C .308 .39200003 .25800003 .31300003 .20300003 .25100003 L .011000004 .037 C 0 .026 0 .024 0 0 L .37100003 0 L .39900003 .17400001 L .374 .17400001 C .36900003 .14400001 .36200003 .1 .352 .085 C .345 .07700001 .279 .07700001 .257 .07700001 L .07700001 .07700001 Z "/>
</symbol>
<use xlink:href="#font_1_2" transform="matrix(9.9626,0,0,-9.9626,60.360136,141.371)"/>
<use xlink:href="#font_0_1" transform="matrix(9.9626,0,0,-9.9626,72.3669,139.0796)"/>
<symbol id="font_1_1">
<path d="M .205 .64000007 C .205 .66400006 .205 .666 .18200003 .666 C .120000008 .60200008 .032000007 .60200008 0 .60200008 L 0 .57100006 C .020000004 .57100006 .07900001 .57100006 .13100001 .597 L .13100001 .079 C .13100001 .043 .128 .031000002 .038000004 .031000002 L .0060000049 .031000002 L .0060000049 0 C .04100001 .003 .128 .003 .168 .003 C .20800002 .003 .29500003 .003 .33000005 0 L .33000005 .031000002 L .29800005 .031000002 C .20800002 .031000002 .205 .042000005 .205 .079 L .205 .64000007 Z "/>
</symbol>
<use xlink:href="#font_1_1" transform="matrix(9.9626,0,0,-9.9626,80.174678,141.371)"/>
<use xlink:href="#font_1_1" transform="matrix(9.9626,0,0,-9.9626,115.15367,141.371)"/>
<use xlink:href="#font_1_2" transform="matrix(9.9626,0,0,-9.9626,134.19113,141.371)"/>
<use xlink:href="#font_1_3" transform="matrix(9.9626,0,0,-9.9626,153.53743,141.59018)"/>
<use xlink:href="#font_1_4" transform="matrix(9.9626,0,0,-9.9626,172.82495,141.371)"/>
<use xlink:href="#font_0_1" transform="matrix(9.9626,0,0,-9.9626,79.78189,145.94762)"/>
<use xlink:href="#font_1_1" transform="matrix(9.9626,0,0,-9.9626,87.59067,148.23902)"/>
<use xlink:href="#font_1_1" transform="matrix(9.9626,0,0,-9.9626,87.59067,116.37701)"/>
<use xlink:href="#font_1_2" transform="matrix(9.9626,0,0,-9.9626,87.202129,100.239009)"/>
<use xlink:href="#font_1_3" transform="matrix(9.9626,0,0,-9.9626,87.12242,84.32018)"/>
<use xlink:href="#font_1_4" transform="matrix(9.9626,0,0,-9.9626,86.98295,67.963008)"/>
<symbol id="font_1_5">
<path d="M .39900003 .223 C .39900003 .34200005 .317 .44200004 .209 .44200004 C .16100002 .44200004 .118000019 .42600004 .082 .39100004 L .082 .586 C .10200001 .58000007 .135 .573 .16700001 .573 C .29 .573 .36 .66400006 .36 .67700007 C .36 .683 .357 .688 .35 .688 C .349 .688 .347 .688 .342 .68500009 C .322 .67600008 .273 .656 .20600002 .656 C .16600001 .656 .120000008 .66300007 .073 .6840001 C .065 .68700006 .06300001 .68700006 .061000009 .68700006 C .051000004 .68700006 .051000004 .679 .051000004 .66300007 L .051000004 .36700005 C .051000004 .34900005 .051000004 .34100003 .065 .34100003 C .07200001 .34100003 .074 .34400005 .07800001 .35000003 C .08900002 .36600004 .12600002 .42000006 .207 .42000006 C .259 .42000006 .284 .37400005 .292 .35600005 C .308 .31900005 .31 .28000004 .31 .23 C .31 .19500001 .31 .135 .286 .093 C .262 .054000006 .22500001 .028 .17900002 .028 C .106000009 .028 .049000008 .08100001 .032 .14000002 C .035 .13900002 .038000008 .13800001 .049000008 .13800001 C .082 .13800001 .09900001 .163 .09900001 .187 C .09900001 .21100001 .082 .23600002 .049000008 .23600002 C .035 .23600002 0 .22900002 0 .18300002 C 0 .097 .069000009 0 .18100001 0 C .297 0 .39900003 .096 .39900003 .223 Z "/>
</symbol>
<use xlink:href="#font_1_5" transform="matrix(9.9626,0,0,-9.9626,87.202129,52.043184)"/>
<symbol id="font_1_6">
<path d="M .089999999 .35000003 L .089999999 .37400005 C .089999999 .62700006 .21400002 .66300007 .26500003 .66300007 C .28900004 .66300007 .33100004 .65700009 .35300002 .623 C .33800004 .623 .298 .623 .298 .57800009 C .298 .54700008 .32200004 .53200009 .344 .53200009 C .36 .53200009 .39000003 .54100009 .39000003 .58000007 C .39000003 .64000007 .34600003 .688 .263 .688 C .13499999 .688 0 .559 0 .33800004 C 0 .071 .116000007 0 .20900002 0 C .32000003 0 .41500003 .094000007 .41500003 .22600001 C .41500003 .35300005 .32600004 .44900004 .215 .44900004 C .14700002 .44900004 .11000001 .39800004 .089999999 .35000003 M .20900002 .028 C .146 .028 .116000007 .088 .11000001 .103 C .092 .15 .092 .23 .092 .24800001 C .092 .32600004 .124000009 .42600004 .21400002 .42600004 C .23000002 .42600004 .27600003 .42600004 .307 .36400003 C .32500003 .32700003 .32500003 .27600003 .32500003 .22700002 C .32500003 .179 .32500003 .12900001 .30800004 .093 C .27800004 .033000005 .23200003 .028 .20900002 .028 Z "/>
</symbol>
<use xlink:href="#font_1_6" transform="matrix(9.9626,0,0,-9.9626,87.12242,35.90518)"/>
<symbol id="font_1_7">
<path d="M .42000003 .63100007 C .42900003 .64300009 .42900003 .64500007 .42900003 .66600009 L .18600002 .66600009 C .064 .66600009 .062000008 .679 .058000007 .6980001 L .033 .6980001 L 0 .49200005 L .024999999 .49200005 C .028000005 .508 .037 .57100006 .050000006 .58300009 C .057000005 .58900007 .13500002 .58900007 .148 .58900007 L .35500003 .58900007 C .344 .573 .26500003 .46400006 .24300003 .43100003 C .153 .29600004 .12000001 .157 .12000001 .055 C .12000001 .045 .12000001 0 .16600001 0 C .21200001 0 .21200001 .045 .21200001 .055 L .21200001 .106000009 C .21200001 .16100002 .21500004 .216 .22300002 .27 C .22700003 .29300005 .24100003 .37900005 .28500004 .44100005 L .42000003 .63100007 Z "/>
</symbol>
<use xlink:href="#font_1_7" transform="matrix(9.9626,0,0,-9.9626,87.2619,19.767182)"/>
<clipPath id="cp2">
<path transform="matrix(1,0,0,-1,.199,161.582)" d="M 0 0 L 194.26607 0 L 194.26607 161.3842 L 0 161.3842 Z "/>
</clipPath>
<g clip-path="url(#cp2)">
<path transform="matrix(1,0,0,-1,.199,161.582)" stroke-width="1" stroke-linecap="butt" stroke-miterlimit="10" stroke-linejoin="miter" fill="none" stroke="#000000" d="M 48.67409 132.69652 L 48.89136 131.79712 L 49.21622 130.46132 L 49.54108 129.13454 L 49.86594 127.81679 L 50.19078 126.50795 L 50.51566 125.20824 L 50.8405 123.91757 L 51.16536 122.63593 L 51.49022 121.36328 L 51.81506 120.0997 L 52.13994 118.84514 L 52.46478 117.59956 L 52.78964 116.36305 L 53.1145 115.13554 L 53.43936 113.91698 L 53.76422 112.70753 L 54.08907 111.5071 L 54.41393 110.31573 L 54.73878 109.13333 L 55.06364 107.96 L 55.38849 106.79568 L 55.71336 105.6404 L 56.03821 104.49414 L 56.36308 103.35689 L 56.68793 102.22858 L 57.01277 101.1094 L 57.33765 99.99922 L 57.66249 98.89809 L 57.98735 97.806 L 58.31221 96.7229 L 58.63707 95.64883 L 58.96193 94.5838 L 59.28677 93.52779 L 59.61163 92.4808 L 59.9365 91.44273 L 60.26135 90.41382 L 60.5862 89.39389 L 60.91107 88.38303 L 61.23592 87.38118 L 61.56079 86.38834 L 61.88564 85.40453 L 62.21048 84.42976 L 62.53535 83.464 L 62.8602 82.50726 L 63.18506 81.5595 L 63.50992 80.62083 L 63.83478 79.69116 L 64.15964 78.77054 L 64.48448 77.85895 L 64.80934 76.95636 L 65.1342 76.0628 L 65.45906 75.17828 L 65.7839 74.3028 L 66.10878 73.43633 L 66.43362 72.5788 L 66.7585 71.73038 L 67.08334 70.89098 L 67.40819 70.06062 L 67.73306 69.23926 L 68.0579 68.42696 L 68.38277 67.62367 L 68.70763 66.82938 L 69.03249 66.04416 L 69.35735 65.26796 L 69.6822 64.50069 L 70.00705 63.74251 L 70.33191 62.9934 L 70.65677 62.25327 L 70.98161 61.52217 L 71.30649 60.80011 L 71.63133 60.08708 L 71.9562 59.38307 L 72.28105 58.6881 L 72.6059 58.00214 L 72.93077 57.32513 L 73.25562 56.65723 L 73.58047 55.99835 L 73.90533 55.3485 L 74.2302 54.70767 L 74.55505 54.07587 L 74.87991 53.45306 L 75.20476 52.83932 L 75.52962 52.2346 L 75.85448 51.6389 L 76.17932 51.05222 L 76.5042 50.47452 L 76.82904 49.90588 L 77.15392 49.34628 L 77.47876 48.79572 L 77.8036 48.25415 L 78.12848 47.72162 L 78.45332 47.19812 L 78.7782 46.68364 L 79.10304 46.17819 L 79.4279 45.68176 L 79.75276 45.19437 L 80.07762 44.71599 L 80.40248 44.24664 L 80.72733 43.78633 L 81.05219 43.33502 L 81.37704 42.89276 L 81.7019 42.4595 L 82.02676 42.0353 L 82.35162 41.62009 L 82.67648 41.21393 L 83.00133 40.81677 L 83.32619 40.42865 L 83.65105 40.04956 L 83.9759 39.6795 L 84.30077 39.31847 L 84.62563 38.96645 L 84.95049 38.62346 L 85.27534 38.28949 L 85.60019 37.96457 L 85.92505 37.64865 L 86.24991 37.34175 L 86.57477 37.0439 L 86.89963 36.75507 L 87.22447 36.47525 L 87.54935 36.20448 L 87.87419 35.94272 L 88.19907 35.68999 L 88.52391 35.44627 L 88.84875 35.2116 L 89.17363 34.98595 L 89.49847 34.76932 L 89.82335 34.5617 L 90.1482 34.36314 L 90.47305 34.17358 L 90.79791 33.99306 L 91.12276 33.82155 L 91.44763 33.65909 L 91.77248 33.50565 L 92.09735 33.3612 L 92.4222 33.22581 L 92.74706 33.09944 L 93.07191 32.9821 L 93.39677 32.87378 L 93.72163 32.77449 L 94.04648 32.68422 L 94.37135 32.60298 L 94.6962 32.53075 L 95.02106 32.46758 L 95.34592 32.41339 L 95.67078 32.36826 L 95.99564 32.33215 L 96.32048 32.30507 L 96.64534 32.287 L 96.9702 32.27795 L 97.29506 32.27794 L 97.61992 32.28696 L 97.94478 32.30501 L 98.26964 32.33208 L 98.5945 32.36816 L 98.91934 32.41328 L 99.2442 32.46742 L 99.56906 32.53058 L 99.89392 32.6028 L 100.21878 32.684 L 100.54362 32.77426 L 100.8685 32.87352 L 101.19334 32.98183 L 101.5182 33.09915 L 101.84306 33.2255 L 102.16792 33.36087 L 102.49278 33.50528 L 102.81764 33.65869 L 103.1425 33.82115 L 103.46735 33.99263 L 103.79222 34.17313 L 104.11707 34.36267 L 104.44193 34.56122 L 104.76678 34.7688 L 105.09163 34.9854 L 105.4165 35.21104 L 105.74135 35.4457 L 106.06622 35.68939 L 106.39107 35.9421 L 106.71593 36.20383 L 107.04079 36.47458 L 107.36563 36.75438 L 107.6905 37.04318 L 108.01535 37.34102 L 108.34021 37.64789 L 108.66507 37.96378 L 108.98993 38.2887 L 109.31479 38.62263 L 109.63963 38.96559 L 109.96451 39.3176 L 110.28935 39.67862 L 110.61421 40.04866 L 110.93907 40.42772 L 111.26393 40.81583 L 111.58879 41.21295 L 111.91365 41.61908 L 112.2385 42.03427 L 112.56335 42.45847 L 112.88821 42.8917 L 113.21307 43.33394 L 113.53793 43.78522 L 113.86278 44.24551 L 114.18765 44.71484 L 114.5125 45.19319 L 114.83736 45.68057 L 115.16222 46.17697 L 115.48708 46.6824 L 115.81194 47.19685 L 116.13678 47.72034 L 116.46165 48.25285 L 116.7865 48.7944 L 117.11137 49.34497 L 117.43622 49.90453 L 117.76106 50.47316 L 118.08594 51.05077 L 118.41078 51.63744 L 118.73564 52.23312 L 119.0605 52.83783 L 119.38536 53.45157 L 119.71022 54.07431 L 120.03506 54.70609 L 120.35992 55.34695 L 120.68478 55.9968 L 121.00964 56.65565 L 121.33449 57.32353 L 121.65936 58.00046 L 121.9842 58.6864 L 122.30908 59.38135 L 122.63393 60.08534 L 122.95877 60.79836 L 123.28365 61.52039 L 123.60849 62.25151 L 123.93335 62.99161 L 124.25821 63.74074 L 124.58307 64.49887 L 124.90793 65.26605 L 125.23279 66.04224 L 125.55763 66.82747 L 125.88249 67.6217 L 126.20735 68.42496 L 126.5322 69.23734 L 126.85707 70.05867 L 127.18192 70.889 L 127.50679 71.72838 L 127.83163 72.57678 L 128.15648 73.4342 L 128.48136 74.30064 L 128.8062 75.17612 L 129.13106 76.06061 L 129.45592 76.95415 L 129.78078 77.85678 L 130.10564 78.76836 L 130.4305 79.68898 L 130.75534 80.6186 L 131.0802 81.55724 L 131.40506 82.50493 L 131.7299 83.46164 L 132.05478 84.42737 L 132.37963 85.40211 L 132.7045 86.3859 L 133.02935 87.3788 L 133.35419 88.38065 L 133.67906 89.3915 L 134.0039 90.41139 L 134.32877 91.4403 L 134.65363 92.47823 L 134.97849 93.5252 L 135.30335 94.58118 L 135.6282 95.64621 L 135.95305 96.72025 L 136.27791 97.80339 L 136.60277 98.8955 L 136.92761 99.9966 L 137.25249 101.10674 L 137.57733 102.2259 L 137.9022 103.35411 L 138.22705 104.4913 L 138.5519 105.63757 L 138.87677 106.79283 L 139.20162 107.95712 L 139.52648 109.13055 L 139.85134 110.3129 L 140.1762 111.50427 L 140.50106 112.70468 L 140.82592 113.9141 L 141.15076 115.13252 L 141.47562 116.36003 L 141.80048 117.59651 L 142.12534 118.84204 L 142.4502 120.09659 L 142.77504 121.36017 L 143.09992 122.63289 L 143.42476 123.9145 L 143.74962 125.20517 L 144.07448 126.50485 L 144.39933 127.81355 L 144.7242 129.13129 L 145.04904 130.45806 L 145.3739 131.79383 L 145.59119 132.69318 "/>
<path transform="matrix(-.23473,-.97202,-.97202,.23473,48.873094,28.885499)" stroke-width="1" stroke-linecap="round" stroke-linejoin="round" fill="none" stroke="#000000" d="M -1.19551 1.59401 C -1.09587 .99626 0 .09961 .29886 0 C 0 -.09961 -1.09587 -.99626 -1.19551 -1.59401 "/>
<path transform="matrix(.23473,-.97202,-.97202,-.23473,145.79019,28.88884)" stroke-width="1" stroke-linecap="round" stroke-linejoin="round" fill="none" stroke="#000000" d="M -1.19551 1.59401 C -1.09587 .99626 0 .09961 .29886 0 C 0 -.09961 -1.09587 -.99626 -1.19551 -1.59401 "/>
<symbol id="font_3_2">
<path d="M .45700003 .586 C .461 .6 .461 .602 .461 .609 C .461 .62700006 .447 .63600006 .432 .63600006 C .42200003 .63600006 .40600003 .63 .397 .615 C .395 .61 .387 .579 .38300003 .561 C .37600003 .535 .36900003 .508 .363 .48100005 L .318 .301 C .314 .286 .271 .21600002 .20500002 .21600002 C .15400002 .21600002 .143 .26000003 .143 .29700003 C .143 .34300003 .16000001 .40500004 .194 .49300004 C .21000001 .53400006 .21400002 .545 .21400002 .56500008 C .21400002 .61 .18200001 .6470001 .13200002 .6470001 C .037 .6470001 0 .50200006 0 .49300004 C 0 .48300005 .01 .48300005 .012 .48300005 C .022000002 .48300005 .023 .485 .028000003 .50100007 C .055000009 .595 .095000009 .625 .12900001 .625 C .13700001 .625 .15400002 .625 .15400002 .59300008 C .15400002 .568 .14400001 .54200008 .13700001 .523 C .097 .41700004 .079 .36 .079 .31300003 C .079 .224 .142 .194 .201 .194 C .24000003 .194 .274 .21100001 .30200003 .23900002 C .289 .187 .277 .13800001 .237 .08500001 C .21100001 .051 .17300001 .022 .127 .022 C .113000009 .022 .068 .025000006 .051000008 .06400001 C .067 .06400001 .080000009 .06400001 .094000007 .076000008 C .104 .08500001 .11400001 .098000008 .11400001 .117000009 C .11400001 .148 .087000008 .15200001 .07700001 .15200001 C .054000006 .15200001 .021 .136 .021 .087000008 C .021 .037 .065000008 0 .127 0 C .23 0 .333 .091000009 .361 .20400001 L .45700003 .586 Z "/>
</symbol>
<use xlink:href="#font_3_2" transform="matrix(9.9626,0,0,-9.9626,137.68592,68.77434)"/>
<symbol id="font_1_8">
<path d="M .63100007 .19400002 C .646 .19400002 .665 .19400002 .665 .214 C .665 .23400001 .646 .23400001 .632 .23400001 L .033 .23400001 C .019000002 .23400001 0 .23400001 0 .214 C 0 .19400002 .019000002 .19400002 .034 .19400002 L .63100007 .19400002 M .632 0 C .646 0 .665 0 .665 .02000001 C .665 .040000008 .646 .040000008 .63100007 .040000008 L .034 .040000008 C .019000002 .040000008 0 .040000008 0 .02000001 C 0 0 .019000002 0 .033 0 L .632 0 Z "/>
</symbol>
<use xlink:href="#font_1_8" transform="matrix(9.9626,0,0,-9.9626,145.9649,65.406978)"/>
<symbol id="font_3_1">
<path d="M .305 .31300003 C .311 .33900003 .334 .43100003 .404 .43100003 C .409 .43100003 .433 .43100003 .454 .418 C .426 .41300003 .40600003 .388 .40600003 .36400003 C .40600003 .34800003 .417 .32900004 .444 .32900004 C .46600003 .32900004 .498 .34700004 .498 .38700003 C .498 .43900005 .439 .45300005 .405 .45300005 C .347 .45300005 .312 .40000005 .3 .37700004 C .275 .44300003 .221 .45300005 .19200002 .45300005 C .08800001 .45300005 .031000002 .32400004 .031000002 .29900003 C .031000002 .28900004 .041 .28900004 .043000007 .28900004 C .051000008 .28900004 .054000006 .291 .056 .3 C .09 .40600003 .156 .43100003 .19000001 .43100003 C .209 .43100003 .244 .42200003 .244 .36400003 C .244 .33300004 .22700002 .26600004 .19000001 .126 C .17400001 .064 .13900002 .022000002 .095000009 .022000002 C .08900001 .022000002 .06600001 .022000002 .045 .035 C .07000001 .040000004 .09200001 .061 .09200001 .089 C .09200001 .116000007 .07000001 .124000009 .055000009 .124000009 C .025 .124000009 0 .098000008 0 .06600001 C 0 .020000002 .050000006 0 .094000007 0 C .16000001 0 .19600001 .07000001 .19900002 .076000008 C .21100001 .039 .24700003 0 .307 0 C .41 0 .467 .12900001 .467 .15400002 C .467 .16400002 .458 .16400002 .455 .16400002 C .446 .16400002 .444 .16000001 .442 .15300001 C .409 .046 .341 .022000002 .30900003 .022000002 C .27 .022000002 .254 .054 .254 .08800001 C .254 .11000001 .26 .13200002 .271 .17600002 L .305 .31300003 Z "/>
</symbol>
<use xlink:href="#font_3_1" transform="matrix(9.9626,0,0,-9.9626,156.21192,66.84159)"/>
<symbol id="font_4_1">
<path d="M .442 .18200001 L .40800003 .18200001 C .40500004 .16000001 .39500005 .101 .38200004 .091000009 C .374 .085 .29700003 .085 .28300003 .085 L .099 .085 C .20400003 .178 .23900002 .20600002 .29900003 .25300003 C .37300004 .312 .442 .374 .442 .469 C .442 .59000006 .33600004 .66400006 .20800004 .66400006 C .084 .66400006 0 .577 0 .485 C 0 .43400003 .043000007 .42900003 .053000004 .42900003 C .077 .42900003 .10600001 .446 .10600001 .48200003 C .10600001 .5 .099 .535 .047000007 .535 C .078 .606 .146 .628 .19300002 .628 C .293 .628 .34500004 .55 .34500004 .469 C .34500004 .38200004 .28300003 .31300003 .25100003 .277 L .010000005 .039 C 0 .030000002 0 .028 0 0 L .41200004 0 L .442 .18200001 Z "/>
</symbol>
<use xlink:href="#font_4_1" transform="matrix(6.9738,0,0,-6.9738,162.05635,62.618005)"/>
</g>
<use xlink:href="#font_3_1" transform="matrix(9.9626,0,0,-9.9626,185.56992,125.889598)"/>
<use xlink:href="#font_3_2" transform="matrix(9.9626,0,0,-9.9626,101.16091,10.016333)"/>
</svg>
