<?xml version="1.0" encoding="UTF-8" standalone="no"?>
<!DOCTYPE svg PUBLIC "-//W3C//DTD SVG 1.1//EN" "http://www.w3.org/Graphics/SVG/1.1/DTD/svg11.dtd">
<svg xmlns="http://www.w3.org/2000/svg" xmlns:xlink="http://www.w3.org/1999/xlink" version="1.1" width="194.662pt" height="161.783pt" viewBox="0 0 194.662 161.783">
<path transform="matrix(1,0,0,-1,.199,148.884)" stroke-width="1" stroke-linecap="butt" stroke-miterlimit="10" stroke-linejoin="miter" fill="none" stroke="#808080" d="M 19.4266 36.7273 L 19.4266 40.97911 M 38.85321 36.7273 L 38.85321 40.97911 M 58.27982 36.7273 L 58.27982 40.97911 M 77.70642 36.7273 L 77.70642 40.97911 M 116.55965 36.7273 L 116.55965 40.97911 M 135.98625 36.7273 L 135.98625 40.97911 M 155.41286 36.7273 L 155.41286 40.97911 M 174.83946 36.7273 L 174.83946 40.97911 "/>
<path transform="matrix(1,0,0,-1,.199,148.884)" stroke-width="1" stroke-linecap="butt" stroke-miterlimit="10" stroke-linejoin="miter" fill="none" stroke="#808080" d="M 95.00711 19.4266 L 99.25894 19.4266 M 95.00711 58.27982 L 99.25894 58.27982 M 95.00711 77.70642 L 99.25894 77.70642 M 95.00711 97.13303 L 99.25894 97.13303 M 95.00711 116.55965 L 99.25894 116.55965 "/>
<path transform="matrix(1,0,0,-1,.199,148.884)" stroke-width="1" stroke-linecap="butt" stroke-miterlimit="10" stroke-linejoin="miter" fill="none" stroke="#000000" d="M 0 38.85321 L 192.27355 38.85321 "/>
<path transform="matrix(1,0,0,-1,192.47255,110.03079)" d="M 1.99252 0 L -1.19551 1.59401 L 0 0 L -1.19551 -1.59401 "/>
<path transform="matrix(1,0,0,-1,.199,148.884)" stroke-width="1" stroke-linecap="butt" stroke-miterlimit="10" stroke-linejoin="miter" fill="none" stroke="#000000" d="M 97.13303 -12.69994 L 97.13303 146.69367 "/>
<path transform="matrix(0,-1,-1,-0,97.33203,2.1903382)" d="M 1.99252 0 L -1.19551 1.59401 L 0 0 L -1.19551 -1.59401 "/>
<symbol id="font_0_1">
<path d="M .57600006 0 C .59300008 0 .611 0 .611 .019999996 C .611 .040000008 .59300008 .040000008 .57600006 .040000008 L .035000005 .040000008 C .018 .040000008 0 .040000008 0 .019999996 C 0 0 .018 0 .035000005 0 L .57600006 0 Z "/>
</symbol>
<use xlink:href="#font_0_1" transform="matrix(9.9626,0,0,-9.9626,14.087896,119.8056)"/>
<symbol id="font_1_4">
<path d="M .266 .165 L .266 .078 C .266 .042000005 .26400004 .031000002 .19000001 .031000002 L .16900002 .031000002 L .16900002 0 C .21000001 .003 .26200003 .003 .30400003 .003 C .34600003 .003 .39900003 .003 .44000004 0 L .44000004 .031000002 L .41900004 .031000002 C .34500004 .031000002 .34300003 .042000005 .34300003 .078 L .34300003 .165 L .44300003 .165 L .44300003 .19600001 L .34300003 .19600001 L .34300003 .651 C .34300003 .671 .34300003 .67700007 .32700003 .67700007 C .31800003 .67700007 .31500004 .67700007 .307 .665 L 0 .19600001 L 0 .165 L .266 .165 M .272 .19600001 L .028 .19600001 L .272 .569 L .272 .19600001 Z "/>
</symbol>
<use xlink:href="#font_1_4" transform="matrix(9.9626,0,0,-9.9626,21.287953,122.097)"/>
<use xlink:href="#font_0_1" transform="matrix(9.9626,0,0,-9.9626,33.513898,119.8056)"/>
<symbol id="font_1_3">
<path d="M .24800003 .37400005 C .33 .40100003 .388 .47100006 .388 .55 C .388 .632 .3 .688 .204 .688 C .10300001 .688 .027000003 .628 .027000003 .55200007 C .027000003 .519 .049000004 .5 .078 .5 C .109000008 .5 .12900001 .522 .12900001 .55100008 C .12900001 .6010001 .082 .6010001 .067 .6010001 C .098 .65000006 .164 .66300007 .20000002 .66300007 C .24100003 .66300007 .29600004 .64100006 .29600004 .55100008 C .29600004 .53900006 .29400004 .48100005 .268 .43700005 C .238 .38900004 .204 .38600005 .17900002 .38500003 C .171 .38400004 .14700002 .38200004 .14000002 .38200004 C .132 .38100005 .125 .38000003 .125 .37000004 C .125 .35900004 .132 .35900004 .14900002 .35900004 L .19300002 .35900004 C .275 .35900004 .312 .29100005 .312 .193 C .312 .057000005 .24300003 .028 .199 .028 C .15600002 .028 .081 .045 .046000005 .104 C .081 .09900001 .11200001 .12100001 .11200001 .15900001 C .11200001 .19500001 .085 .215 .056 .215 C .031999999 .215 0 .201 0 .157 C 0 .06600001 .093 0 .20200002 0 C .32400004 0 .41500003 .091000009 .41500003 .193 C .41500003 .27500005 .35200004 .35300005 .24800003 .37400005 Z "/>
</symbol>
<use xlink:href="#font_1_3" transform="matrix(9.9626,0,0,-9.9626,40.85443,122.31618)"/>
<use xlink:href="#font_0_1" transform="matrix(9.9626,0,0,-9.9626,52.9399,119.8056)"/>
<symbol id="font_1_2">
<path d="M .07700001 .07700001 L .18300002 .18 C .33900003 .31800003 .39900003 .372 .39900003 .47200004 C .39900003 .586 .30900003 .666 .18700002 .666 C .074 .666 0 .574 0 .485 C 0 .42900003 .05 .42900003 .053000008 .42900003 C .07000001 .42900003 .105000007 .441 .105000007 .48200003 C .105000007 .508 .08700001 .53400006 .052000006 .53400006 C .044000005 .53400006 .042000008 .53400006 .039 .53300008 C .062000004 .59800007 .11600001 .63500007 .17400001 .63500007 C .26500003 .63500007 .308 .554 .308 .47200004 C .308 .39200003 .25800003 .31300003 .20300003 .25100003 L .011000004 .037 C 0 .026 0 .024 0 0 L .37100003 0 L .39900003 .17400001 L .374 .17400001 C .36900003 .14400001 .36200003 .1 .352 .085 C .345 .07700001 .279 .07700001 .257 .07700001 L .07700001 .07700001 Z "/>
</symbol>
<use xlink:href="#font_1_2" transform="matrix(9.9626,0,0,-9.9626,60.360136,122.097)"/>
<use xlink:href="#font_0_1" transform="matrix(9.9626,0,0,-9.9626,72.3669,119.8056)"/>
<symbol id="font_1_1">
<path d="M .205 .64000007 C .205 .66400006 .205 .666 .18200003 .666 C .120000008 .60200008 .032000007 .60200008 0 .60200008 L 0 .57100006 C .020000004 .57100006 .07900001 .57100006 .13100001 .597 L .13100001 .079 C .13100001 .043 .128 .031000002 .038000004 .031000002 L .0060000049 .031000002 L .0060000049 0 C .04100001 .003 .128 .003 .168 .003 C .20800002 .003 .29500003 .003 .33000005 0 L .33000005 .031000002 L .29800005 .031000002 C .20800002 .031000002 .205 .042000005 .205 .079 L .205 .64000007 Z "/>
</symbol>
<use xlink:href="#font_1_1" transform="matrix(9.9626,0,0,-9.9626,80.174678,122.097)"/>
<use xlink:href="#font_1_1" transform="matrix(9.9626,0,0,-9.9626,115.15367,122.097)"/>
<use xlink:href="#font_1_2" transform="matrix(9.9626,0,0,-9.9626,134.19113,122.097)"/>
<use xlink:href="#font_1_3" transform="matrix(9.9626,0,0,-9.9626,153.53743,122.31618)"/>
<use xlink:href="#font_1_4" transform="matrix(9.9626,0,0,-9.9626,172.82495,122.097)"/>
<use xlink:href="#font_0_1" transform="matrix(9.9626,0,0,-9.9626,79.78189,129.96161)"/>
<use xlink:href="#font_1_1" transform="matrix(9.9626,0,0,-9.9626,87.59067,132.253)"/>
<use xlink:href="#font_1_1" transform="matrix(9.9626,0,0,-9.9626,87.59067,93.815)"/>
<use xlink:href="#font_1_2" transform="matrix(9.9626,0,0,-9.9626,87.202129,74.38899)"/>
<use xlink:href="#font_1_3" transform="matrix(9.9626,0,0,-9.9626,87.12242,55.181184)"/>
<use xlink:href="#font_1_4" transform="matrix(9.9626,0,0,-9.9626,86.98295,35.536005)"/>
<clipPath id="cp2">
<path transform="matrix(1,0,0,-1,.199,148.884)" d="M 0 -12.69994 L 194.26607 -12.69994 L 194.26607 148.68619 L 0 148.68619 Z "/>
</clipPath>
<g clip-path="url(#cp2)">
<path transform="matrix(1,0,0,-1,.199,148.884)" stroke-width="1" stroke-linecap="butt" stroke-miterlimit="10" stroke-linejoin="miter" fill="none" stroke="#000000" d="M 19.75064 116.2356 L 19.94637 116.03986 L 20.46614 115.52008 L 20.98592 115.00032 L 21.50569 114.48055 L 22.02545 113.96077 L 22.54523 113.441 L 23.065 112.92123 L 23.58476 112.40146 L 24.10454 111.88168 L 24.62431 111.36192 L 25.14407 110.84215 L 25.66385 110.32237 L 26.18364 109.8026 L 26.70341 109.28282 L 27.22318 108.76305 L 27.74295 108.24327 L 28.26273 107.72351 L 28.78249 107.20374 L 29.30226 106.68396 L 29.82204 106.1642 L 30.3418 105.64442 L 30.86157 105.12465 L 31.38135 104.60489 L 31.90112 104.08511 L 32.42088 103.56534 L 32.94067 103.04555 L 33.46045 102.52579 L 33.98021 102.00601 L 34.49998 101.48624 L 35.01976 100.96648 L 35.53952 100.4467 L 36.0593 99.92693 L 36.57907 99.40717 L 37.09885 98.88739 L 37.6186 98.36761 L 38.13838 97.84784 L 38.65816 97.32808 L 39.17792 96.8083 L 39.69771 96.28851 L 40.21748 95.76875 L 40.73724 95.24898 L 41.25702 94.7292 L 41.7768 94.20943 L 42.29657 93.68967 L 42.81633 93.16989 L 43.3361 92.65012 L 43.85588 92.13036 L 44.37564 91.61058 L 44.89542 91.0908 L 45.41519 90.57104 L 45.93497 90.05125 L 46.45474 89.53148 L 46.97452 89.0117 L 47.4943 88.49194 L 48.01405 87.97217 L 48.53383 87.4524 L 49.0536 86.93263 L 49.57336 86.41286 L 50.09314 85.89308 L 50.61292 85.37332 L 51.13268 84.85355 L 51.65245 84.33377 L 52.17223 83.814 L 52.69202 83.29422 L 53.21178 82.77444 L 53.73155 82.25467 L 54.25133 81.73491 L 54.77109 81.21513 L 55.29086 80.69536 L 55.81064 80.1756 L 56.33041 79.65582 L 56.85017 79.13605 L 57.36995 78.61627 L 57.88972 78.09651 L 58.40948 77.57674 L 58.92926 77.05696 L 59.44905 76.53719 L 59.96881 76.01741 L 60.48859 75.49763 L 61.00836 74.97787 L 61.52814 74.4581 L 62.0479 73.93832 L 62.56767 73.41855 L 63.08745 72.89879 L 63.60721 72.37901 L 64.12698 71.85924 L 64.64676 71.33948 L 65.16652 70.8197 L 65.68631 70.29991 L 66.20609 69.78015 L 66.72586 69.26038 L 67.24562 68.7406 L 67.7654 68.22083 L 68.28517 67.70107 L 68.80493 67.18129 L 69.3247 66.66151 L 69.84448 66.14175 L 70.36424 65.62198 L 70.88402 65.1022 L 71.4038 64.58243 L 71.92357 64.06267 L 72.44334 63.54288 L 72.96312 63.0231 L 73.4829 62.50334 L 74.00266 61.98357 L 74.52243 61.46379 L 75.0422 60.94403 L 75.56197 60.42426 L 76.08174 59.90448 L 76.60152 59.3847 L 77.12129 58.86494 L 77.64105 58.34517 L 78.16083 57.8254 L 78.6806 57.30563 L 79.20038 56.78584 L 79.72015 56.26607 L 80.23993 55.7463 L 80.75969 55.22653 L 81.27946 54.70676 L 81.79924 54.18698 L 82.31902 53.66722 L 82.83878 53.14745 L 83.35855 52.62767 L 83.87833 52.10791 L 84.3981 51.58812 L 84.91788 51.06834 L 85.43765 50.54858 L 85.95743 50.02881 L 86.47719 49.50903 L 86.99696 48.98926 L 87.51674 48.4695 L 88.0365 47.94972 L 88.55627 47.42995 L 89.07605 46.91019 L 89.59583 46.3904 L 90.1156 45.87062 L 90.63538 45.35086 L 91.15515 44.83109 L 91.67491 44.31131 L 92.19469 43.79153 L 92.71446 43.27177 L 93.23422 42.752 L 93.754 42.23222 L 94.27377 41.71246 L 94.79353 41.19269 L 95.31332 40.6729 L 95.8331 40.15314 L 96.35287 39.63336 L 96.87263 39.11359 L 97.39241 39.11258 L 97.91219 39.63235 L 98.43195 40.15213 L 98.95172 40.67189 L 99.4715 41.19167 L 99.99127 41.71146 L 100.51105 42.23123 L 101.03082 42.75099 L 101.5506 43.27077 L 102.07036 43.79054 L 102.59013 44.3103 L 103.10991 44.83008 L 103.62967 45.34985 L 104.14944 45.86961 L 104.66924 46.3894 L 105.189 46.90918 L 105.70877 47.42896 L 106.22855 47.94872 L 106.74832 48.46849 L 107.26808 48.98827 L 107.78786 49.50803 L 108.30763 50.0278 L 108.8274 50.54758 L 109.34717 51.06735 L 109.86694 51.58711 L 110.38672 52.1069 L 110.9065 52.62668 L 111.42627 53.14644 L 111.94604 53.66621 L 112.4658 54.18599 L 112.98558 54.70575 L 113.50536 55.22552 L 114.02512 55.7453 L 114.54489 56.26508 L 115.06468 56.78485 L 115.58444 57.30463 L 116.10422 57.8244 L 116.624 58.34416 L 117.14377 58.86394 L 117.66353 59.38371 L 118.1833 59.90347 L 118.70308 60.42325 L 119.22284 60.94302 L 119.74261 61.4628 L 120.26239 61.98256 L 120.78217 62.50233 L 121.30193 63.02211 L 121.82172 63.54189 L 122.34149 64.06166 L 122.86125 64.58144 L 123.38103 65.1012 L 123.9008 65.62097 L 124.42056 66.14075 L 124.94034 66.66052 L 125.46011 67.18028 L 125.97989 67.70006 L 126.49965 68.21983 L 127.01942 68.7396 L 127.5392 69.25937 L 128.05898 69.77916 L 128.57875 70.29892 L 129.09853 70.8187 L 129.61829 71.33847 L 130.13806 71.85825 L 130.65784 72.378 L 131.17761 72.89778 L 131.69738 73.41756 L 132.21715 73.93732 L 132.73693 74.45709 L 133.25669 74.97687 L 133.77646 75.49663 L 134.29624 76.0164 L 134.81601 76.5362 L 135.33579 77.05597 L 135.85556 77.57573 L 136.37534 78.0955 L 136.8951 78.61528 L 137.41487 79.13504 L 137.93465 79.65482 L 138.4544 80.17459 L 138.97418 80.69435 L 139.49396 81.21413 L 140.01372 81.7339 L 140.5335 82.25368 L 141.05327 82.77344 L 141.57306 83.29323 L 142.09282 83.813 L 142.6126 84.33276 L 143.13237 84.85254 L 143.65213 85.37231 L 144.1719 85.89209 L 144.69168 86.41185 L 145.21144 86.93163 L 145.73122 87.4514 L 146.25099 87.97116 L 146.77077 88.49094 L 147.29053 89.01071 L 147.81032 89.53049 L 148.3301 90.05026 L 148.84986 90.57004 L 149.36963 91.08981 L 149.8894 91.60957 L 150.40918 92.12935 L 150.92894 92.64912 L 151.44872 93.16888 L 151.96849 93.68866 L 152.48825 94.20844 L 153.00803 94.7282 L 153.5278 95.24797 L 154.04756 95.76775 L 154.56735 96.28754 L 155.08713 96.8073 L 155.6069 97.32707 L 156.12667 97.84685 L 156.64644 98.36661 L 157.16622 98.88638 L 157.68598 99.40616 L 158.20575 99.92592 L 158.72553 100.4457 L 159.24529 100.96547 L 159.76506 101.48524 L 160.28484 102.005 L 160.80461 102.52478 L 161.32439 103.04457 L 161.84416 103.56433 L 162.36394 104.0841 L 162.8837 104.60388 L 163.40348 105.12364 L 163.92325 105.64342 L 164.44301 106.1632 L 164.96279 106.68297 L 165.48256 107.20273 L 166.00234 107.7225 L 166.5221 108.24228 L 167.04187 108.76204 L 167.56165 109.28181 L 168.08142 109.8016 L 168.6012 110.32137 L 169.12097 110.84114 L 169.64073 111.36092 L 170.1605 111.88069 L 170.68029 112.40045 L 171.20006 112.92023 L 171.71982 113.44 L 172.2396 113.95976 L 172.75937 114.47954 L 173.27913 114.99931 L 173.7989 115.51909 L 174.3187 116.03886 L 174.51442 116.23459 "/>
<path transform="matrix(-.7071,-.7071,-.7071,.7071,19.94964,32.6484)" stroke-width="1" stroke-linecap="round" stroke-linejoin="round" fill="none" stroke="#000000" d="M -1.19551 1.59401 C -1.09587 .99626 0 .09961 .29886 0 C 0 -.09961 -1.09587 -.99626 -1.19551 -1.59401 "/>
<path transform="matrix(.7071,-.7071,-.7071,-.7071,174.71343,32.649415)" stroke-width="1" stroke-linecap="round" stroke-linejoin="round" fill="none" stroke="#000000" d="M -1.19551 1.59401 C -1.09587 .99626 0 .09961 .29886 0 C 0 -.09961 -1.09587 -.99626 -1.19551 -1.59401 "/>
<symbol id="font_3_2">
<path d="M .45700003 .586 C .461 .6 .461 .602 .461 .609 C .461 .62700006 .447 .63600006 .432 .63600006 C .42200003 .63600006 .40600003 .63 .397 .615 C .395 .61 .387 .579 .38300003 .561 C .37600003 .535 .36900003 .508 .363 .48100005 L .318 .301 C .314 .286 .271 .21600002 .20500002 .21600002 C .15400002 .21600002 .143 .26000003 .143 .29700003 C .143 .34300003 .16000001 .40500004 .194 .49300004 C .21000001 .53400006 .21400002 .545 .21400002 .56500008 C .21400002 .61 .18200001 .6470001 .13200002 .6470001 C .037 .6470001 0 .50200006 0 .49300004 C 0 .48300005 .01 .48300005 .012 .48300005 C .022000002 .48300005 .023 .485 .028000003 .50100007 C .055000009 .595 .095000009 .625 .12900001 .625 C .13700001 .625 .15400002 .625 .15400002 .59300008 C .15400002 .568 .14400001 .54200008 .13700001 .523 C .097 .41700004 .079 .36 .079 .31300003 C .079 .224 .142 .194 .201 .194 C .24000003 .194 .274 .21100001 .30200003 .23900002 C .289 .187 .277 .13800001 .237 .08500001 C .21100001 .051 .17300001 .022 .127 .022 C .113000009 .022 .068 .025000006 .051000008 .06400001 C .067 .06400001 .080000009 .06400001 .094000007 .076000008 C .104 .08500001 .11400001 .098000008 .11400001 .117000009 C .11400001 .148 .087000008 .15200001 .07700001 .15200001 C .054000006 .15200001 .021 .136 .021 .087000008 C .021 .037 .065000008 0 .127 0 C .23 0 .333 .091000009 .361 .20400001 L .45700003 .586 Z "/>
</symbol>
<use xlink:href="#font_3_2" transform="matrix(9.9626,0,0,-9.9626,147.79192,67.91134)"/>
<symbol id="font_1_5">
<path d="M .63100007 .19400002 C .646 .19400002 .665 .19400002 .665 .214 C .665 .23400001 .646 .23400001 .632 .23400001 L .033 .23400001 C .019000002 .23400001 0 .23400001 0 .214 C 0 .19400002 .019000002 .19400002 .034 .19400002 L .63100007 .19400002 M .632 0 C .646 0 .665 0 .665 .02000001 C .665 .040000008 .646 .040000008 .63100007 .040000008 L .034 .040000008 C .019000002 .040000008 0 .040000008 0 .02000001 C 0 0 .019000002 0 .033 0 L .632 0 Z "/>
</symbol>
<use xlink:href="#font_1_5" transform="matrix(9.9626,0,0,-9.9626,156.0709,64.543979)"/>
<symbol id="font_0_2">
<path d="M .040000008 .96400007 C .040000008 .98200008 .040000008 1 .02000001 1 C 0 1 0 .98200008 0 .96400007 L 0 .035999985 C 0 .017999992 0 0 .02000001 0 C .040000008 0 .040000008 .017999992 .040000008 .035999985 L .040000008 .96400007 Z "/>
</symbol>
<use xlink:href="#font_0_2" transform="matrix(9.9626,0,0,-9.9626,167.21456,68.35965)"/>
<symbol id="font_3_1">
<path d="M .305 .31300003 C .311 .33900003 .334 .43100003 .404 .43100003 C .409 .43100003 .433 .43100003 .454 .418 C .426 .41300003 .40600003 .388 .40600003 .36400003 C .40600003 .34800003 .417 .32900004 .444 .32900004 C .46600003 .32900004 .498 .34700004 .498 .38700003 C .498 .43900005 .439 .45300005 .405 .45300005 C .347 .45300005 .312 .40000005 .3 .37700004 C .275 .44300003 .221 .45300005 .19200002 .45300005 C .08800001 .45300005 .031000002 .32400004 .031000002 .29900003 C .031000002 .28900004 .041 .28900004 .043000007 .28900004 C .051000008 .28900004 .054000006 .291 .056 .3 C .09 .40600003 .156 .43100003 .19000001 .43100003 C .209 .43100003 .244 .42200003 .244 .36400003 C .244 .33300004 .22700002 .26600004 .19000001 .126 C .17400001 .064 .13900002 .022000002 .095000009 .022000002 C .08900001 .022000002 .06600001 .022000002 .045 .035 C .07000001 .040000004 .09200001 .061 .09200001 .089 C .09200001 .116000007 .07000001 .124000009 .055000009 .124000009 C .025 .124000009 0 .098000008 0 .06600001 C 0 .020000002 .050000006 0 .094000007 0 C .16000001 0 .19600001 .07000001 .19900002 .076000008 C .21100001 .039 .24700003 0 .307 0 C .41 0 .467 .12900001 .467 .15400002 C .467 .16400002 .458 .16400002 .455 .16400002 C .446 .16400002 .444 .16000001 .442 .15300001 C .409 .046 .341 .022000002 .30900003 .022000002 C .27 .022000002 .254 .054 .254 .08800001 C .254 .11000001 .26 .13200002 .271 .17600002 L .305 .31300003 Z "/>
</symbol>
<use xlink:href="#font_3_1" transform="matrix(9.9626,0,0,-9.9626,169.08492,65.97859)"/>
<use xlink:href="#font_0_2" transform="matrix(9.9626,0,0,-9.9626,175.67555,68.35965)"/>
</g>
<use xlink:href="#font_3_1" transform="matrix(9.9626,0,0,-9.9626,185.57192,106.61459)"/>
<use xlink:href="#font_3_2" transform="matrix(9.9626,0,0,-9.9626,101.16292,10.018332)"/>
</svg>
