<?xml version="1.0" encoding="UTF-8" standalone="no"?>
<!DOCTYPE svg PUBLIC "-//W3C//DTD SVG 1.1//EN" "http://www.w3.org/Graphics/SVG/1.1/DTD/svg11.dtd">
<svg xmlns="http://www.w3.org/2000/svg" xmlns:xlink="http://www.w3.org/1999/xlink" version="1.1" width="216.167pt" height="174.871pt" viewBox="0 0 216.167 174.871">
<path transform="matrix(1,0,0,-1,21.696,167.925)" stroke-width="1" stroke-linecap="butt" stroke-miterlimit="10" stroke-linejoin="miter" fill="none" stroke="#808080" d="M 38.85474 38.2231 L 38.85474 42.47505 M 77.70947 38.2231 L 77.70947 42.47505 M 116.56421 38.2231 L 116.56421 42.47505 M 155.41895 38.2231 L 155.41895 42.47505 "/>
<path transform="matrix(1,0,0,-1,21.696,167.925)" stroke-width="1" stroke-linecap="butt" stroke-miterlimit="10" stroke-linejoin="miter" fill="none" stroke="#808080" d="M -2.126 0 L 2.126 0 M -2.126 80.69818 L 2.126 80.69818 M -2.126 121.04727 L 2.126 121.04727 M -2.126 161.39636 L 2.126 161.39636 "/>
<path transform="matrix(1,0,0,-1,21.696,167.925)" stroke-width="1" stroke-linecap="butt" stroke-miterlimit="10" stroke-linejoin="miter" fill="none" stroke="#000000" d="M 0 40.34909 L 192.28116 40.34909 "/>
<path transform="matrix(1,0,0,-1,213.97716,127.57591)" d="M 1.99252 0 L -1.19551 1.59401 L 0 0 L -1.19551 -1.59401 "/>
<path transform="matrix(1,0,0,-1,21.696,167.925)" stroke-width="1" stroke-linecap="butt" stroke-miterlimit="10" stroke-linejoin="miter" fill="none" stroke="#000000" d="M 0 0 L 0 159.40384 "/>
<path transform="matrix(0,-1,-1,-0,21.696,8.521164)" d="M 1.99252 0 L -1.19551 1.59401 L 0 0 L -1.19551 -1.59401 "/>
<symbol id="font_0_1">
<path d="M .205 .64000007 C .205 .66400006 .205 .666 .18200003 .666 C .120000008 .60200008 .032000007 .60200008 0 .60200008 L 0 .57100006 C .020000004 .57100006 .07900001 .57100006 .13100001 .597 L .13100001 .079 C .13100001 .043 .128 .031000002 .038000004 .031000002 L .0060000049 .031000002 L .0060000049 0 C .04100001 .003 .128 .003 .168 .003 C .20800002 .003 .29500003 .003 .33000005 0 L .33000005 .031000002 L .29800005 .031000002 C .20800002 .031000002 .205 .042000005 .205 .079 L .205 .64000007 Z "/>
</symbol>
<use xlink:href="#font_0_1" transform="matrix(9.9626,0,0,-9.9626,58.94667,139.643)"/>
<symbol id="font_0_2">
<path d="M .07700001 .07700001 L .18300002 .18 C .33900003 .31800003 .39900003 .372 .39900003 .47200004 C .39900003 .586 .30900003 .666 .18700002 .666 C .074 .666 0 .574 0 .485 C 0 .42900003 .05 .42900003 .053000008 .42900003 C .07000001 .42900003 .105000007 .441 .105000007 .48200003 C .105000007 .508 .08700001 .53400006 .052000006 .53400006 C .044000005 .53400006 .042000008 .53400006 .039 .53300008 C .062000004 .59800007 .11600001 .63500007 .17400001 .63500007 C .26500003 .63500007 .308 .554 .308 .47200004 C .308 .39200003 .25800003 .31300003 .20300003 .25100003 L .011000004 .037 C 0 .026 0 .024 0 0 L .37100003 0 L .39900003 .17400001 L .374 .17400001 C .36900003 .14400001 .36200003 .1 .352 .085 C .345 .07700001 .279 .07700001 .257 .07700001 L .07700001 .07700001 Z "/>
</symbol>
<use xlink:href="#font_0_2" transform="matrix(9.9626,0,0,-9.9626,97.41213,139.643)"/>
<symbol id="font_0_3">
<path d="M .24800003 .37400005 C .33 .40100003 .388 .47100006 .388 .55 C .388 .632 .3 .688 .204 .688 C .10300001 .688 .027000003 .628 .027000003 .55200007 C .027000003 .519 .049000004 .5 .078 .5 C .109000008 .5 .12900001 .522 .12900001 .55100008 C .12900001 .6010001 .082 .6010001 .067 .6010001 C .098 .65000006 .164 .66300007 .20000002 .66300007 C .24100003 .66300007 .29600004 .64100006 .29600004 .55100008 C .29600004 .53900006 .29400004 .48100005 .268 .43700005 C .238 .38900004 .204 .38600005 .17900002 .38500003 C .171 .38400004 .14700002 .38200004 .14000002 .38200004 C .132 .38100005 .125 .38000003 .125 .37000004 C .125 .35900004 .132 .35900004 .14900002 .35900004 L .19300002 .35900004 C .275 .35900004 .312 .29100005 .312 .193 C .312 .057000005 .24300003 .028 .199 .028 C .15600002 .028 .081 .045 .046000005 .104 C .081 .09900001 .11200001 .12100001 .11200001 .15900001 C .11200001 .19500001 .085 .215 .056 .215 C .031999999 .215 0 .201 0 .157 C 0 .06600001 .093 0 .20200002 0 C .32400004 0 .41500003 .091000009 .41500003 .193 C .41500003 .27500005 .35200004 .35300005 .24800003 .37400005 Z "/>
</symbol>
<use xlink:href="#font_0_3" transform="matrix(9.9626,0,0,-9.9626,136.18643,139.86219)"/>
<symbol id="font_0_4">
<path d="M .266 .165 L .266 .078 C .266 .042000005 .26400004 .031000002 .19000001 .031000002 L .16900002 .031000002 L .16900002 0 C .21000001 .003 .26200003 .003 .30400003 .003 C .34600003 .003 .39900003 .003 .44000004 0 L .44000004 .031000002 L .41900004 .031000002 C .34500004 .031000002 .34300003 .042000005 .34300003 .078 L .34300003 .165 L .44300003 .165 L .44300003 .19600001 L .34300003 .19600001 L .34300003 .651 C .34300003 .671 .34300003 .67700007 .32700003 .67700007 C .31800003 .67700007 .31500004 .67700007 .307 .665 L 0 .19600001 L 0 .165 L .266 .165 M .272 .19600001 L .028 .19600001 L .272 .569 L .272 .19600001 Z "/>
</symbol>
<use xlink:href="#font_0_4" transform="matrix(9.9626,0,0,-9.9626,174.90195,139.643)"/>
<symbol id="font_1_1">
<path d="M .57600006 0 C .59300008 0 .611 0 .611 .019999996 C .611 .040000008 .59300008 .040000008 .57600006 .040000008 L .035000005 .040000008 C .018 .040000008 0 .040000008 0 .019999996 C 0 0 .018 0 .035000005 0 L .57600006 0 Z "/>
</symbol>
<use xlink:href="#font_1_1" transform="matrix(9.9626,0,0,-9.9626,4.147895,168.4286)"/>
<use xlink:href="#font_0_1" transform="matrix(9.9626,0,0,-9.9626,11.95567,170.72)"/>
<use xlink:href="#font_0_1" transform="matrix(9.9626,0,0,-9.9626,11.95567,90.438)"/>
<use xlink:href="#font_0_2" transform="matrix(9.9626,0,0,-9.9626,11.567129,50.090005)"/>
<use xlink:href="#font_0_3" transform="matrix(9.9626,0,0,-9.9626,11.487429,9.960175)"/>
<clipPath id="cp2">
<path transform="matrix(1,0,0,-1,21.696,167.925)" d="M 0 0 L 194.27368 0 L 194.27368 161.39636 L 0 161.39636 Z "/>
</clipPath>
<g clip-path="url(#cp2)">
<path transform="matrix(1,0,0,-1,21.696,167.925)" stroke-width="1" stroke-linecap="butt" stroke-miterlimit="10" stroke-linejoin="miter" fill="none" stroke="#000000" d="M 0 40.34909 L .51978 45.01588 L 1.03957 46.94893 L 1.55936 48.43222 L 2.07915 49.6827 L 2.59894 50.78436 L 3.11874 51.78036 L 3.63852 52.69629 L 4.15831 53.54898 L 4.6781 54.3497 L 5.19788 55.10703 L 5.71768 55.82735 L 6.23747 56.5156 L 6.75726 57.17572 L 7.27705 57.81091 L 7.79684 58.4238 L 8.31665 59.01657 L 8.83643 59.59108 L 9.35622 60.14893 L 9.876 60.6915 L 10.39578 61.21997 L 10.91559 61.73538 L 11.43538 62.23866 L 11.95518 62.7306 L 12.47496 63.21199 L 12.99475 63.68344 L 13.51456 64.14554 L 14.03433 64.59885 L 14.55412 65.04384 L 15.07391 65.48096 L 15.59369 65.91058 L 16.1135 66.33313 L 16.63329 66.7489 L 17.15309 67.15822 L 17.67287 67.56139 L 18.19266 67.95868 L 18.71246 68.35033 L 19.23224 68.73656 L 19.75203 69.11761 L 20.27182 69.4937 L 20.7916 69.86497 L 21.3114 70.23164 L 21.83119 70.59387 L 22.35097 70.95181 L 22.87077 71.3056 L 23.39056 71.65541 L 23.91037 72.00136 L 24.43015 72.34355 L 24.94994 72.68213 L 25.46973 73.0172 L 25.9895 73.34885 L 26.50931 73.67722 L 27.0291 74.00237 L 27.54889 74.32443 L 28.06868 74.64343 L 28.58847 74.95953 L 29.10828 75.27275 L 29.62805 75.58319 L 30.14784 75.89091 L 30.66763 76.196 L 31.18741 76.49852 L 31.70721 76.79852 L 32.227 77.09608 L 32.7468 77.39122 L 33.26659 77.68407 L 33.78638 77.97461 L 34.30618 78.26292 L 34.82596 78.54909 L 35.34575 78.83308 L 35.86554 79.11504 L 36.38531 79.39494 L 36.90512 79.67285 L 37.42491 79.9488 L 37.94469 80.22285 L 38.4645 80.49503 L 38.98428 80.76474 L 39.50406 81.03326 L 40.02385 81.30013 L 40.54364 81.56511 L 41.06343 81.8285 L 41.5832 82.09021 L 42.103 82.35027 L 42.62279 82.60875 L 43.14256 82.86569 L 43.66235 83.12096 L 44.18214 83.37485 L 44.70192 83.62718 L 45.22171 83.87808 L 45.74152 84.12749 L 46.2613 84.37555 L 46.78108 84.62221 L 47.30087 84.86748 L 47.82066 85.11143 L 48.34044 85.35405 L 48.86023 85.59534 L 49.38002 85.8354 L 49.8998 86.07416 L 50.41959 86.31174 L 50.93938 86.54802 L 51.45917 86.7831 L 51.97894 87.01707 L 52.49873 87.24977 L 53.01852 87.48141 L 53.5383 87.71185 L 54.05809 87.94124 L 54.57788 88.16953 L 55.09766 88.39665 L 55.61745 88.62282 L 56.13724 88.84784 L 56.65703 89.0719 L 57.1768 89.29482 L 57.6966 89.51688 L 58.21638 89.73782 L 58.73616 89.95781 L 59.25595 90.17677 L 59.77574 90.39487 L 60.29552 90.61203 L 60.8153 90.82817 L 61.3351 91.0434 L 61.85489 91.2578 L 62.37466 91.47125 L 62.89445 91.68385 L 63.41425 91.89552 L 63.93402 92.10632 L 64.45381 92.31631 L 64.9736 92.52542 L 65.4934 92.7337 L 66.01318 92.94116 L 66.53297 93.1478 L 67.05275 93.35365 L 67.57254 93.55872 L 68.09233 93.763 L 68.61212 93.96648 L 69.1319 94.16914 L 69.65169 94.37111 L 70.17148 94.57228 L 70.69125 94.77275 L 71.21104 94.97247 L 71.73083 95.17146 L 72.25061 95.36978 L 72.7704 95.56729 L 73.29019 95.7642 L 73.80998 95.96034 L 74.32976 96.15582 L 74.84955 96.35063 L 75.36934 96.54468 L 75.88911 96.73814 L 76.4089 96.93097 L 76.9287 97.12308 L 77.44847 97.31453 L 77.96826 97.50537 L 78.48805 97.69559 L 79.00784 97.88515 L 79.52762 98.0741 L 80.04741 98.2625 L 80.5672 98.4502 L 81.08698 98.63728 L 81.60677 98.82378 L 82.12656 99.00972 L 82.64633 99.19511 L 83.16612 99.37987 L 83.68591 99.56403 L 84.2057 99.74762 L 84.72548 99.93068 L 85.24529 100.11314 L 85.76508 100.29507 L 86.28485 100.47649 L 86.80464 100.65729 L 87.32443 100.8376 L 87.84421 101.01732 L 88.364 101.19662 L 88.88379 101.37529 L 89.40358 101.55348 L 89.92336 101.73114 L 90.44315 101.90826 L 90.96294 102.08493 L 91.48271 102.2611 L 92.0025 102.43674 L 92.5223 102.61185 L 93.04207 102.78647 L 93.56186 102.96065 L 94.08165 103.13437 L 94.60143 103.30753 L 95.12122 103.48024 L 95.641 103.65248 L 96.1608 103.82425 L 96.68057 103.99562 L 97.20036 104.16646 L 97.72015 104.33688 L 98.23993 104.50684 L 98.75972 104.67638 L 99.27951 104.84544 L 99.79929 105.01402 L 100.31908 105.18219 L 100.83887 105.34993 L 101.35866 105.5173 L 101.87843 105.6841 L 102.39822 105.85057 L 102.91801 106.01666 L 103.43779 106.18225 L 103.95758 106.34744 L 104.47737 106.51225 L 104.99716 106.67664 L 105.51695 106.84059 L 106.03674 107.00417 L 106.55653 107.16733 L 107.07631 107.33014 L 107.5961 107.4925 L 108.11589 107.65446 L 108.63567 107.8161 L 109.15546 107.97726 L 109.67525 108.13809 L 110.19502 108.2986 L 110.71481 108.45863 L 111.2346 108.61833 L 111.7544 108.77766 L 112.27417 108.93665 L 112.79396 109.09517 L 113.31375 109.25337 L 113.83353 109.41125 L 114.35332 109.56876 L 114.87311 109.7259 L 115.39288 109.88266 L 115.91267 110.03911 L 116.43246 110.1952 L 116.95226 110.35095 L 117.47203 110.5063 L 117.99182 110.66139 L 118.51161 110.81601 L 119.03139 110.97049 L 119.55118 111.12445 L 120.07097 111.27818 L 120.59074 111.43147 L 121.11053 111.58455 L 121.63033 111.73723 L 122.1501 111.88962 L 122.66989 112.04166 L 123.18968 112.19337 L 123.70947 112.34477 L 124.22926 112.49591 L 124.74905 112.64662 L 125.26884 112.79707 L 125.78862 112.94725 L 126.30841 113.09712 L 126.8282 113.24669 L 127.34798 113.3959 L 127.86777 113.54478 L 128.38756 113.6934 L 128.90735 113.8417 L 129.42713 113.98976 L 129.94692 114.13748 L 130.4667 114.28491 L 130.98648 114.43202 L 131.50627 114.5789 L 132.02606 114.7255 L 132.54584 114.8717 L 133.06563 115.01768 L 133.58542 115.1634 L 134.10521 115.3088 L 134.62499 115.45393 L 135.14478 115.59875 L 135.66457 115.74338 L 136.18434 115.8877 L 136.70413 116.03171 L 137.22393 116.17548 L 137.7437 116.31891 L 138.26349 116.46211 L 138.78328 116.60503 L 139.30307 116.74774 L 139.82285 116.89014 L 140.34264 117.03224 L 140.86243 117.17407 L 141.3822 117.31569 L 141.902 117.45712 L 142.42179 117.59818 L 142.94156 117.73904 L 143.46135 117.87961 L 143.98116 118.01991 L 144.50095 118.16005 L 145.02072 118.2998 L 145.54051 118.43938 L 146.0603 118.5787 L 146.58008 118.71779 L 147.09987 118.85663 L 147.61966 118.99518 L 148.13944 119.13353 L 148.65923 119.27165 L 149.17902 119.40948 L 149.69879 119.54707 L 150.21858 119.68446 L 150.73838 119.82162 L 151.25817 119.95856 L 151.77794 120.09518 L 152.29773 120.2316 L 152.81752 120.36786 L 153.3373 120.5038 L 153.85709 120.63956 L 154.37688 120.77505 L 154.89665 120.91031 L 154.97293 120.93015 "/>
<path transform="matrix(.9678,-.25154,-.25154,-.9678,176.66893,46.994874)" stroke-width="1" stroke-linecap="round" stroke-linejoin="round" fill="none" stroke="#000000" d="M -1.19551 1.59401 C -1.09587 .99626 0 .09961 .29886 0 C 0 -.09961 -1.09587 -.99626 -1.19551 -1.59401 "/>
<symbol id="font_3_2">
<path d="M .45700003 .586 C .461 .6 .461 .602 .461 .609 C .461 .62700006 .447 .63600006 .432 .63600006 C .42200003 .63600006 .40600003 .63 .397 .615 C .395 .61 .387 .579 .38300003 .561 C .37600003 .535 .36900003 .508 .363 .48100005 L .318 .301 C .314 .286 .271 .21600002 .20500002 .21600002 C .15400002 .21600002 .143 .26000003 .143 .29700003 C .143 .34300003 .16000001 .40500004 .194 .49300004 C .21000001 .53400006 .21400002 .545 .21400002 .56500008 C .21400002 .61 .18200001 .6470001 .13200002 .6470001 C .037 .6470001 0 .50200006 0 .49300004 C 0 .48300005 .01 .48300005 .012 .48300005 C .022000002 .48300005 .023 .485 .028000003 .50100007 C .055000009 .595 .095000009 .625 .12900001 .625 C .13700001 .625 .15400002 .625 .15400002 .59300008 C .15400002 .568 .14400001 .54200008 .13700001 .523 C .097 .41700004 .079 .36 .079 .31300003 C .079 .224 .142 .194 .201 .194 C .24000003 .194 .274 .21100001 .30200003 .23900002 C .289 .187 .277 .13800001 .237 .08500001 C .21100001 .051 .17300001 .022 .127 .022 C .113000009 .022 .068 .025000006 .051000008 .06400001 C .067 .06400001 .080000009 .06400001 .094000007 .076000008 C .104 .08500001 .11400001 .098000008 .11400001 .117000009 C .11400001 .148 .087000008 .15200001 .07700001 .15200001 C .054000006 .15200001 .021 .136 .021 .087000008 C .021 .037 .065000008 0 .127 0 C .23 0 .333 .091000009 .361 .20400001 L .45700003 .586 Z "/>
</symbol>
<use xlink:href="#font_3_2" transform="matrix(9.9626,0,0,-9.9626,106.46592,53.10033)"/>
<symbol id="font_0_5">
<path d="M .63100007 .19400002 C .646 .19400002 .665 .19400002 .665 .214 C .665 .23400001 .646 .23400001 .632 .23400001 L .033 .23400001 C .019000002 .23400001 0 .23400001 0 .214 C 0 .19400002 .019000002 .19400002 .034 .19400002 L .63100007 .19400002 M .632 0 C .646 0 .665 0 .665 .02000001 C .665 .040000008 .646 .040000008 .63100007 .040000008 L .034 .040000008 C .019000002 .040000008 0 .040000008 0 .02000001 C 0 0 .019000002 0 .033 0 L .632 0 Z "/>
</symbol>
<use xlink:href="#font_0_5" transform="matrix(9.9626,0,0,-9.9626,114.74391,49.73297)"/>
<symbol id="font_1_2">
<path d="M .316 .10500002 L .14000002 .49400003 C .13300002 .51 .12799999 .51 .125 .51 C .124000009 .51 .118999999 .51 .108 .502 L .012999997 .43 C 0 .42000003 0 .417 0 .41400004 C 0 .40900005 .0029999987 .403 .009999998 .403 C .015999996 .403 .033 .417 .044 .425 C .049999998 .43 .065000008 .44099999 .076 .449 L .273 .015999973 C .28 0 .285 0 .294 0 C .30900003 0 .312 .0059999825 .319 .01999998 L .773 .96000006 C .78000006 .97400006 .78000006 .97800007 .78000006 .98 C .78000006 .99 .772 1 .76000007 1 C .75200006 1 .745 .99500009 .73700007 .97900006 L .316 .10500002 Z "/>
</symbol>
<use xlink:href="#font_1_2" transform="matrix(9.9626,0,0,-9.9626,125.429279,52.96009)"/>
<path transform="matrix(1,0,0,-1,133.004,43.197008)" stroke-width="1" stroke-linecap="butt" stroke-miterlimit="10" stroke-linejoin="miter" fill="none" stroke="#000000" d="M 0 0 L 5.694 0 "/>
<symbol id="font_3_1">
<path d="M .305 .31300003 C .311 .33900003 .334 .43100003 .404 .43100003 C .409 .43100003 .433 .43100003 .454 .418 C .426 .41300003 .40600003 .388 .40600003 .36400003 C .40600003 .34800003 .417 .32900004 .444 .32900004 C .46600003 .32900004 .498 .34700004 .498 .38700003 C .498 .43900005 .439 .45300005 .405 .45300005 C .347 .45300005 .312 .40000005 .3 .37700004 C .275 .44300003 .221 .45300005 .19200002 .45300005 C .08800001 .45300005 .031000002 .32400004 .031000002 .29900003 C .031000002 .28900004 .041 .28900004 .043000007 .28900004 C .051000008 .28900004 .054000006 .291 .056 .3 C .09 .40600003 .156 .43100003 .19000001 .43100003 C .209 .43100003 .244 .42200003 .244 .36400003 C .244 .33300004 .22700002 .26600004 .19000001 .126 C .17400001 .064 .13900002 .022000002 .095000009 .022000002 C .08900001 .022000002 .06600001 .022000002 .045 .035 C .07000001 .040000004 .09200001 .061 .09200001 .089 C .09200001 .116000007 .07000001 .124000009 .055000009 .124000009 C .025 .124000009 0 .098000008 0 .06600001 C 0 .020000002 .050000006 0 .094000007 0 C .16000001 0 .19600001 .07000001 .19900002 .076000008 C .21100001 .039 .24700003 0 .307 0 C .41 0 .467 .12900001 .467 .15400002 C .467 .16400002 .458 .16400002 .455 .16400002 C .446 .16400002 .444 .16000001 .442 .15300001 C .409 .046 .341 .022000002 .30900003 .022000002 C .27 .022000002 .254 .054 .254 .08800001 C .254 .11000001 .26 .13200002 .271 .17600002 L .305 .31300003 Z "/>
</symbol>
<use xlink:href="#font_3_1" transform="matrix(9.9626,0,0,-9.9626,133.29291,51.167589)"/>
</g>
<use xlink:href="#font_3_1" transform="matrix(9.9626,0,0,-9.9626,207.0769,124.15959)"/>
<use xlink:href="#font_3_2" transform="matrix(9.9626,0,0,-9.9626,25.504916,16.357336)"/>
</svg>
