<?xml version="1.0" encoding="UTF-8" standalone="no"?>
<!DOCTYPE svg PUBLIC "-//W3C//DTD SVG 1.1//EN" "http://www.w3.org/Graphics/SVG/1.1/DTD/svg11.dtd">
<svg xmlns="http://www.w3.org/2000/svg" xmlns:xlink="http://www.w3.org/1999/xlink" version="1.1" width="209.766pt" height="174.865pt" viewBox="0 0 209.766 174.865">
<path transform="matrix(1,0,0,-1,9.686,167.919)" stroke-width="1" stroke-linecap="butt" stroke-miterlimit="10" stroke-linejoin="miter" fill="none" stroke="#808080" d="M 0 78.56915 L 0 82.8211 M 32.3787 78.56915 L 32.3787 82.8211 M 64.75739 78.56915 L 64.75739 82.8211 M 129.51477 78.56915 L 129.51477 82.8211 M 161.89347 78.56915 L 161.89347 82.8211 M 194.27216 78.56915 L 194.27216 82.8211 "/>
<path transform="matrix(1,0,0,-1,9.686,167.919)" stroke-width="1" stroke-linecap="butt" stroke-miterlimit="10" stroke-linejoin="miter" fill="none" stroke="#808080" d="M 95.01018 0 L 99.26195 0 M 95.01018 26.89838 L 99.26195 26.89838 M 95.01018 53.79675 L 99.26195 53.79675 M 95.01018 107.59352 L 99.26195 107.59352 M 95.01018 134.4919 L 99.26195 134.4919 M 95.01018 161.39028 L 99.26195 161.39028 "/>
<path transform="matrix(1,0,0,-1,9.686,167.919)" stroke-width="1" stroke-linecap="butt" stroke-miterlimit="10" stroke-linejoin="miter" fill="none" stroke="#000000" d="M 0 80.69513 L 192.27964 80.69513 "/>
<path transform="matrix(1,0,0,-1,201.96564,87.22388)" d="M 1.99252 0 L -1.19551 1.59401 L 0 0 L -1.19551 -1.59401 "/>
<path transform="matrix(1,0,0,-1,9.686,167.919)" stroke-width="1" stroke-linecap="butt" stroke-miterlimit="10" stroke-linejoin="miter" fill="none" stroke="#000000" d="M 97.13608 0 L 97.13608 159.39775 "/>
<path transform="matrix(0,-1,-1,-0,106.822078,8.5212559)" d="M 1.99252 0 L -1.19551 1.59401 L 0 0 L -1.19551 -1.59401 "/>
<symbol id="font_0_1">
<path d="M .57600006 0 C .59300008 0 .611 0 .611 .019999996 C .611 .040000008 .59300008 .040000008 .57600006 .040000008 L .035000005 .040000008 C .018 .040000008 0 .040000008 0 .019999996 C 0 0 .018 0 .035000005 0 L .57600006 0 Z "/>
</symbol>
<use xlink:href="#font_0_1" transform="matrix(9.9626,0,0,-9.9626,4.147896,96.99961)"/>
<symbol id="font_1_3">
<path d="M .24800003 .37400005 C .33 .40100003 .388 .47100006 .388 .55 C .388 .632 .3 .688 .204 .688 C .10300001 .688 .027000003 .628 .027000003 .55200007 C .027000003 .519 .049000004 .5 .078 .5 C .109000008 .5 .12900001 .522 .12900001 .55100008 C .12900001 .6010001 .082 .6010001 .067 .6010001 C .098 .65000006 .164 .66300007 .20000002 .66300007 C .24100003 .66300007 .29600004 .64100006 .29600004 .55100008 C .29600004 .53900006 .29400004 .48100005 .268 .43700005 C .238 .38900004 .204 .38600005 .17900002 .38500003 C .171 .38400004 .14700002 .38200004 .14000002 .38200004 C .132 .38100005 .125 .38000003 .125 .37000004 C .125 .35900004 .132 .35900004 .14900002 .35900004 L .19300002 .35900004 C .275 .35900004 .312 .29100005 .312 .193 C .312 .057000005 .24300003 .028 .199 .028 C .15600002 .028 .081 .045 .046000005 .104 C .081 .09900001 .11200001 .12100001 .11200001 .15900001 C .11200001 .19500001 .085 .215 .056 .215 C .031999999 .215 0 .201 0 .157 C 0 .06600001 .093 0 .20200002 0 C .32400004 0 .41500003 .091000009 .41500003 .193 C .41500003 .27500005 .35200004 .35300005 .24800003 .37400005 Z "/>
</symbol>
<use xlink:href="#font_1_3" transform="matrix(9.9626,0,0,-9.9626,11.48743,99.510189)"/>
<use xlink:href="#font_0_1" transform="matrix(9.9626,0,0,-9.9626,36.525899,96.99961)"/>
<symbol id="font_1_2">
<path d="M .07700001 .07700001 L .18300002 .18 C .33900003 .31800003 .39900003 .372 .39900003 .47200004 C .39900003 .586 .30900003 .666 .18700002 .666 C .074 .666 0 .574 0 .485 C 0 .42900003 .05 .42900003 .053000008 .42900003 C .07000001 .42900003 .105000007 .441 .105000007 .48200003 C .105000007 .508 .08700001 .53400006 .052000006 .53400006 C .044000005 .53400006 .042000008 .53400006 .039 .53300008 C .062000004 .59800007 .11600001 .63500007 .17400001 .63500007 C .26500003 .63500007 .308 .554 .308 .47200004 C .308 .39200003 .25800003 .31300003 .20300003 .25100003 L .011000004 .037 C 0 .026 0 .024 0 0 L .37100003 0 L .39900003 .17400001 L .374 .17400001 C .36900003 .14400001 .36200003 .1 .352 .085 C .345 .07700001 .279 .07700001 .257 .07700001 L .07700001 .07700001 Z "/>
</symbol>
<use xlink:href="#font_1_2" transform="matrix(9.9626,0,0,-9.9626,43.946134,99.29101)"/>
<use xlink:href="#font_0_1" transform="matrix(9.9626,0,0,-9.9626,68.90389,96.99961)"/>
<symbol id="font_1_1">
<path d="M .205 .64000007 C .205 .66400006 .205 .666 .18200003 .666 C .120000008 .60200008 .032000007 .60200008 0 .60200008 L 0 .57100006 C .020000004 .57100006 .07900001 .57100006 .13100001 .597 L .13100001 .079 C .13100001 .043 .128 .031000002 .038000004 .031000002 L .0060000049 .031000002 L .0060000049 0 C .04100001 .003 .128 .003 .168 .003 C .20800002 .003 .29500003 .003 .33000005 0 L .33000005 .031000002 L .29800005 .031000002 C .20800002 .031000002 .205 .042000005 .205 .079 L .205 .64000007 Z "/>
</symbol>
<use xlink:href="#font_1_1" transform="matrix(9.9626,0,0,-9.9626,76.71267,99.29101)"/>
<use xlink:href="#font_1_1" transform="matrix(9.9626,0,0,-9.9626,137.59468,99.29101)"/>
<use xlink:href="#font_1_2" transform="matrix(9.9626,0,0,-9.9626,169.58412,99.29101)"/>
<use xlink:href="#font_1_3" transform="matrix(9.9626,0,0,-9.9626,201.88344,99.510189)"/>
<use xlink:href="#font_0_1" transform="matrix(9.9626,0,0,-9.9626,89.2719,168.4226)"/>
<use xlink:href="#font_1_3" transform="matrix(9.9626,0,0,-9.9626,96.61143,170.93318)"/>
<use xlink:href="#font_0_1" transform="matrix(9.9626,0,0,-9.9626,89.2719,141.52462)"/>
<use xlink:href="#font_1_2" transform="matrix(9.9626,0,0,-9.9626,96.69113,143.81601)"/>
<use xlink:href="#font_0_1" transform="matrix(9.9626,0,0,-9.9626,89.2719,114.62661)"/>
<use xlink:href="#font_1_1" transform="matrix(9.9626,0,0,-9.9626,97.07967,116.91801)"/>
<use xlink:href="#font_1_1" transform="matrix(9.9626,0,0,-9.9626,97.07967,63.537004)"/>
<use xlink:href="#font_1_2" transform="matrix(9.9626,0,0,-9.9626,96.69113,36.639009)"/>
<use xlink:href="#font_1_3" transform="matrix(9.9626,0,0,-9.9626,96.61143,9.96019)"/>
<clipPath id="cp2">
<path transform="matrix(1,0,0,-1,9.686,167.919)" d="M 0 0 L 194.27216 0 L 194.27216 161.39028 L 0 161.39028 Z "/>
</clipPath>
<g clip-path="url(#cp2)">
<path transform="matrix(1,0,0,-1,9.686,167.919)" stroke-width="1" stroke-linecap="butt" stroke-miterlimit="10" stroke-linejoin="miter" fill="none" stroke="#000000" d="M .35246 .29282 L .64972 .53973 L 1.29945 1.0795 L 1.94919 1.61926 L 2.59892 2.15903 L 3.24866 2.69879 L 3.89839 3.23854 L 4.54813 3.7783 L 5.19785 4.31807 L 5.84758 4.85783 L 6.49731 5.3976 L 7.14705 5.93735 L 7.79678 6.47711 L 8.44652 7.01688 L 9.09625 7.55664 L 9.74599 8.0964 L 10.3957 8.63615 L 11.04544 9.17592 L 11.69518 9.71568 L 12.34491 10.25545 L 12.99464 10.79521 L 13.64438 11.33496 L 14.29411 11.87473 L 14.94385 12.41449 L 15.59357 12.95425 L 16.2433 13.49402 L 16.89304 14.03377 L 17.54277 14.57353 L 18.1925 15.1133 L 18.84224 15.65306 L 19.49197 16.19283 L 20.14171 16.73257 L 20.79143 17.27234 L 21.44116 17.8121 L 22.0909 18.35187 L 22.74063 18.89163 L 23.39037 19.4314 L 24.0401 19.97115 L 24.68983 20.51091 L 25.33957 21.05067 L 25.98929 21.59044 L 26.63902 22.1302 L 27.28876 22.66995 L 27.9385 23.20972 L 28.58824 23.74948 L 29.23798 24.28925 L 29.88771 24.82901 L 30.53745 25.36876 L 31.18716 25.90852 L 31.8369 26.44829 L 32.48663 26.98805 L 33.13637 27.52782 L 33.7861 28.06757 L 34.43584 28.60733 L 35.08557 29.1471 L 35.7353 29.68686 L 36.38503 30.22662 L 37.03476 30.76637 L 37.6845 31.30614 L 38.33423 31.8459 L 38.98396 32.38567 L 39.6337 32.92543 L 40.28343 33.46518 L 40.93315 34.00494 L 41.58289 34.54471 L 42.23262 35.08447 L 42.88235 35.62424 L 43.53209 36.164 L 44.18182 36.70374 L 44.83156 37.2435 L 45.4813 37.78326 L 46.13101 38.32303 L 46.78075 38.8628 L 47.43048 39.40254 L 48.08022 39.9423 L 48.72995 40.48207 L 49.37968 41.02184 L 50.02942 41.5616 L 50.67915 42.10135 L 51.32887 42.64111 L 51.9786 43.18088 L 52.62834 43.72064 L 53.27808 44.2604 L 53.92781 44.80016 L 54.57755 45.33992 L 55.2273 45.87968 L 55.87703 46.41945 L 56.52675 46.95921 L 57.17648 47.49896 L 57.82622 48.03873 L 58.47595 48.57849 L 59.12569 49.11826 L 59.77542 49.65802 L 60.42516 50.19777 L 61.07489 50.73753 L 61.72461 51.2773 L 62.37434 51.81706 L 63.02408 52.35683 L 63.67381 52.89658 L 64.32355 53.43634 L 64.97328 53.9761 L 65.62302 54.51587 L 66.27275 55.05563 L 66.92247 55.5954 L 67.5722 56.13515 L 68.22194 56.67491 L 68.87167 57.21468 L 69.52141 57.75444 L 70.17114 58.2942 L 70.82088 58.83395 L 71.47061 59.37372 L 72.12033 59.91348 L 72.77007 60.45325 L 73.4198 60.99301 L 74.06955 61.53276 L 74.71928 62.07253 L 75.36902 62.61229 L 76.01875 63.15205 L 76.66847 63.69182 L 77.3182 64.23157 L 77.96794 64.77133 L 78.61768 65.3111 L 79.26741 65.85086 L 79.91714 66.39063 L 80.56688 66.93037 L 81.21661 67.47014 L 81.86633 68.0099 L 82.51607 68.54967 L 83.16582 69.08943 L 83.81555 69.62918 L 84.46529 70.16895 L 85.11502 70.70871 L 85.76476 71.24847 L 86.41449 71.78824 L 87.06421 72.32802 L 87.71394 72.86777 L 88.36368 73.40753 L 89.01341 73.9473 L 89.66315 74.48706 L 90.31288 75.02682 L 90.96262 75.56657 L 91.61235 76.10632 L 92.26207 76.64609 L 92.9118 77.18585 L 93.56155 77.72563 L 94.21129 78.26538 L 94.86102 78.80515 L 95.51076 79.34491 L 96.16049 79.88467 L 96.81023 80.42444 L 97.45995 80.96419 L 98.10968 81.50395 L 98.75941 82.04372 L 99.40915 82.58348 L 100.05888 83.12325 L 100.70862 83.663 L 101.35835 84.20276 L 102.00809 84.74252 L 102.6578 85.28229 L 103.30754 85.82205 L 103.95728 86.3618 L 104.60703 86.90157 L 105.25676 87.44133 L 105.9065 87.9811 L 106.55623 88.52086 L 107.20595 89.06061 L 107.85568 89.60037 L 108.50542 90.14014 L 109.15515 90.6799 L 109.80489 91.21967 L 110.45462 91.75943 L 111.10435 92.29918 L 111.75409 92.83894 L 112.40381 93.37871 L 113.05354 93.91847 L 113.70328 94.45824 L 114.35301 94.99799 L 115.00275 95.53775 L 115.65248 96.07751 L 116.30222 96.61728 L 116.95195 97.15704 L 117.60167 97.6968 L 118.25142 98.23656 L 118.90115 98.77632 L 119.55089 99.31609 L 120.20062 99.85585 L 120.85036 100.3956 L 121.50009 100.93536 L 122.14983 101.47513 L 122.79955 102.0149 L 123.44928 102.55466 L 124.09901 103.0944 L 124.74875 103.63417 L 125.39848 104.17393 L 126.04822 104.7137 L 126.69795 105.25346 L 127.34769 105.79321 L 127.9974 106.33298 L 128.64714 106.87274 L 129.29688 107.4125 L 129.94661 107.95227 L 130.59636 108.49203 L 131.2461 109.03178 L 131.89583 109.57155 L 132.54557 110.11131 L 133.19528 110.65108 L 133.84502 111.19084 L 134.49475 111.73059 L 135.14449 112.27036 L 135.79422 112.81012 L 136.44396 113.34988 L 137.09369 113.88965 L 137.74343 114.4294 L 138.39315 114.96916 L 139.04288 115.50893 L 139.69261 116.04869 L 140.34235 116.58846 L 140.99208 117.1282 L 141.64182 117.66797 L 142.29155 118.20773 L 142.94127 118.7475 L 143.591 119.28726 L 144.24074 119.82701 L 144.89048 120.36678 L 145.5402 120.90654 L 146.18994 121.4463 L 146.83968 121.98607 L 147.48941 122.52582 L 148.13913 123.06558 L 148.78887 123.60535 L 149.4386 124.14511 L 150.08834 124.68488 L 150.73807 125.22464 L 151.3878 125.76439 L 152.03754 126.30415 L 152.68727 126.84392 L 153.33699 127.38368 L 153.98673 127.92345 L 154.63646 128.4632 L 155.2862 129.00296 L 155.93593 129.54273 L 156.58567 130.08249 L 157.2354 130.62226 L 157.88515 131.162 L 158.53487 131.70177 L 159.1846 132.24153 L 159.83434 132.7813 L 160.48407 133.32106 L 161.1338 133.86081 L 161.78354 134.40058 L 162.43328 134.94033 L 163.08301 135.48009 L 163.73273 136.01985 L 164.38246 136.5596 L 165.0322 137.09937 L 165.68193 137.63913 L 166.33167 138.1789 L 166.9814 138.71866 L 167.63114 139.2584 L 168.28087 139.79817 L 168.93059 140.33794 L 169.58032 140.8777 L 170.23006 141.41747 L 170.87979 141.95722 L 171.52953 142.49698 L 172.17926 143.03675 L 172.829 143.5765 L 173.47873 144.11627 L 174.12845 144.65604 L 174.77819 145.19579 L 175.42792 145.73555 L 176.07765 146.27532 L 176.72739 146.81508 L 177.37712 147.35485 L 178.02686 147.89459 L 178.67658 148.43436 L 179.32631 148.97412 L 179.97605 149.51389 L 180.62578 150.05365 L 181.27552 150.5934 L 181.92525 151.13317 L 182.57498 151.67293 L 183.22472 152.21269 L 183.87444 152.75246 L 184.52417 153.2922 L 185.1739 153.83197 L 185.82366 154.37174 L 186.47339 154.9115 L 187.12313 155.45127 L 187.77286 155.99102 L 188.42259 156.53078 L 189.07231 157.07054 L 189.72205 157.6103 L 190.37178 158.15007 L 191.02152 158.68982 L 191.67125 159.22959 L 192.32099 159.76935 L 192.97072 160.30912 L 193.62046 160.84888 L 193.91771 161.09581 "/>
<path transform="matrix(-.76915,.63898,.63898,.76915,10.03848,167.62618)" stroke-width="1" stroke-linecap="round" stroke-linejoin="round" fill="none" stroke="#000000" d="M -1.19551 1.59401 C -1.09587 .99626 0 .09961 .29886 0 C 0 -.09961 -1.09587 -.99626 -1.19551 -1.59401 "/>
<path transform="matrix(.76915,-.63898,-.63898,-.76915,203.6037,6.8232119)" stroke-width="1" stroke-linecap="round" stroke-linejoin="round" fill="none" stroke="#000000" d="M -1.19551 1.59401 C -1.09587 .99626 0 .09961 .29886 0 C 0 -.09961 -1.09587 -.99626 -1.19551 -1.59401 "/>
<symbol id="font_3_2">
<path d="M .45700003 .586 C .461 .6 .461 .602 .461 .609 C .461 .62700006 .447 .63600006 .432 .63600006 C .42200003 .63600006 .40600003 .63 .397 .615 C .395 .61 .387 .579 .38300003 .561 C .37600003 .535 .36900003 .508 .363 .48100005 L .318 .301 C .314 .286 .271 .21600002 .20500002 .21600002 C .15400002 .21600002 .143 .26000003 .143 .29700003 C .143 .34300003 .16000001 .40500004 .194 .49300004 C .21000001 .53400006 .21400002 .545 .21400002 .56500008 C .21400002 .61 .18200001 .6470001 .13200002 .6470001 C .037 .6470001 0 .50200006 0 .49300004 C 0 .48300005 .01 .48300005 .012 .48300005 C .022000002 .48300005 .023 .485 .028000003 .50100007 C .055000009 .595 .095000009 .625 .12900001 .625 C .13700001 .625 .15400002 .625 .15400002 .59300008 C .15400002 .568 .14400001 .54200008 .13700001 .523 C .097 .41700004 .079 .36 .079 .31300003 C .079 .224 .142 .194 .201 .194 C .24000003 .194 .274 .21100001 .30200003 .23900002 C .289 .187 .277 .13800001 .237 .08500001 C .21100001 .051 .17300001 .022 .127 .022 C .113000009 .022 .068 .025000006 .051000008 .06400001 C .067 .06400001 .080000009 .06400001 .094000007 .076000008 C .104 .08500001 .11400001 .098000008 .11400001 .117000009 C .11400001 .148 .087000008 .15200001 .07700001 .15200001 C .054000006 .15200001 .021 .136 .021 .087000008 C .021 .037 .065000008 0 .127 0 C .23 0 .333 .091000009 .361 .20400001 L .45700003 .586 Z "/>
</symbol>
<use xlink:href="#font_3_2" transform="matrix(9.9626,0,0,-9.9626,137.64992,35.395345)"/>
<symbol id="font_1_4">
<path d="M .63100007 .19400002 C .646 .19400002 .665 .19400002 .665 .214 C .665 .23400001 .646 .23400001 .632 .23400001 L .033 .23400001 C .019000002 .23400001 0 .23400001 0 .214 C 0 .19400002 .019000002 .19400002 .034 .19400002 L .63100007 .19400002 M .632 0 C .646 0 .665 0 .665 .02000001 C .665 .040000008 .646 .040000008 .63100007 .040000008 L .034 .040000008 C .019000002 .040000008 0 .040000008 0 .02000001 C 0 0 .019000002 0 .033 0 L .632 0 Z "/>
</symbol>
<use xlink:href="#font_1_4" transform="matrix(9.9626,0,0,-9.9626,145.92792,32.027986)"/>
<symbol id="font_3_1">
<path d="M .305 .31300003 C .311 .33900003 .334 .43100003 .404 .43100003 C .409 .43100003 .433 .43100003 .454 .418 C .426 .41300003 .40600003 .388 .40600003 .36400003 C .40600003 .34800003 .417 .32900004 .444 .32900004 C .46600003 .32900004 .498 .34700004 .498 .38700003 C .498 .43900005 .439 .45300005 .405 .45300005 C .347 .45300005 .312 .40000005 .3 .37700004 C .275 .44300003 .221 .45300005 .19200002 .45300005 C .08800001 .45300005 .031000002 .32400004 .031000002 .29900003 C .031000002 .28900004 .041 .28900004 .043000007 .28900004 C .051000008 .28900004 .054000006 .291 .056 .3 C .09 .40600003 .156 .43100003 .19000001 .43100003 C .209 .43100003 .244 .42200003 .244 .36400003 C .244 .33300004 .22700002 .26600004 .19000001 .126 C .17400001 .064 .13900002 .022000002 .095000009 .022000002 C .08900001 .022000002 .06600001 .022000002 .045 .035 C .07000001 .040000004 .09200001 .061 .09200001 .089 C .09200001 .116000007 .07000001 .124000009 .055000009 .124000009 C .025 .124000009 0 .098000008 0 .06600001 C 0 .020000002 .050000006 0 .094000007 0 C .16000001 0 .19600001 .07000001 .19900002 .076000008 C .21100001 .039 .24700003 0 .307 0 C .41 0 .467 .12900001 .467 .15400002 C .467 .16400002 .458 .16400002 .455 .16400002 C .446 .16400002 .444 .16000001 .442 .15300001 C .409 .046 .341 .022000002 .30900003 .022000002 C .27 .022000002 .254 .054 .254 .08800001 C .254 .11000001 .26 .13200002 .271 .17600002 L .305 .31300003 Z "/>
</symbol>
<use xlink:href="#font_3_1" transform="matrix(9.9626,0,0,-9.9626,156.17493,33.4626)"/>
</g>
<use xlink:href="#font_3_1" transform="matrix(9.9626,0,0,-9.9626,195.05892,83.8036)"/>
<use xlink:href="#font_3_2" transform="matrix(9.9626,0,0,-9.9626,110.64491,16.357336)"/>
</svg>
