<?xml version="1.0" encoding="iso-8859-1" standalone="no"?> 
<?xml-stylesheet href="verticalLineTest.css" type="text/css"?> 
<svg xmlns="http://www.w3.org/2000/svg" xmlns:xlink="http://www.w3.org/1999/xlink" width="204.13693pt" height="162.3934pt" viewBox="-11.94405 -0.2 204.13693 162.3934 "> 
<g transform="translate(0, 162.1934 ) scale(1,-1) translate(0,0.2 )"> 
    <g stroke="#000" fill="#000">
 <g stroke-width="0.4">
 <g stroke-width="0.2">
 <g stroke="#808080" fill="#808080">
 <path d=" M 0.0 78.86288 L 0.0 83.13051 M 35.99854 78.86288 L 35.99854 83.13051 M 53.9978 78.86288 L 53.9978 83.13051 M 71.99707 78.86288 L 71.99707 83.13051 M 89.99634 78.86288 L 89.99634 83.13051 M 107.9956 78.86288 L 107.9956 83.13051 M 125.99487 78.86288 L 125.99487 83.13051 M 143.99414 78.86288 L 143.99414 83.13051 M 161.99341 78.86288 L 161.99341 83.13051 M 179.99268 78.86288 L 179.99268 83.13051  " fill="none"/>
 </g>
 </g>
 <g stroke-width="0.2">
 <g stroke="#808080" fill="#808080">
 <path d=" M 15.86545 8.99963 L 20.13307 8.99963 M 15.86545 26.9989 L 20.13307 26.9989 M 15.86545 44.99817 L 20.13307 44.99817 M 15.86545 62.99744 L 20.13307 62.99744 M 15.86545 98.99597 L 20.13307 98.99597 M 15.86545 116.99524 L 20.13307 116.99524 M 15.86545 134.9945 L 20.13307 134.9945 M 15.86545 152.99377 L 20.13307 152.99377  " fill="none"/>
 </g>
 </g>
 <path d=" M -3.00058 80.9967 L 189.99292 80.9967  " fill="none"/>
 <g transform="translate(189.99292,80.9967)">
 <path d=" M 1.99997 0.0 L -1.19998 1.59998 L 0.0 0.0 L -1.19998 -1.59998  " stroke="none"/>
  </g>
 <path d=" M 17.99927 0.0 L 17.99927 159.99344  " fill="none"/>
 <g transform="matrix(0.0,1.0,-1.0,0.0,17.99927,159.99344)">
 <path d=" M 1.99997 0.0 L -1.19998 1.59998 L 0.0 0.0 L -1.19998 -1.59998  " stroke="none"/>
  </g>
 <g transform="translate(-8.61107,68.88547)">
 <g fill="#000">
 <text style="stroke:none" transform="scale(1,-1) translate(8.61107,0)" text-anchor="middle"  font-size="10"> 
<g fill="#000">
 <g stroke="none">  − 1</g> </g>
 </text> 
</g>
 </g>
 <g transform="translate(33.49854,68.88548)">
 <g fill="#000">
 <text style="stroke:none" transform="scale(1,-1) translate(2.5,0)" text-anchor="middle"  font-size="10"> 
<g fill="#000">
 <g stroke="none"> 1 </g> </g>
 </text> 
</g>
 </g>
 <g transform="translate(51.4978,68.88548)">
 <g fill="#000">
 <text style="stroke:none" transform="scale(1,-1) translate(2.5,0)" text-anchor="middle"  font-size="10"> 
<g fill="#000">
 <g stroke="none"> 2 </g> </g>
 </text> 
</g>
 </g>
 <g transform="translate(69.49707,68.88548)">
 <g fill="#000">
 <text style="stroke:none" transform="scale(1,-1) translate(2.5,0)" text-anchor="middle"  font-size="10"> 
<g fill="#000">
 <g stroke="none"> 3 </g> </g>
 </text> 
</g>
 </g>
 <g transform="translate(87.49634,68.88548)">
 <g fill="#000">
 <text style="stroke:none" transform="scale(1,-1) translate(2.5,0)" text-anchor="middle"  font-size="10"> 
<g fill="#000">
 <g stroke="none"> 4 </g> </g>
 </text> 
</g>
 </g>
 <g transform="translate(105.4956,68.88548)">
 <g fill="#000">
 <text style="stroke:none" transform="scale(1,-1) translate(2.5,0)" text-anchor="middle"  font-size="10"> 
<g fill="#000">
 <g stroke="none"> 5 </g> </g>
 </text> 
</g>
 </g>
 <g transform="translate(123.49487,68.88548)">
 <g fill="#000">
 <text style="stroke:none" transform="scale(1,-1) translate(2.5,0)" text-anchor="middle"  font-size="10"> 
<g fill="#000">
 <g stroke="none"> 6 </g> </g>
 </text> 
</g>
 </g>
 <g transform="translate(141.49414,68.88548)">
 <g fill="#000">
 <text style="stroke:none" transform="scale(1,-1) translate(2.5,0)" text-anchor="middle"  font-size="10"> 
<g fill="#000">
 <g stroke="none"> 7 </g> </g>
 </text> 
</g>
 </g>
 <g transform="translate(159.49341,68.88548)">
 <g fill="#000">
 <text style="stroke:none" transform="scale(1,-1) translate(2.5,0)" text-anchor="middle"  font-size="10"> 
<g fill="#000">
 <g stroke="none"> 8 </g> </g>
 </text> 
</g>
 </g>
 <g transform="translate(177.49268,68.88548)">
 <g fill="#000">
 <text style="stroke:none" transform="scale(1,-1) translate(2.5,0)" text-anchor="middle"  font-size="10"> 
<g fill="#000">
 <g stroke="none"> 9 </g> </g>
 </text> 
</g>
 </g>
 <g transform="translate(-4.88966,6.19408)">
 <g fill="#000">
 <text style="stroke:none" transform="scale(1,-1) translate(8.61107,0)" text-anchor="middle"  font-size="10"> 
<g fill="#000">
 <g stroke="none">  − 4</g> </g>
 </text> 
</g>
 </g>
 <g transform="translate(-4.88966,24.19334)">
 <g fill="#000">
 <text style="stroke:none" transform="scale(1,-1) translate(8.61107,0)" text-anchor="middle"  font-size="10"> 
<g fill="#000">
 <g stroke="none">  − 3</g> </g>
 </text> 
</g>
 </g>
 <g transform="translate(-4.88966,42.19261)">
 <g fill="#000">
 <text style="stroke:none" transform="scale(1,-1) translate(8.61107,0)" text-anchor="middle"  font-size="10"> 
<g fill="#000">
 <g stroke="none">  − 2</g> </g>
 </text> 
</g>
 </g>
 <g transform="translate(-4.88966,60.19188)">
 <g fill="#000">
 <text style="stroke:none" transform="scale(1,-1) translate(8.61107,0)" text-anchor="middle"  font-size="10"> 
<g fill="#000">
 <g stroke="none">  − 1</g> </g>
 </text> 
</g>
 </g>
 <g transform="translate(7.33247,95.77376)">
 <g fill="#000">
 <text style="stroke:none" transform="scale(1,-1) translate(2.5,0)" text-anchor="middle"  font-size="10"> 
<g fill="#000">
 <g stroke="none"> 1 </g> </g>
 </text> 
</g>
 </g>
 <g transform="translate(7.33247,113.77303)">
 <g fill="#000">
 <text style="stroke:none" transform="scale(1,-1) translate(2.5,0)" text-anchor="middle"  font-size="10"> 
<g fill="#000">
 <g stroke="none"> 2 </g> </g>
 </text> 
</g>
 </g>
 <g transform="translate(7.33247,131.7723)">
 <g fill="#000">
 <text style="stroke:none" transform="scale(1,-1) translate(2.5,0)" text-anchor="middle"  font-size="10"> 
<g fill="#000">
 <g stroke="none"> 3 </g> </g>
 </text> 
</g>
 </g>
 <g transform="translate(7.33247,149.77156)">
 <g fill="#000">
 <text style="stroke:none" transform="scale(1,-1) translate(2.5,0)" text-anchor="middle"  font-size="10"> 
<g fill="#000">
 <g stroke="none"> 4 </g> </g>
 </text> 
</g>
 </g>
 <clipPath id="pgfcp1"><path d=" M -3.00058 0.0 L 191.99289 0.0 L 191.99289 161.99341 L -3.00058 161.99341 Z  "/> </clipPath>
 <g clip-path="url(#pgfcp1)">
 <path d=" M 17.99927 80.9967 L 18.54105 84.11832 L 19.08282 85.41281 L 19.62462 86.40674 L 20.1664 87.2419 L 20.70819 87.98022 L 21.24997 88.64621 L 21.79176 89.26016 L 22.33354 89.83092 L 22.87532 90.36568 L 23.41711 90.87326 L 23.9589 91.35582 L 24.50069 91.81497 L 25.04247 92.25775 L 25.58424 92.68272 L 26.12604 93.09328 L 26.66782 93.48927 L 27.20961 93.87463 L 27.75139 94.24739 L 28.29317 94.61098 L 28.83496 94.96394 L 29.37674 95.30936 L 29.91853 95.64612 L 30.46031 95.9757 L 31.0021 96.29787 L 31.54388 96.61285 L 32.08566 96.92262 L 32.62746 97.22699 L 33.16924 97.5238 L 33.71103 97.81557 L 34.2528 98.10356 L 34.79459 98.38634 L 35.33638 98.66531 L 35.87816 98.93909 L 36.41995 99.20529 L 36.96173 99.47115 L 37.50351 99.7325 L 38.0453 99.99097 L 38.58708 100.2462 L 39.12886 100.498 L 39.67064 100.74622 L 40.21243 100.99155 L 40.75421 101.234 L 41.29599 101.47356 L 41.83777 101.71007 L 42.37956 101.94461 L 42.92134 102.17554 L 43.46312 102.40431 L 44.0049 102.63092 L 44.54669 102.85483 L 45.08847 103.07693 L 45.63025 103.29636 L 46.17203 103.5136 L 46.71382 103.72923 L 47.2556 103.94289 L 47.79738 104.15456 L 48.33916 104.36424 L 48.88095 104.57124 L 49.42273 104.7768 L 49.96451 104.98126 L 50.50629 105.18358 L 51.04808 105.38535 L 51.58986 105.58423 L 52.13164 105.78061 L 52.67342 105.9759 L 53.21521 106.17119 L 53.75699 106.36487 L 54.29877 106.55673 L 54.84055 106.74628 L 55.38234 106.93526 L 55.92412 107.12227 L 56.4659 107.30803 L 57.00768 107.49269 L 57.54947 107.67665 L 58.09125 107.85916 L 58.63303 108.03897 L 59.1748 108.21951 L 59.7166 108.3977 L 60.25838 108.57535 L 60.80016 108.75157 L 61.34193 108.92635 L 61.88373 109.10057 L 62.4255 109.27354 L 62.96729 109.44525 L 63.50908 109.61626 L 64.05086 109.78581 L 64.59264 109.95464 L 65.13441 110.12221 L 65.67621 110.28925 L 66.21799 110.45538 L 66.75977 110.6206 L 67.30154 110.78441 L 67.84334 110.94783 L 68.38512 111.10983 L 68.9269 111.2711 L 69.46867 111.4322 L 70.01047 111.59149 L 70.55225 111.74971 L 71.09402 111.90846 L 71.6358 112.06595 L 72.1776 112.22327 L 72.71938 112.37788 L 73.26115 112.53249 L 73.80293 112.6871 L 74.34473 112.84047 L 74.8865 112.99327 L 75.42828 113.14519 L 75.97006 113.2971 L 76.51186 113.44757 L 77.05363 113.59589 L 77.59541 113.74672 L 78.13719 113.89413 L 78.67899 114.04282 L 79.22076 114.1895 L 79.76254 114.33548 L 80.30432 114.48271 L 80.84612 114.62724 L 81.3879 114.77286 L 81.92967 114.91542 L 82.47145 115.05815 L 83.01324 115.20125 L 83.55502 115.3438 L 84.0968 115.48743 L 84.63858 115.62585 L 85.18037 115.7657 L 85.72215 115.907 L 86.26393 116.04578 L 86.80571 116.18527 L 87.3475 116.32295 L 87.88928 116.46101 L 88.43106 116.59744 L 88.97285 116.7337 L 89.51463 116.87103 L 90.05641 117.00838 L 90.59819 117.143 L 91.13998 117.27818 L 91.68176 117.41246 L 92.22354 117.54565 L 92.76532 117.6792 L 93.30711 117.81168 L 93.84889 117.94325 L 94.39067 118.07483 L 94.93245 118.20622 L 95.47424 118.33708 L 96.01602 118.46793 L 96.5578 118.59698 L 97.09958 118.72748 L 97.64137 118.85635 L 98.18315 118.98505 L 98.72493 119.11284 L 99.26671 119.24046 L 99.8085 119.36754 L 100.35028 119.49533 L 100.89206 119.62079 L 101.43384 119.74768 L 101.97563 119.87277 L 102.51741 119.99823 L 103.05919 120.12297 L 103.60097 120.24734 L 104.14276 120.37117 L 104.68454 120.49501 L 105.22632 120.61812 L 105.7681 120.74106 L 106.30989 120.86363 L 106.85167 120.98567 L 107.39345 121.10716 L 107.93523 121.22939 L 108.47702 121.34943 L 109.0188 121.46985 L 109.56058 121.59062 L 110.10236 121.70978 L 110.64415 121.8302 L 111.18593 121.94936 L 111.7277 122.06833 L 112.26949 122.18622 L 112.81128 122.30447 L 113.35306 122.4231 L 113.89484 122.53972 L 114.43663 122.65744 L 114.97841 122.77353 L 115.52019 122.89053 L 116.06197 123.00699 L 116.60376 123.12291 L 117.14554 123.23792 L 117.68732 123.35365 L 118.2291 123.46974 L 118.77089 123.58405 L 119.31267 123.69743 L 119.85445 123.81155 L 120.39622 123.92496 L 120.93802 124.03888 L 121.4798 124.15192 L 122.02158 124.26477 L 122.56335 124.376 L 123.10515 124.48833 L 123.64693 124.601 L 124.1887 124.7126 L 124.73048 124.82347 L 125.27228 124.93471 L 125.81406 125.04541 L 126.35583 125.15665 L 126.89761 125.26643 L 127.4394 125.37659 L 127.98119 125.48567 L 128.52296 125.59528 L 129.06474 125.7049 L 129.60654 125.81415 L 130.14832 125.92215 L 130.6901 126.03087 L 131.23187 126.1376 L 131.77367 126.24686 L 132.31544 126.35486 L 132.85722 126.46141 L 133.399 126.56833 L 133.9408 126.67488 L 134.48257 126.78252 L 135.02435 126.88907 L 135.56613 126.99382 L 136.10793 127.09947 L 136.6497 127.20747 L 137.19148 127.31259 L 137.73326 127.41609 L 138.27505 127.52138 L 138.81683 127.62524 L 139.35861 127.73036 L 139.90039 127.83385 L 140.44218 127.93825 L 140.98396 128.04265 L 141.52574 128.14507 L 142.06754 128.24892 L 142.60931 128.35349 L 143.1511 128.45302 L 143.69287 128.55724 L 144.23466 128.65894 L 144.77644 128.76225 L 145.31822 128.86395 L 145.86 128.9651 L 146.4018 129.06644 L 146.94357 129.1667 L 147.48535 129.27037 L 148.02713 129.36974 L 148.56892 129.46999 L 149.1107 129.57024 L 149.65248 129.66995 L 150.19426 129.77129 L 150.73605 129.87119 L 151.27783 129.97037 L 151.81961 130.06953 L 152.36139 130.16728 L 152.90318 130.26915 L 153.44496 130.36688 L 153.98674 130.4648 L 154.52852 130.56326 L 155.07031 130.66333 L 155.61209 130.7609 L 156.15387 130.85826 L 156.69565 130.95438 L 157.23744 131.05032 L 157.77922 131.15057 L 158.321 131.24724 L 158.86278 131.34479 L 159.40457 131.44 L 159.94635 131.53667 L 160.48813 131.63673 L 161.0299 131.73141 L 161.5717 131.8261 L 162.11348 131.92526 L 162.65526 132.02103 L 163.19704 132.11569 L 163.73883 132.2109 L 164.28061 132.30649 L 164.82239 132.40135 L 165.36417 132.49548 L 165.90596 132.59052 L 166.44774 132.68448 L 166.98952 132.77861 L 167.53131 132.87311 L 168.07309 132.9667 L 168.61487 133.06137 L 169.15665 133.1539 L 169.69844 133.24803 L 170.24022 133.34055 L 170.782 133.43414 L 171.32378 133.52792 L 171.86557 133.61845 L 172.40735 133.71223 L 172.94913 133.80493 L 173.4909 133.89583 L 174.0327 133.98834 L 174.57448 134.08014 L 175.11626 134.17247 L 175.65804 134.26427 L 176.19983 134.35481 L 176.74161 134.44624 L 177.28339 134.53749 L 177.82516 134.62894 L 178.36696 134.72182 L 178.90874 134.81091 L 179.45052 134.90108 L 179.53865 134.91585  " fill="none"/>
 <g transform="matrix(0.98622,0.16515,-0.16515,0.98622,179.53864,134.91585)">
 <g stroke-width="0.31999">
 <g stroke-dasharray="none" stroke-dashoffset="0.0">
 <g stroke-linecap="round">
 <g stroke-linejoin="round">
 <path d=" M -1.19998 1.59998 C -1.09998 0.99998 0.0 0.09999 0.29999 0.0 C 0.0 -0.09999 -1.09998 -0.99998 -1.19998 -1.59998  " fill="none"/>
 </g>
 </g>
 </g>
 </g>
  </g>
 <path d=" M 17.99927 80.9967 L 18.54105 77.87508 L 19.08282 76.58058 L 19.62462 75.58665 L 20.1664 74.7515 L 20.70819 74.01317 L 21.24997 73.34718 L 21.79176 72.73323 L 22.33354 72.16248 L 22.87532 71.62772 L 23.41711 71.12013 L 23.9589 70.63757 L 24.50069 70.17842 L 25.04247 69.73564 L 25.58424 69.31067 L 26.12604 68.90012 L 26.66782 68.50412 L 27.20961 68.11876 L 27.75139 67.746 L 28.29317 67.38242 L 28.83496 67.02945 L 29.37674 66.68404 L 29.91853 66.34727 L 30.46031 66.0177 L 31.0021 65.69553 L 31.54388 65.38054 L 32.08566 65.07077 L 32.62746 64.7664 L 33.16924 64.46959 L 33.71103 64.17783 L 34.2528 63.88983 L 34.79459 63.60706 L 35.33638 63.32808 L 35.87816 63.0543 L 36.41995 62.7881 L 36.96173 62.52225 L 37.50351 62.2609 L 38.0453 62.00243 L 38.58708 61.7472 L 39.12886 61.49539 L 39.67064 61.24718 L 40.21243 61.00185 L 40.75421 60.7594 L 41.29599 60.51984 L 41.83777 60.28333 L 42.37956 60.04878 L 42.92134 59.81786 L 43.46312 59.58908 L 44.0049 59.36247 L 44.54669 59.13857 L 45.08847 58.91646 L 45.63025 58.69704 L 46.17203 58.4798 L 46.71382 58.26416 L 47.2556 58.0505 L 47.79738 57.83884 L 48.33916 57.62915 L 48.88095 57.42215 L 49.42273 57.2166 L 49.96451 57.01213 L 50.50629 56.80981 L 51.04808 56.60805 L 51.58986 56.40916 L 52.13164 56.21278 L 52.67342 56.01749 L 53.21521 55.8222 L 53.75699 55.62852 L 54.29877 55.43666 L 54.84055 55.24712 L 55.38234 55.05814 L 55.92412 54.87112 L 56.4659 54.68536 L 57.00768 54.5007 L 57.54947 54.31674 L 58.09125 54.13423 L 58.63303 53.95442 L 59.1748 53.77388 L 59.7166 53.59569 L 60.25838 53.41805 L 60.80016 53.24182 L 61.34193 53.06705 L 61.88373 52.89282 L 62.4255 52.71985 L 62.96729 52.54814 L 63.50908 52.37714 L 64.05086 52.20758 L 64.59264 52.03876 L 65.13441 51.87119 L 65.67621 51.70415 L 66.21799 51.53801 L 66.75977 51.37279 L 67.30154 51.20898 L 67.84334 51.04556 L 68.38512 50.88356 L 68.9269 50.72229 L 69.46867 50.56119 L 70.01047 50.4019 L 70.55225 50.24368 L 71.09402 50.08493 L 71.6358 49.92744 L 72.1776 49.77013 L 72.71938 49.61551 L 73.26115 49.4609 L 73.80293 49.30629 L 74.34473 49.15292 L 74.8865 49.00012 L 75.42828 48.8482 L 75.97006 48.69629 L 76.51186 48.54582 L 77.05363 48.3975 L 77.59541 48.24667 L 78.13719 48.09926 L 78.67899 47.95058 L 79.22076 47.8039 L 79.76254 47.65791 L 80.30432 47.51068 L 80.84612 47.36615 L 81.3879 47.22054 L 81.92967 47.07797 L 82.47145 46.93524 L 83.01324 46.79214 L 83.55502 46.6496 L 84.0968 46.50597 L 84.63858 46.36754 L 85.18037 46.22769 L 85.72215 46.0864 L 86.26393 45.94762 L 86.80571 45.80814 L 87.3475 45.67044 L 87.88928 45.53238 L 88.43106 45.39595 L 88.97285 45.25969 L 89.51463 45.12236 L 90.05641 44.98502 L 90.59819 44.85039 L 91.13998 44.71521 L 91.68176 44.58093 L 92.22354 44.44774 L 92.76532 44.3142 L 93.30711 44.18172 L 93.84889 44.05014 L 94.39067 43.91856 L 94.93245 43.78717 L 95.47424 43.65631 L 96.01602 43.52547 L 96.5578 43.39641 L 97.09958 43.26591 L 97.64137 43.13704 L 98.18315 43.00835 L 98.72493 42.88055 L 99.26671 42.75293 L 99.8085 42.62585 L 100.35028 42.49806 L 100.89206 42.3726 L 101.43384 42.24571 L 101.97563 42.12062 L 102.51741 41.99516 L 103.05919 41.87042 L 103.60097 41.74605 L 104.14276 41.62222 L 104.68454 41.49838 L 105.22632 41.37527 L 105.7681 41.25233 L 106.30989 41.12976 L 106.85167 41.00772 L 107.39345 40.88623 L 107.93523 40.764 L 108.47702 40.64397 L 109.0188 40.52354 L 109.56058 40.40277 L 110.10236 40.28362 L 110.64415 40.1632 L 111.18593 40.04404 L 111.7277 39.92506 L 112.26949 39.80717 L 112.81128 39.68892 L 113.35306 39.5703 L 113.89484 39.45367 L 114.43663 39.33595 L 114.97841 39.21986 L 115.52019 39.10286 L 116.06197 38.9864 L 116.60376 38.87048 L 117.14554 38.75548 L 117.68732 38.63974 L 118.2291 38.52365 L 118.77089 38.40935 L 119.31267 38.29596 L 119.85445 38.18184 L 120.39622 38.06845 L 120.93802 37.95451 L 121.4798 37.84148 L 122.02158 37.72862 L 122.56335 37.61739 L 123.10515 37.50507 L 123.64693 37.3924 L 124.1887 37.28079 L 124.73048 37.16992 L 125.27228 37.05869 L 125.81406 36.94798 L 126.35583 36.83675 L 126.89761 36.72696 L 127.4394 36.6168 L 127.98119 36.50772 L 128.52296 36.39812 L 129.06474 36.2885 L 129.60654 36.17924 L 130.14832 36.07124 L 130.6901 35.96252 L 131.23187 35.85579 L 131.77367 35.74654 L 132.31544 35.63855 L 132.85722 35.53198 L 133.399 35.42506 L 133.9408 35.31851 L 134.48257 35.21088 L 135.02435 35.10432 L 135.56613 34.99957 L 136.10793 34.89392 L 136.6497 34.78592 L 137.19148 34.6808 L 137.73326 34.5773 L 138.27505 34.47202 L 138.81683 34.36815 L 139.35861 34.26303 L 139.90039 34.15955 L 140.44218 34.05515 L 140.98396 33.95074 L 141.52574 33.84833 L 142.06754 33.74448 L 142.60931 33.63991 L 143.1511 33.54037 L 143.69287 33.43616 L 144.23466 33.33446 L 144.77644 33.23114 L 145.31822 33.12944 L 145.86 33.02829 L 146.4018 32.92696 L 146.94357 32.82669 L 147.48535 32.72302 L 148.02713 32.62367 L 148.56892 32.5234 L 149.1107 32.42316 L 149.65248 32.32344 L 150.19426 32.2221 L 150.73605 32.12221 L 151.27783 32.02303 L 151.81961 31.92386 L 152.36139 31.82611 L 152.90318 31.72424 L 153.44496 31.62651 L 153.98674 31.5286 L 154.52852 31.43013 L 155.07031 31.33006 L 155.61209 31.2325 L 156.15387 31.13513 L 156.69565 31.03902 L 157.23744 30.94307 L 157.77922 30.84282 L 158.321 30.74615 L 158.86278 30.6486 L 159.40457 30.55339 L 159.94635 30.45673 L 160.48813 30.35666 L 161.0299 30.26198 L 161.5717 30.1673 L 162.11348 30.06813 L 162.65526 29.97237 L 163.19704 29.8777 L 163.73883 29.78249 L 164.28061 29.6869 L 164.82239 29.59204 L 165.36417 29.49791 L 165.90596 29.40288 L 166.44774 29.30891 L 166.98952 29.21478 L 167.53131 29.12029 L 168.07309 29.02669 L 168.61487 28.93202 L 169.15665 28.8395 L 169.69844 28.74536 L 170.24022 28.65285 L 170.782 28.55925 L 171.32378 28.46547 L 171.86557 28.37494 L 172.40735 28.28116 L 172.94913 28.18846 L 173.4909 28.09756 L 174.0327 28.00505 L 174.57448 27.91325 L 175.11626 27.82092 L 175.65804 27.72913 L 176.19983 27.63858 L 176.74161 27.54715 L 177.28339 27.4559 L 177.82516 27.36446 L 178.36696 27.27158 L 178.90874 27.18248 L 179.45052 27.09232 L 179.53865 27.07755  " fill="none"/>
 <g transform="matrix(0.98622,-0.16515,0.16515,0.98622,179.53864,27.07755)">
 <g stroke-width="0.31999">
 <g stroke-dasharray="none" stroke-dashoffset="0.0">
 <g stroke-linecap="round">
 <g stroke-linejoin="round">
 <path d=" M -1.19998 1.59998 C -1.09998 0.99998 0.0 0.09999 0.29999 0.0 C 0.0 -0.09999 -1.09998 -0.99998 -1.19998 -1.59998  " fill="none"/>
 </g>
 </g>
 </g>
 </g>
  </g>
 </g>
 <g transform="translate(182.7845,84.54617)">
 <g fill="#000">
 <text style="stroke:none" transform="scale(1,-1) translate(2.85764,0)" text-anchor="middle"  font-size="10"> 
<g fill="#000">
 <g stroke="none"> x </g> </g>
 </text> 
</g>
 </g>
 <g transform="translate(21.53513,154.19038)">
 <g fill="#000">
 <text style="stroke:none" transform="scale(1,-1) translate(2.6308,0)" text-anchor="middle"  font-size="10"> 
<g fill="#000">
 <g stroke="none"> y </g> </g>
 </text> 
</g>
 </g>
 </g>
 </g>
                                             </g> 
</svg> 
