<?xml version="1.0" encoding="iso-8859-1" standalone="no"?> 
<?xml-stylesheet href="verticalLineTest.css" type="text/css"?> 
<svg xmlns="http://www.w3.org/2000/svg" xmlns:xlink="http://www.w3.org/1999/xlink" width="195.39499pt" height="169.16756pt" viewBox="-43.69893 -6.97186 195.39499 169.16756 "> 
<g transform="translate(0, 162.1957 ) scale(1,-1) translate(0,6.97186 )"> 
             <g stroke="#000" fill="#000">
 <g stroke-width="0.4">
 <g stroke-width="0.2">
 <g stroke="#808080" fill="#808080">
 <path d=" M 7.71408 13.29424 L 7.71408 17.56207 M 23.14224 13.29424 L 23.14224 17.56207 M 38.5704 13.29424 L 38.5704 17.56207 M 69.42673 13.29424 L 69.42673 17.56207 M 84.85489 13.29424 L 84.85489 17.56207 M 100.28305 13.29424 L 100.28305 17.56207  " fill="none"/>
 </g>
 </g>
 <g stroke-width="0.2">
 <g stroke="#808080" fill="#808080">
 <path d=" M 51.86464 0.0 L 56.13248 0.0 M 51.86464 30.85632 L 56.13248 30.85632 M 51.86464 46.28448 L 56.13248 46.28448 M 51.86464 61.71265 L 56.13248 61.71265 M 51.86464 77.14081 L 56.13248 77.14081 M 51.86464 92.56897 L 56.13248 92.56897 M 51.86464 107.99713 L 56.13248 107.99713 M 51.86464 123.4253 L 56.13248 123.4253 M 51.86464 138.85345 L 56.13248 138.85345 M 51.86464 154.28162 L 56.13248 154.28162  " fill="none"/>
 </g>
 </g>
 <path d=" M -43.49893 15.42816 L 149.4961 15.42816  " fill="none"/>
 <g transform="translate(149.4961,15.42816)">
 <path d=" M 1.99997 0.0 L -1.19998 1.59998 L 0.0 0.0 L -1.19998 -1.59998  " stroke="none"/>
  </g>
 <path d=" M 53.99857 0.0 L 53.99857 159.99573  " fill="none"/>
 <g transform="matrix(0.0,1.0,-1.0,0.0,53.99857,159.99573)">
 <path d=" M 1.99997 0.0 L -1.19998 1.59998 L 0.0 0.0 L -1.19998 -1.59998  " stroke="none"/>
  </g>
 <g transform="translate(-0.89699,3.31682)">
 <g fill="#000">
 <text style="stroke:none" transform="scale(1,-1) translate(8.61107,0)" text-anchor="middle"  font-size="10"> 
<g fill="#000">
 <g stroke="none">  − 3</g> </g>
 </text> 
</g>
 </g>
 <g transform="translate(14.53117,3.31682)">
 <g fill="#000">
 <text style="stroke:none" transform="scale(1,-1) translate(8.61107,0)" text-anchor="middle"  font-size="10"> 
<g fill="#000">
 <g stroke="none">  − 2</g> </g>
 </text> 
</g>
 </g>
 <g transform="translate(29.95934,3.31682)">
 <g fill="#000">
 <text style="stroke:none" transform="scale(1,-1) translate(8.61107,0)" text-anchor="middle"  font-size="10"> 
<g fill="#000">
 <g stroke="none">  − 1</g> </g>
 </text> 
</g>
 </g>
 <g transform="translate(66.92673,3.31683)">
 <g fill="#000">
 <text style="stroke:none" transform="scale(1,-1) translate(2.5,0)" text-anchor="middle"  font-size="10"> 
<g fill="#000">
 <g stroke="none"> 1 </g> </g>
 </text> 
</g>
 </g>
 <g transform="translate(82.35489,3.31683)">
 <g fill="#000">
 <text style="stroke:none" transform="scale(1,-1) translate(2.5,0)" text-anchor="middle"  font-size="10"> 
<g fill="#000">
 <g stroke="none"> 2 </g> </g>
 </text> 
</g>
 </g>
 <g transform="translate(97.78305,3.31683)">
 <g fill="#000">
 <text style="stroke:none" transform="scale(1,-1) translate(2.5,0)" text-anchor="middle"  font-size="10"> 
<g fill="#000">
 <g stroke="none"> 3 </g> </g>
 </text> 
</g>
 </g>
 <g transform="translate(31.10953,-2.80556)">
 <g fill="#000">
 <text style="stroke:none" transform="scale(1,-1) translate(8.61107,0)" text-anchor="middle"  font-size="10"> 
<g fill="#000">
 <g stroke="none">  − 1</g> </g>
 </text> 
</g>
 </g>
 <g transform="translate(43.33167,27.63411)">
 <g fill="#000">
 <text style="stroke:none" transform="scale(1,-1) translate(2.5,0)" text-anchor="middle"  font-size="10"> 
<g fill="#000">
 <g stroke="none"> 1 </g> </g>
 </text> 
</g>
 </g>
 <g transform="translate(43.33167,43.06227)">
 <g fill="#000">
 <text style="stroke:none" transform="scale(1,-1) translate(2.5,0)" text-anchor="middle"  font-size="10"> 
<g fill="#000">
 <g stroke="none"> 2 </g> </g>
 </text> 
</g>
 </g>
 <g transform="translate(43.33167,58.49043)">
 <g fill="#000">
 <text style="stroke:none" transform="scale(1,-1) translate(2.5,0)" text-anchor="middle"  font-size="10"> 
<g fill="#000">
 <g stroke="none"> 3 </g> </g>
 </text> 
</g>
 </g>
 <g transform="translate(43.33167,73.9186)">
 <g fill="#000">
 <text style="stroke:none" transform="scale(1,-1) translate(2.5,0)" text-anchor="middle"  font-size="10"> 
<g fill="#000">
 <g stroke="none"> 4 </g> </g>
 </text> 
</g>
 </g>
 <g transform="translate(43.33167,89.34676)">
 <g fill="#000">
 <text style="stroke:none" transform="scale(1,-1) translate(2.5,0)" text-anchor="middle"  font-size="10"> 
<g fill="#000">
 <g stroke="none"> 5 </g> </g>
 </text> 
</g>
 </g>
 <g transform="translate(43.33167,104.77492)">
 <g fill="#000">
 <text style="stroke:none" transform="scale(1,-1) translate(2.5,0)" text-anchor="middle"  font-size="10"> 
<g fill="#000">
 <g stroke="none"> 6 </g> </g>
 </text> 
</g>
 </g>
 <g transform="translate(43.33167,120.20308)">
 <g fill="#000">
 <text style="stroke:none" transform="scale(1,-1) translate(2.5,0)" text-anchor="middle"  font-size="10"> 
<g fill="#000">
 <g stroke="none"> 7 </g> </g>
 </text> 
</g>
 </g>
 <g transform="translate(43.33167,135.63124)">
 <g fill="#000">
 <text style="stroke:none" transform="scale(1,-1) translate(2.5,0)" text-anchor="middle"  font-size="10"> 
<g fill="#000">
 <g stroke="none"> 8 </g> </g>
 </text> 
</g>
 </g>
 <g transform="translate(43.33167,151.0594)">
 <g fill="#000">
 <text style="stroke:none" transform="scale(1,-1) translate(2.5,0)" text-anchor="middle"  font-size="10"> 
<g fill="#000">
 <g stroke="none"> 9 </g> </g>
 </text> 
</g>
 </g>
 <clipPath id="pgfcp3"><path d=" M -43.49893 0.0 L 151.49606 0.0 L 151.49606 161.9957 L -43.49893 161.9957 Z  "/> </clipPath>
 <g clip-path="url(#pgfcp3)">
 <path d=" M 7.71408 154.28162 L 8.02367 152.43025 L 8.33325 150.59134 L 8.64285 148.76482 L 8.95244 146.95073 L 9.26204 145.14922 L 9.57162 143.36 L 9.88121 141.5832 L 10.19081 139.81882 L 10.5004 138.06685 L 10.81 136.32733 L 11.11958 134.60022 L 11.42918 132.88556 L 11.73877 131.18329 L 12.04836 129.49348 L 12.35796 127.8162 L 12.66754 126.15123 L 12.97714 124.49866 L 13.28673 122.85855 L 13.59633 121.23083 L 13.90591 119.61557 L 14.2155 118.01271 L 14.5251 116.42227 L 14.83469 114.84428 L 15.14429 113.2787 L 15.45387 111.72568 L 15.76346 110.18495 L 16.07306 108.65663 L 16.38264 107.14075 L 16.69225 105.6373 L 17.00183 104.14627 L 17.31143 102.66768 L 17.62102 101.2015 L 17.9306 99.74776 L 18.2402 98.30643 L 18.54979 96.87762 L 18.85939 95.46115 L 19.16898 94.05711 L 19.47858 92.66548 L 19.78816 91.28629 L 20.09775 89.91951 L 20.40735 88.56514 L 20.71693 87.22322 L 21.02654 85.89372 L 21.33612 84.57664 L 21.6457 83.2721 L 21.9553 81.97987 L 22.2649 80.70006 L 22.5745 79.43268 L 22.88408 78.17773 L 23.19368 76.93521 L 23.50327 75.70512 L 23.81285 74.48744 L 24.12245 73.28218 L 24.43204 72.08936 L 24.74164 70.90906 L 25.05122 69.74107 L 25.36082 68.58554 L 25.67041 67.44241 L 25.98 66.3117 L 26.2896 65.19344 L 26.59918 64.08757 L 26.90878 62.99414 L 27.21837 61.91316 L 27.52795 60.84457 L 27.83755 59.78842 L 28.14714 58.74478 L 28.45674 57.71349 L 28.76633 56.69463 L 29.07593 55.68816 L 29.38551 54.69414 L 29.6951 53.71252 L 30.0047 52.74338 L 30.31429 51.78662 L 30.62389 50.8423 L 30.93347 49.91046 L 31.24307 48.991 L 31.55266 48.08394 L 31.86224 47.18932 L 32.17184 46.30713 L 32.48143 45.43733 L 32.79103 44.58 L 33.10062 43.73508 L 33.4102 42.90257 L 33.7198 42.0825 L 34.02939 41.27484 L 34.33899 40.47969 L 34.64857 39.6969 L 34.95818 38.92651 L 35.26776 38.16856 L 35.57735 37.42305 L 35.88695 36.68994 L 36.19653 35.96927 L 36.50613 35.26103 L 36.81572 34.56522 L 37.12532 33.8818 L 37.4349 33.21089 L 37.74449 32.55234 L 38.0541 31.90622 L 38.36368 31.27252 L 38.67328 30.65125 L 38.98286 30.0424 L 39.29245 29.44598 L 39.60205 28.862 L 39.91164 28.29042 L 40.22124 27.73128 L 40.53082 27.18457 L 40.84042 26.65027 L 41.15001 26.1284 L 41.45961 25.61896 L 41.7692 25.12195 L 42.07878 24.63734 L 42.38838 24.16518 L 42.69797 23.70544 L 43.00757 23.25812 L 43.31715 22.82323 L 43.62675 22.40076 L 43.93634 21.9907 L 44.24593 21.5931 L 44.55553 21.2079 L 44.86511 20.83513 L 45.17471 20.4748 L 45.4843 20.12688 L 45.7939 19.79138 L 46.10349 19.4683 L 46.41309 19.15767 L 46.72267 18.85945 L 47.03226 18.57365 L 47.34186 18.30028 L 47.65144 18.03934 L 47.96104 17.79082 L 48.27063 17.55473 L 48.58023 17.33105 L 48.88982 17.11981 L 49.19942 16.92099 L 49.509 16.7346 L 49.81859 16.56064 L 50.12819 16.3991 L 50.43777 16.24997 L 50.74738 16.11328 L 51.05696 15.98901 L 51.36655 15.87717 L 51.67615 15.77774 L 51.98573 15.69075 L 52.29533 15.61618 L 52.60492 15.55405 L 52.91452 15.50432 L 53.2241 15.46703 L 53.5337 15.44215 L 53.84329 15.42972 L 54.15288 15.4297 L 54.46248 15.44211 L 54.77206 15.46693 L 55.08167 15.5042 L 55.39125 15.55388 L 55.70085 15.61598 L 56.01044 15.6905 L 56.32004 15.77747 L 56.62962 15.87685 L 56.93921 15.98865 L 57.24881 16.11288 L 57.5584 16.24954 L 57.868 16.39862 L 58.17758 16.56012 L 58.48718 16.73405 L 58.79677 16.92041 L 59.10635 17.1192 L 59.41595 17.3304 L 59.72554 17.55403 L 60.03514 17.79008 L 60.34473 18.03857 L 60.65433 18.29947 L 60.96391 18.5728 L 61.27351 18.85857 L 61.5831 19.15674 L 61.89268 19.46735 L 62.20229 19.79037 L 62.51187 20.12584 L 62.82147 20.47371 L 63.13106 20.83401 L 63.44066 21.20676 L 63.75024 21.5919 L 64.05984 21.98949 L 64.36943 22.39949 L 64.67902 22.82193 L 64.98862 23.25677 L 65.2982 23.70406 L 65.6078 24.16377 L 65.91739 24.6359 L 66.22697 25.12045 L 66.53658 25.61743 L 66.84616 26.12685 L 67.15576 26.64867 L 67.46535 27.18292 L 67.77495 27.72961 L 68.08453 28.28871 L 68.39413 28.86024 L 68.70372 29.4442 L 69.0133 30.04057 L 69.3229 30.64938 L 69.63249 31.27063 L 69.9421 31.90427 L 70.25168 32.55037 L 70.56128 33.20886 L 70.87086 33.87979 L 71.18045 34.56311 L 71.49005 35.25891 L 71.79964 35.9671 L 72.10924 36.68773 L 72.41882 37.42079 L 72.72841 38.16629 L 73.03801 38.9242 L 73.3476 39.69453 L 73.6572 40.47728 L 73.96678 41.27246 L 74.27638 42.08003 L 74.58597 42.90005 L 74.89555 43.73253 L 75.20515 44.57741 L 75.51474 45.43472 L 75.82434 46.30446 L 76.13393 47.18661 L 76.44353 48.0812 L 76.75311 48.98822 L 77.0627 49.90765 L 77.3723 50.83945 L 77.68188 51.78372 L 77.99149 52.74043 L 78.30107 53.70956 L 78.61066 54.69113 L 78.92026 55.68512 L 79.22984 56.69154 L 79.53944 57.71037 L 79.84903 58.74162 L 80.15863 59.78532 L 80.46822 60.84134 L 80.7778 61.9099 L 81.0874 62.99084 L 81.39699 64.08423 L 81.70659 65.19005 L 82.01617 66.30829 L 82.32578 67.43895 L 82.63536 68.58203 L 82.94495 69.73753 L 83.25455 70.90547 L 83.56413 72.08575 L 83.87373 73.27853 L 84.18332 74.48376 L 84.4929 75.7014 L 84.8025 76.93144 L 85.11209 78.17395 L 85.42169 79.42886 L 85.73128 80.6962 L 86.04088 81.97597 L 86.35046 83.26816 L 86.66005 84.57275 L 86.96965 85.8897 L 87.27924 87.21916 L 87.58884 88.56105 L 87.89842 89.91536 L 88.20802 91.28212 L 88.51761 92.66127 L 88.8272 94.05286 L 89.1368 95.45686 L 89.44638 96.87332 L 89.75598 98.30217 L 90.06557 99.74335 L 90.37515 101.19707 L 90.68475 102.66321 L 90.99434 104.14175 L 91.30394 105.63275 L 91.61353 107.13617 L 91.92313 108.65201 L 92.23271 110.18027 L 92.5423 111.72096 L 92.8519 113.27406 L 93.16148 114.83951 L 93.47108 116.41748 L 93.78067 118.00784 L 94.09027 119.61067 L 94.39986 121.22589 L 94.70944 122.85358 L 95.01904 124.49367 L 95.32863 126.1462 L 95.63823 127.81111 L 95.94781 129.4885 L 96.2574 131.17815 L 96.567 132.88036 L 96.87659 134.595 L 97.18619 136.32205 L 97.49577 138.06155 L 97.80537 139.81348 L 98.11496 141.5778 L 98.42455 143.35458 L 98.73415 145.14377 L 99.04373 146.94539 L 99.35333 148.7593 L 99.66292 150.58575 L 99.97252 152.42464 L 100.20627 153.82228  " fill="none"/>
 <g transform="matrix(0.16489,0.98627,-0.98627,0.16489,100.20627,153.82228)">
 <g stroke-width="0.31999">
 <g stroke-dasharray="none" stroke-dashoffset="0.0">
 <g stroke-linecap="round">
 <g stroke-linejoin="round">
 <path d=" M -1.19998 1.59998 C -1.09998 0.99998 0.0 0.09999 0.29999 0.0 C 0.0 -0.09999 -1.09998 -0.99998 -1.19998 -1.59998  " fill="none"/>
 </g>
 </g>
 </g>
 </g>
  </g>
 </g>
 <g transform="translate(142.26993,18.96332)">
 <g fill="#000">
 <text style="stroke:none" transform="scale(1,-1) translate(2.85764,0)" text-anchor="middle"  font-size="10"> 
<g fill="#000">
 <g stroke="none"> x </g> </g>
 </text> 
</g>
 </g>
 <g transform="translate(57.54108,154.18024)">
 <g fill="#000">
 <text style="stroke:none" transform="scale(1,-1) translate(2.6308,0)" text-anchor="middle"  font-size="10"> 
<g fill="#000">
 <g stroke="none"> y </g> </g>
 </text> 
</g>
 </g>
 </g>
 </g>
                                   </g> 
</svg> 
