<?xml version="1.0" encoding="UTF-8" standalone="no"?>
<!DOCTYPE svg PUBLIC "-//W3C//DTD SVG 1.1//EN" "http://www.w3.org/Graphics/SVG/1.1/DTD/svg11.dtd">
<svg xmlns="http://www.w3.org/2000/svg" xmlns:xlink="http://www.w3.org/1999/xlink" version="1.1" width="194.665pt" height="168.536pt" viewBox="0 0 194.665 168.536">
<path transform="matrix(1,0,0,-1,43.536,161.59)" stroke-width="1" stroke-linecap="butt" stroke-miterlimit="10" stroke-linejoin="miter" fill="none" stroke="#808080" d="M 7.68535 13.24474 L 7.68535 17.49667 M 23.05608 13.24474 L 23.05608 17.49667 M 38.42679 13.24474 L 38.42679 17.49667 M 69.16823 13.24474 L 69.16823 17.49667 M 84.53896 13.24474 L 84.53896 17.49667 M 99.90967 13.24474 L 99.90967 17.49667 "/>
<path transform="matrix(1,0,0,-1,43.536,161.59)" stroke-width="1" stroke-linecap="butt" stroke-miterlimit="10" stroke-linejoin="miter" fill="none" stroke="#808080" d="M 51.67154 0 L 55.92348 0 M 51.67154 30.74144 L 55.92348 30.74144 M 51.67154 46.11215 L 55.92348 46.11215 M 51.67154 61.48288 L 55.92348 61.48288 M 51.67154 76.85359 L 55.92348 76.85359 M 51.67154 92.22432 L 55.92348 92.22432 M 51.67154 107.59503 L 55.92348 107.59503 M 51.67154 122.96576 L 55.92348 122.96576 M 51.67154 138.33647 L 55.92348 138.33647 M 51.67154 153.7072 L 55.92348 153.7072 "/>
<path transform="matrix(1,0,0,-1,43.536,161.59)" stroke-width="1" stroke-linecap="butt" stroke-miterlimit="10" stroke-linejoin="miter" fill="none" stroke="#000000" d="M -43.33698 15.37071 L 148.93949 15.37071 "/>
<path transform="matrix(1,0,0,-1,192.47548,146.21929)" d="M 1.99252 0 L -1.19551 1.59401 L 0 0 L -1.19551 -1.59401 "/>
<path transform="matrix(1,0,0,-1,43.536,161.59)" stroke-width="1" stroke-linecap="butt" stroke-miterlimit="10" stroke-linejoin="miter" fill="none" stroke="#000000" d="M 53.79752 0 L 53.79752 159.40004 "/>
<path transform="matrix(0,-1,-1,-0,97.33352,2.1899567)" d="M 1.99252 0 L -1.19551 1.59401 L 0 0 L -1.19551 -1.59401 "/>
<symbol id="font_0_1">
<path d="M .57600006 0 C .59300008 0 .611 0 .611 .019999996 C .611 .040000008 .59300008 .040000008 .57600006 .040000008 L .035000005 .040000008 C .018 .040000008 0 .040000008 0 .019999996 C 0 0 .018 0 .035000005 0 L .57600006 0 Z "/>
</symbol>
<use xlink:href="#font_0_1" transform="matrix(9.9626,0,0,-9.9626,45.682897,155.9946)"/>
<symbol id="font_1_3">
<path d="M .24800003 .37400005 C .33 .40100003 .388 .47100006 .388 .55 C .388 .632 .3 .688 .204 .688 C .10300001 .688 .027000003 .628 .027000003 .55200007 C .027000003 .519 .049000004 .5 .078 .5 C .109000008 .5 .12900001 .522 .12900001 .55100008 C .12900001 .6010001 .082 .6010001 .067 .6010001 C .098 .65000006 .164 .66300007 .20000002 .66300007 C .24100003 .66300007 .29600004 .64100006 .29600004 .55100008 C .29600004 .53900006 .29400004 .48100005 .268 .43700005 C .238 .38900004 .204 .38600005 .17900002 .38500003 C .171 .38400004 .14700002 .38200004 .14000002 .38200004 C .132 .38100005 .125 .38000003 .125 .37000004 C .125 .35900004 .132 .35900004 .14900002 .35900004 L .19300002 .35900004 C .275 .35900004 .312 .29100005 .312 .193 C .312 .057000005 .24300003 .028 .199 .028 C .15600002 .028 .081 .045 .046000005 .104 C .081 .09900001 .11200001 .12100001 .11200001 .15900001 C .11200001 .19500001 .085 .215 .056 .215 C .031999999 .215 0 .201 0 .157 C 0 .06600001 .093 0 .20200002 0 C .32400004 0 .41500003 .091000009 .41500003 .193 C .41500003 .27500005 .35200004 .35300005 .24800003 .37400005 Z "/>
</symbol>
<use xlink:href="#font_1_3" transform="matrix(9.9626,0,0,-9.9626,53.02343,158.50518)"/>
<use xlink:href="#font_0_1" transform="matrix(9.9626,0,0,-9.9626,61.052896,155.9946)"/>
<symbol id="font_1_2">
<path d="M .07700001 .07700001 L .18300002 .18 C .33900003 .31800003 .39900003 .372 .39900003 .47200004 C .39900003 .586 .30900003 .666 .18700002 .666 C .074 .666 0 .574 0 .485 C 0 .42900003 .05 .42900003 .053000008 .42900003 C .07000001 .42900003 .105000007 .441 .105000007 .48200003 C .105000007 .508 .08700001 .53400006 .052000006 .53400006 C .044000005 .53400006 .042000008 .53400006 .039 .53300008 C .062000004 .59800007 .11600001 .63500007 .17400001 .63500007 C .26500003 .63500007 .308 .554 .308 .47200004 C .308 .39200003 .25800003 .31300003 .20300003 .25100003 L .011000004 .037 C 0 .026 0 .024 0 0 L .37100003 0 L .39900003 .17400001 L .374 .17400001 C .36900003 .14400001 .36200003 .1 .352 .085 C .345 .07700001 .279 .07700001 .257 .07700001 L .07700001 .07700001 Z "/>
</symbol>
<use xlink:href="#font_1_2" transform="matrix(9.9626,0,0,-9.9626,68.47312,158.286)"/>
<use xlink:href="#font_0_1" transform="matrix(9.9626,0,0,-9.9626,76.4239,155.9946)"/>
<symbol id="font_1_1">
<path d="M .205 .64000007 C .205 .66400006 .205 .666 .18200003 .666 C .120000008 .60200008 .032000007 .60200008 0 .60200008 L 0 .57100006 C .020000004 .57100006 .07900001 .57100006 .13100001 .597 L .13100001 .079 C .13100001 .043 .128 .031000002 .038000004 .031000002 L .0060000049 .031000002 L .0060000049 0 C .04100001 .003 .128 .003 .168 .003 C .20800002 .003 .29500003 .003 .33000005 0 L .33000005 .031000002 L .29800005 .031000002 C .20800002 .031000002 .205 .042000005 .205 .079 L .205 .64000007 Z "/>
</symbol>
<use xlink:href="#font_1_1" transform="matrix(9.9626,0,0,-9.9626,84.23267,158.286)"/>
<use xlink:href="#font_1_1" transform="matrix(9.9626,0,0,-9.9626,111.09868,158.286)"/>
<use xlink:href="#font_1_2" transform="matrix(9.9626,0,0,-9.9626,126.08112,158.286)"/>
<use xlink:href="#font_1_3" transform="matrix(9.9626,0,0,-9.9626,141.37143,158.50518)"/>
<use xlink:href="#font_0_1" transform="matrix(9.9626,0,0,-9.9626,79.7839,162.0936)"/>
<use xlink:href="#font_1_1" transform="matrix(9.9626,0,0,-9.9626,87.591678,164.385)"/>
<use xlink:href="#font_1_1" transform="matrix(9.9626,0,0,-9.9626,87.591678,134.05899)"/>
<use xlink:href="#font_1_2" transform="matrix(9.9626,0,0,-9.9626,87.20313,118.688999)"/>
<use xlink:href="#font_1_3" transform="matrix(9.9626,0,0,-9.9626,87.12343,103.53717)"/>
<symbol id="font_1_4">
<path d="M .266 .165 L .266 .078 C .266 .042000005 .26400004 .031000002 .19000001 .031000002 L .16900002 .031000002 L .16900002 0 C .21000001 .003 .26200003 .003 .30400003 .003 C .34600003 .003 .39900003 .003 .44000004 0 L .44000004 .031000002 L .41900004 .031000002 C .34500004 .031000002 .34300003 .042000005 .34300003 .078 L .34300003 .165 L .44300003 .165 L .44300003 .19600001 L .34300003 .19600001 L .34300003 .651 C .34300003 .671 .34300003 .67700007 .32700003 .67700007 C .31800003 .67700007 .31500004 .67700007 .307 .665 L 0 .19600001 L 0 .165 L .266 .165 M .272 .19600001 L .028 .19600001 L .272 .569 L .272 .19600001 Z "/>
</symbol>
<use xlink:href="#font_1_4" transform="matrix(9.9626,0,0,-9.9626,86.983959,87.948)"/>
<symbol id="font_1_5">
<path d="M .39900003 .223 C .39900003 .34200005 .317 .44200004 .209 .44200004 C .16100002 .44200004 .118000019 .42600004 .082 .39100004 L .082 .586 C .10200001 .58000007 .135 .573 .16700001 .573 C .29 .573 .36 .66400006 .36 .67700007 C .36 .683 .357 .688 .35 .688 C .349 .688 .347 .688 .342 .68500009 C .322 .67600008 .273 .656 .20600002 .656 C .16600001 .656 .120000008 .66300007 .073 .6840001 C .065 .68700006 .06300001 .68700006 .061000009 .68700006 C .051000004 .68700006 .051000004 .679 .051000004 .66300007 L .051000004 .36700005 C .051000004 .34900005 .051000004 .34100003 .065 .34100003 C .07200001 .34100003 .074 .34400005 .07800001 .35000003 C .08900002 .36600004 .12600002 .42000006 .207 .42000006 C .259 .42000006 .284 .37400005 .292 .35600005 C .308 .31900005 .31 .28000004 .31 .23 C .31 .19500001 .31 .135 .286 .093 C .262 .054000006 .22500001 .028 .17900002 .028 C .106000009 .028 .049000008 .08100001 .032 .14000002 C .035 .13900002 .038000008 .13800001 .049000008 .13800001 C .082 .13800001 .09900001 .163 .09900001 .187 C .09900001 .21100001 .082 .23600002 .049000008 .23600002 C .035 .23600002 0 .22900002 0 .18300002 C 0 .097 .069000009 0 .18100001 0 C .297 0 .39900003 .096 .39900003 .223 Z "/>
</symbol>
<use xlink:href="#font_1_5" transform="matrix(9.9626,0,0,-9.9626,87.20313,72.79617)"/>
<symbol id="font_1_6">
<path d="M .089999999 .35000003 L .089999999 .37400005 C .089999999 .62700006 .21400002 .66300007 .26500003 .66300007 C .28900004 .66300007 .33100004 .65700009 .35300002 .623 C .33800004 .623 .298 .623 .298 .57800009 C .298 .54700008 .32200004 .53200009 .344 .53200009 C .36 .53200009 .39000003 .54100009 .39000003 .58000007 C .39000003 .64000007 .34600003 .688 .263 .688 C .13499999 .688 0 .559 0 .33800004 C 0 .071 .116000007 0 .20900002 0 C .32000003 0 .41500003 .094000007 .41500003 .22600001 C .41500003 .35300005 .32600004 .44900004 .215 .44900004 C .14700002 .44900004 .11000001 .39800004 .089999999 .35000003 M .20900002 .028 C .146 .028 .116000007 .088 .11000001 .103 C .092 .15 .092 .23 .092 .24800001 C .092 .32600004 .124000009 .42600004 .21400002 .42600004 C .23000002 .42600004 .27600003 .42600004 .307 .36400003 C .32500003 .32700003 .32500003 .27600003 .32500003 .22700002 C .32500003 .179 .32500003 .12900001 .30800004 .093 C .27800004 .033000005 .23200003 .028 .20900002 .028 Z "/>
</symbol>
<use xlink:href="#font_1_6" transform="matrix(9.9626,0,0,-9.9626,87.12343,57.42617)"/>
<symbol id="font_1_7">
<path d="M .42000003 .63100007 C .42900003 .64300009 .42900003 .64500007 .42900003 .66600009 L .18600002 .66600009 C .064 .66600009 .062000008 .679 .058000007 .6980001 L .033 .6980001 L 0 .49200005 L .024999999 .49200005 C .028000005 .508 .037 .57100006 .050000006 .58300009 C .057000005 .58900007 .13500002 .58900007 .148 .58900007 L .35500003 .58900007 C .344 .573 .26500003 .46400006 .24300003 .43100003 C .153 .29600004 .12000001 .157 .12000001 .055 C .12000001 .045 .12000001 0 .16600001 0 C .21200001 0 .21200001 .045 .21200001 .055 L .21200001 .106000009 C .21200001 .16100002 .21500004 .216 .22300002 .27 C .22700003 .29300005 .24100003 .37900005 .28500004 .44100005 L .42000003 .63100007 Z "/>
</symbol>
<use xlink:href="#font_1_7" transform="matrix(9.9626,0,0,-9.9626,87.26291,42.055177)"/>
<symbol id="font_1_8">
<path d="M .121 .47900004 C .075 .509 .071 .54300007 .071 .56000009 C .071 .62100008 .136 .66300007 .20700002 .66300007 C .28000004 .66300007 .344 .61100009 .344 .53900006 C .344 .48200003 .305 .43400005 .245 .39900003 L .121 .47900004 M .26700003 .38400004 C .33900003 .42100004 .388 .47300006 .388 .53900006 C .388 .63100007 .29900003 .688 .208 .688 C .108 .688 .027000003 .614 .027000003 .521 C .027000003 .503 .029 .45800004 .071 .41100005 C .082 .39900003 .11900001 .37400005 .144 .35700003 C .086 .32800005 0 .272 0 .17300001 C 0 .067 .102000009 0 .20700002 0 C .32000003 0 .41500003 .083000008 .41500003 .19000001 C .41500003 .22600001 .404 .27100004 .36600004 .31300003 C .34700004 .33400003 .33100004 .34400005 .26700003 .38400004 M .167 .34200005 L .29000003 .26400004 C .31800003 .245 .365 .215 .365 .154 C .365 .080000009 .29000003 .028 .208 .028 C .122 .028 .050000006 .09 .050000006 .17300001 C .050000006 .231 .082 .29500003 .167 .34200005 Z "/>
</symbol>
<use xlink:href="#font_1_8" transform="matrix(9.9626,0,0,-9.9626,87.12343,26.68518)"/>
<symbol id="font_1_9">
<path d="M .32500003 .34000004 L .32500003 .30800004 C .32500003 .074 .22100002 .028 .16300002 .028 C .146 .028 .092 .030000002 .065000008 .064 C .109000008 .064 .117000009 .093 .117000009 .11000001 C .117000009 .141 .093 .156 .071 .156 C .055 .156 .024999999 .147 .024999999 .108 C .024999999 .041 .079 0 .164 0 C .293 0 .41500003 .136 .41500003 .35100005 C .41500003 .62000009 .3 .688 .21100003 .688 C .15600002 .688 .107 .67 .064 .62500008 C .023000002 .58000007 0 .53800007 0 .46300004 C 0 .33800004 .08800001 .24000001 .20000002 .24000001 C .261 .24000001 .30200003 .28200004 .32500003 .34000004 M .201 .263 C .185 .263 .139 .263 .108 .32600004 C .089999999 .36300005 .089999999 .41300006 .089999999 .46200005 C .089999999 .51600006 .089999999 .563 .11100001 .6 C .13800001 .65000006 .176 .66300007 .21100003 .66300007 C .25700004 .66300007 .29000003 .62900009 .307 .58400008 C .31900005 .55200007 .323 .48900003 .323 .44300006 C .323 .36000005 .28900004 .263 .201 .263 Z "/>
</symbol>
<use xlink:href="#font_1_9" transform="matrix(9.9626,0,0,-9.9626,87.12343,11.314178)"/>
<clipPath id="cp2">
<path transform="matrix(1,0,0,-1,43.536,161.59)" d="M -43.33698 0 L 150.932 0 L 150.932 161.39257 L -43.33698 161.39257 Z "/>
</clipPath>
<g clip-path="url(#cp2)">
<path transform="matrix(1,0,0,-1,43.536,161.59)" stroke-width="1" stroke-linecap="butt" stroke-miterlimit="10" stroke-linejoin="miter" fill="none" stroke="#000000" d="M 7.68535 153.7072 L 7.99379 151.86273 L 8.30222 150.03066 L 8.61067 148.21094 L 8.9191 146.40361 L 9.22755 144.6088 L 9.53598 142.82625 L 9.8444 141.05606 L 10.15286 139.29825 L 10.46129 137.5528 L 10.76974 135.81977 L 11.07817 134.09908 L 11.38663 132.3908 L 11.69505 130.69487 L 12.0035 129.01136 L 12.31194 127.3403 L 12.62038 125.68155 L 12.92882 124.03513 L 13.23726 122.40112 L 13.5457 120.77946 L 13.85413 119.17021 L 14.16257 117.57332 L 14.47101 115.9888 L 14.77945 114.41669 L 15.08789 112.85693 L 15.39633 111.3097 L 15.70476 109.7747 L 16.01321 108.25208 L 16.32164 106.74184 L 16.6301 105.24399 L 16.93852 103.75851 L 17.24698 102.28543 L 17.5554 100.8247 L 17.86383 99.37637 L 18.17229 97.94041 L 18.48071 96.51692 L 18.78917 95.10573 L 19.0976 93.70692 L 19.40605 92.32047 L 19.71448 90.94641 L 20.02292 89.58472 L 20.33136 88.2354 L 20.6398 86.89847 L 20.94824 85.57391 L 21.25667 84.26175 L 21.56511 82.96205 L 21.87355 81.67464 L 22.18199 80.3996 L 22.49043 79.13693 L 22.79887 77.88666 L 23.10732 76.64876 L 23.41576 75.42325 L 23.72418 74.21011 L 24.03264 73.00934 L 24.34106 71.82095 L 24.64952 70.64505 L 24.95795 69.48141 L 25.26639 68.33018 L 25.57483 67.19131 L 25.88326 66.0648 L 26.19171 64.9507 L 26.50014 63.84895 L 26.8086 62.7596 L 27.11702 61.68265 L 27.42546 60.61803 L 27.7339 59.56581 L 28.04234 58.52606 L 28.35078 57.4986 L 28.65923 56.48354 L 28.96767 55.48082 L 29.2761 54.4905 L 29.58453 53.51254 L 29.89297 52.547 L 30.20142 51.59381 L 30.50986 50.653 L 30.8183 49.72462 L 31.12674 48.8086 L 31.43518 47.9049 L 31.7436 47.01361 L 32.05206 46.13472 L 32.36049 45.26816 L 32.66893 44.41402 L 32.97737 43.57224 L 33.2858 42.74283 L 33.59425 41.92581 L 33.90268 41.12115 L 34.21114 40.32896 L 34.51956 39.54909 L 34.82802 38.78157 L 35.13644 38.02644 L 35.44489 37.2837 L 35.75333 36.55333 L 36.06177 35.83534 L 36.37021 35.12975 L 36.67863 34.43652 L 36.98709 33.75565 L 37.29552 33.08723 L 37.60396 32.43114 L 37.9124 31.78741 L 38.22084 31.15608 L 38.52928 30.53712 L 38.83772 29.93054 L 39.14615 29.33635 L 39.4546 28.75453 L 39.76303 28.18509 L 40.07149 27.62802 L 40.37991 27.08334 L 40.68835 26.55104 L 40.9968 26.03111 L 41.30524 25.52356 L 41.61368 25.02841 L 41.9221 24.54561 L 42.23056 24.0752 L 42.53899 23.61717 L 42.84744 23.17152 L 43.15587 22.73825 L 43.46432 22.31735 L 43.77275 21.90883 L 44.08118 21.5127 L 44.38963 21.12894 L 44.69806 20.75755 L 45.00652 20.39856 L 45.31494 20.05194 L 45.6234 19.71768 L 45.93182 19.39581 L 46.24028 19.08633 L 46.5487 18.78923 L 46.85715 18.5045 L 47.16559 18.23213 L 47.47403 17.97217 L 47.78247 17.72458 L 48.0909 17.48936 L 48.39935 17.26653 L 48.70778 17.05606 L 49.01624 16.85799 L 49.32466 16.67229 L 49.6331 16.49898 L 49.94154 16.33803 L 50.24998 16.18947 L 50.55843 16.05328 L 50.86687 15.92947 L 51.1753 15.81804 L 51.48375 15.719 L 51.79218 15.63232 L 52.10062 15.55803 L 52.40906 15.49612 L 52.7175 15.44658 L 53.02594 15.40944 L 53.33438 15.38466 L 53.64282 15.37227 L 53.95125 15.37225 L 54.2597 15.38461 L 54.56813 15.40935 L 54.87659 15.44646 L 55.18501 15.49596 L 55.49345 15.55783 L 55.8019 15.63208 L 56.11034 15.71872 L 56.41878 15.81773 L 56.7272 15.92911 L 57.03566 16.05289 L 57.34409 16.18904 L 57.65254 16.33755 L 57.96097 16.49846 L 58.26942 16.67174 L 58.57785 16.8574 L 58.88629 17.05545 L 59.19473 17.26587 L 59.50316 17.48866 L 59.81161 17.72385 L 60.12004 17.9714 L 60.4285 18.23132 L 60.73692 18.50365 L 61.04538 18.78835 L 61.3538 19.0854 L 61.66225 19.39485 L 61.97069 19.71669 L 62.27913 20.0509 L 62.58757 20.39748 L 62.89601 20.75644 L 63.20445 21.12779 L 63.51288 21.5115 L 63.82133 21.90761 L 64.12976 22.31609 L 64.4382 22.73695 L 64.74664 23.17018 L 65.05508 23.6158 L 65.36353 24.0738 L 65.67197 24.54416 L 65.9804 25.02692 L 66.28885 25.52205 L 66.59727 26.02957 L 66.90572 26.54944 L 67.21416 27.08171 L 67.5226 27.62636 L 67.83104 28.18338 L 68.13948 28.75279 L 68.44792 29.33456 L 68.75635 29.92873 L 69.0648 30.53526 L 69.37323 31.15419 L 69.68169 31.78548 L 69.99011 32.42917 L 70.29857 33.08522 L 70.607 33.75365 L 70.91542 34.43442 L 71.22388 35.12762 L 71.5323 35.83319 L 71.84076 36.55113 L 72.14919 37.28146 L 72.45763 38.02419 L 72.76607 38.77927 L 73.07451 39.54674 L 73.38295 40.32657 L 73.69139 41.11879 L 73.99983 41.92336 L 74.30827 42.74033 L 74.6167 43.5697 L 74.92514 44.41144 L 75.23358 45.26555 L 75.54202 46.13205 L 75.85046 47.01093 L 76.1589 47.90219 L 76.46735 48.80582 L 76.77577 49.72183 L 77.08423 50.65016 L 77.39265 51.59091 L 77.70111 52.54407 L 78.00954 53.50958 L 78.31796 54.4875 L 78.62642 55.47778 L 78.93484 56.48047 L 79.2433 57.4955 L 79.55173 58.52292 L 79.86018 59.56273 L 80.16861 60.6148 L 80.47705 61.67938 L 80.78549 62.75632 L 81.09393 63.84563 L 81.40237 64.94733 L 81.71082 66.0614 L 82.01926 67.18785 L 82.32768 68.32668 L 82.63612 69.47789 L 82.94456 70.64148 L 83.253 71.81737 L 83.56145 73.0057 L 83.86989 74.20644 L 84.17831 75.41954 L 84.48677 76.645 L 84.7952 77.88289 L 85.10365 79.13313 L 85.41208 80.39575 L 85.72054 81.67075 L 86.02896 82.95813 L 86.33739 84.25787 L 86.64584 85.5699 L 86.95427 86.89442 L 87.26273 88.23132 L 87.57115 89.58058 L 87.87961 90.94226 L 88.18803 92.31627 L 88.49648 93.70268 L 88.80492 95.10146 L 89.11336 96.51263 L 89.4218 97.93617 L 89.73024 99.37198 L 90.03867 100.82028 L 90.3471 102.28098 L 90.65555 103.75401 L 90.96399 105.23946 L 91.27243 106.73727 L 91.58087 108.24747 L 91.88931 109.77005 L 92.19774 111.30501 L 92.5062 112.85233 L 92.81462 114.41194 L 93.12308 115.98404 L 93.4315 117.56848 L 93.73994 119.16533 L 94.04839 120.77454 L 94.35681 122.39616 L 94.66527 124.03015 L 94.9737 125.67653 L 95.28215 127.33525 L 95.59058 129.00638 L 95.89902 130.68975 L 96.20746 132.38562 L 96.5159 134.09387 L 96.82434 135.8145 L 97.13278 137.54752 L 97.44122 139.29293 L 97.74965 141.05069 L 98.05809 142.82085 L 98.36653 144.60337 L 98.67497 146.39829 L 98.98341 148.20543 L 99.29185 150.0251 L 99.6003 151.85713 L 99.83318 153.24958 "/>
<path transform="matrix(.16489,-.98627,-.98627,-.16489,143.36919,8.340424)" stroke-width="1" stroke-linecap="round" stroke-linejoin="round" fill="none" stroke="#000000" d="M -1.19551 1.59401 C -1.09587 .99626 0 .09961 .29886 0 C 0 -.09961 -1.09587 -.99626 -1.19551 -1.59401 "/>
</g>
<symbol id="font_3_1">
<path d="M .305 .31300003 C .311 .33900003 .334 .43100003 .404 .43100003 C .409 .43100003 .433 .43100003 .454 .418 C .426 .41300003 .40600003 .388 .40600003 .36400003 C .40600003 .34800003 .417 .32900004 .444 .32900004 C .46600003 .32900004 .498 .34700004 .498 .38700003 C .498 .43900005 .439 .45300005 .405 .45300005 C .347 .45300005 .312 .40000005 .3 .37700004 C .275 .44300003 .221 .45300005 .19200002 .45300005 C .08800001 .45300005 .031000002 .32400004 .031000002 .29900003 C .031000002 .28900004 .041 .28900004 .043000007 .28900004 C .051000008 .28900004 .054000006 .291 .056 .3 C .09 .40600003 .156 .43100003 .19000001 .43100003 C .209 .43100003 .244 .42200003 .244 .36400003 C .244 .33300004 .22700002 .26600004 .19000001 .126 C .17400001 .064 .13900002 .022000002 .095000009 .022000002 C .08900001 .022000002 .06600001 .022000002 .045 .035 C .07000001 .040000004 .09200001 .061 .09200001 .089 C .09200001 .116000007 .07000001 .124000009 .055000009 .124000009 C .025 .124000009 0 .098000008 0 .06600001 C 0 .020000002 .050000006 0 .094000007 0 C .16000001 0 .19600001 .07000001 .19900002 .076000008 C .21100001 .039 .24700003 0 .307 0 C .41 0 .467 .12900001 .467 .15400002 C .467 .16400002 .458 .16400002 .455 .16400002 C .446 .16400002 .444 .16000001 .442 .15300001 C .409 .046 .341 .022000002 .30900003 .022000002 C .27 .022000002 .254 .054 .254 .08800001 C .254 .11000001 .26 .13200002 .271 .17600002 L .305 .31300003 Z "/>
</symbol>
<use xlink:href="#font_3_1" transform="matrix(9.9626,0,0,-9.9626,185.56291,142.80759)"/>
<symbol id="font_3_2">
<path d="M .45700003 .586 C .461 .6 .461 .602 .461 .609 C .461 .62700006 .447 .63600006 .432 .63600006 C .42200003 .63600006 .40600003 .63 .397 .615 C .395 .61 .387 .579 .38300003 .561 C .37600003 .535 .36900003 .508 .363 .48100005 L .318 .301 C .314 .286 .271 .21600002 .20500002 .21600002 C .15400002 .21600002 .143 .26000003 .143 .29700003 C .143 .34300003 .16000001 .40500004 .194 .49300004 C .21000001 .53400006 .21400002 .545 .21400002 .56500008 C .21400002 .61 .18200001 .6470001 .13200002 .6470001 C .037 .6470001 0 .50200006 0 .49300004 C 0 .48300005 .01 .48300005 .012 .48300005 C .022000002 .48300005 .023 .485 .028000003 .50100007 C .055000009 .595 .095000009 .625 .12900001 .625 C .13700001 .625 .15400002 .625 .15400002 .59300008 C .15400002 .568 .14400001 .54200008 .13700001 .523 C .097 .41700004 .079 .36 .079 .31300003 C .079 .224 .142 .194 .201 .194 C .24000003 .194 .274 .21100001 .30200003 .23900002 C .289 .187 .277 .13800001 .237 .08500001 C .21100001 .051 .17300001 .022 .127 .022 C .113000009 .022 .068 .025000006 .051000008 .06400001 C .067 .06400001 .080000009 .06400001 .094000007 .076000008 C .104 .08500001 .11400001 .098000008 .11400001 .117000009 C .11400001 .148 .087000008 .15200001 .07700001 .15200001 C .054000006 .15200001 .021 .136 .021 .087000008 C .021 .037 .065000008 0 .127 0 C .23 0 .333 .091000009 .361 .20400001 L .45700003 .586 Z "/>
</symbol>
<use xlink:href="#font_3_2" transform="matrix(9.9626,0,0,-9.9626,101.15092,10.028326)"/>
</svg>
