<?xml version="1.0" encoding="UTF-8" standalone="no"?>
<!DOCTYPE svg PUBLIC "-//W3C//DTD SVG 1.1//EN" "http://www.w3.org/Graphics/SVG/1.1/DTD/svg11.dtd">
<svg xmlns="http://www.w3.org/2000/svg" xmlns:xlink="http://www.w3.org/1999/xlink" version="1.1" width="204.141pt" height="161.777pt" viewBox="0 0 204.141 161.777">
<path transform="matrix(1,0,0,-1,9.686,141.01599)" stroke-width="1" stroke-linecap="butt" stroke-miterlimit="10" stroke-linejoin="miter" fill="none" stroke="#808080" d="M 0 53.37648 L 0 57.62834 M 37.0016 53.37648 L 37.0016 57.62834 M 55.50241 53.37648 L 55.50241 57.62834 M 74.00322 53.37648 L 74.00322 57.62834 M 92.50403 53.37648 L 92.50403 57.62834 M 111.00484 53.37648 L 111.00484 57.62834 M 129.50565 53.37648 L 129.50565 57.62834 M 148.00646 53.37648 L 148.00646 57.62834 M 166.50727 53.37648 L 166.50727 57.62834 M 185.00807 53.37648 L 185.00807 57.62834 "/>
<path transform="matrix(1,0,0,-1,9.686,141.01599)" stroke-width="1" stroke-linecap="butt" stroke-miterlimit="10" stroke-linejoin="miter" fill="none" stroke="#808080" d="M 16.37486 18.5008 L 20.62672 18.5008 M 16.37486 37.0016 L 20.62672 37.0016 M 16.37486 74.00322 L 20.62672 74.00322 M 16.37486 92.50403 L 20.62672 92.50403 M 16.37486 111.00484 L 20.62672 111.00484 M 16.37486 129.50565 L 20.62672 129.50565 "/>
<path transform="matrix(1,0,0,-1,9.686,141.01599)" stroke-width="1" stroke-linecap="butt" stroke-miterlimit="10" stroke-linejoin="miter" fill="none" stroke="#000000" d="M 0 55.50241 L 192.26595 55.50241 "/>
<path transform="matrix(1,0,0,-1,201.95195,85.51358)" d="M 1.99252 0 L -1.19551 1.59401 L 0 0 L -1.19551 -1.59401 "/>
<path transform="matrix(1,0,0,-1,9.686,141.01599)" stroke-width="1" stroke-linecap="butt" stroke-miterlimit="10" stroke-linejoin="miter" fill="none" stroke="#000000" d="M 18.5008 -20.56244 L 18.5008 138.82517 "/>
<path transform="matrix(0,-1,-1,-0,28.186799,2.1908265)" d="M 1.99252 0 L -1.19551 1.59401 L 0 0 L -1.19551 -1.59401 "/>
<symbol id="font_0_1">
<path d="M .57600006 0 C .59300008 0 .611 0 .611 .019999996 C .611 .040000008 .59300008 .040000008 .57600006 .040000008 L .035000005 .040000008 C .018 .040000008 0 .040000008 0 .019999996 C 0 0 .018 0 .035000005 0 L .57600006 0 Z "/>
</symbol>
<use xlink:href="#font_0_1" transform="matrix(9.9626,0,0,-9.9626,4.147896,95.28858)"/>
<symbol id="font_1_1">
<path d="M .205 .64000007 C .205 .66400006 .205 .666 .18200003 .666 C .120000008 .60200008 .032000007 .60200008 0 .60200008 L 0 .57100006 C .020000004 .57100006 .07900001 .57100006 .13100001 .597 L .13100001 .079 C .13100001 .043 .128 .031000002 .038000004 .031000002 L .0060000049 .031000002 L .0060000049 0 C .04100001 .003 .128 .003 .168 .003 C .20800002 .003 .29500003 .003 .33000005 0 L .33000005 .031000002 L .29800005 .031000002 C .20800002 .031000002 .205 .042000005 .205 .079 L .205 .64000007 Z "/>
</symbol>
<use xlink:href="#font_1_1" transform="matrix(9.9626,0,0,-9.9626,11.955671,97.57998)"/>
<use xlink:href="#font_1_1" transform="matrix(9.9626,0,0,-9.9626,45.082674,97.57998)"/>
<symbol id="font_1_2">
<path d="M .07700001 .07700001 L .18300002 .18 C .33900003 .31800003 .39900003 .372 .39900003 .47200004 C .39900003 .586 .30900003 .666 .18700002 .666 C .074 .666 0 .574 0 .485 C 0 .42900003 .05 .42900003 .053000008 .42900003 C .07000001 .42900003 .105000007 .441 .105000007 .48200003 C .105000007 .508 .08700001 .53400006 .052000006 .53400006 C .044000005 .53400006 .042000008 .53400006 .039 .53300008 C .062000004 .59800007 .11600001 .63500007 .17400001 .63500007 C .26500003 .63500007 .308 .554 .308 .47200004 C .308 .39200003 .25800003 .31300003 .20300003 .25100003 L .011000004 .037 C 0 .026 0 .024 0 0 L .37100003 0 L .39900003 .17400001 L .374 .17400001 C .36900003 .14400001 .36200003 .1 .352 .085 C .345 .07700001 .279 .07700001 .257 .07700001 L .07700001 .07700001 Z "/>
</symbol>
<use xlink:href="#font_1_2" transform="matrix(9.9626,0,0,-9.9626,63.195135,97.57998)"/>
<symbol id="font_1_3">
<path d="M .24800003 .37400005 C .33 .40100003 .388 .47100006 .388 .55 C .388 .632 .3 .688 .204 .688 C .10300001 .688 .027000003 .628 .027000003 .55200007 C .027000003 .519 .049000004 .5 .078 .5 C .109000008 .5 .12900001 .522 .12900001 .55100008 C .12900001 .6010001 .082 .6010001 .067 .6010001 C .098 .65000006 .164 .66300007 .20000002 .66300007 C .24100003 .66300007 .29600004 .64100006 .29600004 .55100008 C .29600004 .53900006 .29400004 .48100005 .268 .43700005 C .238 .38900004 .204 .38600005 .17900002 .38500003 C .171 .38400004 .14700002 .38200004 .14000002 .38200004 C .132 .38100005 .125 .38000003 .125 .37000004 C .125 .35900004 .132 .35900004 .14900002 .35900004 L .19300002 .35900004 C .275 .35900004 .312 .29100005 .312 .193 C .312 .057000005 .24300003 .028 .199 .028 C .15600002 .028 .081 .045 .046000005 .104 C .081 .09900001 .11200001 .12100001 .11200001 .15900001 C .11200001 .19500001 .085 .215 .056 .215 C .031999999 .215 0 .201 0 .157 C 0 .06600001 .093 0 .20200002 0 C .32400004 0 .41500003 .091000009 .41500003 .193 C .41500003 .27500005 .35200004 .35300005 .24800003 .37400005 Z "/>
</symbol>
<use xlink:href="#font_1_3" transform="matrix(9.9626,0,0,-9.9626,81.615428,97.79916)"/>
<symbol id="font_1_4">
<path d="M .266 .165 L .266 .078 C .266 .042000005 .26400004 .031000002 .19000001 .031000002 L .16900002 .031000002 L .16900002 0 C .21000001 .003 .26200003 .003 .30400003 .003 C .34600003 .003 .39900003 .003 .44000004 0 L .44000004 .031000002 L .41900004 .031000002 C .34500004 .031000002 .34300003 .042000005 .34300003 .078 L .34300003 .165 L .44300003 .165 L .44300003 .19600001 L .34300003 .19600001 L .34300003 .651 C .34300003 .671 .34300003 .67700007 .32700003 .67700007 C .31800003 .67700007 .31500004 .67700007 .307 .665 L 0 .19600001 L 0 .165 L .266 .165 M .272 .19600001 L .028 .19600001 L .272 .569 L .272 .19600001 Z "/>
</symbol>
<use xlink:href="#font_1_4" transform="matrix(9.9626,0,0,-9.9626,99.97695,97.57998)"/>
<symbol id="font_1_5">
<path d="M .39900003 .223 C .39900003 .34200005 .317 .44200004 .209 .44200004 C .16100002 .44200004 .118000019 .42600004 .082 .39100004 L .082 .586 C .10200001 .58000007 .135 .573 .16700001 .573 C .29 .573 .36 .66400006 .36 .67700007 C .36 .683 .357 .688 .35 .688 C .349 .688 .347 .688 .342 .68500009 C .322 .67600008 .273 .656 .20600002 .656 C .16600001 .656 .120000008 .66300007 .073 .6840001 C .065 .68700006 .06300001 .68700006 .061000009 .68700006 C .051000004 .68700006 .051000004 .679 .051000004 .66300007 L .051000004 .36700005 C .051000004 .34900005 .051000004 .34100003 .065 .34100003 C .07200001 .34100003 .074 .34400005 .07800001 .35000003 C .08900002 .36600004 .12600002 .42000006 .207 .42000006 C .259 .42000006 .284 .37400005 .292 .35600005 C .308 .31900005 .31 .28000004 .31 .23 C .31 .19500001 .31 .135 .286 .093 C .262 .054000006 .22500001 .028 .17900002 .028 C .106000009 .028 .049000008 .08100001 .032 .14000002 C .035 .13900002 .038000008 .13800001 .049000008 .13800001 C .082 .13800001 .09900001 .163 .09900001 .187 C .09900001 .21100001 .082 .23600002 .049000008 .23600002 C .035 .23600002 0 .22900002 0 .18300002 C 0 .097 .069000009 0 .18100001 0 C .297 0 .39900003 .096 .39900003 .223 Z "/>
</symbol>
<use xlink:href="#font_1_5" transform="matrix(9.9626,0,0,-9.9626,118.69613,97.79916)"/>
<symbol id="font_1_6">
<path d="M .089999999 .35000003 L .089999999 .37400005 C .089999999 .62700006 .21400002 .66300007 .26500003 .66300007 C .28900004 .66300007 .33100004 .65700009 .35300002 .623 C .33800004 .623 .298 .623 .298 .57800009 C .298 .54700008 .32200004 .53200009 .344 .53200009 C .36 .53200009 .39000003 .54100009 .39000003 .58000007 C .39000003 .64000007 .34600003 .688 .263 .688 C .13499999 .688 0 .559 0 .33800004 C 0 .071 .116000007 0 .20900002 0 C .32000003 0 .41500003 .094000007 .41500003 .22600001 C .41500003 .35300005 .32600004 .44900004 .215 .44900004 C .14700002 .44900004 .11000001 .39800004 .089999999 .35000003 M .20900002 .028 C .146 .028 .116000007 .088 .11000001 .103 C .092 .15 .092 .23 .092 .24800001 C .092 .32600004 .124000009 .42600004 .21400002 .42600004 C .23000002 .42600004 .27600003 .42600004 .307 .36400003 C .32500003 .32700003 .32500003 .27600003 .32500003 .22700002 C .32500003 .179 .32500003 .12900001 .30800004 .093 C .27800004 .033000005 .23200003 .028 .20900002 .028 Z "/>
</symbol>
<use xlink:href="#font_1_6" transform="matrix(9.9626,0,0,-9.9626,137.11743,97.79916)"/>
<symbol id="font_1_7">
<path d="M .42000003 .63100007 C .42900003 .64300009 .42900003 .64500007 .42900003 .66600009 L .18600002 .66600009 C .064 .66600009 .062000008 .679 .058000007 .6980001 L .033 .6980001 L 0 .49200005 L .024999999 .49200005 C .028000005 .508 .037 .57100006 .050000006 .58300009 C .057000005 .58900007 .13500002 .58900007 .148 .58900007 L .35500003 .58900007 C .344 .573 .26500003 .46400006 .24300003 .43100003 C .153 .29600004 .12000001 .157 .12000001 .055 C .12000001 .045 .12000001 0 .16600001 0 C .21200001 0 .21200001 .045 .21200001 .055 L .21200001 .106000009 C .21200001 .16100002 .21500004 .216 .22300002 .27 C .22700003 .29300005 .24100003 .37900005 .28500004 .44100005 L .42000003 .63100007 Z "/>
</symbol>
<use xlink:href="#font_1_7" transform="matrix(9.9626,0,0,-9.9626,155.75691,97.79916)"/>
<symbol id="font_1_8">
<path d="M .121 .47900004 C .075 .509 .071 .54300007 .071 .56000009 C .071 .62100008 .136 .66300007 .20700002 .66300007 C .28000004 .66300007 .344 .61100009 .344 .53900006 C .344 .48200003 .305 .43400005 .245 .39900003 L .121 .47900004 M .26700003 .38400004 C .33900003 .42100004 .388 .47300006 .388 .53900006 C .388 .63100007 .29900003 .688 .208 .688 C .108 .688 .027000003 .614 .027000003 .521 C .027000003 .503 .029 .45800004 .071 .41100005 C .082 .39900003 .11900001 .37400005 .144 .35700003 C .086 .32800005 0 .272 0 .17300001 C 0 .067 .102000009 0 .20700002 0 C .32000003 0 .41500003 .083000008 .41500003 .19000001 C .41500003 .22600001 .404 .27100004 .36600004 .31300003 C .34700004 .33400003 .33100004 .34400005 .26700003 .38400004 M .167 .34200005 L .29000003 .26400004 C .31800003 .245 .365 .215 .365 .154 C .365 .080000009 .29000003 .028 .208 .028 C .122 .028 .050000006 .09 .050000006 .17300001 C .050000006 .231 .082 .29500003 .167 .34200005 Z "/>
</symbol>
<use xlink:href="#font_1_8" transform="matrix(9.9626,0,0,-9.9626,174.11844,97.79916)"/>
<symbol id="font_1_9">
<path d="M .32500003 .34000004 L .32500003 .30800004 C .32500003 .074 .22100002 .028 .16300002 .028 C .146 .028 .092 .030000002 .065000008 .064 C .109000008 .064 .117000009 .093 .117000009 .11000001 C .117000009 .141 .093 .156 .071 .156 C .055 .156 .024999999 .147 .024999999 .108 C .024999999 .041 .079 0 .164 0 C .293 0 .41500003 .136 .41500003 .35100005 C .41500003 .62000009 .3 .688 .21100003 .688 C .15600002 .688 .107 .67 .064 .62500008 C .023000002 .58000007 0 .53800007 0 .46300004 C 0 .33800004 .08800001 .24000001 .20000002 .24000001 C .261 .24000001 .30200003 .28200004 .32500003 .34000004 M .201 .263 C .185 .263 .139 .263 .108 .32600004 C .089999999 .36300005 .089999999 .41300006 .089999999 .46200005 C .089999999 .51600006 .089999999 .563 .11100001 .6 C .13800001 .65000006 .176 .66300007 .21100003 .66300007 C .25700004 .66300007 .29000003 .62900009 .307 .58400008 C .31900005 .55200007 .323 .48900003 .323 .44300006 C .323 .36000005 .28900004 .263 .201 .263 Z "/>
</symbol>
<use xlink:href="#font_1_9" transform="matrix(9.9626,0,0,-9.9626,192.61943,97.79916)"/>
<use xlink:href="#font_0_1" transform="matrix(9.9626,0,0,-9.9626,10.636895,123.0186)"/>
<use xlink:href="#font_1_2" transform="matrix(9.9626,0,0,-9.9626,18.057129,125.31)"/>
<use xlink:href="#font_0_1" transform="matrix(9.9626,0,0,-9.9626,10.636895,104.5186)"/>
<use xlink:href="#font_1_1" transform="matrix(9.9626,0,0,-9.9626,18.44567,106.81)"/>
<use xlink:href="#font_1_1" transform="matrix(9.9626,0,0,-9.9626,18.445672,70.22399)"/>
<use xlink:href="#font_1_2" transform="matrix(9.9626,0,0,-9.9626,18.05713,51.722993)"/>
<use xlink:href="#font_1_3" transform="matrix(9.9626,0,0,-9.9626,17.977429,33.441164)"/>
<use xlink:href="#font_1_4" transform="matrix(9.9626,0,0,-9.9626,17.837954,14.721985)"/>
<clipPath id="cp2">
<path transform="matrix(1,0,0,-1,9.686,141.01599)" d="M 0 -20.56244 L 194.25847 -20.56244 L 194.25847 140.81769 L 0 140.81769 Z "/>
</clipPath>
<g clip-path="url(#cp2)">
<path transform="matrix(1,0,0,-1,9.686,141.01599)" stroke-width="1" stroke-linecap="butt" stroke-miterlimit="10" stroke-linejoin="miter" fill="none" stroke="#000000" d="M 18.5008 55.50241 L 19.05768 58.711 L 19.61456 60.04158 L 20.17143 61.06319 L 20.72832 61.92163 L 21.2852 62.68053 L 21.84209 63.36507 L 22.39897 63.99612 L 22.95584 64.58278 L 23.51273 65.13245 L 24.06961 65.65417 L 24.62648 66.15018 L 25.18338 66.62213 L 25.74025 67.07724 L 26.29713 67.51407 L 26.85402 67.93605 L 27.41089 68.34308 L 27.96779 68.73917 L 28.52466 69.12234 L 29.08154 69.49605 L 29.63843 69.85884 L 30.1953 70.21388 L 30.75218 70.56004 L 31.30908 70.89879 L 31.86595 71.22993 L 32.42284 71.55371 L 32.9797 71.8721 L 33.53659 72.18497 L 34.09348 72.49004 L 34.65034 72.78993 L 35.20724 73.08595 L 35.76411 73.3766 L 36.321 73.66335 L 36.87788 73.94476 L 37.43475 74.21838 L 37.99164 74.49164 L 38.54852 74.76027 L 39.1054 75.02594 L 39.66228 75.28828 L 40.21915 75.5471 L 40.77603 75.80225 L 41.33292 76.0544 L 41.88979 76.3036 L 42.44667 76.54987 L 43.00354 76.79295 L 43.56042 77.03401 L 44.11731 77.27138 L 44.67418 77.50653 L 45.23106 77.73946 L 45.78793 77.9696 L 46.34482 78.1979 L 46.9017 78.42343 L 47.45857 78.64673 L 48.01546 78.86838 L 48.57236 79.08798 L 49.12923 79.30556 L 49.68611 79.52109 L 50.24298 79.73384 L 50.79987 79.94511 L 51.35675 80.1553 L 51.91362 80.36325 L 52.4705 80.57063 L 53.02737 80.77507 L 53.58426 80.9769 L 54.14114 81.17764 L 54.69801 81.37837 L 55.2549 81.57744 L 55.81178 81.77466 L 56.36865 81.96948 L 56.92554 82.16374 L 57.4824 82.35597 L 58.03929 82.54689 L 58.59618 82.7367 L 59.15305 82.92578 L 59.70993 83.11339 L 60.2668 83.2982 L 60.82368 83.48376 L 61.38057 83.66692 L 61.93744 83.84953 L 62.49432 84.03064 L 63.05121 84.2103 L 63.60808 84.38939 L 64.16496 84.56718 L 64.72183 84.74368 L 65.27872 84.91943 L 65.8356 85.0937 L 66.39247 85.26726 L 66.94936 85.43948 L 67.50623 85.61118 L 68.06311 85.78194 L 68.62 85.95178 L 69.17686 86.12015 L 69.73375 86.28813 L 70.29062 86.45464 L 70.8475 86.62039 L 71.40439 86.78598 L 71.96126 86.9497 L 72.51814 87.11234 L 73.07503 87.27551 L 73.6319 87.4374 L 74.18878 87.59909 L 74.74565 87.75801 L 75.30254 87.91693 L 75.85942 88.07587 L 76.41629 88.23347 L 76.97318 88.39056 L 77.53004 88.54669 L 78.08693 88.70285 L 78.64381 88.85751 L 79.20068 89.00996 L 79.75757 89.165 L 80.31445 89.31653 L 80.87132 89.46933 L 81.4282 89.62012 L 81.98508 89.77016 L 82.54196 89.9215 L 83.09885 90.07005 L 83.65572 90.21974 L 84.2126 90.36626 L 84.76947 90.51297 L 85.32635 90.66005 L 85.88324 90.80658 L 86.44011 90.95421 L 86.997 91.09648 L 87.55388 91.24023 L 88.11075 91.38547 L 88.66763 91.5281 L 89.2245 91.6715 L 89.78139 91.81302 L 90.33827 91.95493 L 90.89514 92.09515 L 91.45203 92.2352 L 92.0089 92.37636 L 92.56578 92.51753 L 93.12267 92.65591 L 93.67953 92.79486 L 94.23642 92.93286 L 94.79329 93.06978 L 95.35017 93.20706 L 95.90706 93.34323 L 96.46393 93.47847 L 97.02081 93.6137 L 97.5777 93.74875 L 98.13457 93.88326 L 98.69145 94.01776 L 99.24832 94.1504 L 99.8052 94.28453 L 100.36209 94.417 L 100.91896 94.54929 L 101.47585 94.68065 L 102.03271 94.81181 L 102.5896 94.94243 L 103.14648 95.07379 L 103.70335 95.20273 L 104.26024 95.33316 L 104.81712 95.46175 L 105.374 95.5907 L 105.93088 95.71892 L 106.48775 95.84674 L 107.04463 95.97403 L 107.60152 96.10132 L 108.15839 96.22786 L 108.71527 96.35422 L 109.27214 96.48021 L 109.82903 96.60565 L 110.38591 96.73053 L 110.94278 96.85616 L 111.49966 96.97955 L 112.05655 97.10333 L 112.61342 97.22746 L 113.1703 97.34993 L 113.72717 97.47371 L 114.28406 97.59619 L 114.84094 97.71848 L 115.39781 97.83965 L 115.9547 97.96121 L 116.51157 98.08313 L 117.06845 98.203 L 117.62534 98.324 L 118.1822 98.44334 L 118.73909 98.5636 L 119.29597 98.68329 L 119.85284 98.80244 L 120.40973 98.92067 L 120.9666 99.03963 L 121.52348 99.15894 L 122.08037 99.27644 L 122.63724 99.39299 L 123.19412 99.51027 L 123.75099 99.62685 L 124.30788 99.74394 L 124.86476 99.86014 L 125.42163 99.97612 L 125.97852 100.09045 L 126.53539 100.20592 L 127.09227 100.32173 L 127.64915 100.43643 L 128.20603 100.5504 L 128.76291 100.66473 L 129.3198 100.77852 L 129.87667 100.89285 L 130.43355 101.0057 L 130.99042 101.11893 L 131.5473 101.23105 L 132.10419 101.3437 L 132.66106 101.45639 L 133.21794 101.56868 L 133.77481 101.67969 L 134.3317 101.79143 L 134.88858 101.90114 L 135.44545 102.01343 L 136.00234 102.12445 L 136.55922 102.23396 L 137.11609 102.34386 L 137.67298 102.45338 L 138.22985 102.56403 L 138.78673 102.67355 L 139.34362 102.78122 L 139.90048 102.88983 L 140.45737 103.00082 L 141.01424 103.10887 L 141.57112 103.21526 L 142.128 103.32347 L 142.68488 103.43022 L 143.24176 103.53828 L 143.79865 103.64465 L 144.35552 103.75195 L 144.9124 103.85927 L 145.46927 103.96452 L 146.02616 104.07127 L 146.58304 104.17877 L 147.13991 104.28108 L 147.6968 104.38821 L 148.25366 104.49274 L 148.81055 104.59892 L 149.36743 104.70345 L 149.9243 104.80743 L 150.48119 104.91159 L 151.03806 105.01463 L 151.59494 105.1212 L 152.15183 105.22333 L 152.7087 105.32639 L 153.26558 105.42943 L 153.82247 105.53192 L 154.37934 105.63608 L 154.93622 105.73877 L 155.49309 105.8407 L 156.04998 105.94264 L 156.60686 106.04309 L 157.16373 106.14781 L 157.72061 106.24828 L 158.27748 106.3489 L 158.83437 106.45012 L 159.39125 106.55298 L 159.94812 106.65326 L 160.505 106.75334 L 161.06189 106.85214 L 161.61876 106.95074 L 162.17565 107.0538 L 162.73252 107.15314 L 163.2894 107.25342 L 163.84629 107.35129 L 164.40316 107.45065 L 164.96004 107.5535 L 165.5169 107.65083 L 166.07379 107.74814 L 166.63068 107.85008 L 167.18755 107.9485 L 167.74443 108.0458 L 168.30132 108.14368 L 168.85819 108.24193 L 169.41507 108.33942 L 169.97194 108.43617 L 170.52883 108.53386 L 171.08573 108.63045 L 171.6426 108.7272 L 172.19948 108.82433 L 172.75635 108.92053 L 173.31324 109.01785 L 173.87012 109.11293 L 174.42699 109.2097 L 174.98387 109.30478 L 175.54074 109.401 L 176.09763 109.49738 L 176.65451 109.59045 L 177.21138 109.68684 L 177.76827 109.78212 L 178.32515 109.87555 L 178.88202 109.97063 L 179.4389 110.06499 L 179.99578 110.1599 L 180.55266 110.25426 L 181.10955 110.3473 L 181.66641 110.4413 L 182.2233 110.5351 L 182.78017 110.62907 L 183.33705 110.72455 L 183.89394 110.81612 L 184.4508 110.90881 L 184.55574 110.92639 "/>
<path transform="matrix(.98622,-.16512,-.16512,-.98622,194.24173,30.0896)" stroke-width="1" stroke-linecap="round" stroke-linejoin="round" fill="none" stroke="#000000" d="M -1.19551 1.59401 C -1.09587 .99626 0 .09961 .29886 0 C 0 -.09961 -1.09587 -.99626 -1.19551 -1.59401 "/>
<path transform="matrix(1,0,0,-1,9.686,141.01599)" stroke-width="1" stroke-linecap="butt" stroke-miterlimit="10" stroke-linejoin="miter" fill="none" stroke="#000000" d="M 22.20096 25.7248 L 22.74547 28.26588 L 23.28998 30.49911 L 23.83447 32.4911 L 24.37898 34.28847 L 24.92348 35.92743 L 25.46799 37.43268 L 26.0125 38.8267 L 26.557 40.12083 L 27.10152 41.33098 L 27.64603 42.46692 L 28.19052 43.53627 L 28.73503 44.5477 L 29.27954 45.50679 L 29.82404 46.41777 L 30.36855 47.28693 L 30.91306 48.11688 L 31.45755 48.9102 L 32.00208 49.67374 L 32.54657 50.40303 L 33.09108 51.1042 L 33.63559 51.78651 L 34.18008 52.44052 L 34.7246 53.07178 L 35.2691 53.68304 L 35.81361 54.27432 L 36.35812 54.84692 L 36.90263 55.4027 L 37.44713 55.94218 L 37.99164 56.46648 L 38.53615 56.976 L 39.08064 57.472 L 39.62515 57.9558 L 40.16965 58.42627 L 40.71416 58.88547 L 41.25868 59.33356 L 41.80318 59.7711 L 42.34769 60.19809 L 42.8922 60.61603 L 43.43669 61.02454 L 43.9812 61.42397 L 44.52571 61.8147 L 45.0702 62.19858 L 45.61472 62.57286 L 46.15923 62.94011 L 46.70372 63.30086 L 47.24823 63.65498 L 47.79274 64.00224 L 48.33725 64.3432 L 48.88176 64.67769 L 49.42625 65.00627 L 49.97076 65.32948 L 50.51527 65.64659 L 51.05977 65.95888 L 51.60428 66.26563 L 52.14879 66.5668 L 52.69328 66.8645 L 53.2378 67.15662 L 53.7823 67.44394 L 54.32681 67.72516 L 54.87132 68.0047 L 55.41583 68.27962 L 55.96033 68.55344 L 56.50484 68.82022 L 57.04933 69.08366 L 57.59384 69.34305 L 58.13835 69.59872 L 58.68285 69.85107 L 59.22736 70.1001 L 59.77187 70.34634 L 60.31636 70.58853 L 60.86089 70.82811 L 61.4054 71.064 L 61.94989 71.29803 L 62.4944 71.52835 L 63.03891 71.755 L 63.5834 71.98053 L 64.12791 72.20235 L 64.67241 72.42177 L 65.21692 72.63858 L 65.76143 72.85376 L 66.30592 73.06485 L 66.85043 73.27522 L 67.39496 73.48187 L 67.93945 73.68686 L 68.48396 73.88925 L 69.02847 74.0898 L 69.57297 74.28777 L 70.11748 74.48424 L 70.66199 74.67795 L 71.20648 74.86961 L 71.75099 75.06035 L 72.29549 75.24832 L 72.84 75.43518 L 73.3845 75.61906 L 73.92902 75.80205 L 74.47353 75.98279 L 75.01804 76.16225 L 75.56253 76.33894 L 76.10704 76.51488 L 76.65155 76.68843 L 77.19604 76.86215 L 77.74055 77.03198 L 78.28506 77.2022 L 78.82956 77.36963 L 79.37407 77.53557 L 79.91856 77.69986 L 80.46309 77.86285 L 81.0076 78.02567 L 81.5521 78.1844 L 82.0966 78.34444 L 82.64111 78.5017 L 83.18561 78.65839 L 83.73012 78.81343 L 84.27463 78.96718 L 84.81912 79.11943 L 85.36363 79.27095 L 85.90814 79.42026 L 86.45265 79.57011 L 86.99716 79.71626 L 87.54167 79.86484 L 88.08617 80.00803 L 88.63068 80.15195 L 89.17517 80.29645 L 89.71968 80.43742 L 90.26419 80.5784 L 90.80869 80.71678 L 91.3532 80.8585 L 91.8977 80.99356 L 92.4422 81.13158 L 92.98672 81.26997 L 93.53123 81.40483 L 94.07573 81.53804 L 94.62024 81.67125 L 95.16475 81.80316 L 95.70924 81.93396 L 96.25375 82.06346 L 96.79825 82.19296 L 97.34276 82.32118 L 97.88727 82.44829 L 98.43176 82.57465 L 98.97627 82.70062 L 99.5208 82.82533 L 100.06529 82.94928 L 100.6098 83.07231 L 101.15431 83.1946 L 101.6988 83.31633 L 102.24332 83.4366 L 102.78783 83.55684 L 103.33232 83.676 L 103.87683 83.7942 L 104.42133 83.91187 L 104.96584 84.02917 L 105.51035 84.14517 L 106.05486 84.26024 L 106.59937 84.37495 L 107.14388 84.48929 L 107.68837 84.60269 L 108.23288 84.71518 L 108.77739 84.82692 L 109.32188 84.93811 L 109.8664 85.04875 L 110.4109 85.15883 L 110.9554 85.26779 L 111.49991 85.37659 L 112.0444 85.48482 L 112.58893 85.59193 L 113.13344 85.69868 L 113.67793 85.80525 L 114.22244 85.9107 L 114.76695 86.01541 L 115.31145 86.1194 L 115.85596 86.22336 L 116.40047 86.32642 L 116.94496 86.42928 L 117.48947 86.5314 L 118.03398 86.63335 L 118.57848 86.7338 L 119.123 86.83371 L 119.66751 86.93398 L 120.212 87.03296 L 120.75652 87.1314 L 121.30101 87.2302 L 121.84552 87.32805 L 122.39003 87.42519 L 122.93452 87.52138 L 123.47903 87.61778 L 124.02354 87.71397 L 124.56804 87.80852 L 125.11255 87.90343 L 125.65707 87.99797 L 126.20157 88.09158 L 126.74608 88.18465 L 127.29059 88.27751 L 127.83508 88.36946 L 128.3796 88.46196 L 128.92409 88.55263 L 129.4686 88.6442 L 130.0131 88.73448 L 130.5576 88.82513 L 131.10211 88.91394 L 131.64662 89.00348 L 132.19113 89.09267 L 132.73564 89.18016 L 133.28015 89.2688 L 133.82465 89.35667 L 134.36916 89.444 L 134.91367 89.52965 L 135.45816 89.6166 L 136.00267 89.703 L 136.54717 89.78828 L 137.09168 89.87303 L 137.63619 89.95795 L 138.18068 90.04286 L 138.7252 90.12703 L 139.26972 90.20918 L 139.81421 90.29243 L 140.35872 90.37605 L 140.90323 90.45728 L 141.44773 90.53941 L 141.99224 90.62212 L 142.53675 90.70389 L 143.08124 90.78418 L 143.62575 90.86559 L 144.17024 90.94571 L 144.71475 91.0258 L 145.25928 91.10463 L 145.80377 91.1851 L 146.34828 91.26337 L 146.89279 91.34328 L 147.43729 91.41988 L 147.9818 91.49814 L 148.5263 91.57639 L 149.0708 91.65428 L 149.61531 91.72995 L 150.15982 91.80673 L 150.70432 91.88425 L 151.24883 91.95825 L 151.79335 92.03522 L 152.33785 92.11015 L 152.88236 92.18562 L 153.42685 92.25906 L 153.97136 92.33382 L 154.51587 92.40857 L 155.06037 92.48349 L 155.60488 92.55547 L 156.14939 92.62872 L 156.69388 92.70308 L 157.23839 92.77599 L 157.7829 92.84665 L 158.32741 92.9201 L 158.87192 92.99208 L 159.41643 93.06165 L 159.96092 93.13435 L 160.50543 93.20502 L 161.04993 93.27774 L 161.59444 93.34563 L 162.13895 93.41649 L 162.68344 93.48677 L 163.22795 93.55727 L 163.77246 93.6248 L 164.31696 93.6951 L 164.86148 93.76357 L 165.40599 93.83423 L 165.95049 93.90083 L 166.495 93.96947 L 167.0395 94.03978 L 167.584 94.10748 L 168.12851 94.17465 L 168.673 94.24217 L 169.21752 94.30933 L 169.76203 94.37595 L 170.30652 94.44235 L 170.85103 94.50859 L 171.39556 94.57463 L 171.94005 94.64012 L 172.48456 94.70543 L 173.02907 94.77094 L 173.57357 94.83586 L 174.11808 94.9008 L 174.66259 94.96574 L 175.20708 95.02939 L 175.75159 95.09377 L 176.29608 95.15796 L 176.84059 95.22144 L 177.3851 95.28525 L 177.92961 95.34816 L 178.47412 95.41142 L 179.01863 95.47433 L 179.56313 95.53703 L 180.10764 95.5994 L 180.65215 95.66211 L 181.19664 95.7239 L 181.74115 95.78569 L 182.28566 95.8473 L 182.83016 95.90816 L 183.37467 95.97014 L 183.91919 96.03082 L 184.46369 96.0917 L 184.55275 96.10164 "/>
<path transform="matrix(.9938,-.11075,-.11075,-.9938,194.23874,44.914369)" stroke-width="1" stroke-linecap="round" stroke-linejoin="round" fill="none" stroke="#000000" d="M -1.19551 1.59401 C -1.09587 .99626 0 .09961 .29886 0 C 0 -.09961 -1.09587 -.99626 -1.19551 -1.59401 "/>
</g>
<symbol id="font_3_1">
<path d="M .305 .31300003 C .311 .33900003 .334 .43100003 .404 .43100003 C .409 .43100003 .433 .43100003 .454 .418 C .426 .41300003 .40600003 .388 .40600003 .36400003 C .40600003 .34800003 .417 .32900004 .444 .32900004 C .46600003 .32900004 .498 .34700004 .498 .38700003 C .498 .43900005 .439 .45300005 .405 .45300005 C .347 .45300005 .312 .40000005 .3 .37700004 C .275 .44300003 .221 .45300005 .19200002 .45300005 C .08800001 .45300005 .031000002 .32400004 .031000002 .29900003 C .031000002 .28900004 .041 .28900004 .043000007 .28900004 C .051000008 .28900004 .054000006 .291 .056 .3 C .09 .40600003 .156 .43100003 .19000001 .43100003 C .209 .43100003 .244 .42200003 .244 .36400003 C .244 .33300004 .22700002 .26600004 .19000001 .126 C .17400001 .064 .13900002 .022000002 .095000009 .022000002 C .08900001 .022000002 .06600001 .022000002 .045 .035 C .07000001 .040000004 .09200001 .061 .09200001 .089 C .09200001 .116000007 .07000001 .124000009 .055000009 .124000009 C .025 .124000009 0 .098000008 0 .06600001 C 0 .020000002 .050000006 0 .094000007 0 C .16000001 0 .19600001 .07000001 .19900002 .076000008 C .21100001 .039 .24700003 0 .307 0 C .41 0 .467 .12900001 .467 .15400002 C .467 .16400002 .458 .16400002 .455 .16400002 C .446 .16400002 .444 .16000001 .442 .15300001 C .409 .046 .341 .022000002 .30900003 .022000002 C .27 .022000002 .254 .054 .254 .08800001 C .254 .11000001 .26 .13200002 .271 .17600002 L .305 .31300003 Z "/>
</symbol>
<use xlink:href="#font_3_1" transform="matrix(9.9626,0,0,-9.9626,195.05692,82.09257)"/>
<symbol id="font_3_2">
<path d="M .45700003 .586 C .461 .6 .461 .602 .461 .609 C .461 .62700006 .447 .63600006 .432 .63600006 C .42200003 .63600006 .40600003 .63 .397 .615 C .395 .61 .387 .579 .38300003 .561 C .37600003 .535 .36900003 .508 .363 .48100005 L .318 .301 C .314 .286 .271 .21600002 .20500002 .21600002 C .15400002 .21600002 .143 .26000003 .143 .29700003 C .143 .34300003 .16000001 .40500004 .194 .49300004 C .21000001 .53400006 .21400002 .545 .21400002 .56500008 C .21400002 .61 .18200001 .6470001 .13200002 .6470001 C .037 .6470001 0 .50200006 0 .49300004 C 0 .48300005 .01 .48300005 .012 .48300005 C .022000002 .48300005 .023 .485 .028000003 .50100007 C .055000009 .595 .095000009 .625 .12900001 .625 C .13700001 .625 .15400002 .625 .15400002 .59300008 C .15400002 .568 .14400001 .54200008 .13700001 .523 C .097 .41700004 .079 .36 .079 .31300003 C .079 .224 .142 .194 .201 .194 C .24000003 .194 .274 .21100001 .30200003 .23900002 C .289 .187 .277 .13800001 .237 .08500001 C .21100001 .051 .17300001 .022 .127 .022 C .113000009 .022 .068 .025000006 .051000008 .06400001 C .067 .06400001 .080000009 .06400001 .094000007 .076000008 C .104 .08500001 .11400001 .098000008 .11400001 .117000009 C .11400001 .148 .087000008 .15200001 .07700001 .15200001 C .054000006 .15200001 .021 .136 .021 .087000008 C .021 .037 .065000008 0 .127 0 C .23 0 .333 .091000009 .361 .20400001 L .45700003 .586 Z "/>
</symbol>
<use xlink:href="#font_3_2" transform="matrix(9.9626,0,0,-9.9626,31.998915,10.027319)"/>
</svg>
