<?xml version="1.0" encoding="iso-8859-1" standalone="no"?> 
<?xml-stylesheet href="verticalLineTest.css" type="text/css"?> 
<svg xmlns="http://www.w3.org/2000/svg" xmlns:xlink="http://www.w3.org/1999/xlink" width="207.12848pt" height="162.38321pt" viewBox="-11.94405 -20.83928 207.12848 162.38321 "> 
<g transform="translate(0, 141.54393 ) scale(1,-1) translate(0,20.83928 )"> 
    <g stroke="#000" fill="#000">
 <g stroke-width="0.4">
 <g stroke-width="0.2">
 <g stroke="#808080" fill="#808080">
 <path d=" M 0.0 53.57596 L 0.0 57.8437 M 37.1399 53.57596 L 37.1399 57.8437 M 55.70984 53.57596 L 55.70984 57.8437 M 74.27979 53.57596 L 74.27979 57.8437 M 92.84973 53.57596 L 92.84973 57.8437 M 111.41968 53.57596 L 111.41968 57.8437 M 129.98962 53.57596 L 129.98962 57.8437 M 148.55957 53.57596 L 148.55957 57.8437 M 167.12952 53.57596 L 167.12952 57.8437 M 185.69946 53.57596 L 185.69946 57.8437  " fill="none"/>
 </g>
 </g>
 <g stroke-width="0.2">
 <g stroke="#808080" fill="#808080">
 <path d=" M 16.43607 18.56995 L 20.70381 18.56995 M 16.43607 37.1399 L 20.70381 37.1399 M 16.43607 74.27979 L 20.70381 74.27979 M 16.43607 92.84973 L 20.70381 92.84973 M 16.43607 111.41968 L 20.70381 111.41968 M 16.43607 129.98962 L 20.70381 129.98962  " fill="none"/>
 </g>
 </g>
 <path d=" M 0.0 55.70984 L 192.98447 55.70984  " fill="none"/>
 <g transform="translate(192.98447,55.70984)">
 <path d=" M 1.99997 0.0 L -1.19998 1.59998 L 0.0 0.0 L -1.19998 -1.59998  " stroke="none"/>
  </g>
 <path d=" M 18.56995 -20.63928 L 18.56995 139.34396  " fill="none"/>
 <g transform="matrix(0.0,1.0,-1.0,0.0,18.56995,139.34396)">
 <path d=" M 1.99997 0.0 L -1.19998 1.59998 L 0.0 0.0 L -1.19998 -1.59998  " stroke="none"/>
  </g>
 <g transform="translate(-8.61107,43.59854)">
 <g fill="#000">
 <text style="stroke:none" transform="scale(1,-1) translate(8.61107,0)" text-anchor="middle"  font-size="10"> 
<g fill="#000">
 <g stroke="none">  − 1</g> </g>
 </text> 
</g>
 </g>
 <g transform="translate(34.6399,43.59856)">
 <g fill="#000">
 <text style="stroke:none" transform="scale(1,-1) translate(2.5,0)" text-anchor="middle"  font-size="10"> 
<g fill="#000">
 <g stroke="none"> 1 </g> </g>
 </text> 
</g>
 </g>
 <g transform="translate(53.20984,43.59856)">
 <g fill="#000">
 <text style="stroke:none" transform="scale(1,-1) translate(2.5,0)" text-anchor="middle"  font-size="10"> 
<g fill="#000">
 <g stroke="none"> 2 </g> </g>
 </text> 
</g>
 </g>
 <g transform="translate(71.77979,43.59856)">
 <g fill="#000">
 <text style="stroke:none" transform="scale(1,-1) translate(2.5,0)" text-anchor="middle"  font-size="10"> 
<g fill="#000">
 <g stroke="none"> 3 </g> </g>
 </text> 
</g>
 </g>
 <g transform="translate(90.34973,43.59856)">
 <g fill="#000">
 <text style="stroke:none" transform="scale(1,-1) translate(2.5,0)" text-anchor="middle"  font-size="10"> 
<g fill="#000">
 <g stroke="none"> 4 </g> </g>
 </text> 
</g>
 </g>
 <g transform="translate(108.91968,43.59856)">
 <g fill="#000">
 <text style="stroke:none" transform="scale(1,-1) translate(2.5,0)" text-anchor="middle"  font-size="10"> 
<g fill="#000">
 <g stroke="none"> 5 </g> </g>
 </text> 
</g>
 </g>
 <g transform="translate(127.48962,43.59856)">
 <g fill="#000">
 <text style="stroke:none" transform="scale(1,-1) translate(2.5,0)" text-anchor="middle"  font-size="10"> 
<g fill="#000">
 <g stroke="none"> 6 </g> </g>
 </text> 
</g>
 </g>
 <g transform="translate(146.05957,43.59856)">
 <g fill="#000">
 <text style="stroke:none" transform="scale(1,-1) translate(2.5,0)" text-anchor="middle"  font-size="10"> 
<g fill="#000">
 <g stroke="none"> 7 </g> </g>
 </text> 
</g>
 </g>
 <g transform="translate(164.62952,43.59856)">
 <g fill="#000">
 <text style="stroke:none" transform="scale(1,-1) translate(2.5,0)" text-anchor="middle"  font-size="10"> 
<g fill="#000">
 <g stroke="none"> 8 </g> </g>
 </text> 
</g>
 </g>
 <g transform="translate(183.19946,43.59856)">
 <g fill="#000">
 <text style="stroke:none" transform="scale(1,-1) translate(2.5,0)" text-anchor="middle"  font-size="10"> 
<g fill="#000">
 <g stroke="none"> 9 </g> </g>
 </text> 
</g>
 </g>
 <g transform="translate(-4.31905,15.76439)">
 <g fill="#000">
 <text style="stroke:none" transform="scale(1,-1) translate(8.61107,0)" text-anchor="middle"  font-size="10"> 
<g fill="#000">
 <g stroke="none">  − 2</g> </g>
 </text> 
</g>
 </g>
 <g transform="translate(-4.31905,34.33434)">
 <g fill="#000">
 <text style="stroke:none" transform="scale(1,-1) translate(8.61107,0)" text-anchor="middle"  font-size="10"> 
<g fill="#000">
 <g stroke="none">  − 1</g> </g>
 </text> 
</g>
 </g>
 <g transform="translate(7.90309,71.05757)">
 <g fill="#000">
 <text style="stroke:none" transform="scale(1,-1) translate(2.5,0)" text-anchor="middle"  font-size="10"> 
<g fill="#000">
 <g stroke="none"> 1 </g> </g>
 </text> 
</g>
 </g>
 <g transform="translate(7.90309,89.62752)">
 <g fill="#000">
 <text style="stroke:none" transform="scale(1,-1) translate(2.5,0)" text-anchor="middle"  font-size="10"> 
<g fill="#000">
 <g stroke="none"> 2 </g> </g>
 </text> 
</g>
 </g>
 <g transform="translate(7.90309,108.19746)">
 <g fill="#000">
 <text style="stroke:none" transform="scale(1,-1) translate(2.5,0)" text-anchor="middle"  font-size="10"> 
<g fill="#000">
 <g stroke="none"> 3 </g> </g>
 </text> 
</g>
 </g>
 <g transform="translate(7.90309,126.76741)">
 <g fill="#000">
 <text style="stroke:none" transform="scale(1,-1) translate(2.5,0)" text-anchor="middle"  font-size="10"> 
<g fill="#000">
 <g stroke="none"> 4 </g> </g>
 </text> 
</g>
 </g>
 <clipPath id="pgfcp4"><path d=" M 0.0 -20.63928 L 194.98444 -20.63928 L 194.98444 141.34393 L 0.0 141.34393 Z  "/> </clipPath>
 <g clip-path="url(#pgfcp4)">
 <path d=" M 18.56995 55.70984 L 19.1289 58.93042 L 19.68787 60.26596 L 20.24683 61.2914 L 20.80579 62.15305 L 21.36475 62.91478 L 21.92372 63.60187 L 22.48268 64.23529 L 23.04164 64.82414 L 23.6006 65.37585 L 24.15956 65.89954 L 24.71852 66.39738 L 25.2775 66.87111 L 25.83646 67.32793 L 26.39542 67.76637 L 26.95438 68.18994 L 27.51334 68.5985 L 28.07231 68.99606 L 28.63127 69.38066 L 29.19023 69.75577 L 29.74919 70.11992 L 30.30815 70.47629 L 30.86711 70.82373 L 31.42609 71.16374 L 31.98505 71.49614 L 32.544 71.82112 L 33.10297 72.1407 L 33.66193 72.45473 L 34.22089 72.76094 L 34.77985 73.06197 L 35.33882 73.35909 L 35.89778 73.65082 L 36.45674 73.93864 L 37.0157 74.2211 L 37.57466 74.49574 L 38.13362 74.77002 L 38.69258 75.03966 L 39.25154 75.30632 L 39.8105 75.56964 L 40.36946 75.82944 L 40.92842 76.08553 L 41.48738 76.33862 L 42.04634 76.58876 L 42.6053 76.83594 L 43.16426 77.07994 L 43.72322 77.3219 L 44.28218 77.56015 L 44.84114 77.79619 L 45.4001 78.02998 L 45.95906 78.26099 L 46.51802 78.49014 L 47.07698 78.7165 L 47.63594 78.94064 L 48.1949 79.16312 L 48.75388 79.38354 L 49.31284 79.60193 L 49.8718 79.81827 L 50.43076 80.03181 L 50.98972 80.24388 L 51.54868 80.45485 L 52.10764 80.66357 L 52.6666 80.87173 L 53.22556 81.07693 L 53.78452 81.27953 L 54.34348 81.48102 L 54.90244 81.6825 L 55.4614 81.88231 L 56.02036 82.08026 L 56.57932 82.27582 L 57.13828 82.4708 L 57.69724 82.66374 L 58.2562 82.85538 L 58.81516 83.0459 L 59.37411 83.23569 L 59.93307 83.424 L 60.49203 83.6095 L 61.051 83.79576 L 61.60995 83.9796 L 62.16891 84.16289 L 62.72787 84.34468 L 63.28683 84.52501 L 63.8458 84.70476 L 64.40475 84.88322 L 64.96371 85.06038 L 65.52267 85.23679 L 66.08163 85.41171 L 66.6406 85.5859 L 67.19955 85.75879 L 67.75851 85.93112 L 68.31747 86.10252 L 68.87643 86.273 L 69.4354 86.44199 L 69.99435 86.6106 L 70.55331 86.77773 L 71.11227 86.9441 L 71.67123 87.1103 L 72.2302 87.27466 L 72.78915 87.43788 L 73.34811 87.60167 L 73.90707 87.76416 L 74.46603 87.92647 L 75.025 88.08597 L 75.58395 88.24548 L 76.14291 88.40501 L 76.70187 88.56322 L 77.26083 88.72089 L 77.8198 88.87761 L 78.37875 89.03435 L 78.93771 89.18959 L 79.49667 89.3426 L 80.05563 89.49821 L 80.6146 89.65031 L 81.17355 89.8037 L 81.73251 89.95505 L 82.29147 90.10564 L 82.85043 90.25754 L 83.4094 90.40666 L 83.96835 90.5569 L 84.52731 90.70396 L 85.08627 90.85123 L 85.64523 90.99886 L 86.2042 91.14594 L 86.76315 91.29411 L 87.32211 91.43692 L 87.88107 91.5812 L 88.44003 91.72699 L 88.999 91.87016 L 89.55795 92.01408 L 90.11691 92.15614 L 90.67587 92.29857 L 91.23483 92.43933 L 91.7938 92.5799 L 92.35275 92.72159 L 92.91171 92.86328 L 93.47067 93.00218 L 94.02963 93.14165 L 94.5886 93.28017 L 95.14755 93.41759 L 95.70651 93.55539 L 96.26547 93.69206 L 96.82443 93.8278 L 97.38339 93.96355 L 97.94235 94.0991 L 98.50131 94.23412 L 99.06027 94.36913 L 99.61923 94.50226 L 100.17819 94.63689 L 100.73715 94.76985 L 101.29611 94.90263 L 101.85507 95.03448 L 102.41403 95.16614 L 102.97299 95.29724 L 103.53195 95.4291 L 104.09091 95.55852 L 104.64987 95.68944 L 105.20883 95.8185 L 105.76779 95.94794 L 106.32675 96.07663 L 106.88571 96.20494 L 107.44467 96.3327 L 108.00363 96.46046 L 108.56259 96.58748 L 109.12155 96.71431 L 109.68051 96.84077 L 110.23947 96.96667 L 110.79843 97.09203 L 111.35739 97.21812 L 111.91635 97.34198 L 112.47531 97.46622 L 113.03427 97.59082 L 113.59323 97.71375 L 114.15219 97.83798 L 114.71115 97.96092 L 115.27011 98.08366 L 115.82907 98.20529 L 116.38803 98.3273 L 116.94699 98.44968 L 117.50595 98.57 L 118.06491 98.69145 L 118.62387 98.81123 L 119.18283 98.93195 L 119.74179 99.05208 L 120.30075 99.17168 L 120.85971 99.29034 L 121.41867 99.40974 L 121.97763 99.52951 L 122.53659 99.64745 L 123.09555 99.76443 L 123.65451 99.88216 L 124.21347 99.99916 L 124.77243 100.1167 L 125.33139 100.23332 L 125.89035 100.34975 L 126.44931 100.46451 L 127.00827 100.5804 L 127.56723 100.69664 L 128.12619 100.81178 L 128.68515 100.92616 L 129.24411 101.04092 L 129.80307 101.15514 L 130.36203 101.2699 L 130.92099 101.38318 L 131.47995 101.49683 L 132.03891 101.60936 L 132.59787 101.72244 L 133.15683 101.83554 L 133.71579 101.94826 L 134.27475 102.05968 L 134.83371 102.17183 L 135.39267 102.28195 L 135.95163 102.39467 L 136.51059 102.5061 L 137.06955 102.61603 L 137.62851 102.72633 L 138.18747 102.83627 L 138.74643 102.94733 L 139.30539 103.05725 L 139.86435 103.16533 L 140.42331 103.27434 L 140.98227 103.38576 L 141.54123 103.4942 L 142.10019 103.60098 L 142.65915 103.70961 L 143.21811 103.81676 L 143.77707 103.92522 L 144.33603 104.03198 L 144.89499 104.1397 L 145.45395 104.2474 L 146.01291 104.35306 L 146.57187 104.4602 L 147.13083 104.5681 L 147.68979 104.67079 L 148.24875 104.77832 L 148.80771 104.88324 L 149.36667 104.98982 L 149.92563 105.09474 L 150.48459 105.19911 L 151.04355 105.30367 L 151.60251 105.40709 L 152.16147 105.51405 L 152.72043 105.61656 L 153.27939 105.72 L 153.83835 105.82343 L 154.39731 105.92632 L 154.95627 106.03085 L 155.51523 106.13393 L 156.07419 106.23624 L 156.63315 106.33856 L 157.19211 106.43939 L 157.75107 106.5445 L 158.31003 106.64534 L 158.86899 106.74635 L 159.42795 106.84793 L 159.98691 106.95119 L 160.54587 107.05183 L 161.10483 107.1523 L 161.66379 107.25146 L 162.22275 107.35043 L 162.78171 107.45387 L 163.34067 107.55359 L 163.89963 107.65424 L 164.45859 107.75247 L 165.01755 107.8522 L 165.5765 107.95544 L 166.13547 108.05313 L 166.69443 108.1508 L 167.25339 108.25313 L 167.81235 108.35191 L 168.3713 108.44958 L 168.93027 108.54782 L 169.48923 108.64644 L 170.04819 108.7443 L 170.60715 108.84142 L 171.1661 108.93947 L 171.72508 109.0364 L 172.28404 109.13353 L 172.843 109.23102 L 173.40196 109.32758 L 173.96092 109.42526 L 174.51988 109.5207 L 175.07884 109.61783 L 175.6378 109.71327 L 176.19676 109.80984 L 176.75572 109.90659 L 177.31468 110.0 L 177.87364 110.09676 L 178.4326 110.19238 L 178.99156 110.28616 L 179.55052 110.3816 L 180.10948 110.47632 L 180.66844 110.57158 L 181.2274 110.66629 L 181.78636 110.75969 L 182.34532 110.85403 L 182.90428 110.94818 L 183.46324 111.04251 L 184.0222 111.13834 L 184.58116 111.23026 L 185.14012 111.32329 L 185.24544 111.34094  " fill="none"/>
 <g transform="matrix(0.98622,0.16512,-0.16512,0.98622,185.24542,111.34094)">
 <g stroke-width="0.31999">
 <g stroke-dasharray="none" stroke-dashoffset="0.0">
 <g stroke-linecap="round">
 <g stroke-linejoin="round">
 <path d=" M -1.19998 1.59998 C -1.09998 0.99998 0.0 0.09999 0.29999 0.0 C 0.0 -0.09999 -1.09998 -0.99998 -1.19998 -1.59998  " fill="none"/>
 </g>
 </g>
 </g>
 </g>
  </g>
 <path d=" M 22.28394 25.82094 L 22.83047 28.37152 L 23.37701 30.6131 L 23.92355 32.61253 L 24.4701 34.41661 L 25.01663 36.0617 L 25.56317 37.57257 L 26.10971 38.97182 L 26.65627 40.27078 L 27.2028 41.48544 L 27.74934 42.62563 L 28.29588 43.69897 L 28.84242 44.71419 L 29.38896 45.67686 L 29.9355 46.59125 L 30.48204 47.46365 L 31.02858 48.2967 L 31.57512 49.09299 L 32.12167 49.85938 L 32.66821 50.5914 L 33.21475 51.2952 L 33.76129 51.98006 L 34.30783 52.6365 L 34.85437 53.27011 L 35.40091 53.88367 L 35.94746 54.47716 L 36.494 55.0519 L 37.04054 55.60974 L 37.58708 56.15125 L 38.13362 56.6775 L 38.68016 57.18893 L 39.2267 57.68678 L 39.77324 58.1724 L 40.31978 58.64462 L 40.86632 59.10553 L 41.41287 59.5553 L 41.95941 59.99448 L 42.50595 60.42307 L 43.05249 60.84256 L 43.59903 61.2526 L 44.14557 61.65352 L 44.69211 62.04572 L 45.23865 62.43103 L 45.78519 62.8067 L 46.33173 63.17532 L 46.87827 63.53743 L 47.4248 63.89287 L 47.97136 64.24142 L 48.5179 64.58366 L 49.06444 64.9194 L 49.61098 65.2492 L 50.15752 65.57362 L 50.70406 65.89192 L 51.2506 66.20538 L 51.79713 66.51328 L 52.34367 66.81558 L 52.89021 67.11438 L 53.43675 67.4076 L 53.98329 67.69598 L 54.52985 67.97826 L 55.07639 68.25885 L 55.62292 68.53479 L 56.16946 68.80963 L 56.716 69.07741 L 57.26254 69.34184 L 57.80908 69.60219 L 58.35562 69.85883 L 58.90216 70.11212 L 59.4487 70.36208 L 59.99524 70.60924 L 60.54178 70.85233 L 61.08833 71.0928 L 61.63487 71.32957 L 62.18141 71.56448 L 62.72795 71.79567 L 63.27449 72.02316 L 63.82103 72.24953 L 64.36757 72.47218 L 64.91411 72.69241 L 65.46065 72.91005 L 66.00719 73.12602 L 66.55373 73.3379 L 67.10027 73.54906 L 67.64682 73.75648 L 68.19336 73.96223 L 68.7399 74.16539 L 69.28644 74.36668 L 69.83298 74.56538 L 70.37952 74.7626 L 70.92606 74.95703 L 71.4726 75.14941 L 72.01913 75.34087 L 72.56567 75.52954 L 73.11221 75.71709 L 73.65875 75.90167 L 74.2053 76.08533 L 74.75185 76.26675 L 75.29839 76.44688 L 75.84492 76.62424 L 76.39146 76.80083 L 76.938 76.97502 L 77.48454 77.1494 L 78.03108 77.31987 L 78.57762 77.4907 L 79.12416 77.65877 L 79.6707 77.82533 L 80.21724 77.99023 L 80.7638 78.15384 L 81.31033 78.31726 L 81.85687 78.4766 L 82.40341 78.63722 L 82.94995 78.79506 L 83.49649 78.95235 L 84.04303 79.10797 L 84.58957 79.26228 L 85.13611 79.41512 L 85.68265 79.5672 L 86.22919 79.71706 L 86.77574 79.86748 L 87.32228 80.01418 L 87.86882 80.1633 L 88.41536 80.30702 L 88.9619 80.45149 L 89.50844 80.59653 L 90.05498 80.73804 L 90.60152 80.87953 L 91.14806 81.01843 L 91.6946 81.16069 L 92.24113 81.29625 L 92.78767 81.43478 L 93.33423 81.57368 L 93.88077 81.70906 L 94.4273 81.84276 L 94.97385 81.97647 L 95.52039 82.10887 L 96.06693 82.24016 L 96.61346 82.37015 L 97.16 82.50014 L 97.70654 82.62883 L 98.25308 82.75641 L 98.79962 82.88324 L 99.34616 83.00969 L 99.89272 83.13486 L 100.43925 83.25928 L 100.9858 83.38277 L 101.53233 83.50551 L 102.07887 83.6277 L 102.62541 83.74841 L 103.17195 83.86911 L 103.71849 83.98871 L 104.26503 84.10736 L 104.81157 84.22546 L 105.35811 84.3432 L 105.90465 84.45964 L 106.4512 84.57513 L 106.99774 84.69028 L 107.54428 84.80504 L 108.09082 84.91887 L 108.63736 85.03177 L 109.1839 85.14394 L 109.73044 85.25554 L 110.27698 85.3666 L 110.82352 85.47708 L 111.37006 85.58646 L 111.9166 85.69565 L 112.46313 85.80429 L 113.00969 85.9118 L 113.55623 86.01895 L 114.10277 86.12592 L 114.6493 86.23177 L 115.19585 86.33687 L 115.74239 86.44124 L 116.28893 86.5456 L 116.83546 86.64903 L 117.382 86.75227 L 117.92854 86.85478 L 118.47508 86.9571 L 119.02162 87.05794 L 119.56818 87.15822 L 120.11472 87.25887 L 120.66125 87.35822 L 121.2078 87.45702 L 121.75433 87.55618 L 122.30087 87.6544 L 122.84741 87.7519 L 123.39395 87.84846 L 123.94049 87.94522 L 124.48703 88.04178 L 125.03357 88.13667 L 125.58011 88.23193 L 126.12666 88.32683 L 126.6732 88.42079 L 127.21974 88.5142 L 127.76628 88.60742 L 128.31282 88.6997 L 128.85936 88.79256 L 129.4059 88.88356 L 129.95244 88.97548 L 130.49898 89.0661 L 131.04552 89.15709 L 131.59206 89.24623 L 132.1386 89.3361 L 132.68515 89.42561 L 133.23169 89.51344 L 133.77823 89.6024 L 134.32477 89.69061 L 134.8713 89.77826 L 135.41785 89.86423 L 135.96439 89.9515 L 136.51093 90.03824 L 137.05746 90.12384 L 137.604 90.2089 L 138.15054 90.29413 L 138.69708 90.37936 L 139.24364 90.46385 L 139.79018 90.54631 L 140.33672 90.62987 L 140.88326 90.7138 L 141.4298 90.79533 L 141.97633 90.87778 L 142.52287 90.96078 L 143.06941 91.04286 L 143.61595 91.12346 L 144.16249 91.20517 L 144.70903 91.28558 L 145.25557 91.36598 L 145.80212 91.4451 L 146.34866 91.52588 L 146.8952 91.60443 L 147.44174 91.68465 L 147.98828 91.76152 L 148.53482 91.84007 L 149.08136 91.91862 L 149.6279 91.99681 L 150.17444 92.07275 L 150.72098 92.14983 L 151.26752 92.22763 L 151.81406 92.30191 L 152.36061 92.37917 L 152.90715 92.45438 L 153.45369 92.53014 L 154.00023 92.60385 L 154.54677 92.67888 L 155.0933 92.7539 L 155.63985 92.82912 L 156.18639 92.90135 L 156.73293 92.97488 L 157.27946 93.04953 L 157.826 93.1227 L 158.37254 93.19363 L 158.9191 93.26736 L 159.46564 93.3396 L 160.01218 93.40942 L 160.55872 93.4824 L 161.10526 93.55334 L 161.6518 93.62633 L 162.19833 93.69447 L 162.74487 93.7656 L 163.29141 93.83615 L 163.83795 93.9069 L 164.38449 93.97469 L 164.93103 94.04526 L 165.47758 94.11397 L 166.02412 94.1849 L 166.57066 94.25175 L 167.1172 94.32065 L 167.66374 94.39122 L 168.21028 94.45918 L 168.75682 94.5266 L 169.30336 94.59438 L 169.8499 94.66177 L 170.39644 94.72864 L 170.94298 94.7953 L 171.48952 94.86179 L 172.03607 94.92807 L 172.58261 94.9938 L 173.12915 95.05936 L 173.67569 95.1251 L 174.22223 95.19028 L 174.76877 95.25546 L 175.3153 95.32065 L 175.86185 95.38452 L 176.40839 95.44914 L 176.95493 95.51358 L 177.50146 95.57729 L 178.048 95.64134 L 178.59456 95.70448 L 179.1411 95.76799 L 179.68764 95.83113 L 180.23418 95.89407 L 180.78072 95.95667 L 181.32726 96.0196 L 181.8738 96.08163 L 182.42033 96.14366 L 182.96687 96.2055 L 183.51341 96.26659 L 184.05995 96.3288 L 184.6065 96.38971 L 185.15305 96.4508 L 185.24245 96.46078  " fill="none"/>
 <g transform="matrix(0.9938,0.11075,-0.11075,0.9938,185.24243,96.46077)">
 <g stroke-width="0.31999">
 <g stroke-dasharray="none" stroke-dashoffset="0.0">
 <g stroke-linecap="round">
 <g stroke-linejoin="round">
 <path d=" M -1.19998 1.59998 C -1.09998 0.99998 0.0 0.09999 0.29999 0.0 C 0.0 -0.09999 -1.09998 -0.99998 -1.19998 -1.59998  " fill="none"/>
 </g>
 </g>
 </g>
 </g>
  </g>
 </g>
 <g transform="translate(185.7768,59.25418)">
 <g fill="#000">
 <text style="stroke:none" transform="scale(1,-1) translate(2.85764,0)" text-anchor="middle"  font-size="10"> 
<g fill="#000">
 <g stroke="none"> x </g> </g>
 </text> 
</g>
 </g>
 <g transform="translate(22.10677,133.52995)">
 <g fill="#000">
 <text style="stroke:none" transform="scale(1,-1) translate(2.6308,0)" text-anchor="middle"  font-size="10"> 
<g fill="#000">
 <g stroke="none"> y </g> </g>
 </text> 
</g>
 </g>
 </g>
 </g>
 
                                                     </g> 
</svg> 
