<?xml version="1.0" encoding="UTF-8" standalone="no"?>
<!DOCTYPE svg PUBLIC "-//W3C//DTD SVG 1.1//EN" "http://www.w3.org/Graphics/SVG/1.1/DTD/svg11.dtd">
<svg xmlns="http://www.w3.org/2000/svg" xmlns:xlink="http://www.w3.org/1999/xlink" version="1.1" width="201.16pt" height="161.787pt" viewBox="0 0 201.16 161.787">
<path transform="matrix(1,0,0,-1,9.686,161.588)" stroke-width="1" stroke-linecap="butt" stroke-miterlimit="10" stroke-linejoin="miter" fill="none" stroke="#808080" d="M 0 78.56926 L 0 82.821 M 35.8645 78.56926 L 35.8645 82.821 M 53.79675 78.56926 L 53.79675 82.821 M 71.729 78.56926 L 71.729 82.821 M 89.66125 78.56926 L 89.66125 82.821 M 107.59352 78.56926 L 107.59352 82.821 M 125.52577 78.56926 L 125.52577 82.821 M 143.45803 78.56926 L 143.45803 82.821 M 161.39028 78.56926 L 161.39028 82.821 M 179.32253 78.56926 L 179.32253 82.821 "/>
<path transform="matrix(1,0,0,-1,9.686,161.588)" stroke-width="1" stroke-linecap="butt" stroke-miterlimit="10" stroke-linejoin="miter" fill="none" stroke="#808080" d="M 15.80637 8.96613 L 20.0581 8.96613 M 15.80637 26.89838 L 20.0581 26.89838 M 15.80637 44.83063 L 20.0581 44.83063 M 15.80637 62.76288 L 20.0581 62.76288 M 15.80637 98.62738 L 20.0581 98.62738 M 15.80637 116.55965 L 20.0581 116.55965 M 15.80637 134.4919 L 20.0581 134.4919 M 15.80637 152.42415 L 20.0581 152.42415 "/>
<path transform="matrix(1,0,0,-1,9.686,161.588)" stroke-width="1" stroke-linecap="butt" stroke-miterlimit="10" stroke-linejoin="miter" fill="none" stroke="#000000" d="M -2.9894 80.69513 L 189.28554 80.69513 "/>
<path transform="matrix(1,0,0,-1,198.97154,80.89287)" d="M 1.99252 0 L -1.19551 1.59401 L 0 0 L -1.19551 -1.59401 "/>
<path transform="matrix(1,0,0,-1,9.686,161.588)" stroke-width="1" stroke-linecap="butt" stroke-miterlimit="10" stroke-linejoin="miter" fill="none" stroke="#000000" d="M 17.93225 0 L 17.93225 159.39775 "/>
<path transform="matrix(0,-1,-1,-0,27.618248,2.1902467)" d="M 1.99252 0 L -1.19551 1.59401 L 0 0 L -1.19551 -1.59401 "/>
<symbol id="font_0_1">
<path d="M .57600006 0 C .59300008 0 .611 0 .611 .019999996 C .611 .040000008 .59300008 .040000008 .57600006 .040000008 L .035000005 .040000008 C .018 .040000008 0 .040000008 0 .019999996 C 0 0 .018 0 .035000005 0 L .57600006 0 Z "/>
</symbol>
<use xlink:href="#font_0_1" transform="matrix(9.9626,0,0,-9.9626,4.147896,90.6686)"/>
<symbol id="font_1_1">
<path d="M .205 .64000007 C .205 .66400006 .205 .666 .18200003 .666 C .120000008 .60200008 .032000007 .60200008 0 .60200008 L 0 .57100006 C .020000004 .57100006 .07900001 .57100006 .13100001 .597 L .13100001 .079 C .13100001 .043 .128 .031000002 .038000004 .031000002 L .0060000049 .031000002 L .0060000049 0 C .04100001 .003 .128 .003 .168 .003 C .20800002 .003 .29500003 .003 .33000005 0 L .33000005 .031000002 L .29800005 .031000002 C .20800002 .031000002 .205 .042000005 .205 .079 L .205 .64000007 Z "/>
</symbol>
<use xlink:href="#font_1_1" transform="matrix(9.9626,0,0,-9.9626,11.955671,92.96)"/>
<use xlink:href="#font_1_1" transform="matrix(9.9626,0,0,-9.9626,43.945676,92.96)"/>
<symbol id="font_1_2">
<path d="M .07700001 .07700001 L .18300002 .18 C .33900003 .31800003 .39900003 .372 .39900003 .47200004 C .39900003 .586 .30900003 .666 .18700002 .666 C .074 .666 0 .574 0 .485 C 0 .42900003 .05 .42900003 .053000008 .42900003 C .07000001 .42900003 .105000007 .441 .105000007 .48200003 C .105000007 .508 .08700001 .53400006 .052000006 .53400006 C .044000005 .53400006 .042000008 .53400006 .039 .53300008 C .062000004 .59800007 .11600001 .63500007 .17400001 .63500007 C .26500003 .63500007 .308 .554 .308 .47200004 C .308 .39200003 .25800003 .31300003 .20300003 .25100003 L .011000004 .037 C 0 .026 0 .024 0 0 L .37100003 0 L .39900003 .17400001 L .374 .17400001 C .36900003 .14400001 .36200003 .1 .352 .085 C .345 .07700001 .279 .07700001 .257 .07700001 L .07700001 .07700001 Z "/>
</symbol>
<use xlink:href="#font_1_2" transform="matrix(9.9626,0,0,-9.9626,61.489133,92.96)"/>
<symbol id="font_1_3">
<path d="M .24800003 .37400005 C .33 .40100003 .388 .47100006 .388 .55 C .388 .632 .3 .688 .204 .688 C .10300001 .688 .027000003 .628 .027000003 .55200007 C .027000003 .519 .049000004 .5 .078 .5 C .109000008 .5 .12900001 .522 .12900001 .55100008 C .12900001 .6010001 .082 .6010001 .067 .6010001 C .098 .65000006 .164 .66300007 .20000002 .66300007 C .24100003 .66300007 .29600004 .64100006 .29600004 .55100008 C .29600004 .53900006 .29400004 .48100005 .268 .43700005 C .238 .38900004 .204 .38600005 .17900002 .38500003 C .171 .38400004 .14700002 .38200004 .14000002 .38200004 C .132 .38100005 .125 .38000003 .125 .37000004 C .125 .35900004 .132 .35900004 .14900002 .35900004 L .19300002 .35900004 C .275 .35900004 .312 .29100005 .312 .193 C .312 .057000005 .24300003 .028 .199 .028 C .15600002 .028 .081 .045 .046000005 .104 C .081 .09900001 .11200001 .12100001 .11200001 .15900001 C .11200001 .19500001 .085 .215 .056 .215 C .031999999 .215 0 .201 0 .157 C 0 .06600001 .093 0 .20200002 0 C .32400004 0 .41500003 .091000009 .41500003 .193 C .41500003 .27500005 .35200004 .35300005 .24800003 .37400005 Z "/>
</symbol>
<use xlink:href="#font_1_3" transform="matrix(9.9626,0,0,-9.9626,79.34142,93.17918)"/>
<symbol id="font_1_4">
<path d="M .266 .165 L .266 .078 C .266 .042000005 .26400004 .031000002 .19000001 .031000002 L .16900002 .031000002 L .16900002 0 C .21000001 .003 .26200003 .003 .30400003 .003 C .34600003 .003 .39900003 .003 .44000004 0 L .44000004 .031000002 L .41900004 .031000002 C .34500004 .031000002 .34300003 .042000005 .34300003 .078 L .34300003 .165 L .44300003 .165 L .44300003 .19600001 L .34300003 .19600001 L .34300003 .651 C .34300003 .671 .34300003 .67700007 .32700003 .67700007 C .31800003 .67700007 .31500004 .67700007 .307 .665 L 0 .19600001 L 0 .165 L .266 .165 M .272 .19600001 L .028 .19600001 L .272 .569 L .272 .19600001 Z "/>
</symbol>
<use xlink:href="#font_1_4" transform="matrix(9.9626,0,0,-9.9626,97.13395,92.96)"/>
<symbol id="font_1_5">
<path d="M .39900003 .223 C .39900003 .34200005 .317 .44200004 .209 .44200004 C .16100002 .44200004 .118000019 .42600004 .082 .39100004 L .082 .586 C .10200001 .58000007 .135 .573 .16700001 .573 C .29 .573 .36 .66400006 .36 .67700007 C .36 .683 .357 .688 .35 .688 C .349 .688 .347 .688 .342 .68500009 C .322 .67600008 .273 .656 .20600002 .656 C .16600001 .656 .120000008 .66300007 .073 .6840001 C .065 .68700006 .06300001 .68700006 .061000009 .68700006 C .051000004 .68700006 .051000004 .679 .051000004 .66300007 L .051000004 .36700005 C .051000004 .34900005 .051000004 .34100003 .065 .34100003 C .07200001 .34100003 .074 .34400005 .07800001 .35000003 C .08900002 .36600004 .12600002 .42000006 .207 .42000006 C .259 .42000006 .284 .37400005 .292 .35600005 C .308 .31900005 .31 .28000004 .31 .23 C .31 .19500001 .31 .135 .286 .093 C .262 .054000006 .22500001 .028 .17900002 .028 C .106000009 .028 .049000008 .08100001 .032 .14000002 C .035 .13900002 .038000008 .13800001 .049000008 .13800001 C .082 .13800001 .09900001 .163 .09900001 .187 C .09900001 .21100001 .082 .23600002 .049000008 .23600002 C .035 .23600002 0 .22900002 0 .18300002 C 0 .097 .069000009 0 .18100001 0 C .297 0 .39900003 .096 .39900003 .223 Z "/>
</symbol>
<use xlink:href="#font_1_5" transform="matrix(9.9626,0,0,-9.9626,115.285129,93.17918)"/>
<symbol id="font_1_6">
<path d="M .089999999 .35000003 L .089999999 .37400005 C .089999999 .62700006 .21400002 .66300007 .26500003 .66300007 C .28900004 .66300007 .33100004 .65700009 .35300002 .623 C .33800004 .623 .298 .623 .298 .57800009 C .298 .54700008 .32200004 .53200009 .344 .53200009 C .36 .53200009 .39000003 .54100009 .39000003 .58000007 C .39000003 .64000007 .34600003 .688 .263 .688 C .13499999 .688 0 .559 0 .33800004 C 0 .071 .116000007 0 .20900002 0 C .32000003 0 .41500003 .094000007 .41500003 .22600001 C .41500003 .35300005 .32600004 .44900004 .215 .44900004 C .14700002 .44900004 .11000001 .39800004 .089999999 .35000003 M .20900002 .028 C .146 .028 .116000007 .088 .11000001 .103 C .092 .15 .092 .23 .092 .24800001 C .092 .32600004 .124000009 .42600004 .21400002 .42600004 C .23000002 .42600004 .27600003 .42600004 .307 .36400003 C .32500003 .32700003 .32500003 .27600003 .32500003 .22700002 C .32500003 .179 .32500003 .12900001 .30800004 .093 C .27800004 .033000005 .23200003 .028 .20900002 .028 Z "/>
</symbol>
<use xlink:href="#font_1_6" transform="matrix(9.9626,0,0,-9.9626,133.13742,93.17918)"/>
<symbol id="font_1_7">
<path d="M .42000003 .63100007 C .42900003 .64300009 .42900003 .64500007 .42900003 .66600009 L .18600002 .66600009 C .064 .66600009 .062000008 .679 .058000007 .6980001 L .033 .6980001 L 0 .49200005 L .024999999 .49200005 C .028000005 .508 .037 .57100006 .050000006 .58300009 C .057000005 .58900007 .13500002 .58900007 .148 .58900007 L .35500003 .58900007 C .344 .573 .26500003 .46400006 .24300003 .43100003 C .153 .29600004 .12000001 .157 .12000001 .055 C .12000001 .045 .12000001 0 .16600001 0 C .21200001 0 .21200001 .045 .21200001 .055 L .21200001 .106000009 C .21200001 .16100002 .21500004 .216 .22300002 .27 C .22700003 .29300005 .24100003 .37900005 .28500004 .44100005 L .42000003 .63100007 Z "/>
</symbol>
<use xlink:href="#font_1_7" transform="matrix(9.9626,0,0,-9.9626,151.20891,93.17918)"/>
<symbol id="font_1_8">
<path d="M .121 .47900004 C .075 .509 .071 .54300007 .071 .56000009 C .071 .62100008 .136 .66300007 .20700002 .66300007 C .28000004 .66300007 .344 .61100009 .344 .53900006 C .344 .48200003 .305 .43400005 .245 .39900003 L .121 .47900004 M .26700003 .38400004 C .33900003 .42100004 .388 .47300006 .388 .53900006 C .388 .63100007 .29900003 .688 .208 .688 C .108 .688 .027000003 .614 .027000003 .521 C .027000003 .503 .029 .45800004 .071 .41100005 C .082 .39900003 .11900001 .37400005 .144 .35700003 C .086 .32800005 0 .272 0 .17300001 C 0 .067 .102000009 0 .20700002 0 C .32000003 0 .41500003 .083000008 .41500003 .19000001 C .41500003 .22600001 .404 .27100004 .36600004 .31300003 C .34700004 .33400003 .33100004 .34400005 .26700003 .38400004 M .167 .34200005 L .29000003 .26400004 C .31800003 .245 .365 .215 .365 .154 C .365 .080000009 .29000003 .028 .208 .028 C .122 .028 .050000006 .09 .050000006 .17300001 C .050000006 .231 .082 .29500003 .167 .34200005 Z "/>
</symbol>
<use xlink:href="#font_1_8" transform="matrix(9.9626,0,0,-9.9626,169.00144,93.17918)"/>
<symbol id="font_1_9">
<path d="M .32500003 .34000004 L .32500003 .30800004 C .32500003 .074 .22100002 .028 .16300002 .028 C .146 .028 .092 .030000002 .065000008 .064 C .109000008 .064 .117000009 .093 .117000009 .11000001 C .117000009 .141 .093 .156 .071 .156 C .055 .156 .024999999 .147 .024999999 .108 C .024999999 .041 .079 0 .164 0 C .293 0 .41500003 .136 .41500003 .35100005 C .41500003 .62000009 .3 .688 .21100003 .688 C .15600002 .688 .107 .67 .064 .62500008 C .023000002 .58000007 0 .53800007 0 .46300004 C 0 .33800004 .08800001 .24000001 .20000002 .24000001 C .261 .24000001 .30200003 .28200004 .32500003 .34000004 M .201 .263 C .185 .263 .139 .263 .108 .32600004 C .089999999 .36300005 .089999999 .41300006 .089999999 .46200005 C .089999999 .51600006 .089999999 .563 .11100001 .6 C .13800001 .65000006 .176 .66300007 .21100003 .66300007 C .25700004 .66300007 .29000003 .62900009 .307 .58400008 C .31900005 .55200007 .323 .48900003 .323 .44300006 C .323 .36000005 .28900004 .263 .201 .263 Z "/>
</symbol>
<use xlink:href="#font_1_9" transform="matrix(9.9626,0,0,-9.9626,186.93343,93.17918)"/>
<use xlink:href="#font_0_1" transform="matrix(9.9626,0,0,-9.9626,10.068895,153.1256)"/>
<use xlink:href="#font_1_4" transform="matrix(9.9626,0,0,-9.9626,17.269953,155.41699)"/>
<use xlink:href="#font_0_1" transform="matrix(9.9626,0,0,-9.9626,10.068895,135.1936)"/>
<use xlink:href="#font_1_3" transform="matrix(9.9626,0,0,-9.9626,17.409428,137.70418)"/>
<use xlink:href="#font_0_1" transform="matrix(9.9626,0,0,-9.9626,10.068895,117.26159)"/>
<use xlink:href="#font_1_2" transform="matrix(9.9626,0,0,-9.9626,17.48913,119.552989)"/>
<use xlink:href="#font_0_1" transform="matrix(9.9626,0,0,-9.9626,10.068895,99.329608)"/>
<use xlink:href="#font_1_1" transform="matrix(9.9626,0,0,-9.9626,17.87767,101.621)"/>
<use xlink:href="#font_1_1" transform="matrix(9.9626,0,0,-9.9626,17.87767,66.17199)"/>
<use xlink:href="#font_1_2" transform="matrix(9.9626,0,0,-9.9626,17.48913,48.23999)"/>
<use xlink:href="#font_1_3" transform="matrix(9.9626,0,0,-9.9626,17.409428,30.527176)"/>
<use xlink:href="#font_1_4" transform="matrix(9.9626,0,0,-9.9626,17.269953,12.375992)"/>
<clipPath id="cp2">
<path transform="matrix(1,0,0,-1,9.686,161.588)" d="M -2.9894 0 L 191.27806 0 L 191.27806 161.39028 L -2.9894 161.39028 Z "/>
</clipPath>
<g clip-path="url(#cp2)">
<path transform="matrix(1,0,0,-1,9.686,161.588)" stroke-width="1" stroke-linecap="butt" stroke-miterlimit="10" stroke-linejoin="miter" fill="none" stroke="#000000" d="M 17.93225 80.69513 L 18.472 83.80513 L 19.01176 85.0948 L 19.55154 86.08502 L 20.09131 86.91707 L 20.63109 87.65265 L 21.17085 88.31616 L 21.71062 88.92783 L 22.25038 89.49646 L 22.79015 90.02922 L 23.32993 90.53491 L 23.86969 91.01569 L 24.40945 91.47313 L 24.94922 91.91426 L 25.48898 92.33765 L 26.02876 92.74667 L 26.56853 93.14119 L 27.10829 93.52512 L 27.64806 93.89648 L 28.18782 94.25871 L 28.7276 94.61037 L 29.26736 94.9545 L 29.80713 95.29001 L 30.3469 95.61835 L 30.88667 95.93933 L 31.42644 96.25314 L 31.9662 96.56175 L 32.50597 96.86499 L 33.04573 97.1607 L 33.58551 97.45139 L 34.12527 97.7383 L 34.66504 98.02002 L 35.2048 98.29796 L 35.74457 98.57071 L 36.28435 98.83592 L 36.82411 99.1008 L 37.36388 99.36118 L 37.90364 99.61868 L 38.4434 99.87296 L 38.98317 100.12383 L 39.52293 100.37111 L 40.06271 100.61554 L 40.60246 100.85707 L 41.14223 101.09575 L 41.68199 101.33138 L 42.22177 101.56505 L 42.76154 101.79512 L 43.30128 102.02304 L 43.84105 102.24881 L 44.38083 102.47188 L 44.9206 102.69316 L 45.46036 102.91176 L 46.00012 103.12819 L 46.53989 103.34303 L 47.07965 103.55588 L 47.61942 103.76677 L 48.15918 103.97568 L 48.69896 104.1819 L 49.23871 104.38669 L 49.77847 104.5904 L 50.31824 104.79196 L 50.85802 104.99297 L 51.39778 105.19112 L 51.93753 105.38676 L 52.4773 105.58133 L 53.01707 105.7759 L 53.55684 105.96884 L 54.0966 106.16 L 54.63635 106.34883 L 55.17613 106.53711 L 55.7159 106.72343 L 56.25566 106.9085 L 56.79543 107.09247 L 57.33519 107.27574 L 57.87495 107.45758 L 58.41472 107.63672 L 58.95448 107.81659 L 59.49426 107.99411 L 60.03401 108.1711 L 60.57378 108.34666 L 61.11354 108.52078 L 61.65332 108.69437 L 62.19308 108.8667 L 62.73283 109.03777 L 63.27261 109.20813 L 63.81238 109.37706 L 64.35214 109.54526 L 64.8919 109.7122 L 65.43169 109.87862 L 65.97144 110.04413 L 66.5112 110.20874 L 67.05096 110.37193 L 67.59074 110.53474 L 68.13051 110.69615 L 68.67026 110.85681 L 69.21002 111.01732 L 69.7498 111.17601 L 70.28957 111.33365 L 70.82933 111.4918 L 71.36908 111.6487 L 71.90886 111.80544 L 72.44862 111.95947 L 72.98839 112.11351 L 73.52815 112.26755 L 74.06792 112.42033 L 74.60768 112.57257 L 75.14745 112.72392 L 75.68721 112.87527 L 76.22699 113.02518 L 76.76674 113.17294 L 77.3065 113.32321 L 77.84627 113.47008 L 78.38605 113.61821 L 78.92581 113.76434 L 79.46556 113.90979 L 80.00533 114.05647 L 80.5451 114.20045 L 81.08487 114.34554 L 81.62463 114.48756 L 82.16438 114.62976 L 82.70416 114.77232 L 83.24393 114.91435 L 83.78369 115.05745 L 84.32346 115.19536 L 84.86322 115.33469 L 85.40298 115.47545 L 85.94275 115.61371 L 86.48251 115.75269 L 87.0223 115.88986 L 87.56206 116.0274 L 88.1018 116.16333 L 88.64159 116.29907 L 89.18135 116.4359 L 89.72112 116.57272 L 90.26088 116.70686 L 90.80064 116.84154 L 91.34041 116.97531 L 91.88017 117.108 L 92.41994 117.24106 L 92.95972 117.37303 L 93.49947 117.50412 L 94.03923 117.63521 L 94.579 117.76611 L 95.11877 117.89648 L 95.65854 118.02684 L 96.19829 118.15543 L 96.73805 118.28543 L 97.27783 118.41383 L 97.8176 118.54204 L 98.35736 118.66936 L 98.89711 118.79651 L 99.43689 118.92311 L 99.97665 119.05043 L 100.51642 119.17542 L 101.05618 119.30183 L 101.59595 119.42647 L 102.13571 119.55145 L 102.67548 119.67572 L 103.21524 119.79964 L 103.75502 119.923 L 104.29477 120.04639 L 104.83453 120.16904 L 105.3743 120.29152 L 105.91408 120.41364 L 106.45384 120.53522 L 106.99359 120.65625 L 107.53336 120.77803 L 108.07314 120.89761 L 108.6129 121.0176 L 109.15266 121.13791 L 109.69243 121.25662 L 110.2322 121.3766 L 110.77196 121.49532 L 111.31172 121.61385 L 111.85149 121.7313 L 112.39127 121.8491 L 112.93102 121.96729 L 113.47078 122.08348 L 114.01056 122.20076 L 114.55032 122.31642 L 115.09009 122.43298 L 115.62984 122.54901 L 116.16962 122.6645 L 116.70938 122.77907 L 117.24915 122.89438 L 117.78891 123.01004 L 118.32867 123.12392 L 118.86844 123.23688 L 119.4082 123.35057 L 119.94797 123.46356 L 120.48775 123.57706 L 121.0275 123.68967 L 121.56726 123.80211 L 122.10703 123.91293 L 122.6468 124.02483 L 123.18657 124.13708 L 123.72632 124.24828 L 124.26608 124.35873 L 124.80586 124.46954 L 125.34563 124.57983 L 125.88539 124.69066 L 126.42514 124.80003 L 126.96492 124.90979 L 127.50468 125.01846 L 128.04445 125.12766 L 128.58422 125.23688 L 129.124 125.34572 L 129.66374 125.45331 L 130.2035 125.56163 L 130.74327 125.66797 L 131.28305 125.77681 L 131.82282 125.88441 L 132.36257 125.99057 L 132.90233 126.09709 L 133.44211 126.20325 L 133.98188 126.31049 L 134.52164 126.41664 L 135.06139 126.521 L 135.60117 126.62625 L 136.14093 126.73386 L 136.6807 126.83858 L 137.22046 126.9417 L 137.76023 127.04659 L 138.29999 127.15007 L 138.83975 127.25479 L 139.37952 127.3579 L 139.9193 127.46191 L 140.45905 127.56592 L 140.99881 127.66795 L 141.53859 127.77142 L 142.07836 127.8756 L 142.61812 127.97476 L 143.15787 128.0786 L 143.69765 128.17992 L 144.23741 128.28285 L 144.77718 128.38417 L 145.31694 128.48494 L 145.8567 128.58589 L 146.39647 128.68579 L 146.93624 128.78908 L 147.476 128.88806 L 148.01578 128.98795 L 148.55553 129.08782 L 149.09529 129.18717 L 149.63506 129.28812 L 150.17484 129.38765 L 150.7146 129.48647 L 151.25437 129.58527 L 151.79412 129.68265 L 152.3339 129.78414 L 152.87366 129.8815 L 153.41342 129.97905 L 153.95319 130.07715 L 154.49295 130.17685 L 155.03272 130.27405 L 155.57248 130.37105 L 156.11225 130.46681 L 156.65203 130.5624 L 157.19178 130.66228 L 157.73154 130.75858 L 158.2713 130.85576 L 158.81108 130.95063 L 159.35085 131.04694 L 159.8906 131.14662 L 160.43036 131.24095 L 160.97014 131.33528 L 161.5099 131.43408 L 162.04967 131.52948 L 162.58942 131.6238 L 163.1292 131.71866 L 163.66896 131.81389 L 164.20873 131.9084 L 164.74849 132.00218 L 165.28826 132.09685 L 165.82802 132.19046 L 166.36779 132.28426 L 166.90756 132.37839 L 167.44733 132.47165 L 167.98708 132.56597 L 168.52684 132.65814 L 169.06662 132.75193 L 169.60639 132.84409 L 170.14615 132.93735 L 170.6859 133.03078 L 171.22568 133.12097 L 171.76544 133.2144 L 172.3052 133.30675 L 172.84497 133.39731 L 173.38475 133.48947 L 173.9245 133.58094 L 174.46427 133.67292 L 175.00403 133.76438 L 175.54381 133.85459 L 176.08358 133.94568 L 176.62332 134.03658 L 177.16309 134.12769 L 177.70287 134.22022 L 178.24263 134.30899 L 178.7824 134.39882 L 178.8702 134.41353 "/>
<path transform="matrix(.98622,-.16515,-.16515,-.98622,188.55619,27.174469)" stroke-width="1" stroke-linecap="round" stroke-linejoin="round" fill="none" stroke="#000000" d="M -1.19551 1.59401 C -1.09587 .99626 0 .09961 .29886 0 C 0 -.09961 -1.09587 -.99626 -1.19551 -1.59401 "/>
<path transform="matrix(1,0,0,-1,9.686,161.588)" stroke-width="1" stroke-linecap="butt" stroke-miterlimit="10" stroke-linejoin="miter" fill="none" stroke="#000000" d="M 17.93225 80.69513 L 18.472 77.58513 L 19.01176 76.29546 L 19.55154 75.30522 L 20.09131 74.47318 L 20.63109 73.7376 L 21.17085 73.0741 L 21.71062 72.46243 L 22.25038 71.8938 L 22.79015 71.36102 L 23.32993 70.85533 L 23.86969 70.37457 L 24.40945 69.91713 L 24.94922 69.476 L 25.48898 69.05261 L 26.02876 68.64359 L 26.56853 68.24905 L 27.10829 67.86514 L 27.64806 67.49376 L 28.18782 67.13153 L 28.7276 66.77988 L 29.26736 66.43576 L 29.80713 66.10025 L 30.3469 65.7719 L 30.88667 65.45093 L 31.42644 65.13712 L 31.9662 64.82849 L 32.50597 64.52525 L 33.04573 64.22955 L 33.58551 63.93887 L 34.12527 63.65195 L 34.66504 63.37022 L 35.2048 63.09229 L 35.74457 62.81953 L 36.28435 62.55432 L 36.82411 62.28946 L 37.36388 62.02908 L 37.90364 61.77158 L 38.4434 61.51729 L 38.98317 61.26643 L 39.52293 61.01913 L 40.06271 60.77472 L 40.60246 60.53317 L 41.14223 60.29451 L 41.68199 60.05887 L 42.22177 59.82521 L 42.76154 59.59514 L 43.30128 59.36722 L 43.84105 59.14145 L 44.38083 58.91838 L 44.9206 58.6971 L 45.46036 58.47849 L 46.00012 58.26205 L 46.53989 58.04723 L 47.07965 57.83437 L 47.61942 57.62349 L 48.15918 57.41458 L 48.69896 57.20834 L 49.23871 57.00357 L 49.77847 56.79987 L 50.31824 56.5983 L 50.85802 56.39728 L 51.39778 56.19914 L 51.93753 56.0035 L 52.4773 55.80891 L 53.01707 55.61436 L 53.55684 55.4214 L 54.0966 55.23026 L 54.63635 55.04141 L 55.17613 54.85313 L 55.7159 54.66682 L 56.25566 54.48175 L 56.79543 54.29778 L 57.33519 54.1145 L 57.87495 53.93268 L 58.41472 53.75354 L 58.95448 53.57367 L 59.49426 53.39613 L 60.03401 53.21915 L 60.57378 53.04358 L 61.11354 52.86946 L 61.65332 52.69589 L 62.19308 52.52356 L 62.73283 52.3525 L 63.27261 52.18211 L 63.81238 52.0132 L 64.35214 51.845 L 64.8919 51.67805 L 65.43169 51.51164 L 65.97144 51.34612 L 66.5112 51.18152 L 67.05096 51.01833 L 67.59074 50.8555 L 68.13051 50.6941 L 68.67026 50.53343 L 69.21002 50.37294 L 69.7498 50.21423 L 70.28957 50.05661 L 70.82933 49.89845 L 71.36908 49.74155 L 71.90886 49.58482 L 72.44862 49.43077 L 72.98839 49.27675 L 73.52815 49.12271 L 74.06792 48.96991 L 74.60768 48.81767 L 75.14745 48.66634 L 75.68721 48.51498 L 76.22699 48.36507 L 76.76674 48.21732 L 77.3065 48.06703 L 77.84627 47.92017 L 78.38605 47.77205 L 78.92581 47.6259 L 79.46556 47.48047 L 80.00533 47.33379 L 80.5451 47.18979 L 81.08487 47.04472 L 81.62463 46.90268 L 82.16438 46.76048 L 82.70416 46.61792 L 83.24393 46.4759 L 83.78369 46.33281 L 84.32346 46.1949 L 84.86322 46.05557 L 85.40298 45.9148 L 85.94275 45.77654 L 86.48251 45.63757 L 87.0223 45.5004 L 87.56206 45.36285 L 88.1018 45.22693 L 88.64159 45.09117 L 89.18135 44.95436 L 89.72112 44.81752 L 90.26088 44.6834 L 90.80064 44.54872 L 91.34041 44.41495 L 91.88017 44.28224 L 92.41994 44.1492 L 92.95972 44.01721 L 93.49947 43.88612 L 94.03923 43.75504 L 94.579 43.62413 L 95.11877 43.49376 L 95.65854 43.3634 L 96.19829 43.23483 L 96.73805 43.10483 L 97.27783 42.97643 L 97.8176 42.8482 L 98.35736 42.7209 L 98.89711 42.59375 L 99.43689 42.46715 L 99.97665 42.33983 L 100.51642 42.21484 L 101.05618 42.08842 L 101.59595 41.96379 L 102.13571 41.8388 L 102.67548 41.71452 L 103.21524 41.5906 L 103.75502 41.46725 L 104.29477 41.34387 L 104.83453 41.22122 L 105.3743 41.09874 L 105.91408 40.97662 L 106.45384 40.85504 L 106.99359 40.734 L 107.53336 40.61223 L 108.07314 40.49263 L 108.6129 40.37267 L 109.15266 40.25233 L 109.69243 40.13362 L 110.2322 40.01366 L 110.77196 39.89494 L 111.31172 39.77641 L 111.85149 39.65897 L 112.39127 39.54114 L 112.93102 39.42296 L 113.47078 39.30678 L 114.01056 39.1895 L 114.55032 39.07384 L 115.09009 38.95726 L 115.62984 38.84125 L 116.16962 38.72575 L 116.70938 38.61118 L 117.24915 38.49586 L 117.78891 38.38022 L 118.32867 38.26634 L 118.86844 38.15337 L 119.4082 38.03967 L 119.94797 37.92671 L 120.48775 37.8132 L 121.0275 37.70058 L 121.56726 37.58815 L 122.10703 37.47733 L 122.6468 37.36542 L 123.18657 37.25317 L 123.72632 37.14198 L 124.26608 37.03152 L 124.80586 36.9207 L 125.34563 36.81041 L 125.88539 36.69958 L 126.42514 36.59021 L 126.96492 36.48047 L 127.50468 36.3718 L 128.04445 36.26259 L 128.58422 36.15338 L 129.124 36.04454 L 129.66374 35.93694 L 130.2035 35.82863 L 130.74327 35.72229 L 131.28305 35.61343 L 131.82282 35.50586 L 132.36257 35.39969 L 132.90233 35.29317 L 133.44211 35.18701 L 133.98188 35.07977 L 134.52164 34.97362 L 135.06139 34.86926 L 135.60117 34.76399 L 136.14093 34.6564 L 136.6807 34.55167 L 137.22046 34.44856 L 137.76023 34.34366 L 138.29999 34.24019 L 138.83975 34.13545 L 139.37952 34.03236 L 139.9193 33.92834 L 140.45905 33.82434 L 140.99881 33.7223 L 141.53859 33.61884 L 142.07836 33.51465 L 142.61812 33.4155 L 143.15787 33.31166 L 143.69765 33.21034 L 144.23741 33.1074 L 144.77718 33.00609 L 145.31694 32.90532 L 145.8567 32.80435 L 146.39647 32.70447 L 146.93624 32.60118 L 147.476 32.5022 L 148.01578 32.40231 L 148.55553 32.30243 L 149.09529 32.2031 L 149.63506 32.10213 L 150.17484 32.00261 L 150.7146 31.9038 L 151.25437 31.805 L 151.79412 31.70761 L 152.3339 31.60612 L 152.87366 31.50876 L 153.41342 31.41121 L 153.95319 31.31311 L 154.49295 31.21341 L 155.03272 31.11621 L 155.57248 31.01921 L 156.11225 30.92345 L 156.65203 30.82785 L 157.19178 30.72798 L 157.73154 30.63167 L 158.2713 30.53448 L 158.81108 30.43962 L 159.35085 30.34332 L 159.8906 30.24362 L 160.43036 30.1493 L 160.97014 30.05498 L 161.5099 29.95618 L 162.04967 29.86076 L 162.58942 29.76645 L 163.1292 29.6716 L 163.66896 29.57637 L 164.20873 29.48186 L 164.74849 29.38808 L 165.28826 29.2934 L 165.82802 29.19978 L 166.36779 29.106 L 166.90756 29.01186 L 167.44733 28.91861 L 167.98708 28.8243 L 168.52684 28.73212 L 169.06662 28.63834 L 169.60639 28.54616 L 170.14615 28.45291 L 170.6859 28.35948 L 171.22568 28.26929 L 171.76544 28.17586 L 172.3052 28.08351 L 172.84497 27.99295 L 173.38475 27.90077 L 173.9245 27.80933 L 174.46427 27.71733 L 175.00403 27.62589 L 175.54381 27.53568 L 176.08358 27.44458 L 176.62332 27.35367 L 177.16309 27.26257 L 177.70287 27.17003 L 178.24263 27.08127 L 178.7824 26.99144 L 178.8702 26.97673 "/>
<path transform="matrix(.98622,.16515,.16515,-.98622,188.55619,134.61127)" stroke-width="1" stroke-linecap="round" stroke-linejoin="round" fill="none" stroke="#000000" d="M -1.19551 1.59401 C -1.09587 .99626 0 .09961 .29886 0 C 0 -.09961 -1.09587 -.99626 -1.19551 -1.59401 "/>
</g>
<symbol id="font_3_1">
<path d="M .305 .31300003 C .311 .33900003 .334 .43100003 .404 .43100003 C .409 .43100003 .433 .43100003 .454 .418 C .426 .41300003 .40600003 .388 .40600003 .36400003 C .40600003 .34800003 .417 .32900004 .444 .32900004 C .46600003 .32900004 .498 .34700004 .498 .38700003 C .498 .43900005 .439 .45300005 .405 .45300005 C .347 .45300005 .312 .40000005 .3 .37700004 C .275 .44300003 .221 .45300005 .19200002 .45300005 C .08800001 .45300005 .031000002 .32400004 .031000002 .29900003 C .031000002 .28900004 .041 .28900004 .043000007 .28900004 C .051000008 .28900004 .054000006 .291 .056 .3 C .09 .40600003 .156 .43100003 .19000001 .43100003 C .209 .43100003 .244 .42200003 .244 .36400003 C .244 .33300004 .22700002 .26600004 .19000001 .126 C .17400001 .064 .13900002 .022000002 .095000009 .022000002 C .08900001 .022000002 .06600001 .022000002 .045 .035 C .07000001 .040000004 .09200001 .061 .09200001 .089 C .09200001 .116000007 .07000001 .124000009 .055000009 .124000009 C .025 .124000009 0 .098000008 0 .06600001 C 0 .020000002 .050000006 0 .094000007 0 C .16000001 0 .19600001 .07000001 .19900002 .076000008 C .21100001 .039 .24700003 0 .307 0 C .41 0 .467 .12900001 .467 .15400002 C .467 .16400002 .458 .16400002 .455 .16400002 C .446 .16400002 .444 .16000001 .442 .15300001 C .409 .046 .341 .022000002 .30900003 .022000002 C .27 .022000002 .254 .054 .254 .08800001 C .254 .11000001 .26 .13200002 .271 .17600002 L .305 .31300003 Z "/>
</symbol>
<use xlink:href="#font_3_1" transform="matrix(9.9626,0,0,-9.9626,192.07592,77.467578)"/>
<symbol id="font_3_2">
<path d="M .45700003 .586 C .461 .6 .461 .602 .461 .609 C .461 .62700006 .447 .63600006 .432 .63600006 C .42200003 .63600006 .40600003 .63 .397 .615 C .395 .61 .387 .579 .38300003 .561 C .37600003 .535 .36900003 .508 .363 .48100005 L .318 .301 C .314 .286 .271 .21600002 .20500002 .21600002 C .15400002 .21600002 .143 .26000003 .143 .29700003 C .143 .34300003 .16000001 .40500004 .194 .49300004 C .21000001 .53400006 .21400002 .545 .21400002 .56500008 C .21400002 .61 .18200001 .6470001 .13200002 .6470001 C .037 .6470001 0 .50200006 0 .49300004 C 0 .48300005 .01 .48300005 .012 .48300005 C .022000002 .48300005 .023 .485 .028000003 .50100007 C .055000009 .595 .095000009 .625 .12900001 .625 C .13700001 .625 .15400002 .625 .15400002 .59300008 C .15400002 .568 .14400001 .54200008 .13700001 .523 C .097 .41700004 .079 .36 .079 .31300003 C .079 .224 .142 .194 .201 .194 C .24000003 .194 .274 .21100001 .30200003 .23900002 C .289 .187 .277 .13800001 .237 .08500001 C .21100001 .051 .17300001 .022 .127 .022 C .113000009 .022 .068 .025000006 .051000008 .06400001 C .067 .06400001 .080000009 .06400001 .094000007 .076000008 C .104 .08500001 .11400001 .098000008 .11400001 .117000009 C .11400001 .148 .087000008 .15200001 .07700001 .15200001 C .054000006 .15200001 .021 .136 .021 .087000008 C .021 .037 .065000008 0 .127 0 C .23 0 .333 .091000009 .361 .20400001 L .45700003 .586 Z "/>
</symbol>
<use xlink:href="#font_3_2" transform="matrix(9.9626,0,0,-9.9626,31.428915,10.016333)"/>
</svg>
