<?xml version="1.0" encoding="iso-8859-1" standalone="no"?> 
<?xml-stylesheet href="verticalLineTest.css" type="text/css"?> 
<svg xmlns="http://www.w3.org/2000/svg" xmlns:xlink="http://www.w3.org/1999/xlink" width="207.12848pt" height="162.38321pt" viewBox="-11.94405 -20.83928 207.12848 162.38321 "> 
<g transform="translate(0, 141.54393 ) scale(1,-1) translate(0,20.83928 )"> 
    <g stroke="#000" fill="#000">
 <g stroke-width="0.4">
 <g stroke-width="0.2">
 <g stroke="#808080" fill="#808080">
 <path d=" M 0.0 53.57596 L 0.0 57.8437 M 37.1399 53.57596 L 37.1399 57.8437 M 55.70984 53.57596 L 55.70984 57.8437 M 74.27979 53.57596 L 74.27979 57.8437 M 92.84973 53.57596 L 92.84973 57.8437 M 111.41968 53.57596 L 111.41968 57.8437 M 129.98962 53.57596 L 129.98962 57.8437 M 148.55957 53.57596 L 148.55957 57.8437 M 167.12952 53.57596 L 167.12952 57.8437 M 185.69946 53.57596 L 185.69946 57.8437  " fill="none"/>
 </g>
 </g>
 <g stroke-width="0.2">
 <g stroke="#808080" fill="#808080">
 <path d=" M 16.43607 18.56995 L 20.70381 18.56995 M 16.43607 37.1399 L 20.70381 37.1399 M 16.43607 74.27979 L 20.70381 74.27979 M 16.43607 92.84973 L 20.70381 92.84973 M 16.43607 111.41968 L 20.70381 111.41968 M 16.43607 129.98962 L 20.70381 129.98962  " fill="none"/>
 </g>
 </g>
 <path d=" M 0.0 55.70984 L 192.98447 55.70984  " fill="none"/>
 <g transform="translate(192.98447,55.70984)">
 <path d=" M 1.99997 0.0 L -1.19998 1.59998 L 0.0 0.0 L -1.19998 -1.59998  " stroke="none"/>
  </g>
 <path d=" M 18.56995 -20.63928 L 18.56995 139.34396  " fill="none"/>
 <g transform="matrix(0.0,1.0,-1.0,0.0,18.56995,139.34396)">
 <path d=" M 1.99997 0.0 L -1.19998 1.59998 L 0.0 0.0 L -1.19998 -1.59998  " stroke="none"/>
  </g>
 <g transform="translate(-8.61107,43.59854)">
 <g fill="#000">
 <text style="stroke:none" transform="scale(1,-1) translate(8.61107,0)" text-anchor="middle"  font-size="10"> 
<g fill="#000">
 <g stroke="none">  − 1</g> </g>
 </text> 
</g>
 </g>
 <g transform="translate(34.6399,43.59856)">
 <g fill="#000">
 <text style="stroke:none" transform="scale(1,-1) translate(2.5,0)" text-anchor="middle"  font-size="10"> 
<g fill="#000">
 <g stroke="none"> 1 </g> </g>
 </text> 
</g>
 </g>
 <g transform="translate(53.20984,43.59856)">
 <g fill="#000">
 <text style="stroke:none" transform="scale(1,-1) translate(2.5,0)" text-anchor="middle"  font-size="10"> 
<g fill="#000">
 <g stroke="none"> 2 </g> </g>
 </text> 
</g>
 </g>
 <g transform="translate(71.77979,43.59856)">
 <g fill="#000">
 <text style="stroke:none" transform="scale(1,-1) translate(2.5,0)" text-anchor="middle"  font-size="10"> 
<g fill="#000">
 <g stroke="none"> 3 </g> </g>
 </text> 
</g>
 </g>
 <g transform="translate(90.34973,43.59856)">
 <g fill="#000">
 <text style="stroke:none" transform="scale(1,-1) translate(2.5,0)" text-anchor="middle"  font-size="10"> 
<g fill="#000">
 <g stroke="none"> 4 </g> </g>
 </text> 
</g>
 </g>
 <g transform="translate(108.91968,43.59856)">
 <g fill="#000">
 <text style="stroke:none" transform="scale(1,-1) translate(2.5,0)" text-anchor="middle"  font-size="10"> 
<g fill="#000">
 <g stroke="none"> 5 </g> </g>
 </text> 
</g>
 </g>
 <g transform="translate(127.48962,43.59856)">
 <g fill="#000">
 <text style="stroke:none" transform="scale(1,-1) translate(2.5,0)" text-anchor="middle"  font-size="10"> 
<g fill="#000">
 <g stroke="none"> 6 </g> </g>
 </text> 
</g>
 </g>
 <g transform="translate(146.05957,43.59856)">
 <g fill="#000">
 <text style="stroke:none" transform="scale(1,-1) translate(2.5,0)" text-anchor="middle"  font-size="10"> 
<g fill="#000">
 <g stroke="none"> 7 </g> </g>
 </text> 
</g>
 </g>
 <g transform="translate(164.62952,43.59856)">
 <g fill="#000">
 <text style="stroke:none" transform="scale(1,-1) translate(2.5,0)" text-anchor="middle"  font-size="10"> 
<g fill="#000">
 <g stroke="none"> 8 </g> </g>
 </text> 
</g>
 </g>
 <g transform="translate(183.19946,43.59856)">
 <g fill="#000">
 <text style="stroke:none" transform="scale(1,-1) translate(2.5,0)" text-anchor="middle"  font-size="10"> 
<g fill="#000">
 <g stroke="none"> 9 </g> </g>
 </text> 
</g>
 </g>
 <g transform="translate(-4.31905,15.76439)">
 <g fill="#000">
 <text style="stroke:none" transform="scale(1,-1) translate(8.61107,0)" text-anchor="middle"  font-size="10"> 
<g fill="#000">
 <g stroke="none">  − 2</g> </g>
 </text> 
</g>
 </g>
 <g transform="translate(-4.31905,34.33434)">
 <g fill="#000">
 <text style="stroke:none" transform="scale(1,-1) translate(8.61107,0)" text-anchor="middle"  font-size="10"> 
<g fill="#000">
 <g stroke="none">  − 1</g> </g>
 </text> 
</g>
 </g>
 <g transform="translate(7.90309,71.05757)">
 <g fill="#000">
 <text style="stroke:none" transform="scale(1,-1) translate(2.5,0)" text-anchor="middle"  font-size="10"> 
<g fill="#000">
 <g stroke="none"> 1 </g> </g>
 </text> 
</g>
 </g>
 <g transform="translate(7.90309,89.62752)">
 <g fill="#000">
 <text style="stroke:none" transform="scale(1,-1) translate(2.5,0)" text-anchor="middle"  font-size="10"> 
<g fill="#000">
 <g stroke="none"> 2 </g> </g>
 </text> 
</g>
 </g>
 <g transform="translate(7.90309,108.19746)">
 <g fill="#000">
 <text style="stroke:none" transform="scale(1,-1) translate(2.5,0)" text-anchor="middle"  font-size="10"> 
<g fill="#000">
 <g stroke="none"> 3 </g> </g>
 </text> 
</g>
 </g>
 <g transform="translate(7.90309,126.76741)">
 <g fill="#000">
 <text style="stroke:none" transform="scale(1,-1) translate(2.5,0)" text-anchor="middle"  font-size="10"> 
<g fill="#000">
 <g stroke="none"> 4 </g> </g>
 </text> 
</g>
 </g>
 <clipPath id="pgfcp6"><path d=" M 0.0 -20.63928 L 194.98444 -20.63928 L 194.98444 141.34393 L 0.0 141.34393 Z  "/> </clipPath>
 <g clip-path="url(#pgfcp6)">
 <path d=" M 18.56995 55.70984 L 18.81836 57.85689 L 19.06679 58.74657 L 19.31522 59.43031 L 19.56364 60.00598 L 19.81206 60.51295 L 20.06049 60.97182 L 20.30891 61.39336 L 20.55734 61.78555 L 20.80577 62.15305 L 21.05418 62.50235 L 21.30261 62.83475 L 21.55104 63.1508 L 21.79947 63.45535 L 22.04788 63.7469 L 22.29631 64.02917 L 22.54474 64.30214 L 22.79317 64.56769 L 23.04158 64.82414 L 23.29001 65.07298 L 23.53844 65.31644 L 23.78687 65.55412 L 24.0353 65.78625 L 24.2837 66.0128 L 24.53214 66.23398 L 24.78056 66.45125 L 25.02899 66.66295 L 25.2774 66.87111 L 25.52583 67.07724 L 25.77426 67.2778 L 26.02269 67.47668 L 26.27112 67.66962 L 26.51953 67.86127 L 26.76796 68.05049 L 27.01639 68.23637 L 27.26482 68.41837 L 27.51323 68.5985 L 27.76166 68.77676 L 28.01009 68.95335 L 28.25851 69.12605 L 28.50693 69.2969 L 28.75536 69.4659 L 29.00378 69.63135 L 29.25221 69.79662 L 29.50064 69.96004 L 29.74905 70.1216 L 29.99748 70.27943 L 30.24591 70.43747 L 30.49434 70.59328 L 30.74277 70.7474 L 30.99118 70.90005 L 31.23961 71.05046 L 31.48804 71.20088 L 31.73647 71.34944 L 31.98488 71.49614 L 32.2333 71.64099 L 32.48174 71.78398 L 32.73016 71.92882 L 32.97858 72.07014 L 33.227 72.20923 L 33.47543 72.35036 L 33.72386 72.48814 L 33.97229 72.62556 L 34.2207 72.76094 L 34.46913 72.89484 L 34.71756 73.02853 L 34.96599 73.16223 L 35.2144 73.2939 L 35.46283 73.42407 L 35.71126 73.55406 L 35.95969 73.68239 L 36.2081 73.81052 L 36.45653 73.93864 L 36.70496 74.06493 L 36.95338 74.18935 L 37.20181 74.31061 L 37.45023 74.43428 L 37.69865 74.55684 L 37.94708 74.67867 L 38.1955 74.79936 L 38.44392 74.92007 L 38.69234 75.03966 L 38.94077 75.15906 L 39.1892 75.27698 L 39.4376 75.39471 L 39.68604 75.51152 L 39.93446 75.6274 L 40.18288 75.74309 L 40.4313 75.85785 L 40.67973 75.97224 L 40.92815 76.08533 L 41.17657 76.19806 L 41.425 76.31114 L 41.67342 76.4222 L 41.92184 76.53305 L 42.17026 76.64374 L 42.41869 76.75366 L 42.66711 76.86285 L 42.91553 76.97168 L 43.16396 77.07994 L 43.41238 77.18764 L 43.6608 77.2946 L 43.90923 77.4012 L 44.15765 77.50668 L 44.40607 77.6129 L 44.6545 77.718 L 44.90292 77.82292 L 45.15134 77.92636 L 45.39977 78.02942 L 45.64818 78.13304 L 45.8966 78.23537 L 46.14503 78.33806 L 46.39345 78.43964 L 46.64188 78.54028 L 46.8903 78.64111 L 47.13872 78.74121 L 47.38715 78.84186 L 47.63557 78.94064 L 47.88399 79.04037 L 48.13242 79.13898 L 48.38084 79.23647 L 48.62926 79.33452 L 48.87769 79.43237 L 49.1261 79.52895 L 49.37453 79.62532 L 49.62296 79.7217 L 49.87137 79.81882 L 50.1198 79.9126 L 50.36823 80.0086 L 50.61664 80.1035 L 50.86507 80.19653 L 51.1135 80.29086 L 51.36191 80.38521 L 51.61034 80.47676 L 51.85876 80.57127 L 52.10718 80.66412 L 52.3556 80.75531 L 52.60402 80.8476 L 52.85245 80.93951 L 53.10088 81.0305 L 53.34929 81.12057 L 53.59772 81.21175 L 53.84615 81.30275 L 54.09456 81.39076 L 54.34299 81.48177 L 54.59142 81.57053 L 54.83983 81.65836 L 55.08826 81.74731 L 55.33669 81.83662 L 55.5851 81.92558 L 55.83353 82.01453 L 56.08194 82.1018 L 56.33037 82.18909 L 56.5788 82.27582 L 56.82721 82.36272 L 57.07564 82.44888 L 57.32407 82.53505 L 57.57248 82.62122 L 57.8209 82.70682 L 58.06934 82.79169 L 58.31775 82.87674 L 58.56618 82.96179 L 58.8146 83.0459 L 59.06302 83.1304 L 59.31145 83.21396 L 59.55986 83.29808 L 59.80829 83.38147 L 60.05672 83.46521 L 60.30513 83.54767 L 60.55356 83.6305 L 60.80199 83.71294 L 61.0504 83.79576 L 61.29883 83.87729 L 61.54726 83.95917 L 61.79567 84.04051 L 62.0441 84.12129 L 62.29253 84.20355 L 62.54094 84.2834 L 62.78937 84.36475 L 63.03778 84.4446 L 63.28621 84.52444 L 63.53464 84.60411 L 63.78305 84.68452 L 64.03148 84.76419 L 64.2799 84.84329 L 64.52832 84.92221 L 64.77675 85.00058 L 65.02518 85.08006 L 65.27359 85.15842 L 65.52202 85.23624 L 65.77045 85.31479 L 66.01886 85.3926 L 66.26729 85.46947 L 66.51572 85.5469 L 66.76413 85.62416 L 67.01256 85.70103 L 67.26097 85.77773 L 67.5094 85.85516 L 67.75783 85.93112 L 68.00624 86.0067 L 68.25467 86.08357 L 68.5031 86.15897 L 68.75151 86.2351 L 68.99994 86.3105 L 69.24837 86.3859 L 69.49678 86.46054 L 69.74521 86.5352 L 69.99364 86.6106 L 70.24205 86.68451 L 70.49048 86.75934 L 70.73889 86.8338 L 70.98732 86.90753 L 71.23575 86.98088 L 71.48416 87.05405 L 71.73259 87.12758 L 71.98102 87.20168 L 72.22943 87.2741 L 72.47786 87.34819 L 72.72629 87.42006 L 72.9747 87.4923 L 73.22313 87.5649 L 73.47156 87.63806 L 73.71997 87.71031 L 73.9684 87.78217 L 74.21681 87.85442 L 74.46524 87.9259 L 74.71367 87.99648 L 74.96208 88.0676 L 75.21051 88.1389 L 75.45894 88.21039 L 75.70735 88.28096 L 75.95578 88.35226 L 76.20421 88.4232 L 76.45262 88.49228 L 76.70105 88.56322 L 76.94948 88.63342 L 77.19789 88.70287 L 77.44632 88.77344 L 77.69473 88.84344 L 77.94316 88.91197 L 78.19159 88.98198 L 78.44 89.05106 L 78.68843 89.12013 L 78.93686 89.18903 L 79.18527 89.25903 L 79.4337 89.32645 L 79.68213 89.39441 L 79.93054 89.46257 L 80.17897 89.53128 L 80.4274 89.60054 L 80.67581 89.66814 L 80.92424 89.73685 L 81.17265 89.80426 L 81.42108 89.87018 L 81.66951 89.93832 L 81.91792 90.00537 L 82.16635 90.07277 L 82.41478 90.14 L 82.6632 90.20778 L 82.91162 90.27258 L 83.16005 90.33943 L 83.40846 90.40721 L 83.65689 90.47444 L 83.90532 90.54018 L 84.15373 90.60611 L 84.40216 90.67296 L 84.65057 90.73553 L 84.899 90.80183 L 85.14743 90.86905 L 85.39584 90.93423 L 85.64427 90.99979 L 85.8927 91.06552 L 86.14111 91.12941 L 86.38954 91.19328 L 86.63797 91.25958 L 86.88638 91.32439 L 87.13481 91.38846 L 87.38324 91.45476 L 87.63165 91.51974 L 87.88008 91.5812 L 88.1285 91.64603 L 88.37692 91.71065 L 88.62535 91.77415 L 88.87376 91.83896 L 89.1222 91.9034 L 89.37062 91.96617 L 89.61903 92.02818 L 89.86746 92.09337 L 90.11589 92.15688 L 90.3643 92.21872 L 90.61273 92.28241 L 90.86116 92.3463 L 91.10957 92.4072 L 91.358 92.46904 L 91.60641 92.53236 L 91.85484 92.59532 L 92.10327 92.65826 L 92.35168 92.7214 L 92.60011 92.78362 L 92.84854 92.84415  " fill="none"/>
 <path d=" M 92.84973 81.45316 L 93.16025 81.5306 L 93.47078 81.60748 L 93.78131 81.68417 L 94.09184 81.76086 L 94.40237 81.83719 L 94.7129 81.91258 L 95.02344 81.98853 L 95.33397 82.06355 L 95.6445 82.13802 L 95.95503 82.21323 L 96.26556 82.28732 L 96.5761 82.36197 L 96.88663 82.4357 L 97.19716 82.50848 L 97.50769 82.58185 L 97.81822 82.65483 L 98.12875 82.72743 L 98.43929 82.80003 L 98.74982 82.8719 L 99.06035 82.94359 L 99.37088 83.01526 L 99.68141 83.08676 L 99.99194 83.15733 L 100.30247 83.22807 L 100.613 83.29846 L 100.92354 83.36865 L 101.23407 83.43866 L 101.5446 83.5083 L 101.85513 83.57774 L 102.16566 83.64702 L 102.4762 83.71573 L 102.78673 83.78406 L 103.09726 83.85258 L 103.40779 83.92073 L 103.71832 83.98871 L 104.02885 84.0561 L 104.33939 84.12352 L 104.64992 84.19093 L 104.96045 84.25778 L 105.27098 84.32445 L 105.58151 84.39111 L 105.89204 84.45667 L 106.20258 84.52277 L 106.5131 84.58852 L 106.82364 84.65388 L 107.13417 84.71944 L 107.4447 84.78424 L 107.75523 84.84886 L 108.06577 84.91386 L 108.3763 84.97792 L 108.68683 85.04163 L 108.99736 85.10532 L 109.30789 85.16939 L 109.61842 85.2329 L 109.92896 85.29584 L 110.23949 85.35898 L 110.55002 85.42175 L 110.86055 85.48415 L 111.17108 85.5469 L 111.48161 85.60893 L 111.79214 85.67058 L 112.10268 85.73242 L 112.41321 85.79445 L 112.72374 85.85536 L 113.03427 85.91682 L 113.3448 85.97774 L 113.65533 86.03845 L 113.96587 86.0988 L 114.2764 86.15915 L 114.58693 86.21915 L 114.89746 86.27893 L 115.208 86.33928 L 115.51852 86.39835 L 115.82906 86.45776 L 116.13959 86.517 L 116.45012 86.57623 L 116.76065 86.63548 L 117.07118 86.6936 L 117.38171 86.75227 L 117.69225 86.81023 L 118.00278 86.86871 L 118.31331 86.92683 L 118.62384 86.98366 L 118.93437 87.0416 L 119.2449 87.09898 L 119.55544 87.15656 L 119.86597 87.213 L 120.1765 87.26982 L 120.48703 87.32628 L 120.79756 87.38274 L 121.1081 87.43956 L 121.41862 87.49545 L 121.72916 87.55153 L 122.03969 87.60799 L 122.35022 87.66313 L 122.66075 87.71793 L 122.97128 87.77362 L 123.28181 87.8286 L 123.59233 87.88394 L 123.90286 87.9389 L 124.2134 87.99275 L 124.52393 88.04773 L 124.83446 88.10231 L 125.14499 88.15672 L 125.45552 88.21002 L 125.76605 88.26387 L 126.07658 88.31773 L 126.38712 88.37158 L 126.69765 88.4245 L 127.00818 88.47725 L 127.31871 88.5311 L 127.62924 88.58421 L 127.93977 88.63713 L 128.2503 88.68857 L 128.56084 88.74132 L 128.87137 88.79405 L 129.1819 88.84642 L 129.49243 88.89952 L 129.80296 88.95023 L 130.1135 89.00203 L 130.42403 89.05403 L 130.73456 89.10583 L 131.04509 89.15709 L 131.35562 89.20778 L 131.66615 89.25941 L 131.97668 89.30956 L 132.28722 89.36136 L 132.59775 89.41093 L 132.90828 89.46164 L 133.21881 89.51233 L 133.52934 89.56247 L 133.83987 89.61317 L 134.1504 89.66164 L 134.46094 89.71214 L 134.77147 89.76228 L 135.082 89.81187 L 135.39253 89.86034 L 135.70306 89.90955 L 136.0136 89.9595 L 136.32413 90.0089 L 136.63466 90.0581 L 136.94519 90.10602 L 137.25572 90.15448 L 137.56625 90.2035 L 137.87679 90.25179 L 138.18732 90.29933 L 138.49785 90.34743 L 138.80838 90.39552 L 139.11891 90.44398 L 139.42944 90.49246 L 139.73997 90.53888 L 140.0505 90.58604 L 140.36104 90.63414 L 140.67157 90.68205 L 140.9821 90.7296 L 141.29263 90.77527 L 141.60316 90.82263 L 141.9137 90.86943 L 142.22423 90.91641 L 142.53476 90.96172 L 142.84529 91.00906 L 143.15582 91.05531 L 143.46635 91.10191 L 143.77689 91.14816 L 144.08742 91.19347 L 144.39795 91.23972 L 144.70848 91.28558 L 145.01901 91.33182 L 145.32954 91.37546 L 145.64008 91.42226 L 145.9506 91.4672 L 146.26114 91.51288 L 146.57167 91.55763 L 146.8822 91.60164 L 147.19273 91.6475 L 147.50327 91.69226 L 147.8138 91.73756 L 148.12433 91.7812 L 148.43486 91.82596 L 148.74539 91.87016 L 149.05592 91.91528 L 149.36646 91.9591 L 149.67699 92.002 L 149.98752 92.0462 L 150.29805 92.09059 L 150.60858 92.13515 L 150.91911 92.17676 L 151.22964 92.22038 L 151.54018 92.26402 L 151.85071 92.3086 L 152.16124 92.3513 L 152.47177 92.39346 L 152.7823 92.4371 L 153.09283 92.47943 L 153.40337 92.52289 L 153.7139 92.56616 L 154.02441 92.60683 L 154.33495 92.65028 L 154.64548 92.69374 L 154.95601 92.73607 L 155.26654 92.776 L 155.57707 92.8189 L 155.8876 92.86253 L 156.19814 92.9032 L 156.50867 92.94572 L 156.8192 92.98566 L 157.12973 93.028 L 157.44026 93.07053 L 157.7508 93.11267 L 158.06133 93.15204 L 158.37186 93.19363 L 158.68239 93.23561 L 158.99292 93.27757 L 159.30345 93.31769 L 159.61398 93.35724 L 159.92451 93.39883 L 160.23505 93.43988 L 160.54558 93.4811 L 160.85611 93.52048 L 161.16664 93.56096 L 161.47717 93.60124 L 161.7877 93.64304 L 162.09824 93.68333 L 162.40877 93.72066 L 162.7193 93.76189 L 163.02983 93.80328 L 163.34036 93.84285 L 163.6509 93.87999 L 163.96143 93.92195 L 164.27196 93.96095 L 164.58249 94.00105 L 164.89302 94.04192 L 165.20355 94.0772 L 165.51408 94.11806 L 165.82462 94.15834 L 166.13515 94.19827 L 166.44568 94.23839 L 166.75621 94.27403 L 167.06674 94.3136 L 167.37727 94.35556 L 167.6878 94.39436 L 167.99834 94.43282 L 168.30887 94.47162 L 168.6194 94.51025 L 168.92993 94.54813 L 169.24046 94.58638 L 169.551 94.62502 L 169.86153 94.6627 L 170.17206 94.70096 L 170.48259 94.73885 L 170.79312 94.7771 L 171.10365 94.81442 L 171.41418 94.8525 L 171.72472 94.88982 L 172.03525 94.92807 L 172.34578 94.96521 L 172.65631 95.00291 L 172.96684 95.04042 L 173.27737 95.07738 L 173.5879 95.11488 L 173.89844 95.15166 L 174.20897 95.1888 L 174.5195 95.22594 L 174.83003 95.26308 L 175.14056 95.29965 L 175.4511 95.33643 L 175.76163 95.37338 L 176.07216 95.40959 L 176.38269 95.44617 L 176.69322 95.48257 L 177.00375 95.51953 L 177.31429 95.55536 L 177.62482 95.59195 L 177.93535 95.62798 L 178.24588 95.66437 L 178.55641 95.70003 L 178.86694 95.73624 L 179.17747 95.77226 L 179.488 95.80829 L 179.79854 95.84393 L 180.10907 95.87996 L 180.4196 95.91562 L 180.73013 95.95053 L 181.04066 95.98637 L 181.3512 96.02147 L 181.66173 96.05731 L 181.97226 96.09277 L 182.28279 96.12788 L 182.59332 96.16335 L 182.90385 96.19844 L 183.21439 96.23354 L 183.52492 96.26845 L 183.83545 96.30318 L 184.14598 96.33809 L 184.45651 96.37262 L 184.76703 96.40753 L 185.07756 96.44208 L 185.38809 96.47717 L 185.24146 96.46097  " fill="none"/>
 <g transform="matrix(0.99388,0.10995,-0.10995,0.99388,185.24144,96.46097)">
 <g stroke-width="0.31999">
 <g stroke-dasharray="none" stroke-dashoffset="0.0">
 <g stroke-linecap="round">
 <g stroke-linejoin="round">
 <path d=" M -1.19998 1.59998 C -1.09998 0.99998 0.0 0.09999 0.29999 0.0 C 0.0 -0.09999 -1.09998 -0.99998 -1.19998 -1.59998  " fill="none"/>
 </g>
 </g>
 </g>
 </g>
  </g>
 <path d=" M 92.84973 92.84973  " fill="none"/>
 <g stroke="#fff" fill="#fff">
 <path d=" M 92.84973 81.45323  " fill="none"/>
 </g>
 <path d=" M 92.84973 81.45323  " fill="none"/>
 </g>
 <path d=" M 94.84973 92.84973 C 94.84973 93.95432 93.95432 94.84973 92.84973 94.84973 C 91.74515 94.84973 90.84973 93.95432 90.84973 92.84973 C 90.84973 91.74515 91.74515 90.84973 92.84973 90.84973 C 93.95432 90.84973 94.84973 91.74515 94.84973 92.84973 Z M 92.84973 92.84973  " />
 <path d="  " fill="none"/>
 <g stroke="#fff" fill="#fff">
 <g stroke="#fff" fill="#fff">
 <path d=" M 94.84973 81.45323 C 94.84973 82.55782 93.95432 83.45323 92.84973 83.45323 C 91.74515 83.45323 90.84973 82.55782 90.84973 81.45323 C 90.84973 80.34865 91.74515 79.45323 92.84973 79.45323 C 93.95432 79.45323 94.84973 80.34865 94.84973 81.45323 Z M 92.84973 81.45323  " />
 <path d="  " fill="none"/>
 </g>
 </g>
 <path d=" M 94.84973 81.45323 C 94.84973 82.55782 93.95432 83.45323 92.84973 83.45323 C 91.74515 83.45323 90.84973 82.55782 90.84973 81.45323 C 90.84973 80.34865 91.74515 79.45323 92.84973 79.45323 C 93.95432 79.45323 94.84973 80.34865 94.84973 81.45323 Z M 92.84973 81.45323  " fill="none"/>
 <path d="  " fill="none"/>
 <g transform="translate(185.7768,59.25418)">
 <g fill="#000">
 <text style="stroke:none" transform="scale(1,-1) translate(2.85764,0)" text-anchor="middle"  font-size="10"> 
<g fill="#000">
 <g stroke="none"> x </g> </g>
 </text> 
</g>
 </g>
 <g transform="translate(22.10677,133.52995)">
 <g fill="#000">
 <text style="stroke:none" transform="scale(1,-1) translate(2.6308,0)" text-anchor="middle"  font-size="10"> 
<g fill="#000">
 <g stroke="none"> y </g> </g>
 </text> 
</g>
 </g>
 </g>
 </g>
 
                                                     </g> 
</svg> 
