<?xml version="1.0" encoding="UTF-8" standalone="no"?>
<!DOCTYPE svg PUBLIC "-//W3C//DTD SVG 1.1//EN" "http://www.w3.org/Graphics/SVG/1.1/DTD/svg11.dtd">
<svg xmlns="http://www.w3.org/2000/svg" xmlns:xlink="http://www.w3.org/1999/xlink" version="1.1" width="204.141pt" height="161.777pt" viewBox="0 0 204.141 161.777">
<path transform="matrix(1,0,0,-1,9.686,141.01599)" stroke-width="1" stroke-linecap="butt" stroke-miterlimit="10" stroke-linejoin="miter" fill="none" stroke="#808080" d="M 0 53.37648 L 0 57.62834 M 37.0016 53.37648 L 37.0016 57.62834 M 55.50241 53.37648 L 55.50241 57.62834 M 74.00322 53.37648 L 74.00322 57.62834 M 92.50403 53.37648 L 92.50403 57.62834 M 111.00484 53.37648 L 111.00484 57.62834 M 129.50565 53.37648 L 129.50565 57.62834 M 148.00646 53.37648 L 148.00646 57.62834 M 166.50727 53.37648 L 166.50727 57.62834 M 185.00807 53.37648 L 185.00807 57.62834 "/>
<path transform="matrix(1,0,0,-1,9.686,141.01599)" stroke-width="1" stroke-linecap="butt" stroke-miterlimit="10" stroke-linejoin="miter" fill="none" stroke="#808080" d="M 16.37486 18.5008 L 20.62672 18.5008 M 16.37486 37.0016 L 20.62672 37.0016 M 16.37486 74.00322 L 20.62672 74.00322 M 16.37486 92.50403 L 20.62672 92.50403 M 16.37486 111.00484 L 20.62672 111.00484 M 16.37486 129.50565 L 20.62672 129.50565 "/>
<path transform="matrix(1,0,0,-1,9.686,141.01599)" stroke-width="1" stroke-linecap="butt" stroke-miterlimit="10" stroke-linejoin="miter" fill="none" stroke="#000000" d="M 0 55.50241 L 192.26595 55.50241 "/>
<path transform="matrix(1,0,0,-1,201.95195,85.51358)" d="M 1.99252 0 L -1.19551 1.59401 L 0 0 L -1.19551 -1.59401 "/>
<path transform="matrix(1,0,0,-1,9.686,141.01599)" stroke-width="1" stroke-linecap="butt" stroke-miterlimit="10" stroke-linejoin="miter" fill="none" stroke="#000000" d="M 18.5008 -20.56244 L 18.5008 138.82517 "/>
<path transform="matrix(0,-1,-1,-0,28.186799,2.1908265)" d="M 1.99252 0 L -1.19551 1.59401 L 0 0 L -1.19551 -1.59401 "/>
<symbol id="font_0_1">
<path d="M .57600006 0 C .59300008 0 .611 0 .611 .019999996 C .611 .040000008 .59300008 .040000008 .57600006 .040000008 L .035000005 .040000008 C .018 .040000008 0 .040000008 0 .019999996 C 0 0 .018 0 .035000005 0 L .57600006 0 Z "/>
</symbol>
<use xlink:href="#font_0_1" transform="matrix(9.9626,0,0,-9.9626,4.147896,95.28858)"/>
<symbol id="font_1_1">
<path d="M .205 .64000007 C .205 .66400006 .205 .666 .18200003 .666 C .120000008 .60200008 .032000007 .60200008 0 .60200008 L 0 .57100006 C .020000004 .57100006 .07900001 .57100006 .13100001 .597 L .13100001 .079 C .13100001 .043 .128 .031000002 .038000004 .031000002 L .0060000049 .031000002 L .0060000049 0 C .04100001 .003 .128 .003 .168 .003 C .20800002 .003 .29500003 .003 .33000005 0 L .33000005 .031000002 L .29800005 .031000002 C .20800002 .031000002 .205 .042000005 .205 .079 L .205 .64000007 Z "/>
</symbol>
<use xlink:href="#font_1_1" transform="matrix(9.9626,0,0,-9.9626,11.955671,97.57998)"/>
<use xlink:href="#font_1_1" transform="matrix(9.9626,0,0,-9.9626,45.082674,97.57998)"/>
<symbol id="font_1_2">
<path d="M .07700001 .07700001 L .18300002 .18 C .33900003 .31800003 .39900003 .372 .39900003 .47200004 C .39900003 .586 .30900003 .666 .18700002 .666 C .074 .666 0 .574 0 .485 C 0 .42900003 .05 .42900003 .053000008 .42900003 C .07000001 .42900003 .105000007 .441 .105000007 .48200003 C .105000007 .508 .08700001 .53400006 .052000006 .53400006 C .044000005 .53400006 .042000008 .53400006 .039 .53300008 C .062000004 .59800007 .11600001 .63500007 .17400001 .63500007 C .26500003 .63500007 .308 .554 .308 .47200004 C .308 .39200003 .25800003 .31300003 .20300003 .25100003 L .011000004 .037 C 0 .026 0 .024 0 0 L .37100003 0 L .39900003 .17400001 L .374 .17400001 C .36900003 .14400001 .36200003 .1 .352 .085 C .345 .07700001 .279 .07700001 .257 .07700001 L .07700001 .07700001 Z "/>
</symbol>
<use xlink:href="#font_1_2" transform="matrix(9.9626,0,0,-9.9626,63.195135,97.57998)"/>
<symbol id="font_1_3">
<path d="M .24800003 .37400005 C .33 .40100003 .388 .47100006 .388 .55 C .388 .632 .3 .688 .204 .688 C .10300001 .688 .027000003 .628 .027000003 .55200007 C .027000003 .519 .049000004 .5 .078 .5 C .109000008 .5 .12900001 .522 .12900001 .55100008 C .12900001 .6010001 .082 .6010001 .067 .6010001 C .098 .65000006 .164 .66300007 .20000002 .66300007 C .24100003 .66300007 .29600004 .64100006 .29600004 .55100008 C .29600004 .53900006 .29400004 .48100005 .268 .43700005 C .238 .38900004 .204 .38600005 .17900002 .38500003 C .171 .38400004 .14700002 .38200004 .14000002 .38200004 C .132 .38100005 .125 .38000003 .125 .37000004 C .125 .35900004 .132 .35900004 .14900002 .35900004 L .19300002 .35900004 C .275 .35900004 .312 .29100005 .312 .193 C .312 .057000005 .24300003 .028 .199 .028 C .15600002 .028 .081 .045 .046000005 .104 C .081 .09900001 .11200001 .12100001 .11200001 .15900001 C .11200001 .19500001 .085 .215 .056 .215 C .031999999 .215 0 .201 0 .157 C 0 .06600001 .093 0 .20200002 0 C .32400004 0 .41500003 .091000009 .41500003 .193 C .41500003 .27500005 .35200004 .35300005 .24800003 .37400005 Z "/>
</symbol>
<use xlink:href="#font_1_3" transform="matrix(9.9626,0,0,-9.9626,81.615428,97.79916)"/>
<symbol id="font_1_4">
<path d="M .266 .165 L .266 .078 C .266 .042000005 .26400004 .031000002 .19000001 .031000002 L .16900002 .031000002 L .16900002 0 C .21000001 .003 .26200003 .003 .30400003 .003 C .34600003 .003 .39900003 .003 .44000004 0 L .44000004 .031000002 L .41900004 .031000002 C .34500004 .031000002 .34300003 .042000005 .34300003 .078 L .34300003 .165 L .44300003 .165 L .44300003 .19600001 L .34300003 .19600001 L .34300003 .651 C .34300003 .671 .34300003 .67700007 .32700003 .67700007 C .31800003 .67700007 .31500004 .67700007 .307 .665 L 0 .19600001 L 0 .165 L .266 .165 M .272 .19600001 L .028 .19600001 L .272 .569 L .272 .19600001 Z "/>
</symbol>
<use xlink:href="#font_1_4" transform="matrix(9.9626,0,0,-9.9626,99.97695,97.57998)"/>
<symbol id="font_1_5">
<path d="M .39900003 .223 C .39900003 .34200005 .317 .44200004 .209 .44200004 C .16100002 .44200004 .118000019 .42600004 .082 .39100004 L .082 .586 C .10200001 .58000007 .135 .573 .16700001 .573 C .29 .573 .36 .66400006 .36 .67700007 C .36 .683 .357 .688 .35 .688 C .349 .688 .347 .688 .342 .68500009 C .322 .67600008 .273 .656 .20600002 .656 C .16600001 .656 .120000008 .66300007 .073 .6840001 C .065 .68700006 .06300001 .68700006 .061000009 .68700006 C .051000004 .68700006 .051000004 .679 .051000004 .66300007 L .051000004 .36700005 C .051000004 .34900005 .051000004 .34100003 .065 .34100003 C .07200001 .34100003 .074 .34400005 .07800001 .35000003 C .08900002 .36600004 .12600002 .42000006 .207 .42000006 C .259 .42000006 .284 .37400005 .292 .35600005 C .308 .31900005 .31 .28000004 .31 .23 C .31 .19500001 .31 .135 .286 .093 C .262 .054000006 .22500001 .028 .17900002 .028 C .106000009 .028 .049000008 .08100001 .032 .14000002 C .035 .13900002 .038000008 .13800001 .049000008 .13800001 C .082 .13800001 .09900001 .163 .09900001 .187 C .09900001 .21100001 .082 .23600002 .049000008 .23600002 C .035 .23600002 0 .22900002 0 .18300002 C 0 .097 .069000009 0 .18100001 0 C .297 0 .39900003 .096 .39900003 .223 Z "/>
</symbol>
<use xlink:href="#font_1_5" transform="matrix(9.9626,0,0,-9.9626,118.69613,97.79916)"/>
<symbol id="font_1_6">
<path d="M .089999999 .35000003 L .089999999 .37400005 C .089999999 .62700006 .21400002 .66300007 .26500003 .66300007 C .28900004 .66300007 .33100004 .65700009 .35300002 .623 C .33800004 .623 .298 .623 .298 .57800009 C .298 .54700008 .32200004 .53200009 .344 .53200009 C .36 .53200009 .39000003 .54100009 .39000003 .58000007 C .39000003 .64000007 .34600003 .688 .263 .688 C .13499999 .688 0 .559 0 .33800004 C 0 .071 .116000007 0 .20900002 0 C .32000003 0 .41500003 .094000007 .41500003 .22600001 C .41500003 .35300005 .32600004 .44900004 .215 .44900004 C .14700002 .44900004 .11000001 .39800004 .089999999 .35000003 M .20900002 .028 C .146 .028 .116000007 .088 .11000001 .103 C .092 .15 .092 .23 .092 .24800001 C .092 .32600004 .124000009 .42600004 .21400002 .42600004 C .23000002 .42600004 .27600003 .42600004 .307 .36400003 C .32500003 .32700003 .32500003 .27600003 .32500003 .22700002 C .32500003 .179 .32500003 .12900001 .30800004 .093 C .27800004 .033000005 .23200003 .028 .20900002 .028 Z "/>
</symbol>
<use xlink:href="#font_1_6" transform="matrix(9.9626,0,0,-9.9626,137.11743,97.79916)"/>
<symbol id="font_1_7">
<path d="M .42000003 .63100007 C .42900003 .64300009 .42900003 .64500007 .42900003 .66600009 L .18600002 .66600009 C .064 .66600009 .062000008 .679 .058000007 .6980001 L .033 .6980001 L 0 .49200005 L .024999999 .49200005 C .028000005 .508 .037 .57100006 .050000006 .58300009 C .057000005 .58900007 .13500002 .58900007 .148 .58900007 L .35500003 .58900007 C .344 .573 .26500003 .46400006 .24300003 .43100003 C .153 .29600004 .12000001 .157 .12000001 .055 C .12000001 .045 .12000001 0 .16600001 0 C .21200001 0 .21200001 .045 .21200001 .055 L .21200001 .106000009 C .21200001 .16100002 .21500004 .216 .22300002 .27 C .22700003 .29300005 .24100003 .37900005 .28500004 .44100005 L .42000003 .63100007 Z "/>
</symbol>
<use xlink:href="#font_1_7" transform="matrix(9.9626,0,0,-9.9626,155.75691,97.79916)"/>
<symbol id="font_1_8">
<path d="M .121 .47900004 C .075 .509 .071 .54300007 .071 .56000009 C .071 .62100008 .136 .66300007 .20700002 .66300007 C .28000004 .66300007 .344 .61100009 .344 .53900006 C .344 .48200003 .305 .43400005 .245 .39900003 L .121 .47900004 M .26700003 .38400004 C .33900003 .42100004 .388 .47300006 .388 .53900006 C .388 .63100007 .29900003 .688 .208 .688 C .108 .688 .027000003 .614 .027000003 .521 C .027000003 .503 .029 .45800004 .071 .41100005 C .082 .39900003 .11900001 .37400005 .144 .35700003 C .086 .32800005 0 .272 0 .17300001 C 0 .067 .102000009 0 .20700002 0 C .32000003 0 .41500003 .083000008 .41500003 .19000001 C .41500003 .22600001 .404 .27100004 .36600004 .31300003 C .34700004 .33400003 .33100004 .34400005 .26700003 .38400004 M .167 .34200005 L .29000003 .26400004 C .31800003 .245 .365 .215 .365 .154 C .365 .080000009 .29000003 .028 .208 .028 C .122 .028 .050000006 .09 .050000006 .17300001 C .050000006 .231 .082 .29500003 .167 .34200005 Z "/>
</symbol>
<use xlink:href="#font_1_8" transform="matrix(9.9626,0,0,-9.9626,174.11844,97.79916)"/>
<symbol id="font_1_9">
<path d="M .32500003 .34000004 L .32500003 .30800004 C .32500003 .074 .22100002 .028 .16300002 .028 C .146 .028 .092 .030000002 .065000008 .064 C .109000008 .064 .117000009 .093 .117000009 .11000001 C .117000009 .141 .093 .156 .071 .156 C .055 .156 .024999999 .147 .024999999 .108 C .024999999 .041 .079 0 .164 0 C .293 0 .41500003 .136 .41500003 .35100005 C .41500003 .62000009 .3 .688 .21100003 .688 C .15600002 .688 .107 .67 .064 .62500008 C .023000002 .58000007 0 .53800007 0 .46300004 C 0 .33800004 .08800001 .24000001 .20000002 .24000001 C .261 .24000001 .30200003 .28200004 .32500003 .34000004 M .201 .263 C .185 .263 .139 .263 .108 .32600004 C .089999999 .36300005 .089999999 .41300006 .089999999 .46200005 C .089999999 .51600006 .089999999 .563 .11100001 .6 C .13800001 .65000006 .176 .66300007 .21100003 .66300007 C .25700004 .66300007 .29000003 .62900009 .307 .58400008 C .31900005 .55200007 .323 .48900003 .323 .44300006 C .323 .36000005 .28900004 .263 .201 .263 Z "/>
</symbol>
<use xlink:href="#font_1_9" transform="matrix(9.9626,0,0,-9.9626,192.61943,97.79916)"/>
<use xlink:href="#font_0_1" transform="matrix(9.9626,0,0,-9.9626,10.636895,123.0186)"/>
<use xlink:href="#font_1_2" transform="matrix(9.9626,0,0,-9.9626,18.057129,125.31)"/>
<use xlink:href="#font_0_1" transform="matrix(9.9626,0,0,-9.9626,10.636895,104.5186)"/>
<use xlink:href="#font_1_1" transform="matrix(9.9626,0,0,-9.9626,18.44567,106.81)"/>
<use xlink:href="#font_1_1" transform="matrix(9.9626,0,0,-9.9626,18.445672,70.22399)"/>
<use xlink:href="#font_1_2" transform="matrix(9.9626,0,0,-9.9626,18.05713,51.722993)"/>
<use xlink:href="#font_1_3" transform="matrix(9.9626,0,0,-9.9626,17.977429,33.441164)"/>
<use xlink:href="#font_1_4" transform="matrix(9.9626,0,0,-9.9626,17.837954,14.721985)"/>
<clipPath id="cp2">
<path transform="matrix(1,0,0,-1,9.686,141.01599)" d="M 0 -20.56244 L 194.25847 -20.56244 L 194.25847 140.81769 L 0 140.81769 Z "/>
</clipPath>
<g clip-path="url(#cp2)">
<path transform="matrix(1,0,0,-1,9.686,141.01599)" stroke-width="1" stroke-linecap="butt" stroke-miterlimit="10" stroke-linejoin="miter" fill="none" stroke="#000000" d="M 18.5008 55.50241 L 18.74829 57.64146 L 18.99579 58.52783 L 19.2433 59.20905 L 19.4908 59.78256 L 19.73828 60.28764 L 19.9858 60.7448 L 20.23329 61.16478 L 20.4808 61.55551 L 20.7283 61.92163 L 20.97578 62.26964 L 21.2233 62.6008 L 21.4708 62.91568 L 21.71829 63.21909 L 21.96579 63.50955 L 22.21329 63.79077 L 22.4608 64.06273 L 22.7083 64.32729 L 22.95578 64.58278 L 23.2033 64.8307 L 23.45079 65.07324 L 23.6983 65.31004 L 23.9458 65.54132 L 24.19328 65.76701 L 24.4408 65.98737 L 24.6883 66.20383 L 24.93579 66.41475 L 25.18329 66.62213 L 25.43079 66.8275 L 25.6783 67.02731 L 25.9258 67.22545 L 26.1733 67.41766 L 26.42079 67.6086 L 26.66829 67.79712 L 26.9158 67.98232 L 27.1633 68.16362 L 27.41078 68.34308 L 27.6583 68.52069 L 27.90579 68.69662 L 28.15329 68.86868 L 28.40079 69.0389 L 28.64828 69.20726 L 28.8958 69.37209 L 29.1433 69.53674 L 29.3908 69.69955 L 29.63829 69.86052 L 29.88579 70.01776 L 30.13329 70.17522 L 30.3808 70.33044 L 30.6283 70.484 L 30.8758 70.63608 L 31.12329 70.78592 L 31.37079 70.93578 L 31.6183 71.08379 L 31.86578 71.22993 L 32.1133 71.37425 L 32.3608 71.51671 L 32.60829 71.66101 L 32.85579 71.8018 L 33.10329 71.94037 L 33.35078 72.08098 L 33.5983 72.21825 L 33.8458 72.35516 L 34.09329 72.49004 L 34.34079 72.62343 L 34.58829 72.75664 L 34.8358 72.88983 L 35.08328 73.02101 L 35.3308 73.1507 L 35.5783 73.2802 L 35.82579 73.40805 L 36.07329 73.5357 L 36.32079 73.66335 L 36.56828 73.78917 L 36.8158 73.91312 L 37.0633 74.03394 L 37.31079 74.15715 L 37.55829 74.27925 L 37.80579 74.40062 L 38.05328 74.52086 L 38.30078 74.64113 L 38.54828 74.76027 L 38.79578 74.87923 L 39.04327 74.9967 L 39.29077 75.114 L 39.53827 75.23038 L 39.78577 75.34581 L 40.03326 75.46107 L 40.28076 75.57541 L 40.52827 75.68938 L 40.77576 75.80205 L 41.02325 75.91435 L 41.27077 76.02702 L 41.51825 76.13765 L 41.76576 76.2481 L 42.01324 76.35837 L 42.26074 76.4679 L 42.50826 76.57668 L 42.75574 76.68509 L 43.00323 76.79295 L 43.25075 76.90025 L 43.49823 77.00682 L 43.74574 77.11302 L 43.99324 77.21811 L 44.24072 77.32393 L 44.48824 77.42863 L 44.73573 77.53317 L 44.98323 77.63622 L 45.23073 77.73889 L 45.47821 77.84213 L 45.72572 77.94408 L 45.97322 78.04639 L 46.2207 78.14758 L 46.46822 78.24786 L 46.71571 78.34831 L 46.96321 78.44804 L 47.21071 78.54831 L 47.4582 78.64673 L 47.7057 78.7461 L 47.9532 78.84433 L 48.20071 78.94145 L 48.4482 79.03914 L 48.6957 79.13663 L 48.94319 79.23283 L 49.19069 79.32886 L 49.43819 79.42487 L 49.68568 79.52164 L 49.93318 79.61507 L 50.1807 79.71071 L 50.42818 79.80525 L 50.67567 79.89795 L 50.92319 79.99193 L 51.17067 80.08592 L 51.41818 80.17712 L 51.66568 80.27129 L 51.91316 80.36378 L 52.16068 80.45464 L 52.40816 80.54659 L 52.65567 80.63815 L 52.90317 80.7288 L 53.15065 80.81854 L 53.39816 80.90938 L 53.64566 81.00005 L 53.89314 81.08772 L 54.14066 81.17839 L 54.38815 81.26682 L 54.63565 81.35432 L 54.88315 81.44295 L 55.13065 81.53192 L 55.37814 81.62056 L 55.62564 81.70917 L 55.87314 81.79613 L 56.12064 81.88307 L 56.36813 81.96948 L 56.61563 82.05606 L 56.86313 82.1419 L 57.11063 82.22775 L 57.35812 82.3136 L 57.60562 82.39888 L 57.85313 82.48343 L 58.10062 82.56818 L 58.34811 82.65291 L 58.59563 82.7367 L 58.84311 82.82089 L 59.09062 82.90413 L 59.3381 82.98795 L 59.5856 83.07101 L 59.83311 83.15445 L 60.0806 83.2366 L 60.3281 83.31912 L 60.5756 83.40126 L 60.82309 83.48376 L 61.0706 83.56499 L 61.3181 83.64656 L 61.56558 83.72762 L 61.8131 83.80809 L 62.0606 83.89005 L 62.30809 83.96959 L 62.55559 84.05064 L 62.80307 84.13019 L 63.05058 84.20975 L 63.29808 84.28911 L 63.54556 84.36922 L 63.79308 84.4486 L 64.04057 84.5274 L 64.28807 84.60602 L 64.53557 84.6841 L 64.78307 84.76329 L 65.03056 84.84135 L 65.27806 84.91888 L 65.52557 84.99715 L 65.77306 85.07466 L 66.02055 85.15125 L 66.26807 85.2284 L 66.51555 85.30536 L 66.76305 85.38194 L 67.01054 85.45836 L 67.25804 85.5355 L 67.50555 85.61118 L 67.75304 85.68648 L 68.00053 85.76306 L 68.24805 85.83818 L 68.49553 85.91403 L 68.74304 85.98915 L 68.99054 86.06425 L 69.23802 86.13863 L 69.48553 86.21301 L 69.73303 86.28813 L 69.98051 86.36176 L 70.22803 86.43631 L 70.47551 86.5105 L 70.72302 86.58395 L 70.97052 86.65703 L 71.218 86.72992 L 71.46552 86.80318 L 71.71301 86.877 L 71.96051 86.94916 L 72.20801 87.02298 L 72.4555 87.09457 L 72.703 87.16653 L 72.9505 87.23888 L 73.198 87.31177 L 73.4455 87.38374 L 73.693 87.45534 L 73.94049 87.52731 L 74.18799 87.59854 L 74.43549 87.66884 L 74.68298 87.7397 L 74.93048 87.81075 L 75.178 87.88196 L 75.42548 87.95227 L 75.67297 88.02332 L 75.92049 88.09398 L 76.16797 88.1628 L 76.41547 88.23347 L 76.66298 88.30342 L 76.91046 88.3726 L 77.15797 88.44292 L 77.40546 88.51266 L 77.65295 88.58093 L 77.90047 88.65068 L 78.14795 88.7195 L 78.39546 88.78831 L 78.64296 88.85695 L 78.89044 88.9267 L 79.13795 88.99387 L 79.38545 89.06157 L 79.63293 89.12949 L 79.88045 89.19794 L 80.12794 89.26694 L 80.37544 89.33427 L 80.62294 89.40274 L 80.87042 89.4699 L 81.11794 89.53557 L 81.36543 89.60347 L 81.61293 89.67026 L 81.86043 89.73741 L 82.10793 89.80438 L 82.35542 89.87192 L 82.60292 89.93648 L 82.85042 90.00308 L 83.09792 90.0706 L 83.34541 90.13759 L 83.59293 90.20308 L 83.84041 90.26877 L 84.0879 90.33536 L 84.3354 90.3977 L 84.5829 90.46376 L 84.83041 90.53072 L 85.0779 90.59567 L 85.3254 90.66098 L 85.5729 90.72647 L 85.82039 90.79012 L 86.06789 90.85374 L 86.3154 90.9198 L 86.56288 90.98436 L 86.8104 91.0482 L 87.05789 91.11426 L 87.30537 91.179 L 87.55289 91.24023 L 87.80037 91.30481 L 88.04788 91.36919 L 88.29538 91.43246 L 88.54286 91.49702 L 88.79037 91.56122 L 89.03787 91.62376 L 89.28535 91.68555 L 89.53287 91.75049 L 89.78036 91.81375 L 90.02786 91.87537 L 90.27536 91.93883 L 90.52286 92.00247 L 90.77036 92.06314 L 91.01785 92.12476 L 91.26535 92.18785 L 91.51285 92.25056 L 91.76035 92.31328 L 92.00784 92.37617 L 92.25534 92.43816 L 92.50284 92.49847 "/>
<path transform="matrix(1,0,0,-1,9.686,141.01599)" stroke-width="1" stroke-linecap="butt" stroke-miterlimit="10" stroke-linejoin="miter" fill="none" stroke="#000000" d="M 92.50403 81.14989 L 92.81339 81.22704 L 93.12277 81.30363 L 93.43214 81.38005 L 93.74152 81.45645 L 94.05089 81.53249 L 94.36028 81.6076 L 94.66965 81.68326 L 94.97902 81.75801 L 95.28839 81.8322 L 95.59776 81.90712 L 95.90715 81.98094 L 96.21652 82.05531 L 96.5259 82.12877 L 96.83527 82.20128 L 97.14465 82.27438 L 97.45403 82.34709 L 97.7634 82.41942 L 98.07277 82.49174 L 98.38216 82.56335 L 98.69153 82.63477 L 99.0009 82.70618 L 99.31027 82.7774 L 99.61964 82.84772 L 99.92903 82.9182 L 100.2384 82.98833 L 100.54778 83.05826 L 100.85715 83.12799 L 101.16653 83.19737 L 101.4759 83.26657 L 101.78528 83.33559 L 102.09465 83.40404 L 102.40404 83.4721 L 102.71341 83.54037 L 103.02278 83.60828 L 103.33215 83.676 L 103.64153 83.74315 L 103.95091 83.8103 L 104.26028 83.87747 L 104.56966 83.94408 L 104.87903 84.01048 L 105.18842 84.0769 L 105.49779 84.14221 L 105.80716 84.20807 L 106.11653 84.27357 L 106.42592 84.3387 L 106.73529 84.404 L 107.04466 84.46857 L 107.35403 84.53294 L 107.6634 84.59772 L 107.9728 84.66153 L 108.28217 84.72499 L 108.59154 84.78845 L 108.90091 84.85228 L 109.2103 84.91556 L 109.51967 84.97826 L 109.82904 85.04117 L 110.13841 85.10371 L 110.4478 85.16586 L 110.75717 85.2284 L 111.06654 85.29019 L 111.37592 85.35161 L 111.68529 85.41322 L 111.99467 85.47502 L 112.30405 85.5357 L 112.61342 85.59694 L 112.92279 85.65762 L 113.23218 85.71811 L 113.54155 85.77823 L 113.85092 85.83836 L 114.1603 85.89813 L 114.46968 85.95769 L 114.77905 86.01782 L 115.08842 86.07666 L 115.3978 86.13586 L 115.70717 86.19487 L 116.01656 86.25389 L 116.32593 86.31291 L 116.6353 86.37082 L 116.94467 86.42928 L 117.25406 86.48701 L 117.56343 86.54529 L 117.8728 86.60318 L 118.18217 86.65979 L 118.49156 86.71751 L 118.80093 86.77469 L 119.1103 86.83205 L 119.41968 86.88829 L 119.72905 86.9449 L 120.03844 87.00114 L 120.34781 87.05739 L 120.65718 87.114 L 120.96655 87.1697 L 121.27594 87.22556 L 121.58531 87.2818 L 121.89468 87.33675 L 122.20406 87.39133 L 122.51344 87.44682 L 122.82281 87.50159 L 123.13217 87.55673 L 123.44154 87.61148 L 123.75092 87.66513 L 124.0603 87.71991 L 124.36967 87.77429 L 124.67905 87.82849 L 124.98842 87.88159 L 125.2978 87.93524 L 125.60718 87.9889 L 125.91655 88.04256 L 126.22592 88.09528 L 126.53531 88.14783 L 126.84468 88.20148 L 127.15405 88.2544 L 127.46342 88.30711 L 127.7728 88.35835 L 128.08219 88.41092 L 128.39156 88.46346 L 128.70093 88.51563 L 129.0103 88.56853 L 129.31969 88.61905 L 129.62906 88.67065 L 129.93843 88.72246 L 130.2478 88.77408 L 130.55718 88.82513 L 130.86656 88.87564 L 131.17594 88.92708 L 131.4853 88.97704 L 131.79468 89.02864 L 132.10407 89.07803 L 132.41344 89.12856 L 132.72281 89.17905 L 133.03218 89.229 L 133.34157 89.27953 L 133.65094 89.3278 L 133.96031 89.37813 L 134.26969 89.42809 L 134.57906 89.47748 L 134.88845 89.52577 L 135.19782 89.5748 L 135.50719 89.62456 L 135.81656 89.67377 L 136.12595 89.7228 L 136.43532 89.77054 L 136.74469 89.81882 L 137.05406 89.86766 L 137.36345 89.91576 L 137.67282 89.96312 L 137.9822 90.01105 L 138.29157 90.05896 L 138.60094 90.10724 L 138.91033 90.15553 L 139.2197 90.20178 L 139.52907 90.24878 L 139.83844 90.29669 L 140.14783 90.34442 L 140.4572 90.39178 L 140.76657 90.43729 L 141.07595 90.48448 L 141.38533 90.5311 L 141.6947 90.57791 L 142.00408 90.62305 L 142.31345 90.67021 L 142.62282 90.7163 L 142.9322 90.76273 L 143.24158 90.80879 L 143.55095 90.85393 L 143.86032 90.90001 L 144.16971 90.94571 L 144.47908 90.99178 L 144.78845 91.03525 L 145.09783 91.08186 L 145.40721 91.12665 L 145.71659 91.17215 L 146.02596 91.21674 L 146.33533 91.26059 L 146.6447 91.30629 L 146.95409 91.35088 L 147.26346 91.39601 L 147.57283 91.43948 L 147.8822 91.48407 L 148.19159 91.5281 L 148.50096 91.57306 L 148.81034 91.61671 L 149.1197 91.65945 L 149.4291 91.70349 L 149.73847 91.74771 L 150.04784 91.79211 L 150.35721 91.83356 L 150.66658 91.87703 L 150.97597 91.9205 L 151.28534 91.9649 L 151.59471 92.00746 L 151.90409 92.04945 L 152.21347 92.09294 L 152.52285 92.13512 L 152.83222 92.1784 L 153.14159 92.22151 L 153.45096 92.26202 L 153.76033 92.30533 L 154.0697 92.34862 L 154.37908 92.3908 L 154.68845 92.43057 L 154.99784 92.47331 L 155.3072 92.51678 L 155.61658 92.5573 L 155.92595 92.59967 L 156.23534 92.63945 L 156.54471 92.68164 L 156.85408 92.724 L 157.16345 92.76599 L 157.47284 92.8052 L 157.78221 92.84665 L 158.09159 92.88847 L 158.40096 92.93028 L 158.71033 92.97025 L 159.01972 93.00964 L 159.32909 93.05109 L 159.63846 93.09198 L 159.94783 93.13304 L 160.25722 93.17229 L 160.56659 93.21262 L 160.87596 93.25275 L 161.18534 93.29439 L 161.49472 93.33453 L 161.8041 93.37172 L 162.11347 93.4128 L 162.42284 93.45403 L 162.73221 93.49345 L 163.0416 93.53046 L 163.35097 93.57227 L 163.66034 93.61111 L 163.96971 93.65106 L 164.2791 93.69177 L 164.58847 93.72693 L 164.89785 93.76764 L 165.20722 93.80777 L 165.5166 93.84755 L 165.82598 93.88751 L 166.13535 93.92303 L 166.44472 93.96245 L 166.75409 94.00426 L 167.06348 94.04291 L 167.37285 94.08122 L 167.68222 94.11987 L 167.9916 94.15837 L 168.30098 94.1961 L 168.61035 94.2342 L 168.91973 94.2727 L 169.2291 94.31026 L 169.53849 94.34836 L 169.84786 94.38611 L 170.15723 94.42422 L 170.4666 94.46141 L 170.77597 94.49933 L 171.08536 94.53651 L 171.39473 94.57463 L 171.7041 94.61163 L 172.01348 94.6492 L 172.32286 94.68657 L 172.63224 94.72339 L 172.9416 94.76074 L 173.25098 94.79738 L 173.56037 94.83438 L 173.86974 94.87138 L 174.17911 94.90839 L 174.48848 94.94482 L 174.79785 94.98146 L 175.10724 95.01828 L 175.41661 95.05437 L 175.72599 95.0908 L 176.03536 95.12708 L 176.34474 95.1639 L 176.65412 95.19958 L 176.96349 95.23604 L 177.27286 95.27193 L 177.58225 95.30818 L 177.89162 95.34372 L 178.20099 95.37979 L 178.51036 95.41568 L 178.81974 95.45157 L 179.12912 95.48709 L 179.43849 95.52298 L 179.74787 95.5585 L 180.05724 95.59329 L 180.36663 95.629 L 180.676 95.66396 L 180.98537 95.69968 L 181.29474 95.735 L 181.60411 95.76997 L 181.9135 95.80531 L 182.22287 95.84027 L 182.53224 95.87524 L 182.84162 95.91002 L 183.151 95.94463 L 183.46038 95.9794 L 183.76975 96.01381 L 184.0791 96.04858 L 184.38849 96.08301 L 184.69786 96.11797 L 184.55178 96.10182 "/>
<path transform="matrix(.99388,-.10995,-.10995,-.99388,194.23777,44.91417)" stroke-width="1" stroke-linecap="round" stroke-linejoin="round" fill="none" stroke="#000000" d="M -1.19551 1.59401 C -1.09587 .99626 0 .09961 .29886 0 C 0 -.09961 -1.09587 -.99626 -1.19551 -1.59401 "/>
</g>
<path transform="matrix(1,0,0,-1,9.686,141.01599)" d="M 94.49658 92.50403 C 94.49658 93.6045 93.6045 94.49658 92.50403 94.49658 C 91.40356 94.49658 90.51147 93.6045 90.51147 92.50403 C 90.51147 91.40356 91.40356 90.51147 92.50403 90.51147 C 93.6045 90.51147 94.49658 91.40356 94.49658 92.50403 Z M 92.50403 92.50403 "/>
<path transform="matrix(1,0,0,-1,9.686,141.01599)" stroke-width="1" stroke-linecap="butt" stroke-miterlimit="10" stroke-linejoin="miter" fill="none" stroke="#000000" d="M 94.49658 92.50403 C 94.49658 93.6045 93.6045 94.49658 92.50403 94.49658 C 91.40356 94.49658 90.51147 93.6045 90.51147 92.50403 C 90.51147 91.40356 91.40356 90.51147 92.50403 90.51147 C 93.6045 90.51147 94.49658 91.40356 94.49658 92.50403 Z M 92.50403 92.50403 "/>
<path transform="matrix(1,0,0,-1,9.686,141.01599)" d="M 94.49658 81.14996 C 94.49658 82.25043 93.6045 83.14252 92.50403 83.14252 C 91.40356 83.14252 90.51147 82.25043 90.51147 81.14996 C 90.51147 80.04948 91.40356 79.15741 92.50403 79.15741 C 93.6045 79.15741 94.49658 80.04948 94.49658 81.14996 Z M 92.50403 81.14996 "/>
<path transform="matrix(1,0,0,-1,9.686,141.01599)" stroke-width="1" stroke-linecap="butt" stroke-miterlimit="10" stroke-linejoin="miter" fill="none" stroke="#000000" d="M 94.49658 81.14996 C 94.49658 82.25043 93.6045 83.14252 92.50403 83.14252 C 91.40356 83.14252 90.51147 82.25043 90.51147 81.14996 C 90.51147 80.04948 91.40356 79.15741 92.50403 79.15741 C 93.6045 79.15741 94.49658 80.04948 94.49658 81.14996 Z M 92.50403 81.14996 "/>
<symbol id="font_3_1">
<path d="M .305 .31300003 C .311 .33900003 .334 .43100003 .404 .43100003 C .409 .43100003 .433 .43100003 .454 .418 C .426 .41300003 .40600003 .388 .40600003 .36400003 C .40600003 .34800003 .417 .32900004 .444 .32900004 C .46600003 .32900004 .498 .34700004 .498 .38700003 C .498 .43900005 .439 .45300005 .405 .45300005 C .347 .45300005 .312 .40000005 .3 .37700004 C .275 .44300003 .221 .45300005 .19200002 .45300005 C .08800001 .45300005 .031000002 .32400004 .031000002 .29900003 C .031000002 .28900004 .041 .28900004 .043000007 .28900004 C .051000008 .28900004 .054000006 .291 .056 .3 C .09 .40600003 .156 .43100003 .19000001 .43100003 C .209 .43100003 .244 .42200003 .244 .36400003 C .244 .33300004 .22700002 .26600004 .19000001 .126 C .17400001 .064 .13900002 .022000002 .095000009 .022000002 C .08900001 .022000002 .06600001 .022000002 .045 .035 C .07000001 .040000004 .09200001 .061 .09200001 .089 C .09200001 .116000007 .07000001 .124000009 .055000009 .124000009 C .025 .124000009 0 .098000008 0 .06600001 C 0 .020000002 .050000006 0 .094000007 0 C .16000001 0 .19600001 .07000001 .19900002 .076000008 C .21100001 .039 .24700003 0 .307 0 C .41 0 .467 .12900001 .467 .15400002 C .467 .16400002 .458 .16400002 .455 .16400002 C .446 .16400002 .444 .16000001 .442 .15300001 C .409 .046 .341 .022000002 .30900003 .022000002 C .27 .022000002 .254 .054 .254 .08800001 C .254 .11000001 .26 .13200002 .271 .17600002 L .305 .31300003 Z "/>
</symbol>
<use xlink:href="#font_3_1" transform="matrix(9.9626,0,0,-9.9626,195.05692,82.09257)"/>
<symbol id="font_3_2">
<path d="M .45700003 .586 C .461 .6 .461 .602 .461 .609 C .461 .62700006 .447 .63600006 .432 .63600006 C .42200003 .63600006 .40600003 .63 .397 .615 C .395 .61 .387 .579 .38300003 .561 C .37600003 .535 .36900003 .508 .363 .48100005 L .318 .301 C .314 .286 .271 .21600002 .20500002 .21600002 C .15400002 .21600002 .143 .26000003 .143 .29700003 C .143 .34300003 .16000001 .40500004 .194 .49300004 C .21000001 .53400006 .21400002 .545 .21400002 .56500008 C .21400002 .61 .18200001 .6470001 .13200002 .6470001 C .037 .6470001 0 .50200006 0 .49300004 C 0 .48300005 .01 .48300005 .012 .48300005 C .022000002 .48300005 .023 .485 .028000003 .50100007 C .055000009 .595 .095000009 .625 .12900001 .625 C .13700001 .625 .15400002 .625 .15400002 .59300008 C .15400002 .568 .14400001 .54200008 .13700001 .523 C .097 .41700004 .079 .36 .079 .31300003 C .079 .224 .142 .194 .201 .194 C .24000003 .194 .274 .21100001 .30200003 .23900002 C .289 .187 .277 .13800001 .237 .08500001 C .21100001 .051 .17300001 .022 .127 .022 C .113000009 .022 .068 .025000006 .051000008 .06400001 C .067 .06400001 .080000009 .06400001 .094000007 .076000008 C .104 .08500001 .11400001 .098000008 .11400001 .117000009 C .11400001 .148 .087000008 .15200001 .07700001 .15200001 C .054000006 .15200001 .021 .136 .021 .087000008 C .021 .037 .065000008 0 .127 0 C .23 0 .333 .091000009 .361 .20400001 L .45700003 .586 Z "/>
</symbol>
<use xlink:href="#font_3_2" transform="matrix(9.9626,0,0,-9.9626,31.998915,10.027319)"/>
</svg>
