<?xml version="1.0" encoding="iso-8859-1" standalone="no"?> 
<?xml-stylesheet href="simplifyingNumericRadicals.css" type="text/css"?> 
<svg xmlns="http://www.w3.org/2000/svg" xmlns:xlink="http://www.w3.org/1999/xlink" width="140.78966pt" height="239.70177pt" viewBox="-23.57968 -227.88544 140.78966 239.70177 "> 
<g transform="translate(0, 11.81633 ) scale(1,-1) translate(0,227.88544 )"> 
       <g stroke="#000" fill="#000">
 <g stroke-width="0.4">
 <g transform="translate(-13.33354,0.0)">
 <g fill="#000">
 <text style="stroke:none" transform="scale(1,-1) translate(13.33354,0)" text-anchor="middle"  font-size="10"> 
<g fill="#000">
 <g stroke="none"> 15 120<img 
src="simplifyingNumericRadicals0x.png" alt="   4   3
= 2 × 3 × 5 × 7"  class="mathpalette"  /> </g> </g>
 </text> 
</g>
 </g>
 <g transform="translate(-14.5938,-28.30734)">
 <path d=" M 8.78589 3.22221 C 8.78589 8.07458 4.85237 12.0081 0.0 12.0081 C -4.85237 12.0081 -8.78589 8.07458 -8.78589 3.22221 C -8.78589 -1.63016 -4.85237 -5.56367 0.0 -5.56367 C 4.85237 -5.56367 8.78589 -1.63016 8.78589 3.22221 Z M 0.0 3.22221  " fill="none"/>
 <g transform="translate(-2.5,0.0)">
 <g fill="#000">
 <text style="stroke:none" transform="scale(1,-1) translate(2.5,0)" text-anchor="middle"  font-size="10"> 
<g fill="#000">
 <g stroke="none"> 2 </g> </g>
 </text> 
</g>
 </g>
 </g>
 <g transform="translate(14.5938,-28.30734)">
 <g transform="translate(-10.00003,0.0)">
 <g fill="#000">
 <text style="stroke:none" transform="scale(1,-1) translate(10.00003,0)" text-anchor="middle"  font-size="10"> 
<g fill="#000">
 <g stroke="none"> 7560 </g> </g>
 </text> 
</g>
 </g>
 </g>
 <g transform="translate(0.0,-55.99512)">
 <path d=" M 8.78589 3.22221 C 8.78589 8.07458 4.85237 12.0081 0.0 12.0081 C -4.85237 12.0081 -8.78589 8.07458 -8.78589 3.22221 C -8.78589 -1.63016 -4.85237 -5.56367 0.0 -5.56367 C 4.85237 -5.56367 8.78589 -1.63016 8.78589 3.22221 Z M 0.0 3.22221  " fill="none"/>
 <g transform="translate(-2.5,0.0)">
 <g fill="#000">
 <text style="stroke:none" transform="scale(1,-1) translate(2.5,0)" text-anchor="middle"  font-size="10"> 
<g fill="#000">
 <g stroke="none"> 2 </g> </g>
 </text> 
</g>
 </g>
 </g>
 <g transform="translate(29.18759,-55.99512)">
 <g transform="translate(-10.00003,0.0)">
 <g fill="#000">
 <text style="stroke:none" transform="scale(1,-1) translate(10.00003,0)" text-anchor="middle"  font-size="10"> 
<g fill="#000">
 <g stroke="none"> 3780 </g> </g>
 </text> 
</g>
 </g>
 </g>
 <g transform="translate(14.5938,-83.68289)">
 <path d=" M 8.78589 3.22221 C 8.78589 8.07458 4.85237 12.0081 0.0 12.0081 C -4.85237 12.0081 -8.78589 8.07458 -8.78589 3.22221 C -8.78589 -1.63016 -4.85237 -5.56367 0.0 -5.56367 C 4.85237 -5.56367 8.78589 -1.63016 8.78589 3.22221 Z M 0.0 3.22221  " fill="none"/>
 <g transform="translate(-2.5,0.0)">
 <g fill="#000">
 <text style="stroke:none" transform="scale(1,-1) translate(2.5,0)" text-anchor="middle"  font-size="10"> 
<g fill="#000">
 <g stroke="none"> 2 </g> </g>
 </text> 
</g>
 </g>
 </g>
 <g transform="translate(43.78139,-83.68289)">
 <g transform="translate(-10.00003,0.0)">
 <g fill="#000">
 <text style="stroke:none" transform="scale(1,-1) translate(10.00003,0)" text-anchor="middle"  font-size="10"> 
<g fill="#000">
 <g stroke="none"> 1890 </g> </g>
 </text> 
</g>
 </g>
 </g>
 <g transform="translate(30.43785,-111.37067)">
 <path d=" M 8.78589 3.22221 C 8.78589 8.07458 4.85237 12.0081 0.0 12.0081 C -4.85237 12.0081 -8.78589 8.07458 -8.78589 3.22221 C -8.78589 -1.63016 -4.85237 -5.56367 0.0 -5.56367 C 4.85237 -5.56367 8.78589 -1.63016 8.78589 3.22221 Z M 0.0 3.22221  " fill="none"/>
 <g transform="translate(-2.5,0.0)">
 <g fill="#000">
 <text style="stroke:none" transform="scale(1,-1) translate(2.5,0)" text-anchor="middle"  font-size="10"> 
<g fill="#000">
 <g stroke="none"> 2 </g> </g>
 </text> 
</g>
 </g>
 </g>
 <g transform="translate(57.12491,-111.37067)">
 <g transform="translate(-7.50002,0.0)">
 <g fill="#000">
 <text style="stroke:none" transform="scale(1,-1) translate(7.50002,0)" text-anchor="middle"  font-size="10"> 
<g fill="#000">
 <g stroke="none"> 945 </g> </g>
 </text> 
</g>
 </g>
 </g>
 <g transform="translate(43.78137,-139.05844)">
 <path d=" M 8.78589 3.22221 C 8.78589 8.07458 4.85237 12.0081 0.0 12.0081 C -4.85237 12.0081 -8.78589 8.07458 -8.78589 3.22221 C -8.78589 -1.63016 -4.85237 -5.56367 0.0 -5.56367 C 4.85237 -5.56367 8.78589 -1.63016 8.78589 3.22221 Z M 0.0 3.22221  " fill="none"/>
 <g transform="translate(-2.5,0.0)">
 <g fill="#000">
 <text style="stroke:none" transform="scale(1,-1) translate(2.5,0)" text-anchor="middle"  font-size="10"> 
<g fill="#000">
 <g stroke="none"> 3 </g> </g>
 </text> 
</g>
 </g>
 </g>
 <g transform="translate(70.46843,-139.05844)">
 <g transform="translate(-7.50002,0.0)">
 <g fill="#000">
 <text style="stroke:none" transform="scale(1,-1) translate(7.50002,0)" text-anchor="middle"  font-size="10"> 
<g fill="#000">
 <g stroke="none"> 315 </g> </g>
 </text> 
</g>
 </g>
 </g>
 <g transform="translate(57.1249,-166.74622)">
 <path d=" M 8.78589 3.22221 C 8.78589 8.07458 4.85237 12.0081 0.0 12.0081 C -4.85237 12.0081 -8.78589 8.07458 -8.78589 3.22221 C -8.78589 -1.63016 -4.85237 -5.56367 0.0 -5.56367 C 4.85237 -5.56367 8.78589 -1.63016 8.78589 3.22221 Z M 0.0 3.22221  " fill="none"/>
 <g transform="translate(-2.5,0.0)">
 <g fill="#000">
 <text style="stroke:none" transform="scale(1,-1) translate(2.5,0)" text-anchor="middle"  font-size="10"> 
<g fill="#000">
 <g stroke="none"> 3 </g> </g>
 </text> 
</g>
 </g>
 </g>
 <g transform="translate(83.81195,-166.74622)">
 <g transform="translate(-7.50002,0.0)">
 <g fill="#000">
 <text style="stroke:none" transform="scale(1,-1) translate(7.50002,0)" text-anchor="middle"  font-size="10"> 
<g fill="#000">
 <g stroke="none"> 105 </g> </g>
 </text> 
</g>
 </g>
 </g>
 <g transform="translate(71.71867,-194.43399)">
 <path d=" M 8.78589 3.22221 C 8.78589 8.07458 4.85237 12.0081 0.0 12.0081 C -4.85237 12.0081 -8.78589 8.07458 -8.78589 3.22221 C -8.78589 -1.63016 -4.85237 -5.56367 0.0 -5.56367 C 4.85237 -5.56367 8.78589 -1.63016 8.78589 3.22221 Z M 0.0 3.22221  " fill="none"/>
 <g transform="translate(-2.5,0.0)">
 <g fill="#000">
 <text style="stroke:none" transform="scale(1,-1) translate(2.5,0)" text-anchor="middle"  font-size="10"> 
<g fill="#000">
 <g stroke="none"> 3 </g> </g>
 </text> 
</g>
 </g>
 </g>
 <g transform="translate(95.90523,-194.43399)">
 <g transform="translate(-5.00002,0.0)">
 <g fill="#000">
 <text style="stroke:none" transform="scale(1,-1) translate(5.00002,0)" text-anchor="middle"  font-size="10"> 
<g fill="#000">
 <g stroke="none"> 35 </g> </g>
 </text> 
</g>
 </g>
 </g>
 <g transform="translate(83.58636,-222.12177)">
 <path d=" M 8.78589 3.22221 C 8.78589 8.07458 4.85237 12.0081 0.0 12.0081 C -4.85237 12.0081 -8.78589 8.07458 -8.78589 3.22221 C -8.78589 -1.63016 -4.85237 -5.56367 0.0 -5.56367 C 4.85237 -5.56367 8.78589 -1.63016 8.78589 3.22221 Z M 0.0 3.22221  " fill="none"/>
 <g transform="translate(-2.5,0.0)">
 <g fill="#000">
 <text style="stroke:none" transform="scale(1,-1) translate(2.5,0)" text-anchor="middle"  font-size="10"> 
<g fill="#000">
 <g stroke="none"> 5 </g> </g>
 </text> 
</g>
 </g>
 </g>
 <g transform="translate(108.22409,-222.12177)">
 <path d=" M 8.78589 3.22221 C 8.78589 8.07458 4.85237 12.0081 0.0 12.0081 C -4.85237 12.0081 -8.78589 8.07458 -8.78589 3.22221 C -8.78589 -1.63016 -4.85237 -5.56367 0.0 -5.56367 C 4.85237 -5.56367 8.78589 -1.63016 8.78589 3.22221 Z M 0.0 3.22221  " fill="none"/>
 <g transform="translate(-2.5,0.0)">
 <g fill="#000">
 <text style="stroke:none" transform="scale(1,-1) translate(2.5,0)" text-anchor="middle"  font-size="10"> 
<g fill="#000">
 <g stroke="none"> 7 </g> </g>
 </text> 
</g>
 </g>
 </g>
 <path d=" M -4.1344 -4.3663 L -10.5447 -17.0637  " fill="none"/>
 <path d=" M 4.13527 -4.3663 L 11.18518 -18.32994  " fill="none"/>
 <path d=" M 11.03346 -31.84032 L 4.18964 -44.82402  " fill="none"/>
 <path d=" M 18.15382 -31.84032 L 25.62859 -46.01772  " fill="none"/>
 <path d=" M 25.62726 -59.52809 L 18.78343 -72.5118  " fill="none"/>
 <path d=" M 32.74762 -59.52809 L 40.22238 -73.70549  " fill="none"/>
 <path d=" M 40.52667 -87.21587 L 34.33873 -100.05396  " fill="none"/>
 <path d=" M 47.03642 -87.21587 L 53.8708 -101.39326  " fill="none"/>
 <path d=" M 53.8702 -114.90364 L 47.68225 -127.74173  " fill="none"/>
 <path d=" M 60.37994 -114.90364 L 67.21432 -129.08104  " fill="none"/>
 <path d=" M 67.21371 -142.59142 L 61.02577 -155.4295  " fill="none"/>
 <path d=" M 73.72346 -142.59142 L 80.55785 -156.76881  " fill="none"/>
 <path d=" M 80.86223 -170.27919 L 75.31516 -182.97755  " fill="none"/>
 <path d=" M 86.76198 -170.27919 L 92.95602 -184.45659  " fill="none"/>
 <path d=" M 92.90036 -197.96696 L 87.23906 -210.68974  " fill="none"/>
 <path d=" M 98.9101 -197.96696 L 104.5714 -210.68974  " fill="none"/>
 </g>
 </g>
 
                                          </g> 
</svg> 
