<?xml version="1.0" encoding="UTF-8" standalone="no"?>
<!DOCTYPE svg PUBLIC "-//W3C//DTD SVG 1.1//EN" "http://www.w3.org/Graphics/SVG/1.1/DTD/svg11.dtd">
<svg xmlns="http://www.w3.org/2000/svg" xmlns:xlink="http://www.w3.org/1999/xlink" version="1.1" width="210.12pt" height="168.023pt" viewBox="0 0 210.12 168.023">
<path transform="matrix(1,0,0,-1,9.686,167.82399)" stroke-width="1" stroke-linecap="butt" stroke-miterlimit="10" stroke-linejoin="miter" fill="none" stroke="#808080" d="M 4.04726 79.27847 L 4.04726 82.11331 M 8.09453 79.27847 L 8.09453 82.11331 M 12.1418 79.27847 L 12.1418 82.11331 M 16.18909 79.27847 L 16.18909 82.11331 M 20.23634 79.27847 L 20.23634 82.11331 M 28.3309 79.27847 L 28.3309 82.11331 M 32.37817 79.27847 L 32.37817 82.11331 M 36.42543 79.27847 L 36.42543 82.11331 M 40.47272 79.27847 L 40.47272 82.11331 M 44.51999 79.27847 L 44.51999 82.11331 M 52.61455 79.27847 L 52.61455 82.11331 M 56.6618 79.27847 L 56.6618 82.11331 M 60.70908 79.27847 L 60.70908 82.11331 M 64.75636 79.27847 L 64.75636 82.11331 M 68.80363 79.27847 L 68.80363 82.11331 M 76.89818 79.27847 L 76.89818 82.11331 M 80.94545 79.27847 L 80.94545 82.11331 M 84.99272 79.27847 L 84.99272 82.11331 M 89.04001 79.27847 L 89.04001 82.11331 M 93.08727 79.27847 L 93.08727 82.11331 M 101.18182 79.27847 L 101.18182 82.11331 M 105.2291 79.27847 L 105.2291 82.11331 M 109.27635 79.27847 L 109.27635 82.11331 M 113.32364 79.27847 L 113.32364 82.11331 M 117.37091 79.27847 L 117.37091 82.11331 M 125.46547 79.27847 L 125.46547 82.11331 M 129.51273 79.27847 L 129.51273 82.11331 M 133.56 79.27847 L 133.56 82.11331 M 137.60729 79.27847 L 137.60729 82.11331 M 141.65456 79.27847 L 141.65456 82.11331 M 149.7491 79.27847 L 149.7491 82.11331 M 153.79637 79.27847 L 153.79637 82.11331 M 157.84365 79.27847 L 157.84365 82.11331 M 161.89092 79.27847 L 161.89092 82.11331 M 165.93819 79.27847 L 165.93819 82.11331 M 174.03275 79.27847 L 174.03275 82.11331 M 178.08002 79.27847 L 178.08002 82.11331 M 182.12728 79.27847 L 182.12728 82.11331 M 186.17456 79.27847 L 186.17456 82.11331 M 190.22183 79.27847 L 190.22183 82.11331 "/>
<path transform="matrix(1,0,0,-1,9.686,167.82399)" stroke-width="1" stroke-linecap="butt" stroke-miterlimit="10" stroke-linejoin="miter" fill="none" stroke="#808080" d="M 0 78.56999 L 0 82.82178 M 24.28363 78.56999 L 24.28363 82.82178 M 48.56728 78.56999 L 48.56728 82.82178 M 72.8509 78.56999 L 72.8509 82.82178 M 121.4182 78.56999 L 121.4182 82.82178 M 145.70183 78.56999 L 145.70183 82.82178 M 169.98548 78.56999 L 169.98548 82.82178 M 194.26912 78.56999 L 194.26912 82.82178 "/>
<path transform="matrix(1,0,0,-1,9.686,167.82399)" stroke-width="1" stroke-linecap="butt" stroke-miterlimit="10" stroke-linejoin="miter" fill="none" stroke="#808080" d="M 95.7171 1.58224 L 98.552 1.58224 M 95.7171 9.4936 L 98.552 9.4936 M 95.7171 17.40497 L 98.552 17.40497 M 95.7171 25.31631 L 98.552 25.31631 M 95.7171 41.13907 L 98.552 41.13907 M 95.7171 49.05042 L 98.552 49.05042 M 95.7171 56.96179 L 98.552 56.96179 M 95.7171 64.87314 L 98.552 64.87314 M 95.7171 72.7845 L 98.552 72.7845 M 95.7171 88.60725 L 98.552 88.60725 M 95.7171 96.5186 L 98.552 96.5186 M 95.7171 104.42996 L 98.552 104.42996 M 95.7171 112.34132 L 98.552 112.34132 M 95.7171 120.25267 L 98.552 120.25267 M 95.7171 136.07543 L 98.552 136.07543 M 95.7171 143.98677 L 98.552 143.98677 M 95.7171 151.89815 L 98.552 151.89815 M 95.7171 159.8095 L 98.552 159.8095 "/>
<path transform="matrix(1,0,0,-1,9.686,167.82399)" stroke-width="1" stroke-linecap="butt" stroke-miterlimit="10" stroke-linejoin="miter" fill="none" stroke="#808080" d="M 95.0086 33.22772 L 99.26048 33.22772 M 95.0086 128.16408 L 99.26048 128.16408 "/>
<path transform="matrix(1,0,0,-1,9.686,167.82399)" stroke-width="1" stroke-linecap="butt" stroke-miterlimit="10" stroke-linejoin="miter" fill="none" stroke="#000000" d="M 0 80.69589 L 192.2766 80.69589 "/>
<path transform="matrix(1,0,0,-1,201.9626,87.1281)" d="M 1.99252 0 L -1.19551 1.59401 L 0 0 L -1.19551 -1.59401 "/>
<path transform="matrix(1,0,0,-1,9.686,167.82399)" stroke-width="1" stroke-linecap="butt" stroke-miterlimit="10" stroke-linejoin="miter" fill="none" stroke="#000000" d="M 97.13455 0 L 97.13455 159.39928 "/>
<path transform="matrix(0,-1,-1,-0,106.82055,8.424713)" d="M 1.99252 0 L -1.19551 1.59401 L 0 0 L -1.19551 -1.59401 "/>
<symbol id="font_0_1">
<path d="M .57600006 0 C .59300008 0 .611 0 .611 .019999996 C .611 .040000008 .59300008 .040000008 .57600006 .040000008 L .035000005 .040000008 C .018 .040000008 0 .040000008 0 .019999996 C 0 0 .018 0 .035000005 0 L .57600006 0 Z "/>
</symbol>
<use xlink:href="#font_0_1" transform="matrix(9.9626,0,0,-9.9626,4.147896,96.903598)"/>
<symbol id="font_1_6">
<path d="M .121 .47900004 C .075 .509 .071 .54300007 .071 .56000009 C .071 .62100008 .136 .66300007 .20700002 .66300007 C .28000004 .66300007 .344 .61100009 .344 .53900006 C .344 .48200003 .305 .43400005 .245 .39900003 L .121 .47900004 M .26700003 .38400004 C .33900003 .42100004 .388 .47300006 .388 .53900006 C .388 .63100007 .29900003 .688 .208 .688 C .108 .688 .027000003 .614 .027000003 .521 C .027000003 .503 .029 .45800004 .071 .41100005 C .082 .39900003 .11900001 .37400005 .144 .35700003 C .086 .32800005 0 .272 0 .17300001 C 0 .067 .102000009 0 .20700002 0 C .32000003 0 .41500003 .083000008 .41500003 .19000001 C .41500003 .22600001 .404 .27100004 .36600004 .31300003 C .34700004 .33400003 .33100004 .34400005 .26700003 .38400004 M .167 .34200005 L .29000003 .26400004 C .31800003 .245 .365 .215 .365 .154 C .365 .080000009 .29000003 .028 .208 .028 C .122 .028 .050000006 .09 .050000006 .17300001 C .050000006 .231 .082 .29500003 .167 .34200005 Z "/>
</symbol>
<use xlink:href="#font_1_6" transform="matrix(9.9626,0,0,-9.9626,11.48743,99.41417)"/>
<use xlink:href="#font_0_1" transform="matrix(9.9626,0,0,-9.9626,28.430897,96.903598)"/>
<symbol id="font_1_5">
<path d="M .089999999 .35000003 L .089999999 .37400005 C .089999999 .62700006 .21400002 .66300007 .26500003 .66300007 C .28900004 .66300007 .33100004 .65700009 .35300002 .623 C .33800004 .623 .298 .623 .298 .57800009 C .298 .54700008 .32200004 .53200009 .344 .53200009 C .36 .53200009 .39000003 .54100009 .39000003 .58000007 C .39000003 .64000007 .34600003 .688 .263 .688 C .13499999 .688 0 .559 0 .33800004 C 0 .071 .116000007 0 .20900002 0 C .32000003 0 .41500003 .094000007 .41500003 .22600001 C .41500003 .35300005 .32600004 .44900004 .215 .44900004 C .14700002 .44900004 .11000001 .39800004 .089999999 .35000003 M .20900002 .028 C .146 .028 .116000007 .088 .11000001 .103 C .092 .15 .092 .23 .092 .24800001 C .092 .32600004 .124000009 .42600004 .21400002 .42600004 C .23000002 .42600004 .27600003 .42600004 .307 .36400003 C .32500003 .32700003 .32500003 .27600003 .32500003 .22700002 C .32500003 .179 .32500003 .12900001 .30800004 .093 C .27800004 .033000005 .23200003 .028 .20900002 .028 Z "/>
</symbol>
<use xlink:href="#font_1_5" transform="matrix(9.9626,0,0,-9.9626,35.77143,99.41417)"/>
<use xlink:href="#font_0_1" transform="matrix(9.9626,0,0,-9.9626,52.713899,96.903598)"/>
<symbol id="font_1_4">
<path d="M .266 .165 L .266 .078 C .266 .042000005 .26400004 .031000002 .19000001 .031000002 L .16900002 .031000002 L .16900002 0 C .21000001 .003 .26200003 .003 .30400003 .003 C .34600003 .003 .39900003 .003 .44000004 0 L .44000004 .031000002 L .41900004 .031000002 C .34500004 .031000002 .34300003 .042000005 .34300003 .078 L .34300003 .165 L .44300003 .165 L .44300003 .19600001 L .34300003 .19600001 L .34300003 .651 C .34300003 .671 .34300003 .67700007 .32700003 .67700007 C .31800003 .67700007 .31500004 .67700007 .307 .665 L 0 .19600001 L 0 .165 L .266 .165 M .272 .19600001 L .028 .19600001 L .272 .569 L .272 .19600001 Z "/>
</symbol>
<use xlink:href="#font_1_4" transform="matrix(9.9626,0,0,-9.9626,59.914957,99.19499)"/>
<use xlink:href="#font_0_1" transform="matrix(9.9626,0,0,-9.9626,76.997898,96.903598)"/>
<symbol id="font_1_3">
<path d="M .07700001 .07700001 L .18300002 .18 C .33900003 .31800003 .39900003 .372 .39900003 .47200004 C .39900003 .586 .30900003 .666 .18700002 .666 C .074 .666 0 .574 0 .485 C 0 .42900003 .05 .42900003 .053000008 .42900003 C .07000001 .42900003 .105000007 .441 .105000007 .48200003 C .105000007 .508 .08700001 .53400006 .052000006 .53400006 C .044000005 .53400006 .042000008 .53400006 .039 .53300008 C .062000004 .59800007 .11600001 .63500007 .17400001 .63500007 C .26500003 .63500007 .308 .554 .308 .47200004 C .308 .39200003 .25800003 .31300003 .20300003 .25100003 L .011000004 .037 C 0 .026 0 .024 0 0 L .37100003 0 L .39900003 .17400001 L .374 .17400001 C .36900003 .14400001 .36200003 .1 .352 .085 C .345 .07700001 .279 .07700001 .257 .07700001 L .07700001 .07700001 Z "/>
</symbol>
<use xlink:href="#font_1_3" transform="matrix(9.9626,0,0,-9.9626,84.41713,99.19499)"/>
<use xlink:href="#font_1_3" transform="matrix(9.9626,0,0,-9.9626,129.11013,99.19499)"/>
<use xlink:href="#font_1_4" transform="matrix(9.9626,0,0,-9.9626,153.17395,99.19499)"/>
<use xlink:href="#font_1_5" transform="matrix(9.9626,0,0,-9.9626,177.59644,99.41417)"/>
<use xlink:href="#font_1_6" transform="matrix(9.9626,0,0,-9.9626,201.88043,99.41417)"/>
<use xlink:href="#font_0_1" transform="matrix(9.9626,0,0,-9.9626,84.288898,135.1006)"/>
<symbol id="font_1_2">
<path d="M .205 .64000007 C .205 .66400006 .205 .666 .18200003 .666 C .120000008 .60200008 .032000007 .60200008 0 .60200008 L 0 .57100006 C .020000004 .57100006 .07900001 .57100006 .13100001 .597 L .13100001 .079 C .13100001 .043 .128 .031000002 .038000004 .031000002 L .0060000049 .031000002 L .0060000049 0 C .04100001 .003 .128 .003 .168 .003 C .20800002 .003 .29500003 .003 .33000005 0 L .33000005 .031000002 L .29800005 .031000002 C .20800002 .031000002 .205 .042000005 .205 .079 L .205 .64000007 Z "/>
</symbol>
<symbol id="font_1_1">
<path d="M .421 .34200005 C .421 .42200003 .416 .50200006 .381 .57600006 C .335 .67200008 .25300003 .688 .211 .688 C .15100001 .688 .07800001 .66200008 .037000006 .56900009 C .0050000029 .5 0 .42200003 0 .34200005 C 0 .26700003 .0040000008 .177 .045000007 .101 C .088 .020000002 .161 0 .21000001 0 C .264 0 .34 .021000002 .384 .116000007 C .416 .185 .421 .263 .421 .34200005 M .21000001 .022000002 C .171 .022000002 .112 .047000003 .094 .143 C .083000008 .20300001 .083000008 .29500003 .083000008 .35400004 C .083000008 .41800005 .083000008 .48400004 .091000009 .53800007 C .11 .65700009 .185 .66600009 .21000001 .66600009 C .243 .66600009 .30900003 .64800009 .328 .549 C .338 .49300004 .338 .41700004 .338 .35400004 C .338 .279 .338 .21100001 .32700003 .147 C .312 .052 .255 .022000002 .21000001 .022000002 Z "/>
</symbol>
<use xlink:href="#font_1_2" transform="matrix(9.9626,0,0,-9.9626,92.09767,137.392)"/>
<use xlink:href="#font_1_1" transform="matrix(9.9626,0,0,-9.9626,96.58084,137.61118)"/>
<use xlink:href="#font_1_2" transform="matrix(9.9626,0,0,-9.9626,92.09767,42.87198)"/>
<use xlink:href="#font_1_1" transform="matrix(9.9626,0,0,-9.9626,96.58084,43.091157)"/>
<clipPath id="cp2">
<path transform="matrix(1,0,0,-1,9.686,167.82399)" d="M 0 0 L 194.26912 0 L 194.26912 161.3918 L 0 161.3918 Z "/>
</clipPath>
<g clip-path="url(#cp2)">
<path transform="matrix(1,0,0,-1,9.686,167.82399)" stroke-width="1" stroke-linecap="butt" stroke-miterlimit="10" stroke-linejoin="miter" fill="none" stroke="#000000" d="M 108.09575 72.01048 L 108.31395 69.04025 L 108.56572 65.72551 L 108.81749 62.52159 L 109.06926 59.42683 L 109.32103 56.43958 L 109.5728 53.55814 L 109.82457 50.78094 L 110.07634 48.10628 L 110.32811 45.53256 L 110.57988 43.05817 L 110.83167 40.68149 L 111.08342 38.40102 L 111.33519 36.21501 L 111.58698 34.12206 L 111.83873 32.12048 L 112.0905 30.2088 L 112.34229 28.38553 L 112.59404 26.649 L 112.84581 24.99779 L 113.0976 23.43037 L 113.34935 21.94519 L 113.60112 20.54092 L 113.8529 19.21594 L 114.10466 17.96886 L 114.35643 16.79813 L 114.60822 15.7024 L 114.85997 14.6802 L 115.11174 13.73013 L 115.36353 12.85083 L 115.61528 12.04073 L 115.86705 11.29857 L 116.11884 10.62299 L 116.37059 10.01248 L 116.62236 9.46593 L 116.87415 8.98175 L 117.1259 8.55861 L 117.37767 8.1954 L 117.62946 7.89056 L 117.88121 7.64294 L 118.13298 7.45117 L 118.38477 7.31401 L 118.63652 7.23018 L 118.88829 7.19833 L 119.14008 7.2174 L 119.39183 7.28584 L 119.6436 7.40265 L 119.89539 7.56662 L 120.14714 7.77652 L 120.39891 8.03107 L 120.6507 8.32896 L 120.90245 8.66924 L 121.15422 9.05077 L 121.406 9.47224 L 121.65776 9.93246 L 121.90953 10.4305 L 122.16132 10.96504 L 122.41307 11.53502 L 122.66484 12.13936 L 122.91663 12.77695 L 123.16838 13.44673 L 123.42015 14.14761 L 123.67194 14.87848 L 123.92369 15.63832 L 124.17546 16.4261 L 124.42725 17.24077 L 124.679 18.08134 L 124.93077 18.94675 L 125.18256 19.83604 L 125.43431 20.74817 L 125.68608 21.68224 L 125.93787 22.63719 L 126.18962 23.61215 L 126.4414 24.60606 L 126.69318 25.61809 L 126.94493 26.64726 L 127.19672 27.69269 L 127.44849 28.7534 L 127.70024 29.82857 L 127.95203 30.91728 L 128.2038 32.01869 L 128.45555 33.13188 L 128.70734 34.25601 L 128.9591 35.39027 L 129.21086 36.53381 L 129.46265 37.6858 L 129.71442 38.84543 L 129.96617 40.0119 L 130.21796 41.18443 L 130.46973 42.36224 L 130.72148 43.54456 L 130.97327 44.73059 L 131.22504 45.91966 L 131.47679 47.11096 L 131.72858 48.3038 L 131.98035 49.49748 L 132.2321 50.69125 L 132.48389 51.88441 L 132.73566 53.07632 L 132.98741 54.2663 L 133.2392 55.45364 L 133.49097 56.63774 L 133.74272 57.81792 L 133.9945 58.99356 L 134.24628 60.16406 L 134.49803 61.32877 L 134.74982 62.4871 L 135.00159 63.63847 L 135.25334 64.78232 L 135.50513 65.91801 L 135.7569 67.04506 L 136.00865 68.1629 L 136.26044 69.27097 L 136.5122 70.36874 L 136.76396 71.45573 L 137.01575 72.53142 L 137.26752 73.59529 L 137.51927 74.64688 L 137.77106 75.6857 L 138.02283 76.7113 L 138.27458 77.7232 L 138.52637 78.72102 L 138.77814 79.70424 L 139.02989 80.67253 L 139.28168 81.6254 L 139.53345 82.56248 L 139.7852 83.4834 L 140.03699 84.38776 L 140.28876 85.2752 L 140.54051 86.1453 L 140.7923 86.99782 L 141.04407 87.83238 L 141.29582 88.64857 L 141.5476 89.4462 L 141.79938 90.22488 L 142.05113 90.98434 L 142.30292 91.72437 L 142.55469 92.44455 L 142.80646 93.1447 L 143.05823 93.82457 L 143.31 94.4839 L 143.56177 95.12248 L 143.81354 95.74 L 144.0653 96.33641 L 144.31708 96.91135 L 144.56885 97.46477 L 144.82062 97.99635 L 145.07239 98.506 L 145.32416 98.99356 L 145.57593 99.45883 L 145.8277 99.90178 L 146.07947 100.32216 L 146.33124 100.72002 L 146.58301 101.09505 L 146.83478 101.44728 L 147.08655 101.77655 L 147.33832 102.08287 L 147.59009 102.36613 L 147.84186 102.62631 L 148.09363 102.86334 L 148.3454 103.07713 L 148.59717 103.26772 L 148.84894 103.43513 L 149.10071 103.57938 L 149.35248 103.70038 L 149.60425 103.79822 L 149.85602 103.87285 L 150.10779 103.92435 L 150.35956 103.9528 L 150.61133 103.95837 L 150.8631 103.94089 L 151.11487 103.90067 L 151.36664 103.83762 L 151.61841 103.75192 L 151.87018 103.64375 L 152.12195 103.5131 L 152.37372 103.3603 L 152.62549 103.18532 L 152.87726 102.9884 L 153.12903 102.76965 L 153.3808 102.52936 L 153.63257 102.26756 L 153.88434 101.98459 L 154.13611 101.68059 L 154.38788 101.35579 L 154.63965 101.0104 L 154.89142 100.64476 L 155.14319 100.259 L 155.39496 99.85341 L 155.64673 99.42839 L 155.8985 98.98402 L 156.15027 98.5208 L 156.40204 98.03874 L 156.65381 97.53851 L 156.90558 97.02019 L 157.15735 96.48427 L 157.40912 95.931 L 157.66089 95.36067 L 157.91266 94.77382 L 158.16443 94.17076 L 158.4162 93.55185 L 158.66797 92.91748 L 158.91974 92.26813 L 159.17153 91.60414 L 159.42328 90.926 L 159.67505 90.2341 L 159.92684 89.52895 L 160.17859 88.811 L 160.43036 88.08067 L 160.68215 87.3385 L 160.9339 86.58496 L 161.18567 85.82059 L 161.43746 85.04584 L 161.68921 84.26129 L 161.94098 83.46745 L 162.19277 82.66489 L 162.44452 81.85414 L 162.69629 81.03578 L 162.94808 80.21039 L 163.19983 79.3786 L 163.4516 78.54094 L 163.70339 77.69801 L 163.95514 76.85052 L 164.20691 75.99902 L 164.4587 75.14423 L 164.71045 74.28671 L 164.96222 73.42719 L 165.214 72.56631 L 165.46576 71.70477 L 165.71753 70.84326 L 165.96932 69.9825 L 166.22107 69.12315 L 166.47284 68.26602 L 166.72463 67.41179 L 166.97638 66.56122 L 167.22815 65.71506 L 167.47994 64.8741 L 167.73169 64.0391 L 167.98346 63.21083 L 168.23525 62.39014 L 168.487 61.5778 L 168.73877 60.77466 L 168.99056 59.98152 L 169.24231 59.19925 L 169.49408 58.4287 L 169.74587 57.6707 L 169.99762 56.92616 L 170.24939 56.19594 L 170.50118 55.48097 L 170.75293 54.7821 L 171.0047 54.1003 L 171.25649 53.43645 L 171.50824 52.79152 L 171.76001 52.16644 L 172.0118 51.56218 L 172.26355 50.9797 L 172.51532 50.42 L 172.7671 49.88402 L 173.01886 49.37282 L 173.27063 48.88734 L 173.52242 48.42868 L 173.77417 47.9978 L 174.02594 47.59581 L 174.27773 47.22371 L 174.52948 46.88257 L 174.78125 46.57349 L 175.03304 46.29753 L 175.28479 46.05577 L 175.53658 45.84937 L 175.78835 45.6794 L 176.0401 45.547 L 176.29189 45.45331 L 176.54366 45.39948 L 176.79541 45.38666 L 177.0472 45.416 L 177.29897 45.48871 L 177.55072 45.60597 L 177.8025 45.76897 L 178.05428 45.97893 L 178.30603 46.23706 L 178.55782 46.54463 L 178.80959 46.90283 L 179.06134 47.31294 L 179.31313 47.77623 L 179.5649 48.29395 L 179.81665 48.86739 L 180.06844 49.49786 L 180.3202 50.18666 L 180.57196 50.9351 L 180.82375 51.7445 L 181.07552 52.61621 L 181.32727 53.55157 L 181.57906 54.55194 L 181.83083 55.61871 L 182.08258 56.75322 L 182.33437 57.95686 L 182.58614 59.23106 L 182.83789 60.57722 L 183.08968 61.99677 L 183.26534 63.03925 "/>
<path transform="matrix(-.07323,-.99727,-.99727,.07323,117.78175,95.81352)" stroke-width="1" stroke-linecap="round" stroke-linejoin="round" fill="none" stroke="#000000" d="M -1.19551 1.59401 C -1.09587 .99626 0 .09961 .29886 0 C 0 -.09961 -1.09587 -.99626 -1.19551 -1.59401 "/>
<path transform="matrix(.16612,-.98605,-.98605,-.16612,192.95133,104.78476)" stroke-width="1" stroke-linecap="round" stroke-linejoin="round" fill="none" stroke="#000000" d="M -1.19551 1.59401 C -1.09587 .99626 0 .09961 .29886 0 C 0 -.09961 -1.09587 -.99626 -1.19551 -1.59401 "/>
</g>
<symbol id="font_3_1">
<path d="M .305 .31300003 C .311 .33900003 .334 .43100003 .404 .43100003 C .409 .43100003 .433 .43100003 .454 .418 C .426 .41300003 .40600003 .388 .40600003 .36400003 C .40600003 .34800003 .417 .32900004 .444 .32900004 C .46600003 .32900004 .498 .34700004 .498 .38700003 C .498 .43900005 .439 .45300005 .405 .45300005 C .347 .45300005 .312 .40000005 .3 .37700004 C .275 .44300003 .221 .45300005 .19200002 .45300005 C .08800001 .45300005 .031000002 .32400004 .031000002 .29900003 C .031000002 .28900004 .041 .28900004 .043000007 .28900004 C .051000008 .28900004 .054000006 .291 .056 .3 C .09 .40600003 .156 .43100003 .19000001 .43100003 C .209 .43100003 .244 .42200003 .244 .36400003 C .244 .33300004 .22700002 .26600004 .19000001 .126 C .17400001 .064 .13900002 .022000002 .095000009 .022000002 C .08900001 .022000002 .06600001 .022000002 .045 .035 C .07000001 .040000004 .09200001 .061 .09200001 .089 C .09200001 .116000007 .07000001 .124000009 .055000009 .124000009 C .025 .124000009 0 .098000008 0 .06600001 C 0 .020000002 .050000006 0 .094000007 0 C .16000001 0 .19600001 .07000001 .19900002 .076000008 C .21100001 .039 .24700003 0 .307 0 C .41 0 .467 .12900001 .467 .15400002 C .467 .16400002 .458 .16400002 .455 .16400002 C .446 .16400002 .444 .16000001 .442 .15300001 C .409 .046 .341 .022000002 .30900003 .022000002 C .27 .022000002 .254 .054 .254 .08800001 C .254 .11000001 .26 .13200002 .271 .17600002 L .305 .31300003 Z "/>
</symbol>
<use xlink:href="#font_3_1" transform="matrix(9.9626,0,0,-9.9626,201.39392,83.71858)"/>
<symbol id="font_3_2">
<path d="M .45700003 .586 C .461 .6 .461 .602 .461 .609 C .461 .62700006 .447 .63600006 .432 .63600006 C .42200003 .63600006 .40600003 .63 .397 .615 C .395 .61 .387 .579 .38300003 .561 C .37600003 .535 .36900003 .508 .363 .48100005 L .318 .301 C .314 .286 .271 .21600002 .20500002 .21600002 C .15400002 .21600002 .143 .26000003 .143 .29700003 C .143 .34300003 .16000001 .40500004 .194 .49300004 C .21000001 .53400006 .21400002 .545 .21400002 .56500008 C .21400002 .61 .18200001 .6470001 .13200002 .6470001 C .037 .6470001 0 .50200006 0 .49300004 C 0 .48300005 .01 .48300005 .012 .48300005 C .022000002 .48300005 .023 .485 .028000003 .50100007 C .055000009 .595 .095000009 .625 .12900001 .625 C .13700001 .625 .15400002 .625 .15400002 .59300008 C .15400002 .568 .14400001 .54200008 .13700001 .523 C .097 .41700004 .079 .36 .079 .31300003 C .079 .224 .142 .194 .201 .194 C .24000003 .194 .274 .21100001 .30200003 .23900002 C .289 .187 .277 .13800001 .237 .08500001 C .21100001 .051 .17300001 .022 .127 .022 C .113000009 .022 .068 .025000006 .051000008 .06400001 C .067 .06400001 .080000009 .06400001 .094000007 .076000008 C .104 .08500001 .11400001 .098000008 .11400001 .117000009 C .11400001 .148 .087000008 .15200001 .07700001 .15200001 C .054000006 .15200001 .021 .136 .021 .087000008 C .021 .037 .065000008 0 .127 0 C .23 0 .333 .091000009 .361 .20400001 L .45700003 .586 Z "/>
</symbol>
<use xlink:href="#font_3_2" transform="matrix(9.9626,0,0,-9.9626,110.627918,9.652319)"/>
</svg>
