<?xml version="1.0" encoding="UTF-8" standalone="no"?>
<!DOCTYPE svg PUBLIC "-//W3C//DTD SVG 1.1//EN" "http://www.w3.org/Graphics/SVG/1.1/DTD/svg11.dtd">
<svg xmlns="http://www.w3.org/2000/svg" xmlns:xlink="http://www.w3.org/1999/xlink" version="1.1" width="210.12pt" height="168.023pt" viewBox="0 0 210.12 168.023">
<path transform="matrix(1,0,0,-1,9.686,167.82399)" stroke-width="1" stroke-linecap="butt" stroke-miterlimit="10" stroke-linejoin="miter" fill="none" stroke="#808080" d="M 4.04726 79.27847 L 4.04726 82.11331 M 8.09453 79.27847 L 8.09453 82.11331 M 12.1418 79.27847 L 12.1418 82.11331 M 16.18909 79.27847 L 16.18909 82.11331 M 20.23634 79.27847 L 20.23634 82.11331 M 28.3309 79.27847 L 28.3309 82.11331 M 32.37817 79.27847 L 32.37817 82.11331 M 36.42543 79.27847 L 36.42543 82.11331 M 40.47272 79.27847 L 40.47272 82.11331 M 44.51999 79.27847 L 44.51999 82.11331 M 52.61455 79.27847 L 52.61455 82.11331 M 56.6618 79.27847 L 56.6618 82.11331 M 60.70908 79.27847 L 60.70908 82.11331 M 64.75636 79.27847 L 64.75636 82.11331 M 68.80363 79.27847 L 68.80363 82.11331 M 76.89818 79.27847 L 76.89818 82.11331 M 80.94545 79.27847 L 80.94545 82.11331 M 84.99272 79.27847 L 84.99272 82.11331 M 89.04001 79.27847 L 89.04001 82.11331 M 93.08727 79.27847 L 93.08727 82.11331 M 101.18182 79.27847 L 101.18182 82.11331 M 105.2291 79.27847 L 105.2291 82.11331 M 109.27635 79.27847 L 109.27635 82.11331 M 113.32364 79.27847 L 113.32364 82.11331 M 117.37091 79.27847 L 117.37091 82.11331 M 125.46547 79.27847 L 125.46547 82.11331 M 129.51273 79.27847 L 129.51273 82.11331 M 133.56 79.27847 L 133.56 82.11331 M 137.60729 79.27847 L 137.60729 82.11331 M 141.65456 79.27847 L 141.65456 82.11331 M 149.7491 79.27847 L 149.7491 82.11331 M 153.79637 79.27847 L 153.79637 82.11331 M 157.84365 79.27847 L 157.84365 82.11331 M 161.89092 79.27847 L 161.89092 82.11331 M 165.93819 79.27847 L 165.93819 82.11331 M 174.03275 79.27847 L 174.03275 82.11331 M 178.08002 79.27847 L 178.08002 82.11331 M 182.12728 79.27847 L 182.12728 82.11331 M 186.17456 79.27847 L 186.17456 82.11331 M 190.22183 79.27847 L 190.22183 82.11331 "/>
<path transform="matrix(1,0,0,-1,9.686,167.82399)" stroke-width="1" stroke-linecap="butt" stroke-miterlimit="10" stroke-linejoin="miter" fill="none" stroke="#808080" d="M 0 78.56999 L 0 82.82178 M 24.28363 78.56999 L 24.28363 82.82178 M 48.56728 78.56999 L 48.56728 82.82178 M 72.8509 78.56999 L 72.8509 82.82178 M 121.4182 78.56999 L 121.4182 82.82178 M 145.70183 78.56999 L 145.70183 82.82178 M 169.98548 78.56999 L 169.98548 82.82178 M 194.26912 78.56999 L 194.26912 82.82178 "/>
<path transform="matrix(1,0,0,-1,9.686,167.82399)" stroke-width="1" stroke-linecap="butt" stroke-miterlimit="10" stroke-linejoin="miter" fill="none" stroke="#808080" d="M 95.7171 1.58224 L 98.552 1.58224 M 95.7171 9.4936 L 98.552 9.4936 M 95.7171 17.40497 L 98.552 17.40497 M 95.7171 25.31631 L 98.552 25.31631 M 95.7171 41.13907 L 98.552 41.13907 M 95.7171 49.05042 L 98.552 49.05042 M 95.7171 56.96179 L 98.552 56.96179 M 95.7171 64.87314 L 98.552 64.87314 M 95.7171 72.7845 L 98.552 72.7845 M 95.7171 88.60725 L 98.552 88.60725 M 95.7171 96.5186 L 98.552 96.5186 M 95.7171 104.42996 L 98.552 104.42996 M 95.7171 112.34132 L 98.552 112.34132 M 95.7171 120.25267 L 98.552 120.25267 M 95.7171 136.07543 L 98.552 136.07543 M 95.7171 143.98677 L 98.552 143.98677 M 95.7171 151.89815 L 98.552 151.89815 M 95.7171 159.8095 L 98.552 159.8095 "/>
<path transform="matrix(1,0,0,-1,9.686,167.82399)" stroke-width="1" stroke-linecap="butt" stroke-miterlimit="10" stroke-linejoin="miter" fill="none" stroke="#808080" d="M 95.0086 33.22772 L 99.26048 33.22772 M 95.0086 128.16408 L 99.26048 128.16408 "/>
<path transform="matrix(1,0,0,-1,9.686,167.82399)" stroke-width="1" stroke-linecap="butt" stroke-miterlimit="10" stroke-linejoin="miter" fill="none" stroke="#000000" d="M 0 80.69589 L 192.2766 80.69589 "/>
<path transform="matrix(1,0,0,-1,201.9626,87.1281)" d="M 1.99252 0 L -1.19551 1.59401 L 0 0 L -1.19551 -1.59401 "/>
<path transform="matrix(1,0,0,-1,9.686,167.82399)" stroke-width="1" stroke-linecap="butt" stroke-miterlimit="10" stroke-linejoin="miter" fill="none" stroke="#000000" d="M 97.13455 0 L 97.13455 159.39928 "/>
<path transform="matrix(0,-1,-1,-0,106.82055,8.424713)" d="M 1.99252 0 L -1.19551 1.59401 L 0 0 L -1.19551 -1.59401 "/>
<symbol id="font_0_1">
<path d="M .57600006 0 C .59300008 0 .611 0 .611 .019999996 C .611 .040000008 .59300008 .040000008 .57600006 .040000008 L .035000005 .040000008 C .018 .040000008 0 .040000008 0 .019999996 C 0 0 .018 0 .035000005 0 L .57600006 0 Z "/>
</symbol>
<use xlink:href="#font_0_1" transform="matrix(9.9626,0,0,-9.9626,4.147896,96.903598)"/>
<symbol id="font_1_6">
<path d="M .121 .47900004 C .075 .509 .071 .54300007 .071 .56000009 C .071 .62100008 .136 .66300007 .20700002 .66300007 C .28000004 .66300007 .344 .61100009 .344 .53900006 C .344 .48200003 .305 .43400005 .245 .39900003 L .121 .47900004 M .26700003 .38400004 C .33900003 .42100004 .388 .47300006 .388 .53900006 C .388 .63100007 .29900003 .688 .208 .688 C .108 .688 .027000003 .614 .027000003 .521 C .027000003 .503 .029 .45800004 .071 .41100005 C .082 .39900003 .11900001 .37400005 .144 .35700003 C .086 .32800005 0 .272 0 .17300001 C 0 .067 .102000009 0 .20700002 0 C .32000003 0 .41500003 .083000008 .41500003 .19000001 C .41500003 .22600001 .404 .27100004 .36600004 .31300003 C .34700004 .33400003 .33100004 .34400005 .26700003 .38400004 M .167 .34200005 L .29000003 .26400004 C .31800003 .245 .365 .215 .365 .154 C .365 .080000009 .29000003 .028 .208 .028 C .122 .028 .050000006 .09 .050000006 .17300001 C .050000006 .231 .082 .29500003 .167 .34200005 Z "/>
</symbol>
<use xlink:href="#font_1_6" transform="matrix(9.9626,0,0,-9.9626,11.48743,99.41417)"/>
<use xlink:href="#font_0_1" transform="matrix(9.9626,0,0,-9.9626,28.430897,96.903598)"/>
<symbol id="font_1_5">
<path d="M .089999999 .35000003 L .089999999 .37400005 C .089999999 .62700006 .21400002 .66300007 .26500003 .66300007 C .28900004 .66300007 .33100004 .65700009 .35300002 .623 C .33800004 .623 .298 .623 .298 .57800009 C .298 .54700008 .32200004 .53200009 .344 .53200009 C .36 .53200009 .39000003 .54100009 .39000003 .58000007 C .39000003 .64000007 .34600003 .688 .263 .688 C .13499999 .688 0 .559 0 .33800004 C 0 .071 .116000007 0 .20900002 0 C .32000003 0 .41500003 .094000007 .41500003 .22600001 C .41500003 .35300005 .32600004 .44900004 .215 .44900004 C .14700002 .44900004 .11000001 .39800004 .089999999 .35000003 M .20900002 .028 C .146 .028 .116000007 .088 .11000001 .103 C .092 .15 .092 .23 .092 .24800001 C .092 .32600004 .124000009 .42600004 .21400002 .42600004 C .23000002 .42600004 .27600003 .42600004 .307 .36400003 C .32500003 .32700003 .32500003 .27600003 .32500003 .22700002 C .32500003 .179 .32500003 .12900001 .30800004 .093 C .27800004 .033000005 .23200003 .028 .20900002 .028 Z "/>
</symbol>
<use xlink:href="#font_1_5" transform="matrix(9.9626,0,0,-9.9626,35.77143,99.41417)"/>
<use xlink:href="#font_0_1" transform="matrix(9.9626,0,0,-9.9626,52.713899,96.903598)"/>
<symbol id="font_1_4">
<path d="M .266 .165 L .266 .078 C .266 .042000005 .26400004 .031000002 .19000001 .031000002 L .16900002 .031000002 L .16900002 0 C .21000001 .003 .26200003 .003 .30400003 .003 C .34600003 .003 .39900003 .003 .44000004 0 L .44000004 .031000002 L .41900004 .031000002 C .34500004 .031000002 .34300003 .042000005 .34300003 .078 L .34300003 .165 L .44300003 .165 L .44300003 .19600001 L .34300003 .19600001 L .34300003 .651 C .34300003 .671 .34300003 .67700007 .32700003 .67700007 C .31800003 .67700007 .31500004 .67700007 .307 .665 L 0 .19600001 L 0 .165 L .266 .165 M .272 .19600001 L .028 .19600001 L .272 .569 L .272 .19600001 Z "/>
</symbol>
<use xlink:href="#font_1_4" transform="matrix(9.9626,0,0,-9.9626,59.914957,99.19499)"/>
<use xlink:href="#font_0_1" transform="matrix(9.9626,0,0,-9.9626,76.997898,96.903598)"/>
<symbol id="font_1_3">
<path d="M .07700001 .07700001 L .18300002 .18 C .33900003 .31800003 .39900003 .372 .39900003 .47200004 C .39900003 .586 .30900003 .666 .18700002 .666 C .074 .666 0 .574 0 .485 C 0 .42900003 .05 .42900003 .053000008 .42900003 C .07000001 .42900003 .105000007 .441 .105000007 .48200003 C .105000007 .508 .08700001 .53400006 .052000006 .53400006 C .044000005 .53400006 .042000008 .53400006 .039 .53300008 C .062000004 .59800007 .11600001 .63500007 .17400001 .63500007 C .26500003 .63500007 .308 .554 .308 .47200004 C .308 .39200003 .25800003 .31300003 .20300003 .25100003 L .011000004 .037 C 0 .026 0 .024 0 0 L .37100003 0 L .39900003 .17400001 L .374 .17400001 C .36900003 .14400001 .36200003 .1 .352 .085 C .345 .07700001 .279 .07700001 .257 .07700001 L .07700001 .07700001 Z "/>
</symbol>
<use xlink:href="#font_1_3" transform="matrix(9.9626,0,0,-9.9626,84.41713,99.19499)"/>
<use xlink:href="#font_1_3" transform="matrix(9.9626,0,0,-9.9626,129.11013,99.19499)"/>
<use xlink:href="#font_1_4" transform="matrix(9.9626,0,0,-9.9626,153.17395,99.19499)"/>
<use xlink:href="#font_1_5" transform="matrix(9.9626,0,0,-9.9626,177.59644,99.41417)"/>
<use xlink:href="#font_1_6" transform="matrix(9.9626,0,0,-9.9626,201.88043,99.41417)"/>
<use xlink:href="#font_0_1" transform="matrix(9.9626,0,0,-9.9626,84.288898,135.1006)"/>
<symbol id="font_1_2">
<path d="M .205 .64000007 C .205 .66400006 .205 .666 .18200003 .666 C .120000008 .60200008 .032000007 .60200008 0 .60200008 L 0 .57100006 C .020000004 .57100006 .07900001 .57100006 .13100001 .597 L .13100001 .079 C .13100001 .043 .128 .031000002 .038000004 .031000002 L .0060000049 .031000002 L .0060000049 0 C .04100001 .003 .128 .003 .168 .003 C .20800002 .003 .29500003 .003 .33000005 0 L .33000005 .031000002 L .29800005 .031000002 C .20800002 .031000002 .205 .042000005 .205 .079 L .205 .64000007 Z "/>
</symbol>
<symbol id="font_1_1">
<path d="M .421 .34200005 C .421 .42200003 .416 .50200006 .381 .57600006 C .335 .67200008 .25300003 .688 .211 .688 C .15100001 .688 .07800001 .66200008 .037000006 .56900009 C .0050000029 .5 0 .42200003 0 .34200005 C 0 .26700003 .0040000008 .177 .045000007 .101 C .088 .020000002 .161 0 .21000001 0 C .264 0 .34 .021000002 .384 .116000007 C .416 .185 .421 .263 .421 .34200005 M .21000001 .022000002 C .171 .022000002 .112 .047000003 .094 .143 C .083000008 .20300001 .083000008 .29500003 .083000008 .35400004 C .083000008 .41800005 .083000008 .48400004 .091000009 .53800007 C .11 .65700009 .185 .66600009 .21000001 .66600009 C .243 .66600009 .30900003 .64800009 .328 .549 C .338 .49300004 .338 .41700004 .338 .35400004 C .338 .279 .338 .21100001 .32700003 .147 C .312 .052 .255 .022000002 .21000001 .022000002 Z "/>
</symbol>
<use xlink:href="#font_1_2" transform="matrix(9.9626,0,0,-9.9626,92.09767,137.392)"/>
<use xlink:href="#font_1_1" transform="matrix(9.9626,0,0,-9.9626,96.58084,137.61118)"/>
<use xlink:href="#font_1_2" transform="matrix(9.9626,0,0,-9.9626,92.09767,42.87198)"/>
<use xlink:href="#font_1_1" transform="matrix(9.9626,0,0,-9.9626,96.58084,43.091157)"/>
<clipPath id="cp2">
<path transform="matrix(1,0,0,-1,9.686,167.82399)" d="M 0 0 L 194.26912 0 L 194.26912 161.3918 L 0 161.3918 Z "/>
</clipPath>
<g clip-path="url(#cp2)">
<path transform="matrix(1,0,0,-1,9.686,167.82399)" stroke-width="1" stroke-linecap="butt" stroke-miterlimit="10" stroke-linejoin="miter" fill="none" stroke="#000000" d="M 10.96118 72.01048 L 11.1794 69.04025 L 11.43117 65.72551 L 11.68292 62.52159 L 11.93471 59.42683 L 12.18648 56.43958 L 12.43823 53.55814 L 12.69002 50.78094 L 12.94179 48.10628 L 13.19354 45.53256 L 13.44533 43.05817 L 13.6971 40.68149 L 13.94885 38.40102 L 14.20064 36.21501 L 14.45241 34.12206 L 14.70416 32.12048 L 14.95595 30.2088 L 15.20772 28.38553 L 15.45947 26.649 L 15.71126 24.99779 L 15.96303 23.43037 L 16.21478 21.94519 L 16.46657 20.54092 L 16.71834 19.21594 L 16.9701 17.96886 L 17.22188 16.79813 L 17.47365 15.7024 L 17.7254 14.6802 L 17.97719 13.73013 L 18.22896 12.85083 L 18.48071 12.04073 L 18.7325 11.29857 L 18.98427 10.62299 L 19.23602 10.01248 L 19.48781 9.46593 L 19.73958 8.98175 L 19.99133 8.55861 L 20.24312 8.1954 L 20.49489 7.89056 L 20.74664 7.64294 L 20.99843 7.45117 L 21.2502 7.31401 L 21.50195 7.23018 L 21.75374 7.19833 L 22.00551 7.2174 L 22.25726 7.28584 L 22.50905 7.40265 L 22.76082 7.56662 L 23.01257 7.77652 L 23.26436 8.03107 L 23.51613 8.32896 L 23.76788 8.66924 L 24.01967 9.05077 L 24.27144 9.47224 L 24.5232 9.93248 L 24.77498 10.4305 L 25.02675 10.96504 L 25.2785 11.53502 L 25.53029 12.13936 L 25.78206 12.77695 L 26.03383 13.44673 L 26.2856 14.14761 L 26.53737 14.87848 L 26.78914 15.63832 L 27.04091 16.4261 L 27.29268 17.24077 L 27.54445 18.08134 L 27.79622 18.94675 L 28.04799 19.83604 L 28.29976 20.74817 L 28.55153 21.68224 L 28.8033 22.63719 L 29.05507 23.61215 L 29.30684 24.60606 L 29.55861 25.61809 L 29.81038 26.64726 L 30.06215 27.69269 L 30.31392 28.7534 L 30.56569 29.82857 L 30.81746 30.91728 L 31.06923 32.01869 L 31.321 33.13188 L 31.57277 34.25601 L 31.82454 35.39027 L 32.07631 36.53381 L 32.32808 37.6858 L 32.57985 38.84543 L 32.83162 40.0119 L 33.08339 41.18443 L 33.33516 42.36224 L 33.58693 43.54456 L 33.8387 44.73059 L 34.09047 45.91966 L 34.34224 47.11096 L 34.59401 48.30382 L 34.84578 49.49748 L 35.09755 50.69125 L 35.34932 51.88441 L 35.60109 53.07632 L 35.85286 54.2663 L 36.10463 55.45364 L 36.3564 56.63774 L 36.60817 57.81792 L 36.85994 58.99356 L 37.11171 60.16406 L 37.36348 61.32877 L 37.61525 62.4871 L 37.86702 63.63847 L 38.11879 64.78232 L 38.37056 65.91801 L 38.62233 67.04506 L 38.8741 68.1629 L 39.12587 69.27097 L 39.37764 70.36874 L 39.62941 71.45573 L 39.88118 72.53142 L 40.13295 73.59529 L 40.38472 74.64688 L 40.63649 75.6857 L 40.88826 76.7113 L 41.14003 77.7232 L 41.3918 78.72102 L 41.64357 79.70424 L 41.89534 80.67253 L 42.14711 81.6254 L 42.3989 82.56248 L 42.65065 83.4834 L 42.90242 84.38776 L 43.1542 85.2752 L 43.40596 86.1453 L 43.65773 86.99782 L 43.90952 87.83238 L 44.16127 88.64857 L 44.41304 89.4462 L 44.66483 90.22488 L 44.91658 90.98434 L 45.16835 91.72437 L 45.42014 92.44455 L 45.67189 93.1447 L 45.92366 93.82457 L 46.17545 94.4839 L 46.4272 95.12248 L 46.67897 95.74 L 46.93076 96.33641 L 47.18251 96.91135 L 47.43428 97.46477 L 47.68607 97.99635 L 47.93782 98.506 L 48.18959 98.99356 L 48.44138 99.45883 L 48.69313 99.90178 L 48.9449 100.32216 L 49.19669 100.72002 L 49.44844 101.09505 L 49.70021 101.44728 L 49.952 101.77655 L 50.20375 102.08287 L 50.45552 102.36613 L 50.7073 102.62631 L 50.95906 102.86334 L 51.21083 103.07713 L 51.46262 103.26772 L 51.71437 103.43513 L 51.96614 103.57938 L 52.21793 103.70038 L 52.46968 103.79822 L 52.72145 103.87285 L 52.97324 103.92435 L 53.22499 103.9528 L 53.47676 103.95837 L 53.72855 103.94089 L 53.9803 103.90067 L 54.23207 103.83762 L 54.48386 103.75192 L 54.73561 103.64375 L 54.98738 103.5131 L 55.23917 103.3603 L 55.49092 103.18532 L 55.74269 102.9884 L 55.99448 102.76965 L 56.24623 102.52936 L 56.498 102.26756 L 56.74979 101.98459 L 57.00154 101.68059 L 57.25331 101.35579 L 57.5051 101.0104 L 57.75685 100.64476 L 58.00862 100.259 L 58.2604 99.85341 L 58.51216 99.42839 L 58.76395 98.98402 L 59.01572 98.5208 L 59.26747 98.03874 L 59.51926 97.53851 L 59.77103 97.02019 L 60.02278 96.48427 L 60.27457 95.931 L 60.52634 95.36067 L 60.77809 94.77382 L 61.02988 94.17076 L 61.28165 93.55185 L 61.5334 92.91748 L 61.78519 92.26813 L 62.03696 91.60414 L 62.28871 90.926 L 62.5405 90.2341 L 62.79227 89.52895 L 63.04402 88.811 L 63.2958 88.08067 L 63.54758 87.3385 L 63.79933 86.58496 L 64.05112 85.82059 L 64.30289 85.04584 L 64.55464 84.26129 L 64.80643 83.46745 L 65.0582 82.66489 L 65.30995 81.85414 L 65.56174 81.03578 L 65.8135 80.21039 L 66.06526 79.3786 L 66.31705 78.54094 L 66.56882 77.69801 L 66.82057 76.85052 L 67.07236 75.99902 L 67.32413 75.14423 L 67.57588 74.28671 L 67.82767 73.42719 L 68.07944 72.56631 L 68.33119 71.70477 L 68.58298 70.84326 L 68.83475 69.9825 L 69.0865 69.12315 L 69.33829 68.26602 L 69.59006 67.41179 L 69.84181 66.56122 L 70.0936 65.71506 L 70.34537 64.8741 L 70.59712 64.0391 L 70.8489 63.21083 L 71.10068 62.39014 L 71.35243 61.5778 L 71.60422 60.77466 L 71.85599 59.98152 L 72.10774 59.19925 L 72.35953 58.4287 L 72.6113 57.6707 L 72.86305 56.92616 L 73.11484 56.19594 L 73.36661 55.48097 L 73.61836 54.7821 L 73.87015 54.1003 L 74.12192 53.43645 L 74.37369 52.79152 L 74.62546 52.16644 L 74.87723 51.56218 L 75.129 50.9797 L 75.38077 50.42 L 75.63254 49.88402 L 75.88431 49.37282 L 76.13608 48.88734 L 76.38785 48.42868 L 76.63962 47.9978 L 76.89139 47.59581 L 77.14316 47.22371 L 77.39493 46.88257 L 77.6467 46.57349 L 77.89847 46.29753 L 78.15024 46.05577 L 78.40201 45.84937 L 78.65378 45.6794 L 78.90555 45.547 L 79.15732 45.45331 L 79.40909 45.39948 L 79.66086 45.38666 L 79.91263 45.416 L 80.1644 45.48871 L 80.41617 45.60597 L 80.66794 45.76897 L 80.91971 45.97893 L 81.17148 46.23706 L 81.42325 46.54463 L 81.67502 46.90283 L 81.92679 47.31294 L 82.17856 47.77623 L 82.43033 48.29395 L 82.6821 48.86739 L 82.93387 49.49786 L 83.18564 50.18666 L 83.43741 50.9351 L 83.68918 51.7445 L 83.94095 52.61621 L 84.19272 53.55157 L 84.44449 54.55194 L 84.69626 55.61871 L 84.94803 56.75322 L 85.1998 57.95686 L 85.45157 59.23106 L 85.70334 60.57722 L 85.95511 61.99677 L 86.13077 63.03925 "/>
<path transform="matrix(-.07323,-.99727,-.99727,.07323,20.6472,95.81352)" stroke-width="1" stroke-linecap="round" stroke-linejoin="round" fill="none" stroke="#000000" d="M -1.19551 1.59401 C -1.09587 .99626 0 .09961 .29886 0 C 0 -.09961 -1.09587 -.99626 -1.19551 -1.59401 "/>
<path transform="matrix(.16612,-.98605,-.98605,-.16612,95.81675,104.78476)" stroke-width="1" stroke-linecap="round" stroke-linejoin="round" fill="none" stroke="#000000" d="M -1.19551 1.59401 C -1.09587 .99626 0 .09961 .29886 0 C 0 -.09961 -1.09587 -.99626 -1.19551 -1.59401 "/>
</g>
<symbol id="font_3_1">
<path d="M .305 .31300003 C .311 .33900003 .334 .43100003 .404 .43100003 C .409 .43100003 .433 .43100003 .454 .418 C .426 .41300003 .40600003 .388 .40600003 .36400003 C .40600003 .34800003 .417 .32900004 .444 .32900004 C .46600003 .32900004 .498 .34700004 .498 .38700003 C .498 .43900005 .439 .45300005 .405 .45300005 C .347 .45300005 .312 .40000005 .3 .37700004 C .275 .44300003 .221 .45300005 .19200002 .45300005 C .08800001 .45300005 .031000002 .32400004 .031000002 .29900003 C .031000002 .28900004 .041 .28900004 .043000007 .28900004 C .051000008 .28900004 .054000006 .291 .056 .3 C .09 .40600003 .156 .43100003 .19000001 .43100003 C .209 .43100003 .244 .42200003 .244 .36400003 C .244 .33300004 .22700002 .26600004 .19000001 .126 C .17400001 .064 .13900002 .022000002 .095000009 .022000002 C .08900001 .022000002 .06600001 .022000002 .045 .035 C .07000001 .040000004 .09200001 .061 .09200001 .089 C .09200001 .116000007 .07000001 .124000009 .055000009 .124000009 C .025 .124000009 0 .098000008 0 .06600001 C 0 .020000002 .050000006 0 .094000007 0 C .16000001 0 .19600001 .07000001 .19900002 .076000008 C .21100001 .039 .24700003 0 .307 0 C .41 0 .467 .12900001 .467 .15400002 C .467 .16400002 .458 .16400002 .455 .16400002 C .446 .16400002 .444 .16000001 .442 .15300001 C .409 .046 .341 .022000002 .30900003 .022000002 C .27 .022000002 .254 .054 .254 .08800001 C .254 .11000001 .26 .13200002 .271 .17600002 L .305 .31300003 Z "/>
</symbol>
<use xlink:href="#font_3_1" transform="matrix(9.9626,0,0,-9.9626,201.39392,83.71858)"/>
<symbol id="font_3_2">
<path d="M .45700003 .586 C .461 .6 .461 .602 .461 .609 C .461 .62700006 .447 .63600006 .432 .63600006 C .42200003 .63600006 .40600003 .63 .397 .615 C .395 .61 .387 .579 .38300003 .561 C .37600003 .535 .36900003 .508 .363 .48100005 L .318 .301 C .314 .286 .271 .21600002 .20500002 .21600002 C .15400002 .21600002 .143 .26000003 .143 .29700003 C .143 .34300003 .16000001 .40500004 .194 .49300004 C .21000001 .53400006 .21400002 .545 .21400002 .56500008 C .21400002 .61 .18200001 .6470001 .13200002 .6470001 C .037 .6470001 0 .50200006 0 .49300004 C 0 .48300005 .01 .48300005 .012 .48300005 C .022000002 .48300005 .023 .485 .028000003 .50100007 C .055000009 .595 .095000009 .625 .12900001 .625 C .13700001 .625 .15400002 .625 .15400002 .59300008 C .15400002 .568 .14400001 .54200008 .13700001 .523 C .097 .41700004 .079 .36 .079 .31300003 C .079 .224 .142 .194 .201 .194 C .24000003 .194 .274 .21100001 .30200003 .23900002 C .289 .187 .277 .13800001 .237 .08500001 C .21100001 .051 .17300001 .022 .127 .022 C .113000009 .022 .068 .025000006 .051000008 .06400001 C .067 .06400001 .080000009 .06400001 .094000007 .076000008 C .104 .08500001 .11400001 .098000008 .11400001 .117000009 C .11400001 .148 .087000008 .15200001 .07700001 .15200001 C .054000006 .15200001 .021 .136 .021 .087000008 C .021 .037 .065000008 0 .127 0 C .23 0 .333 .091000009 .361 .20400001 L .45700003 .586 Z "/>
</symbol>
<use xlink:href="#font_3_2" transform="matrix(9.9626,0,0,-9.9626,110.627918,9.652319)"/>
</svg>
