<?xml version="1.0" encoding="UTF-8" standalone="no"?>
<!DOCTYPE svg PUBLIC "-//W3C//DTD SVG 1.1//EN" "http://www.w3.org/Graphics/SVG/1.1/DTD/svg11.dtd">
<svg xmlns="http://www.w3.org/2000/svg" xmlns:xlink="http://www.w3.org/1999/xlink" version="1.1" width="210.12pt" height="168.023pt" viewBox="0 0 210.12 168.023">
<path transform="matrix(1,0,0,-1,9.686,167.82399)" stroke-width="1" stroke-linecap="butt" stroke-miterlimit="10" stroke-linejoin="miter" fill="none" stroke="#808080" d="M 4.04726 79.27847 L 4.04726 82.11331 M 8.09453 79.27847 L 8.09453 82.11331 M 12.1418 79.27847 L 12.1418 82.11331 M 16.18909 79.27847 L 16.18909 82.11331 M 20.23634 79.27847 L 20.23634 82.11331 M 28.3309 79.27847 L 28.3309 82.11331 M 32.37817 79.27847 L 32.37817 82.11331 M 36.42543 79.27847 L 36.42543 82.11331 M 40.47272 79.27847 L 40.47272 82.11331 M 44.51999 79.27847 L 44.51999 82.11331 M 52.61455 79.27847 L 52.61455 82.11331 M 56.6618 79.27847 L 56.6618 82.11331 M 60.70908 79.27847 L 60.70908 82.11331 M 64.75636 79.27847 L 64.75636 82.11331 M 68.80363 79.27847 L 68.80363 82.11331 M 76.89818 79.27847 L 76.89818 82.11331 M 80.94545 79.27847 L 80.94545 82.11331 M 84.99272 79.27847 L 84.99272 82.11331 M 89.04001 79.27847 L 89.04001 82.11331 M 93.08727 79.27847 L 93.08727 82.11331 M 101.18182 79.27847 L 101.18182 82.11331 M 105.2291 79.27847 L 105.2291 82.11331 M 109.27635 79.27847 L 109.27635 82.11331 M 113.32364 79.27847 L 113.32364 82.11331 M 117.37091 79.27847 L 117.37091 82.11331 M 125.46547 79.27847 L 125.46547 82.11331 M 129.51273 79.27847 L 129.51273 82.11331 M 133.56 79.27847 L 133.56 82.11331 M 137.60729 79.27847 L 137.60729 82.11331 M 141.65456 79.27847 L 141.65456 82.11331 M 149.7491 79.27847 L 149.7491 82.11331 M 153.79637 79.27847 L 153.79637 82.11331 M 157.84365 79.27847 L 157.84365 82.11331 M 161.89092 79.27847 L 161.89092 82.11331 M 165.93819 79.27847 L 165.93819 82.11331 M 174.03275 79.27847 L 174.03275 82.11331 M 178.08002 79.27847 L 178.08002 82.11331 M 182.12728 79.27847 L 182.12728 82.11331 M 186.17456 79.27847 L 186.17456 82.11331 M 190.22183 79.27847 L 190.22183 82.11331 "/>
<path transform="matrix(1,0,0,-1,9.686,167.82399)" stroke-width="1" stroke-linecap="butt" stroke-miterlimit="10" stroke-linejoin="miter" fill="none" stroke="#808080" d="M 0 78.56999 L 0 82.82178 M 24.28363 78.56999 L 24.28363 82.82178 M 48.56728 78.56999 L 48.56728 82.82178 M 72.8509 78.56999 L 72.8509 82.82178 M 121.4182 78.56999 L 121.4182 82.82178 M 145.70183 78.56999 L 145.70183 82.82178 M 169.98548 78.56999 L 169.98548 82.82178 M 194.26912 78.56999 L 194.26912 82.82178 "/>
<path transform="matrix(1,0,0,-1,9.686,167.82399)" stroke-width="1" stroke-linecap="butt" stroke-miterlimit="10" stroke-linejoin="miter" fill="none" stroke="#808080" d="M 95.7171 1.58224 L 98.552 1.58224 M 95.7171 9.4936 L 98.552 9.4936 M 95.7171 17.40497 L 98.552 17.40497 M 95.7171 25.31631 L 98.552 25.31631 M 95.7171 41.13907 L 98.552 41.13907 M 95.7171 49.05042 L 98.552 49.05042 M 95.7171 56.96179 L 98.552 56.96179 M 95.7171 64.87314 L 98.552 64.87314 M 95.7171 72.7845 L 98.552 72.7845 M 95.7171 88.60725 L 98.552 88.60725 M 95.7171 96.5186 L 98.552 96.5186 M 95.7171 104.42996 L 98.552 104.42996 M 95.7171 112.34132 L 98.552 112.34132 M 95.7171 120.25267 L 98.552 120.25267 M 95.7171 136.07543 L 98.552 136.07543 M 95.7171 143.98677 L 98.552 143.98677 M 95.7171 151.89815 L 98.552 151.89815 M 95.7171 159.8095 L 98.552 159.8095 "/>
<path transform="matrix(1,0,0,-1,9.686,167.82399)" stroke-width="1" stroke-linecap="butt" stroke-miterlimit="10" stroke-linejoin="miter" fill="none" stroke="#808080" d="M 95.0086 33.22772 L 99.26048 33.22772 M 95.0086 128.16408 L 99.26048 128.16408 "/>
<path transform="matrix(1,0,0,-1,9.686,167.82399)" stroke-width="1" stroke-linecap="butt" stroke-miterlimit="10" stroke-linejoin="miter" fill="none" stroke="#000000" d="M 0 80.69589 L 192.2766 80.69589 "/>
<path transform="matrix(1,0,0,-1,201.9626,87.1281)" d="M 1.99252 0 L -1.19551 1.59401 L 0 0 L -1.19551 -1.59401 "/>
<path transform="matrix(1,0,0,-1,9.686,167.82399)" stroke-width="1" stroke-linecap="butt" stroke-miterlimit="10" stroke-linejoin="miter" fill="none" stroke="#000000" d="M 97.13455 0 L 97.13455 159.39928 "/>
<path transform="matrix(0,-1,-1,-0,106.82055,8.424713)" d="M 1.99252 0 L -1.19551 1.59401 L 0 0 L -1.19551 -1.59401 "/>
<symbol id="font_0_1">
<path d="M .57600006 0 C .59300008 0 .611 0 .611 .019999996 C .611 .040000008 .59300008 .040000008 .57600006 .040000008 L .035000005 .040000008 C .018 .040000008 0 .040000008 0 .019999996 C 0 0 .018 0 .035000005 0 L .57600006 0 Z "/>
</symbol>
<use xlink:href="#font_0_1" transform="matrix(9.9626,0,0,-9.9626,4.147896,96.903598)"/>
<symbol id="font_1_6">
<path d="M .121 .47900004 C .075 .509 .071 .54300007 .071 .56000009 C .071 .62100008 .136 .66300007 .20700002 .66300007 C .28000004 .66300007 .344 .61100009 .344 .53900006 C .344 .48200003 .305 .43400005 .245 .39900003 L .121 .47900004 M .26700003 .38400004 C .33900003 .42100004 .388 .47300006 .388 .53900006 C .388 .63100007 .29900003 .688 .208 .688 C .108 .688 .027000003 .614 .027000003 .521 C .027000003 .503 .029 .45800004 .071 .41100005 C .082 .39900003 .11900001 .37400005 .144 .35700003 C .086 .32800005 0 .272 0 .17300001 C 0 .067 .102000009 0 .20700002 0 C .32000003 0 .41500003 .083000008 .41500003 .19000001 C .41500003 .22600001 .404 .27100004 .36600004 .31300003 C .34700004 .33400003 .33100004 .34400005 .26700003 .38400004 M .167 .34200005 L .29000003 .26400004 C .31800003 .245 .365 .215 .365 .154 C .365 .080000009 .29000003 .028 .208 .028 C .122 .028 .050000006 .09 .050000006 .17300001 C .050000006 .231 .082 .29500003 .167 .34200005 Z "/>
</symbol>
<use xlink:href="#font_1_6" transform="matrix(9.9626,0,0,-9.9626,11.48743,99.41417)"/>
<use xlink:href="#font_0_1" transform="matrix(9.9626,0,0,-9.9626,28.430897,96.903598)"/>
<symbol id="font_1_5">
<path d="M .089999999 .35000003 L .089999999 .37400005 C .089999999 .62700006 .21400002 .66300007 .26500003 .66300007 C .28900004 .66300007 .33100004 .65700009 .35300002 .623 C .33800004 .623 .298 .623 .298 .57800009 C .298 .54700008 .32200004 .53200009 .344 .53200009 C .36 .53200009 .39000003 .54100009 .39000003 .58000007 C .39000003 .64000007 .34600003 .688 .263 .688 C .13499999 .688 0 .559 0 .33800004 C 0 .071 .116000007 0 .20900002 0 C .32000003 0 .41500003 .094000007 .41500003 .22600001 C .41500003 .35300005 .32600004 .44900004 .215 .44900004 C .14700002 .44900004 .11000001 .39800004 .089999999 .35000003 M .20900002 .028 C .146 .028 .116000007 .088 .11000001 .103 C .092 .15 .092 .23 .092 .24800001 C .092 .32600004 .124000009 .42600004 .21400002 .42600004 C .23000002 .42600004 .27600003 .42600004 .307 .36400003 C .32500003 .32700003 .32500003 .27600003 .32500003 .22700002 C .32500003 .179 .32500003 .12900001 .30800004 .093 C .27800004 .033000005 .23200003 .028 .20900002 .028 Z "/>
</symbol>
<use xlink:href="#font_1_5" transform="matrix(9.9626,0,0,-9.9626,35.77143,99.41417)"/>
<use xlink:href="#font_0_1" transform="matrix(9.9626,0,0,-9.9626,52.713899,96.903598)"/>
<symbol id="font_1_4">
<path d="M .266 .165 L .266 .078 C .266 .042000005 .26400004 .031000002 .19000001 .031000002 L .16900002 .031000002 L .16900002 0 C .21000001 .003 .26200003 .003 .30400003 .003 C .34600003 .003 .39900003 .003 .44000004 0 L .44000004 .031000002 L .41900004 .031000002 C .34500004 .031000002 .34300003 .042000005 .34300003 .078 L .34300003 .165 L .44300003 .165 L .44300003 .19600001 L .34300003 .19600001 L .34300003 .651 C .34300003 .671 .34300003 .67700007 .32700003 .67700007 C .31800003 .67700007 .31500004 .67700007 .307 .665 L 0 .19600001 L 0 .165 L .266 .165 M .272 .19600001 L .028 .19600001 L .272 .569 L .272 .19600001 Z "/>
</symbol>
<use xlink:href="#font_1_4" transform="matrix(9.9626,0,0,-9.9626,59.914957,99.19499)"/>
<use xlink:href="#font_0_1" transform="matrix(9.9626,0,0,-9.9626,76.997898,96.903598)"/>
<symbol id="font_1_3">
<path d="M .07700001 .07700001 L .18300002 .18 C .33900003 .31800003 .39900003 .372 .39900003 .47200004 C .39900003 .586 .30900003 .666 .18700002 .666 C .074 .666 0 .574 0 .485 C 0 .42900003 .05 .42900003 .053000008 .42900003 C .07000001 .42900003 .105000007 .441 .105000007 .48200003 C .105000007 .508 .08700001 .53400006 .052000006 .53400006 C .044000005 .53400006 .042000008 .53400006 .039 .53300008 C .062000004 .59800007 .11600001 .63500007 .17400001 .63500007 C .26500003 .63500007 .308 .554 .308 .47200004 C .308 .39200003 .25800003 .31300003 .20300003 .25100003 L .011000004 .037 C 0 .026 0 .024 0 0 L .37100003 0 L .39900003 .17400001 L .374 .17400001 C .36900003 .14400001 .36200003 .1 .352 .085 C .345 .07700001 .279 .07700001 .257 .07700001 L .07700001 .07700001 Z "/>
</symbol>
<use xlink:href="#font_1_3" transform="matrix(9.9626,0,0,-9.9626,84.41713,99.19499)"/>
<use xlink:href="#font_1_3" transform="matrix(9.9626,0,0,-9.9626,129.11013,99.19499)"/>
<use xlink:href="#font_1_4" transform="matrix(9.9626,0,0,-9.9626,153.17395,99.19499)"/>
<use xlink:href="#font_1_5" transform="matrix(9.9626,0,0,-9.9626,177.59644,99.41417)"/>
<use xlink:href="#font_1_6" transform="matrix(9.9626,0,0,-9.9626,201.88043,99.41417)"/>
<use xlink:href="#font_0_1" transform="matrix(9.9626,0,0,-9.9626,84.288898,135.1006)"/>
<symbol id="font_1_2">
<path d="M .205 .64000007 C .205 .66400006 .205 .666 .18200003 .666 C .120000008 .60200008 .032000007 .60200008 0 .60200008 L 0 .57100006 C .020000004 .57100006 .07900001 .57100006 .13100001 .597 L .13100001 .079 C .13100001 .043 .128 .031000002 .038000004 .031000002 L .0060000049 .031000002 L .0060000049 0 C .04100001 .003 .128 .003 .168 .003 C .20800002 .003 .29500003 .003 .33000005 0 L .33000005 .031000002 L .29800005 .031000002 C .20800002 .031000002 .205 .042000005 .205 .079 L .205 .64000007 Z "/>
</symbol>
<symbol id="font_1_1">
<path d="M .421 .34200005 C .421 .42200003 .416 .50200006 .381 .57600006 C .335 .67200008 .25300003 .688 .211 .688 C .15100001 .688 .07800001 .66200008 .037000006 .56900009 C .0050000029 .5 0 .42200003 0 .34200005 C 0 .26700003 .0040000008 .177 .045000007 .101 C .088 .020000002 .161 0 .21000001 0 C .264 0 .34 .021000002 .384 .116000007 C .416 .185 .421 .263 .421 .34200005 M .21000001 .022000002 C .171 .022000002 .112 .047000003 .094 .143 C .083000008 .20300001 .083000008 .29500003 .083000008 .35400004 C .083000008 .41800005 .083000008 .48400004 .091000009 .53800007 C .11 .65700009 .185 .66600009 .21000001 .66600009 C .243 .66600009 .30900003 .64800009 .328 .549 C .338 .49300004 .338 .41700004 .338 .35400004 C .338 .279 .338 .21100001 .32700003 .147 C .312 .052 .255 .022000002 .21000001 .022000002 Z "/>
</symbol>
<use xlink:href="#font_1_2" transform="matrix(9.9626,0,0,-9.9626,92.09767,137.392)"/>
<use xlink:href="#font_1_1" transform="matrix(9.9626,0,0,-9.9626,96.58084,137.61118)"/>
<use xlink:href="#font_1_2" transform="matrix(9.9626,0,0,-9.9626,92.09767,42.87198)"/>
<use xlink:href="#font_1_1" transform="matrix(9.9626,0,0,-9.9626,96.58084,43.091157)"/>
<clipPath id="cp2">
<path transform="matrix(1,0,0,-1,9.686,167.82399)" d="M 0 0 L 194.26912 0 L 194.26912 161.3918 L 0 161.3918 Z "/>
</clipPath>
<g clip-path="url(#cp2)">
<path transform="matrix(1,0,0,-1,9.686,167.82399)" stroke-width="1" stroke-linecap="butt" stroke-miterlimit="10" stroke-linejoin="miter" fill="none" stroke="#000000" d="M 59.52846 95.74458 L 59.74667 92.77434 L 59.99844 89.4596 L 60.25021 86.25568 L 60.50198 83.16092 L 60.75375 80.17366 L 61.00552 77.29224 L 61.2573 74.51503 L 61.50906 71.84036 L 61.76083 69.26665 L 62.0126 66.79225 L 62.26437 64.41557 L 62.51614 62.1351 L 62.76791 59.9491 L 63.01968 57.85614 L 63.27145 55.85457 L 63.52322 53.94289 L 63.775 52.11961 L 64.02676 50.38309 L 64.27853 48.73187 L 64.5303 47.16446 L 64.78207 45.67928 L 65.03384 44.27501 L 65.28561 42.95004 L 65.53738 41.70294 L 65.78915 40.53223 L 66.04092 39.43648 L 66.2927 38.41429 L 66.54446 37.46422 L 66.79623 36.58492 L 67.048 35.77481 L 67.29977 35.03267 L 67.55154 34.35707 L 67.80331 33.74658 L 68.05508 33.20001 L 68.30685 32.71584 L 68.55862 32.29271 L 68.8104 31.9295 L 69.06216 31.62465 L 69.31393 31.37703 L 69.5657 31.18526 L 69.81747 31.0481 L 70.06924 30.96426 L 70.32101 30.93242 L 70.57278 30.95149 L 70.82455 31.01993 L 71.07632 31.13675 L 71.3281 31.30072 L 71.57986 31.5106 L 71.83163 31.76515 L 72.0834 32.06305 L 72.33517 32.40334 L 72.58694 32.78485 L 72.83871 33.20633 L 73.09048 33.66656 L 73.34225 34.16458 L 73.59402 34.69913 L 73.8458 35.26912 L 74.09756 35.87346 L 74.34933 36.51105 L 74.6011 37.18082 L 74.85287 37.8817 L 75.10464 38.61256 L 75.35641 39.37242 L 75.60818 40.16019 L 75.85995 40.97485 L 76.11172 41.81543 L 76.3635 42.68083 L 76.61528 43.57014 L 76.86703 44.48225 L 77.1188 45.41634 L 77.37059 46.37129 L 77.62234 47.34624 L 77.87411 48.34015 L 78.1259 49.35219 L 78.37766 50.38136 L 78.62943 51.42677 L 78.88121 52.4875 L 79.13297 53.56265 L 79.38474 54.65138 L 79.63652 55.75278 L 79.88828 56.86597 L 80.14005 57.9901 L 80.39183 59.12436 L 80.64359 60.2679 L 80.89536 61.41989 L 81.14714 62.57951 L 81.3989 63.74599 L 81.65067 64.91852 L 81.90245 66.09634 L 82.1542 67.27864 L 82.40598 68.46469 L 82.65776 69.65375 L 82.90952 70.84506 L 83.16129 72.03792 L 83.41307 73.23157 L 83.66483 74.42534 L 83.9166 75.61852 L 84.16838 76.81042 L 84.42014 78.00038 L 84.6719 79.18773 L 84.92369 80.37183 L 85.17545 81.552 L 85.42722 82.72766 L 85.679 83.89815 L 85.93076 85.06287 L 86.18253 86.2212 L 86.43431 87.37257 L 86.68607 88.51642 L 86.93784 89.65213 L 87.18962 90.77917 L 87.44139 91.89699 L 87.69315 93.00505 L 87.94493 94.10284 L 88.1967 95.18983 L 88.44846 96.26552 L 88.70024 97.32938 L 88.95201 98.38098 L 89.20377 99.4198 L 89.45555 100.4454 L 89.70732 101.45732 L 89.95908 102.45511 L 90.21086 103.43834 L 90.46263 104.40663 L 90.71439 105.35951 L 90.96617 106.29659 L 91.21794 107.21753 L 91.4697 108.12187 L 91.72148 109.00931 L 91.97325 109.87943 L 92.22502 110.73193 L 92.47679 111.56647 L 92.72856 112.38272 L 92.98035 113.1803 L 93.2321 113.959 L 93.48387 114.71848 L 93.73566 115.45842 L 93.98741 116.17867 L 94.23918 116.8788 L 94.49097 117.5587 L 94.74272 118.21803 L 94.99449 118.85657 L 95.24628 119.47414 L 95.49803 120.07048 L 95.7498 120.64548 L 96.00159 121.19882 L 96.25334 121.73045 L 96.50511 122.2401 L 96.7569 122.72765 L 97.00865 123.19296 L 97.26042 123.63588 L 97.5122 124.05632 L 97.76396 124.4541 L 98.01573 124.8291 L 98.26752 125.18137 L 98.51927 125.51068 L 98.77104 125.817 L 99.02283 126.10022 L 99.2746 126.36038 L 99.52635 126.59743 L 99.77814 126.81122 L 100.0299 127.00186 L 100.28166 127.16922 L 100.53345 127.31349 L 100.78522 127.43446 L 101.03697 127.53227 L 101.28876 127.6069 L 101.54053 127.65843 L 101.79228 127.68694 L 102.04407 127.69246 L 102.29584 127.67502 L 102.54759 127.63472 L 102.79938 127.57172 L 103.05115 127.486 L 103.3029 127.37784 L 103.55469 127.24724 L 103.80646 127.09435 L 104.05821 126.9194 L 104.31 126.7225 L 104.56177 126.50374 L 104.81352 126.26338 L 105.0653 126.00165 L 105.31708 125.71866 L 105.56883 125.41469 L 105.82062 125.08989 L 106.07239 124.7445 L 106.32416 124.37878 L 106.57593 123.9931 L 106.8277 123.5875 L 107.07947 123.16249 L 107.33124 122.71806 L 107.58301 122.25482 L 107.83478 121.77281 L 108.08655 121.27249 L 108.33832 120.75427 L 108.59009 120.2183 L 108.84186 119.66507 L 109.09363 119.09468 L 109.34541 118.50789 L 109.59717 117.9048 L 109.84894 117.28589 L 110.10072 116.65152 L 110.35248 116.00217 L 110.60425 115.33818 L 110.85603 114.66003 L 111.10779 113.96814 L 111.35956 113.26297 L 111.61134 112.54504 L 111.8631 111.81473 L 112.11487 111.07256 L 112.36665 110.319 L 112.61841 109.55461 L 112.87018 108.77988 L 113.12196 107.99532 L 113.37372 107.2015 L 113.62549 106.39891 L 113.87727 105.5882 L 114.12903 104.7698 L 114.3808 103.94443 L 114.63258 103.1126 L 114.88434 102.27493 L 115.13611 101.43205 L 115.3879 100.58453 L 115.63965 99.73308 L 115.89142 98.87823 L 116.1432 98.02074 L 116.39496 97.16121 L 116.64673 96.30034 L 116.89851 95.4388 L 117.15027 94.57729 L 117.40204 93.7165 L 117.65382 92.8572 L 117.90558 92.00006 L 118.15735 91.14581 L 118.40913 90.29523 L 118.66089 89.44908 L 118.91266 88.60812 L 119.16444 87.77312 L 119.4162 86.94487 L 119.66797 86.12418 L 119.91975 85.31184 L 120.17151 84.50868 L 120.42328 83.71556 L 120.67506 82.93329 L 120.92682 82.16272 L 121.17859 81.40474 L 121.43037 80.6602 L 121.68213 79.93 L 121.9339 79.215 L 122.18568 78.51614 L 122.43744 77.83434 L 122.68921 77.1705 L 122.941 76.52556 L 123.19275 75.9005 L 123.44452 75.29623 L 123.6963 74.71376 L 123.94806 74.15404 L 124.19983 73.61809 L 124.45161 73.10686 L 124.70337 72.62141 L 124.95515 72.16273 L 125.20692 71.73187 L 125.45868 71.32985 L 125.71046 70.95776 L 125.96223 70.61664 L 126.21399 70.30754 L 126.46577 70.03159 L 126.71754 69.78986 L 126.9693 69.58345 L 127.22108 69.41348 L 127.47285 69.28108 L 127.72461 69.1874 L 127.9764 69.13356 L 128.22817 69.12074 L 128.47992 69.15009 L 128.7317 69.2228 L 128.98348 69.34006 L 129.23523 69.50307 L 129.48702 69.71304 L 129.73879 69.97119 L 129.99054 70.27873 L 130.24233 70.63696 L 130.4941 71.04706 L 130.74585 71.51035 L 130.99764 72.02808 L 131.2494 72.60153 L 131.50116 73.23201 L 131.75295 73.92079 L 132.00472 74.66925 L 132.25647 75.47865 L 132.50826 76.35037 L 132.76003 77.28574 L 133.01178 78.28612 L 133.26357 79.35287 L 133.51534 80.48738 L 133.76709 81.69104 L 134.01888 82.96524 L 134.27065 84.31143 L 134.5224 85.73096 L 134.69806 86.77345 "/>
<path transform="matrix(-.07323,-.99727,-.99727,.07323,69.21447,72.07942)" stroke-width="1" stroke-linecap="round" stroke-linejoin="round" fill="none" stroke="#000000" d="M -1.19551 1.59401 C -1.09587 .99626 0 .09961 .29886 0 C 0 -.09961 -1.09587 -.99626 -1.19551 -1.59401 "/>
<path transform="matrix(.16612,-.98605,-.98605,-.16612,144.38405,81.05055)" stroke-width="1" stroke-linecap="round" stroke-linejoin="round" fill="none" stroke="#000000" d="M -1.19551 1.59401 C -1.09587 .99626 0 .09961 .29886 0 C 0 -.09961 -1.09587 -.99626 -1.19551 -1.59401 "/>
</g>
<symbol id="font_3_1">
<path d="M .305 .31300003 C .311 .33900003 .334 .43100003 .404 .43100003 C .409 .43100003 .433 .43100003 .454 .418 C .426 .41300003 .40600003 .388 .40600003 .36400003 C .40600003 .34800003 .417 .32900004 .444 .32900004 C .46600003 .32900004 .498 .34700004 .498 .38700003 C .498 .43900005 .439 .45300005 .405 .45300005 C .347 .45300005 .312 .40000005 .3 .37700004 C .275 .44300003 .221 .45300005 .19200002 .45300005 C .08800001 .45300005 .031000002 .32400004 .031000002 .29900003 C .031000002 .28900004 .041 .28900004 .043000007 .28900004 C .051000008 .28900004 .054000006 .291 .056 .3 C .09 .40600003 .156 .43100003 .19000001 .43100003 C .209 .43100003 .244 .42200003 .244 .36400003 C .244 .33300004 .22700002 .26600004 .19000001 .126 C .17400001 .064 .13900002 .022000002 .095000009 .022000002 C .08900001 .022000002 .06600001 .022000002 .045 .035 C .07000001 .040000004 .09200001 .061 .09200001 .089 C .09200001 .116000007 .07000001 .124000009 .055000009 .124000009 C .025 .124000009 0 .098000008 0 .06600001 C 0 .020000002 .050000006 0 .094000007 0 C .16000001 0 .19600001 .07000001 .19900002 .076000008 C .21100001 .039 .24700003 0 .307 0 C .41 0 .467 .12900001 .467 .15400002 C .467 .16400002 .458 .16400002 .455 .16400002 C .446 .16400002 .444 .16000001 .442 .15300001 C .409 .046 .341 .022000002 .30900003 .022000002 C .27 .022000002 .254 .054 .254 .08800001 C .254 .11000001 .26 .13200002 .271 .17600002 L .305 .31300003 Z "/>
</symbol>
<use xlink:href="#font_3_1" transform="matrix(9.9626,0,0,-9.9626,201.39392,83.71858)"/>
<symbol id="font_3_2">
<path d="M .45700003 .586 C .461 .6 .461 .602 .461 .609 C .461 .62700006 .447 .63600006 .432 .63600006 C .42200003 .63600006 .40600003 .63 .397 .615 C .395 .61 .387 .579 .38300003 .561 C .37600003 .535 .36900003 .508 .363 .48100005 L .318 .301 C .314 .286 .271 .21600002 .20500002 .21600002 C .15400002 .21600002 .143 .26000003 .143 .29700003 C .143 .34300003 .16000001 .40500004 .194 .49300004 C .21000001 .53400006 .21400002 .545 .21400002 .56500008 C .21400002 .61 .18200001 .6470001 .13200002 .6470001 C .037 .6470001 0 .50200006 0 .49300004 C 0 .48300005 .01 .48300005 .012 .48300005 C .022000002 .48300005 .023 .485 .028000003 .50100007 C .055000009 .595 .095000009 .625 .12900001 .625 C .13700001 .625 .15400002 .625 .15400002 .59300008 C .15400002 .568 .14400001 .54200008 .13700001 .523 C .097 .41700004 .079 .36 .079 .31300003 C .079 .224 .142 .194 .201 .194 C .24000003 .194 .274 .21100001 .30200003 .23900002 C .289 .187 .277 .13800001 .237 .08500001 C .21100001 .051 .17300001 .022 .127 .022 C .113000009 .022 .068 .025000006 .051000008 .06400001 C .067 .06400001 .080000009 .06400001 .094000007 .076000008 C .104 .08500001 .11400001 .098000008 .11400001 .117000009 C .11400001 .148 .087000008 .15200001 .07700001 .15200001 C .054000006 .15200001 .021 .136 .021 .087000008 C .021 .037 .065000008 0 .127 0 C .23 0 .333 .091000009 .361 .20400001 L .45700003 .586 Z "/>
</symbol>
<use xlink:href="#font_3_2" transform="matrix(9.9626,0,0,-9.9626,110.627918,9.652319)"/>
</svg>
