<?xml version="1.0" encoding="UTF-8" standalone="no"?>
<!DOCTYPE svg PUBLIC "-//W3C//DTD SVG 1.1//EN" "http://www.w3.org/Graphics/SVG/1.1/DTD/svg11.dtd">
<svg xmlns="http://www.w3.org/2000/svg" xmlns:xlink="http://www.w3.org/1999/xlink" version="1.1" width="200.638pt" height="168.015pt" viewBox="0 0 200.638 168.015">
<path transform="matrix(1,0,0,-1,.199,167.816)" stroke-width=".19925" stroke-linecap="butt" stroke-miterlimit="10" stroke-linejoin="miter" fill="none" stroke="#929292" d="M 2.69823 79.27469 L 2.69823 82.1095 M 9.44385 79.27469 L 9.44385 82.1095 M 22.9351 79.27469 L 22.9351 82.1095 M 29.68073 79.27469 L 29.68073 82.1095 M 36.42635 79.27469 L 36.42635 82.1095 M 43.17197 79.27469 L 43.17197 82.1095 M 49.91759 79.27469 L 49.91759 82.1095 M 63.40886 79.27469 L 63.40886 82.1095 M 70.15448 79.27469 L 70.15448 82.1095 M 76.9001 79.27469 L 76.9001 82.1095 M 83.64572 79.27469 L 83.64572 82.1095 M 90.39134 79.27469 L 90.39134 82.1095 M 103.8826 79.27469 L 103.8826 82.1095 M 110.62822 79.27469 L 110.62822 82.1095 M 117.37384 79.27469 L 117.37384 82.1095 M 124.11946 79.27469 L 124.11946 82.1095 M 130.86508 79.27469 L 130.86508 82.1095 M 144.35636 79.27469 L 144.35636 82.1095 M 151.10198 79.27469 L 151.10198 82.1095 M 157.8476 79.27469 L 157.8476 82.1095 M 164.59322 79.27469 L 164.59322 82.1095 M 171.33884 79.27469 L 171.33884 82.1095 M 184.8301 79.27469 L 184.8301 82.1095 M 191.57572 79.27469 L 191.57572 82.1095 "/>
<path transform="matrix(1,0,0,-1,.199,167.816)" stroke-width=".19925" stroke-linecap="butt" stroke-miterlimit="10" stroke-linejoin="miter" fill="none" stroke="#929292" d="M 16.1895 78.56621 L 16.1895 82.81796 M 56.66324 78.56621 L 56.66324 82.81796 M 137.61074 78.56621 L 137.61074 82.81796 M 178.08449 78.56621 L 178.08449 82.81796 "/>
<path transform="matrix(1,0,0,-1,.199,167.816)" stroke-width=".19925" stroke-linecap="butt" stroke-miterlimit="10" stroke-linejoin="miter" fill="none" stroke="#929292" d="M 95.7196 0 L 98.55437 0 M 95.7196 5.37946 L 98.55437 5.37946 M 95.7196 10.75894 L 98.55437 10.75894 M 95.7196 21.51788 L 98.55437 21.51788 M 95.7196 26.89735 L 98.55437 26.89735 M 95.7196 32.27682 L 98.55437 32.27682 M 95.7196 37.6563 L 98.55437 37.6563 M 95.7196 43.03578 L 98.55437 43.03578 M 95.7196 53.79472 L 98.55437 53.79472 M 95.7196 59.1742 L 98.55437 59.1742 M 95.7196 64.55367 L 98.55437 64.55367 M 95.7196 69.93314 L 98.55437 69.93314 M 95.7196 75.31262 L 98.55437 75.31262 M 95.7196 86.07156 L 98.55437 86.07156 M 95.7196 91.45103 L 98.55437 91.45103 M 95.7196 96.8305 L 98.55437 96.8305 M 95.7196 102.20998 L 98.55437 102.20998 M 95.7196 107.58946 L 98.55437 107.58946 M 95.7196 118.3484 L 98.55437 118.3484 M 95.7196 123.72787 L 98.55437 123.72787 M 95.7196 129.10735 L 98.55437 129.10735 M 95.7196 134.48682 L 98.55437 134.48682 M 95.7196 139.8663 L 98.55437 139.8663 M 95.7196 150.62525 L 98.55437 150.62525 M 95.7196 156.00472 L 98.55437 156.00472 M 95.7196 161.38419 L 98.55437 161.38419 "/>
<path transform="matrix(1,0,0,-1,.199,167.816)" stroke-width=".19925" stroke-linecap="butt" stroke-miterlimit="10" stroke-linejoin="miter" fill="none" stroke="#929292" d="M 95.01111 16.13841 L 99.26285 16.13841 M 95.01111 48.41525 L 99.26285 48.41525 M 95.01111 112.96893 L 99.26285 112.96893 M 95.01111 145.24578 L 99.26285 145.24578 "/>
<path transform="matrix(1,0,0,-1,.199,167.816)" stroke-width=".3985" stroke-linecap="butt" stroke-miterlimit="10" stroke-linejoin="miter" fill="none" stroke="#000000" d="M 0 80.6921 L 192.28145 80.6921 "/>
<path transform="matrix(1,0,0,-1,192.48046,87.12389)" d="M 1.99252 0 L -1.19551 1.59401 L 0 0 L -1.19551 -1.59401 "/>
<path transform="matrix(1,0,0,-1,.199,167.816)" stroke-width=".3985" stroke-linecap="butt" stroke-miterlimit="10" stroke-linejoin="miter" fill="none" stroke="#000000" d="M 97.137 0 L 97.137 159.39168 "/>
<path transform="matrix(0,-1,-1,-0,97.336,8.424316)" d="M 1.99252 0 L -1.19551 1.59401 L 0 0 L -1.19551 -1.59401 "/>
<symbol id="font_0_1">
<path d="M .57600006 0 C .59300008 0 .611 0 .611 .019999996 C .611 .040000008 .59300008 .040000008 .57600006 .040000008 L .035000005 .040000008 C .018 .040000008 0 .040000008 0 .019999996 C 0 0 .018 0 .035000005 0 L .57600006 0 Z "/>
</symbol>
<use xlink:href="#font_0_1" transform="matrix(9.9626,0,0,-9.9626,8.359896,96.89959)"/>
<symbol id="font_1_2">
<path d="M .205 .64000007 C .205 .66400006 .205 .666 .18200003 .666 C .120000008 .60200008 .032000007 .60200008 0 .60200008 L 0 .57100006 C .020000004 .57100006 .07900001 .57100006 .13100001 .597 L .13100001 .079 C .13100001 .043 .128 .031000002 .038000004 .031000002 L .0060000049 .031000002 L .0060000049 0 C .04100001 .003 .128 .003 .168 .003 C .20800002 .003 .29500003 .003 .33000005 0 L .33000005 .031000002 L .29800005 .031000002 C .20800002 .031000002 .205 .042000005 .205 .079 L .205 .64000007 Z "/>
</symbol>
<symbol id="font_1_1">
<path d="M .421 .34200005 C .421 .42200003 .416 .50200006 .381 .57600006 C .335 .67200008 .25300003 .688 .211 .688 C .15100001 .688 .07800001 .66200008 .037000006 .56900009 C .0050000029 .5 0 .42200003 0 .34200005 C 0 .26700003 .0040000008 .177 .045000007 .101 C .088 .020000002 .161 0 .21000001 0 C .264 0 .34 .021000002 .384 .116000007 C .416 .185 .421 .263 .421 .34200005 M .21000001 .022000002 C .171 .022000002 .112 .047000003 .094 .143 C .083000008 .20300001 .083000008 .29500003 .083000008 .35400004 C .083000008 .41800005 .083000008 .48400004 .091000009 .53800007 C .11 .65700009 .185 .66600009 .21000001 .66600009 C .243 .66600009 .30900003 .64800009 .328 .549 C .338 .49300004 .338 .41700004 .338 .35400004 C .338 .279 .338 .21100001 .32700003 .147 C .312 .052 .255 .022000002 .21000001 .022000002 Z "/>
</symbol>
<use xlink:href="#font_1_2" transform="matrix(9.9626,0,0,-9.9626,16.16867,99.19099)"/>
<use xlink:href="#font_1_1" transform="matrix(9.9626,0,0,-9.9626,20.651843,99.410167)"/>
<use xlink:href="#font_0_1" transform="matrix(9.9626,0,0,-9.9626,51.3239,96.89959)"/>
<symbol id="font_1_5">
<path d="M .39900003 .223 C .39900003 .34200005 .317 .44200004 .209 .44200004 C .16100002 .44200004 .118000019 .42600004 .082 .39100004 L .082 .586 C .10200001 .58000007 .135 .573 .16700001 .573 C .29 .573 .36 .66400006 .36 .67700007 C .36 .683 .357 .688 .35 .688 C .349 .688 .347 .688 .342 .68500009 C .322 .67600008 .273 .656 .20600002 .656 C .16600001 .656 .120000008 .66300007 .073 .6840001 C .065 .68700006 .06300001 .68700006 .061000009 .68700006 C .051000004 .68700006 .051000004 .679 .051000004 .66300007 L .051000004 .36700005 C .051000004 .34900005 .051000004 .34100003 .065 .34100003 C .07200001 .34100003 .074 .34400005 .07800001 .35000003 C .08900002 .36600004 .12600002 .42000006 .207 .42000006 C .259 .42000006 .284 .37400005 .292 .35600005 C .308 .31900005 .31 .28000004 .31 .23 C .31 .19500001 .31 .135 .286 .093 C .262 .054000006 .22500001 .028 .17900002 .028 C .106000009 .028 .049000008 .08100001 .032 .14000002 C .035 .13900002 .038000008 .13800001 .049000008 .13800001 C .082 .13800001 .09900001 .163 .09900001 .187 C .09900001 .21100001 .082 .23600002 .049000008 .23600002 C .035 .23600002 0 .22900002 0 .18300002 C 0 .097 .069000009 0 .18100001 0 C .297 0 .39900003 .096 .39900003 .223 Z "/>
</symbol>
<use xlink:href="#font_1_5" transform="matrix(9.9626,0,0,-9.9626,58.744134,99.410167)"/>
<use xlink:href="#font_1_5" transform="matrix(9.9626,0,0,-9.9626,135.81613,99.410167)"/>
<use xlink:href="#font_1_2" transform="matrix(9.9626,0,0,-9.9626,174.18668,99.19099)"/>
<use xlink:href="#font_1_1" transform="matrix(9.9626,0,0,-9.9626,178.66983,99.410167)"/>
<use xlink:href="#font_0_1" transform="matrix(9.9626,0,0,-9.9626,79.7859,152.1816)"/>
<symbol id="font_1_4">
<path d="M .266 .165 L .266 .078 C .266 .042000005 .26400004 .031000002 .19000001 .031000002 L .16900002 .031000002 L .16900002 0 C .21000001 .003 .26200003 .003 .30400003 .003 C .34600003 .003 .39900003 .003 .44000004 0 L .44000004 .031000002 L .41900004 .031000002 C .34500004 .031000002 .34300003 .042000005 .34300003 .078 L .34300003 .165 L .44300003 .165 L .44300003 .19600001 L .34300003 .19600001 L .34300003 .651 C .34300003 .671 .34300003 .67700007 .32700003 .67700007 C .31800003 .67700007 .31500004 .67700007 .307 .665 L 0 .19600001 L 0 .165 L .266 .165 M .272 .19600001 L .028 .19600001 L .272 .569 L .272 .19600001 Z "/>
</symbol>
<use xlink:href="#font_1_4" transform="matrix(9.9626,0,0,-9.9626,86.98695,154.47299)"/>
<use xlink:href="#font_0_1" transform="matrix(9.9626,0,0,-9.9626,79.7859,119.9046)"/>
<symbol id="font_1_3">
<path d="M .07700001 .07700001 L .18300002 .18 C .33900003 .31800003 .39900003 .372 .39900003 .47200004 C .39900003 .586 .30900003 .666 .18700002 .666 C .074 .666 0 .574 0 .485 C 0 .42900003 .05 .42900003 .053000008 .42900003 C .07000001 .42900003 .105000007 .441 .105000007 .48200003 C .105000007 .508 .08700001 .53400006 .052000006 .53400006 C .044000005 .53400006 .042000008 .53400006 .039 .53300008 C .062000004 .59800007 .11600001 .63500007 .17400001 .63500007 C .26500003 .63500007 .308 .554 .308 .47200004 C .308 .39200003 .25800003 .31300003 .20300003 .25100003 L .011000004 .037 C 0 .026 0 .024 0 0 L .37100003 0 L .39900003 .17400001 L .374 .17400001 C .36900003 .14400001 .36200003 .1 .352 .085 C .345 .07700001 .279 .07700001 .257 .07700001 L .07700001 .07700001 Z "/>
</symbol>
<use xlink:href="#font_1_3" transform="matrix(9.9626,0,0,-9.9626,87.20613,122.196)"/>
<use xlink:href="#font_1_3" transform="matrix(9.9626,0,0,-9.9626,87.20613,58.058984)"/>
<use xlink:href="#font_1_4" transform="matrix(9.9626,0,0,-9.9626,86.98695,25.781998)"/>
<clipPath id="cp2">
<path transform="matrix(1,0,0,-1,.199,167.816)" d="M 0 0 L 194.27399 0 L 194.27399 161.3842 L 0 161.3842 Z "/>
</clipPath>
<g clip-path="url(#cp2)">
<path transform="matrix(1,0,0,-1,.199,167.816)" stroke-width=".3985" stroke-linecap="butt" stroke-miterlimit="10" stroke-linejoin="miter" fill="none" stroke="#000000" d="M 65.03487 92.53856 L 64.97456 92.61838 L 65.19113 92.32352 L 65.40771 92.01965 L 65.6243 91.70866 L 65.84088 91.3888 L 66.05746 91.0623 L 66.27403 90.72743 L 66.49063 90.38579 L 66.7072 90.0372 L 66.92378 89.68182 L 67.14037 89.32 L 67.35695 88.95221 L 67.57353 88.5783 L 67.7901 88.19856 L 68.00668 87.81398 L 68.22328 87.42406 L 68.43985 87.02933 L 68.65643 86.62973 L 68.87302 86.22661 L 69.0896 85.81862 L 69.30618 85.40756 L 69.52275 84.99298 L 69.73935 84.57532 L 69.9559 84.1549 L 70.17249 83.73209 L 70.38907 83.30684 L 70.60565 82.87997 L 70.82224 82.45134 L 71.0388 82.02156 L 71.25539 81.591 L 71.47198 81.15945 L 71.68855 80.72775 L 71.90514 80.29637 L 72.12172 79.86516 L 72.3383 79.43425 L 72.55489 79.00432 L 72.77145 78.57553 L 72.98804 78.14835 L 73.20462 77.72278 L 73.4212 77.29947 L 73.63779 76.8789 L 73.85437 76.46059 L 74.07095 76.04535 L 74.28752 75.6335 L 74.5041 75.2252 L 74.7207 74.82126 L 74.93726 74.42102 L 75.15384 74.02547 L 75.3704 73.63475 L 75.587 73.24905 L 75.80359 72.86818 L 76.02016 72.49377 L 76.23674 72.12468 L 76.45332 71.7622 L 76.6699 71.40572 L 76.88649 71.056 L 77.10307 70.71321 L 77.31966 70.37737 L 77.53622 70.04913 L 77.7528 69.72812 L 77.96939 69.41537 L 78.18597 69.11052 L 78.40256 68.81421 L 78.61913 68.52599 L 78.83572 68.24695 L 79.0523 67.97614 L 79.26888 67.71518 L 79.48546 67.46294 L 79.70204 67.22086 L 79.91861 66.98766 L 80.1352 66.76479 L 80.35176 66.5516 L 80.56836 66.34859 L 80.78493 66.15605 L 81.00151 65.97353 L 81.2181 65.80197 L 81.43468 65.64058 L 81.65126 65.49066 L 81.86783 65.35057 L 82.08443 65.22276 L 82.30101 65.1048 L 82.51758 64.99892 L 82.73416 64.90355 L 82.95074 64.82011 L 83.16733 64.74765 L 83.38391 64.68697 L 83.60048 64.6371 L 83.81708 64.59966 L 84.03365 64.57303 L 84.25023 64.55788 L 84.46681 64.55463 L 84.6834 64.5627 L 84.89996 64.5827 L 85.11653 64.61371 L 85.33311 64.65663 L 85.54971 64.7102 L 85.76628 64.7767 L 85.98286 64.85335 L 86.19945 64.94196 L 86.41603 65.04153 L 86.63261 65.15256 L 86.84918 65.27441 L 87.06578 65.4077 L 87.28235 65.5515 L 87.49893 65.70644 L 87.71552 65.87218 L 87.9321 66.04793 L 88.14868 66.2348 L 88.36525 66.43153 L 88.58183 66.63924 L 88.79843 66.85582 L 89.015 67.0837 L 89.23158 67.3198 L 89.44817 67.56703 L 89.66475 67.82251 L 89.88132 68.08815 L 90.09789 68.36201 L 90.31447 68.64493 L 90.53105 68.93622 L 90.74763 69.23639 L 90.96422 69.5448 L 91.1808 69.86063 L 91.39738 70.18468 L 91.61395 70.516 L 91.83054 70.85475 L 92.04713 71.20027 L 92.2637 71.55338 L 92.48029 71.91165 L 92.69687 72.27751 L 92.91345 72.6487 L 93.13004 73.02634 L 93.3466 73.40866 L 93.56319 73.79678 L 93.77979 74.1896 L 93.99635 74.58691 L 94.21294 74.98877 L 94.42952 75.39449 L 94.6461 75.8044 L 94.86269 76.21771 L 95.07924 76.63408 L 95.29582 77.05319 L 95.5124 77.47522 L 95.72899 77.89966 L 95.94557 78.32555 L 96.16216 78.75354 L 96.37874 79.18283 L 96.59532 79.61324 L 96.81189 80.04445 L 97.02849 80.47583 L 97.24506 80.90753 L 97.46164 81.33891 L 97.67822 81.77013 L 97.8948 82.2004 L 98.11139 82.62967 L 98.32796 83.05766 L 98.54454 83.48387 L 98.76114 83.90814 L 98.9777 84.33 L 99.19429 84.74928 L 99.41087 85.16565 L 99.62746 85.57896 L 99.84404 85.98872 L 100.0606 86.39474 L 100.27718 86.79645 L 100.49377 87.19394 L 100.71034 87.58673 L 100.92693 87.97455 L 101.14351 88.3572 L 101.36009 88.73466 L 101.57668 89.10585 L 101.79324 89.47139 L 102.00984 89.8303 L 102.22641 90.18309 L 102.443 90.52861 L 102.65958 90.86752 L 102.87616 91.199 L 103.09274 91.52306 L 103.30931 91.8389 L 103.5259 92.14731 L 103.7425 92.44731 L 103.95906 92.73877 L 104.17564 93.02167 L 104.39223 93.29587 L 104.60881 93.56119 L 104.8254 93.81667 L 105.04195 94.06389 L 105.25853 94.30032 L 105.47513 94.52788 L 105.6917 94.74477 L 105.90828 94.952 L 106.12486 95.14888 L 106.34145 95.33609 L 106.55803 95.51152 L 106.7746 95.67758 L 106.9912 95.83218 L 107.20776 95.97647 L 107.42435 96.10944 L 107.64093 96.23112 L 107.85751 96.34264 L 108.0741 96.4419 L 108.29066 96.53082 L 108.50725 96.60747 L 108.72385 96.67365 L 108.94041 96.72722 L 109.157 96.77046 L 109.37358 96.80113 L 109.59016 96.82147 L 109.80675 96.82954 L 110.0233 96.82631 L 110.23988 96.8113 L 110.45647 96.78468 L 110.67305 96.74707 L 110.88963 96.6972 L 111.10622 96.63669 L 111.3228 96.56422 L 111.53937 96.48079 L 111.75595 96.38557 L 111.97255 96.27986 L 112.18912 96.16173 L 112.4057 96.03392 L 112.62227 95.894 L 112.83887 95.74408 L 113.05545 95.58252 L 113.27202 95.41081 L 113.4886 95.2286 L 113.70518 95.03607 L 113.92177 94.8329 L 114.13835 94.61987 L 114.35493 94.397 L 114.57152 94.1638 L 114.78809 93.92155 L 115.00465 93.66931 L 115.22124 93.40836 L 115.43782 93.13771 L 115.6544 92.85867 L 115.87097 92.57028 L 116.08757 92.27414 L 116.30415 91.96928 L 116.52072 91.65654 L 116.7373 91.33586 L 116.95389 91.00761 L 117.17047 90.67177 L 117.38705 90.32898 L 117.60362 89.97926 L 117.82022 89.62277 L 118.03679 89.26015 L 118.25337 88.89105 L 118.46996 88.5168 L 118.68654 88.13577 L 118.90312 87.75021 L 119.11969 87.35934 L 119.33629 86.96396 L 119.55287 86.56372 L 119.76944 86.15962 L 119.98602 85.75148 L 120.20259 85.33963 L 120.41917 84.9244 L 120.63576 84.50624 L 120.85233 84.08568 L 121.06892 83.6622 L 121.28549 83.2368 L 121.50208 82.8096 L 121.71866 82.38066 L 121.93524 81.95073 L 122.15182 81.52031 L 122.3684 81.08861 L 122.58498 80.65707 L 122.80157 80.22568 L 123.01814 79.79398 L 123.23473 79.36357 L 123.45131 78.93365 L 123.6679 78.50517 L 123.88448 78.07814 L 124.10104 77.65306 L 124.31764 77.23024 L 124.53421 76.81 L 124.7508 76.39232 L 124.96738 75.97742 L 125.18394 75.56602 L 125.40053 75.15854 L 125.6171 74.7554 L 125.83368 74.35582 L 126.05028 73.96107 L 126.26685 73.57117 L 126.48343 73.18626 L 126.70001 72.80637 L 126.9166 72.43245 L 127.13318 72.0648 L 127.34975 71.70316 L 127.56633 71.34778 L 127.78291 70.99887 L 127.9995 70.65755 L 128.21608 70.32234 L 128.43267 69.99586 L 128.64925 69.676 L 128.86582 69.365 L 129.0824 69.06113 L 129.299 68.76628 L 129.2387 68.8461 "/>
<path transform="matrix(-.60419,-.8,-.8,.60419,65.23388,75.27745)" stroke-width=".31879" stroke-linecap="round" stroke-linejoin="round" fill="none" stroke="#000000" d="M -1.19551 1.59401 C -1.09587 .99626 0 .09961 .29886 0 C 0 -.09961 -1.09587 -.99626 -1.19551 -1.59401 "/>
<path transform="matrix(.60414,.8,.8,-.60414,129.43769,98.96987)" stroke-width=".31879" stroke-linecap="round" stroke-linejoin="round" fill="none" stroke="#000000" d="M -1.19551 1.59401 C -1.09587 .99626 0 .09961 .29886 0 C 0 -.09961 -1.09587 -.99626 -1.19551 -1.59401 "/>
</g>
<symbol id="font_3_1">
<path d="M .305 .31300003 C .311 .33900003 .334 .43100003 .404 .43100003 C .409 .43100003 .433 .43100003 .454 .418 C .426 .41300003 .40600003 .388 .40600003 .36400003 C .40600003 .34800003 .417 .32900004 .444 .32900004 C .46600003 .32900004 .498 .34700004 .498 .38700003 C .498 .43900005 .439 .45300005 .405 .45300005 C .347 .45300005 .312 .40000005 .3 .37700004 C .275 .44300003 .221 .45300005 .19200002 .45300005 C .08800001 .45300005 .031000002 .32400004 .031000002 .29900003 C .031000002 .28900004 .041 .28900004 .043000007 .28900004 C .051000008 .28900004 .054000006 .291 .056 .3 C .09 .40600003 .156 .43100003 .19000001 .43100003 C .209 .43100003 .244 .42200003 .244 .36400003 C .244 .33300004 .22700002 .26600004 .19000001 .126 C .17400001 .064 .13900002 .022000002 .095000009 .022000002 C .08900001 .022000002 .06600001 .022000002 .045 .035 C .07000001 .040000004 .09200001 .061 .09200001 .089 C .09200001 .116000007 .07000001 .124000009 .055000009 .124000009 C .025 .124000009 0 .098000008 0 .06600001 C 0 .020000002 .050000006 0 .094000007 0 C .16000001 0 .19600001 .07000001 .19900002 .076000008 C .21100001 .039 .24700003 0 .307 0 C .41 0 .467 .12900001 .467 .15400002 C .467 .16400002 .458 .16400002 .455 .16400002 C .446 .16400002 .444 .16000001 .442 .15300001 C .409 .046 .341 .022000002 .30900003 .022000002 C .27 .022000002 .254 .054 .254 .08800001 C .254 .11000001 .26 .13200002 .271 .17600002 L .305 .31300003 Z "/>
</symbol>
<use xlink:href="#font_3_1" transform="matrix(9.9626,0,0,-9.9626,191.91292,83.714588)"/>
<symbol id="font_3_2">
<path d="M .45700003 .586 C .461 .6 .461 .602 .461 .609 C .461 .62700006 .447 .63600006 .432 .63600006 C .42200003 .63600006 .40600003 .63 .397 .615 C .395 .61 .387 .579 .38300003 .561 C .37600003 .535 .36900003 .508 .363 .48100005 L .318 .301 C .314 .286 .271 .21600002 .20500002 .21600002 C .15400002 .21600002 .143 .26000003 .143 .29700003 C .143 .34300003 .16000001 .40500004 .194 .49300004 C .21000001 .53400006 .21400002 .545 .21400002 .56500008 C .21400002 .61 .18200001 .6470001 .13200002 .6470001 C .037 .6470001 0 .50200006 0 .49300004 C 0 .48300005 .01 .48300005 .012 .48300005 C .022000002 .48300005 .023 .485 .028000003 .50100007 C .055000009 .595 .095000009 .625 .12900001 .625 C .13700001 .625 .15400002 .625 .15400002 .59300008 C .15400002 .568 .14400001 .54200008 .13700001 .523 C .097 .41700004 .079 .36 .079 .31300003 C .079 .224 .142 .194 .201 .194 C .24000003 .194 .274 .21100001 .30200003 .23900002 C .289 .187 .277 .13800001 .237 .08500001 C .21100001 .051 .17300001 .022 .127 .022 C .113000009 .022 .068 .025000006 .051000008 .06400001 C .067 .06400001 .080000009 .06400001 .094000007 .076000008 C .104 .08500001 .11400001 .098000008 .11400001 .117000009 C .11400001 .148 .087000008 .15200001 .07700001 .15200001 C .054000006 .15200001 .021 .136 .021 .087000008 C .021 .037 .065000008 0 .127 0 C .23 0 .333 .091000009 .361 .20400001 L .45700003 .586 Z "/>
</symbol>
<use xlink:href="#font_3_2" transform="matrix(9.9626,0,0,-9.9626,101.14391,9.652334)"/>
</svg>
