<?xml version="1.0" encoding="UTF-8" standalone="no"?>
<!DOCTYPE svg PUBLIC "-//W3C//DTD SVG 1.1//EN" "http://www.w3.org/Graphics/SVG/1.1/DTD/svg11.dtd">
<svg xmlns="http://www.w3.org/2000/svg" xmlns:xlink="http://www.w3.org/1999/xlink" version="1.1" width="210.12pt" height="169.469pt" viewBox="0 0 210.12 169.469">
<path transform="matrix(1,0,0,-1,9.686,167.924)" stroke-width="1" stroke-linecap="butt" stroke-miterlimit="10" stroke-linejoin="miter" fill="none" stroke="#808080" d="M 24.28363 13.25464 L 24.28363 16.09004 M 72.8509 13.25464 L 72.8509 16.09004 M 121.4182 13.25464 L 121.4182 16.09004 M 169.98548 13.25464 L 169.98548 16.09004 "/>
<path transform="matrix(1,0,0,-1,9.686,167.924)" stroke-width="1" stroke-linecap="butt" stroke-miterlimit="10" stroke-linejoin="miter" fill="none" stroke="#808080" d="M 0 12.54599 L 0 16.79866 M 48.56728 12.54599 L 48.56728 16.79866 M 145.70183 12.54599 L 145.70183 16.79866 M 194.26912 12.54599 L 194.26912 16.79866 "/>
<path transform="matrix(1,0,0,-1,9.686,167.924)" stroke-width="1" stroke-linecap="butt" stroke-miterlimit="10" stroke-linejoin="miter" fill="none" stroke="#808080" d="M 95.7171 0 L 98.552 0 M 95.7171 29.34468 L 98.552 29.34468 M 95.7171 58.68936 L 98.552 58.68936 M 95.7171 88.03404 L 98.552 88.03404 M 95.7171 117.37872 L 98.552 117.37872 M 95.7171 146.7234 L 98.552 146.7234 "/>
<path transform="matrix(1,0,0,-1,9.686,167.924)" stroke-width="1" stroke-linecap="butt" stroke-miterlimit="10" stroke-linejoin="miter" fill="none" stroke="#808080" d="M 95.0086 44.01701 L 99.26048 44.01701 M 95.0086 73.3617 L 99.26048 73.3617 M 95.0086 102.70638 L 99.26048 102.70638 M 95.0086 132.05107 L 99.26048 132.05107 M 95.0086 161.39575 L 99.26048 161.39575 "/>
<path transform="matrix(1,0,0,-1,9.686,167.924)" stroke-width="1" stroke-linecap="butt" stroke-miterlimit="10" stroke-linejoin="miter" fill="none" stroke="#000000" d="M 0 14.67233 L 192.2766 14.67233 "/>
<path transform="matrix(1,0,0,-1,201.9626,153.25167)" d="M 1.99252 0 L -1.19551 1.59401 L 0 0 L -1.19551 -1.59401 "/>
<path transform="matrix(1,0,0,-1,9.686,167.924)" stroke-width="1" stroke-linecap="butt" stroke-miterlimit="10" stroke-linejoin="miter" fill="none" stroke="#000000" d="M 97.13455 0 L 97.13455 159.40323 "/>
<path transform="matrix(0,-1,-1,-0,106.82055,8.520767)" d="M 1.99252 0 L -1.19551 1.59401 L 0 0 L -1.19551 -1.59401 "/>
<symbol id="font_0_1">
<path d="M .57600006 0 C .59300008 0 .611 0 .611 .019999996 C .611 .040000008 .59300008 .040000008 .57600006 .040000008 L .035000005 .040000008 C .018 .040000008 0 .040000008 0 .019999996 C 0 0 .018 0 .035000005 0 L .57600006 0 Z "/>
</symbol>
<use xlink:href="#font_0_1" transform="matrix(9.9626,0,0,-9.9626,4.147896,163.0266)"/>
<symbol id="font_1_4">
<path d="M .266 .165 L .266 .078 C .266 .042000005 .26400004 .031000002 .19000001 .031000002 L .16900002 .031000002 L .16900002 0 C .21000001 .003 .26200003 .003 .30400003 .003 C .34600003 .003 .39900003 .003 .44000004 0 L .44000004 .031000002 L .41900004 .031000002 C .34500004 .031000002 .34300003 .042000005 .34300003 .078 L .34300003 .165 L .44300003 .165 L .44300003 .19600001 L .34300003 .19600001 L .34300003 .651 C .34300003 .671 .34300003 .67700007 .32700003 .67700007 C .31800003 .67700007 .31500004 .67700007 .307 .665 L 0 .19600001 L 0 .165 L .266 .165 M .272 .19600001 L .028 .19600001 L .272 .569 L .272 .19600001 Z "/>
</symbol>
<use xlink:href="#font_1_4" transform="matrix(9.9626,0,0,-9.9626,11.347953,165.318)"/>
<use xlink:href="#font_0_1" transform="matrix(9.9626,0,0,-9.9626,52.713899,163.0266)"/>
<symbol id="font_1_3">
<path d="M .07700001 .07700001 L .18300002 .18 C .33900003 .31800003 .39900003 .372 .39900003 .47200004 C .39900003 .586 .30900003 .666 .18700002 .666 C .074 .666 0 .574 0 .485 C 0 .42900003 .05 .42900003 .053000008 .42900003 C .07000001 .42900003 .105000007 .441 .105000007 .48200003 C .105000007 .508 .08700001 .53400006 .052000006 .53400006 C .044000005 .53400006 .042000008 .53400006 .039 .53300008 C .062000004 .59800007 .11600001 .63500007 .17400001 .63500007 C .26500003 .63500007 .308 .554 .308 .47200004 C .308 .39200003 .25800003 .31300003 .20300003 .25100003 L .011000004 .037 C 0 .026 0 .024 0 0 L .37100003 0 L .39900003 .17400001 L .374 .17400001 C .36900003 .14400001 .36200003 .1 .352 .085 C .345 .07700001 .279 .07700001 .257 .07700001 L .07700001 .07700001 Z "/>
</symbol>
<use xlink:href="#font_1_3" transform="matrix(9.9626,0,0,-9.9626,60.134134,165.318)"/>
<use xlink:href="#font_1_3" transform="matrix(9.9626,0,0,-9.9626,153.39313,165.318)"/>
<use xlink:href="#font_1_4" transform="matrix(9.9626,0,0,-9.9626,201.74095,165.318)"/>
<use xlink:href="#font_1_3" transform="matrix(9.9626,0,0,-9.9626,96.690128,127.118)"/>
<use xlink:href="#font_1_4" transform="matrix(9.9626,0,0,-9.9626,96.47095,97.772998)"/>
<symbol id="font_1_5">
<path d="M .089999999 .35000003 L .089999999 .37400005 C .089999999 .62700006 .21400002 .66300007 .26500003 .66300007 C .28900004 .66300007 .33100004 .65700009 .35300002 .623 C .33800004 .623 .298 .623 .298 .57800009 C .298 .54700008 .32200004 .53200009 .344 .53200009 C .36 .53200009 .39000003 .54100009 .39000003 .58000007 C .39000003 .64000007 .34600003 .688 .263 .688 C .13499999 .688 0 .559 0 .33800004 C 0 .071 .116000007 0 .20900002 0 C .32000003 0 .41500003 .094000007 .41500003 .22600001 C .41500003 .35300005 .32600004 .44900004 .215 .44900004 C .14700002 .44900004 .11000001 .39800004 .089999999 .35000003 M .20900002 .028 C .146 .028 .116000007 .088 .11000001 .103 C .092 .15 .092 .23 .092 .24800001 C .092 .32600004 .124000009 .42600004 .21400002 .42600004 C .23000002 .42600004 .27600003 .42600004 .307 .36400003 C .32500003 .32700003 .32500003 .27600003 .32500003 .22700002 C .32500003 .179 .32500003 .12900001 .30800004 .093 C .27800004 .033000005 .23200003 .028 .20900002 .028 Z "/>
</symbol>
<use xlink:href="#font_1_5" transform="matrix(9.9626,0,0,-9.9626,96.61042,68.64817)"/>
<symbol id="font_1_6">
<path d="M .121 .47900004 C .075 .509 .071 .54300007 .071 .56000009 C .071 .62100008 .136 .66300007 .20700002 .66300007 C .28000004 .66300007 .344 .61100009 .344 .53900006 C .344 .48200003 .305 .43400005 .245 .39900003 L .121 .47900004 M .26700003 .38400004 C .33900003 .42100004 .388 .47300006 .388 .53900006 C .388 .63100007 .29900003 .688 .208 .688 C .108 .688 .027000003 .614 .027000003 .521 C .027000003 .503 .029 .45800004 .071 .41100005 C .082 .39900003 .11900001 .37400005 .144 .35700003 C .086 .32800005 0 .272 0 .17300001 C 0 .067 .102000009 0 .20700002 0 C .32000003 0 .41500003 .083000008 .41500003 .19000001 C .41500003 .22600001 .404 .27100004 .36600004 .31300003 C .34700004 .33400003 .33100004 .34400005 .26700003 .38400004 M .167 .34200005 L .29000003 .26400004 C .31800003 .245 .365 .215 .365 .154 C .365 .080000009 .29000003 .028 .208 .028 C .122 .028 .050000006 .09 .050000006 .17300001 C .050000006 .231 .082 .29500003 .167 .34200005 Z "/>
</symbol>
<use xlink:href="#font_1_6" transform="matrix(9.9626,0,0,-9.9626,96.61042,39.30417)"/>
<symbol id="font_1_2">
<path d="M .205 .64000007 C .205 .66400006 .205 .666 .18200003 .666 C .120000008 .60200008 .032000007 .60200008 0 .60200008 L 0 .57100006 C .020000004 .57100006 .07900001 .57100006 .13100001 .597 L .13100001 .079 C .13100001 .043 .128 .031000002 .038000004 .031000002 L .0060000049 .031000002 L .0060000049 0 C .04100001 .003 .128 .003 .168 .003 C .20800002 .003 .29500003 .003 .33000005 0 L .33000005 .031000002 L .29800005 .031000002 C .20800002 .031000002 .205 .042000005 .205 .079 L .205 .64000007 Z "/>
</symbol>
<symbol id="font_1_1">
<path d="M .421 .34200005 C .421 .42200003 .416 .50200006 .381 .57600006 C .335 .67200008 .25300003 .688 .211 .688 C .15100001 .688 .07800001 .66200008 .037000006 .56900009 C .0050000029 .5 0 .42200003 0 .34200005 C 0 .26700003 .0040000008 .177 .045000007 .101 C .088 .020000002 .161 0 .21000001 0 C .264 0 .34 .021000002 .384 .116000007 C .416 .185 .421 .263 .421 .34200005 M .21000001 .022000002 C .171 .022000002 .112 .047000003 .094 .143 C .083000008 .20300001 .083000008 .29500003 .083000008 .35400004 C .083000008 .41800005 .083000008 .48400004 .091000009 .53800007 C .11 .65700009 .185 .66600009 .21000001 .66600009 C .243 .66600009 .30900003 .64800009 .328 .549 C .338 .49300004 .338 .41700004 .338 .35400004 C .338 .279 .338 .21100001 .32700003 .147 C .312 .052 .255 .022000002 .21000001 .022000002 Z "/>
</symbol>
<use xlink:href="#font_1_2" transform="matrix(9.9626,0,0,-9.9626,92.09767,9.73999)"/>
<use xlink:href="#font_1_1" transform="matrix(9.9626,0,0,-9.9626,96.58084,9.9591679)"/>
<clipPath id="cp2">
<path transform="matrix(1,0,0,-1,9.686,167.924)" d="M 0 0 L 194.26912 0 L 194.26912 161.39575 L 0 161.39575 Z "/>
</clipPath>
<g clip-path="url(#cp2)">
<path transform="matrix(1,0,0,-1,9.686,167.924)" stroke-width="1" stroke-linecap="butt" stroke-miterlimit="10" stroke-linejoin="miter" fill="none" stroke="#000000" d="M 24.31113 542.4791 L 24.77092 535.834 L 25.25821 528.8387 L 25.7455 521.8905 L 26.2328 514.9897 L 26.72008 508.13664 L 27.20738 501.33039 L 27.69467 494.57136 L 28.18196 487.85954 L 28.66925 481.195 L 29.15656 474.5778 L 29.64383 468.00785 L 30.13113 461.48515 L 30.61842 455.00968 L 31.10571 448.58158 L 31.593 442.2011 L 32.0803 435.8675 L 32.56758 429.58106 L 33.05489 423.342 L 33.54218 417.15013 L 34.02946 411.00556 L 34.51675 404.90827 L 35.00406 398.85816 L 35.49133 392.8554 L 35.97864 386.8999 L 36.46593 380.99208 L 36.95322 375.1311 L 37.4405 369.31736 L 37.92781 363.55088 L 38.41508 357.83168 L 38.90239 352.15974 L 39.38968 346.5351 L 39.87697 340.95777 L 40.36427 335.42759 L 40.85155 329.9447 L 41.33885 324.5095 L 41.82614 319.12117 L 42.31343 313.78016 L 42.80072 308.48634 L 43.28802 303.23979 L 43.7753 298.04054 L 44.2626 292.88847 L 44.7499 287.78379 L 45.23718 282.72627 L 45.72447 277.71607 L 46.21178 272.75349 L 46.69905 267.83784 L 47.18636 262.9694 L 47.67365 258.14823 L 48.16093 253.37433 L 48.64822 248.64774 L 49.13553 243.96842 L 49.6228 239.33629 L 50.1101 234.75145 L 50.5974 230.21389 L 51.08469 225.72399 L 51.57198 221.2809 L 52.05928 216.88521 L 52.54655 212.5367 L 53.03386 208.23548 L 53.52115 203.98154 L 54.00844 199.77478 L 54.49573 195.61533 L 54.98303 191.50324 L 55.47032 187.43827 L 55.95761 183.42066 L 56.4449 179.45059 L 56.93219 175.52745 L 57.4195 171.65169 L 57.90677 167.82305 L 58.39407 164.04177 L 58.88136 160.30767 L 59.36865 156.62096 L 59.85594 152.98145 L 60.34325 149.3892 L 60.83052 145.84444 L 61.31783 142.34677 L 61.80511 138.8963 L 62.2924 135.49312 L 62.7797 132.13722 L 63.267 128.8285 L 63.75427 125.56717 L 64.24158 122.35303 L 64.72887 119.18616 L 65.21616 116.06657 L 65.70345 112.99422 L 66.19075 109.96939 L 66.67802 106.99165 L 67.16533 104.06105 L 67.65262 101.1778 L 68.13991 98.34183 L 68.6272 95.55307 L 69.1145 92.81158 L 69.60178 90.1174 L 70.08908 87.47047 L 70.57639 84.87076 L 71.06366 82.31859 L 71.55096 79.81343 L 72.03824 77.35556 L 72.52554 74.94499 L 73.01283 72.58159 L 73.50012 70.26555 L 73.98741 67.99675 L 74.47472 65.77522 L 74.96199 63.60095 L 75.4493 61.47394 L 75.93658 59.3942 L 76.42387 57.36172 L 76.91116 55.37653 L 77.39847 53.43858 L 77.88576 51.5479 L 78.37305 49.70448 L 78.86035 47.90833 L 79.34763 46.15945 L 79.83493 44.45782 L 80.32222 42.80347 L 80.80951 41.19638 L 81.2968 39.63658 L 81.7841 38.124 L 82.27138 36.6587 L 82.75868 35.24069 L 83.24597 33.86992 L 83.73326 32.54645 L 84.22055 31.2702 L 84.70786 30.04126 L 85.19514 28.85953 L 85.68243 27.7251 L 86.16974 26.63794 L 86.65701 25.59802 L 87.14432 24.6054 L 87.63159 23.66 L 88.1189 22.7619 L 88.60619 21.91106 L 89.09348 21.10748 L 89.58078 20.35117 L 90.06807 19.6421 L 90.55536 18.98033 L 91.04265 18.36581 L 91.52995 17.79854 L 92.01723 17.27856 L 92.50453 16.80586 L 92.99182 16.3804 L 93.47911 16.00218 L 93.9664 15.67126 L 94.4537 15.3876 L 94.941 15.15121 L 95.42828 14.96207 L 95.91559 14.8202 L 96.40286 14.72562 L 96.89017 14.67827 L 97.37746 14.67819 L 97.86475 14.72539 L 98.35204 14.81984 L 98.83934 14.96158 L 99.32661 15.15056 L 99.81392 15.38683 L 100.30121 15.67035 L 100.7885 16.00111 L 101.2758 16.37918 L 101.76309 16.80449 L 102.25038 17.27705 L 102.73767 17.79692 L 103.22496 18.36403 L 103.71225 18.97841 L 104.19955 19.64005 L 104.68683 20.34895 L 105.17413 21.10512 L 105.66142 21.90855 L 106.14871 22.75926 L 106.636 23.65721 L 107.1233 24.60243 L 107.6106 25.59496 L 108.09789 26.6347 L 108.58519 27.72174 L 109.07246 28.85602 L 109.55977 30.03758 L 110.04706 31.2664 L 110.53435 32.54248 L 111.02164 33.86584 L 111.50894 35.23647 L 111.99622 36.65434 L 112.48352 38.1195 L 112.97083 39.63191 L 113.4581 41.19159 L 113.9454 42.79855 L 114.4327 44.45274 L 114.91998 46.15424 L 115.40727 47.90295 L 115.89458 49.69896 L 116.38185 51.54222 L 116.86916 53.43277 L 117.35645 55.37057 L 117.84373 57.35564 L 118.33104 59.38799 L 118.81831 61.46756 L 119.30562 63.59442 L 119.79291 65.76855 L 120.2802 67.98993 L 120.76749 70.25859 L 121.25479 72.57452 L 121.74207 74.93773 L 122.22937 77.34814 L 122.71666 79.80591 L 123.20395 82.3109 L 123.69124 84.86316 L 124.17854 87.46251 L 124.66582 90.10934 L 125.15312 92.80336 L 125.64041 95.54465 L 126.1277 98.33325 L 126.61499 101.16911 L 127.1023 104.05226 L 127.58957 106.9826 L 128.07688 109.96025 L 128.56417 112.98517 L 129.05146 116.05719 L 129.53874 119.17659 L 130.02605 122.34335 L 130.51332 125.55731 L 131.00063 128.81856 L 131.48792 132.12709 L 131.9752 135.4828 L 132.46251 138.88591 L 132.9498 142.33621 L 133.43709 145.83379 L 133.92438 149.37837 L 134.41167 152.97043 L 134.89896 156.60977 L 135.38626 160.29639 L 135.87354 164.0303 L 136.36084 167.81148 L 136.84813 171.63997 L 137.33542 175.51564 L 137.82271 179.43859 L 138.31002 183.40883 L 138.79729 187.426 L 139.28459 191.49079 L 139.77188 195.60279 L 140.25917 199.76207 L 140.74646 203.96863 L 141.23377 208.22249 L 141.72104 212.52353 L 142.20835 216.87186 L 142.69564 221.26747 L 143.18292 225.71036 L 143.67021 230.2002 L 144.15752 234.73757 L 144.64479 239.32233 L 145.1321 243.95426 L 145.61939 248.63339 L 146.10668 253.35991 L 146.59397 258.1337 L 147.08127 262.9547 L 147.56856 267.82295 L 148.05585 272.73854 L 148.54315 277.70127 L 149.03043 282.71095 L 149.51773 287.76826 L 150.005 292.87287 L 150.49231 298.02479 L 150.9796 303.2239 L 151.46689 308.47029 L 151.95418 313.76396 L 152.44149 319.10487 L 152.92876 324.4931 L 153.41606 329.9285 L 153.90335 335.41084 L 154.39064 340.9408 L 154.87793 346.51808 L 155.36524 352.14256 L 155.85251 357.8144 L 156.33982 363.5334 L 156.8271 369.2997 L 157.31439 375.1133 L 157.80168 380.97419 L 158.28899 386.88224 L 158.77626 392.83723 L 159.26357 398.83988 L 159.75086 404.8897 L 160.23815 410.9869 L 160.72544 417.13133 L 161.21274 423.3231 L 161.70001 429.56208 L 162.18732 435.8483 L 162.67462 442.18177 L 163.1619 448.5626 L 163.6492 454.99009 L 164.13649 461.46537 L 164.62378 467.98796 L 165.11107 474.5577 L 165.59836 481.17488 L 166.08565 487.83924 L 166.57295 494.55085 L 167.06023 501.30979 L 167.54753 508.11589 L 168.03482 514.96939 L 168.52211 521.8695 L 169.0094 528.81747 L 169.4967 535.8126 L 169.95648 542.4576 "/>
</g>
<symbol id="font_3_1">
<path d="M .305 .31300003 C .311 .33900003 .334 .43100003 .404 .43100003 C .409 .43100003 .433 .43100003 .454 .418 C .426 .41300003 .40600003 .388 .40600003 .36400003 C .40600003 .34800003 .417 .32900004 .444 .32900004 C .46600003 .32900004 .498 .34700004 .498 .38700003 C .498 .43900005 .439 .45300005 .405 .45300005 C .347 .45300005 .312 .40000005 .3 .37700004 C .275 .44300003 .221 .45300005 .19200002 .45300005 C .08800001 .45300005 .031000002 .32400004 .031000002 .29900003 C .031000002 .28900004 .041 .28900004 .043000007 .28900004 C .051000008 .28900004 .054000006 .291 .056 .3 C .09 .40600003 .156 .43100003 .19000001 .43100003 C .209 .43100003 .244 .42200003 .244 .36400003 C .244 .33300004 .22700002 .26600004 .19000001 .126 C .17400001 .064 .13900002 .022000002 .095000009 .022000002 C .08900001 .022000002 .06600001 .022000002 .045 .035 C .07000001 .040000004 .09200001 .061 .09200001 .089 C .09200001 .116000007 .07000001 .124000009 .055000009 .124000009 C .025 .124000009 0 .098000008 0 .06600001 C 0 .020000002 .050000006 0 .094000007 0 C .16000001 0 .19600001 .07000001 .19900002 .076000008 C .21100001 .039 .24700003 0 .307 0 C .41 0 .467 .12900001 .467 .15400002 C .467 .16400002 .458 .16400002 .455 .16400002 C .446 .16400002 .444 .16000001 .442 .15300001 C .409 .046 .341 .022000002 .30900003 .022000002 C .27 .022000002 .254 .054 .254 .08800001 C .254 .11000001 .26 .13200002 .271 .17600002 L .305 .31300003 Z "/>
</symbol>
<use xlink:href="#font_3_1" transform="matrix(9.9626,0,0,-9.9626,201.39392,148.37358)"/>
<symbol id="font_3_2">
<path d="M .45700003 .586 C .461 .6 .461 .602 .461 .609 C .461 .62700006 .447 .63600006 .432 .63600006 C .42200003 .63600006 .40600003 .63 .397 .615 C .395 .61 .387 .579 .38300003 .561 C .37600003 .535 .36900003 .508 .363 .48100005 L .318 .301 C .314 .286 .271 .21600002 .20500002 .21600002 C .15400002 .21600002 .143 .26000003 .143 .29700003 C .143 .34300003 .16000001 .40500004 .194 .49300004 C .21000001 .53400006 .21400002 .545 .21400002 .56500008 C .21400002 .61 .18200001 .6470001 .13200002 .6470001 C .037 .6470001 0 .50200006 0 .49300004 C 0 .48300005 .01 .48300005 .012 .48300005 C .022000002 .48300005 .023 .485 .028000003 .50100007 C .055000009 .595 .095000009 .625 .12900001 .625 C .13700001 .625 .15400002 .625 .15400002 .59300008 C .15400002 .568 .14400001 .54200008 .13700001 .523 C .097 .41700004 .079 .36 .079 .31300003 C .079 .224 .142 .194 .201 .194 C .24000003 .194 .274 .21100001 .30200003 .23900002 C .289 .187 .277 .13800001 .237 .08500001 C .21100001 .051 .17300001 .022 .127 .022 C .113000009 .022 .068 .025000006 .051000008 .06400001 C .067 .06400001 .080000009 .06400001 .094000007 .076000008 C .104 .08500001 .11400001 .098000008 .11400001 .117000009 C .11400001 .148 .087000008 .15200001 .07700001 .15200001 C .054000006 .15200001 .021 .136 .021 .087000008 C .021 .037 .065000008 0 .127 0 C .23 0 .333 .091000009 .361 .20400001 L .45700003 .586 Z "/>
</symbol>
<use xlink:href="#font_3_2" transform="matrix(9.9626,0,0,-9.9626,110.627918,9.748327)"/>
</svg>
