<?xml version="1.0" encoding="UTF-8" standalone="no"?>
<!DOCTYPE svg PUBLIC "-//W3C//DTD SVG 1.1//EN" "http://www.w3.org/Graphics/SVG/1.1/DTD/svg11.dtd">
<svg xmlns="http://www.w3.org/2000/svg" xmlns:xlink="http://www.w3.org/1999/xlink" version="1.1" width="200.63pt" height="168.015pt" viewBox="0 0 200.63 168.015">
<path transform="matrix(1,0,0,-1,.199,167.816)" stroke-width="1" stroke-linecap="butt" stroke-miterlimit="10" stroke-linejoin="miter" fill="none" stroke="#808080" d="M 0 79.27469 L 0 82.1095 M 6.47552 79.27469 L 6.47552 82.1095 M 12.95107 79.27469 L 12.95107 82.1095 M 25.90213 79.27469 L 25.90213 82.1095 M 32.37767 79.27469 L 32.37767 82.1095 M 38.8532 79.27469 L 38.8532 82.1095 M 45.32874 79.27469 L 45.32874 82.1095 M 51.80428 79.27469 L 51.80428 82.1095 M 64.75534 79.27469 L 64.75534 82.1095 M 71.23088 79.27469 L 71.23088 82.1095 M 77.7064 79.27469 L 77.7064 82.1095 M 84.18195 79.27469 L 84.18195 82.1095 M 90.65749 79.27469 L 90.65749 82.1095 M 103.60857 79.27469 L 103.60857 82.1095 M 110.0841 79.27469 L 110.0841 82.1095 M 116.55963 79.27469 L 116.55963 82.1095 M 123.03517 79.27469 L 123.03517 82.1095 M 129.51071 79.27469 L 129.51071 82.1095 M 142.46178 79.27469 L 142.46178 82.1095 M 148.93732 79.27469 L 148.93732 82.1095 M 155.41284 79.27469 L 155.41284 82.1095 M 161.88838 79.27469 L 161.88838 82.1095 M 168.36392 79.27469 L 168.36392 82.1095 M 181.31499 79.27469 L 181.31499 82.1095 M 187.79053 79.27469 L 187.79053 82.1095 M 194.26605 79.27469 L 194.26605 82.1095 "/>
<path transform="matrix(1,0,0,-1,.199,167.816)" stroke-width="1" stroke-linecap="butt" stroke-miterlimit="10" stroke-linejoin="miter" fill="none" stroke="#808080" d="M 19.4266 78.56621 L 19.4266 82.81796 M 58.27982 78.56621 L 58.27982 82.81796 M 135.98625 78.56621 L 135.98625 82.81796 M 174.83946 78.56621 L 174.83946 82.81796 "/>
<path transform="matrix(1,0,0,-1,.199,167.816)" stroke-width="1" stroke-linecap="butt" stroke-miterlimit="10" stroke-linejoin="miter" fill="none" stroke="#808080" d="M 95.71562 0 L 98.55045 0 M 95.71562 5.37946 L 98.55045 5.37946 M 95.71562 10.75894 L 98.55045 10.75894 M 95.71562 21.51788 L 98.55045 21.51788 M 95.71562 26.89735 L 98.55045 26.89735 M 95.71562 32.27682 L 98.55045 32.27682 M 95.71562 37.6563 L 98.55045 37.6563 M 95.71562 43.03578 L 98.55045 43.03578 M 95.71562 53.79472 L 98.55045 53.79472 M 95.71562 59.1742 L 98.55045 59.1742 M 95.71562 64.55367 L 98.55045 64.55367 M 95.71562 69.93314 L 98.55045 69.93314 M 95.71562 75.31262 L 98.55045 75.31262 M 95.71562 86.07156 L 98.55045 86.07156 M 95.71562 91.45103 L 98.55045 91.45103 M 95.71562 96.8305 L 98.55045 96.8305 M 95.71562 102.20998 L 98.55045 102.20998 M 95.71562 107.58946 L 98.55045 107.58946 M 95.71562 118.3484 L 98.55045 118.3484 M 95.71562 123.72787 L 98.55045 123.72787 M 95.71562 129.10735 L 98.55045 129.10735 M 95.71562 134.48682 L 98.55045 134.48682 M 95.71562 139.8663 L 98.55045 139.8663 M 95.71562 150.62525 L 98.55045 150.62525 M 95.71562 156.00472 L 98.55045 156.00472 M 95.71562 161.38419 L 98.55045 161.38419 "/>
<path transform="matrix(1,0,0,-1,.199,167.816)" stroke-width="1" stroke-linecap="butt" stroke-miterlimit="10" stroke-linejoin="miter" fill="none" stroke="#808080" d="M 95.00711 16.13841 L 99.25894 16.13841 M 95.00711 48.41525 L 99.25894 48.41525 M 95.00711 112.96893 L 99.25894 112.96893 M 95.00711 145.24578 L 99.25894 145.24578 "/>
<path transform="matrix(1,0,0,-1,.199,167.816)" stroke-width="1" stroke-linecap="butt" stroke-miterlimit="10" stroke-linejoin="miter" fill="none" stroke="#000000" d="M 0 80.6921 L 192.27355 80.6921 "/>
<path transform="matrix(1,0,0,-1,192.47255,87.12389)" d="M 1.99252 0 L -1.19551 1.59401 L 0 0 L -1.19551 -1.59401 "/>
<path transform="matrix(1,0,0,-1,.199,167.816)" stroke-width="1" stroke-linecap="butt" stroke-miterlimit="10" stroke-linejoin="miter" fill="none" stroke="#000000" d="M 97.13303 0 L 97.13303 159.39168 "/>
<path transform="matrix(0,-1,-1,-0,97.33203,8.424316)" d="M 1.99252 0 L -1.19551 1.59401 L 0 0 L -1.19551 -1.59401 "/>
<symbol id="font_0_1">
<path d="M .57600006 0 C .59300008 0 .611 0 .611 .019999996 C .611 .040000008 .59300008 .040000008 .57600006 .040000008 L .035000005 .040000008 C .018 .040000008 0 .040000008 0 .019999996 C 0 0 .018 0 .035000005 0 L .57600006 0 Z "/>
</symbol>
<use xlink:href="#font_0_1" transform="matrix(9.9626,0,0,-9.9626,14.087896,96.89959)"/>
<symbol id="font_1_2">
<path d="M .266 .165 L .266 .078 C .266 .042000005 .26400004 .031000002 .19000001 .031000002 L .16900002 .031000002 L .16900002 0 C .21000001 .003 .26200003 .003 .30400003 .003 C .34600003 .003 .39900003 .003 .44000004 0 L .44000004 .031000002 L .41900004 .031000002 C .34500004 .031000002 .34300003 .042000005 .34300003 .078 L .34300003 .165 L .44300003 .165 L .44300003 .19600001 L .34300003 .19600001 L .34300003 .651 C .34300003 .671 .34300003 .67700007 .32700003 .67700007 C .31800003 .67700007 .31500004 .67700007 .307 .665 L 0 .19600001 L 0 .165 L .266 .165 M .272 .19600001 L .028 .19600001 L .272 .569 L .272 .19600001 Z "/>
</symbol>
<use xlink:href="#font_1_2" transform="matrix(9.9626,0,0,-9.9626,21.287953,99.19099)"/>
<use xlink:href="#font_0_1" transform="matrix(9.9626,0,0,-9.9626,52.9399,96.89959)"/>
<symbol id="font_1_1">
<path d="M .07700001 .07700001 L .18300002 .18 C .33900003 .31800003 .39900003 .372 .39900003 .47200004 C .39900003 .586 .30900003 .666 .18700002 .666 C .074 .666 0 .574 0 .485 C 0 .42900003 .05 .42900003 .053000008 .42900003 C .07000001 .42900003 .105000007 .441 .105000007 .48200003 C .105000007 .508 .08700001 .53400006 .052000006 .53400006 C .044000005 .53400006 .042000008 .53400006 .039 .53300008 C .062000004 .59800007 .11600001 .63500007 .17400001 .63500007 C .26500003 .63500007 .308 .554 .308 .47200004 C .308 .39200003 .25800003 .31300003 .20300003 .25100003 L .011000004 .037 C 0 .026 0 .024 0 0 L .37100003 0 L .39900003 .17400001 L .374 .17400001 C .36900003 .14400001 .36200003 .1 .352 .085 C .345 .07700001 .279 .07700001 .257 .07700001 L .07700001 .07700001 Z "/>
</symbol>
<use xlink:href="#font_1_1" transform="matrix(9.9626,0,0,-9.9626,60.360136,99.19099)"/>
<use xlink:href="#font_1_1" transform="matrix(9.9626,0,0,-9.9626,134.19113,99.19099)"/>
<use xlink:href="#font_1_2" transform="matrix(9.9626,0,0,-9.9626,172.82495,99.19099)"/>
<use xlink:href="#font_0_1" transform="matrix(9.9626,0,0,-9.9626,79.78189,152.1816)"/>
<use xlink:href="#font_1_2" transform="matrix(9.9626,0,0,-9.9626,86.98295,154.47299)"/>
<use xlink:href="#font_0_1" transform="matrix(9.9626,0,0,-9.9626,79.78189,119.9046)"/>
<use xlink:href="#font_1_1" transform="matrix(9.9626,0,0,-9.9626,87.202129,122.196)"/>
<use xlink:href="#font_1_1" transform="matrix(9.9626,0,0,-9.9626,87.202129,58.058984)"/>
<use xlink:href="#font_1_2" transform="matrix(9.9626,0,0,-9.9626,86.98295,25.781998)"/>
<clipPath id="cp2">
<path transform="matrix(1,0,0,-1,.199,167.816)" d="M 0 0 L 194.26607 0 L 194.26607 161.3842 L 0 161.3842 Z "/>
</clipPath>
<g clip-path="url(#cp2)">
<path transform="matrix(1,0,0,-1,.199,167.816)" stroke-width="1" stroke-linecap="butt" stroke-miterlimit="10" stroke-linejoin="miter" fill="none" stroke="#000000" d="M 19.7755 92.71266 L 19.94637 92.61838 L 20.46614 92.32352 L 20.98592 92.01965 L 21.50569 91.70866 L 22.02545 91.3888 L 22.54523 91.0623 L 23.065 90.72743 L 23.58476 90.38579 L 24.10454 90.0372 L 24.62431 89.68182 L 25.14407 89.32 L 25.66385 88.95221 L 26.18364 88.5783 L 26.70341 88.19856 L 27.22318 87.81398 L 27.74295 87.42406 L 28.26273 87.02933 L 28.78249 86.62973 L 29.30226 86.22661 L 29.82204 85.81862 L 30.3418 85.40756 L 30.86157 84.99298 L 31.38135 84.57532 L 31.90112 84.1549 L 32.42088 83.73209 L 32.94067 83.30684 L 33.46045 82.87997 L 33.98021 82.45134 L 34.49998 82.02156 L 35.01976 81.591 L 35.53952 81.15945 L 36.0593 80.72775 L 36.57907 80.29637 L 37.09885 79.86516 L 37.6186 79.43425 L 38.13838 79.00432 L 38.65816 78.57553 L 39.17792 78.14835 L 39.69771 77.72278 L 40.21748 77.29947 L 40.73724 76.8789 L 41.25702 76.46059 L 41.7768 76.04535 L 42.29657 75.6335 L 42.81633 75.2252 L 43.3361 74.82126 L 43.85588 74.42102 L 44.37564 74.02547 L 44.89542 73.63475 L 45.41519 73.24905 L 45.93497 72.86818 L 46.45474 72.49377 L 46.97452 72.12468 L 47.4943 71.7622 L 48.01405 71.40572 L 48.53383 71.056 L 49.0536 70.71321 L 49.57336 70.37737 L 50.09314 70.04913 L 50.61292 69.72812 L 51.13268 69.41537 L 51.65245 69.11052 L 52.17223 68.81421 L 52.69202 68.52599 L 53.21178 68.24695 L 53.73155 67.97614 L 54.25133 67.71518 L 54.77109 67.46294 L 55.29086 67.22086 L 55.81064 66.98766 L 56.33041 66.76479 L 56.85017 66.5516 L 57.36995 66.34859 L 57.88972 66.15605 L 58.40948 65.97353 L 58.92926 65.80197 L 59.44905 65.64058 L 59.96881 65.49066 L 60.48859 65.35057 L 61.00836 65.22276 L 61.52814 65.1048 L 62.0479 64.99892 L 62.56767 64.90355 L 63.08745 64.82011 L 63.60721 64.74765 L 64.12698 64.68697 L 64.64676 64.6371 L 65.16652 64.59966 L 65.68631 64.57303 L 66.20609 64.55788 L 66.72586 64.55463 L 67.24562 64.5627 L 67.7654 64.5827 L 68.28517 64.61371 L 68.80493 64.65663 L 69.3247 64.7102 L 69.84448 64.7767 L 70.36424 64.85335 L 70.88402 64.94196 L 71.4038 65.04153 L 71.92357 65.15256 L 72.44334 65.27441 L 72.96312 65.4077 L 73.4829 65.5515 L 74.00266 65.70644 L 74.52243 65.87218 L 75.0422 66.04793 L 75.56197 66.2348 L 76.08174 66.43153 L 76.60152 66.63924 L 77.12129 66.85582 L 77.64105 67.0837 L 78.16083 67.3198 L 78.6806 67.56703 L 79.20038 67.82251 L 79.72015 68.08815 L 80.23993 68.36201 L 80.75969 68.64493 L 81.27946 68.93622 L 81.79924 69.23639 L 82.31902 69.5448 L 82.83878 69.86063 L 83.35855 70.18468 L 83.87833 70.516 L 84.3981 70.85475 L 84.91788 71.20027 L 85.43765 71.55338 L 85.95743 71.91165 L 86.47719 72.27751 L 86.99696 72.6487 L 87.51674 73.02634 L 88.0365 73.40866 L 88.55627 73.79678 L 89.07605 74.1896 L 89.59583 74.58691 L 90.1156 74.98877 L 90.63538 75.39449 L 91.15515 75.8044 L 91.67491 76.21771 L 92.19469 76.63408 L 92.71446 77.05319 L 93.23422 77.47522 L 93.754 77.89966 L 94.27377 78.32555 L 94.79353 78.75354 L 95.31332 79.18283 L 95.8331 79.61324 L 96.35287 80.04445 L 96.87263 80.47583 L 97.39241 80.90753 L 97.91219 81.33891 L 98.43195 81.77013 L 98.95172 82.2004 L 99.4715 82.62967 L 99.99127 83.05766 L 100.51105 83.48387 L 101.03082 83.90814 L 101.5506 84.33 L 102.07036 84.74928 L 102.59013 85.16565 L 103.10991 85.57896 L 103.62967 85.98872 L 104.14944 86.39474 L 104.66924 86.79645 L 105.189 87.19394 L 105.70877 87.58673 L 106.22855 87.97455 L 106.74832 88.3572 L 107.26808 88.73466 L 107.78786 89.10585 L 108.30763 89.47139 L 108.8274 89.8303 L 109.34717 90.18309 L 109.86694 90.52861 L 110.38672 90.86752 L 110.9065 91.199 L 111.42627 91.52306 L 111.94604 91.8389 L 112.4658 92.14731 L 112.98558 92.44731 L 113.50536 92.73877 L 114.02512 93.02167 L 114.54489 93.29587 L 115.06468 93.56119 L 115.58444 93.81667 L 116.10422 94.06389 L 116.624 94.30032 L 117.14377 94.52788 L 117.66353 94.74477 L 118.1833 94.952 L 118.70308 95.14888 L 119.22284 95.33609 L 119.74261 95.51152 L 120.26239 95.67758 L 120.78217 95.83218 L 121.30193 95.97647 L 121.82172 96.10944 L 122.34149 96.23112 L 122.86125 96.34264 L 123.38103 96.4419 L 123.9008 96.53082 L 124.42056 96.60747 L 124.94034 96.67365 L 125.46011 96.72722 L 125.97989 96.77046 L 126.49965 96.80113 L 127.01942 96.82147 L 127.5392 96.82954 L 128.05898 96.82631 L 128.57875 96.8113 L 129.09853 96.78468 L 129.61829 96.74707 L 130.13806 96.6972 L 130.65784 96.63669 L 131.17761 96.56422 L 131.69738 96.48079 L 132.21715 96.38557 L 132.73693 96.27986 L 133.25669 96.16173 L 133.77646 96.03392 L 134.29624 95.894 L 134.81601 95.74408 L 135.33579 95.58252 L 135.85556 95.41081 L 136.37534 95.2286 L 136.8951 95.03607 L 137.41487 94.8329 L 137.93465 94.61987 L 138.4544 94.397 L 138.97418 94.1638 L 139.49396 93.92155 L 140.01372 93.66931 L 140.5335 93.40836 L 141.05327 93.13771 L 141.57306 92.85867 L 142.09282 92.57028 L 142.6126 92.27414 L 143.13237 91.96928 L 143.65213 91.65654 L 144.1719 91.33586 L 144.69168 91.00761 L 145.21144 90.67177 L 145.73122 90.32898 L 146.25099 89.97926 L 146.77077 89.62277 L 147.29053 89.26015 L 147.81032 88.89105 L 148.3301 88.5168 L 148.84986 88.13577 L 149.36963 87.75021 L 149.8894 87.35934 L 150.40918 86.96396 L 150.92894 86.56372 L 151.44872 86.15962 L 151.96849 85.75148 L 152.48825 85.33963 L 153.00803 84.9244 L 153.5278 84.50624 L 154.04756 84.08568 L 154.56735 83.6622 L 155.08713 83.2368 L 155.6069 82.8096 L 156.12667 82.38066 L 156.64644 81.95073 L 157.16622 81.52031 L 157.68598 81.08861 L 158.20575 80.65707 L 158.72553 80.22568 L 159.24529 79.79398 L 159.76506 79.36357 L 160.28484 78.93365 L 160.80461 78.50517 L 161.32439 78.07814 L 161.84416 77.65306 L 162.36394 77.23024 L 162.8837 76.81 L 163.40348 76.39232 L 163.92325 75.97742 L 164.44301 75.56602 L 164.96279 75.15854 L 165.48256 74.7554 L 166.00234 74.35582 L 166.5221 73.96107 L 167.04187 73.57117 L 167.56165 73.18626 L 168.08142 72.80637 L 168.6012 72.43245 L 169.12097 72.0648 L 169.64073 71.70316 L 170.1605 71.34778 L 170.68029 70.99887 L 171.20006 70.65755 L 171.71982 70.32234 L 172.2396 69.99586 L 172.75937 69.676 L 173.27913 69.365 L 173.7989 69.06113 L 174.3187 68.76628 L 174.48957 68.672 "/>
<path transform="matrix(-.87553,-.4831,-.4831,.87553,19.80004,75.007099)" stroke-width="1" stroke-linecap="round" stroke-linejoin="round" fill="none" stroke="#000000" d="M -2.07224 2.39104 C -1.69365 .95639 -.84999 .27895 0 0 C -.84999 -.27895 -1.69365 -.95639 -2.07224 -2.39104 "/>
<path transform="matrix(.87553,.4831,.4831,-.87553,174.86302,99.24026)" stroke-width="1" stroke-linecap="round" stroke-linejoin="round" fill="none" stroke="#000000" d="M -2.07224 2.39104 C -1.69365 .95639 -.84999 .27895 0 0 C -.84999 -.27895 -1.69365 -.95639 -2.07224 -2.39104 "/>
</g>
<symbol id="font_3_1">
<path d="M .305 .31300003 C .311 .33900003 .334 .43100003 .404 .43100003 C .409 .43100003 .433 .43100003 .454 .418 C .426 .41300003 .40600003 .388 .40600003 .36400003 C .40600003 .34800003 .417 .32900004 .444 .32900004 C .46600003 .32900004 .498 .34700004 .498 .38700003 C .498 .43900005 .439 .45300005 .405 .45300005 C .347 .45300005 .312 .40000005 .3 .37700004 C .275 .44300003 .221 .45300005 .19200002 .45300005 C .08800001 .45300005 .031000002 .32400004 .031000002 .29900003 C .031000002 .28900004 .041 .28900004 .043000007 .28900004 C .051000008 .28900004 .054000006 .291 .056 .3 C .09 .40600003 .156 .43100003 .19000001 .43100003 C .209 .43100003 .244 .42200003 .244 .36400003 C .244 .33300004 .22700002 .26600004 .19000001 .126 C .17400001 .064 .13900002 .022000002 .095000009 .022000002 C .08900001 .022000002 .06600001 .022000002 .045 .035 C .07000001 .040000004 .09200001 .061 .09200001 .089 C .09200001 .116000007 .07000001 .124000009 .055000009 .124000009 C .025 .124000009 0 .098000008 0 .06600001 C 0 .020000002 .050000006 0 .094000007 0 C .16000001 0 .19600001 .07000001 .19900002 .076000008 C .21100001 .039 .24700003 0 .307 0 C .41 0 .467 .12900001 .467 .15400002 C .467 .16400002 .458 .16400002 .455 .16400002 C .446 .16400002 .444 .16000001 .442 .15300001 C .409 .046 .341 .022000002 .30900003 .022000002 C .27 .022000002 .254 .054 .254 .08800001 C .254 .11000001 .26 .13200002 .271 .17600002 L .305 .31300003 Z "/>
</symbol>
<use xlink:href="#font_3_1" transform="matrix(9.9626,0,0,-9.9626,191.90493,83.714588)"/>
<symbol id="font_3_2">
<path d="M .45700003 .586 C .461 .6 .461 .602 .461 .609 C .461 .62700006 .447 .63600006 .432 .63600006 C .42200003 .63600006 .40600003 .63 .397 .615 C .395 .61 .387 .579 .38300003 .561 C .37600003 .535 .36900003 .508 .363 .48100005 L .318 .301 C .314 .286 .271 .21600002 .20500002 .21600002 C .15400002 .21600002 .143 .26000003 .143 .29700003 C .143 .34300003 .16000001 .40500004 .194 .49300004 C .21000001 .53400006 .21400002 .545 .21400002 .56500008 C .21400002 .61 .18200001 .6470001 .13200002 .6470001 C .037 .6470001 0 .50200006 0 .49300004 C 0 .48300005 .01 .48300005 .012 .48300005 C .022000002 .48300005 .023 .485 .028000003 .50100007 C .055000009 .595 .095000009 .625 .12900001 .625 C .13700001 .625 .15400002 .625 .15400002 .59300008 C .15400002 .568 .14400001 .54200008 .13700001 .523 C .097 .41700004 .079 .36 .079 .31300003 C .079 .224 .142 .194 .201 .194 C .24000003 .194 .274 .21100001 .30200003 .23900002 C .289 .187 .277 .13800001 .237 .08500001 C .21100001 .051 .17300001 .022 .127 .022 C .113000009 .022 .068 .025000006 .051000008 .06400001 C .067 .06400001 .080000009 .06400001 .094000007 .076000008 C .104 .08500001 .11400001 .098000008 .11400001 .117000009 C .11400001 .148 .087000008 .15200001 .07700001 .15200001 C .054000006 .15200001 .021 .136 .021 .087000008 C .021 .037 .065000008 0 .127 0 C .23 0 .333 .091000009 .361 .20400001 L .45700003 .586 Z "/>
</symbol>
<use xlink:href="#font_3_2" transform="matrix(9.9626,0,0,-9.9626,101.139919,9.652334)"/>
</svg>
