<?xml version="1.0" encoding="UTF-8" standalone="no"?>
<!DOCTYPE svg PUBLIC "-//W3C//DTD SVG 1.1//EN" "http://www.w3.org/Graphics/SVG/1.1/DTD/svg11.dtd">
<svg xmlns="http://www.w3.org/2000/svg" xmlns:xlink="http://www.w3.org/1999/xlink" version="1.1" width="200.63pt" height="168.015pt" viewBox="0 0 200.63 168.015">
<path transform="matrix(1,0,0,-1,.199,167.816)" stroke-width="1" stroke-linecap="butt" stroke-miterlimit="10" stroke-linejoin="miter" fill="none" stroke="#808080" d="M 0 79.27469 L 0 82.1095 M 6.47552 79.27469 L 6.47552 82.1095 M 12.95107 79.27469 L 12.95107 82.1095 M 25.90213 79.27469 L 25.90213 82.1095 M 32.37767 79.27469 L 32.37767 82.1095 M 38.8532 79.27469 L 38.8532 82.1095 M 45.32874 79.27469 L 45.32874 82.1095 M 51.80428 79.27469 L 51.80428 82.1095 M 64.75534 79.27469 L 64.75534 82.1095 M 71.23088 79.27469 L 71.23088 82.1095 M 77.7064 79.27469 L 77.7064 82.1095 M 84.18195 79.27469 L 84.18195 82.1095 M 90.65749 79.27469 L 90.65749 82.1095 M 103.60857 79.27469 L 103.60857 82.1095 M 110.0841 79.27469 L 110.0841 82.1095 M 116.55963 79.27469 L 116.55963 82.1095 M 123.03517 79.27469 L 123.03517 82.1095 M 129.51071 79.27469 L 129.51071 82.1095 M 142.46178 79.27469 L 142.46178 82.1095 M 148.93732 79.27469 L 148.93732 82.1095 M 155.41284 79.27469 L 155.41284 82.1095 M 161.88838 79.27469 L 161.88838 82.1095 M 168.36392 79.27469 L 168.36392 82.1095 M 181.31499 79.27469 L 181.31499 82.1095 M 187.79053 79.27469 L 187.79053 82.1095 M 194.26605 79.27469 L 194.26605 82.1095 "/>
<path transform="matrix(1,0,0,-1,.199,167.816)" stroke-width="1" stroke-linecap="butt" stroke-miterlimit="10" stroke-linejoin="miter" fill="none" stroke="#808080" d="M 19.4266 78.56621 L 19.4266 82.81796 M 58.27982 78.56621 L 58.27982 82.81796 M 135.98625 78.56621 L 135.98625 82.81796 M 174.83946 78.56621 L 174.83946 82.81796 "/>
<path transform="matrix(1,0,0,-1,.199,167.816)" stroke-width="1" stroke-linecap="butt" stroke-miterlimit="10" stroke-linejoin="miter" fill="none" stroke="#808080" d="M 95.71562 0 L 98.55045 0 M 95.71562 5.37946 L 98.55045 5.37946 M 95.71562 10.75894 L 98.55045 10.75894 M 95.71562 21.51788 L 98.55045 21.51788 M 95.71562 26.89735 L 98.55045 26.89735 M 95.71562 32.27682 L 98.55045 32.27682 M 95.71562 37.6563 L 98.55045 37.6563 M 95.71562 43.03578 L 98.55045 43.03578 M 95.71562 53.79472 L 98.55045 53.79472 M 95.71562 59.1742 L 98.55045 59.1742 M 95.71562 64.55367 L 98.55045 64.55367 M 95.71562 69.93314 L 98.55045 69.93314 M 95.71562 75.31262 L 98.55045 75.31262 M 95.71562 86.07156 L 98.55045 86.07156 M 95.71562 91.45103 L 98.55045 91.45103 M 95.71562 96.8305 L 98.55045 96.8305 M 95.71562 102.20998 L 98.55045 102.20998 M 95.71562 107.58946 L 98.55045 107.58946 M 95.71562 118.3484 L 98.55045 118.3484 M 95.71562 123.72787 L 98.55045 123.72787 M 95.71562 129.10735 L 98.55045 129.10735 M 95.71562 134.48682 L 98.55045 134.48682 M 95.71562 139.8663 L 98.55045 139.8663 M 95.71562 150.62525 L 98.55045 150.62525 M 95.71562 156.00472 L 98.55045 156.00472 M 95.71562 161.38419 L 98.55045 161.38419 "/>
<path transform="matrix(1,0,0,-1,.199,167.816)" stroke-width="1" stroke-linecap="butt" stroke-miterlimit="10" stroke-linejoin="miter" fill="none" stroke="#808080" d="M 95.00711 16.13841 L 99.25894 16.13841 M 95.00711 48.41525 L 99.25894 48.41525 M 95.00711 112.96893 L 99.25894 112.96893 M 95.00711 145.24578 L 99.25894 145.24578 "/>
<path transform="matrix(1,0,0,-1,.199,167.816)" stroke-width="1" stroke-linecap="butt" stroke-miterlimit="10" stroke-linejoin="miter" fill="none" stroke="#000000" d="M 0 80.6921 L 192.27355 80.6921 "/>
<path transform="matrix(1,0,0,-1,192.47255,87.12389)" d="M 1.99252 0 L -1.19551 1.59401 L 0 0 L -1.19551 -1.59401 "/>
<path transform="matrix(1,0,0,-1,.199,167.816)" stroke-width="1" stroke-linecap="butt" stroke-miterlimit="10" stroke-linejoin="miter" fill="none" stroke="#000000" d="M 97.13303 0 L 97.13303 159.39168 "/>
<path transform="matrix(0,-1,-1,-0,97.33203,8.424316)" d="M 1.99252 0 L -1.19551 1.59401 L 0 0 L -1.19551 -1.59401 "/>
<symbol id="font_0_1">
<path d="M .57600006 0 C .59300008 0 .611 0 .611 .019999996 C .611 .040000008 .59300008 .040000008 .57600006 .040000008 L .035000005 .040000008 C .018 .040000008 0 .040000008 0 .019999996 C 0 0 .018 0 .035000005 0 L .57600006 0 Z "/>
</symbol>
<use xlink:href="#font_0_1" transform="matrix(9.9626,0,0,-9.9626,14.087896,96.89959)"/>
<symbol id="font_1_2">
<path d="M .266 .165 L .266 .078 C .266 .042000005 .26400004 .031000002 .19000001 .031000002 L .16900002 .031000002 L .16900002 0 C .21000001 .003 .26200003 .003 .30400003 .003 C .34600003 .003 .39900003 .003 .44000004 0 L .44000004 .031000002 L .41900004 .031000002 C .34500004 .031000002 .34300003 .042000005 .34300003 .078 L .34300003 .165 L .44300003 .165 L .44300003 .19600001 L .34300003 .19600001 L .34300003 .651 C .34300003 .671 .34300003 .67700007 .32700003 .67700007 C .31800003 .67700007 .31500004 .67700007 .307 .665 L 0 .19600001 L 0 .165 L .266 .165 M .272 .19600001 L .028 .19600001 L .272 .569 L .272 .19600001 Z "/>
</symbol>
<use xlink:href="#font_1_2" transform="matrix(9.9626,0,0,-9.9626,21.287953,99.19099)"/>
<use xlink:href="#font_0_1" transform="matrix(9.9626,0,0,-9.9626,52.9399,96.89959)"/>
<symbol id="font_1_1">
<path d="M .07700001 .07700001 L .18300002 .18 C .33900003 .31800003 .39900003 .372 .39900003 .47200004 C .39900003 .586 .30900003 .666 .18700002 .666 C .074 .666 0 .574 0 .485 C 0 .42900003 .05 .42900003 .053000008 .42900003 C .07000001 .42900003 .105000007 .441 .105000007 .48200003 C .105000007 .508 .08700001 .53400006 .052000006 .53400006 C .044000005 .53400006 .042000008 .53400006 .039 .53300008 C .062000004 .59800007 .11600001 .63500007 .17400001 .63500007 C .26500003 .63500007 .308 .554 .308 .47200004 C .308 .39200003 .25800003 .31300003 .20300003 .25100003 L .011000004 .037 C 0 .026 0 .024 0 0 L .37100003 0 L .39900003 .17400001 L .374 .17400001 C .36900003 .14400001 .36200003 .1 .352 .085 C .345 .07700001 .279 .07700001 .257 .07700001 L .07700001 .07700001 Z "/>
</symbol>
<use xlink:href="#font_1_1" transform="matrix(9.9626,0,0,-9.9626,60.360136,99.19099)"/>
<use xlink:href="#font_1_1" transform="matrix(9.9626,0,0,-9.9626,134.19113,99.19099)"/>
<use xlink:href="#font_1_2" transform="matrix(9.9626,0,0,-9.9626,172.82495,99.19099)"/>
<use xlink:href="#font_0_1" transform="matrix(9.9626,0,0,-9.9626,79.78189,152.1816)"/>
<use xlink:href="#font_1_2" transform="matrix(9.9626,0,0,-9.9626,86.98295,154.47299)"/>
<use xlink:href="#font_0_1" transform="matrix(9.9626,0,0,-9.9626,79.78189,119.9046)"/>
<use xlink:href="#font_1_1" transform="matrix(9.9626,0,0,-9.9626,87.202129,122.196)"/>
<use xlink:href="#font_1_1" transform="matrix(9.9626,0,0,-9.9626,87.202129,58.058984)"/>
<use xlink:href="#font_1_2" transform="matrix(9.9626,0,0,-9.9626,86.98295,25.781998)"/>
<clipPath id="cp2">
<path transform="matrix(1,0,0,-1,.199,167.816)" d="M 0 0 L 194.26607 0 L 194.26607 161.3842 L 0 161.3842 Z "/>
</clipPath>
<g clip-path="url(#cp2)">
<path transform="matrix(1,0,0,-1,.199,167.816)" stroke-width="1" stroke-linecap="butt" stroke-miterlimit="10" stroke-linejoin="miter" fill="none" stroke="#000000" d="M 19.63264 116.99023 L 19.94637 116.47096 L 20.46614 115.58641 L 20.98592 114.67476 L 21.50569 113.7418 L 22.02545 112.78221 L 22.54523 111.80276 L 23.065 110.79816 L 23.58476 109.7732 L 24.10454 108.72743 L 24.62431 107.66132 L 25.14407 106.57585 L 25.66385 105.47247 L 26.18364 104.3507 L 26.70341 103.21149 L 27.22318 102.05774 L 27.74295 100.88803 L 28.26273 99.7038 L 28.78249 98.50502 L 29.30226 97.29562 L 29.82204 96.07167 L 30.3418 94.83853 L 30.86157 93.59476 L 31.38135 92.34177 L 31.90112 91.08055 L 32.42088 89.81206 L 32.94067 88.53633 L 33.46045 87.25575 L 33.98021 85.96983 L 34.49998 84.68053 L 35.01976 83.38882 L 35.53952 82.0942 L 36.0593 80.79909 L 36.57907 79.50494 L 37.09885 78.21129 L 37.6186 76.9186 L 38.13838 75.62881 L 38.65816 74.34242 L 39.17792 73.06088 L 39.69771 71.78416 L 40.21748 70.51424 L 40.73724 69.25253 L 41.25702 67.9976 L 41.7768 66.75188 L 42.29657 65.51633 L 42.81633 64.29143 L 43.3361 63.07959 L 43.85588 61.87889 L 44.37564 60.69221 L 44.89542 59.5201 L 45.41519 58.36298 L 45.93497 57.22038 L 46.45474 56.09714 L 46.97452 54.98988 L 47.4943 53.90247 L 48.01405 52.83298 L 48.53383 51.78381 L 49.0536 50.75548 L 49.57336 49.74796 L 50.09314 48.7632 L 50.61292 47.80022 L 51.13268 46.86192 L 51.65245 45.94734 L 52.17223 45.05846 L 52.69202 44.19376 L 53.21178 43.35666 L 53.73155 42.54425 L 54.25133 41.76138 L 54.77109 41.00464 L 55.29086 40.27841 L 55.81064 39.57881 L 56.33041 38.9102 L 56.85017 38.27065 L 57.36995 37.66158 L 57.88972 37.08397 L 58.40948 36.53639 L 58.92926 36.02174 L 59.44905 35.5376 L 59.96881 35.08781 L 60.48859 34.66757 L 61.00836 34.28412 L 61.52814 33.9302 L 62.0479 33.6126 L 62.56767 33.32646 L 63.08745 33.07617 L 63.60721 32.85878 L 64.12698 32.67674 L 64.64676 32.52713 L 65.16652 32.41481 L 65.68631 32.33492 L 66.20609 32.28941 L 66.72586 32.27972 L 67.24562 32.30394 L 67.7654 32.36397 L 68.28517 32.45692 L 68.80493 32.58572 L 69.3247 32.74646 L 69.84448 32.94594 L 70.36424 33.17589 L 70.88402 33.4417 L 71.4038 33.74042 L 71.92357 34.0735 L 72.44334 34.43906 L 72.96312 34.83896 L 73.4829 35.27034 L 74.00266 35.73514 L 74.52243 36.23236 L 75.0422 36.7596 L 75.56197 37.32024 L 76.08174 37.91043 L 76.60152 38.53352 L 77.12129 39.18326 L 77.64105 39.8669 L 78.16083 40.5752 L 78.6806 41.31691 L 79.20038 42.08334 L 79.72015 42.88026 L 80.23993 43.70186 L 80.75969 44.55058 L 81.27946 45.42448 L 81.79924 46.325 L 82.31902 47.25021 L 82.83878 48.1977 L 83.35855 49.16988 L 83.87833 50.16385 L 84.3981 51.18008 L 84.91788 52.21664 L 85.43765 53.27599 L 85.95743 54.35078 L 86.47719 55.44838 L 86.99696 56.56192 L 87.51674 57.69484 L 88.0365 58.8418 L 88.55627 60.00618 L 89.07605 61.18462 L 89.59583 62.3766 L 90.1156 63.58212 L 90.63538 64.79929 L 91.15515 66.02904 L 91.67491 67.26897 L 92.19469 68.51807 L 92.71446 69.77542 L 93.23422 71.04147 L 93.754 72.3148 L 94.27377 73.59247 L 94.79353 74.87645 L 95.31332 76.16429 L 95.8331 77.45554 L 96.35287 78.74918 L 96.87263 80.04332 L 97.39241 81.33844 L 97.91219 82.63257 L 98.43195 83.92622 L 98.95172 85.21698 L 99.4715 86.5048 L 99.99127 87.7888 L 100.51105 89.06744 L 101.03082 90.34027 L 101.5506 91.60585 L 102.07036 92.86368 L 102.59013 94.1128 L 103.10991 95.3527 L 103.62967 96.58197 L 104.14944 97.8001 L 104.66924 99.00516 L 105.189 100.19763 L 105.70877 101.37605 L 106.22855 102.53947 L 106.74832 103.6874 L 107.26808 104.81984 L 107.78786 105.93338 L 108.30763 107.03 L 108.8274 108.10674 L 109.34717 109.1651 L 109.86694 110.20168 L 110.38672 111.2184 L 110.9065 112.21283 L 111.42627 113.18503 L 111.94604 114.1325 L 112.4658 115.05772 L 112.98558 115.95776 L 113.50536 116.83214 L 114.02512 117.68086 L 114.54489 118.50345 L 115.06468 119.2994 L 115.58444 120.0658 L 116.10422 120.80751 L 116.624 121.51682 L 117.14377 122.19945 L 117.66353 122.85016 L 118.1833 123.47182 L 118.70308 124.06247 L 119.22284 124.6241 L 119.74261 125.15038 L 120.26239 125.64856 L 120.78217 126.11238 L 121.30193 126.54521 L 121.82172 126.94415 L 122.34149 127.3092 L 122.86125 127.64375 L 123.38103 127.9415 L 123.9008 128.20829 L 124.42056 128.43824 L 124.94034 128.63675 L 125.46011 128.79749 L 125.97989 128.92725 L 126.49965 129.01923 L 127.01942 129.08023 L 127.5392 129.10445 L 128.05898 129.09476 L 128.57875 129.04973 L 129.09853 128.96985 L 129.61829 128.85704 L 130.13806 128.70745 L 130.65784 128.52588 L 131.17761 128.30849 L 131.69738 128.0582 L 132.21715 127.77252 L 132.73693 127.45541 L 133.25669 127.10101 L 133.77646 126.71758 L 134.29624 126.29782 L 134.81601 125.84804 L 135.33579 125.3634 L 135.85556 124.84827 L 136.37534 124.30165 L 136.8951 123.72404 L 137.41487 123.1145 L 137.93465 122.47543 L 138.4544 121.80682 L 138.97418 121.10721 L 139.49396 120.3805 L 140.01372 119.62376 L 140.5335 118.8409 L 141.05327 118.02896 L 141.57306 117.19188 L 142.09282 116.32669 L 142.6126 115.43826 L 143.13237 114.5237 L 143.65213 113.58542 L 144.1719 112.62341 L 144.69168 111.63864 L 145.21144 110.63112 L 145.73122 109.60277 L 146.25099 108.5536 L 146.77077 107.48412 L 147.29053 106.39624 L 147.81032 105.28897 L 148.3301 104.16623 L 148.84986 103.02313 L 149.36963 101.8665 L 149.8894 100.69388 L 150.40918 99.50772 L 150.92894 98.307 L 151.44872 97.0947 L 151.96849 95.87027 L 152.48825 94.6347 L 153.00803 93.38898 L 153.5278 92.13455 L 154.04756 90.87285 L 154.56735 89.60243 L 155.08713 88.3262 L 155.6069 87.04465 L 156.12667 85.75777 L 156.64644 84.46799 L 157.16622 83.17676 L 157.68598 81.88165 L 158.20575 80.58702 L 158.72553 79.2929 L 159.24529 77.99777 L 159.76506 76.70654 L 160.28484 75.41676 L 160.80461 74.13133 L 161.32439 72.85027 L 161.84416 71.57501 L 162.36394 70.30653 L 162.8837 69.04579 L 163.40348 67.7928 L 163.92325 66.54805 L 164.44301 65.31393 L 164.96279 64.09146 L 165.48256 62.88205 L 166.00234 61.6833 L 166.5221 60.49905 L 167.04187 59.32935 L 167.56165 58.17464 L 168.08142 57.03493 L 168.6012 55.91316 L 169.12097 54.81026 L 169.64073 53.72528 L 170.1605 52.65916 L 170.68029 51.61243 L 171.20006 50.58846 L 171.71982 49.58286 L 172.2396 48.60342 L 172.75937 47.64383 L 173.27913 46.71086 L 173.7989 45.79921 L 174.3187 44.91466 L 174.63242 44.3954 "/>
<path transform="matrix(-.51706,-.85591,-.85591,.51706,19.728619,50.655229)" stroke-width="1" stroke-linecap="round" stroke-linejoin="round" fill="none" stroke="#000000" d="M -2.07224 2.39104 C -1.69365 .95639 -.84999 .27895 0 0 C -.84999 -.27895 -1.69365 -.95639 -2.07224 -2.39104 "/>
<path transform="matrix(.51706,.85591,.85591,-.51706,174.93445,123.59114)" stroke-width="1" stroke-linecap="round" stroke-linejoin="round" fill="none" stroke="#000000" d="M -2.07224 2.39104 C -1.69365 .95639 -.84999 .27895 0 0 C -.84999 -.27895 -1.69365 -.95639 -2.07224 -2.39104 "/>
</g>
<symbol id="font_3_1">
<path d="M .305 .31300003 C .311 .33900003 .334 .43100003 .404 .43100003 C .409 .43100003 .433 .43100003 .454 .418 C .426 .41300003 .40600003 .388 .40600003 .36400003 C .40600003 .34800003 .417 .32900004 .444 .32900004 C .46600003 .32900004 .498 .34700004 .498 .38700003 C .498 .43900005 .439 .45300005 .405 .45300005 C .347 .45300005 .312 .40000005 .3 .37700004 C .275 .44300003 .221 .45300005 .19200002 .45300005 C .08800001 .45300005 .031000002 .32400004 .031000002 .29900003 C .031000002 .28900004 .041 .28900004 .043000007 .28900004 C .051000008 .28900004 .054000006 .291 .056 .3 C .09 .40600003 .156 .43100003 .19000001 .43100003 C .209 .43100003 .244 .42200003 .244 .36400003 C .244 .33300004 .22700002 .26600004 .19000001 .126 C .17400001 .064 .13900002 .022000002 .095000009 .022000002 C .08900001 .022000002 .06600001 .022000002 .045 .035 C .07000001 .040000004 .09200001 .061 .09200001 .089 C .09200001 .116000007 .07000001 .124000009 .055000009 .124000009 C .025 .124000009 0 .098000008 0 .06600001 C 0 .020000002 .050000006 0 .094000007 0 C .16000001 0 .19600001 .07000001 .19900002 .076000008 C .21100001 .039 .24700003 0 .307 0 C .41 0 .467 .12900001 .467 .15400002 C .467 .16400002 .458 .16400002 .455 .16400002 C .446 .16400002 .444 .16000001 .442 .15300001 C .409 .046 .341 .022000002 .30900003 .022000002 C .27 .022000002 .254 .054 .254 .08800001 C .254 .11000001 .26 .13200002 .271 .17600002 L .305 .31300003 Z "/>
</symbol>
<use xlink:href="#font_3_1" transform="matrix(9.9626,0,0,-9.9626,191.90493,83.714588)"/>
<symbol id="font_3_2">
<path d="M .45700003 .586 C .461 .6 .461 .602 .461 .609 C .461 .62700006 .447 .63600006 .432 .63600006 C .42200003 .63600006 .40600003 .63 .397 .615 C .395 .61 .387 .579 .38300003 .561 C .37600003 .535 .36900003 .508 .363 .48100005 L .318 .301 C .314 .286 .271 .21600002 .20500002 .21600002 C .15400002 .21600002 .143 .26000003 .143 .29700003 C .143 .34300003 .16000001 .40500004 .194 .49300004 C .21000001 .53400006 .21400002 .545 .21400002 .56500008 C .21400002 .61 .18200001 .6470001 .13200002 .6470001 C .037 .6470001 0 .50200006 0 .49300004 C 0 .48300005 .01 .48300005 .012 .48300005 C .022000002 .48300005 .023 .485 .028000003 .50100007 C .055000009 .595 .095000009 .625 .12900001 .625 C .13700001 .625 .15400002 .625 .15400002 .59300008 C .15400002 .568 .14400001 .54200008 .13700001 .523 C .097 .41700004 .079 .36 .079 .31300003 C .079 .224 .142 .194 .201 .194 C .24000003 .194 .274 .21100001 .30200003 .23900002 C .289 .187 .277 .13800001 .237 .08500001 C .21100001 .051 .17300001 .022 .127 .022 C .113000009 .022 .068 .025000006 .051000008 .06400001 C .067 .06400001 .080000009 .06400001 .094000007 .076000008 C .104 .08500001 .11400001 .098000008 .11400001 .117000009 C .11400001 .148 .087000008 .15200001 .07700001 .15200001 C .054000006 .15200001 .021 .136 .021 .087000008 C .021 .037 .065000008 0 .127 0 C .23 0 .333 .091000009 .361 .20400001 L .45700003 .586 Z "/>
</symbol>
<use xlink:href="#font_3_2" transform="matrix(9.9626,0,0,-9.9626,101.139919,9.652334)"/>
</svg>
