<?xml version="1.0" encoding="UTF-8" standalone="no"?>
<!DOCTYPE svg PUBLIC "-//W3C//DTD SVG 1.1//EN" "http://www.w3.org/Graphics/SVG/1.1/DTD/svg11.dtd">
<svg xmlns="http://www.w3.org/2000/svg" xmlns:xlink="http://www.w3.org/1999/xlink" version="1.1" width="200.63pt" height="168.015pt" viewBox="0 0 200.63 168.015">
<path transform="matrix(1,0,0,-1,.199,167.816)" stroke-width="1" stroke-linecap="butt" stroke-miterlimit="10" stroke-linejoin="miter" fill="none" stroke="#808080" d="M 0 79.27469 L 0 82.1095 M 6.47552 79.27469 L 6.47552 82.1095 M 12.95107 79.27469 L 12.95107 82.1095 M 25.90213 79.27469 L 25.90213 82.1095 M 32.37767 79.27469 L 32.37767 82.1095 M 38.8532 79.27469 L 38.8532 82.1095 M 45.32874 79.27469 L 45.32874 82.1095 M 51.80428 79.27469 L 51.80428 82.1095 M 64.75534 79.27469 L 64.75534 82.1095 M 71.23088 79.27469 L 71.23088 82.1095 M 77.7064 79.27469 L 77.7064 82.1095 M 84.18195 79.27469 L 84.18195 82.1095 M 90.65749 79.27469 L 90.65749 82.1095 M 103.60857 79.27469 L 103.60857 82.1095 M 110.0841 79.27469 L 110.0841 82.1095 M 116.55963 79.27469 L 116.55963 82.1095 M 123.03517 79.27469 L 123.03517 82.1095 M 129.51071 79.27469 L 129.51071 82.1095 M 142.46178 79.27469 L 142.46178 82.1095 M 148.93732 79.27469 L 148.93732 82.1095 M 155.41284 79.27469 L 155.41284 82.1095 M 161.88838 79.27469 L 161.88838 82.1095 M 168.36392 79.27469 L 168.36392 82.1095 M 181.31499 79.27469 L 181.31499 82.1095 M 187.79053 79.27469 L 187.79053 82.1095 M 194.26605 79.27469 L 194.26605 82.1095 "/>
<path transform="matrix(1,0,0,-1,.199,167.816)" stroke-width="1" stroke-linecap="butt" stroke-miterlimit="10" stroke-linejoin="miter" fill="none" stroke="#808080" d="M 19.4266 78.56621 L 19.4266 82.81796 M 58.27982 78.56621 L 58.27982 82.81796 M 135.98625 78.56621 L 135.98625 82.81796 M 174.83946 78.56621 L 174.83946 82.81796 "/>
<path transform="matrix(1,0,0,-1,.199,167.816)" stroke-width="1" stroke-linecap="butt" stroke-miterlimit="10" stroke-linejoin="miter" fill="none" stroke="#808080" d="M 95.71562 0 L 98.55045 0 M 95.71562 5.37946 L 98.55045 5.37946 M 95.71562 10.75894 L 98.55045 10.75894 M 95.71562 21.51788 L 98.55045 21.51788 M 95.71562 26.89735 L 98.55045 26.89735 M 95.71562 32.27682 L 98.55045 32.27682 M 95.71562 37.6563 L 98.55045 37.6563 M 95.71562 43.03578 L 98.55045 43.03578 M 95.71562 53.79472 L 98.55045 53.79472 M 95.71562 59.1742 L 98.55045 59.1742 M 95.71562 64.55367 L 98.55045 64.55367 M 95.71562 69.93314 L 98.55045 69.93314 M 95.71562 75.31262 L 98.55045 75.31262 M 95.71562 86.07156 L 98.55045 86.07156 M 95.71562 91.45103 L 98.55045 91.45103 M 95.71562 96.8305 L 98.55045 96.8305 M 95.71562 102.20998 L 98.55045 102.20998 M 95.71562 107.58946 L 98.55045 107.58946 M 95.71562 118.3484 L 98.55045 118.3484 M 95.71562 123.72787 L 98.55045 123.72787 M 95.71562 129.10735 L 98.55045 129.10735 M 95.71562 134.48682 L 98.55045 134.48682 M 95.71562 139.8663 L 98.55045 139.8663 M 95.71562 150.62525 L 98.55045 150.62525 M 95.71562 156.00472 L 98.55045 156.00472 M 95.71562 161.38419 L 98.55045 161.38419 "/>
<path transform="matrix(1,0,0,-1,.199,167.816)" stroke-width="1" stroke-linecap="butt" stroke-miterlimit="10" stroke-linejoin="miter" fill="none" stroke="#808080" d="M 95.00711 16.13841 L 99.25894 16.13841 M 95.00711 48.41525 L 99.25894 48.41525 M 95.00711 112.96893 L 99.25894 112.96893 M 95.00711 145.24578 L 99.25894 145.24578 "/>
<path transform="matrix(1,0,0,-1,.199,167.816)" stroke-width="1" stroke-linecap="butt" stroke-miterlimit="10" stroke-linejoin="miter" fill="none" stroke="#000000" d="M 0 80.6921 L 192.27355 80.6921 "/>
<path transform="matrix(1,0,0,-1,192.47255,87.12389)" d="M 1.99252 0 L -1.19551 1.59401 L 0 0 L -1.19551 -1.59401 "/>
<path transform="matrix(1,0,0,-1,.199,167.816)" stroke-width="1" stroke-linecap="butt" stroke-miterlimit="10" stroke-linejoin="miter" fill="none" stroke="#000000" d="M 97.13303 0 L 97.13303 159.39168 "/>
<path transform="matrix(0,-1,-1,-0,97.33203,8.424316)" d="M 1.99252 0 L -1.19551 1.59401 L 0 0 L -1.19551 -1.59401 "/>
<symbol id="font_0_1">
<path d="M .57600006 0 C .59300008 0 .611 0 .611 .019999996 C .611 .040000008 .59300008 .040000008 .57600006 .040000008 L .035000005 .040000008 C .018 .040000008 0 .040000008 0 .019999996 C 0 0 .018 0 .035000005 0 L .57600006 0 Z "/>
</symbol>
<use xlink:href="#font_0_1" transform="matrix(9.9626,0,0,-9.9626,14.087896,96.89959)"/>
<symbol id="font_1_2">
<path d="M .266 .165 L .266 .078 C .266 .042000005 .26400004 .031000002 .19000001 .031000002 L .16900002 .031000002 L .16900002 0 C .21000001 .003 .26200003 .003 .30400003 .003 C .34600003 .003 .39900003 .003 .44000004 0 L .44000004 .031000002 L .41900004 .031000002 C .34500004 .031000002 .34300003 .042000005 .34300003 .078 L .34300003 .165 L .44300003 .165 L .44300003 .19600001 L .34300003 .19600001 L .34300003 .651 C .34300003 .671 .34300003 .67700007 .32700003 .67700007 C .31800003 .67700007 .31500004 .67700007 .307 .665 L 0 .19600001 L 0 .165 L .266 .165 M .272 .19600001 L .028 .19600001 L .272 .569 L .272 .19600001 Z "/>
</symbol>
<use xlink:href="#font_1_2" transform="matrix(9.9626,0,0,-9.9626,21.287953,99.19099)"/>
<use xlink:href="#font_0_1" transform="matrix(9.9626,0,0,-9.9626,52.9399,96.89959)"/>
<symbol id="font_1_1">
<path d="M .07700001 .07700001 L .18300002 .18 C .33900003 .31800003 .39900003 .372 .39900003 .47200004 C .39900003 .586 .30900003 .666 .18700002 .666 C .074 .666 0 .574 0 .485 C 0 .42900003 .05 .42900003 .053000008 .42900003 C .07000001 .42900003 .105000007 .441 .105000007 .48200003 C .105000007 .508 .08700001 .53400006 .052000006 .53400006 C .044000005 .53400006 .042000008 .53400006 .039 .53300008 C .062000004 .59800007 .11600001 .63500007 .17400001 .63500007 C .26500003 .63500007 .308 .554 .308 .47200004 C .308 .39200003 .25800003 .31300003 .20300003 .25100003 L .011000004 .037 C 0 .026 0 .024 0 0 L .37100003 0 L .39900003 .17400001 L .374 .17400001 C .36900003 .14400001 .36200003 .1 .352 .085 C .345 .07700001 .279 .07700001 .257 .07700001 L .07700001 .07700001 Z "/>
</symbol>
<use xlink:href="#font_1_1" transform="matrix(9.9626,0,0,-9.9626,60.360136,99.19099)"/>
<use xlink:href="#font_1_1" transform="matrix(9.9626,0,0,-9.9626,134.19113,99.19099)"/>
<use xlink:href="#font_1_2" transform="matrix(9.9626,0,0,-9.9626,172.82495,99.19099)"/>
<use xlink:href="#font_0_1" transform="matrix(9.9626,0,0,-9.9626,79.78189,152.1816)"/>
<use xlink:href="#font_1_2" transform="matrix(9.9626,0,0,-9.9626,86.98295,154.47299)"/>
<use xlink:href="#font_0_1" transform="matrix(9.9626,0,0,-9.9626,79.78189,119.9046)"/>
<use xlink:href="#font_1_1" transform="matrix(9.9626,0,0,-9.9626,87.202129,122.196)"/>
<use xlink:href="#font_1_1" transform="matrix(9.9626,0,0,-9.9626,87.202129,58.058984)"/>
<use xlink:href="#font_1_2" transform="matrix(9.9626,0,0,-9.9626,86.98295,25.781998)"/>
<clipPath id="cp2">
<path transform="matrix(1,0,0,-1,.199,167.816)" d="M 0 0 L 194.26607 0 L 194.26607 161.3842 L 0 161.3842 Z "/>
</clipPath>
<g clip-path="url(#cp2)">
<path transform="matrix(1,0,0,-1,.199,167.816)" stroke-width="1" stroke-linecap="butt" stroke-miterlimit="10" stroke-linejoin="miter" fill="none" stroke="#000000" d="M 77.87086 92.5422 L 77.83635 92.61838 L 77.96631 92.32352 L 78.09625 92.01965 L 78.2262 91.70866 L 78.35614 91.3888 L 78.48608 91.0623 L 78.61604 90.72743 L 78.74597 90.38611 L 78.87592 90.0372 L 79.00586 89.68182 L 79.1358 89.32 L 79.26575 88.95221 L 79.3957 88.5783 L 79.52565 88.19856 L 79.6556 87.81364 L 79.78552 87.42357 L 79.91547 87.02916 L 80.04541 86.62973 L 80.17537 86.22644 L 80.30531 85.81862 L 80.43526 85.40756 L 80.5652 84.99266 L 80.69513 84.57532 L 80.82507 84.1549 L 80.95503 83.73209 L 81.08498 83.30684 L 81.21492 82.8798 L 81.34486 82.45117 L 81.47481 82.0214 L 81.60477 81.591 L 81.7347 81.15945 L 81.86464 80.72775 L 81.99458 80.29637 L 82.12453 79.865 L 82.25447 79.43393 L 82.38443 79.004 L 82.51437 78.57506 L 82.6443 78.14803 L 82.77425 77.72278 L 82.90419 77.29915 L 83.03413 76.87857 L 83.1641 76.46027 L 83.29404 76.04535 L 83.42398 75.63333 L 83.55392 75.22504 L 83.68385 74.82092 L 83.81381 74.42102 L 83.94376 74.02531 L 84.0737 73.63445 L 84.20364 73.24889 L 84.33359 72.86786 L 84.46353 72.4936 L 84.59348 72.12468 L 84.72342 71.76205 L 84.85336 71.40538 L 84.9833 71.05583 L 85.11325 70.71274 L 85.2432 70.37704 L 85.37315 70.0488 L 85.5031 69.72797 L 85.63303 69.41537 L 85.76297 69.11035 L 85.89291 68.81421 L 86.02286 68.52565 L 86.15282 68.24695 L 86.28276 67.97581 L 86.4127 67.71501 L 86.54263 67.46262 L 86.67258 67.22054 L 86.80254 66.98735 L 86.93248 66.76463 L 87.06242 66.55127 L 87.19237 66.34859 L 87.32231 66.15573 L 87.45226 65.97336 L 87.5822 65.80197 L 87.71214 65.64058 L 87.84209 65.49017 L 87.97203 65.35057 L 88.10197 65.22276 L 88.23192 65.10448 L 88.36188 64.99892 L 88.4918 64.90338 L 88.62175 64.82011 L 88.7517 64.74765 L 88.88164 64.68665 L 89.0116 64.63742 L 89.14154 64.59949 L 89.27148 64.57303 L 89.40143 64.55788 L 89.53136 64.55463 L 89.6613 64.5627 L 89.79126 64.5827 L 89.9212 64.61354 L 90.05115 64.65663 L 90.18109 64.71053 L 90.31104 64.77654 L 90.44096 64.85335 L 90.57092 64.94228 L 90.70087 65.04153 L 90.83081 65.15273 L 90.96075 65.27473 L 91.0907 65.4077 L 91.22064 65.55167 L 91.3506 65.70659 L 91.48053 65.87234 L 91.61047 66.0481 L 91.74042 66.23529 L 91.87036 66.43187 L 92.00032 66.6394 L 92.13026 66.85614 L 92.26021 67.0837 L 92.39014 67.32028 L 92.52008 67.56735 L 92.65002 67.82298 L 92.77998 68.08815 L 92.90993 68.36234 L 93.03987 68.6454 L 93.16982 68.93686 L 93.29976 69.23688 L 93.42969 69.54527 L 93.55965 69.86095 L 93.68959 70.18517 L 93.81953 70.51648 L 93.94948 70.85522 L 94.07942 71.20076 L 94.20938 71.55386 L 94.33931 71.91246 L 94.46925 72.27832 L 94.5992 72.64919 L 94.72914 73.02698 L 94.85909 73.40915 L 94.98904 73.79727 L 95.11899 74.18993 L 95.24893 74.58772 L 95.37886 74.98943 L 95.5088 75.39513 L 95.63875 75.80489 L 95.7687 76.21852 L 95.89865 76.63457 L 96.0286 77.054 L 96.15854 77.47571 L 96.28848 77.9003 L 96.41841 78.32635 L 96.54837 78.75435 L 96.67831 79.18347 L 96.80826 79.61371 L 96.9382 80.04526 L 97.06815 80.47664 L 97.1981 80.90834 L 97.32803 81.33972 L 97.45798 81.77094 L 97.58792 82.20102 L 97.71786 82.63063 L 97.84781 83.0583 L 97.97777 83.48483 L 98.10771 83.90895 L 98.23766 84.33066 L 98.3676 84.74977 L 98.49753 85.16646 L 98.62747 85.57977 L 98.75743 85.98953 L 98.88737 86.3954 L 99.01732 86.79726 L 99.14726 87.19458 L 99.2772 87.58739 L 99.40717 87.97536 L 99.5371 88.35785 L 99.66704 88.73515 L 99.79698 89.10666 L 99.92693 89.4722 L 100.05687 89.8308 L 100.18683 90.18356 L 100.31677 90.5291 L 100.4467 90.86816 L 100.57664 91.19981 L 100.70659 91.52354 L 100.83653 91.83937 L 100.96649 92.14778 L 101.09644 92.44763 L 101.22638 92.73926 L 101.35632 93.02216 L 101.48625 93.29651 L 101.6162 93.562 L 101.74615 93.81715 L 101.8761 94.06438 L 102.00604 94.30081 L 102.13599 94.52835 L 102.26593 94.74493 L 102.39587 94.95264 L 102.52582 95.14937 L 102.65576 95.33626 L 102.7857 95.512 L 102.91565 95.67773 L 103.0456 95.8325 L 103.17555 95.97679 L 103.3055 96.10976 L 103.43542 96.23161 L 103.56537 96.34264 L 103.69531 96.4419 L 103.82526 96.53114 L 103.95522 96.60764 L 104.08516 96.67365 L 104.2151 96.72754 L 104.34503 96.77046 L 104.47498 96.80147 L 104.60493 96.82147 L 104.73488 96.82954 L 104.86482 96.82631 L 104.99477 96.81114 L 105.12471 96.78452 L 105.25465 96.74675 L 105.3846 96.6972 L 105.51454 96.63652 L 105.64449 96.56374 L 105.77443 96.48062 L 105.90437 96.38509 L 106.03432 96.27939 L 106.16428 96.1614 L 106.2942 96.03326 L 106.42415 95.89383 L 106.5541 95.74327 L 106.68404 95.58203 L 106.81398 95.41032 L 106.94394 95.22812 L 107.07388 95.03526 L 107.20383 94.83241 L 107.33376 94.61922 L 107.4637 94.39651 L 107.59366 94.16315 L 107.7236 93.92123 L 107.85355 93.66867 L 107.98349 93.40787 L 108.11343 93.1369 L 108.24336 92.85803 L 108.37332 92.56964 L 108.50327 92.27335 L 108.63321 91.96848 L 108.76315 91.65572 L 108.8931 91.3349 L 109.02304 91.00664 L 109.153 90.67079 L 109.28293 90.32802 L 109.41287 89.9783 L 109.54282 89.62163 L 109.67276 89.25917 L 109.80272 88.88991 L 109.93266 88.5155 L 110.0626 88.1348 L 110.19254 87.74927 L 110.32248 87.35838 L 110.45242 86.96266 L 110.58238 86.56244 L 110.71233 86.15833 L 110.84227 85.75018 L 110.97221 85.33833 L 111.10216 84.92342 L 111.23209 84.50479 L 111.36205 84.08438 L 111.49199 83.6609 L 111.62193 83.23566 L 111.75188 82.80832 L 111.88182 82.37936 L 112.01176 81.94975 L 112.14171 81.5187 L 112.27165 81.08731 L 112.4016 80.65594 L 112.53154 80.22424 L 112.66148 79.7927 L 112.79144 79.36212 L 112.92139 78.93236 L 113.05133 78.50372 L 113.18126 78.07686 L 113.3112 77.65161 L 113.44115 77.22878 L 113.5711 76.80836 L 113.70105 76.39072 L 113.831 75.97612 L 113.96094 75.56508 L 114.09088 75.1571 L 114.22081 74.75395 L 114.35077 74.35452 L 114.48071 73.95978 L 114.61066 73.56972 L 114.7406 73.18515 L 114.87054 72.80525 L 115.0005 72.43147 L 115.13043 72.06367 L 115.26038 71.70186 L 115.39032 71.3465 L 115.52026 70.99773 L 115.6502 70.65625 L 115.78017 70.32138 L 115.91011 69.9949 L 116.04005 69.67503 L 116.16998 69.36404 L 116.29993 69.06017 L 116.42987 68.7653 L 116.39536 68.84149 "/>
<path transform="matrix(-.41264,-.91083,-.91083,.41264,77.98765,75.092319)" stroke-width="1" stroke-linecap="round" stroke-linejoin="round" fill="none" stroke="#000000" d="M -2.07224 2.39104 C -1.69365 .95639 -.84999 .27895 0 0 C -.84999 -.27895 -1.69365 -.95639 -2.07224 -2.39104 "/>
<path transform="matrix(.41272,.91081,.91081,-.41272,116.676578,99.155979)" stroke-width="1" stroke-linecap="round" stroke-linejoin="round" fill="none" stroke="#000000" d="M -2.07224 2.39104 C -1.69365 .95639 -.84999 .27895 0 0 C -.84999 -.27895 -1.69365 -.95639 -2.07224 -2.39104 "/>
</g>
<symbol id="font_3_1">
<path d="M .305 .31300003 C .311 .33900003 .334 .43100003 .404 .43100003 C .409 .43100003 .433 .43100003 .454 .418 C .426 .41300003 .40600003 .388 .40600003 .36400003 C .40600003 .34800003 .417 .32900004 .444 .32900004 C .46600003 .32900004 .498 .34700004 .498 .38700003 C .498 .43900005 .439 .45300005 .405 .45300005 C .347 .45300005 .312 .40000005 .3 .37700004 C .275 .44300003 .221 .45300005 .19200002 .45300005 C .08800001 .45300005 .031000002 .32400004 .031000002 .29900003 C .031000002 .28900004 .041 .28900004 .043000007 .28900004 C .051000008 .28900004 .054000006 .291 .056 .3 C .09 .40600003 .156 .43100003 .19000001 .43100003 C .209 .43100003 .244 .42200003 .244 .36400003 C .244 .33300004 .22700002 .26600004 .19000001 .126 C .17400001 .064 .13900002 .022000002 .095000009 .022000002 C .08900001 .022000002 .06600001 .022000002 .045 .035 C .07000001 .040000004 .09200001 .061 .09200001 .089 C .09200001 .116000007 .07000001 .124000009 .055000009 .124000009 C .025 .124000009 0 .098000008 0 .06600001 C 0 .020000002 .050000006 0 .094000007 0 C .16000001 0 .19600001 .07000001 .19900002 .076000008 C .21100001 .039 .24700003 0 .307 0 C .41 0 .467 .12900001 .467 .15400002 C .467 .16400002 .458 .16400002 .455 .16400002 C .446 .16400002 .444 .16000001 .442 .15300001 C .409 .046 .341 .022000002 .30900003 .022000002 C .27 .022000002 .254 .054 .254 .08800001 C .254 .11000001 .26 .13200002 .271 .17600002 L .305 .31300003 Z "/>
</symbol>
<use xlink:href="#font_3_1" transform="matrix(9.9626,0,0,-9.9626,191.90493,83.714588)"/>
<symbol id="font_3_2">
<path d="M .45700003 .586 C .461 .6 .461 .602 .461 .609 C .461 .62700006 .447 .63600006 .432 .63600006 C .42200003 .63600006 .40600003 .63 .397 .615 C .395 .61 .387 .579 .38300003 .561 C .37600003 .535 .36900003 .508 .363 .48100005 L .318 .301 C .314 .286 .271 .21600002 .20500002 .21600002 C .15400002 .21600002 .143 .26000003 .143 .29700003 C .143 .34300003 .16000001 .40500004 .194 .49300004 C .21000001 .53400006 .21400002 .545 .21400002 .56500008 C .21400002 .61 .18200001 .6470001 .13200002 .6470001 C .037 .6470001 0 .50200006 0 .49300004 C 0 .48300005 .01 .48300005 .012 .48300005 C .022000002 .48300005 .023 .485 .028000003 .50100007 C .055000009 .595 .095000009 .625 .12900001 .625 C .13700001 .625 .15400002 .625 .15400002 .59300008 C .15400002 .568 .14400001 .54200008 .13700001 .523 C .097 .41700004 .079 .36 .079 .31300003 C .079 .224 .142 .194 .201 .194 C .24000003 .194 .274 .21100001 .30200003 .23900002 C .289 .187 .277 .13800001 .237 .08500001 C .21100001 .051 .17300001 .022 .127 .022 C .113000009 .022 .068 .025000006 .051000008 .06400001 C .067 .06400001 .080000009 .06400001 .094000007 .076000008 C .104 .08500001 .11400001 .098000008 .11400001 .117000009 C .11400001 .148 .087000008 .15200001 .07700001 .15200001 C .054000006 .15200001 .021 .136 .021 .087000008 C .021 .037 .065000008 0 .127 0 C .23 0 .333 .091000009 .361 .20400001 L .45700003 .586 Z "/>
</symbol>
<use xlink:href="#font_3_2" transform="matrix(9.9626,0,0,-9.9626,101.139919,9.652334)"/>
</svg>
