<?xml version="1.0" encoding="UTF-8" standalone="no"?>
<!DOCTYPE svg PUBLIC "-//W3C//DTD SVG 1.1//EN" "http://www.w3.org/Graphics/SVG/1.1/DTD/svg11.dtd">
<svg xmlns="http://www.w3.org/2000/svg" xmlns:xlink="http://www.w3.org/1999/xlink" version="1.1" width="200.638pt" height="168.015pt" viewBox="0 0 200.638 168.015">
<path transform="matrix(1,0,0,-1,.199,167.816)" stroke-width="1" stroke-linecap="butt" stroke-miterlimit="10" stroke-linejoin="miter" fill="none" stroke="#808080" d="M 2.69823 79.27469 L 2.69823 82.1095 M 9.44385 79.27469 L 9.44385 82.1095 M 22.9351 79.27469 L 22.9351 82.1095 M 29.68073 79.27469 L 29.68073 82.1095 M 36.42635 79.27469 L 36.42635 82.1095 M 43.17197 79.27469 L 43.17197 82.1095 M 49.91759 79.27469 L 49.91759 82.1095 M 63.40886 79.27469 L 63.40886 82.1095 M 70.15448 79.27469 L 70.15448 82.1095 M 76.9001 79.27469 L 76.9001 82.1095 M 83.64572 79.27469 L 83.64572 82.1095 M 90.39134 79.27469 L 90.39134 82.1095 M 103.8826 79.27469 L 103.8826 82.1095 M 110.62822 79.27469 L 110.62822 82.1095 M 117.37384 79.27469 L 117.37384 82.1095 M 124.11946 79.27469 L 124.11946 82.1095 M 130.86508 79.27469 L 130.86508 82.1095 M 144.35636 79.27469 L 144.35636 82.1095 M 151.10198 79.27469 L 151.10198 82.1095 M 157.8476 79.27469 L 157.8476 82.1095 M 164.59322 79.27469 L 164.59322 82.1095 M 171.33884 79.27469 L 171.33884 82.1095 "/>
<path transform="matrix(1,0,0,-1,.199,167.816)" stroke-width="1" stroke-linecap="butt" stroke-miterlimit="10" stroke-linejoin="miter" fill="none" stroke="#808080" d="M 16.1895 78.56621 L 16.1895 82.81796 M 56.66324 78.56621 L 56.66324 82.81796 M 137.61074 78.56621 L 137.61074 82.81796 M 178.08449 78.56621 L 178.08449 82.81796 "/>
<path transform="matrix(1,0,0,-1,.199,167.816)" stroke-width="1" stroke-linecap="butt" stroke-miterlimit="10" stroke-linejoin="miter" fill="none" stroke="#808080" d="M 95.7196 0 L 98.55437 0 M 95.7196 5.37946 L 98.55437 5.37946 M 95.7196 10.75894 L 98.55437 10.75894 M 95.7196 21.51788 L 98.55437 21.51788 M 95.7196 26.89735 L 98.55437 26.89735 M 95.7196 32.27682 L 98.55437 32.27682 M 95.7196 37.6563 L 98.55437 37.6563 M 95.7196 43.03578 L 98.55437 43.03578 M 95.7196 53.79472 L 98.55437 53.79472 M 95.7196 59.1742 L 98.55437 59.1742 M 95.7196 64.55367 L 98.55437 64.55367 M 95.7196 69.93314 L 98.55437 69.93314 M 95.7196 75.31262 L 98.55437 75.31262 M 95.7196 86.07156 L 98.55437 86.07156 M 95.7196 91.45103 L 98.55437 91.45103 M 95.7196 96.8305 L 98.55437 96.8305 M 95.7196 102.20998 L 98.55437 102.20998 M 95.7196 107.58946 L 98.55437 107.58946 M 95.7196 118.3484 L 98.55437 118.3484 M 95.7196 123.72787 L 98.55437 123.72787 M 95.7196 129.10735 L 98.55437 129.10735 M 95.7196 134.48682 L 98.55437 134.48682 M 95.7196 139.8663 L 98.55437 139.8663 M 95.7196 150.62525 L 98.55437 150.62525 M 95.7196 156.00472 L 98.55437 156.00472 M 95.7196 161.38419 L 98.55437 161.38419 "/>
<path transform="matrix(1,0,0,-1,.199,167.816)" stroke-width="1" stroke-linecap="butt" stroke-miterlimit="10" stroke-linejoin="miter" fill="none" stroke="#808080" d="M 95.01111 16.13841 L 99.26285 16.13841 M 95.01111 48.41525 L 99.26285 48.41525 M 95.01111 112.96893 L 99.26285 112.96893 M 95.01111 145.24578 L 99.26285 145.24578 "/>
<path transform="matrix(1,0,0,-1,.199,167.816)" stroke-width="1" stroke-linecap="butt" stroke-miterlimit="10" stroke-linejoin="miter" fill="none" stroke="#000000" d="M 0 80.6921 L 192.28145 80.6921 "/>
<path transform="matrix(1,0,0,-1,192.48046,87.12389)" d="M 1.99252 0 L -1.19551 1.59401 L 0 0 L -1.19551 -1.59401 "/>
<path transform="matrix(1,0,0,-1,.199,167.816)" stroke-width="1" stroke-linecap="butt" stroke-miterlimit="10" stroke-linejoin="miter" fill="none" stroke="#000000" d="M 97.137 0 L 97.137 159.39168 "/>
<path transform="matrix(0,-1,-1,-0,97.336,8.424316)" d="M 1.99252 0 L -1.19551 1.59401 L 0 0 L -1.19551 -1.59401 "/>
<symbol id="font_0_1">
<path d="M .57600006 0 C .59300008 0 .611 0 .611 .019999996 C .611 .040000008 .59300008 .040000008 .57600006 .040000008 L .035000005 .040000008 C .018 .040000008 0 .040000008 0 .019999996 C 0 0 .018 0 .035000005 0 L .57600006 0 Z "/>
</symbol>
<use xlink:href="#font_0_1" transform="matrix(9.9626,0,0,-9.9626,8.359896,96.89959)"/>
<symbol id="font_1_2">
<path d="M .205 .64000007 C .205 .66400006 .205 .666 .18200003 .666 C .120000008 .60200008 .032000007 .60200008 0 .60200008 L 0 .57100006 C .020000004 .57100006 .07900001 .57100006 .13100001 .597 L .13100001 .079 C .13100001 .043 .128 .031000002 .038000004 .031000002 L .0060000049 .031000002 L .0060000049 0 C .04100001 .003 .128 .003 .168 .003 C .20800002 .003 .29500003 .003 .33000005 0 L .33000005 .031000002 L .29800005 .031000002 C .20800002 .031000002 .205 .042000005 .205 .079 L .205 .64000007 Z "/>
</symbol>
<symbol id="font_1_1">
<path d="M .421 .34200005 C .421 .42200003 .416 .50200006 .381 .57600006 C .335 .67200008 .25300003 .688 .211 .688 C .15100001 .688 .07800001 .66200008 .037000006 .56900009 C .0050000029 .5 0 .42200003 0 .34200005 C 0 .26700003 .0040000008 .177 .045000007 .101 C .088 .020000002 .161 0 .21000001 0 C .264 0 .34 .021000002 .384 .116000007 C .416 .185 .421 .263 .421 .34200005 M .21000001 .022000002 C .171 .022000002 .112 .047000003 .094 .143 C .083000008 .20300001 .083000008 .29500003 .083000008 .35400004 C .083000008 .41800005 .083000008 .48400004 .091000009 .53800007 C .11 .65700009 .185 .66600009 .21000001 .66600009 C .243 .66600009 .30900003 .64800009 .328 .549 C .338 .49300004 .338 .41700004 .338 .35400004 C .338 .279 .338 .21100001 .32700003 .147 C .312 .052 .255 .022000002 .21000001 .022000002 Z "/>
</symbol>
<use xlink:href="#font_1_2" transform="matrix(9.9626,0,0,-9.9626,16.16867,99.19099)"/>
<use xlink:href="#font_1_1" transform="matrix(9.9626,0,0,-9.9626,20.651843,99.410167)"/>
<use xlink:href="#font_0_1" transform="matrix(9.9626,0,0,-9.9626,51.3239,96.89959)"/>
<symbol id="font_1_5">
<path d="M .39900003 .223 C .39900003 .34200005 .317 .44200004 .209 .44200004 C .16100002 .44200004 .118000019 .42600004 .082 .39100004 L .082 .586 C .10200001 .58000007 .135 .573 .16700001 .573 C .29 .573 .36 .66400006 .36 .67700007 C .36 .683 .357 .688 .35 .688 C .349 .688 .347 .688 .342 .68500009 C .322 .67600008 .273 .656 .20600002 .656 C .16600001 .656 .120000008 .66300007 .073 .6840001 C .065 .68700006 .06300001 .68700006 .061000009 .68700006 C .051000004 .68700006 .051000004 .679 .051000004 .66300007 L .051000004 .36700005 C .051000004 .34900005 .051000004 .34100003 .065 .34100003 C .07200001 .34100003 .074 .34400005 .07800001 .35000003 C .08900002 .36600004 .12600002 .42000006 .207 .42000006 C .259 .42000006 .284 .37400005 .292 .35600005 C .308 .31900005 .31 .28000004 .31 .23 C .31 .19500001 .31 .135 .286 .093 C .262 .054000006 .22500001 .028 .17900002 .028 C .106000009 .028 .049000008 .08100001 .032 .14000002 C .035 .13900002 .038000008 .13800001 .049000008 .13800001 C .082 .13800001 .09900001 .163 .09900001 .187 C .09900001 .21100001 .082 .23600002 .049000008 .23600002 C .035 .23600002 0 .22900002 0 .18300002 C 0 .097 .069000009 0 .18100001 0 C .297 0 .39900003 .096 .39900003 .223 Z "/>
</symbol>
<use xlink:href="#font_1_5" transform="matrix(9.9626,0,0,-9.9626,58.744134,99.410167)"/>
<use xlink:href="#font_1_5" transform="matrix(9.9626,0,0,-9.9626,135.81613,99.410167)"/>
<use xlink:href="#font_1_2" transform="matrix(9.9626,0,0,-9.9626,174.18668,99.19099)"/>
<use xlink:href="#font_1_1" transform="matrix(9.9626,0,0,-9.9626,178.66983,99.410167)"/>
<use xlink:href="#font_0_1" transform="matrix(9.9626,0,0,-9.9626,79.7859,152.1816)"/>
<symbol id="font_1_4">
<path d="M .266 .165 L .266 .078 C .266 .042000005 .26400004 .031000002 .19000001 .031000002 L .16900002 .031000002 L .16900002 0 C .21000001 .003 .26200003 .003 .30400003 .003 C .34600003 .003 .39900003 .003 .44000004 0 L .44000004 .031000002 L .41900004 .031000002 C .34500004 .031000002 .34300003 .042000005 .34300003 .078 L .34300003 .165 L .44300003 .165 L .44300003 .19600001 L .34300003 .19600001 L .34300003 .651 C .34300003 .671 .34300003 .67700007 .32700003 .67700007 C .31800003 .67700007 .31500004 .67700007 .307 .665 L 0 .19600001 L 0 .165 L .266 .165 M .272 .19600001 L .028 .19600001 L .272 .569 L .272 .19600001 Z "/>
</symbol>
<use xlink:href="#font_1_4" transform="matrix(9.9626,0,0,-9.9626,86.98695,154.47299)"/>
<use xlink:href="#font_0_1" transform="matrix(9.9626,0,0,-9.9626,79.7859,119.9046)"/>
<symbol id="font_1_3">
<path d="M .07700001 .07700001 L .18300002 .18 C .33900003 .31800003 .39900003 .372 .39900003 .47200004 C .39900003 .586 .30900003 .666 .18700002 .666 C .074 .666 0 .574 0 .485 C 0 .42900003 .05 .42900003 .053000008 .42900003 C .07000001 .42900003 .105000007 .441 .105000007 .48200003 C .105000007 .508 .08700001 .53400006 .052000006 .53400006 C .044000005 .53400006 .042000008 .53400006 .039 .53300008 C .062000004 .59800007 .11600001 .63500007 .17400001 .63500007 C .26500003 .63500007 .308 .554 .308 .47200004 C .308 .39200003 .25800003 .31300003 .20300003 .25100003 L .011000004 .037 C 0 .026 0 .024 0 0 L .37100003 0 L .39900003 .17400001 L .374 .17400001 C .36900003 .14400001 .36200003 .1 .352 .085 C .345 .07700001 .279 .07700001 .257 .07700001 L .07700001 .07700001 Z "/>
</symbol>
<use xlink:href="#font_1_3" transform="matrix(9.9626,0,0,-9.9626,87.20613,122.196)"/>
<use xlink:href="#font_1_3" transform="matrix(9.9626,0,0,-9.9626,87.20613,58.058984)"/>
<use xlink:href="#font_1_4" transform="matrix(9.9626,0,0,-9.9626,86.98695,25.781998)"/>
<clipPath id="cp2">
<path transform="matrix(1,0,0,-1,.199,167.816)" d="M 0 0 L 194.27399 0 L 194.27399 161.3842 L 0 161.3842 Z "/>
</clipPath>
<g clip-path="url(#cp2)">
<path transform="matrix(1,0,0,-1,.199,167.816)" stroke-width="1" stroke-linecap="butt" stroke-miterlimit="10" stroke-linejoin="miter" fill="none" stroke="#000000" d="M 16.553 128.2182 L 16.67677 128.1626 L 17.16408 127.91342 L 17.65137 127.63809 L 18.13867 127.33566 L 18.62596 127.0042 L 19.11325 126.64528 L 19.60056 126.26021 L 20.08786 125.84836 L 20.57513 125.40906 L 21.06244 124.94525 L 21.54974 124.45561 L 22.03703 123.94112 L 22.52432 123.4008 L 23.01163 122.83789 L 23.49892 122.25175 L 23.98622 121.64041 L 24.47351 121.00746 L 24.9608 120.35353 L 25.4481 119.67831 L 25.93541 118.98146 L 26.42268 118.26491 L 26.90999 117.52965 L 27.3973 116.77437 L 27.88458 116.00165 L 28.37187 115.21185 L 28.85918 114.40556 L 29.34647 113.58252 L 29.83377 112.74428 L 30.32106 111.89185 L 30.80835 111.0265 L 31.29565 110.14728 L 31.78294 109.2558 L 32.27023 108.35463 L 32.75754 107.44249 L 33.24483 106.52 L 33.73213 105.58884 L 34.21942 104.64958 L 34.70671 103.7045 L 35.19402 102.75201 L 35.68132 101.7947 L 36.1686 100.8322 L 36.6559 99.86647 L 37.1432 98.89848 L 37.6305 97.92792 L 38.11778 96.95703 L 38.60509 95.98647 L 39.09238 95.01526 L 39.57968 94.0463 L 40.06697 93.07994 L 40.55426 92.11713 L 41.04156 91.15817 L 41.52887 90.20407 L 42.01614 89.2577 L 42.50345 88.31587 L 42.99075 87.38307 L 43.47804 86.45834 L 43.96533 85.54329 L 44.45264 84.63889 L 44.93993 83.7445 L 45.42723 82.86302 L 45.9145 81.9938 L 46.40181 81.13686 L 46.88911 80.29573 L 47.3764 79.46912 L 47.8637 78.65865 L 48.351 77.86366 L 48.83829 77.08644 L 49.32559 76.32697 L 49.81288 75.58589 L 50.30017 74.86418 L 50.78748 74.1628 L 51.27478 73.48145 L 51.76205 72.82138 L 52.24936 72.18294 L 52.73666 71.56807 L 53.22395 70.97353 L 53.71124 70.40352 L 54.19855 69.85901 L 54.68584 69.33774 L 55.17314 68.841 L 55.66043 68.37009 L 56.14772 67.92531 L 56.63503 67.50635 L 57.12233 67.11322 L 57.6096 66.74849 L 58.09691 66.40959 L 58.58421 66.09875 L 59.0715 65.81569 L 59.55879 65.56136 L 60.04608 65.3354 L 60.53339 65.13626 L 61.02069 64.96745 L 61.50797 64.82738 L 61.99527 64.7157 L 62.48257 64.63307 L 62.96986 64.58078 L 63.45715 64.55658 L 63.94446 64.56206 L 64.43175 64.59595 L 64.91905 64.66049 L 65.40634 64.75314 L 65.89363 64.87482 L 66.38094 65.02588 L 66.86824 65.20631 L 67.35551 65.41417 L 67.84282 65.65044 L 68.33012 65.9164 L 68.81741 66.20947 L 69.3047 66.52966 L 69.792 66.8776 L 70.2793 67.2546 L 70.7666 67.65611 L 71.25389 68.08379 L 71.74118 68.53952 L 72.22849 69.02014 L 72.71579 69.52495 L 73.20306 70.05493 L 73.69037 70.61009 L 74.17767 71.18883 L 74.66496 71.78947 L 75.15225 72.41373 L 75.63954 73.06087 L 76.12685 73.72804 L 76.61415 74.4165 L 77.10143 75.12595 L 77.58873 75.85477 L 78.07603 76.60262 L 78.56332 77.36757 L 79.05061 78.15286 L 79.53792 78.95236 L 80.0252 79.7696 L 80.51251 80.60172 L 80.9998 81.44899 L 81.48709 82.30948 L 81.9744 83.18321 L 82.4617 84.06953 L 82.94897 84.96812 L 83.43628 85.87671 L 83.92358 86.7953 L 84.41087 87.72295 L 84.89816 88.6593 L 85.38547 89.60243 L 85.87276 90.55266 L 86.36006 91.50838 L 86.84735 92.46829 L 87.33464 93.43304 L 87.82195 94.40007 L 88.30925 95.3703 L 88.79652 96.34087 L 89.28383 97.31209 L 89.77112 98.28297 L 90.25842 99.25255 L 90.74571 100.21959 L 91.233 101.18465 L 91.7203 102.14456 L 92.20761 103.1006 L 92.69489 104.05019 L 93.18219 104.99364 L 93.6695 105.93 L 94.15678 106.85828 L 94.64407 107.77689 L 95.13138 108.68513 L 95.61867 109.5834 L 96.10597 110.47038 L 96.59326 111.34412 L 97.08055 112.20493 L 97.56786 113.0522 L 98.05516 113.88463 L 98.54243 114.70123 L 99.02974 115.50201 L 99.51704 116.28603 L 100.00433 117.05228 L 100.49162 117.7998 L 100.97893 118.52893 L 101.46622 119.23901 L 101.95352 119.92717 L 102.44081 120.59497 L 102.9281 121.24213 L 103.4154 121.86604 L 103.9027 122.468 L 104.38998 123.04608 L 104.87729 123.60156 L 105.36458 124.13155 L 105.85188 124.637 L 106.33917 125.11761 L 106.82646 125.57303 L 107.31377 126.00166 L 107.80107 126.40352 L 108.28835 126.7802 L 108.77565 127.12845 L 109.26295 127.44896 L 109.75024 127.74269 L 110.23753 128.00865 L 110.72484 128.24492 L 111.21213 128.45342 L 111.69943 128.63353 L 112.18672 128.78522 L 112.67401 128.9069 L 113.16132 128.99954 L 113.64862 129.06443 L 114.1359 129.09896 L 114.6232 129.10443 L 115.1105 129.08087 L 115.5978 129.0286 L 116.08508 128.94597 L 116.57239 128.83493 L 117.05968 128.69518 L 117.54698 128.52669 L 118.03427 128.32785 L 118.52156 128.10161 L 119.00887 127.8479 L 119.49615 127.56483 L 119.98344 127.254 L 120.47075 126.91606 L 120.95804 126.55103 L 121.44534 126.15886 L 121.93263 125.73926 L 122.41992 125.2948 L 122.90723 124.82422 L 123.39453 124.32715 L 123.8818 123.80652 L 124.36911 123.26201 L 124.85641 122.69234 L 125.3437 122.09843 L 125.831 121.48291 L 126.3183 120.84512 L 126.80559 120.18506 L 127.2929 119.50403 L 127.78018 118.80264 L 128.26747 118.08125 L 128.75478 117.3405 L 129.24208 116.58134 L 129.72936 115.80412 L 130.21666 115.00946 L 130.70397 114.19867 L 131.19126 113.37271 L 131.67855 112.53093 L 132.16585 111.67462 L 132.65314 110.80574 L 133.14044 109.92361 L 133.62772 109.02986 L 134.11502 108.12514 L 134.60233 107.21106 L 135.08962 106.28601 L 135.5769 105.35287 L 136.06421 104.4117 L 136.5515 103.46405 L 137.0388 102.51123 L 137.5261 101.55164 L 138.01338 100.58882 L 138.50069 99.62311 L 138.98799 98.65318 L 139.47527 97.68294 L 139.96257 96.71237 L 140.44988 95.74117 L 140.93717 94.77092 L 141.42446 93.80261 L 141.91176 92.8369 L 142.39905 91.87505 L 142.88636 90.91707 L 143.37364 89.96523 L 143.86093 89.01888 L 144.34824 88.08026 L 144.83554 87.1494 L 145.32282 86.22693 L 145.81012 85.31413 L 146.29743 84.41199 L 146.78472 83.52147 L 147.272 82.64194 L 147.7593 81.77596 L 148.2466 80.92415 L 148.7339 80.08528 L 149.22118 79.26222 L 149.70848 78.4566 L 150.19579 77.66548 L 150.68308 76.8931 L 151.17037 76.13782 L 151.65767 75.40192 L 152.14496 74.68504 L 152.63227 73.98819 L 153.11956 73.31296 L 153.60684 72.6587 L 154.09415 72.02576 L 154.58145 71.4154 L 155.06873 70.8283 L 155.55603 70.26474 L 156.04334 69.72507 L 156.53063 69.20992 L 157.01792 68.72028 L 157.50522 68.2555 L 157.99251 67.81653 L 158.47982 67.40468 L 158.9671 67.0193 L 159.45439 66.66006 L 159.9417 66.3276 L 160.429 66.02548 L 160.91628 65.74953 L 161.40358 65.50035 L 161.52738 65.44473 "/>
<path transform="matrix(-.9122,-.40965,-.40965,.9122,16.57026,39.51619)" stroke-width="1" stroke-linecap="round" stroke-linejoin="round" fill="none" stroke="#000000" d="M -2.07224 2.39104 C -1.69365 .95639 -.84999 .27895 0 0 C -.84999 -.27895 -1.69365 -.95639 -2.07224 -2.39104 "/>
<path transform="matrix(.9122,.40962,.40962,-.9122,161.90811,102.452869)" stroke-width="1" stroke-linecap="round" stroke-linejoin="round" fill="none" stroke="#000000" d="M -2.07224 2.39104 C -1.69365 .95639 -.84999 .27895 0 0 C -.84999 -.27895 -1.69365 -.95639 -2.07224 -2.39104 "/>
</g>
<symbol id="font_3_1">
<path d="M .305 .31300003 C .311 .33900003 .334 .43100003 .404 .43100003 C .409 .43100003 .433 .43100003 .454 .418 C .426 .41300003 .40600003 .388 .40600003 .36400003 C .40600003 .34800003 .417 .32900004 .444 .32900004 C .46600003 .32900004 .498 .34700004 .498 .38700003 C .498 .43900005 .439 .45300005 .405 .45300005 C .347 .45300005 .312 .40000005 .3 .37700004 C .275 .44300003 .221 .45300005 .19200002 .45300005 C .08800001 .45300005 .031000002 .32400004 .031000002 .29900003 C .031000002 .28900004 .041 .28900004 .043000007 .28900004 C .051000008 .28900004 .054000006 .291 .056 .3 C .09 .40600003 .156 .43100003 .19000001 .43100003 C .209 .43100003 .244 .42200003 .244 .36400003 C .244 .33300004 .22700002 .26600004 .19000001 .126 C .17400001 .064 .13900002 .022000002 .095000009 .022000002 C .08900001 .022000002 .06600001 .022000002 .045 .035 C .07000001 .040000004 .09200001 .061 .09200001 .089 C .09200001 .116000007 .07000001 .124000009 .055000009 .124000009 C .025 .124000009 0 .098000008 0 .06600001 C 0 .020000002 .050000006 0 .094000007 0 C .16000001 0 .19600001 .07000001 .19900002 .076000008 C .21100001 .039 .24700003 0 .307 0 C .41 0 .467 .12900001 .467 .15400002 C .467 .16400002 .458 .16400002 .455 .16400002 C .446 .16400002 .444 .16000001 .442 .15300001 C .409 .046 .341 .022000002 .30900003 .022000002 C .27 .022000002 .254 .054 .254 .08800001 C .254 .11000001 .26 .13200002 .271 .17600002 L .305 .31300003 Z "/>
</symbol>
<use xlink:href="#font_3_1" transform="matrix(9.9626,0,0,-9.9626,191.91292,83.714588)"/>
<symbol id="font_3_2">
<path d="M .45700003 .586 C .461 .6 .461 .602 .461 .609 C .461 .62700006 .447 .63600006 .432 .63600006 C .42200003 .63600006 .40600003 .63 .397 .615 C .395 .61 .387 .579 .38300003 .561 C .37600003 .535 .36900003 .508 .363 .48100005 L .318 .301 C .314 .286 .271 .21600002 .20500002 .21600002 C .15400002 .21600002 .143 .26000003 .143 .29700003 C .143 .34300003 .16000001 .40500004 .194 .49300004 C .21000001 .53400006 .21400002 .545 .21400002 .56500008 C .21400002 .61 .18200001 .6470001 .13200002 .6470001 C .037 .6470001 0 .50200006 0 .49300004 C 0 .48300005 .01 .48300005 .012 .48300005 C .022000002 .48300005 .023 .485 .028000003 .50100007 C .055000009 .595 .095000009 .625 .12900001 .625 C .13700001 .625 .15400002 .625 .15400002 .59300008 C .15400002 .568 .14400001 .54200008 .13700001 .523 C .097 .41700004 .079 .36 .079 .31300003 C .079 .224 .142 .194 .201 .194 C .24000003 .194 .274 .21100001 .30200003 .23900002 C .289 .187 .277 .13800001 .237 .08500001 C .21100001 .051 .17300001 .022 .127 .022 C .113000009 .022 .068 .025000006 .051000008 .06400001 C .067 .06400001 .080000009 .06400001 .094000007 .076000008 C .104 .08500001 .11400001 .098000008 .11400001 .117000009 C .11400001 .148 .087000008 .15200001 .07700001 .15200001 C .054000006 .15200001 .021 .136 .021 .087000008 C .021 .037 .065000008 0 .127 0 C .23 0 .333 .091000009 .361 .20400001 L .45700003 .586 Z "/>
</symbol>
<use xlink:href="#font_3_2" transform="matrix(9.9626,0,0,-9.9626,101.14391,9.652334)"/>
</svg>
