<?xml version="1.0" encoding="UTF-8" standalone="no"?>
<!DOCTYPE svg PUBLIC "-//W3C//DTD SVG 1.1//EN" "http://www.w3.org/Graphics/SVG/1.1/DTD/svg11.dtd">
<svg xmlns="http://www.w3.org/2000/svg" xmlns:xlink="http://www.w3.org/1999/xlink" version="1.1" width="200.635pt" height="168.015pt" viewBox="0 0 200.635 168.015">
<path transform="matrix(1,0,0,-1,.199,167.816)" stroke-width="1" stroke-linecap="butt" stroke-miterlimit="10" stroke-linejoin="miter" fill="none" stroke="#808080" d="M 2.69818 79.27469 L 2.69818 82.1095 M 7.19516 79.27469 L 7.19516 82.1095 M 11.69217 79.27469 L 11.69217 82.1095 M 20.68617 79.27469 L 20.68617 82.1095 M 25.18317 79.27469 L 25.18317 82.1095 M 29.68016 79.27469 L 29.68016 82.1095 M 34.17715 79.27469 L 34.17715 82.1095 M 38.67416 79.27469 L 38.67416 82.1095 M 47.66817 79.27469 L 47.66817 82.1095 M 52.16516 79.27469 L 52.16516 82.1095 M 56.66216 79.27469 L 56.66216 82.1095 M 61.15915 79.27469 L 61.15915 82.1095 M 65.65616 79.27469 L 65.65616 82.1095 M 74.65016 79.27469 L 74.65016 82.1095 M 79.14714 79.27469 L 79.14714 82.1095 M 83.64415 79.27469 L 83.64415 82.1095 M 88.14114 79.27469 L 88.14114 82.1095 M 92.63814 79.27469 L 92.63814 82.1095 M 101.63216 79.27469 L 101.63216 82.1095 M 106.12914 79.27469 L 106.12914 82.1095 M 110.62614 79.27469 L 110.62614 82.1095 M 115.12312 79.27469 L 115.12312 82.1095 M 119.62013 79.27469 L 119.62013 82.1095 M 128.61414 79.27469 L 128.61414 82.1095 M 133.11113 79.27469 L 133.11113 82.1095 M 137.60814 79.27469 L 137.60814 82.1095 M 142.10512 79.27469 L 142.10512 82.1095 M 146.60213 79.27469 L 146.60213 82.1095 M 155.59613 79.27469 L 155.59613 82.1095 M 160.09313 79.27469 L 160.09313 82.1095 M 164.59012 79.27469 L 164.59012 82.1095 M 169.08712 79.27469 L 169.08712 82.1095 M 173.58412 79.27469 L 173.58412 82.1095 M 182.57813 79.27469 L 182.57813 82.1095 M 187.07512 79.27469 L 187.07512 82.1095 M 191.57212 79.27469 L 191.57212 82.1095 "/>
<path transform="matrix(1,0,0,-1,.199,167.816)" stroke-width="1" stroke-linecap="butt" stroke-miterlimit="10" stroke-linejoin="miter" fill="none" stroke="#808080" d="M 16.1892 78.56621 L 16.1892 82.81796 M 43.17117 78.56621 L 43.17117 82.81796 M 70.15317 78.56621 L 70.15317 82.81796 M 124.11716 78.56621 L 124.11716 82.81796 M 151.09915 78.56621 L 151.09915 82.81796 M 178.08113 78.56621 L 178.08113 82.81796 "/>
<path transform="matrix(1,0,0,-1,.199,167.816)" stroke-width="1" stroke-linecap="butt" stroke-miterlimit="10" stroke-linejoin="miter" fill="none" stroke="#808080" d="M 95.71767 0 L 98.55267 0 M 95.71767 5.37946 L 98.55267 5.37946 M 95.71767 10.75894 L 98.55267 10.75894 M 95.71767 21.51788 L 98.55267 21.51788 M 95.71767 26.89735 L 98.55267 26.89735 M 95.71767 32.27682 L 98.55267 32.27682 M 95.71767 37.6563 L 98.55267 37.6563 M 95.71767 43.03578 L 98.55267 43.03578 M 95.71767 53.79472 L 98.55267 53.79472 M 95.71767 59.1742 L 98.55267 59.1742 M 95.71767 64.55367 L 98.55267 64.55367 M 95.71767 69.93314 L 98.55267 69.93314 M 95.71767 75.31262 L 98.55267 75.31262 M 95.71767 86.07156 L 98.55267 86.07156 M 95.71767 91.45103 L 98.55267 91.45103 M 95.71767 96.8305 L 98.55267 96.8305 M 95.71767 102.20998 L 98.55267 102.20998 M 95.71767 107.58946 L 98.55267 107.58946 M 95.71767 118.3484 L 98.55267 118.3484 M 95.71767 123.72787 L 98.55267 123.72787 M 95.71767 129.10735 L 98.55267 129.10735 M 95.71767 134.48682 L 98.55267 134.48682 M 95.71767 139.8663 L 98.55267 139.8663 M 95.71767 150.62525 L 98.55267 150.62525 M 95.71767 156.00472 L 98.55267 156.00472 M 95.71767 161.38419 L 98.55267 161.38419 "/>
<path transform="matrix(1,0,0,-1,.199,167.816)" stroke-width="1" stroke-linecap="butt" stroke-miterlimit="10" stroke-linejoin="miter" fill="none" stroke="#808080" d="M 95.00912 16.13841 L 99.26118 16.13841 M 95.00912 48.41525 L 99.26118 48.41525 M 95.00912 112.96893 L 99.26118 112.96893 M 95.00912 145.24578 L 99.26118 145.24578 "/>
<path transform="matrix(1,0,0,-1,.199,167.816)" stroke-width="1" stroke-linecap="butt" stroke-miterlimit="10" stroke-linejoin="miter" fill="none" stroke="#000000" d="M 0 80.6921 L 192.2778 80.6921 "/>
<path transform="matrix(1,0,0,-1,192.4768,87.12389)" d="M 1.99252 0 L -1.19551 1.59401 L 0 0 L -1.19551 -1.59401 "/>
<path transform="matrix(1,0,0,-1,.199,167.816)" stroke-width="1" stroke-linecap="butt" stroke-miterlimit="10" stroke-linejoin="miter" fill="none" stroke="#000000" d="M 97.13516 0 L 97.13516 159.39168 "/>
<path transform="matrix(0,-1,-1,-0,97.33416,8.424316)" d="M 1.99252 0 L -1.19551 1.59401 L 0 0 L -1.19551 -1.59401 "/>
<symbol id="font_0_1">
<path d="M .57600006 0 C .59300008 0 .611 0 .611 .019999996 C .611 .040000008 .59300008 .040000008 .57600006 .040000008 L .035000005 .040000008 C .018 .040000008 0 .040000008 0 .019999996 C 0 0 .018 0 .035000005 0 L .57600006 0 Z "/>
</symbol>
<use xlink:href="#font_0_1" transform="matrix(9.9626,0,0,-9.9626,8.359896,96.89959)"/>
<symbol id="font_1_2">
<path d="M .205 .64000007 C .205 .66400006 .205 .666 .18200003 .666 C .120000008 .60200008 .032000007 .60200008 0 .60200008 L 0 .57100006 C .020000004 .57100006 .07900001 .57100006 .13100001 .597 L .13100001 .079 C .13100001 .043 .128 .031000002 .038000004 .031000002 L .0060000049 .031000002 L .0060000049 0 C .04100001 .003 .128 .003 .168 .003 C .20800002 .003 .29500003 .003 .33000005 0 L .33000005 .031000002 L .29800005 .031000002 C .20800002 .031000002 .205 .042000005 .205 .079 L .205 .64000007 Z "/>
</symbol>
<symbol id="font_1_5">
<path d="M .39900003 .223 C .39900003 .34200005 .317 .44200004 .209 .44200004 C .16100002 .44200004 .118000019 .42600004 .082 .39100004 L .082 .586 C .10200001 .58000007 .135 .573 .16700001 .573 C .29 .573 .36 .66400006 .36 .67700007 C .36 .683 .357 .688 .35 .688 C .349 .688 .347 .688 .342 .68500009 C .322 .67600008 .273 .656 .20600002 .656 C .16600001 .656 .120000008 .66300007 .073 .6840001 C .065 .68700006 .06300001 .68700006 .061000009 .68700006 C .051000004 .68700006 .051000004 .679 .051000004 .66300007 L .051000004 .36700005 C .051000004 .34900005 .051000004 .34100003 .065 .34100003 C .07200001 .34100003 .074 .34400005 .07800001 .35000003 C .08900002 .36600004 .12600002 .42000006 .207 .42000006 C .259 .42000006 .284 .37400005 .292 .35600005 C .308 .31900005 .31 .28000004 .31 .23 C .31 .19500001 .31 .135 .286 .093 C .262 .054000006 .22500001 .028 .17900002 .028 C .106000009 .028 .049000008 .08100001 .032 .14000002 C .035 .13900002 .038000008 .13800001 .049000008 .13800001 C .082 .13800001 .09900001 .163 .09900001 .187 C .09900001 .21100001 .082 .23600002 .049000008 .23600002 C .035 .23600002 0 .22900002 0 .18300002 C 0 .097 .069000009 0 .18100001 0 C .297 0 .39900003 .096 .39900003 .223 Z "/>
</symbol>
<use xlink:href="#font_1_2" transform="matrix(9.9626,0,0,-9.9626,16.167672,99.19099)"/>
<use xlink:href="#font_1_5" transform="matrix(9.9626,0,0,-9.9626,20.760432,99.410167)"/>
<use xlink:href="#font_0_1" transform="matrix(9.9626,0,0,-9.9626,35.340898,96.89959)"/>
<symbol id="font_1_1">
<path d="M .421 .34200005 C .421 .42200003 .416 .50200006 .381 .57600006 C .335 .67200008 .25300003 .688 .211 .688 C .15100001 .688 .07800001 .66200008 .037000006 .56900009 C .0050000029 .5 0 .42200003 0 .34200005 C 0 .26700003 .0040000008 .177 .045000007 .101 C .088 .020000002 .161 0 .21000001 0 C .264 0 .34 .021000002 .384 .116000007 C .416 .185 .421 .263 .421 .34200005 M .21000001 .022000002 C .171 .022000002 .112 .047000003 .094 .143 C .083000008 .20300001 .083000008 .29500003 .083000008 .35400004 C .083000008 .41800005 .083000008 .48400004 .091000009 .53800007 C .11 .65700009 .185 .66600009 .21000001 .66600009 C .243 .66600009 .30900003 .64800009 .328 .549 C .338 .49300004 .338 .41700004 .338 .35400004 C .338 .279 .338 .21100001 .32700003 .147 C .312 .052 .255 .022000002 .21000001 .022000002 Z "/>
</symbol>
<use xlink:href="#font_1_2" transform="matrix(9.9626,0,0,-9.9626,43.149675,99.19099)"/>
<use xlink:href="#font_1_1" transform="matrix(9.9626,0,0,-9.9626,47.632844,99.410167)"/>
<use xlink:href="#font_0_1" transform="matrix(9.9626,0,0,-9.9626,64.8129,96.89959)"/>
<use xlink:href="#font_1_5" transform="matrix(9.9626,0,0,-9.9626,72.23313,99.410167)"/>
<use xlink:href="#font_1_5" transform="matrix(9.9626,0,0,-9.9626,122.32213,99.410167)"/>
<use xlink:href="#font_1_2" transform="matrix(9.9626,0,0,-9.9626,147.20168,99.19099)"/>
<use xlink:href="#font_1_1" transform="matrix(9.9626,0,0,-9.9626,151.68483,99.410167)"/>
<use xlink:href="#font_1_2" transform="matrix(9.9626,0,0,-9.9626,174.18369,99.19099)"/>
<use xlink:href="#font_1_5" transform="matrix(9.9626,0,0,-9.9626,178.77643,99.410167)"/>
<use xlink:href="#font_0_1" transform="matrix(9.9626,0,0,-9.9626,79.7839,152.1816)"/>
<symbol id="font_1_4">
<path d="M .266 .165 L .266 .078 C .266 .042000005 .26400004 .031000002 .19000001 .031000002 L .16900002 .031000002 L .16900002 0 C .21000001 .003 .26200003 .003 .30400003 .003 C .34600003 .003 .39900003 .003 .44000004 0 L .44000004 .031000002 L .41900004 .031000002 C .34500004 .031000002 .34300003 .042000005 .34300003 .078 L .34300003 .165 L .44300003 .165 L .44300003 .19600001 L .34300003 .19600001 L .34300003 .651 C .34300003 .671 .34300003 .67700007 .32700003 .67700007 C .31800003 .67700007 .31500004 .67700007 .307 .665 L 0 .19600001 L 0 .165 L .266 .165 M .272 .19600001 L .028 .19600001 L .272 .569 L .272 .19600001 Z "/>
</symbol>
<use xlink:href="#font_1_4" transform="matrix(9.9626,0,0,-9.9626,86.984958,154.47299)"/>
<use xlink:href="#font_0_1" transform="matrix(9.9626,0,0,-9.9626,79.7839,119.9046)"/>
<symbol id="font_1_3">
<path d="M .07700001 .07700001 L .18300002 .18 C .33900003 .31800003 .39900003 .372 .39900003 .47200004 C .39900003 .586 .30900003 .666 .18700002 .666 C .074 .666 0 .574 0 .485 C 0 .42900003 .05 .42900003 .053000008 .42900003 C .07000001 .42900003 .105000007 .441 .105000007 .48200003 C .105000007 .508 .08700001 .53400006 .052000006 .53400006 C .044000005 .53400006 .042000008 .53400006 .039 .53300008 C .062000004 .59800007 .11600001 .63500007 .17400001 .63500007 C .26500003 .63500007 .308 .554 .308 .47200004 C .308 .39200003 .25800003 .31300003 .20300003 .25100003 L .011000004 .037 C 0 .026 0 .024 0 0 L .37100003 0 L .39900003 .17400001 L .374 .17400001 C .36900003 .14400001 .36200003 .1 .352 .085 C .345 .07700001 .279 .07700001 .257 .07700001 L .07700001 .07700001 Z "/>
</symbol>
<use xlink:href="#font_1_3" transform="matrix(9.9626,0,0,-9.9626,87.20413,122.196)"/>
<use xlink:href="#font_1_3" transform="matrix(9.9626,0,0,-9.9626,87.20413,58.058984)"/>
<use xlink:href="#font_1_4" transform="matrix(9.9626,0,0,-9.9626,86.984958,25.781998)"/>
<clipPath id="cp2">
<path transform="matrix(1,0,0,-1,.199,167.816)" d="M 0 0 L 194.27033 0 L 194.27033 161.3842 L 0 161.3842 Z "/>
</clipPath>
<g clip-path="url(#cp2)">
<path transform="matrix(1,0,0,-1,.199,167.816)" stroke-width="1" stroke-linecap="butt" stroke-miterlimit="10" stroke-linejoin="miter" fill="none" stroke="#000000" d="M 11.14957 92.72769 L 11.37033 92.61789 L 11.94786 92.32257 L 12.5254 92.01949 L 13.10294 91.70914 L 13.6805 91.38734 L 14.25804 91.06134 L 14.83557 90.72583 L 15.41312 90.38515 L 15.99066 90.0372 L 16.5682 89.6799 L 17.14574 89.31888 L 17.72328 88.95172 L 18.30083 88.57587 L 18.87837 88.19693 L 19.45592 87.813 L 20.03345 87.42245 L 20.61101 87.0269 L 21.18854 86.63007 L 21.76608 86.22433 L 22.34361 85.81732 L 22.92117 85.40741 L 23.4987 84.99185 L 24.07625 84.57498 L 24.65378 84.15393 L 25.23134 83.73015 L 25.80888 83.30603 L 26.38641 82.87997 L 26.96396 82.44891 L 27.5415 82.02013 L 28.11905 81.58873 L 28.69658 81.15817 L 29.27412 80.72758 L 29.85167 80.29396 L 30.42921 79.86322 L 31.00676 79.43344 L 31.58429 79.00272 L 32.16185 78.57474 L 32.73938 78.1469 L 33.31693 77.72084 L 33.89445 77.29817 L 34.47202 76.87857 L 35.04955 76.45801 L 35.62709 76.04388 L 36.20464 75.63269 L 36.78218 75.22374 L 37.35973 74.8206 L 37.93726 74.42151 L 38.5148 74.02353 L 39.09233 73.63347 L 39.66989 73.24889 L 40.24742 72.86592 L 40.82497 72.49231 L 41.40251 72.12276 L 41.98006 71.76108 L 42.5576 71.40524 L 43.13513 71.05374 L 43.71268 70.71274 L 44.29022 70.37704 L 44.86777 70.0488 L 45.4453 69.72797 L 46.02286 69.41537 L 46.6004 69.11035 L 47.17793 68.81421 L 47.7555 68.5255 L 48.33302 68.24678 L 48.91058 67.97581 L 49.48811 67.71501 L 50.06566 67.46262 L 50.64319 67.22054 L 51.22075 66.98735 L 51.7983 66.76463 L 52.37584 66.55127 L 52.95338 66.34859 L 53.53091 66.15573 L 54.10846 65.97353 L 54.686 65.80165 L 55.26357 65.64043 L 55.8411 65.49017 L 56.41864 65.35025 L 56.99617 65.22244 L 57.57373 65.10431 L 58.15128 64.99892 L 58.72882 64.90355 L 59.30637 64.81995 L 59.8839 64.74765 L 60.46146 64.68697 L 61.03899 64.63742 L 61.61653 64.59949 L 62.19408 64.57303 L 62.77162 64.55788 L 63.34918 64.55463 L 63.92671 64.5627 L 64.50426 64.5827 L 65.08179 64.61354 L 65.65935 64.65663 L 66.23688 64.71053 L 66.81444 64.7767 L 67.39197 64.85303 L 67.96951 64.94228 L 68.54706 65.04153 L 69.1246 65.15273 L 69.70215 65.27473 L 70.2797 65.4077 L 70.85724 65.55167 L 71.43477 65.70659 L 72.01233 65.87234 L 72.58986 66.0481 L 73.1674 66.23529 L 73.74495 66.43187 L 74.3225 66.6394 L 74.90005 66.85631 L 75.47758 67.0837 L 76.05513 67.32028 L 76.63266 67.56735 L 77.21022 67.82266 L 77.78775 68.08815 L 78.36531 68.36234 L 78.94284 68.6454 L 79.52039 68.93669 L 80.09793 69.23672 L 80.67548 69.54495 L 81.25302 69.86111 L 81.83057 70.18517 L 82.40811 70.51648 L 82.98564 70.85522 L 83.5632 71.20076 L 84.14073 71.55386 L 84.71828 71.91278 L 85.29584 72.27817 L 85.87337 72.6495 L 86.45093 73.02666 L 87.02846 73.40947 L 87.606 73.79727 L 88.18353 74.18993 L 88.7611 74.5874 L 89.33862 74.98943 L 89.91618 75.39513 L 90.49373 75.80489 L 91.07126 76.21852 L 91.6488 76.63457 L 92.22635 77.054 L 92.8039 77.47603 L 93.38144 77.90015 L 93.95898 78.32635 L 94.53653 78.75403 L 95.11407 79.18347 L 95.6916 79.61371 L 96.26915 80.04494 L 96.84671 80.47664 L 97.42426 80.90802 L 98.0018 81.33972 L 98.57933 81.77061 L 99.15689 82.20102 L 99.73442 82.63031 L 100.31197 83.0583 L 100.88951 83.48451 L 101.46706 83.90895 L 102.04462 84.33066 L 102.62215 84.74977 L 103.19969 85.16629 L 103.77722 85.57977 L 104.35478 85.9892 L 104.93231 86.39508 L 105.50987 86.79694 L 106.0874 87.19443 L 106.66496 87.58739 L 107.24251 87.97502 L 107.82004 88.35768 L 108.39758 88.73515 L 108.97513 89.10634 L 109.55267 89.47203 L 110.13022 89.8308 L 110.70776 90.18356 L 111.2853 90.5291 L 111.86284 90.86801 L 112.4404 91.1995 L 113.01793 91.52354 L 113.59549 91.8397 L 114.17302 92.14778 L 114.75056 92.44795 L 115.3281 92.7391 L 115.90565 93.02184 L 116.48318 93.29619 L 117.06075 93.56166 L 117.63828 93.81715 L 118.21584 94.06438 L 118.79338 94.30048 L 119.37091 94.52803 L 119.94846 94.74493 L 120.526 94.95264 L 121.10355 95.14903 L 121.68109 95.33626 L 122.25864 95.512 L 122.83617 95.67773 L 123.41371 95.8325 L 123.99127 95.97647 L 124.5688 96.10976 L 125.14636 96.23161 L 125.72389 96.34297 L 126.30144 96.44221 L 126.87898 96.53114 L 127.45653 96.60747 L 128.03406 96.67365 L 128.61162 96.72754 L 129.18917 96.77046 L 129.76671 96.80147 L 130.34426 96.82147 L 130.92179 96.82954 L 131.49933 96.82631 L 132.07688 96.81114 L 132.65442 96.78452 L 133.23197 96.74675 L 133.80951 96.6972 L 134.38706 96.63669 L 134.96459 96.56374 L 135.54215 96.48079 L 136.11969 96.38509 L 136.69724 96.2797 L 137.27477 96.1614 L 137.85231 96.0336 L 138.42986 95.89383 L 139.0074 95.74359 L 139.58495 95.5822 L 140.16249 95.41064 L 140.74004 95.22812 L 141.31758 95.03558 L 141.89513 94.83241 L 142.47266 94.61922 L 143.05022 94.39651 L 143.62775 94.16315 L 144.20529 93.92123 L 144.78284 93.66899 L 145.36038 93.40787 L 145.93793 93.1369 L 146.51548 92.85818 L 147.09302 92.56996 L 147.67057 92.27367 L 148.24811 91.96881 L 148.82564 91.65572 L 149.40319 91.33504 L 149.98073 91.0068 L 150.55828 90.67096 L 151.13584 90.32802 L 151.71337 89.97894 L 152.29091 89.6231 L 152.86844 89.25868 L 153.446 88.89186 L 154.02353 88.51825 L 154.60108 88.13528 L 155.1786 87.7507 L 155.75617 87.36064 L 156.33371 86.96266 L 156.91124 86.56357 L 157.48879 86.16043 L 158.06633 85.75148 L 158.64388 85.34029 L 159.2214 84.92326 L 159.79895 84.5056 L 160.37648 84.086 L 160.95404 83.66156 L 161.53159 83.23727 L 162.10912 82.80943 L 162.68666 82.37985 L 163.2642 81.95073 L 163.84175 81.52095 L 164.41928 81.08878 L 164.99683 80.65659 L 165.57437 80.226 L 166.15192 79.7935 L 166.72945 79.36404 L 167.30699 78.93526 L 167.88455 78.5042 L 168.46208 78.07814 L 169.03963 77.65402 L 169.61716 77.23024 L 170.19472 76.80919 L 170.77225 76.39232 L 171.3498 75.97676 L 171.92733 75.56685 L 172.50489 75.15677 L 173.08243 74.7541 L 173.65996 74.35728 L 174.2375 73.95882 L 174.81505 73.57117 L 175.3926 73.18724 L 175.97013 72.80525 L 176.54767 72.43245 L 177.12522 72.06529 L 177.70276 71.70169 L 178.2803 71.34697 L 178.85784 70.99902 L 179.4354 70.65706 L 180.01293 70.32283 L 180.59047 69.99683 L 181.168 69.67503 L 181.74556 69.36469 L 182.32309 69.0616 L 182.90064 68.76628 L 183.1214 68.65648 "/>
<path transform="matrix(-.8953,-.44534,-.44534,.8953,11.170191,74.99956)" stroke-width="1" stroke-linecap="round" stroke-linejoin="round" fill="none" stroke="#000000" d="M -2.07224 2.39104 C -1.69365 .95639 -.84999 .27895 0 0 C -.84999 -.27895 -1.69365 -.95639 -2.07224 -2.39104 "/>
<path transform="matrix(.8953,.44534,.44534,-.8953,183.49878,99.24826)" stroke-width="1" stroke-linecap="round" stroke-linejoin="round" fill="none" stroke="#000000" d="M -2.07224 2.39104 C -1.69365 .95639 -.84999 .27895 0 0 C -.84999 -.27895 -1.69365 -.95639 -2.07224 -2.39104 "/>
</g>
<symbol id="font_3_1">
<path d="M .305 .31300003 C .311 .33900003 .334 .43100003 .404 .43100003 C .409 .43100003 .433 .43100003 .454 .418 C .426 .41300003 .40600003 .388 .40600003 .36400003 C .40600003 .34800003 .417 .32900004 .444 .32900004 C .46600003 .32900004 .498 .34700004 .498 .38700003 C .498 .43900005 .439 .45300005 .405 .45300005 C .347 .45300005 .312 .40000005 .3 .37700004 C .275 .44300003 .221 .45300005 .19200002 .45300005 C .08800001 .45300005 .031000002 .32400004 .031000002 .29900003 C .031000002 .28900004 .041 .28900004 .043000007 .28900004 C .051000008 .28900004 .054000006 .291 .056 .3 C .09 .40600003 .156 .43100003 .19000001 .43100003 C .209 .43100003 .244 .42200003 .244 .36400003 C .244 .33300004 .22700002 .26600004 .19000001 .126 C .17400001 .064 .13900002 .022000002 .095000009 .022000002 C .08900001 .022000002 .06600001 .022000002 .045 .035 C .07000001 .040000004 .09200001 .061 .09200001 .089 C .09200001 .116000007 .07000001 .124000009 .055000009 .124000009 C .025 .124000009 0 .098000008 0 .06600001 C 0 .020000002 .050000006 0 .094000007 0 C .16000001 0 .19600001 .07000001 .19900002 .076000008 C .21100001 .039 .24700003 0 .307 0 C .41 0 .467 .12900001 .467 .15400002 C .467 .16400002 .458 .16400002 .455 .16400002 C .446 .16400002 .444 .16000001 .442 .15300001 C .409 .046 .341 .022000002 .30900003 .022000002 C .27 .022000002 .254 .054 .254 .08800001 C .254 .11000001 .26 .13200002 .271 .17600002 L .305 .31300003 Z "/>
</symbol>
<use xlink:href="#font_3_1" transform="matrix(9.9626,0,0,-9.9626,191.90892,83.714588)"/>
<symbol id="font_3_2">
<path d="M .45700003 .586 C .461 .6 .461 .602 .461 .609 C .461 .62700006 .447 .63600006 .432 .63600006 C .42200003 .63600006 .40600003 .63 .397 .615 C .395 .61 .387 .579 .38300003 .561 C .37600003 .535 .36900003 .508 .363 .48100005 L .318 .301 C .314 .286 .271 .21600002 .20500002 .21600002 C .15400002 .21600002 .143 .26000003 .143 .29700003 C .143 .34300003 .16000001 .40500004 .194 .49300004 C .21000001 .53400006 .21400002 .545 .21400002 .56500008 C .21400002 .61 .18200001 .6470001 .13200002 .6470001 C .037 .6470001 0 .50200006 0 .49300004 C 0 .48300005 .01 .48300005 .012 .48300005 C .022000002 .48300005 .023 .485 .028000003 .50100007 C .055000009 .595 .095000009 .625 .12900001 .625 C .13700001 .625 .15400002 .625 .15400002 .59300008 C .15400002 .568 .14400001 .54200008 .13700001 .523 C .097 .41700004 .079 .36 .079 .31300003 C .079 .224 .142 .194 .201 .194 C .24000003 .194 .274 .21100001 .30200003 .23900002 C .289 .187 .277 .13800001 .237 .08500001 C .21100001 .051 .17300001 .022 .127 .022 C .113000009 .022 .068 .025000006 .051000008 .06400001 C .067 .06400001 .080000009 .06400001 .094000007 .076000008 C .104 .08500001 .11400001 .098000008 .11400001 .117000009 C .11400001 .148 .087000008 .15200001 .07700001 .15200001 C .054000006 .15200001 .021 .136 .021 .087000008 C .021 .037 .065000008 0 .127 0 C .23 0 .333 .091000009 .361 .20400001 L .45700003 .586 Z "/>
</symbol>
<use xlink:href="#font_3_2" transform="matrix(9.9626,0,0,-9.9626,101.141918,9.652334)"/>
</svg>
