<?xml version="1.0" encoding="UTF-8" standalone="no"?>
<!DOCTYPE svg PUBLIC "-//W3C//DTD SVG 1.1//EN" "http://www.w3.org/Graphics/SVG/1.1/DTD/svg11.dtd">
<svg xmlns="http://www.w3.org/2000/svg" xmlns:xlink="http://www.w3.org/1999/xlink" version="1.1" width="210.12pt" height="169.469pt" viewBox="0 0 210.12 169.469">
<path transform="matrix(1,0,0,-1,9.686,167.924)" stroke-width="1" stroke-linecap="butt" stroke-miterlimit="10" stroke-linejoin="miter" fill="none" stroke="#808080" d="M 24.28363 13.25464 L 24.28363 16.09004 M 72.8509 13.25464 L 72.8509 16.09004 M 121.4182 13.25464 L 121.4182 16.09004 M 169.98548 13.25464 L 169.98548 16.09004 "/>
<path transform="matrix(1,0,0,-1,9.686,167.924)" stroke-width="1" stroke-linecap="butt" stroke-miterlimit="10" stroke-linejoin="miter" fill="none" stroke="#808080" d="M 0 12.54599 L 0 16.79866 M 48.56728 12.54599 L 48.56728 16.79866 M 145.70183 12.54599 L 145.70183 16.79866 M 194.26912 12.54599 L 194.26912 16.79866 "/>
<path transform="matrix(1,0,0,-1,9.686,167.924)" stroke-width="1" stroke-linecap="butt" stroke-miterlimit="10" stroke-linejoin="miter" fill="none" stroke="#808080" d="M 95.7171 0 L 98.552 0 M 95.7171 29.34468 L 98.552 29.34468 M 95.7171 58.68936 L 98.552 58.68936 M 95.7171 88.03404 L 98.552 88.03404 M 95.7171 117.37872 L 98.552 117.37872 M 95.7171 146.7234 L 98.552 146.7234 "/>
<path transform="matrix(1,0,0,-1,9.686,167.924)" stroke-width="1" stroke-linecap="butt" stroke-miterlimit="10" stroke-linejoin="miter" fill="none" stroke="#808080" d="M 95.0086 44.01701 L 99.26048 44.01701 M 95.0086 73.3617 L 99.26048 73.3617 M 95.0086 102.70638 L 99.26048 102.70638 M 95.0086 132.05107 L 99.26048 132.05107 M 95.0086 161.39575 L 99.26048 161.39575 "/>
<path transform="matrix(1,0,0,-1,9.686,167.924)" stroke-width="1" stroke-linecap="butt" stroke-miterlimit="10" stroke-linejoin="miter" fill="none" stroke="#000000" d="M 0 14.67233 L 192.2766 14.67233 "/>
<path transform="matrix(1,0,0,-1,201.9626,153.25167)" d="M 1.99252 0 L -1.19551 1.59401 L 0 0 L -1.19551 -1.59401 "/>
<path transform="matrix(1,0,0,-1,9.686,167.924)" stroke-width="1" stroke-linecap="butt" stroke-miterlimit="10" stroke-linejoin="miter" fill="none" stroke="#000000" d="M 97.13455 0 L 97.13455 159.40323 "/>
<path transform="matrix(0,-1,-1,-0,106.82055,8.520767)" d="M 1.99252 0 L -1.19551 1.59401 L 0 0 L -1.19551 -1.59401 "/>
<symbol id="font_0_1">
<path d="M .57600006 0 C .59300008 0 .611 0 .611 .019999996 C .611 .040000008 .59300008 .040000008 .57600006 .040000008 L .035000005 .040000008 C .018 .040000008 0 .040000008 0 .019999996 C 0 0 .018 0 .035000005 0 L .57600006 0 Z "/>
</symbol>
<use xlink:href="#font_0_1" transform="matrix(9.9626,0,0,-9.9626,4.147896,163.0266)"/>
<symbol id="font_1_4">
<path d="M .266 .165 L .266 .078 C .266 .042000005 .26400004 .031000002 .19000001 .031000002 L .16900002 .031000002 L .16900002 0 C .21000001 .003 .26200003 .003 .30400003 .003 C .34600003 .003 .39900003 .003 .44000004 0 L .44000004 .031000002 L .41900004 .031000002 C .34500004 .031000002 .34300003 .042000005 .34300003 .078 L .34300003 .165 L .44300003 .165 L .44300003 .19600001 L .34300003 .19600001 L .34300003 .651 C .34300003 .671 .34300003 .67700007 .32700003 .67700007 C .31800003 .67700007 .31500004 .67700007 .307 .665 L 0 .19600001 L 0 .165 L .266 .165 M .272 .19600001 L .028 .19600001 L .272 .569 L .272 .19600001 Z "/>
</symbol>
<use xlink:href="#font_1_4" transform="matrix(9.9626,0,0,-9.9626,11.347953,165.318)"/>
<use xlink:href="#font_0_1" transform="matrix(9.9626,0,0,-9.9626,52.713899,163.0266)"/>
<symbol id="font_1_3">
<path d="M .07700001 .07700001 L .18300002 .18 C .33900003 .31800003 .39900003 .372 .39900003 .47200004 C .39900003 .586 .30900003 .666 .18700002 .666 C .074 .666 0 .574 0 .485 C 0 .42900003 .05 .42900003 .053000008 .42900003 C .07000001 .42900003 .105000007 .441 .105000007 .48200003 C .105000007 .508 .08700001 .53400006 .052000006 .53400006 C .044000005 .53400006 .042000008 .53400006 .039 .53300008 C .062000004 .59800007 .11600001 .63500007 .17400001 .63500007 C .26500003 .63500007 .308 .554 .308 .47200004 C .308 .39200003 .25800003 .31300003 .20300003 .25100003 L .011000004 .037 C 0 .026 0 .024 0 0 L .37100003 0 L .39900003 .17400001 L .374 .17400001 C .36900003 .14400001 .36200003 .1 .352 .085 C .345 .07700001 .279 .07700001 .257 .07700001 L .07700001 .07700001 Z "/>
</symbol>
<use xlink:href="#font_1_3" transform="matrix(9.9626,0,0,-9.9626,60.134134,165.318)"/>
<use xlink:href="#font_1_3" transform="matrix(9.9626,0,0,-9.9626,153.39313,165.318)"/>
<use xlink:href="#font_1_4" transform="matrix(9.9626,0,0,-9.9626,201.74095,165.318)"/>
<use xlink:href="#font_1_3" transform="matrix(9.9626,0,0,-9.9626,96.690128,127.118)"/>
<use xlink:href="#font_1_4" transform="matrix(9.9626,0,0,-9.9626,96.47095,97.772998)"/>
<symbol id="font_1_5">
<path d="M .089999999 .35000003 L .089999999 .37400005 C .089999999 .62700006 .21400002 .66300007 .26500003 .66300007 C .28900004 .66300007 .33100004 .65700009 .35300002 .623 C .33800004 .623 .298 .623 .298 .57800009 C .298 .54700008 .32200004 .53200009 .344 .53200009 C .36 .53200009 .39000003 .54100009 .39000003 .58000007 C .39000003 .64000007 .34600003 .688 .263 .688 C .13499999 .688 0 .559 0 .33800004 C 0 .071 .116000007 0 .20900002 0 C .32000003 0 .41500003 .094000007 .41500003 .22600001 C .41500003 .35300005 .32600004 .44900004 .215 .44900004 C .14700002 .44900004 .11000001 .39800004 .089999999 .35000003 M .20900002 .028 C .146 .028 .116000007 .088 .11000001 .103 C .092 .15 .092 .23 .092 .24800001 C .092 .32600004 .124000009 .42600004 .21400002 .42600004 C .23000002 .42600004 .27600003 .42600004 .307 .36400003 C .32500003 .32700003 .32500003 .27600003 .32500003 .22700002 C .32500003 .179 .32500003 .12900001 .30800004 .093 C .27800004 .033000005 .23200003 .028 .20900002 .028 Z "/>
</symbol>
<use xlink:href="#font_1_5" transform="matrix(9.9626,0,0,-9.9626,96.61042,68.64817)"/>
<symbol id="font_1_6">
<path d="M .121 .47900004 C .075 .509 .071 .54300007 .071 .56000009 C .071 .62100008 .136 .66300007 .20700002 .66300007 C .28000004 .66300007 .344 .61100009 .344 .53900006 C .344 .48200003 .305 .43400005 .245 .39900003 L .121 .47900004 M .26700003 .38400004 C .33900003 .42100004 .388 .47300006 .388 .53900006 C .388 .63100007 .29900003 .688 .208 .688 C .108 .688 .027000003 .614 .027000003 .521 C .027000003 .503 .029 .45800004 .071 .41100005 C .082 .39900003 .11900001 .37400005 .144 .35700003 C .086 .32800005 0 .272 0 .17300001 C 0 .067 .102000009 0 .20700002 0 C .32000003 0 .41500003 .083000008 .41500003 .19000001 C .41500003 .22600001 .404 .27100004 .36600004 .31300003 C .34700004 .33400003 .33100004 .34400005 .26700003 .38400004 M .167 .34200005 L .29000003 .26400004 C .31800003 .245 .365 .215 .365 .154 C .365 .080000009 .29000003 .028 .208 .028 C .122 .028 .050000006 .09 .050000006 .17300001 C .050000006 .231 .082 .29500003 .167 .34200005 Z "/>
</symbol>
<use xlink:href="#font_1_6" transform="matrix(9.9626,0,0,-9.9626,96.61042,39.30417)"/>
<symbol id="font_1_2">
<path d="M .205 .64000007 C .205 .66400006 .205 .666 .18200003 .666 C .120000008 .60200008 .032000007 .60200008 0 .60200008 L 0 .57100006 C .020000004 .57100006 .07900001 .57100006 .13100001 .597 L .13100001 .079 C .13100001 .043 .128 .031000002 .038000004 .031000002 L .0060000049 .031000002 L .0060000049 0 C .04100001 .003 .128 .003 .168 .003 C .20800002 .003 .29500003 .003 .33000005 0 L .33000005 .031000002 L .29800005 .031000002 C .20800002 .031000002 .205 .042000005 .205 .079 L .205 .64000007 Z "/>
</symbol>
<symbol id="font_1_1">
<path d="M .421 .34200005 C .421 .42200003 .416 .50200006 .381 .57600006 C .335 .67200008 .25300003 .688 .211 .688 C .15100001 .688 .07800001 .66200008 .037000006 .56900009 C .0050000029 .5 0 .42200003 0 .34200005 C 0 .26700003 .0040000008 .177 .045000007 .101 C .088 .020000002 .161 0 .21000001 0 C .264 0 .34 .021000002 .384 .116000007 C .416 .185 .421 .263 .421 .34200005 M .21000001 .022000002 C .171 .022000002 .112 .047000003 .094 .143 C .083000008 .20300001 .083000008 .29500003 .083000008 .35400004 C .083000008 .41800005 .083000008 .48400004 .091000009 .53800007 C .11 .65700009 .185 .66600009 .21000001 .66600009 C .243 .66600009 .30900003 .64800009 .328 .549 C .338 .49300004 .338 .41700004 .338 .35400004 C .338 .279 .338 .21100001 .32700003 .147 C .312 .052 .255 .022000002 .21000001 .022000002 Z "/>
</symbol>
<use xlink:href="#font_1_2" transform="matrix(9.9626,0,0,-9.9626,92.09767,9.73999)"/>
<use xlink:href="#font_1_1" transform="matrix(9.9626,0,0,-9.9626,96.58084,9.9591679)"/>
<clipPath id="cp2">
<path transform="matrix(1,0,0,-1,9.686,167.924)" d="M 0 0 L 194.26912 0 L 194.26912 161.39575 L 0 161.39575 Z "/>
</clipPath>
<g clip-path="url(#cp2)">
<path transform="matrix(1,0,0,-1,9.686,167.924)" stroke-width="1" stroke-linecap="butt" stroke-miterlimit="10" stroke-linejoin="miter" fill="none" stroke="#000000" d="M 24.38988 146.33936 L 24.77092 144.96274 L 25.25821 143.21392 L 25.7455 141.47689 L 26.2328 139.75167 L 26.72008 138.0384 L 27.20738 136.33684 L 27.69467 134.64708 L 28.18196 132.96913 L 28.66925 131.30301 L 29.15656 129.6487 L 29.64383 128.0062 L 30.13113 126.37553 L 30.61842 124.75667 L 31.10571 123.14964 L 31.593 121.55452 L 32.0803 119.97112 L 32.56758 118.3995 L 33.05489 116.83974 L 33.54218 115.29178 L 34.02946 113.75563 L 34.51675 112.23131 L 35.00406 110.71878 L 35.49133 109.21811 L 35.97864 107.72922 L 36.46593 106.25226 L 36.95322 104.78702 L 37.4405 103.33359 L 37.92781 101.89195 L 38.41508 100.46216 L 38.90239 99.04417 L 39.38968 97.63802 L 39.87697 96.24368 L 40.36427 94.86115 L 40.85155 93.49043 L 41.33885 92.1316 L 41.82614 90.78453 L 42.31343 89.44928 L 42.80072 88.12582 L 43.28802 86.8142 L 43.7753 85.51437 L 44.2626 84.22635 L 44.7499 82.95018 L 45.23718 81.68582 L 45.72447 80.43324 L 46.21178 79.19261 L 46.69905 77.9637 L 47.18636 76.74658 L 47.67365 75.5413 L 48.16093 74.34782 L 48.64822 73.16617 L 49.13553 71.99635 L 49.6228 70.83832 L 50.1101 69.69211 L 50.5974 68.55772 L 51.08469 67.43524 L 51.57198 66.32448 L 52.05928 65.22554 L 52.54655 64.13841 L 53.03386 63.06313 L 53.52115 61.99963 L 54.00844 60.94795 L 54.49573 59.90807 L 54.98303 58.88005 L 55.47032 57.86382 L 55.95761 56.8594 L 56.4449 55.8669 L 56.93219 54.88611 L 57.4195 53.91718 L 57.90677 52.96 L 58.39407 52.01468 L 58.88136 51.08116 L 59.36865 50.15948 L 59.85594 49.2496 L 60.34325 48.35155 L 60.83052 47.46536 L 61.31783 46.59094 L 61.80511 45.72832 L 62.2924 44.87752 L 62.7797 44.03854 L 63.267 43.21138 L 63.75427 42.39603 L 64.24158 41.5925 L 64.72887 40.80078 L 65.21616 40.02089 L 65.70345 39.25279 L 66.19075 38.49658 L 66.67802 37.75217 L 67.16533 37.0195 L 67.65262 36.2987 L 68.13991 35.5897 L 68.6272 34.89252 L 69.1145 34.20714 L 69.60178 33.5336 L 70.08908 32.87187 L 70.57639 32.22194 L 71.06366 31.5839 L 71.55096 30.95761 L 72.03824 30.34314 L 72.52554 29.7405 L 73.01283 29.14964 L 73.50012 28.57063 L 73.98741 28.00343 L 74.47472 27.44804 L 74.96199 26.90448 L 75.4493 26.37273 L 75.93658 25.8528 L 76.42387 25.34467 L 76.91116 24.84837 L 77.39847 24.36389 L 77.88576 23.8912 L 78.37305 23.43037 L 78.86035 22.98132 L 79.34763 22.54411 L 79.83493 22.11871 L 80.32222 21.70512 L 80.80951 21.30333 L 81.2968 20.91339 L 81.7841 20.53523 L 82.27138 20.16893 L 82.75868 19.81444 L 83.24597 19.47174 L 83.73326 19.14087 L 84.22055 18.82181 L 84.70786 18.51454 L 85.19514 18.21913 L 85.68243 17.93552 L 86.16974 17.66373 L 86.65701 17.40375 L 87.14432 17.15558 L 87.63159 16.91925 L 88.1189 16.69472 L 88.60619 16.48201 L 89.09348 16.28111 L 89.58078 16.09203 L 90.06807 15.91478 L 90.55536 15.74933 L 91.04265 15.5957 L 91.52995 15.45389 L 92.01723 15.32388 L 92.50453 15.2057 L 92.99182 15.09933 L 93.47911 15.00479 L 93.9664 14.92207 L 94.4537 14.85114 L 94.941 14.79204 L 95.42828 14.74477 L 95.91559 14.70929 L 96.40286 14.68565 L 96.89017 14.67381 L 97.37746 14.67381 L 97.86475 14.68561 L 98.35204 14.7092 L 98.83934 14.74463 L 99.32661 14.79189 L 99.81392 14.85094 L 100.30121 14.92181 L 100.7885 15.00453 L 101.2758 15.09904 L 101.76309 15.20537 L 102.25038 15.32352 L 102.73767 15.45348 L 103.22496 15.59526 L 103.71225 15.74884 L 104.19955 15.91425 L 104.68683 16.09148 L 105.17413 16.28052 L 105.66142 16.48138 L 106.14871 16.69405 L 106.636 16.91856 L 107.1233 17.15486 L 107.6106 17.40297 L 108.09789 17.66293 L 108.58519 17.93466 L 109.07246 18.21826 L 109.55977 18.51364 L 110.04706 18.82085 L 110.53435 19.13988 L 111.02164 19.4707 L 111.50894 19.81335 L 111.99622 20.16783 L 112.48352 20.53412 L 112.97083 20.91222 L 113.4581 21.30214 L 113.9454 21.70389 L 114.4327 22.11745 L 114.91998 22.5428 L 115.40727 22.97998 L 115.89458 23.42897 L 116.38185 23.8898 L 116.86916 24.36244 L 117.35645 24.84688 L 117.84373 25.34315 L 118.33104 25.85123 L 118.81831 26.37114 L 119.30562 26.90286 L 119.79291 27.44638 L 120.2802 28.00174 L 120.76749 28.5689 L 121.25479 29.14787 L 121.74207 29.73868 L 122.22937 30.3413 L 122.71666 30.95572 L 123.20395 31.58197 L 123.69124 32.22003 L 124.17854 32.86987 L 124.66582 33.53157 L 125.15312 34.20508 L 125.64041 34.8904 L 126.1277 35.58755 L 126.61499 36.29652 L 127.1023 37.01732 L 127.58957 37.7499 L 128.07688 38.49431 L 128.56417 39.25055 L 129.05146 40.01854 L 129.53874 40.79839 L 130.02605 41.59009 L 130.51332 42.39357 L 131.00063 43.20888 L 131.48792 44.03603 L 131.9752 44.87494 L 132.46251 45.72572 L 132.9498 46.58829 L 133.43709 47.46269 L 133.92438 48.34883 L 134.41167 49.24684 L 134.89896 50.1567 L 135.38626 51.07834 L 135.87354 52.01181 L 136.36084 52.95712 L 136.84813 53.91423 L 137.33542 54.88315 L 137.82271 55.86389 L 138.31002 56.85646 L 138.79729 57.86075 L 139.28459 58.87694 L 139.77188 59.90494 L 140.25917 60.94476 L 140.74646 61.9964 L 141.23377 63.05986 L 141.72104 64.13513 L 142.20835 65.22221 L 142.69564 66.32112 L 143.18292 67.43184 L 143.67021 68.55429 L 144.15752 69.68864 L 144.64479 70.83482 L 145.1321 71.99281 L 145.61939 73.1626 L 146.10668 74.34422 L 146.59397 75.53766 L 147.08127 76.74292 L 147.56856 77.95998 L 148.05585 79.18887 L 148.54315 80.42955 L 149.03043 81.68199 L 149.51773 82.9463 L 150.005 84.22246 L 150.49231 85.51044 L 150.9796 86.81023 L 151.46689 88.12181 L 151.95418 89.44522 L 152.44149 90.78046 L 152.92876 92.12752 L 153.41606 93.48637 L 153.90335 94.85695 L 154.39064 96.23944 L 154.87793 97.63377 L 155.36524 99.03987 L 155.85251 100.45784 L 156.33982 101.88759 L 156.8271 103.32918 L 157.31439 104.78256 L 157.80168 106.24779 L 158.28899 107.7248 L 158.77626 109.21356 L 159.26357 110.7142 L 159.75086 112.22667 L 160.23815 113.75098 L 160.72544 115.28706 L 161.21274 116.83502 L 161.70001 118.39476 L 162.18732 119.96632 L 162.67462 121.5497 L 163.1619 123.1449 L 163.6492 124.75175 L 164.13649 126.37059 L 164.62378 128.00122 L 165.11107 129.64368 L 165.59836 131.29796 L 166.08565 132.96405 L 166.57295 134.64196 L 167.06023 136.33168 L 167.54753 138.03322 L 168.03482 139.74658 L 168.52211 141.4716 L 169.0094 143.2086 L 169.4967 144.9574 L 169.87773 146.33399 "/>
<path transform="matrix(-.26665,-.96373,-.96373,.26665,34.02276,21.392624)" stroke-width="1" stroke-linecap="round" stroke-linejoin="round" fill="none" stroke="#000000" d="M -2.07224 2.39104 C -1.69365 .95639 -.84999 .27895 0 0 C -.84999 -.27895 -1.69365 -.95639 -2.07224 -2.39104 "/>
<path transform="matrix(.26665,-.96373,-.96373,-.26665,179.61685,21.397995)" stroke-width="1" stroke-linecap="round" stroke-linejoin="round" fill="none" stroke="#000000" d="M -2.07224 2.39104 C -1.69365 .95639 -.84999 .27895 0 0 C -.84999 -.27895 -1.69365 -.95639 -2.07224 -2.39104 "/>
</g>
<symbol id="font_3_1">
<path d="M .305 .31300003 C .311 .33900003 .334 .43100003 .404 .43100003 C .409 .43100003 .433 .43100003 .454 .418 C .426 .41300003 .40600003 .388 .40600003 .36400003 C .40600003 .34800003 .417 .32900004 .444 .32900004 C .46600003 .32900004 .498 .34700004 .498 .38700003 C .498 .43900005 .439 .45300005 .405 .45300005 C .347 .45300005 .312 .40000005 .3 .37700004 C .275 .44300003 .221 .45300005 .19200002 .45300005 C .08800001 .45300005 .031000002 .32400004 .031000002 .29900003 C .031000002 .28900004 .041 .28900004 .043000007 .28900004 C .051000008 .28900004 .054000006 .291 .056 .3 C .09 .40600003 .156 .43100003 .19000001 .43100003 C .209 .43100003 .244 .42200003 .244 .36400003 C .244 .33300004 .22700002 .26600004 .19000001 .126 C .17400001 .064 .13900002 .022000002 .095000009 .022000002 C .08900001 .022000002 .06600001 .022000002 .045 .035 C .07000001 .040000004 .09200001 .061 .09200001 .089 C .09200001 .116000007 .07000001 .124000009 .055000009 .124000009 C .025 .124000009 0 .098000008 0 .06600001 C 0 .020000002 .050000006 0 .094000007 0 C .16000001 0 .19600001 .07000001 .19900002 .076000008 C .21100001 .039 .24700003 0 .307 0 C .41 0 .467 .12900001 .467 .15400002 C .467 .16400002 .458 .16400002 .455 .16400002 C .446 .16400002 .444 .16000001 .442 .15300001 C .409 .046 .341 .022000002 .30900003 .022000002 C .27 .022000002 .254 .054 .254 .08800001 C .254 .11000001 .26 .13200002 .271 .17600002 L .305 .31300003 Z "/>
</symbol>
<use xlink:href="#font_3_1" transform="matrix(9.9626,0,0,-9.9626,201.39392,148.37358)"/>
<symbol id="font_3_2">
<path d="M .45700003 .586 C .461 .6 .461 .602 .461 .609 C .461 .62700006 .447 .63600006 .432 .63600006 C .42200003 .63600006 .40600003 .63 .397 .615 C .395 .61 .387 .579 .38300003 .561 C .37600003 .535 .36900003 .508 .363 .48100005 L .318 .301 C .314 .286 .271 .21600002 .20500002 .21600002 C .15400002 .21600002 .143 .26000003 .143 .29700003 C .143 .34300003 .16000001 .40500004 .194 .49300004 C .21000001 .53400006 .21400002 .545 .21400002 .56500008 C .21400002 .61 .18200001 .6470001 .13200002 .6470001 C .037 .6470001 0 .50200006 0 .49300004 C 0 .48300005 .01 .48300005 .012 .48300005 C .022000002 .48300005 .023 .485 .028000003 .50100007 C .055000009 .595 .095000009 .625 .12900001 .625 C .13700001 .625 .15400002 .625 .15400002 .59300008 C .15400002 .568 .14400001 .54200008 .13700001 .523 C .097 .41700004 .079 .36 .079 .31300003 C .079 .224 .142 .194 .201 .194 C .24000003 .194 .274 .21100001 .30200003 .23900002 C .289 .187 .277 .13800001 .237 .08500001 C .21100001 .051 .17300001 .022 .127 .022 C .113000009 .022 .068 .025000006 .051000008 .06400001 C .067 .06400001 .080000009 .06400001 .094000007 .076000008 C .104 .08500001 .11400001 .098000008 .11400001 .117000009 C .11400001 .148 .087000008 .15200001 .07700001 .15200001 C .054000006 .15200001 .021 .136 .021 .087000008 C .021 .037 .065000008 0 .127 0 C .23 0 .333 .091000009 .361 .20400001 L .45700003 .586 Z "/>
</symbol>
<use xlink:href="#font_3_2" transform="matrix(9.9626,0,0,-9.9626,110.627918,9.748327)"/>
</svg>
