<?xml version="1.0" encoding="UTF-8" standalone="no"?>
<!DOCTYPE svg PUBLIC "-//W3C//DTD SVG 1.1//EN" "http://www.w3.org/Graphics/SVG/1.1/DTD/svg11.dtd">
<svg xmlns="http://www.w3.org/2000/svg" xmlns:xlink="http://www.w3.org/1999/xlink" version="1.1" width="210.12pt" height="168.023pt" viewBox="0 0 210.12 168.023">
<path transform="matrix(1,0,0,-1,9.686,167.82399)" stroke-width="1" stroke-linecap="butt" stroke-miterlimit="10" stroke-linejoin="miter" fill="none" stroke="#808080" d="M 4.04726 79.27847 L 4.04726 82.11331 M 8.09453 79.27847 L 8.09453 82.11331 M 12.1418 79.27847 L 12.1418 82.11331 M 16.18909 79.27847 L 16.18909 82.11331 M 20.23634 79.27847 L 20.23634 82.11331 M 28.3309 79.27847 L 28.3309 82.11331 M 32.37817 79.27847 L 32.37817 82.11331 M 36.42543 79.27847 L 36.42543 82.11331 M 40.47272 79.27847 L 40.47272 82.11331 M 44.51999 79.27847 L 44.51999 82.11331 M 52.61455 79.27847 L 52.61455 82.11331 M 56.6618 79.27847 L 56.6618 82.11331 M 60.70908 79.27847 L 60.70908 82.11331 M 64.75636 79.27847 L 64.75636 82.11331 M 68.80363 79.27847 L 68.80363 82.11331 M 76.89818 79.27847 L 76.89818 82.11331 M 80.94545 79.27847 L 80.94545 82.11331 M 84.99272 79.27847 L 84.99272 82.11331 M 89.04001 79.27847 L 89.04001 82.11331 M 93.08727 79.27847 L 93.08727 82.11331 M 101.18182 79.27847 L 101.18182 82.11331 M 105.2291 79.27847 L 105.2291 82.11331 M 109.27635 79.27847 L 109.27635 82.11331 M 113.32364 79.27847 L 113.32364 82.11331 M 117.37091 79.27847 L 117.37091 82.11331 M 125.46547 79.27847 L 125.46547 82.11331 M 129.51273 79.27847 L 129.51273 82.11331 M 133.56 79.27847 L 133.56 82.11331 M 137.60729 79.27847 L 137.60729 82.11331 M 141.65456 79.27847 L 141.65456 82.11331 M 149.7491 79.27847 L 149.7491 82.11331 M 153.79637 79.27847 L 153.79637 82.11331 M 157.84365 79.27847 L 157.84365 82.11331 M 161.89092 79.27847 L 161.89092 82.11331 M 165.93819 79.27847 L 165.93819 82.11331 M 174.03275 79.27847 L 174.03275 82.11331 M 178.08002 79.27847 L 178.08002 82.11331 M 182.12728 79.27847 L 182.12728 82.11331 M 186.17456 79.27847 L 186.17456 82.11331 M 190.22183 79.27847 L 190.22183 82.11331 "/>
<path transform="matrix(1,0,0,-1,9.686,167.82399)" stroke-width="1" stroke-linecap="butt" stroke-miterlimit="10" stroke-linejoin="miter" fill="none" stroke="#808080" d="M 0 78.56999 L 0 82.82178 M 24.28363 78.56999 L 24.28363 82.82178 M 48.56728 78.56999 L 48.56728 82.82178 M 72.8509 78.56999 L 72.8509 82.82178 M 121.4182 78.56999 L 121.4182 82.82178 M 145.70183 78.56999 L 145.70183 82.82178 M 169.98548 78.56999 L 169.98548 82.82178 M 194.26912 78.56999 L 194.26912 82.82178 "/>
<path transform="matrix(1,0,0,-1,9.686,167.82399)" stroke-width="1" stroke-linecap="butt" stroke-miterlimit="10" stroke-linejoin="miter" fill="none" stroke="#808080" d="M 95.7171 1.58224 L 98.552 1.58224 M 95.7171 9.4936 L 98.552 9.4936 M 95.7171 17.40497 L 98.552 17.40497 M 95.7171 25.31631 L 98.552 25.31631 M 95.7171 41.13907 L 98.552 41.13907 M 95.7171 49.05042 L 98.552 49.05042 M 95.7171 56.96179 L 98.552 56.96179 M 95.7171 64.87314 L 98.552 64.87314 M 95.7171 72.7845 L 98.552 72.7845 M 95.7171 88.60725 L 98.552 88.60725 M 95.7171 96.5186 L 98.552 96.5186 M 95.7171 104.42996 L 98.552 104.42996 M 95.7171 112.34132 L 98.552 112.34132 M 95.7171 120.25267 L 98.552 120.25267 M 95.7171 136.07543 L 98.552 136.07543 M 95.7171 143.98677 L 98.552 143.98677 M 95.7171 151.89815 L 98.552 151.89815 M 95.7171 159.8095 L 98.552 159.8095 "/>
<path transform="matrix(1,0,0,-1,9.686,167.82399)" stroke-width="1" stroke-linecap="butt" stroke-miterlimit="10" stroke-linejoin="miter" fill="none" stroke="#808080" d="M 95.0086 33.22772 L 99.26048 33.22772 M 95.0086 128.16408 L 99.26048 128.16408 "/>
<path transform="matrix(1,0,0,-1,9.686,167.82399)" stroke-width="1" stroke-linecap="butt" stroke-miterlimit="10" stroke-linejoin="miter" fill="none" stroke="#000000" d="M 0 80.69589 L 192.2766 80.69589 "/>
<path transform="matrix(1,0,0,-1,201.9626,87.1281)" d="M 1.99252 0 L -1.19551 1.59401 L 0 0 L -1.19551 -1.59401 "/>
<path transform="matrix(1,0,0,-1,9.686,167.82399)" stroke-width="1" stroke-linecap="butt" stroke-miterlimit="10" stroke-linejoin="miter" fill="none" stroke="#000000" d="M 97.13455 0 L 97.13455 159.39928 "/>
<path transform="matrix(0,-1,-1,-0,106.82055,8.424713)" d="M 1.99252 0 L -1.19551 1.59401 L 0 0 L -1.19551 -1.59401 "/>
<symbol id="font_0_1">
<path d="M .57600006 0 C .59300008 0 .611 0 .611 .019999996 C .611 .040000008 .59300008 .040000008 .57600006 .040000008 L .035000005 .040000008 C .018 .040000008 0 .040000008 0 .019999996 C 0 0 .018 0 .035000005 0 L .57600006 0 Z "/>
</symbol>
<use xlink:href="#font_0_1" transform="matrix(9.9626,0,0,-9.9626,4.147896,96.903598)"/>
<symbol id="font_1_6">
<path d="M .121 .47900004 C .075 .509 .071 .54300007 .071 .56000009 C .071 .62100008 .136 .66300007 .20700002 .66300007 C .28000004 .66300007 .344 .61100009 .344 .53900006 C .344 .48200003 .305 .43400005 .245 .39900003 L .121 .47900004 M .26700003 .38400004 C .33900003 .42100004 .388 .47300006 .388 .53900006 C .388 .63100007 .29900003 .688 .208 .688 C .108 .688 .027000003 .614 .027000003 .521 C .027000003 .503 .029 .45800004 .071 .41100005 C .082 .39900003 .11900001 .37400005 .144 .35700003 C .086 .32800005 0 .272 0 .17300001 C 0 .067 .102000009 0 .20700002 0 C .32000003 0 .41500003 .083000008 .41500003 .19000001 C .41500003 .22600001 .404 .27100004 .36600004 .31300003 C .34700004 .33400003 .33100004 .34400005 .26700003 .38400004 M .167 .34200005 L .29000003 .26400004 C .31800003 .245 .365 .215 .365 .154 C .365 .080000009 .29000003 .028 .208 .028 C .122 .028 .050000006 .09 .050000006 .17300001 C .050000006 .231 .082 .29500003 .167 .34200005 Z "/>
</symbol>
<use xlink:href="#font_1_6" transform="matrix(9.9626,0,0,-9.9626,11.48743,99.41417)"/>
<use xlink:href="#font_0_1" transform="matrix(9.9626,0,0,-9.9626,28.430897,96.903598)"/>
<symbol id="font_1_5">
<path d="M .089999999 .35000003 L .089999999 .37400005 C .089999999 .62700006 .21400002 .66300007 .26500003 .66300007 C .28900004 .66300007 .33100004 .65700009 .35300002 .623 C .33800004 .623 .298 .623 .298 .57800009 C .298 .54700008 .32200004 .53200009 .344 .53200009 C .36 .53200009 .39000003 .54100009 .39000003 .58000007 C .39000003 .64000007 .34600003 .688 .263 .688 C .13499999 .688 0 .559 0 .33800004 C 0 .071 .116000007 0 .20900002 0 C .32000003 0 .41500003 .094000007 .41500003 .22600001 C .41500003 .35300005 .32600004 .44900004 .215 .44900004 C .14700002 .44900004 .11000001 .39800004 .089999999 .35000003 M .20900002 .028 C .146 .028 .116000007 .088 .11000001 .103 C .092 .15 .092 .23 .092 .24800001 C .092 .32600004 .124000009 .42600004 .21400002 .42600004 C .23000002 .42600004 .27600003 .42600004 .307 .36400003 C .32500003 .32700003 .32500003 .27600003 .32500003 .22700002 C .32500003 .179 .32500003 .12900001 .30800004 .093 C .27800004 .033000005 .23200003 .028 .20900002 .028 Z "/>
</symbol>
<use xlink:href="#font_1_5" transform="matrix(9.9626,0,0,-9.9626,35.77143,99.41417)"/>
<use xlink:href="#font_0_1" transform="matrix(9.9626,0,0,-9.9626,52.713899,96.903598)"/>
<symbol id="font_1_4">
<path d="M .266 .165 L .266 .078 C .266 .042000005 .26400004 .031000002 .19000001 .031000002 L .16900002 .031000002 L .16900002 0 C .21000001 .003 .26200003 .003 .30400003 .003 C .34600003 .003 .39900003 .003 .44000004 0 L .44000004 .031000002 L .41900004 .031000002 C .34500004 .031000002 .34300003 .042000005 .34300003 .078 L .34300003 .165 L .44300003 .165 L .44300003 .19600001 L .34300003 .19600001 L .34300003 .651 C .34300003 .671 .34300003 .67700007 .32700003 .67700007 C .31800003 .67700007 .31500004 .67700007 .307 .665 L 0 .19600001 L 0 .165 L .266 .165 M .272 .19600001 L .028 .19600001 L .272 .569 L .272 .19600001 Z "/>
</symbol>
<use xlink:href="#font_1_4" transform="matrix(9.9626,0,0,-9.9626,59.914957,99.19499)"/>
<use xlink:href="#font_0_1" transform="matrix(9.9626,0,0,-9.9626,76.997898,96.903598)"/>
<symbol id="font_1_3">
<path d="M .07700001 .07700001 L .18300002 .18 C .33900003 .31800003 .39900003 .372 .39900003 .47200004 C .39900003 .586 .30900003 .666 .18700002 .666 C .074 .666 0 .574 0 .485 C 0 .42900003 .05 .42900003 .053000008 .42900003 C .07000001 .42900003 .105000007 .441 .105000007 .48200003 C .105000007 .508 .08700001 .53400006 .052000006 .53400006 C .044000005 .53400006 .042000008 .53400006 .039 .53300008 C .062000004 .59800007 .11600001 .63500007 .17400001 .63500007 C .26500003 .63500007 .308 .554 .308 .47200004 C .308 .39200003 .25800003 .31300003 .20300003 .25100003 L .011000004 .037 C 0 .026 0 .024 0 0 L .37100003 0 L .39900003 .17400001 L .374 .17400001 C .36900003 .14400001 .36200003 .1 .352 .085 C .345 .07700001 .279 .07700001 .257 .07700001 L .07700001 .07700001 Z "/>
</symbol>
<use xlink:href="#font_1_3" transform="matrix(9.9626,0,0,-9.9626,84.41713,99.19499)"/>
<use xlink:href="#font_1_3" transform="matrix(9.9626,0,0,-9.9626,129.11013,99.19499)"/>
<use xlink:href="#font_1_4" transform="matrix(9.9626,0,0,-9.9626,153.17395,99.19499)"/>
<use xlink:href="#font_1_5" transform="matrix(9.9626,0,0,-9.9626,177.59644,99.41417)"/>
<use xlink:href="#font_1_6" transform="matrix(9.9626,0,0,-9.9626,201.88043,99.41417)"/>
<use xlink:href="#font_0_1" transform="matrix(9.9626,0,0,-9.9626,84.288898,135.1006)"/>
<symbol id="font_1_2">
<path d="M .205 .64000007 C .205 .66400006 .205 .666 .18200003 .666 C .120000008 .60200008 .032000007 .60200008 0 .60200008 L 0 .57100006 C .020000004 .57100006 .07900001 .57100006 .13100001 .597 L .13100001 .079 C .13100001 .043 .128 .031000002 .038000004 .031000002 L .0060000049 .031000002 L .0060000049 0 C .04100001 .003 .128 .003 .168 .003 C .20800002 .003 .29500003 .003 .33000005 0 L .33000005 .031000002 L .29800005 .031000002 C .20800002 .031000002 .205 .042000005 .205 .079 L .205 .64000007 Z "/>
</symbol>
<symbol id="font_1_1">
<path d="M .421 .34200005 C .421 .42200003 .416 .50200006 .381 .57600006 C .335 .67200008 .25300003 .688 .211 .688 C .15100001 .688 .07800001 .66200008 .037000006 .56900009 C .0050000029 .5 0 .42200003 0 .34200005 C 0 .26700003 .0040000008 .177 .045000007 .101 C .088 .020000002 .161 0 .21000001 0 C .264 0 .34 .021000002 .384 .116000007 C .416 .185 .421 .263 .421 .34200005 M .21000001 .022000002 C .171 .022000002 .112 .047000003 .094 .143 C .083000008 .20300001 .083000008 .29500003 .083000008 .35400004 C .083000008 .41800005 .083000008 .48400004 .091000009 .53800007 C .11 .65700009 .185 .66600009 .21000001 .66600009 C .243 .66600009 .30900003 .64800009 .328 .549 C .338 .49300004 .338 .41700004 .338 .35400004 C .338 .279 .338 .21100001 .32700003 .147 C .312 .052 .255 .022000002 .21000001 .022000002 Z "/>
</symbol>
<use xlink:href="#font_1_2" transform="matrix(9.9626,0,0,-9.9626,92.09767,137.392)"/>
<use xlink:href="#font_1_1" transform="matrix(9.9626,0,0,-9.9626,96.58084,137.61118)"/>
<use xlink:href="#font_1_2" transform="matrix(9.9626,0,0,-9.9626,92.09767,42.87198)"/>
<use xlink:href="#font_1_1" transform="matrix(9.9626,0,0,-9.9626,96.58084,43.091157)"/>
<clipPath id="cp2">
<path transform="matrix(1,0,0,-1,9.686,167.82399)" d="M 0 0 L 194.26912 0 L 194.26912 161.3918 L 0 161.3918 Z "/>
</clipPath>
<g clip-path="url(#cp2)">
<path transform="matrix(1,0,0,-1,9.686,167.82399)" stroke-width="1" stroke-linecap="butt" stroke-miterlimit="10" stroke-linejoin="miter" fill="none" stroke="#000000" d="M 71.67029 105.2382 L 71.88849 102.26797 L 72.14026 98.95323 L 72.39203 95.74931 L 72.6438 92.65456 L 72.89558 89.6673 L 73.14734 86.78587 L 73.39911 84.00867 L 73.6509 81.334 L 73.90265 78.76028 L 74.15442 76.28589 L 74.4062 73.90921 L 74.65796 71.62874 L 74.90973 69.44273 L 75.16151 67.34978 L 75.41327 65.3482 L 75.66504 63.43652 L 75.91682 61.61325 L 76.16858 59.87672 L 76.42035 58.22551 L 76.67213 56.6581 L 76.92389 55.17291 L 77.17566 53.76865 L 77.42744 52.44366 L 77.6792 51.19658 L 77.93097 50.02586 L 78.18275 48.93011 L 78.43451 47.90793 L 78.68628 46.95786 L 78.93806 46.07855 L 79.18982 45.26845 L 79.44159 44.52629 L 79.69337 43.85071 L 79.94513 43.2402 L 80.1969 42.69365 L 80.44868 42.20947 L 80.70044 41.78635 L 80.95221 41.42313 L 81.204 41.11829 L 81.45575 40.87067 L 81.70752 40.6789 L 81.9593 40.54173 L 82.21106 40.4579 L 82.46283 40.42606 L 82.71461 40.44513 L 82.96637 40.51357 L 83.21814 40.63039 L 83.46992 40.79434 L 83.72168 41.00424 L 83.97345 41.25879 L 84.22523 41.55669 L 84.47699 41.89696 L 84.72876 42.27849 L 84.98055 42.69997 L 85.2323 43.1602 L 85.48407 43.65822 L 85.73586 44.19276 L 85.98761 44.76276 L 86.23938 45.3671 L 86.49117 46.00467 L 86.74292 46.67445 L 86.99469 47.3753 L 87.24648 48.1062 L 87.49823 48.86606 L 87.75 49.65382 L 88.00179 50.46849 L 88.25356 51.30907 L 88.50531 52.17447 L 88.7571 53.0638 L 89.00887 53.97589 L 89.26064 54.90996 L 89.5124 55.86493 L 89.76418 56.83987 L 90.01595 57.8338 L 90.26772 58.84584 L 90.51949 59.875 L 90.77126 60.92041 L 91.02303 61.98117 L 91.2748 63.05632 L 91.52657 64.14505 L 91.77834 65.24643 L 92.0301 66.3596 L 92.28188 67.48375 L 92.53365 68.618 L 92.78542 69.76155 L 93.0372 70.91356 L 93.28896 72.07318 L 93.54073 73.23965 L 93.79251 74.41219 L 94.04427 75.59 L 94.29604 76.77231 L 94.54782 77.95837 L 94.79958 79.14742 L 95.05135 80.33873 L 95.30313 81.53157 L 95.55489 82.72523 L 95.80666 83.919 L 96.05844 85.11218 L 96.3102 86.3041 L 96.56197 87.49405 L 96.81375 88.68141 L 97.0655 89.8655 L 97.31728 91.04568 L 97.56906 92.22133 L 97.82082 93.39183 L 98.07259 94.55652 L 98.32437 95.71487 L 98.57613 96.86624 L 98.8279 98.01009 L 99.07968 99.14581 L 99.33145 100.27284 L 99.5832 101.39067 L 99.83499 102.49873 L 100.08676 103.59651 L 100.33852 104.6835 L 100.5903 105.75919 L 100.84207 106.82306 L 101.09383 107.87466 L 101.34561 108.91345 L 101.59738 109.93909 L 101.84914 110.951 L 102.10092 111.9488 L 102.35269 112.93202 L 102.60445 113.90031 L 102.85623 114.8532 L 103.108 115.79027 L 103.35976 116.71118 L 103.61154 117.6155 L 103.86331 118.50296 L 104.11507 119.37308 L 104.36685 120.22559 L 104.61862 121.06013 L 104.87038 121.87636 L 105.12216 122.674 L 105.37393 123.45267 L 105.6257 124.21214 L 105.87747 124.9521 L 106.12924 125.67233 L 106.38101 126.37247 L 106.63278 127.05235 L 106.88455 127.71164 L 107.13634 128.35024 L 107.38809 128.96779 L 107.63986 129.56415 L 107.89165 130.13913 L 108.1434 130.69249 L 108.39517 131.2241 L 108.64696 131.73372 L 108.89871 132.22132 L 109.15048 132.68662 L 109.40227 133.12957 L 109.65402 133.54996 L 109.90579 133.94777 L 110.15758 134.32274 L 110.40933 134.675 L 110.6611 135.00432 L 110.91289 135.31064 L 111.16464 135.59394 L 111.41641 135.85402 L 111.6682 136.09107 L 111.91995 136.30486 L 112.17172 136.4955 L 112.42351 136.66294 L 112.67526 136.80713 L 112.92703 136.92812 L 113.17882 137.02591 L 113.43057 137.10054 L 113.68234 137.15204 L 113.93413 137.18058 L 114.18588 137.18607 L 114.43765 137.16866 L 114.68944 137.12836 L 114.9412 137.06536 L 115.19296 136.97963 L 115.44475 136.87149 L 115.6965 136.74088 L 115.94827 136.58797 L 116.20006 136.41306 L 116.45181 136.21614 L 116.70358 135.99739 L 116.95537 135.75702 L 117.20712 135.49529 L 117.4589 135.21228 L 117.71068 134.90833 L 117.96243 134.58348 L 118.2142 134.23815 L 118.46599 133.87242 L 118.71774 133.48674 L 118.96951 133.08113 L 119.2213 132.65602 L 119.47305 132.2117 L 119.72482 131.74846 L 119.97661 131.26645 L 120.22836 130.76613 L 120.48013 130.24791 L 120.73192 129.71195 L 120.98367 129.1587 L 121.23546 128.58832 L 121.48723 128.00151 L 121.73898 127.39844 L 121.99077 126.77953 L 122.24254 126.14516 L 122.4943 125.4958 L 122.74608 124.83182 L 122.99785 124.15367 L 123.2496 123.46178 L 123.50139 122.7566 L 123.75316 122.03868 L 124.00491 121.30836 L 124.2567 120.56618 L 124.50847 119.81264 L 124.76022 119.04825 L 125.01201 118.27351 L 125.26378 117.48895 L 125.51553 116.69513 L 125.76732 115.89255 L 126.01909 115.08183 L 126.27084 114.26344 L 126.52263 113.43806 L 126.7744 112.60623 L 127.02615 111.76857 L 127.27794 110.92567 L 127.52971 110.07817 L 127.78146 109.22672 L 128.03325 108.37187 L 128.28502 107.51437 L 128.53678 106.65483 L 128.78856 105.79398 L 129.04033 104.93243 L 129.29209 104.07092 L 129.54387 103.21014 L 129.79564 102.35083 L 130.0474 101.49368 L 130.29918 100.63945 L 130.55095 99.78886 L 130.8027 98.94272 L 131.05449 98.10176 L 131.30626 97.26675 L 131.55802 96.4385 L 131.8098 95.61781 L 132.06157 94.80548 L 132.31333 94.00232 L 132.56511 93.20918 L 132.81688 92.42693 L 133.06864 91.65636 L 133.32042 90.89836 L 133.57219 90.15384 L 133.82395 89.42363 L 134.07573 88.70863 L 134.3275 88.00978 L 134.57926 87.32797 L 134.83104 86.66412 L 135.08281 86.0192 L 135.33457 85.39412 L 135.58635 84.78986 L 135.83812 84.2074 L 136.08988 83.64767 L 136.34166 83.11171 L 136.59343 82.6005 L 136.84519 82.11505 L 137.09697 81.65637 L 137.34874 81.2255 L 137.60051 80.82349 L 137.85228 80.4514 L 138.10405 80.11028 L 138.35582 79.80116 L 138.60759 79.52522 L 138.85936 79.2835 L 139.11113 79.07709 L 139.3629 78.90712 L 139.61467 78.77472 L 139.86644 78.68103 L 140.11821 78.6272 L 140.36998 78.61438 L 140.62175 78.64372 L 140.87352 78.71643 L 141.12529 78.8337 L 141.37706 78.9967 L 141.62883 79.20668 L 141.8806 79.46483 L 142.13237 79.77237 L 142.38414 80.1306 L 142.63591 80.5407 L 142.88768 81.00398 L 143.13945 81.52171 L 143.39122 82.09515 L 143.64299 82.72565 L 143.89476 83.41443 L 144.14653 84.16289 L 144.3983 84.97229 L 144.65007 85.84401 L 144.90184 86.77937 L 145.15361 87.77975 L 145.40538 88.84651 L 145.65715 89.98102 L 145.90892 91.18468 L 146.16069 92.45888 L 146.41246 93.80507 L 146.66423 95.2246 L 146.83989 96.26709 "/>
<path transform="matrix(-.07323,-.99727,-.99727,.07323,81.3563,62.5858)" stroke-width="1" stroke-linecap="round" stroke-linejoin="round" fill="none" stroke="#000000" d="M -1.19551 1.59401 C -1.09587 .99626 0 .09961 .29886 0 C 0 -.09961 -1.09587 -.99626 -1.19551 -1.59401 "/>
<path transform="matrix(.16612,-.98605,-.98605,-.16612,156.52588,71.55692)" stroke-width="1" stroke-linecap="round" stroke-linejoin="round" fill="none" stroke="#000000" d="M -1.19551 1.59401 C -1.09587 .99626 0 .09961 .29886 0 C 0 -.09961 -1.09587 -.99626 -1.19551 -1.59401 "/>
</g>
<symbol id="font_3_1">
<path d="M .305 .31300003 C .311 .33900003 .334 .43100003 .404 .43100003 C .409 .43100003 .433 .43100003 .454 .418 C .426 .41300003 .40600003 .388 .40600003 .36400003 C .40600003 .34800003 .417 .32900004 .444 .32900004 C .46600003 .32900004 .498 .34700004 .498 .38700003 C .498 .43900005 .439 .45300005 .405 .45300005 C .347 .45300005 .312 .40000005 .3 .37700004 C .275 .44300003 .221 .45300005 .19200002 .45300005 C .08800001 .45300005 .031000002 .32400004 .031000002 .29900003 C .031000002 .28900004 .041 .28900004 .043000007 .28900004 C .051000008 .28900004 .054000006 .291 .056 .3 C .09 .40600003 .156 .43100003 .19000001 .43100003 C .209 .43100003 .244 .42200003 .244 .36400003 C .244 .33300004 .22700002 .26600004 .19000001 .126 C .17400001 .064 .13900002 .022000002 .095000009 .022000002 C .08900001 .022000002 .06600001 .022000002 .045 .035 C .07000001 .040000004 .09200001 .061 .09200001 .089 C .09200001 .116000007 .07000001 .124000009 .055000009 .124000009 C .025 .124000009 0 .098000008 0 .06600001 C 0 .020000002 .050000006 0 .094000007 0 C .16000001 0 .19600001 .07000001 .19900002 .076000008 C .21100001 .039 .24700003 0 .307 0 C .41 0 .467 .12900001 .467 .15400002 C .467 .16400002 .458 .16400002 .455 .16400002 C .446 .16400002 .444 .16000001 .442 .15300001 C .409 .046 .341 .022000002 .30900003 .022000002 C .27 .022000002 .254 .054 .254 .08800001 C .254 .11000001 .26 .13200002 .271 .17600002 L .305 .31300003 Z "/>
</symbol>
<use xlink:href="#font_3_1" transform="matrix(9.9626,0,0,-9.9626,201.39392,83.71858)"/>
<symbol id="font_3_2">
<path d="M .45700003 .586 C .461 .6 .461 .602 .461 .609 C .461 .62700006 .447 .63600006 .432 .63600006 C .42200003 .63600006 .40600003 .63 .397 .615 C .395 .61 .387 .579 .38300003 .561 C .37600003 .535 .36900003 .508 .363 .48100005 L .318 .301 C .314 .286 .271 .21600002 .20500002 .21600002 C .15400002 .21600002 .143 .26000003 .143 .29700003 C .143 .34300003 .16000001 .40500004 .194 .49300004 C .21000001 .53400006 .21400002 .545 .21400002 .56500008 C .21400002 .61 .18200001 .6470001 .13200002 .6470001 C .037 .6470001 0 .50200006 0 .49300004 C 0 .48300005 .01 .48300005 .012 .48300005 C .022000002 .48300005 .023 .485 .028000003 .50100007 C .055000009 .595 .095000009 .625 .12900001 .625 C .13700001 .625 .15400002 .625 .15400002 .59300008 C .15400002 .568 .14400001 .54200008 .13700001 .523 C .097 .41700004 .079 .36 .079 .31300003 C .079 .224 .142 .194 .201 .194 C .24000003 .194 .274 .21100001 .30200003 .23900002 C .289 .187 .277 .13800001 .237 .08500001 C .21100001 .051 .17300001 .022 .127 .022 C .113000009 .022 .068 .025000006 .051000008 .06400001 C .067 .06400001 .080000009 .06400001 .094000007 .076000008 C .104 .08500001 .11400001 .098000008 .11400001 .117000009 C .11400001 .148 .087000008 .15200001 .07700001 .15200001 C .054000006 .15200001 .021 .136 .021 .087000008 C .021 .037 .065000008 0 .127 0 C .23 0 .333 .091000009 .361 .20400001 L .45700003 .586 Z "/>
</symbol>
<use xlink:href="#font_3_2" transform="matrix(9.9626,0,0,-9.9626,110.627918,9.652319)"/>
</svg>
