<?xml version="1.0" encoding="UTF-8" standalone="no"?>
<!DOCTYPE svg PUBLIC "-//W3C//DTD SVG 1.1//EN" "http://www.w3.org/Graphics/SVG/1.1/DTD/svg11.dtd">
<svg xmlns="http://www.w3.org/2000/svg" xmlns:xlink="http://www.w3.org/1999/xlink" version="1.1" width="210.12pt" height="168.021pt" viewBox="0 0 210.12 168.021">
<path transform="matrix(1,0,0,-1,9.686,167.82199)" stroke-width="1" stroke-linecap="butt" stroke-miterlimit="10" stroke-linejoin="miter" fill="none" stroke="#808080" d="M 4.04726 79.27766 L 4.04726 82.1126 M 8.09453 79.27766 L 8.09453 82.1126 M 12.1418 79.27766 L 12.1418 82.1126 M 16.18909 79.27766 L 16.18909 82.1126 M 20.23634 79.27766 L 20.23634 82.1126 M 28.3309 79.27766 L 28.3309 82.1126 M 32.37817 79.27766 L 32.37817 82.1126 M 36.42543 79.27766 L 36.42543 82.1126 M 40.47272 79.27766 L 40.47272 82.1126 M 44.51999 79.27766 L 44.51999 82.1126 M 52.61455 79.27766 L 52.61455 82.1126 M 56.6618 79.27766 L 56.6618 82.1126 M 60.70908 79.27766 L 60.70908 82.1126 M 64.75636 79.27766 L 64.75636 82.1126 M 68.80363 79.27766 L 68.80363 82.1126 M 76.89818 79.27766 L 76.89818 82.1126 M 80.94545 79.27766 L 80.94545 82.1126 M 84.99272 79.27766 L 84.99272 82.1126 M 89.04001 79.27766 L 89.04001 82.1126 M 93.08727 79.27766 L 93.08727 82.1126 M 101.18182 79.27766 L 101.18182 82.1126 M 105.2291 79.27766 L 105.2291 82.1126 M 109.27635 79.27766 L 109.27635 82.1126 M 113.32364 79.27766 L 113.32364 82.1126 M 117.37091 79.27766 L 117.37091 82.1126 M 125.46547 79.27766 L 125.46547 82.1126 M 129.51273 79.27766 L 129.51273 82.1126 M 133.56 79.27766 L 133.56 82.1126 M 137.60729 79.27766 L 137.60729 82.1126 M 141.65456 79.27766 L 141.65456 82.1126 M 149.7491 79.27766 L 149.7491 82.1126 M 153.79637 79.27766 L 153.79637 82.1126 M 157.84365 79.27766 L 157.84365 82.1126 M 161.89092 79.27766 L 161.89092 82.1126 M 165.93819 79.27766 L 165.93819 82.1126 M 174.03275 79.27766 L 174.03275 82.1126 M 178.08002 79.27766 L 178.08002 82.1126 M 182.12728 79.27766 L 182.12728 82.1126 M 186.17456 79.27766 L 186.17456 82.1126 M 190.22183 79.27766 L 190.22183 82.1126 "/>
<path transform="matrix(1,0,0,-1,9.686,167.82199)" stroke-width="1" stroke-linecap="butt" stroke-miterlimit="10" stroke-linejoin="miter" fill="none" stroke="#808080" d="M 0 78.56915 L 0 82.8211 M 24.28363 78.56915 L 24.28363 82.8211 M 48.56728 78.56915 L 48.56728 82.8211 M 72.8509 78.56915 L 72.8509 82.8211 M 121.4182 78.56915 L 121.4182 82.8211 M 145.70183 78.56915 L 145.70183 82.8211 M 169.98548 78.56915 L 169.98548 82.8211 M 194.26912 78.56915 L 194.26912 82.8211 "/>
<path transform="matrix(1,0,0,-1,9.686,167.82199)" stroke-width="1" stroke-linecap="butt" stroke-miterlimit="10" stroke-linejoin="miter" fill="none" stroke="#808080" d="M 95.7171 0 L 98.552 0 M 95.7171 8.96611 L 98.552 8.96611 M 95.7171 17.93224 L 98.552 17.93224 M 95.7171 35.86449 L 98.552 35.86449 M 95.7171 44.83061 L 98.552 44.83061 M 95.7171 53.79674 L 98.552 53.79674 M 95.7171 62.76286 L 98.552 62.76286 M 95.7171 71.72899 L 98.552 71.72899 M 95.7171 89.66124 L 98.552 89.66124 M 95.7171 98.62737 L 98.552 98.62737 M 95.7171 107.5935 L 98.552 107.5935 M 95.7171 116.55963 L 98.552 116.55963 M 95.7171 125.52576 L 98.552 125.52576 M 95.7171 143.45801 L 98.552 143.45801 M 95.7171 152.42414 L 98.552 152.42414 M 95.7171 161.39026 L 98.552 161.39026 "/>
<path transform="matrix(1,0,0,-1,9.686,167.82199)" stroke-width="1" stroke-linecap="butt" stroke-miterlimit="10" stroke-linejoin="miter" fill="none" stroke="#808080" d="M 95.0086 26.89838 L 99.26048 26.89838 M 95.0086 134.4919 L 99.26048 134.4919 "/>
<path transform="matrix(1,0,0,-1,9.686,167.82199)" stroke-width="1" stroke-linecap="butt" stroke-miterlimit="10" stroke-linejoin="miter" fill="none" stroke="#000000" d="M 0 80.69513 L 192.2766 80.69513 "/>
<path transform="matrix(1,0,0,-1,201.9626,87.12686)" d="M 1.99252 0 L -1.19551 1.59401 L 0 0 L -1.19551 -1.59401 "/>
<path transform="matrix(1,0,0,-1,9.686,167.82199)" stroke-width="1" stroke-linecap="butt" stroke-miterlimit="10" stroke-linejoin="miter" fill="none" stroke="#000000" d="M 97.13455 0 L 97.13455 159.39775 "/>
<path transform="matrix(0,-1,-1,-0,106.82055,8.42424)" d="M 1.99252 0 L -1.19551 1.59401 L 0 0 L -1.19551 -1.59401 "/>
<symbol id="font_0_1">
<path d="M .57600006 0 C .59300008 0 .611 0 .611 .019999996 C .611 .040000008 .59300008 .040000008 .57600006 .040000008 L .035000005 .040000008 C .018 .040000008 0 .040000008 0 .019999996 C 0 0 .018 0 .035000005 0 L .57600006 0 Z "/>
</symbol>
<use xlink:href="#font_0_1" transform="matrix(9.9626,0,0,-9.9626,4.147896,96.902599)"/>
<symbol id="font_1_4">
<path d="M .121 .47900004 C .075 .509 .071 .54300007 .071 .56000009 C .071 .62100008 .136 .66300007 .20700002 .66300007 C .28000004 .66300007 .344 .61100009 .344 .53900006 C .344 .48200003 .305 .43400005 .245 .39900003 L .121 .47900004 M .26700003 .38400004 C .33900003 .42100004 .388 .47300006 .388 .53900006 C .388 .63100007 .29900003 .688 .208 .688 C .108 .688 .027000003 .614 .027000003 .521 C .027000003 .503 .029 .45800004 .071 .41100005 C .082 .39900003 .11900001 .37400005 .144 .35700003 C .086 .32800005 0 .272 0 .17300001 C 0 .067 .102000009 0 .20700002 0 C .32000003 0 .41500003 .083000008 .41500003 .19000001 C .41500003 .22600001 .404 .27100004 .36600004 .31300003 C .34700004 .33400003 .33100004 .34400005 .26700003 .38400004 M .167 .34200005 L .29000003 .26400004 C .31800003 .245 .365 .215 .365 .154 C .365 .080000009 .29000003 .028 .208 .028 C .122 .028 .050000006 .09 .050000006 .17300001 C .050000006 .231 .082 .29500003 .167 .34200005 Z "/>
</symbol>
<use xlink:href="#font_1_4" transform="matrix(9.9626,0,0,-9.9626,11.48743,99.41317)"/>
<use xlink:href="#font_0_1" transform="matrix(9.9626,0,0,-9.9626,28.430897,96.902599)"/>
<symbol id="font_1_3">
<path d="M .089999999 .35000003 L .089999999 .37400005 C .089999999 .62700006 .21400002 .66300007 .26500003 .66300007 C .28900004 .66300007 .33100004 .65700009 .35300002 .623 C .33800004 .623 .298 .623 .298 .57800009 C .298 .54700008 .32200004 .53200009 .344 .53200009 C .36 .53200009 .39000003 .54100009 .39000003 .58000007 C .39000003 .64000007 .34600003 .688 .263 .688 C .13499999 .688 0 .559 0 .33800004 C 0 .071 .116000007 0 .20900002 0 C .32000003 0 .41500003 .094000007 .41500003 .22600001 C .41500003 .35300005 .32600004 .44900004 .215 .44900004 C .14700002 .44900004 .11000001 .39800004 .089999999 .35000003 M .20900002 .028 C .146 .028 .116000007 .088 .11000001 .103 C .092 .15 .092 .23 .092 .24800001 C .092 .32600004 .124000009 .42600004 .21400002 .42600004 C .23000002 .42600004 .27600003 .42600004 .307 .36400003 C .32500003 .32700003 .32500003 .27600003 .32500003 .22700002 C .32500003 .179 .32500003 .12900001 .30800004 .093 C .27800004 .033000005 .23200003 .028 .20900002 .028 Z "/>
</symbol>
<use xlink:href="#font_1_3" transform="matrix(9.9626,0,0,-9.9626,35.77143,99.41317)"/>
<use xlink:href="#font_0_1" transform="matrix(9.9626,0,0,-9.9626,52.713899,96.902599)"/>
<symbol id="font_1_2">
<path d="M .266 .165 L .266 .078 C .266 .042000005 .26400004 .031000002 .19000001 .031000002 L .16900002 .031000002 L .16900002 0 C .21000001 .003 .26200003 .003 .30400003 .003 C .34600003 .003 .39900003 .003 .44000004 0 L .44000004 .031000002 L .41900004 .031000002 C .34500004 .031000002 .34300003 .042000005 .34300003 .078 L .34300003 .165 L .44300003 .165 L .44300003 .19600001 L .34300003 .19600001 L .34300003 .651 C .34300003 .671 .34300003 .67700007 .32700003 .67700007 C .31800003 .67700007 .31500004 .67700007 .307 .665 L 0 .19600001 L 0 .165 L .266 .165 M .272 .19600001 L .028 .19600001 L .272 .569 L .272 .19600001 Z "/>
</symbol>
<use xlink:href="#font_1_2" transform="matrix(9.9626,0,0,-9.9626,59.914957,99.19399)"/>
<use xlink:href="#font_0_1" transform="matrix(9.9626,0,0,-9.9626,76.997898,96.902599)"/>
<symbol id="font_1_1">
<path d="M .07700001 .07700001 L .18300002 .18 C .33900003 .31800003 .39900003 .372 .39900003 .47200004 C .39900003 .586 .30900003 .666 .18700002 .666 C .074 .666 0 .574 0 .485 C 0 .42900003 .05 .42900003 .053000008 .42900003 C .07000001 .42900003 .105000007 .441 .105000007 .48200003 C .105000007 .508 .08700001 .53400006 .052000006 .53400006 C .044000005 .53400006 .042000008 .53400006 .039 .53300008 C .062000004 .59800007 .11600001 .63500007 .17400001 .63500007 C .26500003 .63500007 .308 .554 .308 .47200004 C .308 .39200003 .25800003 .31300003 .20300003 .25100003 L .011000004 .037 C 0 .026 0 .024 0 0 L .37100003 0 L .39900003 .17400001 L .374 .17400001 C .36900003 .14400001 .36200003 .1 .352 .085 C .345 .07700001 .279 .07700001 .257 .07700001 L .07700001 .07700001 Z "/>
</symbol>
<use xlink:href="#font_1_1" transform="matrix(9.9626,0,0,-9.9626,84.41713,99.19399)"/>
<use xlink:href="#font_1_1" transform="matrix(9.9626,0,0,-9.9626,129.11013,99.19399)"/>
<use xlink:href="#font_1_2" transform="matrix(9.9626,0,0,-9.9626,153.17395,99.19399)"/>
<use xlink:href="#font_1_3" transform="matrix(9.9626,0,0,-9.9626,177.59644,99.41317)"/>
<use xlink:href="#font_1_4" transform="matrix(9.9626,0,0,-9.9626,201.88043,99.41317)"/>
<use xlink:href="#font_0_1" transform="matrix(9.9626,0,0,-9.9626,89.2699,141.4276)"/>
<use xlink:href="#font_1_1" transform="matrix(9.9626,0,0,-9.9626,96.69013,143.719)"/>
<use xlink:href="#font_1_1" transform="matrix(9.9626,0,0,-9.9626,96.690128,36.541994)"/>
<clipPath id="cp2">
<path transform="matrix(1,0,0,-1,9.686,167.82199)" d="M 0 0 L 194.26912 0 L 194.26912 161.39028 L 0 161.39028 Z "/>
</clipPath>
<g clip-path="url(#cp2)">
<path transform="matrix(1,0,0,-1,9.686,167.82199)" stroke-width="1" stroke-linecap="butt" stroke-miterlimit="10" stroke-linejoin="miter" fill="none" stroke="#000000" d="M 59.5538 89.02718 L 59.74667 87.53952 L 59.99844 85.66118 L 60.25021 83.84566 L 60.50198 82.09196 L 60.75375 80.3992 L 61.00552 78.76642 L 61.2573 77.19267 L 61.50906 75.67703 L 61.76083 74.21861 L 62.0126 72.81648 L 62.26437 71.46971 L 62.51614 70.17744 L 62.76791 68.93874 L 63.01968 67.75273 L 63.27145 66.61852 L 63.52322 65.53523 L 63.775 64.50204 L 64.02676 63.51804 L 64.27853 62.58235 L 64.5303 61.69417 L 64.78207 60.85257 L 65.03384 60.05682 L 65.28561 59.30602 L 65.53738 58.59933 L 65.78915 57.93593 L 66.04092 57.31502 L 66.2927 56.73578 L 66.54446 56.1974 L 66.79623 55.69914 L 67.048 55.2401 L 67.29977 54.81955 L 67.55154 54.4367 L 67.80331 54.09077 L 68.05508 53.78105 L 68.30685 53.50668 L 68.55862 53.26692 L 68.8104 53.0611 L 69.06216 52.88837 L 69.31393 52.74805 L 69.5657 52.63936 L 69.81747 52.56166 L 70.06924 52.51413 L 70.32101 52.4961 L 70.57278 52.5069 L 70.82455 52.54568 L 71.07632 52.61188 L 71.3281 52.70479 L 71.57986 52.82372 L 71.83163 52.96797 L 72.0834 53.13678 L 72.33517 53.32959 L 72.58694 53.54579 L 72.83871 53.78462 L 73.09048 54.04543 L 73.34225 54.32764 L 73.59402 54.63054 L 73.8458 54.95354 L 74.09756 55.29599 L 74.34933 55.65727 L 74.6011 56.03682 L 74.85287 56.43398 L 75.10464 56.84814 L 75.35641 57.2787 L 75.60818 57.72511 L 75.85995 58.18675 L 76.11172 58.66307 L 76.3635 59.15346 L 76.61528 59.65741 L 76.86703 60.17426 L 77.1188 60.70355 L 77.37059 61.2447 L 77.62234 61.79718 L 77.87411 62.3604 L 78.1259 62.93385 L 78.37766 63.51704 L 78.62943 64.10945 L 78.88121 64.71053 L 79.13297 65.31978 L 79.38474 65.93672 L 79.63652 66.56082 L 79.88828 67.19164 L 80.14005 67.82863 L 80.39183 68.47137 L 80.64359 69.11937 L 80.89536 69.77216 L 81.14714 70.42929 L 81.3989 71.09029 L 81.65067 71.7547 L 81.90245 72.42212 L 82.1542 73.09209 L 82.40598 73.76419 L 82.65776 74.43799 L 82.90952 75.11304 L 83.16129 75.78899 L 83.41307 76.46538 L 83.66483 77.14185 L 83.9166 77.81798 L 84.16838 78.4934 L 84.42014 79.16768 L 84.6719 79.84053 L 84.92369 80.51149 L 85.17545 81.18025 L 85.42722 81.84645 L 85.679 82.50972 L 85.93076 83.16971 L 86.18253 83.8261 L 86.43431 84.47855 L 86.68607 85.12671 L 86.93784 85.77028 L 87.18962 86.40894 L 87.44139 87.04236 L 87.69315 87.67026 L 87.94493 88.29234 L 88.1967 88.9083 L 88.44846 89.51784 L 88.70024 90.12068 L 88.95201 90.71658 L 89.20377 91.30525 L 89.45555 91.88641 L 89.70732 92.45982 L 89.95908 93.02525 L 90.21086 93.5824 L 90.46263 94.13109 L 90.71439 94.67105 L 90.96617 95.20206 L 91.21794 95.72392 L 91.4697 96.23637 L 91.72148 96.73924 L 91.97325 97.2323 L 92.22502 97.7154 L 92.47679 98.1883 L 92.72856 98.65083 L 92.98035 99.10278 L 93.2321 99.54405 L 93.48387 99.97441 L 93.73566 100.39372 L 93.98741 100.80185 L 94.23918 101.1986 L 94.49097 101.58385 L 94.74272 101.95747 L 94.99449 102.3193 L 95.24628 102.66927 L 95.49803 103.00719 L 95.7498 103.33301 L 96.00159 103.64658 L 96.25334 103.94783 L 96.50511 104.23663 L 96.7569 104.5129 L 97.00865 104.77657 L 97.26042 105.02756 L 97.5122 105.26581 L 97.76396 105.49121 L 98.01573 105.7037 L 98.26752 105.90334 L 98.51927 106.08994 L 98.77104 106.26352 L 99.02283 106.42401 L 99.2746 106.57144 L 99.52635 106.70575 L 99.77814 106.82689 L 100.0299 106.93494 L 100.28166 107.02979 L 100.53345 107.11153 L 100.78522 107.18007 L 101.03697 107.23549 L 101.28876 107.27779 L 101.54053 107.30699 L 101.79228 107.32315 L 102.04407 107.32626 L 102.29584 107.31638 L 102.54759 107.29355 L 102.79938 107.25784 L 103.05115 107.20927 L 103.3029 107.14798 L 103.55469 107.07397 L 103.80646 106.98734 L 104.05821 106.88821 L 104.31 106.77663 L 104.56177 106.65266 L 104.81352 106.51646 L 105.0653 106.36815 L 105.31708 106.2078 L 105.56883 106.03554 L 105.82062 105.85149 L 106.07239 105.65578 L 106.32416 105.44853 L 106.57593 105.22998 L 106.8277 105.00015 L 107.07947 104.75931 L 107.33124 104.50746 L 107.58301 104.24496 L 107.83478 103.97185 L 108.08655 103.68832 L 108.33832 103.39467 L 108.59009 103.09094 L 108.84186 102.77745 L 109.09363 102.45424 L 109.34541 102.12172 L 109.59717 101.77997 L 109.84894 101.42926 L 110.10072 101.0698 L 110.35248 100.70183 L 110.60425 100.32558 L 110.85603 99.9413 L 111.10779 99.54922 L 111.35956 99.14964 L 111.61134 98.7428 L 111.8631 98.32896 L 112.11487 97.90842 L 112.36665 97.4814 L 112.61841 97.04825 L 112.87018 96.60924 L 113.12196 96.16466 L 113.37372 95.71483 L 113.62549 95.26004 L 113.87727 94.80063 L 114.12903 94.33688 L 114.3808 93.86919 L 114.63258 93.3978 L 114.88434 92.92314 L 115.13611 92.4455 L 115.3879 91.96526 L 115.63965 91.48276 L 115.89142 90.99837 L 116.1432 90.51245 L 116.39496 90.02539 L 116.64673 89.53757 L 116.89851 89.04936 L 117.15027 88.56119 L 117.40204 88.07341 L 117.65382 87.58647 L 117.90558 87.10075 L 118.15735 86.6167 L 118.40913 86.1347 L 118.66089 85.65524 L 118.91266 85.17868 L 119.16444 84.70552 L 119.4162 84.23618 L 119.66797 83.77112 L 119.91975 83.3108 L 120.17151 82.8557 L 120.42328 82.40625 L 120.67506 81.96298 L 120.92682 81.52634 L 121.17859 81.0968 L 121.43037 80.6749 L 121.68213 80.26112 L 121.9339 79.85596 L 122.18568 79.45995 L 122.43744 79.0736 L 122.68921 78.69743 L 122.941 78.33197 L 123.19275 77.97777 L 123.44452 77.63536 L 123.6963 77.3053 L 123.94806 76.98811 L 124.19983 76.68442 L 124.45161 76.39473 L 124.70337 76.11963 L 124.95515 75.85973 L 125.20692 75.61555 L 125.45868 75.38776 L 125.71046 75.17691 L 125.96223 74.9836 L 126.21399 74.80846 L 126.46577 74.65208 L 126.71754 74.5151 L 126.9693 74.39815 L 127.22108 74.30182 L 127.47285 74.22679 L 127.72461 74.1737 L 127.9764 74.1432 L 128.22817 74.13594 L 128.47992 74.15257 L 128.7317 74.19377 L 128.98348 74.26021 L 129.23523 74.3526 L 129.48702 74.47157 L 129.73879 74.61786 L 129.99054 74.79213 L 130.24233 74.99512 L 130.4941 75.22751 L 130.74585 75.49004 L 130.99764 75.78342 L 131.2494 76.10837 L 131.50116 76.46564 L 131.75295 76.85596 L 132.00472 77.28008 L 132.25647 77.73872 L 132.50826 78.23268 L 132.76003 78.76274 L 133.01178 79.3296 L 133.26357 79.9341 L 133.51534 80.57698 L 133.76709 81.25905 L 134.01888 81.98108 L 134.27065 82.74391 L 134.5224 83.54832 L 134.6436 83.95587 "/>
<path transform="matrix(-.12851,-.99165,-.99165,.12851,69.2398,78.79481)" stroke-width="1" stroke-linecap="round" stroke-linejoin="round" fill="none" stroke="#000000" d="M -1.19551 1.59401 C -1.09587 .99626 0 .09961 .29886 0 C 0 -.09961 -1.09587 -.99626 -1.19551 -1.59401 "/>
<path transform="matrix(.28496,-.95848,-.95848,-.28496,144.32959,83.86612)" stroke-width="1" stroke-linecap="round" stroke-linejoin="round" fill="none" stroke="#000000" d="M -1.19551 1.59401 C -1.09587 .99626 0 .09961 .29886 0 C 0 -.09961 -1.09587 -.99626 -1.19551 -1.59401 "/>
</g>
<symbol id="font_3_1">
<path d="M .305 .31300003 C .311 .33900003 .334 .43100003 .404 .43100003 C .409 .43100003 .433 .43100003 .454 .418 C .426 .41300003 .40600003 .388 .40600003 .36400003 C .40600003 .34800003 .417 .32900004 .444 .32900004 C .46600003 .32900004 .498 .34700004 .498 .38700003 C .498 .43900005 .439 .45300005 .405 .45300005 C .347 .45300005 .312 .40000005 .3 .37700004 C .275 .44300003 .221 .45300005 .19200002 .45300005 C .08800001 .45300005 .031000002 .32400004 .031000002 .29900003 C .031000002 .28900004 .041 .28900004 .043000007 .28900004 C .051000008 .28900004 .054000006 .291 .056 .3 C .09 .40600003 .156 .43100003 .19000001 .43100003 C .209 .43100003 .244 .42200003 .244 .36400003 C .244 .33300004 .22700002 .26600004 .19000001 .126 C .17400001 .064 .13900002 .022000002 .095000009 .022000002 C .08900001 .022000002 .06600001 .022000002 .045 .035 C .07000001 .040000004 .09200001 .061 .09200001 .089 C .09200001 .116000007 .07000001 .124000009 .055000009 .124000009 C .025 .124000009 0 .098000008 0 .06600001 C 0 .020000002 .050000006 0 .094000007 0 C .16000001 0 .19600001 .07000001 .19900002 .076000008 C .21100001 .039 .24700003 0 .307 0 C .41 0 .467 .12900001 .467 .15400002 C .467 .16400002 .458 .16400002 .455 .16400002 C .446 .16400002 .444 .16000001 .442 .15300001 C .409 .046 .341 .022000002 .30900003 .022000002 C .27 .022000002 .254 .054 .254 .08800001 C .254 .11000001 .26 .13200002 .271 .17600002 L .305 .31300003 Z "/>
</symbol>
<use xlink:href="#font_3_1" transform="matrix(9.9626,0,0,-9.9626,201.39392,83.71758)"/>
<symbol id="font_3_2">
<path d="M .45700003 .586 C .461 .6 .461 .602 .461 .609 C .461 .62700006 .447 .63600006 .432 .63600006 C .42200003 .63600006 .40600003 .63 .397 .615 C .395 .61 .387 .579 .38300003 .561 C .37600003 .535 .36900003 .508 .363 .48100005 L .318 .301 C .314 .286 .271 .21600002 .20500002 .21600002 C .15400002 .21600002 .143 .26000003 .143 .29700003 C .143 .34300003 .16000001 .40500004 .194 .49300004 C .21000001 .53400006 .21400002 .545 .21400002 .56500008 C .21400002 .61 .18200001 .6470001 .13200002 .6470001 C .037 .6470001 0 .50200006 0 .49300004 C 0 .48300005 .01 .48300005 .012 .48300005 C .022000002 .48300005 .023 .485 .028000003 .50100007 C .055000009 .595 .095000009 .625 .12900001 .625 C .13700001 .625 .15400002 .625 .15400002 .59300008 C .15400002 .568 .14400001 .54200008 .13700001 .523 C .097 .41700004 .079 .36 .079 .31300003 C .079 .224 .142 .194 .201 .194 C .24000003 .194 .274 .21100001 .30200003 .23900002 C .289 .187 .277 .13800001 .237 .08500001 C .21100001 .051 .17300001 .022 .127 .022 C .113000009 .022 .068 .025000006 .051000008 .06400001 C .067 .06400001 .080000009 .06400001 .094000007 .076000008 C .104 .08500001 .11400001 .098000008 .11400001 .117000009 C .11400001 .148 .087000008 .15200001 .07700001 .15200001 C .054000006 .15200001 .021 .136 .021 .087000008 C .021 .037 .065000008 0 .127 0 C .23 0 .333 .091000009 .361 .20400001 L .45700003 .586 Z "/>
</symbol>
<use xlink:href="#font_3_2" transform="matrix(9.9626,0,0,-9.9626,110.627918,9.652319)"/>
</svg>
