<?xml version="1.0" encoding="UTF-8" standalone="no"?>
<!DOCTYPE svg PUBLIC "-//W3C//DTD SVG 1.1//EN" "http://www.w3.org/Graphics/SVG/1.1/DTD/svg11.dtd">
<svg xmlns="http://www.w3.org/2000/svg" xmlns:xlink="http://www.w3.org/1999/xlink" version="1.1" width="194.66pt" height="174.865pt" viewBox="0 0 194.66 174.865">
<path transform="matrix(1,0,0,-1,30.085,167.919)" stroke-width="1" stroke-linecap="butt" stroke-miterlimit="10" stroke-linejoin="miter" fill="none" stroke="#f2f2f2" d="M -26.89838 0 L -26.89838 161.39028 M 0 0 L 0 161.39028 M 26.89838 0 L 26.89838 161.39028 M 53.79675 0 L 53.79675 161.39028 M 80.69513 0 L 80.69513 161.39028 M 107.59352 0 L 107.59352 161.39028 M 134.4919 0 L 134.4919 161.39028 M 161.39028 0 L 161.39028 161.39028 "/>
<path transform="matrix(1,0,0,-1,30.085,167.919)" stroke-width="1" stroke-linecap="butt" stroke-miterlimit="10" stroke-linejoin="miter" fill="none" stroke="#f2f2f2" d="M -13.44919 0 L -13.44919 161.39028 M 13.44919 0 L 13.44919 161.39028 M 67.24594 0 L 67.24594 161.39028 M 94.14432 0 L 94.14432 161.39028 M 121.04271 0 L 121.04271 161.39028 M 147.94109 0 L 147.94109 161.39028 "/>
<path transform="matrix(1,0,0,-1,30.085,167.919)" stroke-width="1" stroke-linecap="butt" stroke-miterlimit="10" stroke-linejoin="miter" fill="none" stroke="#f2f2f2" d="M -29.88594 13.44919 L 164.37784 13.44919 M -29.88594 40.34756 L 164.37784 40.34756 M -29.88594 67.24594 L 164.37784 67.24594 M -29.88594 94.14432 L 164.37784 94.14432 M -29.88594 121.04271 L 164.37784 121.04271 M -29.88594 147.94109 L 164.37784 147.94109 "/>
<path transform="matrix(1,0,0,-1,30.085,167.919)" stroke-width="1" stroke-linecap="butt" stroke-miterlimit="10" stroke-linejoin="miter" fill="none" stroke="#f2f2f2" d="M -29.88594 0 L 164.37784 0 M -29.88594 26.89838 L 164.37784 26.89838 M -29.88594 80.69513 L 164.37784 80.69513 M -29.88594 107.59352 L 164.37784 107.59352 M -29.88594 134.4919 L 164.37784 134.4919 M -29.88594 161.39028 L 164.37784 161.39028 "/>
<path transform="matrix(1,0,0,-1,30.085,167.919)" stroke-width="1" stroke-linecap="butt" stroke-miterlimit="10" stroke-linejoin="miter" fill="none" stroke="#808080" d="M -26.89838 52.37936 L -26.89838 55.21414 M 0 52.37936 L 0 55.21414 M 26.89838 52.37936 L 26.89838 55.21414 M 53.79675 52.37936 L 53.79675 55.21414 M 80.69513 52.37936 L 80.69513 55.21414 M 107.59352 52.37936 L 107.59352 55.21414 M 134.4919 52.37936 L 134.4919 55.21414 M 161.39028 52.37936 L 161.39028 55.21414 "/>
<path transform="matrix(1,0,0,-1,30.085,167.919)" stroke-width="1" stroke-linecap="butt" stroke-miterlimit="10" stroke-linejoin="miter" fill="none" stroke="#808080" d="M -13.44919 51.6709 L -13.44919 55.92259 M 13.44919 51.6709 L 13.44919 55.92259 M 67.24594 51.6709 L 67.24594 55.92259 M 94.14432 51.6709 L 94.14432 55.92259 M 121.04271 51.6709 L 121.04271 55.92259 M 147.94109 51.6709 L 147.94109 55.92259 "/>
<path transform="matrix(1,0,0,-1,30.085,167.919)" stroke-width="1" stroke-linecap="butt" stroke-miterlimit="10" stroke-linejoin="miter" fill="none" stroke="#808080" d="M 38.93018 13.44919 L 41.76495 13.44919 M 38.93018 40.34756 L 41.76495 40.34756 M 38.93018 67.24594 L 41.76495 67.24594 M 38.93018 94.14432 L 41.76495 94.14432 M 38.93018 121.04271 L 41.76495 121.04271 M 38.93018 147.94109 L 41.76495 147.94109 "/>
<path transform="matrix(1,0,0,-1,30.085,167.919)" stroke-width="1" stroke-linecap="butt" stroke-miterlimit="10" stroke-linejoin="miter" fill="none" stroke="#808080" d="M 38.22171 0 L 42.4734 0 M 38.22171 26.89838 L 42.4734 26.89838 M 38.22171 80.69513 L 42.4734 80.69513 M 38.22171 107.59352 L 42.4734 107.59352 M 38.22171 134.4919 L 42.4734 134.4919 M 38.22171 161.39028 L 42.4734 161.39028 "/>
<path transform="matrix(1,0,0,-1,30.085,167.919)" stroke-width="1" stroke-linecap="butt" stroke-miterlimit="10" stroke-linejoin="miter" fill="none" stroke="#000000" d="M -29.88594 53.79675 L 162.38532 53.79675 "/>
<path transform="matrix(1,0,0,-1,192.4703,114.12225)" d="M 1.99252 0 L -1.19551 1.59401 L 0 0 L -1.19551 -1.59401 "/>
<path transform="matrix(1,0,0,-1,30.085,167.919)" stroke-width="1" stroke-linecap="butt" stroke-miterlimit="10" stroke-linejoin="miter" fill="none" stroke="#000000" d="M 40.34756 0 L 40.34756 159.39775 "/>
<path transform="matrix(0,-1,-1,-0,70.432559,8.5212559)" d="M 1.99252 0 L -1.19551 1.59401 L 0 0 L -1.19551 -1.59401 "/>
<symbol id="font_0_1">
<path d="M .57600006 0 C .59300008 0 .611 0 .611 .019999996 C .611 .040000008 .59300008 .040000008 .57600006 .040000008 L .035000005 .040000008 C .018 .040000008 0 .040000008 0 .019999996 C 0 0 .018 0 .035000005 0 L .57600006 0 Z "/>
</symbol>
<use xlink:href="#font_0_1" transform="matrix(9.9626,0,0,-9.9626,11.097896,123.89761)"/>
<symbol id="font_1_2">
<path d="M .266 .165 L .266 .078 C .266 .042000005 .26400004 .031000002 .19000001 .031000002 L .16900002 .031000002 L .16900002 0 C .21000001 .003 .26200003 .003 .30400003 .003 C .34600003 .003 .39900003 .003 .44000004 0 L .44000004 .031000002 L .41900004 .031000002 C .34500004 .031000002 .34300003 .042000005 .34300003 .078 L .34300003 .165 L .44300003 .165 L .44300003 .19600001 L .34300003 .19600001 L .34300003 .651 C .34300003 .671 .34300003 .67700007 .32700003 .67700007 C .31800003 .67700007 .31500004 .67700007 .307 .665 L 0 .19600001 L 0 .165 L .266 .165 M .272 .19600001 L .028 .19600001 L .272 .569 L .272 .19600001 Z "/>
</symbol>
<use xlink:href="#font_1_2" transform="matrix(9.9626,0,0,-9.9626,18.298954,126.18901)"/>
<use xlink:href="#font_0_1" transform="matrix(9.9626,0,0,-9.9626,37.995897,123.89761)"/>
<symbol id="font_1_1">
<path d="M .07700001 .07700001 L .18300002 .18 C .33900003 .31800003 .39900003 .372 .39900003 .47200004 C .39900003 .586 .30900003 .666 .18700002 .666 C .074 .666 0 .574 0 .485 C 0 .42900003 .05 .42900003 .053000008 .42900003 C .07000001 .42900003 .105000007 .441 .105000007 .48200003 C .105000007 .508 .08700001 .53400006 .052000006 .53400006 C .044000005 .53400006 .042000008 .53400006 .039 .53300008 C .062000004 .59800007 .11600001 .63500007 .17400001 .63500007 C .26500003 .63500007 .308 .554 .308 .47200004 C .308 .39200003 .25800003 .31300003 .20300003 .25100003 L .011000004 .037 C 0 .026 0 .024 0 0 L .37100003 0 L .39900003 .17400001 L .374 .17400001 C .36900003 .14400001 .36200003 .1 .352 .085 C .345 .07700001 .279 .07700001 .257 .07700001 L .07700001 .07700001 Z "/>
</symbol>
<use xlink:href="#font_1_1" transform="matrix(9.9626,0,0,-9.9626,45.41613,126.18901)"/>
<use xlink:href="#font_1_1" transform="matrix(9.9626,0,0,-9.9626,95.33713,126.18901)"/>
<use xlink:href="#font_1_2" transform="matrix(9.9626,0,0,-9.9626,122.01595,126.18901)"/>
<symbol id="font_1_3">
<path d="M .089999999 .35000003 L .089999999 .37400005 C .089999999 .62700006 .21400002 .66300007 .26500003 .66300007 C .28900004 .66300007 .33100004 .65700009 .35300002 .623 C .33800004 .623 .298 .623 .298 .57800009 C .298 .54700008 .32200004 .53200009 .344 .53200009 C .36 .53200009 .39000003 .54100009 .39000003 .58000007 C .39000003 .64000007 .34600003 .688 .263 .688 C .13499999 .688 0 .559 0 .33800004 C 0 .071 .116000007 0 .20900002 0 C .32000003 0 .41500003 .094000007 .41500003 .22600001 C .41500003 .35300005 .32600004 .44900004 .215 .44900004 C .14700002 .44900004 .11000001 .39800004 .089999999 .35000003 M .20900002 .028 C .146 .028 .116000007 .088 .11000001 .103 C .092 .15 .092 .23 .092 .24800001 C .092 .32600004 .124000009 .42600004 .21400002 .42600004 C .23000002 .42600004 .27600003 .42600004 .307 .36400003 C .32500003 .32700003 .32500003 .27600003 .32500003 .22700002 C .32500003 .179 .32500003 .12900001 .30800004 .093 C .27800004 .033000005 .23200003 .028 .20900002 .028 Z "/>
</symbol>
<use xlink:href="#font_1_3" transform="matrix(9.9626,0,0,-9.9626,149.05344,126.40819)"/>
<symbol id="font_1_4">
<path d="M .121 .47900004 C .075 .509 .071 .54300007 .071 .56000009 C .071 .62100008 .136 .66300007 .20700002 .66300007 C .28000004 .66300007 .344 .61100009 .344 .53900006 C .344 .48200003 .305 .43400005 .245 .39900003 L .121 .47900004 M .26700003 .38400004 C .33900003 .42100004 .388 .47300006 .388 .53900006 C .388 .63100007 .29900003 .688 .208 .688 C .108 .688 .027000003 .614 .027000003 .521 C .027000003 .503 .029 .45800004 .071 .41100005 C .082 .39900003 .11900001 .37400005 .144 .35700003 C .086 .32800005 0 .272 0 .17300001 C 0 .067 .102000009 0 .20700002 0 C .32000003 0 .41500003 .083000008 .41500003 .19000001 C .41500003 .22600001 .404 .27100004 .36600004 .31300003 C .34700004 .33400003 .33100004 .34400005 .26700003 .38400004 M .167 .34200005 L .29000003 .26400004 C .31800003 .245 .365 .215 .365 .154 C .365 .080000009 .29000003 .028 .208 .028 C .122 .028 .050000006 .09 .050000006 .17300001 C .050000006 .231 .082 .29500003 .167 .34200005 Z "/>
</symbol>
<use xlink:href="#font_1_4" transform="matrix(9.9626,0,0,-9.9626,175.95142,126.40819)"/>
<use xlink:href="#font_0_1" transform="matrix(9.9626,0,0,-9.9626,52.882898,168.4226)"/>
<use xlink:href="#font_1_2" transform="matrix(9.9626,0,0,-9.9626,60.083955,170.714)"/>
<use xlink:href="#font_0_1" transform="matrix(9.9626,0,0,-9.9626,52.882898,141.52462)"/>
<use xlink:href="#font_1_1" transform="matrix(9.9626,0,0,-9.9626,60.30313,143.81601)"/>
<use xlink:href="#font_1_1" transform="matrix(9.9626,0,0,-9.9626,60.30313,90.435009)"/>
<use xlink:href="#font_1_2" transform="matrix(9.9626,0,0,-9.9626,60.083955,63.537004)"/>
<use xlink:href="#font_1_3" transform="matrix(9.9626,0,0,-9.9626,60.22343,36.858186)"/>
<use xlink:href="#font_1_4" transform="matrix(9.9626,0,0,-9.9626,60.22343,9.96019)"/>
<clipPath id="cp2">
<path transform="matrix(1,0,0,-1,30.085,167.919)" d="M -29.88594 0 L 164.37784 0 L 164.37784 161.39028 L -29.88594 161.39028 Z "/>
</clipPath>
<g clip-path="url(#cp2)">
<path transform="matrix(1,0,0,-1,30.085,167.919)" d="M 2.81807 107.59352 C 2.81807 109.1499 1.55638 110.41159 0 110.41159 C -1.55638 110.41159 -2.81807 109.1499 -2.81807 107.59352 C -2.81807 106.03712 -1.55638 104.77544 0 104.77544 C 1.55638 104.77544 2.81807 106.03712 2.81807 107.59352 Z M 0 107.59352 "/>
<symbol id="font_3_1">
<path d="M .33300004 .38900004 C .31500004 .42600004 .286 .45300005 .24100001 .45300005 C .124 .45300005 0 .30600003 0 .16000001 C 0 .06600001 .055000005 0 .133 0 C .153 0 .20300001 .0040000008 .263 .075 C .27100004 .033000005 .30600003 0 .35400004 0 C .38900004 0 .41200004 .023000002 .42800004 .055000005 C .44500003 .091000009 .45800004 .15200001 .45800004 .15400002 C .45800004 .16400002 .44900004 .16400002 .44600005 .16400002 C .43600003 .16400002 .43500004 .16000001 .43200005 .14600002 C .41500003 .081 .397 .022000002 .35600005 .022000002 C .32900004 .022000002 .32600004 .048 .32600004 .068 C .32600004 .09 .32800005 .098000008 .33900003 .14200002 C .35000003 .18400002 .35200004 .19400002 .36100004 .23200003 L .397 .37200005 C .40400005 .40000005 .40400005 .40200005 .40400005 .40600003 C .40400005 .42300005 .39200003 .43300004 .37500004 .43300004 C .35100005 .43300004 .33600004 .411 .33300004 .38900004 M .26800005 .13000001 C .263 .112 .263 .11000001 .24800001 .093 C .20400001 .038000004 .163 .022000002 .135 .022000002 C .08499999 .022000002 .07100001 .077 .07100001 .116000007 C .07100001 .16600001 .103 .28900004 .126 .335 C .157 .39400003 .202 .43100003 .242 .43100003 C .307 .43100003 .32100005 .34900005 .32100005 .34300003 C .32100005 .337 .31900005 .33100004 .31800003 .32600004 L .26800005 .13000001 Z "/>
</symbol>
<use xlink:href="#font_3_1" transform="matrix(9.9626,0,0,-9.9626,18.680502,62.581598)"/>
<path transform="matrix(1,0,0,-1,30.085,167.919)" d="M 43.16565 13.44919 C 43.16565 15.00557 41.90396 16.26726 40.34756 16.26726 C 38.79117 16.26726 37.52948 15.00557 37.52948 13.44919 C 37.52948 11.89279 38.79117 10.6311 40.34756 10.6311 C 41.90396 10.6311 43.16565 11.89279 43.16565 13.44919 Z M 40.34756 13.44919 "/>
<symbol id="font_3_2">
<path d="M .192 .694 C .192 .695 .192 .705 .179 .705 C .156 .705 .083000008 .697 .057 .695 C .049 .694 .038 .693 .038 .675 C .038 .663 .047000003 .663 .062000004 .663 C .11 .663 .112 .656 .112 .646 C .112 .639 .103 .605 .098000008 .584 L .015999999 .25800003 C .0040000008 .20800002 0 .19200002 0 .15700002 C 0 .062000004 .053 0 .127 0 C .24500002 0 .36800004 .14900002 .36800004 .293 C .36800004 .38400004 .31500004 .45300005 .235 .45300005 C .18900001 .45300005 .148 .42400003 .118 .39300005 L .192 .694 M .098000008 .316 C .104 .33800004 .104 .34000004 .113000009 .351 C .162 .41600005 .207 .43100003 .233 .43100003 C .26900003 .43100003 .29600004 .40100003 .29600004 .337 C .29600004 .27800004 .263 .16300002 .24500002 .12500002 C .212 .058000003 .16600001 .022000002 .127 .022000002 C .092999998 .022000002 .060000007 .049000004 .060000007 .123 C .060000007 .14200002 .060000007 .16100002 .076000008 .22400002 L .098000008 .316 Z "/>
</symbol>
<use xlink:href="#font_3_2" transform="matrix(9.9626,0,0,-9.9626,60.087244,158.03859)"/>
<path transform="matrix(1,0,0,-1,30.085,167.919)" d="M 70.06403 147.94109 C 70.06403 149.49748 68.80234 150.75917 67.24594 150.75917 C 65.68954 150.75917 64.42786 149.49748 64.42786 147.94109 C 64.42786 146.38469 65.68954 145.123 67.24594 145.123 C 68.80234 145.123 70.06403 146.38469 70.06403 147.94109 Z M 67.24594 147.94109 "/>
<symbol id="font_3_3">
<path d="M .35500003 .39100004 C .33900003 .39100004 .32500003 .39100004 .31100003 .37700004 C .29500003 .36200003 .293 .34500004 .293 .33800004 C .293 .314 .31100003 .30300004 .33 .30300004 C .359 .30300004 .386 .32700003 .386 .367 C .386 .41600005 .33900003 .45300005 .268 .45300005 C .13300002 .45300005 0 .31000004 0 .16900002 C 0 .079 .058000007 0 .162 0 C .305 0 .389 .106000009 .389 .11800001 C .389 .124000009 .38300003 .13100001 .377 .13100001 C .372 .13100001 .37 .12900001 .36400003 .12100001 C .285 .022000002 .176 .022000002 .164 .022000002 C .101 .022000002 .074 .071 .074 .13100001 C .074 .17200002 .094000007 .26900003 .12800002 .33100004 C .15900001 .388 .21400002 .43100003 .269 .43100003 C .303 .43100003 .34100003 .418 .35500003 .39100004 Z "/>
</symbol>
<use xlink:href="#font_3_3" transform="matrix(9.9626,0,0,-9.9626,86.890468,22.234589)"/>
<path transform="matrix(1,0,0,-1,30.085,167.919)" d="M 137.30998 40.34756 C 137.30998 41.90396 136.0483 43.16565 134.4919 43.16565 C 132.9355 43.16565 131.67382 41.90396 131.67382 40.34756 C 131.67382 38.79117 132.9355 37.52948 134.4919 37.52948 C 136.0483 37.52948 137.30998 38.79117 137.30998 40.34756 Z M 134.4919 40.34756 "/>
<symbol id="font_3_4">
<path d="M .47600005 .694 C .47600005 .695 .47600005 .705 .46300004 .705 C .44800005 .705 .35300002 .69600006 .33600004 .694 C .32800005 .693 .32200004 .688 .32200004 .675 C .32200004 .663 .33100004 .663 .34600003 .663 C .39400003 .663 .39600004 .656 .39600004 .646 L .39300005 .626 L .33300004 .38900004 C .31500004 .42600004 .286 .45300005 .24100001 .45300005 C .124 .45300005 0 .30600003 0 .16000001 C 0 .06600001 .055000005 0 .133 0 C .153 0 .20300001 .0040000008 .263 .075 C .27100004 .033000005 .30600003 0 .35400004 0 C .38900004 0 .41200004 .023000002 .42800004 .055000005 C .44500003 .091000009 .45800004 .15200001 .45800004 .15400002 C .45800004 .16400002 .44900004 .16400002 .44600005 .16400002 C .43600003 .16400002 .43500004 .16000001 .43200005 .14600002 C .41500003 .081 .397 .022000002 .35600005 .022000002 C .32900004 .022000002 .32600004 .048 .32600004 .068 C .32600004 .092 .32800005 .09900001 .33200003 .116000007 L .47600005 .694 M .26800005 .13000001 C .263 .112 .263 .11000001 .24800001 .093 C .20400001 .038000004 .163 .022000002 .135 .022000002 C .08499999 .022000002 .07100001 .077 .07100001 .116000007 C .07100001 .16600001 .103 .28900004 .126 .335 C .157 .39400003 .202 .43100003 .242 .43100003 C .307 .43100003 .32100005 .34900005 .32100005 .34300003 C .32100005 .337 .31900005 .33100004 .31800003 .32600004 L .26800005 .13000001 Z "/>
</symbol>
<use xlink:href="#font_3_4" transform="matrix(9.9626,0,0,-9.9626,153.2515,131.1406)"/>
</g>
<path transform="matrix(1,0,0,-1,30.085,167.919)" d="M 1.99255 107.59352 C 1.99255 108.69398 1.10046 109.58607 0 109.58607 C -1.10046 109.58607 -1.99255 108.69398 -1.99255 107.59352 C -1.99255 106.49304 -1.10046 105.60097 0 105.60097 C 1.10046 105.60097 1.99255 106.49304 1.99255 107.59352 Z M 0 107.59352 "/>
<path transform="matrix(1,0,0,-1,30.085,167.919)" stroke-width="1" stroke-linecap="butt" stroke-miterlimit="10" stroke-linejoin="miter" fill="none" stroke="#000000" d="M 1.99255 107.59352 C 1.99255 108.69398 1.10046 109.58607 0 109.58607 C -1.10046 109.58607 -1.99255 108.69398 -1.99255 107.59352 C -1.99255 106.49304 -1.10046 105.60097 0 105.60097 C 1.10046 105.60097 1.99255 106.49304 1.99255 107.59352 Z M 0 107.59352 "/>
<path transform="matrix(1,0,0,-1,30.085,167.919)" d="M 42.34012 13.44919 C 42.34012 14.54965 41.44803 15.44174 40.34756 15.44174 C 39.24709 15.44174 38.35501 14.54965 38.35501 13.44919 C 38.35501 12.34871 39.24709 11.45663 40.34756 11.45663 C 41.44803 11.45663 42.34012 12.34871 42.34012 13.44919 Z M 40.34756 13.44919 "/>
<path transform="matrix(1,0,0,-1,30.085,167.919)" stroke-width="1" stroke-linecap="butt" stroke-miterlimit="10" stroke-linejoin="miter" fill="none" stroke="#000000" d="M 42.34012 13.44919 C 42.34012 14.54965 41.44803 15.44174 40.34756 15.44174 C 39.24709 15.44174 38.35501 14.54965 38.35501 13.44919 C 38.35501 12.34871 39.24709 11.45663 40.34756 11.45663 C 41.44803 11.45663 42.34012 12.34871 42.34012 13.44919 Z M 40.34756 13.44919 "/>
<path transform="matrix(1,0,0,-1,30.085,167.919)" d="M 69.2385 147.94109 C 69.2385 149.04155 68.34642 149.93364 67.24594 149.93364 C 66.14548 149.93364 65.25339 149.04155 65.25339 147.94109 C 65.25339 146.8406 66.14548 145.94853 67.24594 145.94853 C 68.34642 145.94853 69.2385 146.8406 69.2385 147.94109 Z M 67.24594 147.94109 "/>
<path transform="matrix(1,0,0,-1,30.085,167.919)" stroke-width="1" stroke-linecap="butt" stroke-miterlimit="10" stroke-linejoin="miter" fill="none" stroke="#000000" d="M 69.2385 147.94109 C 69.2385 149.04155 68.34642 149.93364 67.24594 149.93364 C 66.14548 149.93364 65.25339 149.04155 65.25339 147.94109 C 65.25339 146.8406 66.14548 145.94853 67.24594 145.94853 C 68.34642 145.94853 69.2385 146.8406 69.2385 147.94109 Z M 67.24594 147.94109 "/>
<path transform="matrix(1,0,0,-1,30.085,167.919)" d="M 136.48445 40.34756 C 136.48445 41.44803 135.59236 42.34012 134.4919 42.34012 C 133.39142 42.34012 132.49935 41.44803 132.49935 40.34756 C 132.49935 39.24709 133.39142 38.35501 134.4919 38.35501 C 135.59236 38.35501 136.48445 39.24709 136.48445 40.34756 Z M 134.4919 40.34756 "/>
<path transform="matrix(1,0,0,-1,30.085,167.919)" stroke-width="1" stroke-linecap="butt" stroke-miterlimit="10" stroke-linejoin="miter" fill="none" stroke="#000000" d="M 136.48445 40.34756 C 136.48445 41.44803 135.59236 42.34012 134.4919 42.34012 C 133.39142 42.34012 132.49935 41.44803 132.49935 40.34756 C 132.49935 39.24709 133.39142 38.35501 134.4919 38.35501 C 135.59236 38.35501 136.48445 39.24709 136.48445 40.34756 Z M 134.4919 40.34756 "/>
<symbol id="font_3_5">
<path d="M .305 .31300003 C .311 .33900003 .334 .43100003 .404 .43100003 C .409 .43100003 .433 .43100003 .454 .418 C .426 .41300003 .40600003 .388 .40600003 .36400003 C .40600003 .34800003 .417 .32900004 .444 .32900004 C .46600003 .32900004 .498 .34700004 .498 .38700003 C .498 .43900005 .439 .45300005 .405 .45300005 C .347 .45300005 .312 .40000005 .3 .37700004 C .275 .44300003 .221 .45300005 .19200002 .45300005 C .08800001 .45300005 .031000002 .32400004 .031000002 .29900003 C .031000002 .28900004 .041 .28900004 .043000007 .28900004 C .051000008 .28900004 .054000006 .291 .056 .3 C .09 .40600003 .156 .43100003 .19000001 .43100003 C .209 .43100003 .244 .42200003 .244 .36400003 C .244 .33300004 .22700002 .26600004 .19000001 .126 C .17400001 .064 .13900002 .022000002 .095000009 .022000002 C .08900001 .022000002 .06600001 .022000002 .045 .035 C .07000001 .040000004 .09200001 .061 .09200001 .089 C .09200001 .116000007 .07000001 .124000009 .055000009 .124000009 C .025 .124000009 0 .098000008 0 .06600001 C 0 .020000002 .050000006 0 .094000007 0 C .16000001 0 .19600001 .07000001 .19900002 .076000008 C .21100001 .039 .24700003 0 .307 0 C .41 0 .467 .12900001 .467 .15400002 C .467 .16400002 .458 .16400002 .455 .16400002 C .446 .16400002 .444 .16000001 .442 .15300001 C .409 .046 .341 .022000002 .30900003 .022000002 C .27 .022000002 .254 .054 .254 .08800001 C .254 .11000001 .26 .13200002 .271 .17600002 L .305 .31300003 Z "/>
</symbol>
<use xlink:href="#font_3_5" transform="matrix(9.9626,0,0,-9.9626,185.5679,110.70259)"/>
<symbol id="font_3_6">
<path d="M .45700003 .586 C .461 .6 .461 .602 .461 .609 C .461 .62700006 .447 .63600006 .432 .63600006 C .42200003 .63600006 .40600003 .63 .397 .615 C .395 .61 .387 .579 .38300003 .561 C .37600003 .535 .36900003 .508 .363 .48100005 L .318 .301 C .314 .286 .271 .21600002 .20500002 .21600002 C .15400002 .21600002 .143 .26000003 .143 .29700003 C .143 .34300003 .16000001 .40500004 .194 .49300004 C .21000001 .53400006 .21400002 .545 .21400002 .56500008 C .21400002 .61 .18200001 .6470001 .13200002 .6470001 C .037 .6470001 0 .50200006 0 .49300004 C 0 .48300005 .01 .48300005 .012 .48300005 C .022000002 .48300005 .023 .485 .028000003 .50100007 C .055000009 .595 .095000009 .625 .12900001 .625 C .13700001 .625 .15400002 .625 .15400002 .59300008 C .15400002 .568 .14400001 .54200008 .13700001 .523 C .097 .41700004 .079 .36 .079 .31300003 C .079 .224 .142 .194 .201 .194 C .24000003 .194 .274 .21100001 .30200003 .23900002 C .289 .187 .277 .13800001 .237 .08500001 C .21100001 .051 .17300001 .022 .127 .022 C .113000009 .022 .068 .025000006 .051000008 .06400001 C .067 .06400001 .080000009 .06400001 .094000007 .076000008 C .104 .08500001 .11400001 .098000008 .11400001 .117000009 C .11400001 .148 .087000008 .15200001 .07700001 .15200001 C .054000006 .15200001 .021 .136 .021 .087000008 C .021 .037 .065000008 0 .127 0 C .23 0 .333 .091000009 .361 .20400001 L .45700003 .586 Z "/>
</symbol>
<use xlink:href="#font_3_6" transform="matrix(9.9626,0,0,-9.9626,74.24692,16.34934)"/>
</svg>
