<?xml version="1.0" encoding="UTF-8" standalone="no"?>
<!DOCTYPE svg PUBLIC "-//W3C//DTD SVG 1.1//EN" "http://www.w3.org/Graphics/SVG/1.1/DTD/svg11.dtd">
<svg xmlns="http://www.w3.org/2000/svg" xmlns:xlink="http://www.w3.org/1999/xlink" version="1.1" width="197.329pt" height="168.015pt" viewBox="0 0 197.329 168.015">
<path transform="matrix(1,0,0,-1,.199,167.816)" stroke-width="1" stroke-linecap="butt" stroke-miterlimit="10" stroke-linejoin="miter" fill="none" stroke="#808080" d="M 0 46.80972 L 0 49.6447 M 29.43407 46.80972 L 29.43407 49.6447 M 58.86813 46.80972 L 58.86813 49.6447 M 88.3022 46.80972 L 88.3022 49.6447 M 117.73627 46.80972 L 117.73627 49.6447 M 147.17035 46.80972 L 147.17035 49.6447 M 176.60442 46.80972 L 176.60442 49.6447 "/>
<path transform="matrix(1,0,0,-1,.199,167.816)" stroke-width="1" stroke-linecap="butt" stroke-miterlimit="10" stroke-linejoin="miter" fill="none" stroke="#808080" d="M 14.71703 46.1012 L 14.71703 50.35321 M 44.1511 46.1012 L 44.1511 50.35321 M 103.01924 46.1012 L 103.01924 50.35321 M 132.45331 46.1012 L 132.45331 50.35321 M 161.88738 46.1012 L 161.88738 50.35321 M 191.32146 46.1012 L 191.32146 50.35321 "/>
<path transform="matrix(1,0,0,-1,.199,167.816)" stroke-width="1" stroke-linecap="butt" stroke-miterlimit="10" stroke-linejoin="miter" fill="none" stroke="#808080" d="M 72.16774 5.82965 L 75.00258 5.82965 M 72.16774 34.09468 L 75.00258 34.09468 M 72.16774 62.35973 L 75.00258 62.35973 M 72.16774 90.62476 L 75.00258 90.62476 M 72.16774 118.8898 L 75.00258 118.8898 M 72.16774 147.15485 L 75.00258 147.15485 "/>
<path transform="matrix(1,0,0,-1,.199,167.816)" stroke-width="1" stroke-linecap="butt" stroke-miterlimit="10" stroke-linejoin="miter" fill="none" stroke="#808080" d="M 71.45923 19.96217 L 75.71109 19.96217 M 71.45923 76.49225 L 75.71109 76.49225 M 71.45923 104.75728 L 75.71109 104.75728 M 71.45923 133.02233 L 75.71109 133.02233 M 71.45923 161.28736 L 75.71109 161.28736 "/>
<path transform="matrix(1,0,0,-1,.199,167.816)" stroke-width="1" stroke-linecap="butt" stroke-miterlimit="10" stroke-linejoin="miter" fill="none" stroke="#000000" d="M 0 48.2272 L 192.27234 48.2272 "/>
<path transform="matrix(1,0,0,-1,192.47135,119.58879)" d="M 1.99252 0 L -1.19551 1.59401 L 0 0 L -1.19551 -1.59401 "/>
<path transform="matrix(1,0,0,-1,.199,167.816)" stroke-width="1" stroke-linecap="butt" stroke-miterlimit="10" stroke-linejoin="miter" fill="none" stroke="#000000" d="M 73.58517 0 L 73.58517 159.4079 "/>
<path transform="matrix(0,-1,-1,-0,73.784168,8.408096)" d="M 1.99252 0 L -1.19551 1.59401 L 0 0 L -1.19551 -1.59401 "/>
<symbol id="font_0_1">
<path d="M .57600006 0 C .59300008 0 .611 0 .611 .019999996 C .611 .040000008 .59300008 .040000008 .57600006 .040000008 L .035000005 .040000008 C .018 .040000008 0 .040000008 0 .019999996 C 0 0 .018 0 .035000005 0 L .57600006 0 Z "/>
</symbol>
<use xlink:href="#font_0_1" transform="matrix(9.9626,0,0,-9.9626,9.377896,129.3636)"/>
<symbol id="font_1_3">
<path d="M .07700001 .07700001 L .18300002 .18 C .33900003 .31800003 .39900003 .372 .39900003 .47200004 C .39900003 .586 .30900003 .666 .18700002 .666 C .074 .666 0 .574 0 .485 C 0 .42900003 .05 .42900003 .053000008 .42900003 C .07000001 .42900003 .105000007 .441 .105000007 .48200003 C .105000007 .508 .08700001 .53400006 .052000006 .53400006 C .044000005 .53400006 .042000008 .53400006 .039 .53300008 C .062000004 .59800007 .11600001 .63500007 .17400001 .63500007 C .26500003 .63500007 .308 .554 .308 .47200004 C .308 .39200003 .25800003 .31300003 .20300003 .25100003 L .011000004 .037 C 0 .026 0 .024 0 0 L .37100003 0 L .39900003 .17400001 L .374 .17400001 C .36900003 .14400001 .36200003 .1 .352 .085 C .345 .07700001 .279 .07700001 .257 .07700001 L .07700001 .07700001 Z "/>
</symbol>
<use xlink:href="#font_1_3" transform="matrix(9.9626,0,0,-9.9626,16.79813,131.655)"/>
<use xlink:href="#font_0_1" transform="matrix(9.9626,0,0,-9.9626,38.811899,129.3636)"/>
<symbol id="font_1_2">
<path d="M .205 .64000007 C .205 .66400006 .205 .666 .18200003 .666 C .120000008 .60200008 .032000007 .60200008 0 .60200008 L 0 .57100006 C .020000004 .57100006 .07900001 .57100006 .13100001 .597 L .13100001 .079 C .13100001 .043 .128 .031000002 .038000004 .031000002 L .0060000049 .031000002 L .0060000049 0 C .04100001 .003 .128 .003 .168 .003 C .20800002 .003 .29500003 .003 .33000005 0 L .33000005 .031000002 L .29800005 .031000002 C .20800002 .031000002 .205 .042000005 .205 .079 L .205 .64000007 Z "/>
</symbol>
<use xlink:href="#font_1_2" transform="matrix(9.9626,0,0,-9.9626,46.620676,131.655)"/>
<use xlink:href="#font_1_2" transform="matrix(9.9626,0,0,-9.9626,101.61367,131.655)"/>
<use xlink:href="#font_1_3" transform="matrix(9.9626,0,0,-9.9626,130.65813,131.655)"/>
<symbol id="font_1_4">
<path d="M .24800003 .37400005 C .33 .40100003 .388 .47100006 .388 .55 C .388 .632 .3 .688 .204 .688 C .10300001 .688 .027000003 .628 .027000003 .55200007 C .027000003 .519 .049000004 .5 .078 .5 C .109000008 .5 .12900001 .522 .12900001 .55100008 C .12900001 .6010001 .082 .6010001 .067 .6010001 C .098 .65000006 .164 .66300007 .20000002 .66300007 C .24100003 .66300007 .29600004 .64100006 .29600004 .55100008 C .29600004 .53900006 .29400004 .48100005 .268 .43700005 C .238 .38900004 .204 .38600005 .17900002 .38500003 C .171 .38400004 .14700002 .38200004 .14000002 .38200004 C .132 .38100005 .125 .38000003 .125 .37000004 C .125 .35900004 .132 .35900004 .14900002 .35900004 L .19300002 .35900004 C .275 .35900004 .312 .29100005 .312 .193 C .312 .057000005 .24300003 .028 .199 .028 C .15600002 .028 .081 .045 .046000005 .104 C .081 .09900001 .11200001 .12100001 .11200001 .15900001 C .11200001 .19500001 .085 .215 .056 .215 C .031999999 .215 0 .201 0 .157 C 0 .06600001 .093 0 .20200002 0 C .32400004 0 .41500003 .091000009 .41500003 .193 C .41500003 .27500005 .35200004 .35300005 .24800003 .37400005 Z "/>
</symbol>
<use xlink:href="#font_1_4" transform="matrix(9.9626,0,0,-9.9626,160.01244,131.87418)"/>
<symbol id="font_1_5">
<path d="M .266 .165 L .266 .078 C .266 .042000005 .26400004 .031000002 .19000001 .031000002 L .16900002 .031000002 L .16900002 0 C .21000001 .003 .26200003 .003 .30400003 .003 C .34600003 .003 .39900003 .003 .44000004 0 L .44000004 .031000002 L .41900004 .031000002 C .34500004 .031000002 .34300003 .042000005 .34300003 .078 L .34300003 .165 L .44300003 .165 L .44300003 .19600001 L .34300003 .19600001 L .34300003 .651 C .34300003 .671 .34300003 .67700007 .32700003 .67700007 C .31800003 .67700007 .31500004 .67700007 .307 .665 L 0 .19600001 L 0 .165 L .266 .165 M .272 .19600001 L .028 .19600001 L .272 .569 L .272 .19600001 Z "/>
</symbol>
<use xlink:href="#font_1_5" transform="matrix(9.9626,0,0,-9.9626,189.30695,131.655)"/>
<use xlink:href="#font_0_1" transform="matrix(9.9626,0,0,-9.9626,51.2529,148.35759)"/>
<symbol id="font_1_1">
<path d="M .421 .34200005 C .421 .42200003 .416 .50200006 .381 .57600006 C .335 .67200008 .25300003 .688 .211 .688 C .15100001 .688 .07800001 .66200008 .037000006 .56900009 C .0050000029 .5 0 .42200003 0 .34200005 C 0 .26700003 .0040000008 .177 .045000007 .101 C .088 .020000002 .161 0 .21000001 0 C .264 0 .34 .021000002 .384 .116000007 C .416 .185 .421 .263 .421 .34200005 M .21000001 .022000002 C .171 .022000002 .112 .047000003 .094 .143 C .083000008 .20300001 .083000008 .29500003 .083000008 .35400004 C .083000008 .41800005 .083000008 .48400004 .091000009 .53800007 C .11 .65700009 .185 .66600009 .21000001 .66600009 C .243 .66600009 .30900003 .64800009 .328 .549 C .338 .49300004 .338 .41700004 .338 .35400004 C .338 .279 .338 .21100001 .32700003 .147 C .312 .052 .255 .022000002 .21000001 .022000002 Z "/>
</symbol>
<use xlink:href="#font_1_2" transform="matrix(9.9626,0,0,-9.9626,59.061677,150.64899)"/>
<use xlink:href="#font_1_1" transform="matrix(9.9626,0,0,-9.9626,63.544847,150.86817)"/>
<use xlink:href="#font_1_2" transform="matrix(9.9626,0,0,-9.9626,59.061677,94.534999)"/>
<use xlink:href="#font_1_1" transform="matrix(9.9626,0,0,-9.9626,63.544847,94.75417)"/>
<use xlink:href="#font_1_3" transform="matrix(9.9626,0,0,-9.9626,58.673135,66.27)"/>
<use xlink:href="#font_1_1" transform="matrix(9.9626,0,0,-9.9626,63.544847,66.489177)"/>
<use xlink:href="#font_1_4" transform="matrix(9.9626,0,0,-9.9626,58.593435,38.224168)"/>
<use xlink:href="#font_1_1" transform="matrix(9.9626,0,0,-9.9626,63.544847,38.224168)"/>
<use xlink:href="#font_1_5" transform="matrix(9.9626,0,0,-9.9626,58.453958,9.740997)"/>
<use xlink:href="#font_1_1" transform="matrix(9.9626,0,0,-9.9626,63.544847,9.960175)"/>
<clipPath id="cp2">
<path transform="matrix(1,0,0,-1,.199,167.816)" d="M 0 0 L 194.26486 0 L 194.26486 161.40042 L 0 161.40042 Z "/>
</clipPath>
<g clip-path="url(#cp2)">
<path transform="matrix(1,0,0,-1,.199,167.816)" stroke-width="1" stroke-linecap="butt" stroke-miterlimit="10" stroke-linejoin="miter" fill="none" stroke="#000000" d="M 0 0 L 8.09436 32.58719 L 16.18874 50.58379 L 24.2831 57.64017 L 32.37747 57.01877 L 40.47183 51.59404 L 48.56621 43.85248 L 56.66058 35.89261 L 64.75494 29.42502 L 72.84932 25.77232 L 80.94368 25.86913 L 89.03806 30.26213 L 97.13243 39.11003 L 105.22679 52.18361 L 113.32117 68.86562 L 121.41553 88.15088 L 129.5099 108.64629 L 137.60428 128.57068 L 145.69864 145.75499 L 153.79302 157.64225 L 161.88738 161.28736 L 169.98175 153.35742 L 178.07613 130.13146 L 186.17049 87.5007 L 194.26486 20.96812 "/>
<path transform="matrix(1,0,0,-1,.199,167.816)" d="M 16.12607 48.2272 C 16.12607 49.00539 15.49522 49.63625 14.71703 49.63625 C 13.93884 49.63625 13.30798 49.00539 13.30798 48.2272 C 13.30798 47.44902 13.93884 46.81816 14.71703 46.81816 C 15.49522 46.81816 16.12607 47.44902 16.12607 48.2272 Z M 14.71703 48.2272 "/>
<symbol id="font_3_1">
<path d="M .33300004 .38900004 C .31500004 .42600004 .286 .45300005 .24100001 .45300005 C .124 .45300005 0 .30600003 0 .16000001 C 0 .06600001 .055000005 0 .133 0 C .153 0 .20300001 .0040000008 .263 .075 C .27100004 .033000005 .30600003 0 .35400004 0 C .38900004 0 .41200004 .023000002 .42800004 .055000005 C .44500003 .091000009 .45800004 .15200001 .45800004 .15400002 C .45800004 .16400002 .44900004 .16400002 .44600005 .16400002 C .43600003 .16400002 .43500004 .16000001 .43200005 .14600002 C .41500003 .081 .397 .022000002 .35600005 .022000002 C .32900004 .022000002 .32600004 .048 .32600004 .068 C .32600004 .09 .32800005 .098000008 .33900003 .14200002 C .35000003 .18400002 .35200004 .19400002 .36100004 .23200003 L .397 .37200005 C .40400005 .40000005 .40400005 .40200005 .40400005 .40600003 C .40400005 .42300005 .39200003 .43300004 .37500004 .43300004 C .35100005 .43300004 .33600004 .411 .33300004 .38900004 M .26800005 .13000001 C .263 .112 .263 .11000001 .24800001 .093 C .20400001 .038000004 .163 .022000002 .135 .022000002 C .08499999 .022000002 .07100001 .077 .07100001 .116000007 C .07100001 .16600001 .103 .28900004 .126 .335 C .157 .39400003 .202 .43100003 .242 .43100003 C .307 .43100003 .32100005 .34900005 .32100005 .34300003 C .32100005 .337 .31900005 .33100004 .31800003 .32600004 L .26800005 .13000001 Z "/>
</symbol>
<use xlink:href="#font_3_1" transform="matrix(9.9626,0,0,-9.9626,12.681504,101.702579)"/>
<path transform="matrix(1,0,0,-1,.199,167.816)" stroke-width="1" stroke-linecap="butt" stroke-miterlimit="10" stroke-linejoin="miter" fill="none" stroke="#808080" d="M 14.71703 49.8355 L 14.71703 62.70404 "/>
<path transform="matrix(1,0,0,-1,.199,167.816)" d="M 30.19176 58.14824 C 30.19176 59.70464 28.93007 60.96632 27.37367 60.96632 C 25.81729 60.96632 24.5556 59.70464 24.5556 58.14824 C 24.5556 56.59184 25.81729 55.33015 27.37367 55.33015 C 28.93007 55.33015 30.19176 56.59184 30.19176 58.14824 Z M 27.37367 58.14824 "/>
<symbol id="font_3_2">
<path d="M .192 .694 C .192 .695 .192 .705 .179 .705 C .156 .705 .083000008 .697 .057 .695 C .049 .694 .038 .693 .038 .675 C .038 .663 .047000003 .663 .062000004 .663 C .11 .663 .112 .656 .112 .646 C .112 .639 .103 .605 .098000008 .584 L .015999999 .25800003 C .0040000008 .20800002 0 .19200002 0 .15700002 C 0 .062000004 .053 0 .127 0 C .24500002 0 .36800004 .14900002 .36800004 .293 C .36800004 .38400004 .31500004 .45300005 .235 .45300005 C .18900001 .45300005 .148 .42400003 .118 .39300005 L .192 .694 M .098000008 .316 C .104 .33800004 .104 .34000004 .113000009 .351 C .162 .41600005 .207 .43100003 .233 .43100003 C .26900003 .43100003 .29600004 .40100003 .29600004 .337 C .29600004 .27800004 .263 .16300002 .24500002 .12500002 C .212 .058000003 .16600001 .022000002 .127 .022000002 C .092999998 .022000002 .060000007 .049000004 .060000007 .123 C .060000007 .14200002 .060000007 .16100002 .076000008 .22400002 L .098000008 .316 Z "/>
</symbol>
<use xlink:href="#font_3_2" transform="matrix(9.9626,0,0,-9.9626,25.903243,90.372577)"/>
<path transform="matrix(1,0,0,-1,.199,167.816)" stroke-width="1" stroke-linecap="butt" stroke-miterlimit="10" stroke-linejoin="miter" fill="none" stroke="#808080" d="M 27.37367 61.16557 L 27.37367 74.03412 "/>
<path transform="matrix(1,0,0,-1,.199,167.816)" d="M 46.96918 48.2272 C 46.96918 49.7836 45.70749 51.04529 44.1511 51.04529 C 42.59471 51.04529 41.33302 49.7836 41.33302 48.2272 C 41.33302 46.6708 42.59471 45.40912 44.1511 45.40912 C 45.70749 45.40912 46.96918 46.6708 46.96918 48.2272 Z M 44.1511 48.2272 "/>
<symbol id="font_3_3">
<path d="M .35500003 .39100004 C .33900003 .39100004 .32500003 .39100004 .31100003 .37700004 C .29500003 .36200003 .293 .34500004 .293 .33800004 C .293 .314 .31100003 .30300004 .33 .30300004 C .359 .30300004 .386 .32700003 .386 .367 C .386 .41600005 .33900003 .45300005 .268 .45300005 C .13300002 .45300005 0 .31000004 0 .16900002 C 0 .079 .058000007 0 .162 0 C .305 0 .389 .106000009 .389 .11800001 C .389 .124000009 .38300003 .13100001 .377 .13100001 C .372 .13100001 .37 .12900001 .36400003 .12100001 C .285 .022000002 .176 .022000002 .164 .022000002 C .101 .022000002 .074 .071 .074 .13100001 C .074 .17200002 .094000007 .26900003 .12800002 .33100004 C .15900001 .388 .21400002 .43100003 .269 .43100003 C .303 .43100003 .34100003 .418 .35500003 .39100004 Z "/>
</symbol>
<use xlink:href="#font_3_3" transform="matrix(9.9626,0,0,-9.9626,42.602468,100.29357)"/>
<path transform="matrix(1,0,0,-1,.199,167.816)" stroke-width="1" stroke-linecap="butt" stroke-miterlimit="10" stroke-linejoin="miter" fill="none" stroke="#808080" d="M 44.1511 51.24454 L 44.1511 64.11307 "/>
<path transform="matrix(1,0,0,-1,.199,167.816)" d="M 78.14365 25.30426 C 78.14365 26.08246 77.5128 26.7133 76.7346 26.7133 C 75.95642 26.7133 75.32556 26.08246 75.32556 25.30426 C 75.32556 24.52608 75.95642 23.89522 76.7346 23.89522 C 77.5128 23.89522 78.14365 24.52608 78.14365 25.30426 Z M 76.7346 25.30426 "/>
<symbol id="font_3_4">
<path d="M .47600005 .694 C .47600005 .695 .47600005 .705 .46300004 .705 C .44800005 .705 .35300002 .69600006 .33600004 .694 C .32800005 .693 .32200004 .688 .32200004 .675 C .32200004 .663 .33100004 .663 .34600003 .663 C .39400003 .663 .39600004 .656 .39600004 .646 L .39300005 .626 L .33300004 .38900004 C .31500004 .42600004 .286 .45300005 .24100001 .45300005 C .124 .45300005 0 .30600003 0 .16000001 C 0 .06600001 .055000005 0 .133 0 C .153 0 .20300001 .0040000008 .263 .075 C .27100004 .033000005 .30600003 0 .35400004 0 C .38900004 0 .41200004 .023000002 .42800004 .055000005 C .44500003 .091000009 .45800004 .15200001 .45800004 .15400002 C .45800004 .16400002 .44900004 .16400002 .44600005 .16400002 C .43600003 .16400002 .43500004 .16000001 .43200005 .14600002 C .41500003 .081 .397 .022000002 .35600005 .022000002 C .32900004 .022000002 .32600004 .048 .32600004 .068 C .32600004 .092 .32800005 .09900001 .33200003 .116000007 L .47600005 .694 M .26800005 .13000001 C .263 .112 .263 .11000001 .24800001 .093 C .20400001 .038000004 .163 .022000002 .135 .022000002 C .08499999 .022000002 .07100001 .077 .07100001 .116000007 C .07100001 .16600001 .103 .28900004 .126 .335 C .157 .39400003 .202 .43100003 .242 .43100003 C .307 .43100003 .32100005 .34900005 .32100005 .34300003 C .32100005 .337 .31900005 .33100004 .31800003 .32600004 L .26800005 .13000001 Z "/>
</symbol>
<use xlink:href="#font_3_4" transform="matrix(9.9626,0,0,-9.9626,91.940509,162.36559)"/>
<path transform="matrix(1,0,0,-1,.199,167.816)" stroke-width="1" stroke-linecap="butt" stroke-miterlimit="10" stroke-linejoin="miter" fill="none" stroke="#808080" d="M 77.90247 24.19862 L 87.82433 14.80524 "/>
<path transform="matrix(1,0,0,-1,.199,167.816)" d="M 105.83733 48.2272 C 105.83733 49.7836 104.57564 51.04529 103.01924 51.04529 C 101.46284 51.04529 100.20116 49.7836 100.20116 48.2272 C 100.20116 46.6708 101.46284 45.40912 103.01924 45.40912 C 104.57564 45.40912 105.83733 46.6708 105.83733 48.2272 Z M 103.01924 48.2272 "/>
<symbol id="font_3_5">
<path d="M .141 .24200002 C .17 .24200002 .24400002 .24400002 .294 .26500003 C .36400003 .29500003 .36900003 .35400004 .36900003 .36800004 C .36900003 .41200004 .331 .45300005 .26200003 .45300005 C .15100001 .45300005 0 .35600005 0 .18100001 C 0 .079 .059 0 .157 0 C .3 0 .384 .106000009 .384 .11800001 C .384 .124000009 .37800003 .13100001 .372 .13100001 C .367 .13100001 .365 .12900001 .35900004 .12100001 C .28 .022000002 .171 .022000002 .15900001 .022000002 C .081 .022000002 .072000008 .106000009 .072000008 .13800001 C .072000008 .15000002 .073 .18100001 .088 .24200002 L .141 .24200002 M .094 .26400004 C .133 .41600005 .236 .43100003 .26200003 .43100003 C .30900003 .43100003 .33600004 .40200005 .33600004 .36800004 C .33600004 .26400004 .17600002 .26400004 .135 .26400004 L .094 .26400004 Z "/>
</symbol>
<use xlink:href="#font_3_5" transform="matrix(9.9626,0,0,-9.9626,84.28428,104.94657)"/>
<path transform="matrix(1,0,0,-1,.199,167.816)" stroke-width="1" stroke-linecap="butt" stroke-miterlimit="10" stroke-linejoin="miter" fill="none" stroke="#808080" d="M 100.87471 50.34949 L 91.66858 59.4602 "/>
<path transform="matrix(1,0,0,-1,.199,167.816)" d="M 163.5281 161.40042 C 163.5281 162.9568 162.26642 164.21849 160.71002 164.21849 C 159.15363 164.21849 157.89194 162.9568 157.89194 161.40042 C 157.89194 159.84403 159.15363 158.58234 160.71002 158.58234 C 162.26642 158.58234 163.5281 159.84403 163.5281 161.40042 Z M 160.71002 161.40042 "/>
<symbol id="font_3_6">
<path d="M .314 .605 L .4 .605 C .42000003 .605 .43 .605 .43 .625 C .43 .63600006 .42000003 .63600006 .40300004 .63600006 L .32000003 .63600006 L .34100003 .75 C .34500004 .771 .35900004 .842 .365 .8540001 C .374 .873 .39100004 .888 .41200004 .888 C .416 .888 .44200004 .888 .461 .87 C .41700004 .86600008 .407 .8310001 .407 .816 C .407 .793 .425 .781 .444 .781 C .47 .781 .49900005 .8030001 .49900005 .8410001 C .49900005 .8870001 .45300005 .9100001 .41200004 .9100001 C .37800003 .9100001 .31500004 .8920001 .28500004 .793 C .279 .7720001 .27600003 .7620001 .252 .63600006 L .18300002 .63600006 C .164 .63600006 .15300001 .63600006 .15300001 .61700007 C .15300001 .605 .162 .605 .18100001 .605 L .24700001 .605 L .172 .21000001 C .15400002 .113000009 .13700001 .022 .08500001 .022 C .081 .022 .056 .022 .037 .040000008 C .083000008 .043000014 .09200001 .07900001 .09200001 .094000007 C .09200001 .117000009 .074 .12900001 .055 .12900001 C .029 .12900001 0 .10700001 0 .069000009 C 0 .024000004 .044 0 .08500001 0 C .14 0 .18 .059 .19800002 .09700001 C .23000002 .16000001 .25300003 .28100003 .254 .28800003 L .314 .605 Z "/>
</symbol>
<use xlink:href="#font_3_6" transform="matrix(9.9626,0,0,-9.9626,158.46002,34.78333)"/>
<path transform="matrix(1,0,0,-1,.199,167.816)" stroke-width="1" stroke-linecap="butt" stroke-miterlimit="10" stroke-linejoin="miter" fill="none" stroke="#808080" d="M 160.71002 158.38309 L 160.71002 145.51454 "/>
<path transform="matrix(1,0,0,-1,.199,167.816)" d="M 194.13953 48.2272 C 194.13953 49.7836 192.87784 51.04529 191.32146 51.04529 C 189.76506 51.04529 188.50337 49.7836 188.50337 48.2272 C 188.50337 46.6708 189.76506 45.40912 191.32146 45.40912 C 192.87784 45.40912 194.13953 46.6708 194.13953 48.2272 Z M 191.32146 48.2272 "/>
<symbol id="font_3_7">
<path d="M .45600004 .582 C .45700003 .58800008 .45900006 .59300008 .45900006 .6 C .45900006 .61700007 .44700004 .62700006 .43 .62700006 C .42000003 .62700006 .393 .62 .389 .584 C .371 .62100008 .33600004 .6470001 .296 .6470001 C .18200001 .6470001 .058000007 .507 .058000007 .36300005 C .058000007 .26400004 .119 .20500002 .19100002 .20500002 C .25 .20500002 .297 .252 .30700005 .263 L .30800004 .26200003 C .287 .17300001 .27500005 .132 .27500005 .13000001 C .27100004 .12100001 .237 .022 .13100001 .022 C .112 .022 .079 .023000002 .051 .032000007 C .081 .04100001 .09200001 .067 .09200001 .08400001 C .09200001 .10000001 .081 .11900001 .054000006 .11900001 C .032 .11900001 0 .10100001 0 .061000006 C 0 .02000001 .037 0 .133 0 C .25800003 0 .33000005 .07800001 .34500004 .13800001 L .45600004 .582 M .32600004 .333 C .32 .307 .297 .282 .27500005 .263 C .254 .24500002 .223 .22700002 .194 .22700002 C .14400001 .22700002 .12900001 .279 .12900001 .319 C .12900001 .367 .158 .485 .185 .536 C .21200001 .58500006 .255 .625 .297 .625 C .36300005 .625 .37700004 .544 .37700004 .53900006 C .37700004 .53400006 .375 .528 .374 .52400007 L .32600004 .333 Z "/>
</symbol>
<use xlink:href="#font_3_7" transform="matrix(9.9626,0,0,-9.9626,170.02545,107.06333)"/>
<path transform="matrix(1,0,0,-1,.199,167.816)" stroke-width="1" stroke-linecap="butt" stroke-miterlimit="10" stroke-linejoin="miter" fill="none" stroke="#808080" d="M 188.994 50.14716 L 178.30832 58.96198 "/>
</g>
<path transform="matrix(1,0,0,-1,.199,167.816)" d="M 46.14365 48.2272 C 46.14365 49.32768 45.25157 50.21976 44.1511 50.21976 C 43.05063 50.21976 42.15854 49.32768 42.15854 48.2272 C 42.15854 47.12674 43.05063 46.23465 44.1511 46.23465 C 45.25157 46.23465 46.14365 47.12674 46.14365 48.2272 Z M 44.1511 48.2272 "/>
<path transform="matrix(1,0,0,-1,.199,167.816)" stroke-width="1" stroke-linecap="butt" stroke-miterlimit="10" stroke-linejoin="miter" fill="none" stroke="#000000" d="M 46.14365 48.2272 C 46.14365 49.32768 45.25157 50.21976 44.1511 50.21976 C 43.05063 50.21976 42.15854 49.32768 42.15854 48.2272 C 42.15854 47.12674 43.05063 46.23465 44.1511 46.23465 C 45.25157 46.23465 46.14365 47.12674 46.14365 48.2272 Z M 44.1511 48.2272 "/>
<path transform="matrix(1,0,0,-1,.199,167.816)" d="M 105.0118 48.2272 C 105.0118 49.32768 104.1197 50.21976 103.01924 50.21976 C 101.91876 50.21976 101.02669 49.32768 101.02669 48.2272 C 101.02669 47.12674 101.91876 46.23465 103.01924 46.23465 C 104.1197 46.23465 105.0118 47.12674 105.0118 48.2272 Z M 103.01924 48.2272 "/>
<path transform="matrix(1,0,0,-1,.199,167.816)" stroke-width="1" stroke-linecap="butt" stroke-miterlimit="10" stroke-linejoin="miter" fill="none" stroke="#000000" d="M 105.0118 48.2272 C 105.0118 49.32768 104.1197 50.21976 103.01924 50.21976 C 101.91876 50.21976 101.02669 49.32768 101.02669 48.2272 C 101.02669 47.12674 101.91876 46.23465 103.01924 46.23465 C 104.1197 46.23465 105.0118 47.12674 105.0118 48.2272 Z M 103.01924 48.2272 "/>
<path transform="matrix(1,0,0,-1,.199,167.816)" d="M 16.70958 48.2272 C 16.70958 49.32768 15.8175 50.21976 14.71703 50.21976 C 13.61656 50.21976 12.72447 49.32768 12.72447 48.2272 C 12.72447 47.12674 13.61656 46.23465 14.71703 46.23465 C 15.8175 46.23465 16.70958 47.12674 16.70958 48.2272 Z M 14.71703 48.2272 "/>
<path transform="matrix(1,0,0,-1,.199,167.816)" stroke-width="1" stroke-linecap="butt" stroke-miterlimit="10" stroke-linejoin="miter" fill="none" stroke="#000000" d="M 16.70958 48.2272 C 16.70958 49.32768 15.8175 50.21976 14.71703 50.21976 C 13.61656 50.21976 12.72447 49.32768 12.72447 48.2272 C 12.72447 47.12674 13.61656 46.23465 14.71703 46.23465 C 15.8175 46.23465 16.70958 47.12674 16.70958 48.2272 Z M 14.71703 48.2272 "/>
<path transform="matrix(1,0,0,-1,.199,167.816)" d="M 193.31401 48.2272 C 193.31401 49.32768 192.42192 50.21976 191.32146 50.21976 C 190.22098 50.21976 189.3289 49.32768 189.3289 48.2272 C 189.3289 47.12674 190.22098 46.23465 191.32146 46.23465 C 192.42192 46.23465 193.31401 47.12674 193.31401 48.2272 Z M 191.32146 48.2272 "/>
<path transform="matrix(1,0,0,-1,.199,167.816)" stroke-width="1" stroke-linecap="butt" stroke-miterlimit="10" stroke-linejoin="miter" fill="none" stroke="#000000" d="M 193.31401 48.2272 C 193.31401 49.32768 192.42192 50.21976 191.32146 50.21976 C 190.22098 50.21976 189.3289 49.32768 189.3289 48.2272 C 189.3289 47.12674 190.22098 46.23465 191.32146 46.23465 C 192.42192 46.23465 193.31401 47.12674 193.31401 48.2272 Z M 191.32146 48.2272 "/>
<path transform="matrix(1,0,0,-1,.199,167.816)" d="M 29.36623 58.14824 C 29.36623 59.24872 28.47415 60.1408 27.37367 60.1408 C 26.27321 60.1408 25.38112 59.24872 25.38112 58.14824 C 25.38112 57.04778 26.27321 56.15569 27.37367 56.15569 C 28.47415 56.15569 29.36623 57.04778 29.36623 58.14824 Z M 27.37367 58.14824 "/>
<path transform="matrix(1,0,0,-1,.199,167.816)" stroke-width="1" stroke-linecap="butt" stroke-miterlimit="10" stroke-linejoin="miter" fill="none" stroke="#000000" d="M 29.36623 58.14824 C 29.36623 59.24872 28.47415 60.1408 27.37367 60.1408 C 26.27321 60.1408 25.38112 59.24872 25.38112 58.14824 C 25.38112 57.04778 26.27321 56.15569 27.37367 56.15569 C 28.47415 56.15569 29.36623 57.04778 29.36623 58.14824 Z M 27.37367 58.14824 "/>
<path transform="matrix(1,0,0,-1,.199,167.816)" d="M 78.72716 25.30426 C 78.72716 26.40474 77.83508 27.29681 76.7346 27.29681 C 75.63414 27.29681 74.74205 26.40474 74.74205 25.30426 C 74.74205 24.2038 75.63414 23.3117 76.7346 23.3117 C 77.83508 23.3117 78.72716 24.2038 78.72716 25.30426 Z M 76.7346 25.30426 "/>
<path transform="matrix(1,0,0,-1,.199,167.816)" stroke-width="1" stroke-linecap="butt" stroke-miterlimit="10" stroke-linejoin="miter" fill="none" stroke="#000000" d="M 78.72716 25.30426 C 78.72716 26.40474 77.83508 27.29681 76.7346 27.29681 C 75.63414 27.29681 74.74205 26.40474 74.74205 25.30426 C 74.74205 24.2038 75.63414 23.3117 76.7346 23.3117 C 77.83508 23.3117 78.72716 24.2038 78.72716 25.30426 Z M 76.7346 25.30426 "/>
<path transform="matrix(1,0,0,-1,.199,167.816)" d="M 162.70258 161.40042 C 162.70258 162.50089 161.81049 163.39298 160.71002 163.39298 C 159.60955 163.39298 158.71747 162.50089 158.71747 161.40042 C 158.71747 160.29994 159.60955 159.40787 160.71002 159.40787 C 161.81049 159.40787 162.70258 160.29994 162.70258 161.40042 Z M 160.71002 161.40042 "/>
<path transform="matrix(1,0,0,-1,.199,167.816)" stroke-width="1" stroke-linecap="butt" stroke-miterlimit="10" stroke-linejoin="miter" fill="none" stroke="#000000" d="M 162.70258 161.40042 C 162.70258 162.50089 161.81049 163.39298 160.71002 163.39298 C 159.60955 163.39298 158.71747 162.50089 158.71747 161.40042 C 158.71747 160.29994 159.60955 159.40787 160.71002 159.40787 C 161.81049 159.40787 162.70258 160.29994 162.70258 161.40042 Z M 160.71002 161.40042 "/>
<symbol id="font_3_8">
<path d="M .305 .31300003 C .311 .33900003 .334 .43100003 .404 .43100003 C .409 .43100003 .433 .43100003 .454 .418 C .426 .41300003 .40600003 .388 .40600003 .36400003 C .40600003 .34800003 .417 .32900004 .444 .32900004 C .46600003 .32900004 .498 .34700004 .498 .38700003 C .498 .43900005 .439 .45300005 .405 .45300005 C .347 .45300005 .312 .40000005 .3 .37700004 C .275 .44300003 .221 .45300005 .19200002 .45300005 C .08800001 .45300005 .031000002 .32400004 .031000002 .29900003 C .031000002 .28900004 .041 .28900004 .043000007 .28900004 C .051000008 .28900004 .054000006 .291 .056 .3 C .09 .40600003 .156 .43100003 .19000001 .43100003 C .209 .43100003 .244 .42200003 .244 .36400003 C .244 .33300004 .22700002 .26600004 .19000001 .126 C .17400001 .064 .13900002 .022000002 .095000009 .022000002 C .08900001 .022000002 .06600001 .022000002 .045 .035 C .07000001 .040000004 .09200001 .061 .09200001 .089 C .09200001 .116000007 .07000001 .124000009 .055000009 .124000009 C .025 .124000009 0 .098000008 0 .06600001 C 0 .020000002 .050000006 0 .094000007 0 C .16000001 0 .19600001 .07000001 .19900002 .076000008 C .21100001 .039 .24700003 0 .307 0 C .41 0 .467 .12900001 .467 .15400002 C .467 .16400002 .458 .16400002 .455 .16400002 C .446 .16400002 .444 .16000001 .442 .15300001 C .409 .046 .341 .022000002 .30900003 .022000002 C .27 .022000002 .254 .054 .254 .08800001 C .254 .11000001 .26 .13200002 .271 .17600002 L .305 .31300003 Z "/>
</symbol>
<use xlink:href="#font_3_8" transform="matrix(9.9626,0,0,-9.9626,185.57791,116.169589)"/>
<symbol id="font_3_9">
<path d="M .45700003 .586 C .461 .6 .461 .602 .461 .609 C .461 .62700006 .447 .63600006 .432 .63600006 C .42200003 .63600006 .40600003 .63 .397 .615 C .395 .61 .387 .579 .38300003 .561 C .37600003 .535 .36900003 .508 .363 .48100005 L .318 .301 C .314 .286 .271 .21600002 .20500002 .21600002 C .15400002 .21600002 .143 .26000003 .143 .29700003 C .143 .34300003 .16000001 .40500004 .194 .49300004 C .21000001 .53400006 .21400002 .545 .21400002 .56500008 C .21400002 .61 .18200001 .6470001 .13200002 .6470001 C .037 .6470001 0 .50200006 0 .49300004 C 0 .48300005 .01 .48300005 .012 .48300005 C .022000002 .48300005 .023 .485 .028000003 .50100007 C .055000009 .595 .095000009 .625 .12900001 .625 C .13700001 .625 .15400002 .625 .15400002 .59300008 C .15400002 .568 .14400001 .54200008 .13700001 .523 C .097 .41700004 .079 .36 .079 .31300003 C .079 .224 .142 .194 .201 .194 C .24000003 .194 .274 .21100001 .30200003 .23900002 C .289 .187 .277 .13800001 .237 .08500001 C .21100001 .051 .17300001 .022 .127 .022 C .113000009 .022 .068 .025000006 .051000008 .06400001 C .067 .06400001 .080000009 .06400001 .094000007 .076000008 C .104 .08500001 .11400001 .098000008 .11400001 .117000009 C .11400001 .148 .087000008 .15200001 .07700001 .15200001 C .054000006 .15200001 .021 .136 .021 .087000008 C .021 .037 .065000008 0 .127 0 C .23 0 .333 .091000009 .361 .20400001 L .45700003 .586 Z "/>
</symbol>
<use xlink:href="#font_3_9" transform="matrix(9.9626,0,0,-9.9626,77.60291,16.236334)"/>
</svg>
