<?xml version="1.0" encoding="UTF-8" standalone="no"?>
<!DOCTYPE svg PUBLIC "-//W3C//DTD SVG 1.1//EN" "http://www.w3.org/Graphics/SVG/1.1/DTD/svg11.dtd">
<svg xmlns="http://www.w3.org/2000/svg" xmlns:xlink="http://www.w3.org/1999/xlink" version="1.1" width="97.332pt" height="82.773pt" viewBox="0 0 97.332 82.773">
<path transform="matrix(.5,0,0,-.5,.0995,79.2995)" stroke-width="1" stroke-linecap="butt" stroke-miterlimit="10" stroke-linejoin="miter" fill="none" stroke="#808080" d="M 0 47.1486 L 0 49.98349 M 48.56728 47.1486 L 48.56728 49.98349 M 97.13455 47.1486 L 97.13455 49.98349 M 145.70183 47.1486 L 145.70183 49.98349 M 194.26912 47.1486 L 194.26912 49.98349 "/>
<path transform="matrix(.5,0,0,-.5,.0995,79.2995)" stroke-width="1" stroke-linecap="butt" stroke-miterlimit="10" stroke-linejoin="miter" fill="none" stroke="#808080" d="M 24.28363 46.4401 L 24.28363 50.69199 M 72.8509 46.4401 L 72.8509 50.69199 M 169.98548 46.4401 L 169.98548 50.69199 "/>
<path transform="matrix(.5,0,0,-.5,.0995,79.2995)" stroke-width="1" stroke-linecap="butt" stroke-miterlimit="10" stroke-linejoin="miter" fill="none" stroke="#808080" d="M 120.00075 24.2824 L 122.83565 24.2824 M 120.00075 72.84969 L 122.83565 72.84969 M 120.00075 121.41696 L 122.83565 121.41696 "/>
<path transform="matrix(.5,0,0,-.5,.0995,79.2995)" stroke-width="1" stroke-linecap="butt" stroke-miterlimit="10" stroke-linejoin="miter" fill="none" stroke="#808080" d="M 119.29224 -.0012 L 123.54413 -.0012 M 119.29224 97.13332 L 123.54413 97.13332 M 119.29224 145.7006 L 123.54413 145.7006 "/>
<path transform="matrix(.5,0,0,-.5,.0995,79.2995)" stroke-width="1" stroke-linecap="butt" stroke-miterlimit="10" stroke-linejoin="miter" fill="none" stroke="#000000" d="M 0 48.56604 L 192.27639 48.56604 "/>
<path transform="matrix(.5,0,0,-.5,96.23769,55.01648)" d="M 1.99252 0 L -1.19551 1.59401 L 0 0 L -1.19551 -1.59401 "/>
<path transform="matrix(.5,0,0,-.5,.0995,79.2995)" stroke-width="1" stroke-linecap="butt" stroke-miterlimit="10" stroke-linejoin="miter" fill="none" stroke="#000000" d="M 121.4182 -2.98915 L 121.4182 156.40979 "/>
<path transform="matrix(0,-.5,-.5,-0,60.808599,1.0946045)" d="M 1.99252 0 L -1.19551 1.59401 L 0 0 L -1.19551 -1.59401 "/>
<symbol id="font_0_1">
<path d="M .57600006 0 C .59300008 0 .611 0 .611 .019999996 C .611 .040000008 .59300008 .040000008 .57600006 .040000008 L .035000005 .040000008 C .018 .040000008 0 .040000008 0 .019999996 C 0 0 .018 0 .035000005 0 L .57600006 0 Z "/>
</symbol>
<use xlink:href="#font_0_1" transform="matrix(4.9813,0,0,-4.9813,9.472448,59.904298)"/>
<symbol id="font_1_2">
<path d="M .266 .165 L .266 .078 C .266 .042000005 .26400004 .031000002 .19000001 .031000002 L .16900002 .031000002 L .16900002 0 C .21000001 .003 .26200003 .003 .30400003 .003 C .34600003 .003 .39900003 .003 .44000004 0 L .44000004 .031000002 L .41900004 .031000002 C .34500004 .031000002 .34300003 .042000005 .34300003 .078 L .34300003 .165 L .44300003 .165 L .44300003 .19600001 L .34300003 .19600001 L .34300003 .651 C .34300003 .671 .34300003 .67700007 .32700003 .67700007 C .31800003 .67700007 .31500004 .67700007 .307 .665 L 0 .19600001 L 0 .165 L .266 .165 M .272 .19600001 L .028 .19600001 L .272 .569 L .272 .19600001 Z "/>
</symbol>
<use xlink:href="#font_1_2" transform="matrix(4.9813,0,0,-4.9813,13.072477,61.049997)"/>
<use xlink:href="#font_0_1" transform="matrix(4.9813,0,0,-4.9813,33.755449,59.904298)"/>
<symbol id="font_1_1">
<path d="M .07700001 .07700001 L .18300002 .18 C .33900003 .31800003 .39900003 .372 .39900003 .47200004 C .39900003 .586 .30900003 .666 .18700002 .666 C .074 .666 0 .574 0 .485 C 0 .42900003 .05 .42900003 .053000008 .42900003 C .07000001 .42900003 .105000007 .441 .105000007 .48200003 C .105000007 .508 .08700001 .53400006 .052000006 .53400006 C .044000005 .53400006 .042000008 .53400006 .039 .53300008 C .062000004 .59800007 .11600001 .63500007 .17400001 .63500007 C .26500003 .63500007 .308 .554 .308 .47200004 C .308 .39200003 .25800003 .31300003 .20300003 .25100003 L .011000004 .037 C 0 .026 0 .024 0 0 L .37100003 0 L .39900003 .17400001 L .374 .17400001 C .36900003 .14400001 .36200003 .1 .352 .085 C .345 .07700001 .279 .07700001 .257 .07700001 L .07700001 .07700001 Z "/>
</symbol>
<use xlink:href="#font_1_1" transform="matrix(4.9813,0,0,-4.9813,37.465566,61.049997)"/>
<use xlink:href="#font_1_1" transform="matrix(4.9813,0,0,-4.9813,84.09506,61.049997)"/>
<use xlink:href="#font_0_1" transform="matrix(4.9813,0,0,-4.9813,52.033449,79.5518)"/>
<use xlink:href="#font_1_1" transform="matrix(4.9813,0,0,-4.9813,55.743566,80.6975)"/>
<use xlink:href="#font_1_1" transform="matrix(4.9813,0,0,-4.9813,55.743566,32.3385)"/>
<use xlink:href="#font_1_2" transform="matrix(4.9813,0,0,-4.9813,55.633977,8.055)"/>
<clipPath id="cp2">
<path transform="matrix(.5,0,0,-.5,.0995,79.2995)" d="M 0 -2.98915 L 194.2689 -2.98915 L 194.2689 158.40232 L 0 158.40232 Z "/>
</clipPath>
<g clip-path="url(#cp2)">
<path transform="matrix(.5,0,0,-.5,.0995,79.2995)" stroke-width="1" stroke-linecap="butt" stroke-miterlimit="10" stroke-linejoin="miter" fill="none" stroke="#000000" d="M 0 0 L 8.09453 6.47554 L 16.18907 12.95108 L 24.2836 19.42662 L 32.37814 25.90218 L 40.47267 32.37775 L 48.56721 38.85329 L 56.66174 45.32884 L 64.75629 51.80438 L 72.85081 58.27992 L 80.94536 64.75548 L 89.03992 71.23102 L 97.13445 77.70657 L 105.22899 84.18211 L 113.32352 90.65767 L 121.41806 97.13321 L 129.51259 103.60876 L 137.60713 110.08432 L 145.70168 116.55988 L 153.79622 123.03542 L 161.89076 129.51097 L 169.98529 135.98651 L 178.07984 142.46205 L 186.17436 148.9376 L 194.2689 155.41315 "/>
</g>
<symbol id="font_3_1">
<path d="M .305 .31300003 C .311 .33900003 .334 .43100003 .404 .43100003 C .409 .43100003 .433 .43100003 .454 .418 C .426 .41300003 .40600003 .388 .40600003 .36400003 C .40600003 .34800003 .417 .32900004 .444 .32900004 C .46600003 .32900004 .498 .34700004 .498 .38700003 C .498 .43900005 .439 .45300005 .405 .45300005 C .347 .45300005 .312 .40000005 .3 .37700004 C .275 .44300003 .221 .45300005 .19200002 .45300005 C .08800001 .45300005 .031000002 .32400004 .031000002 .29900003 C .031000002 .28900004 .041 .28900004 .043000007 .28900004 C .051000008 .28900004 .054000006 .291 .056 .3 C .09 .40600003 .156 .43100003 .19000001 .43100003 C .209 .43100003 .244 .42200003 .244 .36400003 C .244 .33300004 .22700002 .26600004 .19000001 .126 C .17400001 .064 .13900002 .022000002 .095000009 .022000002 C .08900001 .022000002 .06600001 .022000002 .045 .035 C .07000001 .040000004 .09200001 .061 .09200001 .089 C .09200001 .116000007 .07000001 .124000009 .055000009 .124000009 C .025 .124000009 0 .098000008 0 .06600001 C 0 .020000002 .050000006 0 .094000007 0 C .16000001 0 .19600001 .07000001 .19900002 .076000008 C .21100001 .039 .24700003 0 .307 0 C .41 0 .467 .12900001 .467 .15400002 C .467 .16400002 .458 .16400002 .455 .16400002 C .446 .16400002 .444 .16000001 .442 .15300001 C .409 .046 .341 .022000002 .30900003 .022000002 C .27 .022000002 .254 .054 .254 .08800001 C .254 .11000001 .26 .13200002 .271 .17600002 L .305 .31300003 Z "/>
</symbol>
<use xlink:href="#font_3_1" transform="matrix(4.9813,0,0,-4.9813,44.21446,65.450298)"/>
<symbol id="font_3_2">
<path d="M .45700003 .586 C .461 .6 .461 .602 .461 .609 C .461 .62700006 .447 .63600006 .432 .63600006 C .42200003 .63600006 .40600003 .63 .397 .615 C .395 .61 .387 .579 .38300003 .561 C .37600003 .535 .36900003 .508 .363 .48100005 L .318 .301 C .314 .286 .271 .21600002 .20500002 .21600002 C .15400002 .21600002 .143 .26000003 .143 .29700003 C .143 .34300003 .16000001 .40500004 .194 .49300004 C .21000001 .53400006 .21400002 .545 .21400002 .56500008 C .21400002 .61 .18200001 .6470001 .13200002 .6470001 C .037 .6470001 0 .50200006 0 .49300004 C 0 .48300005 .01 .48300005 .012 .48300005 C .022000002 .48300005 .023 .485 .028000003 .50100007 C .055000009 .595 .095000009 .625 .12900001 .625 C .13700001 .625 .15400002 .625 .15400002 .59300008 C .15400002 .568 .14400001 .54200008 .13700001 .523 C .097 .41700004 .079 .36 .079 .31300003 C .079 .224 .142 .194 .201 .194 C .24000003 .194 .274 .21100001 .30200003 .23900002 C .289 .187 .277 .13800001 .237 .08500001 C .21100001 .051 .17300001 .022 .127 .022 C .113000009 .022 .068 .025000006 .051000008 .06400001 C .067 .06400001 .080000009 .06400001 .094000007 .076000008 C .104 .08500001 .11400001 .098000008 .11400001 .117000009 C .11400001 .148 .087000008 .15200001 .07700001 .15200001 C .054000006 .15200001 .021 .136 .021 .087000008 C .021 .037 .065000008 0 .127 0 C .23 0 .333 .091000009 .361 .20400001 L .45700003 .586 Z "/>
</symbol>
<use xlink:href="#font_3_2" transform="matrix(4.9813,0,0,-4.9813,32.362958,44.619665)"/>
</svg>
