<?xml version="1.0" encoding="UTF-8" standalone="no"?>
<!DOCTYPE svg PUBLIC "-//W3C//DTD SVG 1.1//EN" "http://www.w3.org/Graphics/SVG/1.1/DTD/svg11.dtd">
<svg xmlns="http://www.w3.org/2000/svg" xmlns:xlink="http://www.w3.org/1999/xlink" version="1.1" width="230.701pt" height="170.408pt" viewBox="0 0 230.701 170.408">
<path transform="matrix(1,0,0,-1,5.117,169.69301)" stroke-width="1" stroke-linecap="butt" stroke-miterlimit="10" stroke-linejoin="miter" fill="none" stroke="#808080" d="M 26.49179 13.25473 L 26.49179 16.08963 M 61.8142 13.25473 L 61.8142 16.08963 M 97.13661 13.25473 L 97.13661 16.08963 M 132.45902 13.25473 L 132.45902 16.08963 M 167.78142 13.25473 L 167.78142 16.08963 "/>
<path transform="matrix(1,0,0,-1,5.117,169.69301)" stroke-width="1" stroke-linecap="butt" stroke-miterlimit="10" stroke-linejoin="miter" fill="none" stroke="#808080" d="M 44.153 12.54622 L 44.153 16.79813 M 79.4754 12.54622 L 79.4754 16.79813 M 114.7978 12.54622 L 114.7978 16.79813 M 150.12021 12.54622 L 150.12021 16.79813 M 185.44261 12.54622 L 185.44261 16.79813 "/>
<path transform="matrix(1,0,0,-1,5.117,169.69301)" stroke-width="1" stroke-linecap="butt" stroke-miterlimit="10" stroke-linejoin="miter" fill="none" stroke="#808080" d="M 7.41289 0 L 10.24832 0 M 7.41289 29.34438 L 10.24832 29.34438 M 7.41289 58.68875 L 10.24832 58.68875 M 7.41289 88.03313 L 10.24832 88.03313 M 7.41289 117.3775 L 10.24832 117.3775 M 7.41289 146.7219 L 10.24832 146.7219 "/>
<path transform="matrix(1,0,0,-1,5.117,169.69301)" stroke-width="1" stroke-linecap="butt" stroke-miterlimit="10" stroke-linejoin="miter" fill="none" stroke="#808080" d="M 6.70425 44.01656 L 10.95692 44.01656 M 6.70425 73.36095 L 10.95692 73.36095 M 6.70425 102.70532 L 10.95692 102.70532 M 6.70425 132.0497 L 10.95692 132.0497 M 6.70425 161.39408 L 10.95692 161.39408 "/>
<path transform="matrix(1,0,0,-1,5.117,169.69301)" stroke-width="1" stroke-linecap="butt" stroke-miterlimit="10" stroke-linejoin="miter" fill="none" stroke="#000000" d="M 0 14.67218 L 192.2807 14.67218 "/>
<path transform="matrix(1,0,0,-1,197.3977,155.02083)" d="M 1.99252 0 L -1.19551 1.59401 L 0 0 L -1.19551 -1.59401 "/>
<path transform="matrix(1,0,0,-1,5.117,169.69301)" stroke-width="1" stroke-linecap="butt" stroke-miterlimit="10" stroke-linejoin="miter" fill="none" stroke="#000000" d="M 8.8306 0 L 8.8306 159.40155 "/>
<path transform="matrix(0,-1,-1,-0,13.947599,10.291458)" d="M 1.99252 0 L -1.19551 1.59401 L 0 0 L -1.19551 -1.59401 "/>
<symbol id="font_0_8">
<path d="M .07700001 .07700001 L .18300002 .18 C .33900003 .31800003 .39900003 .372 .39900003 .47200004 C .39900003 .586 .30900003 .666 .18700002 .666 C .074 .666 0 .574 0 .485 C 0 .42900003 .05 .42900003 .053000008 .42900003 C .07000001 .42900003 .105000007 .441 .105000007 .48200003 C .105000007 .508 .08700001 .53400006 .052000006 .53400006 C .044000005 .53400006 .042000008 .53400006 .039 .53300008 C .062000004 .59800007 .11600001 .63500007 .17400001 .63500007 C .26500003 .63500007 .308 .554 .308 .47200004 C .308 .39200003 .25800003 .31300003 .20300003 .25100003 L .011000004 .037 C 0 .026 0 .024 0 0 L .37100003 0 L .39900003 .17400001 L .374 .17400001 C .36900003 .14400001 .36200003 .1 .352 .085 C .345 .07700001 .279 .07700001 .257 .07700001 L .07700001 .07700001 Z "/>
</symbol>
<use xlink:href="#font_0_8" transform="matrix(9.9626,0,0,-9.9626,47.27713,167.087)"/>
<symbol id="font_0_a">
<path d="M .266 .165 L .266 .078 C .266 .042000005 .26400004 .031000002 .19000001 .031000002 L .16900002 .031000002 L .16900002 0 C .21000001 .003 .26200003 .003 .30400003 .003 C .34600003 .003 .39900003 .003 .44000004 0 L .44000004 .031000002 L .41900004 .031000002 C .34500004 .031000002 .34300003 .042000005 .34300003 .078 L .34300003 .165 L .44300003 .165 L .44300003 .19600001 L .34300003 .19600001 L .34300003 .651 C .34300003 .671 .34300003 .67700007 .32700003 .67700007 C .31800003 .67700007 .31500004 .67700007 .307 .665 L 0 .19600001 L 0 .165 L .266 .165 M .272 .19600001 L .028 .19600001 L .272 .569 L .272 .19600001 Z "/>
</symbol>
<use xlink:href="#font_0_a" transform="matrix(9.9626,0,0,-9.9626,82.37995,167.087)"/>
<symbol id="font_0_c">
<path d="M .089999999 .35000003 L .089999999 .37400005 C .089999999 .62700006 .21400002 .66300007 .26500003 .66300007 C .28900004 .66300007 .33100004 .65700009 .35300002 .623 C .33800004 .623 .298 .623 .298 .57800009 C .298 .54700008 .32200004 .53200009 .344 .53200009 C .36 .53200009 .39000003 .54100009 .39000003 .58000007 C .39000003 .64000007 .34600003 .688 .263 .688 C .13499999 .688 0 .559 0 .33800004 C 0 .071 .116000007 0 .20900002 0 C .32000003 0 .41500003 .094000007 .41500003 .22600001 C .41500003 .35300005 .32600004 .44900004 .215 .44900004 C .14700002 .44900004 .11000001 .39800004 .089999999 .35000003 M .20900002 .028 C .146 .028 .116000007 .088 .11000001 .103 C .092 .15 .092 .23 .092 .24800001 C .092 .32600004 .124000009 .42600004 .21400002 .42600004 C .23000002 .42600004 .27600003 .42600004 .307 .36400003 C .32500003 .32700003 .32500003 .27600003 .32500003 .22700002 C .32500003 .179 .32500003 .12900001 .30800004 .093 C .27800004 .033000005 .23200003 .028 .20900002 .028 Z "/>
</symbol>
<use xlink:href="#font_0_c" transform="matrix(9.9626,0,0,-9.9626,117.84142,167.30619)"/>
<symbol id="font_0_d">
<path d="M .121 .47900004 C .075 .509 .071 .54300007 .071 .56000009 C .071 .62100008 .136 .66300007 .20700002 .66300007 C .28000004 .66300007 .344 .61100009 .344 .53900006 C .344 .48200003 .305 .43400005 .245 .39900003 L .121 .47900004 M .26700003 .38400004 C .33900003 .42100004 .388 .47300006 .388 .53900006 C .388 .63100007 .29900003 .688 .208 .688 C .108 .688 .027000003 .614 .027000003 .521 C .027000003 .503 .029 .45800004 .071 .41100005 C .082 .39900003 .11900001 .37400005 .144 .35700003 C .086 .32800005 0 .272 0 .17300001 C 0 .067 .102000009 0 .20700002 0 C .32000003 0 .41500003 .083000008 .41500003 .19000001 C .41500003 .22600001 .404 .27100004 .36600004 .31300003 C .34700004 .33400003 .33100004 .34400005 .26700003 .38400004 M .167 .34200005 L .29000003 .26400004 C .31800003 .245 .365 .215 .365 .154 C .365 .080000009 .29000003 .028 .208 .028 C .122 .028 .050000006 .09 .050000006 .17300001 C .050000006 .231 .082 .29500003 .167 .34200005 Z "/>
</symbol>
<use xlink:href="#font_0_d" transform="matrix(9.9626,0,0,-9.9626,153.16344,167.30619)"/>
<symbol id="font_0_7">
<path d="M .205 .64000007 C .205 .66400006 .205 .666 .18200003 .666 C .120000008 .60200008 .032000007 .60200008 0 .60200008 L 0 .57100006 C .020000004 .57100006 .07900001 .57100006 .13100001 .597 L .13100001 .079 C .13100001 .043 .128 .031000002 .038000004 .031000002 L .0060000049 .031000002 L .0060000049 0 C .04100001 .003 .128 .003 .168 .003 C .20800002 .003 .29500003 .003 .33000005 0 L .33000005 .031000002 L .29800005 .031000002 C .20800002 .031000002 .205 .042000005 .205 .079 L .205 .64000007 Z "/>
</symbol>
<symbol id="font_0_6">
<path d="M .421 .34200005 C .421 .42200003 .416 .50200006 .381 .57600006 C .335 .67200008 .25300003 .688 .211 .688 C .15100001 .688 .07800001 .66200008 .037000006 .56900009 C .0050000029 .5 0 .42200003 0 .34200005 C 0 .26700003 .0040000008 .177 .045000007 .101 C .088 .020000002 .161 0 .21000001 0 C .264 0 .34 .021000002 .384 .116000007 C .416 .185 .421 .263 .421 .34200005 M .21000001 .022000002 C .171 .022000002 .112 .047000003 .094 .143 C .083000008 .20300001 .083000008 .29500003 .083000008 .35400004 C .083000008 .41800005 .083000008 .48400004 .091000009 .53800007 C .11 .65700009 .185 .66600009 .21000001 .66600009 C .243 .66600009 .30900003 .64800009 .328 .549 C .338 .49300004 .338 .41700004 .338 .35400004 C .338 .279 .338 .21100001 .32700003 .147 C .312 .052 .255 .022000002 .21000001 .022000002 Z "/>
</symbol>
<use xlink:href="#font_0_7" transform="matrix(9.9626,0,0,-9.9626,186.46268,167.087)"/>
<use xlink:href="#font_0_6" transform="matrix(9.9626,0,0,-9.9626,190.94583,167.30619)"/>
<use xlink:href="#font_0_7" transform="matrix(9.9626,0,0,-9.9626,4.2066719,128.88701)"/>
<use xlink:href="#font_0_8" transform="matrix(9.9626,0,0,-9.9626,3.8181303,99.54301)"/>
<symbol id="font_0_9">
<path d="M .24800003 .37400005 C .33 .40100003 .388 .47100006 .388 .55 C .388 .632 .3 .688 .204 .688 C .10300001 .688 .027000003 .628 .027000003 .55200007 C .027000003 .519 .049000004 .5 .078 .5 C .109000008 .5 .12900001 .522 .12900001 .55100008 C .12900001 .6010001 .082 .6010001 .067 .6010001 C .098 .65000006 .164 .66300007 .20000002 .66300007 C .24100003 .66300007 .29600004 .64100006 .29600004 .55100008 C .29600004 .53900006 .29400004 .48100005 .268 .43700005 C .238 .38900004 .204 .38600005 .17900002 .38500003 C .171 .38400004 .14700002 .38200004 .14000002 .38200004 C .132 .38100005 .125 .38000003 .125 .37000004 C .125 .35900004 .132 .35900004 .14900002 .35900004 L .19300002 .35900004 C .275 .35900004 .312 .29100005 .312 .193 C .312 .057000005 .24300003 .028 .199 .028 C .15600002 .028 .081 .045 .046000005 .104 C .081 .09900001 .11200001 .12100001 .11200001 .15900001 C .11200001 .19500001 .085 .215 .056 .215 C .031999999 .215 0 .201 0 .157 C 0 .06600001 .093 0 .20200002 0 C .32400004 0 .41500003 .091000009 .41500003 .193 C .41500003 .27500005 .35200004 .35300005 .24800003 .37400005 Z "/>
</symbol>
<use xlink:href="#font_0_9" transform="matrix(9.9626,0,0,-9.9626,3.7384294,70.41818)"/>
<use xlink:href="#font_0_a" transform="matrix(9.9626,0,0,-9.9626,3.598953,40.85501)"/>
<symbol id="font_0_b">
<path d="M .39900003 .223 C .39900003 .34200005 .317 .44200004 .209 .44200004 C .16100002 .44200004 .118000019 .42600004 .082 .39100004 L .082 .586 C .10200001 .58000007 .135 .573 .16700001 .573 C .29 .573 .36 .66400006 .36 .67700007 C .36 .683 .357 .688 .35 .688 C .349 .688 .347 .688 .342 .68500009 C .322 .67600008 .273 .656 .20600002 .656 C .16600001 .656 .120000008 .66300007 .073 .6840001 C .065 .68700006 .06300001 .68700006 .061000009 .68700006 C .051000004 .68700006 .051000004 .679 .051000004 .66300007 L .051000004 .36700005 C .051000004 .34900005 .051000004 .34100003 .065 .34100003 C .07200001 .34100003 .074 .34400005 .07800001 .35000003 C .08900002 .36600004 .12600002 .42000006 .207 .42000006 C .259 .42000006 .284 .37400005 .292 .35600005 C .308 .31900005 .31 .28000004 .31 .23 C .31 .19500001 .31 .135 .286 .093 C .262 .054000006 .22500001 .028 .17900002 .028 C .106000009 .028 .049000008 .08100001 .032 .14000002 C .035 .13900002 .038000008 .13800001 .049000008 .13800001 C .082 .13800001 .09900001 .163 .09900001 .187 C .09900001 .21100001 .082 .23600002 .049000008 .23600002 C .035 .23600002 0 .22900002 0 .18300002 C 0 .097 .069000009 0 .18100001 0 C .297 0 .39900003 .096 .39900003 .223 Z "/>
</symbol>
<use xlink:href="#font_0_b" transform="matrix(9.9626,0,0,-9.9626,3.8181303,11.730179)"/>
<clipPath id="cp1">
<path transform="matrix(1,0,0,-1,5.117,169.69301)" d="M 0 0 L 194.27323 0 L 194.27323 161.39408 L 0 161.39408 Z "/>
</clipPath>
<g clip-path="url(#cp1)">
<path transform="matrix(1,0,0,-1,5.117,169.69301)" stroke-width="1" stroke-linecap="butt" stroke-miterlimit="10" stroke-linejoin="miter" fill="none" stroke="#ff0000" d="M 8.8306 14.67218 L 8.94873 14.67284 L 9.06685 14.67479 L 9.185 14.67809 L 9.30313 14.68268 L 9.42128 14.68858 L 9.5394 14.6958 L 9.65753 14.70433 L 9.77568 14.71419 L 9.8938 14.72534 L 10.01193 14.73782 L 10.1301 14.75162 L 10.24821 14.76671 L 10.36635 14.78313 L 10.4845 14.80084 L 10.60263 14.81989 L 10.72075 14.84023 L 10.8389 14.8619 L 10.95705 14.88487 L 11.07515 14.90916 L 11.1933 14.93477 L 11.31145 14.96167 L 11.42955 14.9899 L 11.5477 15.01944 L 11.66585 15.05031 L 11.78398 15.08247 L 11.90211 15.11594 L 12.02026 15.15074 L 12.1384 15.18684 L 12.25652 15.22427 L 12.37466 15.26299 L 12.4928 15.30305 L 12.61092 15.34439 L 12.72906 15.38707 L 12.8472 15.43105 L 12.96535 15.47635 L 13.08347 15.52296 L 13.2016 15.57089 L 13.31975 15.62012 L 13.43787 15.67067 L 13.556 15.72253 L 13.67416 15.77571 L 13.79228 15.83018 L 13.91043 15.886 L 14.02856 15.9431 L 14.14671 16.00154 L 14.26483 16.06128 L 14.38297 16.12233 L 14.50111 16.1847 L 14.61923 16.24837 L 14.73737 16.31335 L 14.85551 16.37967 L 14.97363 16.44727 L 15.09177 16.5162 L 15.20992 16.58644 L 15.32805 16.658 L 15.44618 16.73088 L 15.56433 16.80505 L 15.68248 16.88055 L 15.80058 16.95735 L 15.91873 17.03548 L 16.03688 17.11491 L 16.15498 17.19565 L 16.27313 17.27771 L 16.39128 17.3611 L 16.50941 17.44577 L 16.62753 17.53177 L 16.74568 17.61908 L 16.86382 17.7077 L 16.98193 17.79764 L 17.10008 17.88889 L 17.21823 17.98146 L 17.33635 18.07533 L 17.4545 18.17052 L 17.57263 18.26703 L 17.69078 18.36484 L 17.8089 18.46396 L 17.92703 18.5644 L 18.04518 18.66615 L 18.1633 18.76923 L 18.28143 18.8736 L 18.39958 18.9793 L 18.5177 19.0863 L 18.63583 19.19463 L 18.75398 19.30426 L 18.87213 19.41518 L 18.99026 19.52745 L 19.1084 19.64102 L 19.22655 19.7559 L 19.34467 19.8721 L 19.4628 19.98961 L 19.58095 20.10843 L 19.69907 20.22856 L 19.8172 20.35002 L 19.93535 20.47276 L 20.05348 20.59683 L 20.1716 20.72221 L 20.28975 20.84892 L 20.40788 20.97694 L 20.526 21.10626 L 20.64415 21.2369 L 20.76231 21.36885 L 20.88042 21.5021 L 20.99857 21.63669 L 21.11671 21.77258 L 21.23485 21.90979 L 21.35297 22.04831 L 21.47112 22.18813 L 21.58925 22.32927 L 21.70737 22.47173 L 21.82552 22.6155 L 21.94365 22.76057 L 22.06177 22.90697 L 22.17992 23.05467 L 22.29805 23.2037 L 22.41621 23.35403 L 22.53433 23.50568 L 22.65247 23.65863 L 22.77061 23.8129 L 22.88873 23.96848 L 23.00687 24.12538 L 23.12502 24.28358 L 23.24313 24.44312 L 23.36127 24.60396 L 23.47942 24.7661 L 23.59756 24.92957 L 23.71567 25.09435 L 23.83382 25.26042 L 23.95197 25.42783 L 24.07008 25.59654 L 24.18823 25.76656 L 24.30638 25.9379 L 24.4245 26.11057 L 24.54263 26.28452 L 24.66078 26.4598 L 24.77892 26.63638 L 24.89703 26.81429 L 25.01518 26.9935 L 25.13332 27.17404 L 25.25143 27.3559 L 25.36958 27.53905 L 25.48772 27.72351 L 25.60583 27.90929 L 25.72398 28.09637 L 25.84213 28.28479 L 25.96028 28.47452 L 26.0784 28.66554 L 26.19655 28.8579 L 26.31468 29.05154 L 26.4328 29.24652 L 26.55095 29.44281 L 26.66908 29.64043 L 26.7872 29.8393 L 26.90535 30.03952 L 27.02348 30.24109 L 27.14163 30.44394 L 27.25975 30.64807 L 27.37788 30.85358 L 27.49603 31.06038 L 27.61415 31.26845 L 27.7323 31.47787 L 27.85045 31.68861 L 27.96857 31.90063 L 28.0867 32.11397 L 28.20485 32.32869 L 28.32297 32.54462 L 28.4411 32.76193 L 28.55925 32.98055 L 28.6774 33.20047 L 28.7955 33.42168 L 28.91365 33.64426 L 29.0318 33.8681 L 29.14992 34.09325 L 29.26805 34.31973 L 29.3862 34.54755 L 29.50435 34.77667 L 29.62247 35.00706 L 29.74062 35.2388 L 29.85875 35.47186 L 29.97687 35.7062 L 30.09502 35.94188 L 30.21315 36.17891 L 30.33127 36.41716 L 30.44942 36.6568 L 30.56755 36.89774 L 30.68567 37.13992 L 30.80382 37.38348 L 30.92197 37.62837 L 31.0401 37.87457 L 31.15822 38.12202 L 31.27638 38.37083 L 31.39452 38.62099 L 31.51263 38.87234 L 31.63078 39.1251 L 31.74892 39.3792 L 31.86707 39.63458 L 31.98518 39.89124 L 32.10332 40.14922 L 32.22147 40.40855 L 32.33958 40.66913 L 32.45772 40.93109 L 32.57587 41.19435 L 32.69398 41.45886 L 32.81212 41.72476 L 32.93027 41.99196 L 33.0484 42.2604 L 33.16653 42.53023 L 33.28468 42.80138 L 33.40283 43.07384 L 33.52094 43.34753 L 33.63908 43.62262 L 33.75723 43.89902 L 33.87535 44.17665 L 33.99348 44.45567 L 34.11163 44.73601 L 34.22975 45.01758 L 34.34789 45.30055 L 34.46603 45.58482 L 34.58417 45.8704 L 34.70229 46.15724 L 34.82045 46.44543 L 34.93858 46.735 L 35.0567 47.02574 L 35.17485 47.31792 L 35.29298 47.61137 L 35.41113 47.90613 L 35.52925 48.20216 L 35.6474 48.49956 L 35.76553 48.7983 L 35.88365 49.09825 L 36.0018 49.39958 L 36.11993 49.70222 L 36.23805 50.00613 L 36.3562 50.31143 L 36.47433 50.61801 L 36.59247 50.92584 L 36.71062 51.23506 L 36.82875 51.54561 L 36.9469 51.85745 L 37.06502 52.17052 L 37.18315 52.485 L 37.3013 52.8008 L 37.41942 53.1178 L 37.53755 53.43622 L 37.6557 53.75595 L 37.77385 54.077 L 37.89195 54.39926 L 38.0101 54.72293 L 38.12825 55.0479 L 38.24637 55.37411 L 38.36452 55.7017 L 38.48267 56.03064 L 38.60077 56.3608 L 38.71892 56.69234 L 38.83707 57.02518 L 38.95518 57.35928 L 39.07332 57.69475 L 39.19147 58.03154 L 39.3096 58.36964 L 39.42772 58.709 L 39.54587 59.04973 L 39.664 59.39177 L 39.78212 59.73508 L 39.90027 60.07973 L 40.01842 60.42572 L 40.13657 60.77301 L 40.25468 61.12155 L 40.37282 61.47147 L 40.49097 61.8227 L 40.60909 62.17517 L 40.72723 62.52904 L 40.84537 62.8842 L 40.96349 63.24062 L 41.08163 63.59842 L 41.19977 63.95753 L 41.31789 64.31789 L 41.43604 64.67964 L 41.55417 65.04268 L 41.67232 65.40704 L 41.79045 65.77264 L 41.90858 66.13965 L 42.02673 66.50795 L 42.14485 66.87747 L 42.26299 67.24841 L 42.38113 67.62065 L 42.49928 67.99422 L 42.61739 68.36899 L 42.73553 68.74518 L 42.85368 69.1227 L 42.97179 69.5014 L 43.08994 69.88153 L 43.20808 70.26297 L 43.32619 70.64563 L 43.44434 71.0297 L 43.5625 71.41508 L 43.6806 71.80167 L 43.79875 72.18968 L 43.9169 72.57898 L 44.03503 72.9696 L 44.15315 73.36147 "/>
<path transform="matrix(1,0,0,-1,5.117,169.69301)" stroke-width="1" stroke-linecap="butt" stroke-miterlimit="10" stroke-linejoin="miter" fill="none" stroke="#0000ff" d="M 44.153 73.36095 L 44.27113 73.36095 L 44.38925 73.36095 L 44.5074 73.36095 L 44.62553 73.36095 L 44.74368 73.36095 L 44.8618 73.36095 L 44.97993 73.36095 L 45.09808 73.36095 L 45.21622 73.36095 L 45.33435 73.36095 L 45.4525 73.36095 L 45.57062 73.36095 L 45.68875 73.36095 L 45.8069 73.36095 L 45.92503 73.36095 L 46.04315 73.36095 L 46.1613 73.36095 L 46.27945 73.36095 L 46.39755 73.36095 L 46.5157 73.36095 L 46.63385 73.36095 L 46.75195 73.36095 L 46.8701 73.36095 L 46.98827 73.36095 L 47.1064 73.36095 L 47.22452 73.36095 L 47.34267 73.36095 L 47.4608 73.36095 L 47.57892 73.36095 L 47.69707 73.36095 L 47.8152 73.36095 L 47.93332 73.36095 L 48.05147 73.36095 L 48.1696 73.36095 L 48.28772 73.36095 L 48.40587 73.36095 L 48.524 73.36095 L 48.64215 73.36095 L 48.76028 73.36095 L 48.87842 73.36095 L 48.99657 73.36095 L 49.11469 73.36095 L 49.23283 73.36095 L 49.35097 73.36095 L 49.46912 73.36095 L 49.58723 73.36095 L 49.70537 73.36095 L 49.82352 73.36095 L 49.94164 73.36095 L 50.05977 73.36095 L 50.17792 73.36095 L 50.29604 73.36095 L 50.41417 73.36095 L 50.53233 73.36095 L 50.65045 73.36095 L 50.76859 73.36095 L 50.88673 73.36095 L 51.00488 73.36095 L 51.12299 73.36095 L 51.24113 73.36095 L 51.35928 73.36095 L 51.47739 73.36095 L 51.59554 73.36095 L 51.71368 73.36095 L 51.83182 73.36095 L 51.94994 73.36095 L 52.06808 73.36095 L 52.18622 73.36095 L 52.30435 73.36095 L 52.4225 73.36095 L 52.54063 73.36095 L 52.65875 73.36095 L 52.7769 73.36095 L 52.89503 73.36095 L 53.01318 73.36095 L 53.1313 73.36095 L 53.24944 73.36095 L 53.36758 73.36095 L 53.4857 73.36095 L 53.60384 73.36095 L 53.72198 73.36095 L 53.8401 73.36095 L 53.95824 73.36095 L 54.0764 73.36095 L 54.19452 73.36095 L 54.31267 73.36095 L 54.4308 73.36095 L 54.54895 73.36095 L 54.66707 73.36095 L 54.7852 73.36095 L 54.90335 73.36095 L 55.02147 73.36095 L 55.1396 73.36095 L 55.25775 73.36095 L 55.37589 73.36095 L 55.494 73.36095 L 55.61215 73.36095 L 55.73029 73.36095 L 55.84842 73.36095 L 55.96657 73.36095 L 56.08472 73.36095 L 56.20282 73.36095 L 56.32097 73.36095 L 56.43912 73.36095 L 56.55722 73.36095 L 56.67537 73.36095 L 56.79352 73.36095 L 56.91165 73.36095 L 57.02977 73.36095 L 57.14792 73.36095 L 57.26605 73.36095 L 57.38417 73.36095 L 57.50232 73.36095 L 57.62047 73.36095 L 57.73862 73.36095 L 57.85674 73.36095 L 57.97487 73.36095 L 58.09302 73.36095 L 58.21114 73.36095 L 58.32927 73.36095 L 58.44742 73.36095 L 58.56554 73.36095 L 58.68367 73.36095 L 58.80182 73.36095 L 58.91994 73.36095 L 59.03807 73.36095 L 59.15622 73.36095 L 59.27438 73.36095 L 59.3925 73.36095 L 59.51064 73.36095 L 59.62878 73.36095 L 59.7469 73.36095 L 59.86504 73.36095 L 59.98318 73.36095 L 60.10132 73.36095 L 60.21944 73.36095 L 60.33759 73.36095 L 60.45572 73.36095 L 60.57384 73.36095 L 60.69199 73.36095 L 60.81012 73.36095 L 60.92824 73.36095 L 61.0464 73.36095 L 61.16455 73.36095 L 61.28265 73.36095 L 61.4008 73.36095 L 61.51895 73.36095 L 61.63708 73.36095 L 61.7552 73.36095 L 61.87335 73.36095 L 61.99149 73.36095 L 62.1096 73.36095 L 62.22775 73.36095 L 62.34589 73.36095 L 62.46404 73.36095 L 62.58215 73.36095 L 62.70029 73.36095 L 62.81845 73.36095 L 62.93657 73.36095 L 63.0547 73.36095 L 63.17285 73.36095 L 63.29097 73.36095 L 63.4091 73.36095 L 63.52725 73.36095 L 63.64537 73.36095 L 63.7635 73.36095 L 63.88165 73.36095 L 63.9998 73.36095 L 64.1179 73.36095 L 64.23605 73.36095 L 64.3542 73.36095 L 64.47232 73.36095 L 64.59047 73.36095 L 64.70862 73.36095 L 64.82675 73.36095 L 64.94487 73.36095 L 65.06302 73.36095 L 65.18115 73.36095 L 65.29927 73.36095 L 65.41742 73.36095 L 65.53555 73.36095 L 65.65367 73.36095 L 65.77182 73.36095 L 65.88995 73.36095 L 66.00807 73.36095 L 66.12622 73.36095 L 66.24437 73.36095 L 66.36252 73.36095 L 66.48064 73.36095 L 66.59879 73.36095 L 66.71692 73.36095 L 66.83504 73.36095 L 66.95319 73.36095 L 67.07132 73.36095 L 67.18947 73.36095 L 67.30759 73.36095 L 67.42572 73.36095 L 67.54387 73.36095 L 67.66199 73.36095 L 67.78012 73.36095 L 67.89827 73.36095 L 68.01639 73.36095 L 68.13454 73.36095 L 68.25269 73.36095 L 68.3708 73.36095 L 68.48894 73.36095 L 68.60709 73.36095 L 68.72523 73.36095 L 68.84334 73.36095 L 68.96149 73.36095 L 69.07964 73.36095 L 69.19775 73.36095 L 69.31589 73.36095 L 69.43404 73.36095 L 69.55215 73.36095 L 69.67029 73.36095 L 69.78844 73.36095 L 69.90659 73.36095 L 70.0247 73.36095 L 70.14285 73.36095 L 70.26099 73.36095 L 70.3791 73.36095 L 70.49725 73.36095 L 70.61539 73.36095 L 70.73354 73.36095 L 70.85165 73.36095 L 70.9698 73.36095 L 71.08794 73.36095 L 71.20605 73.36095 L 71.3242 73.36095 L 71.44234 73.36095 L 71.56046 73.36095 L 71.67862 73.36095 L 71.79675 73.36095 L 71.91487 73.36095 L 72.03302 73.36095 L 72.15115 73.36095 L 72.2693 73.36095 L 72.38742 73.36095 L 72.50555 73.36095 L 72.6237 73.36095 L 72.74182 73.36095 L 72.85995 73.36095 L 72.9781 73.36095 L 73.09625 73.36095 L 73.21436 73.36095 L 73.3325 73.36095 L 73.45067 73.36095 L 73.56877 73.36095 L 73.68692 73.36095 L 73.80507 73.36095 L 73.92317 73.36095 L 74.04132 73.36095 L 74.15947 73.36095 L 74.27759 73.36095 L 74.39572 73.36095 L 74.51387 73.36095 L 74.632 73.36095 L 74.75012 73.36095 L 74.86827 73.36095 L 74.9864 73.36095 L 75.10454 73.36095 L 75.22269 73.36095 L 75.34082 73.36095 L 75.45897 73.36095 L 75.57709 73.36095 L 75.69522 73.36095 L 75.81337 73.36095 L 75.93149 73.36095 L 76.04964 73.36095 L 76.16777 73.36095 L 76.28589 73.36095 L 76.40404 73.36095 L 76.52217 73.36095 L 76.64029 73.36095 L 76.75844 73.36095 L 76.87659 73.36095 L 76.99474 73.36095 L 77.11285 73.36095 L 77.23099 73.36095 L 77.34914 73.36095 L 77.46725 73.36095 L 77.58539 73.36095 L 77.70354 73.36095 L 77.82169 73.36095 L 77.93979 73.36095 L 78.05794 73.36095 L 78.17609 73.36095 L 78.29419 73.36095 L 78.41234 73.36095 L 78.53049 73.36095 L 78.6486 73.36095 L 78.76675 73.36095 L 78.8849 73.36095 L 79.003 73.36095 L 79.12115 73.36095 L 79.2393 73.36095 L 79.35744 73.36095 L 79.47556 73.36095 "/>
<path transform="matrix(1,0,0,-1,5.117,169.69301)" stroke-width="1" stroke-linecap="butt" stroke-miterlimit="10" stroke-linejoin="miter" fill="none" stroke="#00ff00" d="M 79.4754 73.35858 L 79.8298 73.79875 L 80.1842 74.23453 L 80.53862 74.66792 L 80.89302 75.09782 L 81.24739 75.52596 L 81.60179 75.94852 L 81.95619 76.37108 L 82.31061 76.78983 L 82.66501 77.20534 L 83.01941 77.6188 L 83.37381 78.02962 L 83.72821 78.43661 L 84.08263 78.84245 L 84.43703 79.24623 L 84.79141 79.64621 L 85.14581 80.04265 L 85.50021 80.43909 L 85.85463 80.83202 L 86.20903 81.2214 L 86.56343 81.60992 L 86.91783 81.99698 L 87.27223 82.37964 L 87.62665 82.762 L 87.98105 83.14082 L 88.33542 83.51643 L 88.68982 83.8944 L 89.04424 84.26706 L 89.39864 84.63858 L 89.75304 85.00713 L 90.10745 85.3751 L 90.46185 85.73956 L 90.81627 86.10315 L 91.17067 86.46495 L 91.52507 86.82413 L 91.87944 87.1833 L 92.23384 87.54015 L 92.58826 87.89491 L 92.94266 88.24675 L 93.29706 88.60182 L 93.65146 88.95013 L 94.00586 89.29729 L 94.36028 89.64296 L 94.71468 89.98952 L 95.06908 90.33313 L 95.42346 90.67323 L 95.77786 91.0107 L 96.13228 91.35226 L 96.48668 91.68826 L 96.84108 92.02484 L 97.19548 92.35612 L 97.54988 92.68979 L 97.9043 93.02078 L 98.2587 93.3515 L 98.6131 93.68251 L 98.96747 94.00705 L 99.32187 94.33043 L 99.67628 94.66055 L 100.03069 94.98186 L 100.3851 95.30466 L 100.7395 95.62363 L 101.0939 95.94408 L 101.44832 96.26128 L 101.80272 96.5782 L 102.15712 96.89688 L 102.51152 97.20589 L 102.86589 97.52573 L 103.2203 97.83942 L 103.5747 98.15077 L 103.92911 98.46094 L 104.28351 98.76846 L 104.63791 99.07541 L 104.99232 99.38235 L 105.34673 99.68872 L 105.70113 99.99272 L 106.05551 100.29555 L 106.40991 100.59691 L 106.76433 100.89946 L 107.11873 101.19907 L 107.47313 101.49867 L 107.82753 101.79504 L 108.18193 102.09143 L 108.53635 102.39104 L 108.89075 102.68507 L 109.24515 102.97821 L 109.59955 103.27136 L 109.95392 103.56216 L 110.30833 103.85327 L 110.66275 104.14406 L 111.01715 104.43399 L 111.37155 104.72067 L 111.72595 105.0103 L 112.08037 105.29378 L 112.43477 105.58078 L 112.78917 105.86687 L 113.14357 106.1477 L 113.49796 106.43146 L 113.85236 106.71376 L 114.20676 106.99576 L 114.56116 107.27599 L 114.91556 107.55534 L 115.26997 107.83443 L 115.62437 108.11055 L 115.97878 108.38727 L 116.33318 108.66368 L 116.68759 108.94041 L 117.04198 109.2139 L 117.39638 109.48738 L 117.75078 109.76147 L 118.10518 110.03201 L 118.45958 110.30287 L 118.814 110.57458 L 119.1684 110.84369 L 119.5228 111.11482 L 119.8772 111.38245 L 120.23157 111.64948 L 120.58598 111.91652 L 120.9404 112.18384 L 121.2948 112.44911 L 121.6492 112.71175 L 122.0036 112.9782 L 122.35802 113.24054 L 122.71242 113.50345 L 123.06682 113.76462 L 123.42122 114.02637 L 123.77559 114.28578 L 124.13 114.54636 L 124.4844 114.8043 L 124.8388 115.064 L 125.1932 115.32133 L 125.5476 115.57928 L 125.90202 115.83545 L 126.25642 116.09103 L 126.61082 116.34663 L 126.96524 116.60106 L 127.31961 116.85664 L 127.67403 117.10782 L 128.02843 117.36195 L 128.38283 117.61401 L 128.73723 117.86696 L 129.09163 118.11493 L 129.44605 118.36758 L 129.80045 118.61554 L 130.15485 118.86731 L 130.50925 119.1144 L 130.86362 119.36295 L 131.21805 119.60826 L 131.57245 119.85535 L 131.92685 120.10036 L 132.28125 120.34567 L 132.63565 120.59013 L 132.99007 120.83543 L 133.34447 121.0787 L 133.69887 121.32285 L 134.05327 121.56583 L 134.40764 121.80615 L 134.76206 122.04912 L 135.11646 122.28857 L 135.47086 122.53214 L 135.82526 122.76953 L 136.17966 123.01045 L 136.53408 123.2493 L 136.88848 123.48846 L 137.24288 123.72263 L 137.59729 123.96414 L 137.95168 124.20006 L 138.30608 124.43512 L 138.66048 124.67194 L 139.01488 124.90668 L 139.36928 125.14174 L 139.7237 125.37677 L 140.0781 125.6083 L 140.4325 125.84335 L 140.7869 126.07693 L 141.1413 126.30582 L 141.49571 126.53998 L 141.8501 126.77005 L 142.2045 127.00217 L 142.5589 127.23222 L 142.9133 127.45964 L 143.26772 127.69087 L 143.62212 127.92123 L 143.97652 128.14983 L 144.33092 128.37549 L 144.68532 128.60584 L 145.03974 128.83061 L 145.3941 129.05686 L 145.7485 129.28545 L 146.1029 129.51082 L 146.4573 129.73882 L 146.81172 129.96273 L 147.16613 130.18662 L 147.52053 130.41168 L 147.87494 130.63442 L 148.22934 130.8583 L 148.58376 131.08162 L 148.93813 131.30229 L 149.29253 131.52736 L 149.64693 131.74715 L 150.00133 131.9687 L 150.35575 132.18938 L 150.71015 132.41063 L 151.06455 132.63042 L 151.41895 132.84522 L 151.77335 133.06208 L 152.12776 133.2801 L 152.48215 133.50371 L 152.83655 133.72026 L 153.19095 133.93654 L 153.54535 134.1528 L 153.89977 134.37055 L 154.25417 134.58945 L 154.60857 134.80249 L 154.96297 135.01935 L 155.31737 135.23677 L 155.67179 135.44893 L 156.02616 135.66345 L 156.38056 135.87766 L 156.73496 136.0913 L 157.08936 136.30844 L 157.44377 136.52 L 157.79817 136.73099 L 158.15259 136.94199 L 158.50699 137.15561 L 158.86139 137.36602 L 159.21578 137.57994 L 159.57018 137.79004 L 159.92458 138.00189 L 160.27898 138.2085 L 160.63338 138.41948 L 160.9878 138.62958 L 161.3422 138.8297 L 161.6966 139.03748 L 162.051 139.24875 L 162.4054 139.45475 L 162.7598 139.66162 L 163.1142 139.87114 L 163.4686 140.07714 L 163.823 140.28079 L 164.17742 140.48825 L 164.53182 140.69808 L 164.88622 140.90201 L 165.24062 141.10596 L 165.59502 141.31195 L 165.94944 141.51677 L 166.3038 141.72219 L 166.6582 141.92407 L 167.0126 142.12949 L 167.367 142.32903 L 167.72142 142.5359 L 168.07582 142.73867 L 168.43024 142.9388 L 168.78464 143.14304 L 169.13904 143.34229 L 169.49346 143.54622 L 169.84783 143.7487 L 170.20223 143.95119 L 170.55663 144.14838 L 170.91103 144.33678 L 171.26544 144.53983 L 171.61985 144.73615 L 171.97425 144.93628 L 172.32865 145.13552 L 172.68305 145.33917 L 173.03746 145.53256 L 173.39185 145.73328 L 173.74625 145.93956 L 174.10065 146.13617 L 174.45505 146.336 L 174.80947 146.5335 L 175.16387 146.72776 L 175.51827 146.92465 L 175.87267 147.11949 L 176.22707 147.3161 L 176.58148 147.51125 L 176.93585 147.70522 L 177.29026 147.90094 L 177.64466 148.0946 L 177.99906 148.28536 L 178.35347 148.47931 L 178.70789 148.67504 L 179.06229 148.86814 L 179.41669 149.06238 L 179.77109 149.25724 L 180.1255 149.44828 L 180.47988 149.63813 L 180.83428 149.82857 L 181.18868 150.0193 L 181.54308 150.21269 L 181.89749 150.4046 L 182.25189 150.59682 L 182.6063 150.7849 L 182.9607 150.9774 L 183.3151 151.1649 L 183.66951 151.3574 L 184.02391 151.54462 L 184.3783 151.73508 L 184.7327 151.92259 L 185.0871 152.10832 L 185.0916 152.11078 "/>
<path transform="matrix(.87807,-.47844,-.47844,-.87807,190.38356,17.486924)" stroke-width="1" stroke-linecap="round" stroke-linejoin="round" fill="none" stroke="#00ff00" d="M -2.07224 2.39104 C -1.69365 .95639 -.84999 .27895 0 0 C -.84999 -.27895 -1.69365 -.95639 -2.07224 -2.39104 "/>
</g>
<symbol id="font_0_f">
<path d="M .63 .67700007 L .019000002 .67700007 L 0 .45200003 L .025000003 .45200003 C .039 .61300006 .054 .646 .20500002 .646 C .223 .646 .24900003 .646 .259 .64400008 C .28 .64000007 .28 .629 .28 .606 L .28 .079 C .28 .045 .28 .031000002 .17500001 .031000002 L .135 .031000002 L .135 0 C .17600002 .003 .278 .003 .324 .003 C .37 .003 .473 .003 .514 0 L .514 .031000002 L .47400005 .031000002 C .36900003 .031000002 .36900003 .045 .36900003 .079 L .36900003 .606 C .36900003 .62600007 .36900003 .64000007 .387 .64400008 C .398 .646 .425 .646 .444 .646 C .595 .646 .61 .61300006 .624 .45200003 L .64900007 .45200003 L .63 .67700007 Z "/>
</symbol>
<symbol id="font_0_12">
<path d="M .144 .44200004 L .0040000008 .43100003 L .0040000008 .4 C .069000009 .4 .07800001 .39400003 .07800001 .34500004 L .07800001 .076000008 C .07800001 .031000002 .067 .031000002 0 .031000002 L 0 0 C .032000007 .001 .086 .003 .11000001 .003 C .14500001 .003 .18 .001 .21400002 0 L .21400002 .031000002 C .148 .031000002 .144 .036000004 .144 .075 L .144 .44200004 M .148 .61600008 C .148 .648 .123 .669 .095000009 .669 C .064 .669 .042000005 .642 .042000005 .61600008 C .042000005 .58900007 .064 .563 .095000009 .563 C .123 .563 .148 .58400008 .148 .61600008 Z "/>
</symbol>
<symbol id="font_0_13">
<path d="M .07800001 .344 L .07800001 .076000008 C .07800001 .031000002 .067 .031000002 0 .031000002 L 0 0 C .035 .001 .08600001 .003 .113000009 .003 C .139 .003 .191 .001 .225 0 L .225 .031000002 C .158 .031000002 .147 .031000002 .147 .076000008 L .147 .26000003 C .147 .36400003 .218 .42000003 .282 .42000003 C .345 .42000003 .356 .36600004 .356 .30900003 L .356 .076000008 C .356 .031000002 .345 .031000002 .278 .031000002 L .278 0 C .31300003 .001 .36400003 .003 .391 .003 C .41700004 .003 .46900005 .001 .503 0 L .503 .031000002 C .43600003 .031000002 .425 .031000002 .425 .076000008 L .425 .26000003 C .425 .36400003 .496 .42000003 .56 .42000003 C .623 .42000003 .634 .36600004 .634 .30900003 L .634 .076000008 C .634 .031000002 .623 .031000002 .556 .031000002 L .556 0 C .591 .001 .642 .003 .669 .003 C .69500008 .003 .74700006 .001 .781 0 L .781 .031000002 C .72900006 .031000002 .70400008 .031000002 .703 .061000006 L .703 .252 C .703 .33800004 .703 .36900003 .67200008 .40500004 C .65800008 .42200003 .625 .44200004 .56700006 .44200004 C .48300005 .44200004 .439 .38200004 .42200003 .344 C .40800003 .43100003 .33400003 .44200004 .289 .44200004 C .216 .44200004 .169 .39900003 .141 .337 L .141 .44200004 L 0 .43100003 L 0 .4 C .07000001 .4 .07800001 .393 .07800001 .344 Z "/>
</symbol>
<symbol id="font_0_11">
<path d="M .08400001 .263 C .09 .41200004 .17400001 .43700005 .20800002 .43700005 C .31100003 .43700005 .321 .30200003 .321 .263 L .08400001 .263 M .083000008 .24200002 L .36200003 .24200002 C .38400004 .24200002 .38700003 .24200002 .38700003 .263 C .38700003 .36200003 .33300004 .45900003 .20800002 .45900003 C .09200001 .45900003 0 .35600005 0 .23100002 C 0 .097 .105000007 0 .22000002 0 C .342 0 .38700003 .111 .38700003 .13000001 C .38700003 .14000002 .379 .14200002 .374 .14200002 C .365 .14200002 .36300005 .136 .36100004 .128 C .326 .025000003 .236 .025000003 .22600001 .025000003 C .17600002 .025000003 .136 .055000005 .113000009 .092 C .083000008 .14000002 .083000008 .20600002 .083000008 .24200002 Z "/>
</symbol>
<symbol id="font_0_3">
<path d="M .23200003 .00999999 C .23200003 .012999982 .23200003 .014999986 .215 .03199999 C .09 .15799999 .058 .347 .058 .5 C .058 .674 .096 .84800007 .21900001 .97300007 C .23200003 .985 .23200003 .98700007 .23200003 .99 C .23200003 .99700006 .22800002 1 .222 1 C .21200001 1 .12200001 .93200007 .06299999 .805 C .012000002 .69500008 0 .584 0 .5 C 0 .422 .011 .301 .066 .188 C .126 .065 .21200001 0 .222 0 C .22800002 0 .23200003 .0029999912 .23200003 .00999999 Z "/>
</symbol>
<symbol id="font_0_18">
<path d="M .39600004 .541 C .42200003 .60400006 .47300003 .605 .48900003 .605 L .48900003 .63600006 C .46600003 .63400009 .43700005 .633 .41400004 .633 C .39600004 .633 .34900005 .635 .32700003 .63600006 L .32700003 .605 C .358 .60400006 .374 .587 .374 .56200006 C .374 .55200007 .37300004 .5500001 .36800004 .538 L .26700003 .29200004 L .15600002 .561 C .15200001 .57100006 .15 .57500007 .15 .579 C .15 .605 .187 .605 .206 .605 L .206 .63600006 C .18 .635 .114 .633 .097 .633 C .07 .633 .030000002 .63400009 0 .63600006 L 0 .605 C .048 .605 .067 .605 .081 .57000008 L .231 .20500002 C .22600001 .19200002 .21200001 .15900001 .206 .14600002 C .18400002 .091000009 .15600002 .022 .09200001 .022 C .087000008 .022 .064 .022 .045 .040000008 C .076000008 .044 .08400001 .066 .08400001 .08200001 C .08400001 .10800001 .065000008 .12400001 .042000005 .12400001 C .022 .12400001 0 .11100001 0 .08100001 C 0 .036 .042000005 0 .09200001 0 C .155 0 .19600001 .05700001 .22 .11400001 L .39600004 .541 Z "/>
</symbol>
<symbol id="font_0_10">
<path d="M .291 .087000008 C .29500003 .047000003 .32200004 .005000001 .36900003 .005000001 C .39000003 .005000001 .45100004 .019000002 .45100004 .1 L .45100004 .15600002 L .42600004 .15600002 L .42600004 .1 C .42600004 .042000005 .40100003 .036000004 .39000003 .036000004 C .35700003 .036000004 .35300002 .081 .35300002 .086 L .35300002 .286 C .35300002 .328 .35300002 .367 .31700004 .404 C .27800004 .44300003 .22800002 .45900003 .18 .45900003 C .098 .45900003 .029 .41200004 .029 .34600003 C .029 .316 .049000004 .29900003 .075 .29900003 C .10300001 .29900003 .121 .31900005 .121 .34500004 C .121 .35700003 .116000007 .39000003 .07 .39100004 C .09700001 .42600004 .146 .43700005 .178 .43700005 C .22700003 .43700005 .284 .39800004 .284 .30900003 L .284 .272 C .23300001 .26900003 .16300002 .26600004 .1 .23600002 C .024999999 .20200002 0 .15000002 0 .106000009 C 0 .025000003 .09700001 0 .16 0 C .22600001 0 .272 .040000004 .291 .087000008 M .284 .25100003 L .284 .15100001 C .284 .056 .21200001 .022000002 .167 .022000002 C .11800001 .022000002 .077 .057000005 .077 .107 C .077 .16200002 .11900001 .24500002 .284 .25100003 Z "/>
</symbol>
<symbol id="font_0_15">
<path d="M .13900002 .33200003 L .13900002 .44200004 L 0 .43100003 L 0 .4 C .07000001 .4 .07800001 .393 .07800001 .344 L .07800001 .076000008 C .07800001 .031000002 .067 .031000002 0 .031000002 L 0 0 C .039 .001 .08600001 .003 .11400001 .003 C .15400002 .003 .20100002 .003 .24100003 0 L .24100003 .031000002 L .22000002 .031000002 C .14600002 .031000002 .14400001 .042000005 .14400001 .078 L .14400001 .23200001 C .14400001 .33100004 .18600002 .42000003 .26200003 .42000003 C .26900003 .42000003 .27100004 .42000003 .27300004 .41900004 C .27 .418 .25000004 .40600003 .25000004 .38000003 C .25000004 .35200004 .27100004 .337 .293 .337 C .31100003 .337 .33600004 .349 .33600004 .381 C .33600004 .41300003 .305 .44200004 .26200003 .44200004 C .18900001 .44200004 .15300001 .37500004 .13900002 .33200003 Z "/>
</symbol>
<symbol id="font_0_16">
<path d="M .17500001 .20500002 C .197 .20100002 .279 .18500002 .279 .113000009 C .279 .062000004 .24400002 .022000002 .16600001 .022000002 C .082 .022000002 .046000005 .079 .027000003 .16400002 C .024000004 .17700002 .023000002 .18100001 .013000004 .18100001 C 0 .18100001 0 .17400001 0 .15600002 L 0 .024 C 0 .0070000009 0 0 .011000004 0 C .016000003 0 .017 .0010000002 .036000007 .020000002 C .038000004 .022000002 .038000004 .024 .056 .043 C .1 .0010000002 .14500001 0 .16600001 0 C .28100003 0 .32700003 .067 .32700003 .13900002 C .32700003 .19200002 .29700003 .22200002 .28500004 .23400001 C .25200004 .26600004 .213 .27400003 .171 .28200004 C .115 .293 .048 .30600003 .048 .36400003 C .048 .39900003 .07400001 .44000004 .16 .44000004 C .27 .44000004 .27500005 .35000003 .277 .31900005 C .27800004 .31000004 .28700004 .31000004 .28900004 .31000004 C .30200003 .31000004 .30200003 .31500004 .30200003 .33400003 L .30200003 .43500004 C .30200003 .45200003 .30200003 .45900003 .291 .45900003 C .286 .45900003 .284 .45900003 .27100004 .44700004 C .26800005 .44300003 .25800003 .43400003 .254 .43100003 C .21600002 .45900003 .17500001 .45900003 .16 .45900003 C .038000004 .45900003 0 .39200003 0 .33600004 C 0 .30100004 .016000003 .27300004 .043000007 .25100003 C .075 .22500003 .10300001 .21900001 .17500001 .20500002 Z "/>
</symbol>
<symbol id="font_0_4">
<path d="M .232 .5 C .232 .578 .22100002 .699 .16600001 .81200006 C .106 .93500009 .020000004 1 .009999998 1 C .0040000008 1 0 .99600008 0 .99 C 0 .98700007 0 .985 .019000002 .967 C .117000009 .86800006 .174 .709 .174 .5 C .174 .329 .137 .153 .012999997 .026999996 C 0 .014999986 0 .012999982 0 .00999999 C 0 .003999993 .0040000008 0 .009999998 0 C .020000004 0 .11000001 .06799999 .169 .195 C .22 .305 .232 .416 .232 .5 Z "/>
</symbol>
<use xlink:href="#font_0_f" transform="matrix(9.9626,0,0,-9.9626,171.75467,147.54302)"/>
<use xlink:href="#font_0_12" transform="matrix(9.9626,0,0,-9.9626,178.91777,147.54302)"/>
<use xlink:href="#font_0_13" transform="matrix(9.9626,0,0,-9.9626,181.67742,147.54302)"/>
<use xlink:href="#font_0_11" transform="matrix(9.9626,0,0,-9.9626,189.9364,147.6526)"/>
<use xlink:href="#font_0_3" transform="matrix(9.9626,0,0,-9.9626,198.3847,150.03366)"/>
<use xlink:href="#font_0_18" transform="matrix(9.9626,0,0,-9.9626,201.46315,149.58535)"/>
<use xlink:href="#font_0_11" transform="matrix(9.9626,0,0,-9.9626,206.54407,147.6526)"/>
<use xlink:href="#font_0_10" transform="matrix(9.9626,0,0,-9.9626,211.10695,147.6526)"/>
<use xlink:href="#font_0_15" transform="matrix(9.9626,0,0,-9.9626,215.94876,147.54302)"/>
<use xlink:href="#font_0_16" transform="matrix(9.9626,0,0,-9.9626,219.90392,147.6526)"/>
<use xlink:href="#font_0_4" transform="matrix(9.9626,0,0,-9.9626,224.06829,150.03366)"/>
<symbol id="font_0_e">
<path d="M .19200002 .316 L .36100004 .316 C .48100005 .316 .589 .397 .589 .497 C .589 .595 .49000005 .683 .35300002 .683 L 0 .683 L 0 .652 L .024000004 .652 C .10100001 .652 .103000018 .64100006 .103000018 .605 L .103000018 .078 C .103000018 .042000005 .10100001 .031000002 .024000004 .031000002 L 0 .031000002 L 0 0 C .035 .003 .10900001 .003 .14700002 .003 C .18500002 .003 .26000003 .003 .29500003 0 L .29500003 .031000002 L .27100004 .031000002 C .19400002 .031000002 .19200002 .042000005 .19200002 .078 L .19200002 .316 M .18900001 .342 L .18900001 .61200007 C .18900001 .64500007 .19100002 .652 .238 .652 L .32700003 .652 C .48600004 .652 .48600004 .546 .48600004 .497 C .48600004 .45000003 .48600004 .342 .32700003 .342 L .18900001 .342 Z "/>
</symbol>
<symbol id="font_0_14">
<path d="M .44300003 .22500003 C .44300003 .35300002 .34300003 .45900003 .222 .45900003 C .097 .45900003 0 .35000003 0 .22500003 C 0 .096 .104 0 .22100002 0 C .342 0 .44300003 .098000008 .44300003 .22500003 M .222 .025000003 C .17900002 .025000003 .135 .046 .10800001 .092 C .083000008 .136 .083000008 .19700001 .083000008 .23300003 C .083000008 .272 .083000008 .32600004 .10700001 .37000004 C .134 .41600005 .18100001 .43700005 .22100002 .43700005 C .26500003 .43700005 .30800004 .41500003 .33400003 .37200005 C .36 .32900004 .36 .27100004 .36 .23300003 C .36 .19700001 .36 .143 .33800004 .09900001 C .316 .054 .272 .025000003 .222 .025000003 Z "/>
</symbol>
<symbol id="font_0_1">
<path d="M .303 .4 C .349 .4 .356 .38700003 .356 .34600003 L .356 .076000008 C .356 .031000002 .345 .031000002 .278 .031000002 L .278 0 C .31100003 .001 .36400003 .003 .389 .003 C .414 .003 .463 .001 .5 0 L .5 .031000002 C .433 .031000002 .42200003 .031000002 .42200003 .076000008 L .42200003 .44300003 L .296 .43400003 C .28 .43300004 .279 .432 .278 .432 C .276 .43100003 .27400003 .43100003 .26 .43100003 L .14200002 .43100003 L .14200002 .544 C .14200002 .643 .22800003 .683 .29 .683 C .32 .683 .356 .67300006 .37600003 .65000006 C .335 .648 .329 .62 .329 .60400006 C .329 .57100006 .35500003 .558 .374 .558 C .397 .558 .42000003 .574 .42000003 .60400006 C .42000003 .66300007 .365 .70500007 .291 .70500007 C .19800002 .70500007 .079 .65400007 .079 .545 L .079 .43100003 L 0 .43100003 L 0 .4 L .079 .4 L .079 .076000008 C .079 .031000002 .068 .031000002 .0010000002 .031000002 L .0010000002 0 C .034 .001 .087000008 .003 .11200001 .003 C .13700001 .003 .18600002 .001 .223 0 L .223 .031000002 C .15600002 .031000002 .14500001 .031000002 .14500001 .076000008 L .14500001 .4 L .303 .4 Z "/>
</symbol>
<symbol id="font_0_17">
<path d="M .15400002 .411 L .29700003 .411 L .29700003 .44200004 L .15400002 .44200004 L .15400002 .626 L .12900001 .626 C .12799999 .544 .098000008 .43700005 0 .43300004 L 0 .411 L .085 .411 L .085 .135 C .085 .012000001 .178 0 .21400002 0 C .28500004 0 .31300003 .071 .31300003 .135 L .31300003 .19200002 L .28800003 .19200002 L .28800003 .13700001 C .28800003 .063 .25800003 .025000003 .22100002 .025000003 C .15400002 .025000003 .15400002 .116000007 .15400002 .13300002 L .15400002 .411 Z "/>
</symbol>
<symbol id="font_0_2">
<path d="M .20900002 .367 C .32900004 .342 .33600004 .245 .33600004 .22100002 C .33600004 .15400002 .28800003 .087000008 .20900002 .07700001 L .20900002 .367 M .178 .375 L .178 .07700001 C .09000001 .082 .043000007 .13300002 .030000002 .19500003 C .034 .194 .042000005 .19300002 .046000005 .19300002 C .07300001 .19300002 .092 .21200001 .092 .23900002 C .092 .26700003 .071 .28500004 .046000005 .28500004 C .04 .28500004 0 .28300003 0 .234 C 0 .14500001 .053000004 .053000004 .178 .045 L .178 0 L .20900002 0 L .20900002 .046 C .314 .055000005 .38700003 .148 .38700003 .25100003 C .38700003 .33400003 .34200005 .38500003 .33300004 .39400003 C .293 .43800003 .25700004 .44700004 .20900002 .45900003 L .20900002 .72900006 C .29400004 .725 .34200005 .681 .35700003 .625 C .35300002 .62600007 .351 .62700006 .34100003 .62700006 C .31500004 .62700006 .29500003 .609 .29500003 .58100005 C .29500003 .55 .32000003 .535 .34100003 .535 C .344 .535 .38700003 .536 .38700003 .58500006 C .38700003 .68200007 .321 .75500008 .20900002 .76100006 L .20900002 .80600008 L .178 .80600008 L .178 .76000007 C .067 .75 0 .66 0 .569 C 0 .50000008 .037 .45200003 .055000009 .435 C .093 .396 .127 .388 .178 .375 M .178 .467 C .055000009 .493 .051000008 .579 .051000008 .59900006 C .051000008 .65900006 .09800001 .721 .178 .72900006 L .178 .467 Z "/>
</symbol>
<symbol id="font_0_5">
<path d="M .117000009 .194 C .117000009 .25800003 .093 .29900003 .05300001 .29900003 C .018 .29900003 0 .272 0 .246 C 0 .22 .017000005 .193 .05300001 .193 C .069 .193 .08100001 .199 .091 .207 L .093 .209 C .094000007 .209 .095000009 .208 .095000009 .194 C .095000009 .13 .06700001 .069 .023000002 .022 C .017000005 .016000003 .016000003 .015000001 .016000003 .0109999929 C .016000003 .003999993 .021000006 0 .026 0 C .038000004 0 .117000009 .078999999 .117000009 .194 Z "/>
</symbol>
<use xlink:href="#font_0_e" transform="matrix(9.9626,0,0,-9.9626,18.699692,10.792007)"/>
<use xlink:href="#font_0_15" transform="matrix(9.9626,0,0,-9.9626,25.414484,10.792007)"/>
<use xlink:href="#font_0_14" transform="matrix(9.9626,0,0,-9.9626,29.319825,10.901596)"/>
<use xlink:href="#font_0_1" transform="matrix(9.9626,0,0,-9.9626,34.29116,10.792007)"/>
<use xlink:href="#font_0_17" transform="matrix(9.9626,0,0,-9.9626,39.750669,10.901596)"/>
<use xlink:href="#font_0_3" transform="matrix(9.9626,0,0,-9.9626,47.740674,13.282658)"/>
<use xlink:href="#font_0_2" transform="matrix(9.9626,0,0,-9.9626,51.187734,11.349913)"/>
<use xlink:href="#font_0_7" transform="matrix(9.9626,0,0,-9.9626,56.4978,10.792007)"/>
<use xlink:href="#font_0_6" transform="matrix(9.9626,0,0,-9.9626,60.98097,11.011185)"/>
<use xlink:href="#font_0_6" transform="matrix(9.9626,0,0,-9.9626,65.962268,11.011185)"/>
<use xlink:href="#font_0_5" transform="matrix(9.9626,0,0,-9.9626,71.411808,12.714789)"/>
<use xlink:href="#font_0_6" transform="matrix(9.9626,0,0,-9.9626,73.713169,11.011185)"/>
<use xlink:href="#font_0_6" transform="matrix(9.9626,0,0,-9.9626,78.694469,11.011185)"/>
<use xlink:href="#font_0_6" transform="matrix(9.9626,0,0,-9.9626,83.675769,11.011185)"/>
<use xlink:href="#font_0_4" transform="matrix(9.9626,0,0,-9.9626,88.836399,13.282658)"/>
</svg>
