<?xml version="1.0" encoding="UTF-8" standalone="no"?>
<!DOCTYPE svg PUBLIC "-//W3C//DTD SVG 1.1//EN" "http://www.w3.org/Graphics/SVG/1.1/DTD/svg11.dtd">
<svg xmlns="http://www.w3.org/2000/svg" xmlns:xlink="http://www.w3.org/1999/xlink" version="1.1" width="209.326pt" height="168.015pt" viewBox="0 0 209.326 168.015">
<path transform="matrix(1,0,0,-1,6.753,167.816)" stroke-width="1" stroke-linecap="butt" stroke-miterlimit="10" stroke-linejoin="miter" fill="none" stroke="#808080" d="M 0 79.27469 L 0 82.1095 M 29.8883 79.27469 L 29.8883 82.1095 M 59.77661 79.27469 L 59.77661 82.1095 M 89.66492 79.27469 L 89.66492 82.1095 M 119.55322 79.27469 L 119.55322 82.1095 M 149.44153 79.27469 L 149.44153 82.1095 M 179.32984 79.27469 L 179.32984 82.1095 "/>
<path transform="matrix(1,0,0,-1,6.753,167.816)" stroke-width="1" stroke-linecap="butt" stroke-miterlimit="10" stroke-linejoin="miter" fill="none" stroke="#808080" d="M 44.83246 78.56621 L 44.83246 82.81796 M 74.72076 78.56621 L 74.72076 82.81796 M 104.60907 78.56621 L 104.60907 82.81796 M 134.49738 78.56621 L 134.49738 82.81796 M 164.38568 78.56621 L 164.38568 82.81796 M 194.27399 78.56621 L 194.27399 82.81796 "/>
<path transform="matrix(1,0,0,-1,6.753,167.816)" stroke-width="1" stroke-linecap="butt" stroke-miterlimit="10" stroke-linejoin="miter" fill="none" stroke="#808080" d="M 13.52658 0 L 16.36172 0 M 13.52658 32.27684 L 16.36172 32.27684 M 13.52658 64.55368 L 16.36172 64.55368 M 13.52658 96.83052 L 16.36172 96.83052 M 13.52658 129.10736 L 16.36172 129.10736 M 13.52658 161.3842 L 16.36172 161.3842 "/>
<path transform="matrix(1,0,0,-1,6.753,167.816)" stroke-width="1" stroke-linecap="butt" stroke-miterlimit="10" stroke-linejoin="miter" fill="none" stroke="#808080" d="M 12.81796 16.13841 L 17.07031 16.13841 M 12.81796 48.41525 L 17.07031 48.41525 M 12.81796 112.96893 L 17.07031 112.96893 M 12.81796 145.24578 L 17.07031 145.24578 "/>
<path transform="matrix(1,0,0,-1,6.753,167.816)" stroke-width="1" stroke-linecap="butt" stroke-miterlimit="10" stroke-linejoin="miter" fill="none" stroke="#000000" d="M 0 80.6921 L 192.28145 80.6921 "/>
<path transform="matrix(1,0,0,-1,199.03446,87.12389)" d="M 1.99252 0 L -1.19551 1.59401 L 0 0 L -1.19551 -1.59401 "/>
<path transform="matrix(1,0,0,-1,6.753,167.816)" stroke-width="1" stroke-linecap="butt" stroke-miterlimit="10" stroke-linejoin="miter" fill="none" stroke="#000000" d="M 14.94415 0 L 14.94415 159.39168 "/>
<path transform="matrix(0,-1,-1,-0,21.69715,8.424316)" d="M 1.99252 0 L -1.19551 1.59401 L 0 0 L -1.19551 -1.59401 "/>
<symbol id="font_0_3">
<path d="M .07700001 .07700001 L .18300002 .18 C .33900003 .31800003 .39900003 .372 .39900003 .47200004 C .39900003 .586 .30900003 .666 .18700002 .666 C .074 .666 0 .574 0 .485 C 0 .42900003 .05 .42900003 .053000008 .42900003 C .07000001 .42900003 .105000007 .441 .105000007 .48200003 C .105000007 .508 .08700001 .53400006 .052000006 .53400006 C .044000005 .53400006 .042000008 .53400006 .039 .53300008 C .062000004 .59800007 .11600001 .63500007 .17400001 .63500007 C .26500003 .63500007 .308 .554 .308 .47200004 C .308 .39200003 .25800003 .31300003 .20300003 .25100003 L .011000004 .037 C 0 .026 0 .024 0 0 L .37100003 0 L .39900003 .17400001 L .374 .17400001 C .36900003 .14400001 .36200003 .1 .352 .085 C .345 .07700001 .279 .07700001 .257 .07700001 L .07700001 .07700001 Z "/>
</symbol>
<use xlink:href="#font_0_3" transform="matrix(9.9626,0,0,-9.9626,49.59213,99.19099)"/>
<symbol id="font_0_4">
<path d="M .266 .165 L .266 .078 C .266 .042000005 .26400004 .031000002 .19000001 .031000002 L .16900002 .031000002 L .16900002 0 C .21000001 .003 .26200003 .003 .30400003 .003 C .34600003 .003 .39900003 .003 .44000004 0 L .44000004 .031000002 L .41900004 .031000002 C .34500004 .031000002 .34300003 .042000005 .34300003 .078 L .34300003 .165 L .44300003 .165 L .44300003 .19600001 L .34300003 .19600001 L .34300003 .651 C .34300003 .671 .34300003 .67700007 .32700003 .67700007 C .31800003 .67700007 .31500004 .67700007 .307 .665 L 0 .19600001 L 0 .165 L .266 .165 M .272 .19600001 L .028 .19600001 L .272 .569 L .272 .19600001 Z "/>
</symbol>
<use xlink:href="#font_0_4" transform="matrix(9.9626,0,0,-9.9626,79.26095,99.19099)"/>
<symbol id="font_0_5">
<path d="M .089999999 .35000003 L .089999999 .37400005 C .089999999 .62700006 .21400002 .66300007 .26500003 .66300007 C .28900004 .66300007 .33100004 .65700009 .35300002 .623 C .33800004 .623 .298 .623 .298 .57800009 C .298 .54700008 .32200004 .53200009 .344 .53200009 C .36 .53200009 .39000003 .54100009 .39000003 .58000007 C .39000003 .64000007 .34600003 .688 .263 .688 C .13499999 .688 0 .559 0 .33800004 C 0 .071 .116000007 0 .20900002 0 C .32000003 0 .41500003 .094000007 .41500003 .22600001 C .41500003 .35300005 .32600004 .44900004 .215 .44900004 C .14700002 .44900004 .11000001 .39800004 .089999999 .35000003 M .20900002 .028 C .146 .028 .116000007 .088 .11000001 .103 C .092 .15 .092 .23 .092 .24800001 C .092 .32600004 .124000009 .42600004 .21400002 .42600004 C .23000002 .42600004 .27600003 .42600004 .307 .36400003 C .32500003 .32700003 .32500003 .27600003 .32500003 .22700002 C .32500003 .179 .32500003 .12900001 .30800004 .093 C .27800004 .033000005 .23200003 .028 .20900002 .028 Z "/>
</symbol>
<use xlink:href="#font_0_5" transform="matrix(9.9626,0,0,-9.9626,109.28842,99.410167)"/>
<symbol id="font_0_6">
<path d="M .121 .47900004 C .075 .509 .071 .54300007 .071 .56000009 C .071 .62100008 .136 .66300007 .20700002 .66300007 C .28000004 .66300007 .344 .61100009 .344 .53900006 C .344 .48200003 .305 .43400005 .245 .39900003 L .121 .47900004 M .26700003 .38400004 C .33900003 .42100004 .388 .47300006 .388 .53900006 C .388 .63100007 .29900003 .688 .208 .688 C .108 .688 .027000003 .614 .027000003 .521 C .027000003 .503 .029 .45800004 .071 .41100005 C .082 .39900003 .11900001 .37400005 .144 .35700003 C .086 .32800005 0 .272 0 .17300001 C 0 .067 .102000009 0 .20700002 0 C .32000003 0 .41500003 .083000008 .41500003 .19000001 C .41500003 .22600001 .404 .27100004 .36600004 .31300003 C .34700004 .33400003 .33100004 .34400005 .26700003 .38400004 M .167 .34200005 L .29000003 .26400004 C .31800003 .245 .365 .215 .365 .154 C .365 .080000009 .29000003 .028 .208 .028 C .122 .028 .050000006 .09 .050000006 .17300001 C .050000006 .231 .082 .29500003 .167 .34200005 Z "/>
</symbol>
<use xlink:href="#font_0_6" transform="matrix(9.9626,0,0,-9.9626,139.17644,99.410167)"/>
<symbol id="font_0_2">
<path d="M .205 .64000007 C .205 .66400006 .205 .666 .18200003 .666 C .120000008 .60200008 .032000007 .60200008 0 .60200008 L 0 .57100006 C .020000004 .57100006 .07900001 .57100006 .13100001 .597 L .13100001 .079 C .13100001 .043 .128 .031000002 .038000004 .031000002 L .0060000049 .031000002 L .0060000049 0 C .04100001 .003 .128 .003 .168 .003 C .20800002 .003 .29500003 .003 .33000005 0 L .33000005 .031000002 L .29800005 .031000002 C .20800002 .031000002 .205 .042000005 .205 .079 L .205 .64000007 Z "/>
</symbol>
<symbol id="font_0_1">
<path d="M .421 .34200005 C .421 .42200003 .416 .50200006 .381 .57600006 C .335 .67200008 .25300003 .688 .211 .688 C .15100001 .688 .07800001 .66200008 .037000006 .56900009 C .0050000029 .5 0 .42200003 0 .34200005 C 0 .26700003 .0040000008 .177 .045000007 .101 C .088 .020000002 .161 0 .21000001 0 C .264 0 .34 .021000002 .384 .116000007 C .416 .185 .421 .263 .421 .34200005 M .21000001 .022000002 C .171 .022000002 .112 .047000003 .094 .143 C .083000008 .20300001 .083000008 .29500003 .083000008 .35400004 C .083000008 .41800005 .083000008 .48400004 .091000009 .53800007 C .11 .65700009 .185 .66600009 .21000001 .66600009 C .243 .66600009 .30900003 .64800009 .328 .549 C .338 .49300004 .338 .41700004 .338 .35400004 C .338 .279 .338 .21100001 .32700003 .147 C .312 .052 .255 .022000002 .21000001 .022000002 Z "/>
</symbol>
<use xlink:href="#font_0_2" transform="matrix(9.9626,0,0,-9.9626,167.04167,99.19099)"/>
<use xlink:href="#font_0_1" transform="matrix(9.9626,0,0,-9.9626,171.52483,99.410167)"/>
<use xlink:href="#font_0_2" transform="matrix(9.9626,0,0,-9.9626,196.92967,99.19099)"/>
<use xlink:href="#font_0_3" transform="matrix(9.9626,0,0,-9.9626,201.52242,99.19099)"/>
<symbol id="font_1_1">
<path d="M .57600006 0 C .59300008 0 .611 0 .611 .019999996 C .611 .040000008 .59300008 .040000008 .57600006 .040000008 L .035000005 .040000008 C .018 .040000008 0 .040000008 0 .019999996 C 0 0 .018 0 .035000005 0 L .57600006 0 Z "/>
</symbol>
<use xlink:href="#font_1_1" transform="matrix(9.9626,0,0,-9.9626,4.147896,152.1816)"/>
<use xlink:href="#font_0_4" transform="matrix(9.9626,0,0,-9.9626,11.347953,154.47299)"/>
<use xlink:href="#font_1_1" transform="matrix(9.9626,0,0,-9.9626,4.147896,119.9046)"/>
<use xlink:href="#font_0_3" transform="matrix(9.9626,0,0,-9.9626,11.56713,122.196)"/>
<use xlink:href="#font_0_3" transform="matrix(9.9626,0,0,-9.9626,11.56713,58.058984)"/>
<use xlink:href="#font_0_4" transform="matrix(9.9626,0,0,-9.9626,11.347953,25.781998)"/>
<clipPath id="cp2">
<path transform="matrix(1,0,0,-1,6.753,167.816)" d="M 0 0 L 194.27399 0 L 194.27399 161.3842 L 0 161.3842 Z "/>
</clipPath>
<g clip-path="url(#cp2)">
<path transform="matrix(1,0,0,-1,6.753,167.816)" stroke-width="1" stroke-linecap="butt" stroke-miterlimit="10" stroke-linejoin="miter" fill="none" stroke="#000000" d="M 16.4874 43.98773 L 16.93335 48.14735 L 17.42816 51.73203 L 17.92299 54.66275 L 18.41779 57.14386 L 18.9126 59.29318 L 19.40738 61.1896 L 19.9022 62.88495 L 20.39702 64.42133 L 20.89182 65.82036 L 21.38663 67.11273 L 21.88144 68.30698 L 22.37624 69.41891 L 22.87105 70.45871 L 23.36584 71.43573 L 23.86066 72.35724 L 24.35548 73.2284 L 24.85027 74.05484 L 25.34508 74.84239 L 25.83987 75.59137 L 26.3347 76.3076 L 26.82951 76.99557 L 27.3243 77.65387 L 27.8191 78.28616 L 28.31393 78.89523 L 28.80873 79.48203 L 29.30354 80.04768 L 29.79834 80.59413 L 30.29314 81.12299 L 30.78796 81.63474 L 31.28276 82.13115 L 31.77757 82.61288 L 32.27237 83.08025 L 32.76717 83.53487 L 33.262 83.97707 L 33.75679 84.4073 L 34.2516 84.82562 L 34.7464 85.23474 L 35.24121 85.6327 L 35.73602 86.021 L 36.23082 86.39992 L 36.72563 86.77174 L 37.22043 87.13358 L 37.71524 87.48766 L 38.21005 87.83511 L 38.70485 88.17514 L 39.19966 88.50696 L 39.69446 88.83327 L 40.18927 89.15314 L 40.68408 89.46558 L 41.17888 89.77367 L 41.67369 90.0748 L 42.16849 90.37013 L 42.6633 90.65967 L 43.15813 90.94676 L 43.65291 91.22578 L 44.14772 91.50063 L 44.64252 91.77419 L 45.13733 92.04192 L 45.63216 92.30383 L 46.12694 92.56223 L 46.62175 92.81609 L 47.11655 93.06607 L 47.61136 93.31248 L 48.10619 93.55537 L 48.60098 93.79439 L 49.09578 94.02983 L 49.59058 94.26192 L 50.08539 94.49109 L 50.58022 94.71686 L 51.07501 94.93925 L 51.56981 95.15889 L 52.0646 95.37547 L 52.55942 95.58899 L 53.05424 95.79991 L 53.54904 96.00809 L 54.04385 96.21387 L 54.53864 96.41689 L 55.03345 96.61652 L 55.52827 96.815 L 56.02307 97.0103 L 56.51788 97.2033 L 57.01266 97.39438 L 57.50748 97.58353 L 58.0023 97.76944 L 58.4971 97.95422 L 58.99191 98.13562 L 59.48671 98.31638 L 59.9815 98.49437 L 60.47633 98.67078 L 60.97113 98.84538 L 61.46594 99.01823 L 61.96074 99.18817 L 62.45554 99.35779 L 62.95036 99.5253 L 63.44516 99.68925 L 63.93997 99.85355 L 64.43477 100.01703 L 64.92957 100.176 L 65.4244 100.33545 L 65.91919 100.49329 L 66.414 100.64822 L 66.9088 100.80362 L 67.40361 100.95645 L 67.89842 101.10735 L 68.39322 101.2584 L 68.88803 101.40688 L 69.38283 101.55244 L 69.87764 101.69946 L 70.37245 101.84473 L 70.86725 101.98674 L 71.36206 102.12907 L 71.85686 102.269 L 72.35167 102.40988 L 72.8465 102.5477 L 73.34128 102.6844 L 73.83609 102.82156 L 74.33089 102.95778 L 74.8257 103.09302 L 75.32053 103.22568 L 75.8153 103.35736 L 76.31012 103.48761 L 76.80492 103.61751 L 77.29973 103.74582 L 77.79456 103.87332 L 78.28935 103.99985 L 78.78415 104.12572 L 79.27895 104.24982 L 79.77376 104.3736 L 80.26859 104.49626 L 80.76338 104.61826 L 81.25818 104.73947 L 81.75298 104.85904 L 82.24779 104.9783 L 82.74261 105.09644 L 83.23741 105.21393 L 83.73221 105.33046 L 84.227 105.44615 L 84.72182 105.56122 L 85.21664 105.67484 L 85.71144 105.78847 L 86.20625 105.90045 L 86.70103 106.01198 L 87.19585 106.12334 L 87.69067 106.2334 L 88.18547 106.34282 L 88.68028 106.45158 L 89.17506 106.55939 L 89.66988 106.66655 L 90.1647 106.77322 L 90.6595 106.8791 L 91.15431 106.984 L 91.64911 107.08841 L 92.1439 107.1925 L 92.63873 107.2953 L 93.13353 107.39714 L 93.62834 107.49947 L 94.12314 107.60033 L 94.61794 107.70085 L 95.11276 107.8014 L 95.60756 107.90033 L 96.10237 107.99861 L 96.59717 108.09706 L 97.09198 108.19437 L 97.58679 108.29137 L 98.08159 108.38771 L 98.5764 108.48326 L 99.0712 108.57831 L 99.56601 108.67336 L 100.06082 108.76712 L 100.55562 108.86073 L 101.05043 108.95401 L 101.54523 109.04633 L 102.04004 109.13766 L 102.53485 109.23015 L 103.02965 109.32053 L 103.52446 109.41057 L 104.01926 109.50093 L 104.51407 109.58987 L 105.0089 109.67896 L 105.50368 109.76787 L 105.99849 109.85551 L 106.49329 109.94264 L 106.9881 110.02997 L 107.48293 110.11679 L 107.9777 110.20232 L 108.47252 110.28865 L 108.96732 110.37323 L 109.46213 110.45763 L 109.95695 110.54234 L 110.45175 110.62628 L 110.94655 110.70938 L 111.44135 110.79298 L 111.93616 110.8748 L 112.43098 110.95647 L 112.92578 111.03958 L 113.42058 111.12012 L 113.91537 111.20032 L 114.41019 111.28181 L 114.90501 111.36154 L 115.39981 111.44093 L 115.89462 111.521 L 116.3894 111.59927 L 116.88422 111.67786 L 117.37904 111.75482 L 117.87384 111.83342 L 118.36865 111.91057 L 118.86343 111.98708 L 119.35825 112.0647 L 119.85307 112.14102 L 120.34787 112.2159 L 120.84268 112.29272 L 121.33748 112.36777 L 121.83228 112.4412 L 122.3271 112.51755 L 122.8219 112.5913 L 123.31671 112.66423 L 123.81151 112.73895 L 124.3063 112.81126 L 124.80113 112.88339 L 125.29593 112.9573 L 125.79074 113.02896 L 126.28554 113.09949 L 126.78033 113.17323 L 127.27516 113.24344 L 127.76996 113.31349 L 128.26477 113.38579 L 128.75957 113.4555 L 129.25438 113.52441 L 129.74919 113.59511 L 130.24399 113.66417 L 130.7388 113.73259 L 131.2336 113.80328 L 131.72841 113.87123 L 132.22322 113.93771 L 132.71802 114.00809 L 133.21283 114.07489 L 133.70763 114.14107 L 134.20244 114.20932 L 134.69727 114.2776 L 135.19205 114.34424 L 135.68686 114.41042 L 136.18166 114.47626 L 136.67647 114.54195 L 137.1713 114.6073 L 137.66608 114.67282 L 138.16089 114.73753 L 138.65569 114.80225 L 139.1505 114.86647 L 139.64533 114.93105 L 140.14012 114.99463 L 140.63492 115.0582 L 141.12972 115.12163 L 141.62453 115.18472 L 142.11936 115.248 L 142.61415 115.31062 L 143.10895 115.37257 L 143.60375 115.43488 L 144.09856 115.4975 L 144.59339 115.5585 L 145.08818 115.62032 L 145.583 115.68147 L 146.07778 115.74248 L 146.57259 115.80348 L 147.06742 115.86383 L 147.56221 115.92386 L 148.05702 115.98424 L 148.5518 116.04443 L 149.04662 116.10365 L 149.54145 116.16338 L 150.03624 116.2226 L 150.53105 116.28134 L 151.02584 116.34024 L 151.52065 116.39899 L 152.01548 116.45692 L 152.51027 116.51566 L 153.00508 116.5736 L 153.49988 116.63089 L 153.99468 116.6885 L 154.4895 116.74612 L 154.9843 116.80276 L 155.47911 116.8599 L 155.9739 116.91687 L 156.4687 116.97351 L 156.96353 117.02985 L 157.45833 117.086 L 157.95314 117.14168 L 158.44794 117.19751 L 158.94275 117.25319 L 159.43756 117.30823 L 159.93236 117.36359 L 160.42717 117.41876 L 160.92197 117.47316 L 161.41678 117.52788 L 161.91159 117.58241 L 162.40639 117.63664 L 162.9012 117.69087 L 163.396 117.74477 L 163.89081 117.79819 L 163.93006 117.80247 "/>
<path transform="matrix(-.10657,.99428,.99428,.10657,23.2404,123.82826)" stroke-width="1" stroke-linecap="round" stroke-linejoin="round" fill="none" stroke="#000000" d="M -1.19551 1.59401 C -1.09587 .99626 0 .09961 .29886 0 C 0 -.09961 -1.09587 -.99626 -1.19551 -1.59401 "/>
<path transform="matrix(.99413,-.10794,-.10794,-.99413,170.68305,50.013536)" stroke-width="1" stroke-linecap="round" stroke-linejoin="round" fill="none" stroke="#000000" d="M -1.19551 1.59401 C -1.09587 .99626 0 .09961 .29886 0 C 0 -.09961 -1.09587 -.99626 -1.19551 -1.59401 "/>
</g>
<symbol id="font_3_1">
<path d="M .305 .31300003 C .311 .33900003 .334 .43100003 .404 .43100003 C .409 .43100003 .433 .43100003 .454 .418 C .426 .41300003 .40600003 .388 .40600003 .36400003 C .40600003 .34800003 .417 .32900004 .444 .32900004 C .46600003 .32900004 .498 .34700004 .498 .38700003 C .498 .43900005 .439 .45300005 .405 .45300005 C .347 .45300005 .312 .40000005 .3 .37700004 C .275 .44300003 .221 .45300005 .19200002 .45300005 C .08800001 .45300005 .031000002 .32400004 .031000002 .29900003 C .031000002 .28900004 .041 .28900004 .043000007 .28900004 C .051000008 .28900004 .054000006 .291 .056 .3 C .09 .40600003 .156 .43100003 .19000001 .43100003 C .209 .43100003 .244 .42200003 .244 .36400003 C .244 .33300004 .22700002 .26600004 .19000001 .126 C .17400001 .064 .13900002 .022000002 .095000009 .022000002 C .08900001 .022000002 .06600001 .022000002 .045 .035 C .07000001 .040000004 .09200001 .061 .09200001 .089 C .09200001 .116000007 .07000001 .124000009 .055000009 .124000009 C .025 .124000009 0 .098000008 0 .06600001 C 0 .020000002 .050000006 0 .094000007 0 C .16000001 0 .19600001 .07000001 .19900002 .076000008 C .21100001 .039 .24700003 0 .307 0 C .41 0 .467 .12900001 .467 .15400002 C .467 .16400002 .458 .16400002 .455 .16400002 C .446 .16400002 .444 .16000001 .442 .15300001 C .409 .046 .341 .022000002 .30900003 .022000002 C .27 .022000002 .254 .054 .254 .08800001 C .254 .11000001 .26 .13200002 .271 .17600002 L .305 .31300003 Z "/>
</symbol>
<use xlink:href="#font_3_1" transform="matrix(9.9626,0,0,-9.9626,198.46591,83.714588)"/>
<symbol id="font_3_2">
<path d="M .45700003 .586 C .461 .6 .461 .602 .461 .609 C .461 .62700006 .447 .63600006 .432 .63600006 C .42200003 .63600006 .40600003 .63 .397 .615 C .395 .61 .387 .579 .38300003 .561 C .37600003 .535 .36900003 .508 .363 .48100005 L .318 .301 C .314 .286 .271 .21600002 .20500002 .21600002 C .15400002 .21600002 .143 .26000003 .143 .29700003 C .143 .34300003 .16000001 .40500004 .194 .49300004 C .21000001 .53400006 .21400002 .545 .21400002 .56500008 C .21400002 .61 .18200001 .6470001 .13200002 .6470001 C .037 .6470001 0 .50200006 0 .49300004 C 0 .48300005 .01 .48300005 .012 .48300005 C .022000002 .48300005 .023 .485 .028000003 .50100007 C .055000009 .595 .095000009 .625 .12900001 .625 C .13700001 .625 .15400002 .625 .15400002 .59300008 C .15400002 .568 .14400001 .54200008 .13700001 .523 C .097 .41700004 .079 .36 .079 .31300003 C .079 .224 .142 .194 .201 .194 C .24000003 .194 .274 .21100001 .30200003 .23900002 C .289 .187 .277 .13800001 .237 .08500001 C .21100001 .051 .17300001 .022 .127 .022 C .113000009 .022 .068 .025000006 .051000008 .06400001 C .067 .06400001 .080000009 .06400001 .094000007 .076000008 C .104 .08500001 .11400001 .098000008 .11400001 .117000009 C .11400001 .148 .087000008 .15200001 .07700001 .15200001 C .054000006 .15200001 .021 .136 .021 .087000008 C .021 .037 .065000008 0 .127 0 C .23 0 .333 .091000009 .361 .20400001 L .45700003 .586 Z "/>
</symbol>
<use xlink:href="#font_3_2" transform="matrix(9.9626,0,0,-9.9626,29.989916,9.652334)"/>
</svg>
