<?xml version="1.0" encoding="UTF-8" standalone="no"?>
<!DOCTYPE svg PUBLIC "-//W3C//DTD SVG 1.1//EN" "http://www.w3.org/Graphics/SVG/1.1/DTD/svg11.dtd">
<svg xmlns="http://www.w3.org/2000/svg" xmlns:xlink="http://www.w3.org/1999/xlink" version="1.1" width="210.12pt" height="174.769pt" viewBox="0 0 210.12 174.769">
<path transform="matrix(1,0,0,-1,9.686,167.823)" stroke-width="1" stroke-linecap="butt" stroke-miterlimit="10" stroke-linejoin="miter" fill="none" stroke="#808080" d="M 24.28363 48.24135 L 24.28363 51.0762 M 72.8509 48.24135 L 72.8509 51.0762 M 121.4182 48.24135 L 121.4182 51.0762 M 169.98548 48.24135 L 169.98548 51.0762 "/>
<path transform="matrix(1,0,0,-1,9.686,167.823)" stroke-width="1" stroke-linecap="butt" stroke-miterlimit="10" stroke-linejoin="miter" fill="none" stroke="#808080" d="M 0 47.53284 L 0 51.7847 M 48.56728 47.53284 L 48.56728 51.7847 M 145.70183 47.53284 L 145.70183 51.7847 M 194.26912 47.53284 L 194.26912 51.7847 "/>
<path transform="matrix(1,0,0,-1,9.686,167.823)" stroke-width="1" stroke-linecap="butt" stroke-miterlimit="10" stroke-linejoin="miter" fill="none" stroke="#808080" d="M 95.7171 24.82938 L 98.552 24.82938 M 95.7171 74.48816 L 98.552 74.48816 M 95.7171 124.14694 L 98.552 124.14694 "/>
<path transform="matrix(1,0,0,-1,9.686,167.823)" stroke-width="1" stroke-linecap="butt" stroke-miterlimit="10" stroke-linejoin="miter" fill="none" stroke="#808080" d="M 95.0086 0 L 99.26048 0 M 95.0086 99.31755 L 99.26048 99.31755 M 95.0086 148.97634 L 99.26048 148.97634 "/>
<path transform="matrix(1,0,0,-1,9.686,167.823)" stroke-width="1" stroke-linecap="butt" stroke-miterlimit="10" stroke-linejoin="miter" fill="none" stroke="#000000" d="M 0 49.65877 L 192.2766 49.65877 "/>
<path transform="matrix(1,0,0,-1,201.9626,118.16423)" d="M 1.99252 0 L -1.19551 1.59401 L 0 0 L -1.19551 -1.59401 "/>
<path transform="matrix(1,0,0,-1,9.686,167.823)" stroke-width="1" stroke-linecap="butt" stroke-miterlimit="10" stroke-linejoin="miter" fill="none" stroke="#000000" d="M 97.13455 0 L 97.13455 159.39852 "/>
<path transform="matrix(0,-1,-1,-0,106.82055,8.424484)" d="M 1.99252 0 L -1.19551 1.59401 L 0 0 L -1.19551 -1.59401 "/>
<symbol id="font_0_1">
<path d="M .57600006 0 C .59300008 0 .611 0 .611 .019999996 C .611 .040000008 .59300008 .040000008 .57600006 .040000008 L .035000005 .040000008 C .018 .040000008 0 .040000008 0 .019999996 C 0 0 .018 0 .035000005 0 L .57600006 0 Z "/>
</symbol>
<use xlink:href="#font_0_1" transform="matrix(9.9626,0,0,-9.9626,4.147896,127.939609)"/>
<symbol id="font_1_2">
<path d="M .266 .165 L .266 .078 C .266 .042000005 .26400004 .031000002 .19000001 .031000002 L .16900002 .031000002 L .16900002 0 C .21000001 .003 .26200003 .003 .30400003 .003 C .34600003 .003 .39900003 .003 .44000004 0 L .44000004 .031000002 L .41900004 .031000002 C .34500004 .031000002 .34300003 .042000005 .34300003 .078 L .34300003 .165 L .44300003 .165 L .44300003 .19600001 L .34300003 .19600001 L .34300003 .651 C .34300003 .671 .34300003 .67700007 .32700003 .67700007 C .31800003 .67700007 .31500004 .67700007 .307 .665 L 0 .19600001 L 0 .165 L .266 .165 M .272 .19600001 L .028 .19600001 L .272 .569 L .272 .19600001 Z "/>
</symbol>
<use xlink:href="#font_1_2" transform="matrix(9.9626,0,0,-9.9626,11.347953,130.231)"/>
<use xlink:href="#font_0_1" transform="matrix(9.9626,0,0,-9.9626,52.713899,127.939609)"/>
<symbol id="font_1_1">
<path d="M .07700001 .07700001 L .18300002 .18 C .33900003 .31800003 .39900003 .372 .39900003 .47200004 C .39900003 .586 .30900003 .666 .18700002 .666 C .074 .666 0 .574 0 .485 C 0 .42900003 .05 .42900003 .053000008 .42900003 C .07000001 .42900003 .105000007 .441 .105000007 .48200003 C .105000007 .508 .08700001 .53400006 .052000006 .53400006 C .044000005 .53400006 .042000008 .53400006 .039 .53300008 C .062000004 .59800007 .11600001 .63500007 .17400001 .63500007 C .26500003 .63500007 .308 .554 .308 .47200004 C .308 .39200003 .25800003 .31300003 .20300003 .25100003 L .011000004 .037 C 0 .026 0 .024 0 0 L .37100003 0 L .39900003 .17400001 L .374 .17400001 C .36900003 .14400001 .36200003 .1 .352 .085 C .345 .07700001 .279 .07700001 .257 .07700001 L .07700001 .07700001 Z "/>
</symbol>
<use xlink:href="#font_1_1" transform="matrix(9.9626,0,0,-9.9626,60.134134,130.231)"/>
<use xlink:href="#font_1_1" transform="matrix(9.9626,0,0,-9.9626,153.39313,130.231)"/>
<use xlink:href="#font_1_2" transform="matrix(9.9626,0,0,-9.9626,201.74095,130.231)"/>
<use xlink:href="#font_0_1" transform="matrix(9.9626,0,0,-9.9626,89.2699,168.3266)"/>
<use xlink:href="#font_1_1" transform="matrix(9.9626,0,0,-9.9626,96.69013,170.618)"/>
<use xlink:href="#font_1_1" transform="matrix(9.9626,0,0,-9.9626,96.690128,71.716999)"/>
<use xlink:href="#font_1_2" transform="matrix(9.9626,0,0,-9.9626,96.47095,22.05899)"/>
<clipPath id="cp2">
<path transform="matrix(1,0,0,-1,9.686,167.823)" d="M 0 0 L 194.26912 0 L 194.26912 161.39104 L 0 161.39104 Z "/>
</clipPath>
<g clip-path="url(#cp2)">
<path transform="matrix(1,0,0,-1,9.686,167.823)" stroke-width="1" stroke-linecap="butt" stroke-miterlimit="10" stroke-linejoin="miter" fill="none" stroke="#000000" d="M 12.19379 126.01956 L 12.62909 122.20847 L 13.1164 118.05185 L 13.60368 114.00433 L 14.09097 110.06459 L 14.57826 106.2311 L 15.06557 102.5011 L 15.55284 98.8739 L 16.04015 95.34813 L 16.52744 91.92197 L 17.01472 88.59442 L 17.50201 85.3633 L 17.98932 82.22726 L 18.4766 79.18565 L 18.9639 76.2367 L 19.45119 73.37856 L 19.93848 70.60994 L 20.42577 67.92941 L 20.91307 65.33574 L 21.40034 62.82738 L 21.88765 60.40306 L 22.37494 58.06136 L 22.86223 55.80086 L 23.34952 53.62029 L 23.83682 51.51825 L 24.3241 49.49356 L 24.8114 47.54459 L 25.29869 45.67017 L 25.78598 43.86897 L 26.27327 42.13979 L 26.76057 40.48126 L 27.24785 38.89207 L 27.73515 37.37105 L 28.22244 35.91684 L 28.70973 34.52826 L 29.19704 33.20409 L 29.68431 31.94298 L 30.17162 30.74376 L 30.6589 29.60526 L 31.1462 28.52618 L 31.63348 27.50548 L 32.12079 26.54182 L 32.60806 25.63419 L 33.09537 24.78125 L 33.58266 23.98196 L 34.06995 23.23526 L 34.55724 22.53973 L 35.04454 21.89452 L 35.53181 21.29837 L 36.01912 20.7502 L 36.50641 20.249 L 36.9937 19.79356 L 37.48099 19.38283 L 37.96829 19.01578 L 38.45557 18.69136 L 38.94287 18.40854 L 39.43016 18.16621 L 39.91745 17.96336 L 40.40474 17.79898 L 40.89204 17.67209 L 41.37932 17.58167 L 41.86662 17.52669 L 42.35391 17.50623 L 42.8412 17.5193 L 43.3285 17.56496 L 43.81578 17.64221 L 44.30309 17.75014 L 44.79037 17.88779 L 45.27766 18.05426 L 45.76495 18.24866 L 46.25226 18.47006 L 46.73953 18.71753 L 47.22684 18.99025 L 47.71413 19.28735 L 48.20142 19.60791 L 48.6887 19.9511 L 49.17601 20.3161 L 49.66328 20.702 L 50.15059 21.10803 L 50.63788 21.53343 L 51.12517 21.97731 L 51.61246 22.43889 L 52.09976 22.91739 L 52.58704 23.412 L 53.07434 23.92207 L 53.56163 24.44669 L 54.04892 24.98512 L 54.53621 25.53676 L 55.02351 26.10078 L 55.51079 26.6765 L 55.9981 27.26317 L 56.48538 27.86012 L 56.97267 28.46666 L 57.45996 29.08209 L 57.94727 29.70575 L 58.43456 30.33698 L 58.92184 30.97505 L 59.40913 31.61948 L 59.89642 32.26952 L 60.38373 32.92459 L 60.871 33.58406 L 61.3583 34.24736 L 61.8456 34.91383 L 62.33289 35.58293 L 62.82018 36.25407 L 63.30748 36.92671 L 63.79475 37.60022 L 64.28206 38.27417 L 64.76935 38.94797 L 65.25664 39.62108 L 65.74393 40.29298 L 66.23123 40.9632 L 66.7185 41.63121 L 67.20581 42.29654 L 67.6931 42.9587 L 68.18039 43.61716 L 68.66768 44.2716 L 69.15498 44.9215 L 69.64226 45.5664 L 70.12956 46.2059 L 70.61685 46.83957 L 71.10414 47.467 L 71.59143 48.08778 L 72.07874 48.70154 L 72.56601 49.30789 L 73.05331 49.90642 L 73.54062 50.49683 L 74.0279 51.07874 L 74.5152 51.6518 L 75.00249 52.21568 L 75.48978 52.77007 L 75.97707 53.31467 L 76.46436 53.84912 L 76.95164 54.37318 L 77.43895 54.88654 L 77.92622 55.38893 L 78.41353 55.8801 L 78.90082 56.35976 L 79.3881 56.82768 L 79.8754 57.28365 L 80.3627 57.72739 L 80.84999 58.15875 L 81.33728 58.57745 L 81.82458 58.98335 L 82.31186 59.37624 L 82.79916 59.75594 L 83.28645 60.12227 L 83.77374 60.47508 L 84.26103 60.81424 L 84.74834 61.13962 L 85.23561 61.45102 L 85.72292 61.7484 L 86.21022 62.03159 L 86.6975 62.3005 L 87.1848 62.55508 L 87.67209 62.79521 L 88.15938 63.02084 L 88.64667 63.23189 L 89.13397 63.4283 L 89.62125 63.61005 L 90.10855 63.7771 L 90.59584 63.9294 L 91.08313 64.06699 L 91.57043 64.1898 L 92.05771 64.29788 L 92.54501 64.39124 L 93.0323 64.4699 L 93.51959 64.53389 L 94.00688 64.58325 L 94.49419 64.61806 L 94.98146 64.63834 L 95.46877 64.64418 L 95.95605 64.63568 L 96.44334 64.61293 L 96.93065 64.57602 L 97.41794 64.52507 L 97.90523 64.46017 L 98.39252 64.3815 L 98.87982 64.28915 L 99.3671 64.18332 L 99.8544 64.06415 L 100.34169 63.9318 L 100.82898 63.78644 L 101.31627 63.62828 L 101.80357 63.45752 L 102.29085 63.27437 L 102.77815 63.07903 L 103.26544 62.87172 L 103.75273 62.65271 L 104.24004 62.42223 L 104.72733 62.18053 L 105.21461 61.92787 L 105.7019 61.66454 L 106.18921 61.39084 L 106.67648 61.10704 L 107.16379 60.81346 L 107.65106 60.51039 L 108.13837 60.19818 L 108.62566 59.87717 L 109.11295 59.54768 L 109.60025 59.21005 L 110.08754 58.8647 L 110.57483 58.51193 L 111.06212 58.15219 L 111.54942 57.78583 L 112.0367 57.41325 L 112.524 57.0349 L 113.01129 56.65115 L 113.49858 56.26247 L 113.98589 55.86926 L 114.47318 55.47203 L 114.96046 55.07118 L 115.44775 54.6672 L 115.93506 54.26057 L 116.42233 53.85179 L 116.90964 53.44135 L 117.39693 53.02974 L 117.88422 52.61751 L 118.3715 52.20515 L 118.85881 51.79323 L 119.34608 51.38226 L 119.83339 50.97285 L 120.3207 50.5655 L 120.80797 50.16086 L 121.29527 49.75945 L 121.78256 49.36188 L 122.26985 48.96878 L 122.75714 48.58073 L 123.24443 48.1984 L 123.73172 47.82236 L 124.21902 47.45331 L 124.7063 47.09184 L 125.1936 46.7387 L 125.6809 46.39449 L 126.16818 46.0599 L 126.65547 45.73567 L 127.14278 45.42245 L 127.63005 45.12099 L 128.11736 44.83195 L 128.60465 44.5561 L 129.09194 44.29419 L 129.57923 44.04697 L 130.06653 43.81519 L 130.5538 43.59958 L 131.0411 43.40097 L 131.5284 43.22014 L 132.01569 43.05786 L 132.50298 42.91496 L 132.99028 42.79225 L 133.47756 42.69057 L 133.96486 42.61073 L 134.45215 42.5536 L 134.93944 42.52002 L 135.42675 42.51086 L 135.91403 42.527 L 136.40132 42.56932 L 136.88861 42.6387 L 137.37592 42.73607 L 137.86319 42.86234 L 138.3505 43.0184 L 138.83777 43.20523 L 139.32508 43.42375 L 139.81237 43.67491 L 140.29965 43.95966 L 140.78694 44.279 L 141.27425 44.63391 L 141.76152 45.02528 L 142.24883 45.45428 L 142.73612 45.92184 L 143.2234 46.42894 L 143.7107 46.97667 L 144.198 47.56606 L 144.68527 48.19814 L 145.17258 48.87396 L 145.65987 49.59459 L 146.14716 50.36115 L 146.63445 51.17462 L 147.12175 52.03622 L 147.60903 52.94702 L 148.09633 53.90814 L 148.58362 54.92068 L 149.0709 55.98582 L 149.5582 57.10463 L 150.0455 58.27832 L 150.53279 59.50806 L 151.02008 60.795 L 151.50739 62.14023 L 151.99466 63.54515 L 152.48197 65.01083 L 152.96926 66.53856 L 153.45655 68.12949 L 153.94384 69.78487 L 154.43112 71.50595 L 154.91841 73.294 L 155.40572 75.15027 L 155.89299 77.076 L 156.3803 79.07233 L 156.86759 81.14087 L 157.35488 83.28279 L 157.7438 85.05177 "/>
<path transform="matrix(-.11343,-.99348,-.99348,.11343,21.879792,41.803438)" stroke-width="1" stroke-linecap="round" stroke-linejoin="round" fill="none" stroke="#000000" d="M -1.19551 1.59401 C -1.09587 .99626 0 .09961 .29886 0 C 0 -.09961 -1.09587 -.99626 -1.19551 -1.59401 "/>
<path transform="matrix(.21465,-.97662,-.97662,-.21465,167.4298,82.771228)" stroke-width="1" stroke-linecap="round" stroke-linejoin="round" fill="none" stroke="#000000" d="M -1.19551 1.59401 C -1.09587 .99626 0 .09961 .29886 0 C 0 -.09961 -1.09587 -.99626 -1.19551 -1.59401 "/>
<symbol id="font_1_3">
<path d="M .36600004 .69600006 C .361 .70900008 .35900004 .716 .34300003 .716 C .32700003 .716 .324 .71000006 .319 .69600006 L .112 .098000008 C .094 .047000003 .054 .032 0 .031000002 L 0 0 C .023000002 .001 .066 .003 .102 .003 C .133 .003 .185 .001 .21700001 0 L .21700001 .031000002 C .16700001 .031000002 .142 .056 .142 .082 C .142 .085 .143 .095000009 .14400001 .097 L .19000001 .22800002 L .437 .22800002 L .49 .075 C .491 .071 .49300004 .065000008 .49300004 .061000006 C .49300004 .031000002 .437 .031000002 .41000004 .031000002 L .41000004 0 C .446 .003 .51600006 .003 .554 .003 C .597 .003 .643 .002 .685 0 L .685 .031000002 L .66700008 .031000002 C .60700008 .031000002 .593 .038000004 .582 .071 L .36600004 .69600006 M .31300003 .58400008 L .42600004 .259 L .201 .259 L .31300003 .58400008 Z "/>
</symbol>
<use xlink:href="#font_1_3" transform="matrix(9.9626,0,0,-9.9626,30.551806,71.910999)"/>
<symbol id="font_1_4">
<path d="M .18600002 .36600004 L .18600002 .61200007 C .18600002 .64500007 .18800001 .652 .23500003 .652 L .359 .652 C .456 .652 .491 .56700006 .491 .514 C .491 .45000003 .442 .36600004 .331 .36600004 L .18600002 .36600004 M .42200003 .35700003 C .519 .37600003 .588 .44000004 .588 .514 C .588 .601 .496 .683 .366 .683 L 0 .683 L 0 .652 L .024 .652 C .10100001 .652 .103000018 .64100006 .103000018 .605 L .103000018 .078 C .103000018 .042000005 .10100001 .031000002 .024 .031000002 L 0 .031000002 L 0 0 L .39200003 0 C .52500006 0 .615 .089 .615 .18300002 C .615 .27 .533 .34500004 .42200003 .35700003 M .36 .031000002 L .23500003 .031000002 C .18800001 .031000002 .18600002 .038000004 .18600002 .071 L .18600002 .344 L .374 .344 C .473 .344 .515 .25100003 .515 .18400002 C .515 .113000009 .463 .031000002 .36 .031000002 Z "/>
</symbol>
<use xlink:href="#font_1_4" transform="matrix(9.9626,0,0,-9.9626,79.36565,133.983)"/>
<symbol id="font_1_5">
<path d="M 0 .36400003 C 0 .157 .162 0 .34800003 0 C .51100006 0 .609 .13900002 .609 .25500003 C .609 .26500003 .609 .272 .596 .272 C .58500006 .272 .58500006 .26600004 .58400008 .256 C .57600006 .113000009 .46900005 .031000004 .36 .031000004 C .29900003 .031000004 .10300001 .065000008 .10300001 .36300005 C .10300001 .66200008 .298 .69600006 .35900004 .69600006 C .46800006 .69600006 .55700007 .605 .577 .45900003 C .57900008 .44500003 .57900008 .44200004 .59300008 .44200004 C .609 .44200004 .609 .44500003 .609 .46600006 L .609 .70300009 C .609 .72 .609 .72700008 .59800007 .72700008 C .59400007 .72700008 .59000006 .72700008 .582 .71500006 L .532 .64100006 C .495 .67700007 .444 .72700008 .34800003 .72700008 C .16100002 .72700008 0 .568 0 .36400003 Z "/>
</symbol>
<use xlink:href="#font_1_5" transform="matrix(9.9626,0,0,-9.9626,128.0629,114.33917)"/>
<symbol id="font_1_6">
<path d="M 0 .683 L 0 .652 L .024000004 .652 C .10100001 .652 .103000018 .64100006 .103000018 .605 L .103000018 .078 C .103000018 .042000005 .10100001 .031000002 .024000004 .031000002 L 0 .031000002 L 0 0 L .36600004 0 C .534 0 .672 .148 .672 .33600004 C .672 .526 .537 .683 .36600004 .683 L 0 .683 M .238 .031000002 C .19100002 .031000002 .18900001 .038000004 .18900001 .071 L .18900001 .61200007 C .18900001 .64500007 .19100002 .652 .238 .652 L .33800004 .652 C .40000005 .652 .469 .63000008 .52 .559 C .563 .5 .572 .41400004 .572 .33600004 C .572 .22500001 .553 .165 .517 .116000007 C .497 .089 .44000004 .031000002 .33900003 .031000002 L .238 .031000002 Z "/>
</symbol>
<use xlink:href="#font_1_6" transform="matrix(9.9626,0,0,-9.9626,168.9277,104.188999)"/>
</g>
<symbol id="font_3_1">
<path d="M .305 .31300003 C .311 .33900003 .334 .43100003 .404 .43100003 C .409 .43100003 .433 .43100003 .454 .418 C .426 .41300003 .40600003 .388 .40600003 .36400003 C .40600003 .34800003 .417 .32900004 .444 .32900004 C .46600003 .32900004 .498 .34700004 .498 .38700003 C .498 .43900005 .439 .45300005 .405 .45300005 C .347 .45300005 .312 .40000005 .3 .37700004 C .275 .44300003 .221 .45300005 .19200002 .45300005 C .08800001 .45300005 .031000002 .32400004 .031000002 .29900003 C .031000002 .28900004 .041 .28900004 .043000007 .28900004 C .051000008 .28900004 .054000006 .291 .056 .3 C .09 .40600003 .156 .43100003 .19000001 .43100003 C .209 .43100003 .244 .42200003 .244 .36400003 C .244 .33300004 .22700002 .26600004 .19000001 .126 C .17400001 .064 .13900002 .022000002 .095000009 .022000002 C .08900001 .022000002 .06600001 .022000002 .045 .035 C .07000001 .040000004 .09200001 .061 .09200001 .089 C .09200001 .116000007 .07000001 .124000009 .055000009 .124000009 C .025 .124000009 0 .098000008 0 .06600001 C 0 .020000002 .050000006 0 .094000007 0 C .16000001 0 .19600001 .07000001 .19900002 .076000008 C .21100001 .039 .24700003 0 .307 0 C .41 0 .467 .12900001 .467 .15400002 C .467 .16400002 .458 .16400002 .455 .16400002 C .446 .16400002 .444 .16000001 .442 .15300001 C .409 .046 .341 .022000002 .30900003 .022000002 C .27 .022000002 .254 .054 .254 .08800001 C .254 .11000001 .26 .13200002 .271 .17600002 L .305 .31300003 Z "/>
</symbol>
<use xlink:href="#font_3_1" transform="matrix(9.9626,0,0,-9.9626,201.39392,148.27259)"/>
<symbol id="font_3_2">
<path d="M .45700003 .586 C .461 .6 .461 .602 .461 .609 C .461 .62700006 .447 .63600006 .432 .63600006 C .42200003 .63600006 .40600003 .63 .397 .615 C .395 .61 .387 .579 .38300003 .561 C .37600003 .535 .36900003 .508 .363 .48100005 L .318 .301 C .314 .286 .271 .21600002 .20500002 .21600002 C .15400002 .21600002 .143 .26000003 .143 .29700003 C .143 .34300003 .16000001 .40500004 .194 .49300004 C .21000001 .53400006 .21400002 .545 .21400002 .56500008 C .21400002 .61 .18200001 .6470001 .13200002 .6470001 C .037 .6470001 0 .50200006 0 .49300004 C 0 .48300005 .01 .48300005 .012 .48300005 C .022000002 .48300005 .023 .485 .028000003 .50100007 C .055000009 .595 .095000009 .625 .12900001 .625 C .13700001 .625 .15400002 .625 .15400002 .59300008 C .15400002 .568 .14400001 .54200008 .13700001 .523 C .097 .41700004 .079 .36 .079 .31300003 C .079 .224 .142 .194 .201 .194 C .24000003 .194 .274 .21100001 .30200003 .23900002 C .289 .187 .277 .13800001 .237 .08500001 C .21100001 .051 .17300001 .022 .127 .022 C .113000009 .022 .068 .025000006 .051000008 .06400001 C .067 .06400001 .080000009 .06400001 .094000007 .076000008 C .104 .08500001 .11400001 .098000008 .11400001 .117000009 C .11400001 .148 .087000008 .15200001 .07700001 .15200001 C .054000006 .15200001 .021 .136 .021 .087000008 C .021 .037 .065000008 0 .127 0 C .23 0 .333 .091000009 .361 .20400001 L .45700003 .586 Z "/>
</symbol>
<use xlink:href="#font_3_2" transform="matrix(9.9626,0,0,-9.9626,110.627918,9.652334)"/>
</svg>
