<?xml version="1.0" encoding="UTF-8" standalone="no"?>
<!DOCTYPE svg PUBLIC "-//W3C//DTD SVG 1.1//EN" "http://www.w3.org/Graphics/SVG/1.1/DTD/svg11.dtd">
<svg xmlns="http://www.w3.org/2000/svg" xmlns:xlink="http://www.w3.org/1999/xlink" version="1.1" width="206.559pt" height="168.639pt" viewBox="0 0 206.559 168.639">
<path transform="matrix(1,0,0,-1,3.985,167.92401)" stroke-width="1" stroke-linecap="butt" stroke-miterlimit="10" stroke-linejoin="miter" fill="none" stroke="#808080" d="M 0 13.25464 L 0 16.09004 M 29.8883 13.25464 L 29.8883 16.09004 M 59.77661 13.25464 L 59.77661 16.09004 M 89.66492 13.25464 L 89.66492 16.09004 M 119.55322 13.25464 L 119.55322 16.09004 M 149.44153 13.25464 L 149.44153 16.09004 M 179.32984 13.25464 L 179.32984 16.09004 "/>
<path transform="matrix(1,0,0,-1,3.985,167.92401)" stroke-width="1" stroke-linecap="butt" stroke-miterlimit="10" stroke-linejoin="miter" fill="none" stroke="#808080" d="M 44.83246 12.54599 L 44.83246 16.79866 M 74.72076 12.54599 L 74.72076 16.79866 M 104.60907 12.54599 L 104.60907 16.79866 M 134.49738 12.54599 L 134.49738 16.79866 M 164.38568 12.54599 L 164.38568 16.79866 M 194.27399 12.54599 L 194.27399 16.79866 "/>
<path transform="matrix(1,0,0,-1,3.985,167.92401)" stroke-width="1" stroke-linecap="butt" stroke-miterlimit="10" stroke-linejoin="miter" fill="none" stroke="#808080" d="M 13.52658 0 L 16.36172 0 M 13.52658 29.34468 L 16.36172 29.34468 M 13.52658 58.68936 L 16.36172 58.68936 M 13.52658 88.03404 L 16.36172 88.03404 M 13.52658 117.37872 L 16.36172 117.37872 M 13.52658 146.7234 L 16.36172 146.7234 "/>
<path transform="matrix(1,0,0,-1,3.985,167.92401)" stroke-width="1" stroke-linecap="butt" stroke-miterlimit="10" stroke-linejoin="miter" fill="none" stroke="#808080" d="M 12.81796 44.01701 L 17.07031 44.01701 M 12.81796 73.3617 L 17.07031 73.3617 M 12.81796 102.70638 L 17.07031 102.70638 M 12.81796 132.05107 L 17.07031 132.05107 M 12.81796 161.39575 L 17.07031 161.39575 "/>
<path transform="matrix(1,0,0,-1,3.985,167.92401)" stroke-width="1" stroke-linecap="butt" stroke-miterlimit="10" stroke-linejoin="miter" fill="none" stroke="#000000" d="M 0 14.67233 L 192.28145 14.67233 "/>
<path transform="matrix(1,0,0,-1,196.26645,153.25168)" d="M 1.99252 0 L -1.19551 1.59401 L 0 0 L -1.19551 -1.59401 "/>
<path transform="matrix(1,0,0,-1,3.985,167.92401)" stroke-width="1" stroke-linecap="butt" stroke-miterlimit="10" stroke-linejoin="miter" fill="none" stroke="#000000" d="M 14.94415 0 L 14.94415 159.40323 "/>
<path transform="matrix(0,-1,-1,-0,18.92915,8.520782)" d="M 1.99252 0 L -1.19551 1.59401 L 0 0 L -1.19551 -1.59401 "/>
<symbol id="font_0_3">
<path d="M .07700001 .07700001 L .18300002 .18 C .33900003 .31800003 .39900003 .372 .39900003 .47200004 C .39900003 .586 .30900003 .666 .18700002 .666 C .074 .666 0 .574 0 .485 C 0 .42900003 .05 .42900003 .053000008 .42900003 C .07000001 .42900003 .105000007 .441 .105000007 .48200003 C .105000007 .508 .08700001 .53400006 .052000006 .53400006 C .044000005 .53400006 .042000008 .53400006 .039 .53300008 C .062000004 .59800007 .11600001 .63500007 .17400001 .63500007 C .26500003 .63500007 .308 .554 .308 .47200004 C .308 .39200003 .25800003 .31300003 .20300003 .25100003 L .011000004 .037 C 0 .026 0 .024 0 0 L .37100003 0 L .39900003 .17400001 L .374 .17400001 C .36900003 .14400001 .36200003 .1 .352 .085 C .345 .07700001 .279 .07700001 .257 .07700001 L .07700001 .07700001 Z "/>
</symbol>
<use xlink:href="#font_0_3" transform="matrix(9.9626,0,0,-9.9626,46.82413,165.31801)"/>
<symbol id="font_0_4">
<path d="M .266 .165 L .266 .078 C .266 .042000005 .26400004 .031000002 .19000001 .031000002 L .16900002 .031000002 L .16900002 0 C .21000001 .003 .26200003 .003 .30400003 .003 C .34600003 .003 .39900003 .003 .44000004 0 L .44000004 .031000002 L .41900004 .031000002 C .34500004 .031000002 .34300003 .042000005 .34300003 .078 L .34300003 .165 L .44300003 .165 L .44300003 .19600001 L .34300003 .19600001 L .34300003 .651 C .34300003 .671 .34300003 .67700007 .32700003 .67700007 C .31800003 .67700007 .31500004 .67700007 .307 .665 L 0 .19600001 L 0 .165 L .266 .165 M .272 .19600001 L .028 .19600001 L .272 .569 L .272 .19600001 Z "/>
</symbol>
<use xlink:href="#font_0_4" transform="matrix(9.9626,0,0,-9.9626,76.49295,165.31801)"/>
<symbol id="font_0_5">
<path d="M .089999999 .35000003 L .089999999 .37400005 C .089999999 .62700006 .21400002 .66300007 .26500003 .66300007 C .28900004 .66300007 .33100004 .65700009 .35300002 .623 C .33800004 .623 .298 .623 .298 .57800009 C .298 .54700008 .32200004 .53200009 .344 .53200009 C .36 .53200009 .39000003 .54100009 .39000003 .58000007 C .39000003 .64000007 .34600003 .688 .263 .688 C .13499999 .688 0 .559 0 .33800004 C 0 .071 .116000007 0 .20900002 0 C .32000003 0 .41500003 .094000007 .41500003 .22600001 C .41500003 .35300005 .32600004 .44900004 .215 .44900004 C .14700002 .44900004 .11000001 .39800004 .089999999 .35000003 M .20900002 .028 C .146 .028 .116000007 .088 .11000001 .103 C .092 .15 .092 .23 .092 .24800001 C .092 .32600004 .124000009 .42600004 .21400002 .42600004 C .23000002 .42600004 .27600003 .42600004 .307 .36400003 C .32500003 .32700003 .32500003 .27600003 .32500003 .22700002 C .32500003 .179 .32500003 .12900001 .30800004 .093 C .27800004 .033000005 .23200003 .028 .20900002 .028 Z "/>
</symbol>
<use xlink:href="#font_0_5" transform="matrix(9.9626,0,0,-9.9626,106.520427,165.53719)"/>
<symbol id="font_0_6">
<path d="M .121 .47900004 C .075 .509 .071 .54300007 .071 .56000009 C .071 .62100008 .136 .66300007 .20700002 .66300007 C .28000004 .66300007 .344 .61100009 .344 .53900006 C .344 .48200003 .305 .43400005 .245 .39900003 L .121 .47900004 M .26700003 .38400004 C .33900003 .42100004 .388 .47300006 .388 .53900006 C .388 .63100007 .29900003 .688 .208 .688 C .108 .688 .027000003 .614 .027000003 .521 C .027000003 .503 .029 .45800004 .071 .41100005 C .082 .39900003 .11900001 .37400005 .144 .35700003 C .086 .32800005 0 .272 0 .17300001 C 0 .067 .102000009 0 .20700002 0 C .32000003 0 .41500003 .083000008 .41500003 .19000001 C .41500003 .22600001 .404 .27100004 .36600004 .31300003 C .34700004 .33400003 .33100004 .34400005 .26700003 .38400004 M .167 .34200005 L .29000003 .26400004 C .31800003 .245 .365 .215 .365 .154 C .365 .080000009 .29000003 .028 .208 .028 C .122 .028 .050000006 .09 .050000006 .17300001 C .050000006 .231 .082 .29500003 .167 .34200005 Z "/>
</symbol>
<use xlink:href="#font_0_6" transform="matrix(9.9626,0,0,-9.9626,136.40843,165.53719)"/>
<symbol id="font_0_2">
<path d="M .205 .64000007 C .205 .66400006 .205 .666 .18200003 .666 C .120000008 .60200008 .032000007 .60200008 0 .60200008 L 0 .57100006 C .020000004 .57100006 .07900001 .57100006 .13100001 .597 L .13100001 .079 C .13100001 .043 .128 .031000002 .038000004 .031000002 L .0060000049 .031000002 L .0060000049 0 C .04100001 .003 .128 .003 .168 .003 C .20800002 .003 .29500003 .003 .33000005 0 L .33000005 .031000002 L .29800005 .031000002 C .20800002 .031000002 .205 .042000005 .205 .079 L .205 .64000007 Z "/>
</symbol>
<symbol id="font_0_1">
<path d="M .421 .34200005 C .421 .42200003 .416 .50200006 .381 .57600006 C .335 .67200008 .25300003 .688 .211 .688 C .15100001 .688 .07800001 .66200008 .037000006 .56900009 C .0050000029 .5 0 .42200003 0 .34200005 C 0 .26700003 .0040000008 .177 .045000007 .101 C .088 .020000002 .161 0 .21000001 0 C .264 0 .34 .021000002 .384 .116000007 C .416 .185 .421 .263 .421 .34200005 M .21000001 .022000002 C .171 .022000002 .112 .047000003 .094 .143 C .083000008 .20300001 .083000008 .29500003 .083000008 .35400004 C .083000008 .41800005 .083000008 .48400004 .091000009 .53800007 C .11 .65700009 .185 .66600009 .21000001 .66600009 C .243 .66600009 .30900003 .64800009 .328 .549 C .338 .49300004 .338 .41700004 .338 .35400004 C .338 .279 .338 .21100001 .32700003 .147 C .312 .052 .255 .022000002 .21000001 .022000002 Z "/>
</symbol>
<use xlink:href="#font_0_2" transform="matrix(9.9626,0,0,-9.9626,164.27367,165.31801)"/>
<use xlink:href="#font_0_1" transform="matrix(9.9626,0,0,-9.9626,168.75682,165.53719)"/>
<use xlink:href="#font_0_2" transform="matrix(9.9626,0,0,-9.9626,194.16167,165.31801)"/>
<use xlink:href="#font_0_3" transform="matrix(9.9626,0,0,-9.9626,198.75441,165.31801)"/>
<use xlink:href="#font_0_3" transform="matrix(9.9626,0,0,-9.9626,8.80013,127.11801)"/>
<use xlink:href="#font_0_4" transform="matrix(9.9626,0,0,-9.9626,8.580953,97.77401)"/>
<use xlink:href="#font_0_5" transform="matrix(9.9626,0,0,-9.9626,8.720429,68.648189)"/>
<use xlink:href="#font_0_6" transform="matrix(9.9626,0,0,-9.9626,8.720429,39.304185)"/>
<use xlink:href="#font_0_2" transform="matrix(9.9626,0,0,-9.9626,4.206671,9.741013)"/>
<use xlink:href="#font_0_1" transform="matrix(9.9626,0,0,-9.9626,8.689841,9.96019)"/>
<clipPath id="cp1">
<path transform="matrix(1,0,0,-1,3.985,167.92401)" d="M 0 0 L 194.27399 0 L 194.27399 161.39575 L 0 161.39575 Z "/>
</clipPath>
<g clip-path="url(#cp1)">
<path transform="matrix(1,0,0,-1,3.985,167.92401)" stroke-width="1" stroke-linecap="butt" stroke-miterlimit="10" stroke-linejoin="miter" fill="none" stroke="#000000" d="M 16.44476 160.93753 L 16.93335 124.90123 L 17.42816 102.94113 L 17.92299 88.27759 L 18.41779 77.79567 L 18.9126 69.92395 L 19.40738 63.79826 L 19.9022 58.89476 L 20.39702 54.88336 L 20.89182 51.53952 L 21.38663 48.7063 L 21.88144 46.2795 L 22.37624 44.17546 L 22.87105 42.33264 L 23.36584 40.70694 L 23.86066 39.26315 L 24.35548 37.96907 L 24.85027 36.80702 L 25.34508 35.75354 L 25.83987 34.7969 L 26.3347 33.92242 L 26.82951 33.11986 L 27.3243 32.3833 L 27.8191 31.7025 L 28.31393 31.07161 L 28.80873 30.48766 L 29.30354 29.94038 L 29.79834 29.4327 L 30.29314 28.95775 L 30.78796 28.51158 L 31.28276 28.09253 L 31.77757 27.698 L 32.27237 27.3259 L 32.76717 26.97466 L 33.262 26.64244 L 33.75679 26.32745 L 34.2516 26.02873 L 34.7464 25.7448 L 35.24121 25.47513 L 35.73602 25.21777 L 36.23082 24.9729 L 36.72563 24.73901 L 37.22043 24.51526 L 37.71524 24.30135 L 38.21005 24.09666 L 38.70485 23.90034 L 39.19966 23.71194 L 39.69446 23.53134 L 40.18927 23.3576 L 40.68408 23.1908 L 41.17888 23.03014 L 41.67369 22.87535 L 42.16849 22.72643 L 42.6633 22.58249 L 43.15813 22.44368 L 43.65291 22.30988 L 44.14772 22.18045 L 44.64252 22.05531 L 45.13733 21.9344 L 45.63216 21.81703 L 46.12694 21.70375 L 46.62175 21.59416 L 47.11655 21.48764 L 47.61136 21.38434 L 48.10619 21.28427 L 48.60098 21.18715 L 49.09578 21.09265 L 49.59058 21.0011 L 50.08539 20.91188 L 50.58022 20.82532 L 51.07501 20.74081 L 51.56981 20.65894 L 52.0646 20.57925 L 52.55942 20.50134 L 53.05424 20.42595 L 53.54904 20.35199 L 54.04385 20.2801 L 54.53864 20.21013 L 55.03345 20.14175 L 55.52827 20.07512 L 56.02307 20.00984 L 56.51788 19.94658 L 57.01266 19.88454 L 57.50748 19.82378 L 58.0023 19.76451 L 58.4971 19.7067 L 58.99191 19.65005 L 59.48671 19.59505 L 59.9815 19.54092 L 60.47633 19.4878 L 60.97113 19.43613 L 61.46594 19.38551 L 61.96074 19.3358 L 62.45554 19.28737 L 62.95036 19.23982 L 63.44516 19.19318 L 63.93997 19.14752 L 64.43477 19.1028 L 64.92957 19.05908 L 65.4244 19.01593 L 65.91919 18.97383 L 66.414 18.9323 L 66.9088 18.8918 L 67.40361 18.85202 L 67.89842 18.813 L 68.39322 18.77472 L 68.88803 18.73717 L 69.38283 18.70018 L 69.87764 18.66394 L 70.37245 18.62799 L 70.86725 18.59335 L 71.36206 18.55904 L 71.85686 18.52486 L 72.35167 18.4917 L 72.8465 18.45912 L 73.34128 18.42699 L 73.83609 18.39543 L 74.33089 18.36462 L 74.8257 18.33395 L 75.32053 18.30388 L 75.8153 18.27438 L 76.31012 18.24548 L 76.80492 18.21687 L 77.29973 18.18884 L 77.79456 18.16113 L 78.28935 18.13383 L 78.78415 18.10696 L 79.27895 18.08041 L 79.77376 18.05444 L 80.26859 18.02876 L 80.76338 18.00366 L 81.25818 17.97888 L 81.75298 17.95424 L 82.24779 17.93033 L 82.74261 17.90627 L 83.23741 17.88307 L 83.73221 17.8599 L 84.227 17.83714 L 84.72182 17.81468 L 85.21664 17.79256 L 85.71144 17.77068 L 86.20625 17.74913 L 86.70103 17.72815 L 87.19585 17.707 L 87.69067 17.68648 L 88.18547 17.66608 L 88.68028 17.64598 L 89.17506 17.62616 L 89.66988 17.60649 L 90.1647 17.58727 L 90.6595 17.5682 L 91.15431 17.54942 L 91.64911 17.53079 L 92.1439 17.51244 L 92.63873 17.49454 L 93.13353 17.47665 L 93.62834 17.45906 L 94.12314 17.44159 L 94.61794 17.42426 L 95.11276 17.40753 L 95.60756 17.39067 L 96.10237 17.37393 L 96.59717 17.3575 L 97.09198 17.3415 L 97.58679 17.32553 L 98.08159 17.30968 L 98.5764 17.29399 L 99.0712 17.27872 L 99.56601 17.26346 L 100.06082 17.24835 L 100.55562 17.23354 L 101.05043 17.2187 L 101.54523 17.2042 L 102.04004 17.18994 L 102.53485 17.17557 L 103.02965 17.16148 L 103.52446 17.14755 L 104.01926 17.13391 L 104.51407 17.12025 L 105.0089 17.10675 L 105.50368 17.09357 L 105.99849 17.08035 L 106.49329 17.06743 L 106.9881 17.0544 L 107.48293 17.04163 L 107.9777 17.02913 L 108.47252 17.01653 L 108.96732 17.00435 L 109.46213 16.99217 L 109.95695 16.98015 L 110.45175 16.96797 L 110.94655 16.95638 L 111.44135 16.94449 L 111.93616 16.93304 L 112.43098 16.92145 L 112.92578 16.9103 L 113.42058 16.89886 L 113.91537 16.88783 L 114.41019 16.8767 L 114.90501 16.86583 L 115.39981 16.85498 L 115.89462 16.8444 L 116.3894 16.83371 L 116.88422 16.82314 L 117.37904 16.81287 L 117.87384 16.8026 L 118.36865 16.79234 L 118.86343 16.78221 L 119.35825 16.77238 L 119.85307 16.76224 L 120.34787 16.75258 L 120.84268 16.74274 L 121.33748 16.7332 L 121.83228 16.72351 L 122.3271 16.71413 L 122.8219 16.70488 L 123.31671 16.69565 L 123.81151 16.6864 L 124.3063 16.67714 L 124.80113 16.66821 L 125.29593 16.65926 L 125.79074 16.65031 L 126.28554 16.64165 L 126.78033 16.63284 L 127.27516 16.62433 L 127.76996 16.61566 L 128.26477 16.60716 L 128.75957 16.5988 L 129.25438 16.59059 L 129.74919 16.58221 L 130.24399 16.574 L 130.7388 16.56593 L 131.2336 16.55786 L 131.72841 16.5498 L 132.22322 16.54204 L 132.71802 16.5341 L 133.21283 16.52632 L 133.70763 16.51839 L 134.20244 16.51079 L 134.69727 16.50328 L 135.19205 16.49579 L 135.68686 16.48816 L 136.18166 16.48085 L 136.67647 16.47351 L 137.1713 16.46632 L 137.66608 16.45897 L 138.16089 16.45178 L 138.65569 16.44473 L 139.1505 16.43771 L 139.64533 16.43065 L 140.14012 16.42375 L 140.63492 16.41687 L 141.12972 16.40984 L 141.62453 16.40323 L 142.11936 16.39647 L 142.61415 16.38972 L 143.10895 16.38329 L 143.60375 16.37653 L 144.09856 16.3699 L 144.59339 16.36346 L 145.08818 16.357 L 145.583 16.35085 L 146.07778 16.34453 L 146.57259 16.33807 L 147.06742 16.33192 L 147.56221 16.32576 L 148.05702 16.3196 L 148.5518 16.31343 L 149.04662 16.30728 L 149.54145 16.30124 L 150.03624 16.29552 L 150.53105 16.28935 L 151.02584 16.28365 L 151.52065 16.27777 L 152.01548 16.2719 L 152.51027 16.26619 L 153.00508 16.2606 L 153.49988 16.25476 L 153.99468 16.24918 L 154.4895 16.24359 L 154.9843 16.23816 L 155.47911 16.23259 L 155.9739 16.227 L 156.4687 16.22157 L 156.96353 16.21616 L 157.45833 16.21086 L 157.95314 16.20546 L 158.44794 16.2003 L 158.94275 16.195 L 159.43756 16.18973 L 159.93236 16.18462 L 160.42717 16.17947 L 160.92197 16.17433 L 161.41678 16.16919 L 161.91159 16.16422 L 162.40639 16.15938 L 162.9012 16.15422 L 163.396 16.14925 L 163.89081 16.14441 L 163.9274 16.14404 "/>
<path transform="matrix(-.01357,-.99988,-.99988,.01357,20.42976,6.9864809)" stroke-width="1" stroke-linecap="round" stroke-linejoin="round" fill="none" stroke="#000000" d="M -1.19551 1.59401 C -1.09587 .99626 0 .09961 .29886 0 C 0 -.09961 -1.09587 -.99626 -1.19551 -1.59401 "/>
<path transform="matrix(.99991,.00977,.00977,-.99991,167.91239,151.77997)" stroke-width="1" stroke-linecap="round" stroke-linejoin="round" fill="none" stroke="#000000" d="M -1.19551 1.59401 C -1.09587 .99626 0 .09961 .29886 0 C 0 -.09961 -1.09587 -.99626 -1.19551 -1.59401 "/>
</g>
<symbol id="font_2_1">
<path d="M .305 .31300003 C .311 .33900003 .334 .43100003 .404 .43100003 C .409 .43100003 .433 .43100003 .454 .418 C .426 .41300003 .40600003 .388 .40600003 .36400003 C .40600003 .34800003 .417 .32900004 .444 .32900004 C .46600003 .32900004 .498 .34700004 .498 .38700003 C .498 .43900005 .439 .45300005 .405 .45300005 C .347 .45300005 .312 .40000005 .3 .37700004 C .275 .44300003 .221 .45300005 .19200002 .45300005 C .08800001 .45300005 .031000002 .32400004 .031000002 .29900003 C .031000002 .28900004 .041 .28900004 .043000007 .28900004 C .051000008 .28900004 .054000006 .291 .056 .3 C .09 .40600003 .156 .43100003 .19000001 .43100003 C .209 .43100003 .244 .42200003 .244 .36400003 C .244 .33300004 .22700002 .26600004 .19000001 .126 C .17400001 .064 .13900002 .022000002 .095000009 .022000002 C .08900001 .022000002 .06600001 .022000002 .045 .035 C .07000001 .040000004 .09200001 .061 .09200001 .089 C .09200001 .116000007 .07000001 .124000009 .055000009 .124000009 C .025 .124000009 0 .098000008 0 .06600001 C 0 .020000002 .050000006 0 .094000007 0 C .16000001 0 .19600001 .07000001 .19900002 .076000008 C .21100001 .039 .24700003 0 .307 0 C .41 0 .467 .12900001 .467 .15400002 C .467 .16400002 .458 .16400002 .455 .16400002 C .446 .16400002 .444 .16000001 .442 .15300001 C .409 .046 .341 .022000002 .30900003 .022000002 C .27 .022000002 .254 .054 .254 .08800001 C .254 .11000001 .26 .13200002 .271 .17600002 L .305 .31300003 Z "/>
</symbol>
<use xlink:href="#font_2_1" transform="matrix(9.9626,0,0,-9.9626,195.69892,148.3736)"/>
<symbol id="font_2_2">
<path d="M .45700003 .586 C .461 .6 .461 .602 .461 .609 C .461 .62700006 .447 .63600006 .432 .63600006 C .42200003 .63600006 .40600003 .63 .397 .615 C .395 .61 .387 .579 .38300003 .561 C .37600003 .535 .36900003 .508 .363 .48100005 L .318 .301 C .314 .286 .271 .21600002 .20500002 .21600002 C .15400002 .21600002 .143 .26000003 .143 .29700003 C .143 .34300003 .16000001 .40500004 .194 .49300004 C .21000001 .53400006 .21400002 .545 .21400002 .56500008 C .21400002 .61 .18200001 .6470001 .13200002 .6470001 C .037 .6470001 0 .50200006 0 .49300004 C 0 .48300005 .01 .48300005 .012 .48300005 C .022000002 .48300005 .023 .485 .028000003 .50100007 C .055000009 .595 .095000009 .625 .12900001 .625 C .13700001 .625 .15400002 .625 .15400002 .59300008 C .15400002 .568 .14400001 .54200008 .13700001 .523 C .097 .41700004 .079 .36 .079 .31300003 C .079 .224 .142 .194 .201 .194 C .24000003 .194 .274 .21100001 .30200003 .23900002 C .289 .187 .277 .13800001 .237 .08500001 C .21100001 .051 .17300001 .022 .127 .022 C .113000009 .022 .068 .025000006 .051000008 .06400001 C .067 .06400001 .080000009 .06400001 .094000007 .076000008 C .104 .08500001 .11400001 .098000008 .11400001 .117000009 C .11400001 .148 .087000008 .15200001 .07700001 .15200001 C .054000006 .15200001 .021 .136 .021 .087000008 C .021 .037 .065000008 0 .127 0 C .23 0 .333 .091000009 .361 .20400001 L .45700003 .586 Z "/>
</symbol>
<use xlink:href="#font_2_2" transform="matrix(9.9626,0,0,-9.9626,27.221917,9.74935)"/>
</svg>
