<?xml version="1.0" encoding="UTF-8" standalone="no"?>
<!DOCTYPE svg PUBLIC "-//W3C//DTD SVG 1.1//EN" "http://www.w3.org/Graphics/SVG/1.1/DTD/svg11.dtd">
<svg xmlns="http://www.w3.org/2000/svg" xmlns:xlink="http://www.w3.org/1999/xlink" version="1.1" width="210.12pt" height="169.469pt" viewBox="0 0 210.12 169.469">
<path transform="matrix(1,0,0,-1,9.686,167.924)" stroke-width="1" stroke-linecap="butt" stroke-miterlimit="10" stroke-linejoin="miter" fill="none" stroke="#808080" d="M 24.28363 13.25464 L 24.28363 16.09004 M 72.8509 13.25464 L 72.8509 16.09004 M 121.4182 13.25464 L 121.4182 16.09004 M 169.98548 13.25464 L 169.98548 16.09004 "/>
<path transform="matrix(1,0,0,-1,9.686,167.924)" stroke-width="1" stroke-linecap="butt" stroke-miterlimit="10" stroke-linejoin="miter" fill="none" stroke="#808080" d="M 0 12.54599 L 0 16.79866 M 48.56728 12.54599 L 48.56728 16.79866 M 145.70183 12.54599 L 145.70183 16.79866 M 194.26912 12.54599 L 194.26912 16.79866 "/>
<path transform="matrix(1,0,0,-1,9.686,167.924)" stroke-width="1" stroke-linecap="butt" stroke-miterlimit="10" stroke-linejoin="miter" fill="none" stroke="#808080" d="M 95.7171 0 L 98.552 0 M 95.7171 29.34468 L 98.552 29.34468 M 95.7171 58.68936 L 98.552 58.68936 M 95.7171 88.03404 L 98.552 88.03404 M 95.7171 117.37872 L 98.552 117.37872 M 95.7171 146.7234 L 98.552 146.7234 "/>
<path transform="matrix(1,0,0,-1,9.686,167.924)" stroke-width="1" stroke-linecap="butt" stroke-miterlimit="10" stroke-linejoin="miter" fill="none" stroke="#808080" d="M 95.0086 44.01701 L 99.26048 44.01701 M 95.0086 73.3617 L 99.26048 73.3617 M 95.0086 102.70638 L 99.26048 102.70638 M 95.0086 132.05107 L 99.26048 132.05107 M 95.0086 161.39575 L 99.26048 161.39575 "/>
<path transform="matrix(1,0,0,-1,9.686,167.924)" stroke-width="1" stroke-linecap="butt" stroke-miterlimit="10" stroke-linejoin="miter" fill="none" stroke="#000000" d="M 0 14.67233 L 192.2766 14.67233 "/>
<path transform="matrix(1,0,0,-1,201.9626,153.25167)" d="M 1.99252 0 L -1.19551 1.59401 L 0 0 L -1.19551 -1.59401 "/>
<path transform="matrix(1,0,0,-1,9.686,167.924)" stroke-width="1" stroke-linecap="butt" stroke-miterlimit="10" stroke-linejoin="miter" fill="none" stroke="#000000" d="M 97.13455 0 L 97.13455 159.40323 "/>
<path transform="matrix(0,-1,-1,-0,106.82055,8.520767)" d="M 1.99252 0 L -1.19551 1.59401 L 0 0 L -1.19551 -1.59401 "/>
<symbol id="font_0_1">
<path d="M .57600006 0 C .59300008 0 .611 0 .611 .019999996 C .611 .040000008 .59300008 .040000008 .57600006 .040000008 L .035000005 .040000008 C .018 .040000008 0 .040000008 0 .019999996 C 0 0 .018 0 .035000005 0 L .57600006 0 Z "/>
</symbol>
<use xlink:href="#font_0_1" transform="matrix(9.9626,0,0,-9.9626,4.147896,163.0266)"/>
<symbol id="font_1_4">
<path d="M .266 .165 L .266 .078 C .266 .042000005 .26400004 .031000002 .19000001 .031000002 L .16900002 .031000002 L .16900002 0 C .21000001 .003 .26200003 .003 .30400003 .003 C .34600003 .003 .39900003 .003 .44000004 0 L .44000004 .031000002 L .41900004 .031000002 C .34500004 .031000002 .34300003 .042000005 .34300003 .078 L .34300003 .165 L .44300003 .165 L .44300003 .19600001 L .34300003 .19600001 L .34300003 .651 C .34300003 .671 .34300003 .67700007 .32700003 .67700007 C .31800003 .67700007 .31500004 .67700007 .307 .665 L 0 .19600001 L 0 .165 L .266 .165 M .272 .19600001 L .028 .19600001 L .272 .569 L .272 .19600001 Z "/>
</symbol>
<use xlink:href="#font_1_4" transform="matrix(9.9626,0,0,-9.9626,11.347953,165.318)"/>
<use xlink:href="#font_0_1" transform="matrix(9.9626,0,0,-9.9626,52.713899,163.0266)"/>
<symbol id="font_1_3">
<path d="M .07700001 .07700001 L .18300002 .18 C .33900003 .31800003 .39900003 .372 .39900003 .47200004 C .39900003 .586 .30900003 .666 .18700002 .666 C .074 .666 0 .574 0 .485 C 0 .42900003 .05 .42900003 .053000008 .42900003 C .07000001 .42900003 .105000007 .441 .105000007 .48200003 C .105000007 .508 .08700001 .53400006 .052000006 .53400006 C .044000005 .53400006 .042000008 .53400006 .039 .53300008 C .062000004 .59800007 .11600001 .63500007 .17400001 .63500007 C .26500003 .63500007 .308 .554 .308 .47200004 C .308 .39200003 .25800003 .31300003 .20300003 .25100003 L .011000004 .037 C 0 .026 0 .024 0 0 L .37100003 0 L .39900003 .17400001 L .374 .17400001 C .36900003 .14400001 .36200003 .1 .352 .085 C .345 .07700001 .279 .07700001 .257 .07700001 L .07700001 .07700001 Z "/>
</symbol>
<use xlink:href="#font_1_3" transform="matrix(9.9626,0,0,-9.9626,60.134134,165.318)"/>
<use xlink:href="#font_1_3" transform="matrix(9.9626,0,0,-9.9626,153.39313,165.318)"/>
<use xlink:href="#font_1_4" transform="matrix(9.9626,0,0,-9.9626,201.74095,165.318)"/>
<use xlink:href="#font_1_3" transform="matrix(9.9626,0,0,-9.9626,96.690128,127.118)"/>
<use xlink:href="#font_1_4" transform="matrix(9.9626,0,0,-9.9626,96.47095,97.772998)"/>
<symbol id="font_1_5">
<path d="M .089999999 .35000003 L .089999999 .37400005 C .089999999 .62700006 .21400002 .66300007 .26500003 .66300007 C .28900004 .66300007 .33100004 .65700009 .35300002 .623 C .33800004 .623 .298 .623 .298 .57800009 C .298 .54700008 .32200004 .53200009 .344 .53200009 C .36 .53200009 .39000003 .54100009 .39000003 .58000007 C .39000003 .64000007 .34600003 .688 .263 .688 C .13499999 .688 0 .559 0 .33800004 C 0 .071 .116000007 0 .20900002 0 C .32000003 0 .41500003 .094000007 .41500003 .22600001 C .41500003 .35300005 .32600004 .44900004 .215 .44900004 C .14700002 .44900004 .11000001 .39800004 .089999999 .35000003 M .20900002 .028 C .146 .028 .116000007 .088 .11000001 .103 C .092 .15 .092 .23 .092 .24800001 C .092 .32600004 .124000009 .42600004 .21400002 .42600004 C .23000002 .42600004 .27600003 .42600004 .307 .36400003 C .32500003 .32700003 .32500003 .27600003 .32500003 .22700002 C .32500003 .179 .32500003 .12900001 .30800004 .093 C .27800004 .033000005 .23200003 .028 .20900002 .028 Z "/>
</symbol>
<use xlink:href="#font_1_5" transform="matrix(9.9626,0,0,-9.9626,96.61042,68.64817)"/>
<symbol id="font_1_6">
<path d="M .121 .47900004 C .075 .509 .071 .54300007 .071 .56000009 C .071 .62100008 .136 .66300007 .20700002 .66300007 C .28000004 .66300007 .344 .61100009 .344 .53900006 C .344 .48200003 .305 .43400005 .245 .39900003 L .121 .47900004 M .26700003 .38400004 C .33900003 .42100004 .388 .47300006 .388 .53900006 C .388 .63100007 .29900003 .688 .208 .688 C .108 .688 .027000003 .614 .027000003 .521 C .027000003 .503 .029 .45800004 .071 .41100005 C .082 .39900003 .11900001 .37400005 .144 .35700003 C .086 .32800005 0 .272 0 .17300001 C 0 .067 .102000009 0 .20700002 0 C .32000003 0 .41500003 .083000008 .41500003 .19000001 C .41500003 .22600001 .404 .27100004 .36600004 .31300003 C .34700004 .33400003 .33100004 .34400005 .26700003 .38400004 M .167 .34200005 L .29000003 .26400004 C .31800003 .245 .365 .215 .365 .154 C .365 .080000009 .29000003 .028 .208 .028 C .122 .028 .050000006 .09 .050000006 .17300001 C .050000006 .231 .082 .29500003 .167 .34200005 Z "/>
</symbol>
<use xlink:href="#font_1_6" transform="matrix(9.9626,0,0,-9.9626,96.61042,39.30417)"/>
<symbol id="font_1_2">
<path d="M .205 .64000007 C .205 .66400006 .205 .666 .18200003 .666 C .120000008 .60200008 .032000007 .60200008 0 .60200008 L 0 .57100006 C .020000004 .57100006 .07900001 .57100006 .13100001 .597 L .13100001 .079 C .13100001 .043 .128 .031000002 .038000004 .031000002 L .0060000049 .031000002 L .0060000049 0 C .04100001 .003 .128 .003 .168 .003 C .20800002 .003 .29500003 .003 .33000005 0 L .33000005 .031000002 L .29800005 .031000002 C .20800002 .031000002 .205 .042000005 .205 .079 L .205 .64000007 Z "/>
</symbol>
<symbol id="font_1_1">
<path d="M .421 .34200005 C .421 .42200003 .416 .50200006 .381 .57600006 C .335 .67200008 .25300003 .688 .211 .688 C .15100001 .688 .07800001 .66200008 .037000006 .56900009 C .0050000029 .5 0 .42200003 0 .34200005 C 0 .26700003 .0040000008 .177 .045000007 .101 C .088 .020000002 .161 0 .21000001 0 C .264 0 .34 .021000002 .384 .116000007 C .416 .185 .421 .263 .421 .34200005 M .21000001 .022000002 C .171 .022000002 .112 .047000003 .094 .143 C .083000008 .20300001 .083000008 .29500003 .083000008 .35400004 C .083000008 .41800005 .083000008 .48400004 .091000009 .53800007 C .11 .65700009 .185 .66600009 .21000001 .66600009 C .243 .66600009 .30900003 .64800009 .328 .549 C .338 .49300004 .338 .41700004 .338 .35400004 C .338 .279 .338 .21100001 .32700003 .147 C .312 .052 .255 .022000002 .21000001 .022000002 Z "/>
</symbol>
<use xlink:href="#font_1_2" transform="matrix(9.9626,0,0,-9.9626,92.09767,9.73999)"/>
<use xlink:href="#font_1_1" transform="matrix(9.9626,0,0,-9.9626,96.58084,9.9591679)"/>
<clipPath id="cp2">
<path transform="matrix(1,0,0,-1,9.686,167.924)" d="M 0 0 L 194.26912 0 L 194.26912 161.39575 L 0 161.39575 Z "/>
</clipPath>
<g clip-path="url(#cp2)">
<path transform="matrix(1,0,0,-1,9.686,167.924)" stroke-width="1" stroke-linecap="butt" stroke-miterlimit="10" stroke-linejoin="miter" fill="none" stroke="#000000" d="M 24.74129 159.53804 L 24.77092 159.53647 L 25.25821 159.51007 L 25.7455 159.48349 L 26.2328 159.4571 L 26.72008 159.42935 L 27.20738 159.40132 L 27.69467 159.37346 L 28.18196 159.34575 L 28.66925 159.31639 L 29.15656 159.28836 L 29.64383 159.25768 L 30.13113 159.22837 L 30.61842 159.19739 L 31.10571 159.1666 L 31.593 159.13591 L 32.0803 159.1035 L 32.56758 159.07268 L 33.05489 159.03894 L 33.54218 159.00666 L 34.02946 158.97292 L 34.51675 158.93917 L 35.00406 158.90528 L 35.49133 158.8702 L 35.97864 158.835 L 36.46593 158.79831 L 36.95322 158.76163 L 37.4405 158.72481 L 37.92781 158.68811 L 38.41508 158.65012 L 38.90239 158.61182 L 39.38968 158.5722 L 39.87697 158.53261 L 40.36427 158.49285 L 40.85155 158.45189 L 41.33885 158.41068 L 41.82614 158.36974 L 42.31343 158.32718 L 42.80072 158.28316 L 43.28802 158.2406 L 43.7753 158.19644 L 44.2626 158.15097 L 44.7499 158.10564 L 45.23718 158.06015 L 45.72447 158.01303 L 46.21178 157.9661 L 46.69905 157.91767 L 47.18636 157.8691 L 47.67365 157.81952 L 48.16093 157.76949 L 48.64822 157.71797 L 49.13553 157.66678 L 49.6228 157.61396 L 50.1101 157.56113 L 50.5974 157.50832 L 51.08469 157.45388 L 51.57198 157.39813 L 52.05928 157.34238 L 52.54655 157.285 L 53.03386 157.22794 L 53.52115 157.16924 L 54.00844 157.11038 L 54.49573 157.05039 L 54.98303 156.98862 L 55.47032 156.92699 L 55.95761 156.86553 L 56.4449 156.8008 L 56.93219 156.73772 L 57.4195 156.67156 L 57.90677 156.60553 L 58.39407 156.53816 L 58.88136 156.47054 L 59.36865 156.40158 L 59.85594 156.3313 L 60.34325 156.26073 L 60.83052 156.18898 L 61.31783 156.11548 L 61.80511 156.04212 L 62.2924 155.96727 L 62.7797 155.89099 L 63.267 155.81322 L 63.75427 155.7353 L 64.24158 155.65607 L 64.72887 155.57552 L 65.21616 155.49468 L 65.70345 155.4125 L 66.19075 155.32874 L 66.67802 155.24364 L 67.16533 155.15708 L 67.65262 155.06903 L 68.13991 154.981 L 68.6272 154.8915 L 69.1145 154.80054 L 69.60178 154.70796 L 70.08908 154.6142 L 70.57639 154.51882 L 71.06366 154.42345 L 71.55096 154.32515 L 72.03824 154.22655 L 72.52554 154.12546 L 73.01283 154.02422 L 73.50012 153.91989 L 73.98741 153.81572 L 74.47472 153.71009 L 74.96199 153.60152 L 75.4493 153.49292 L 75.93658 153.38275 L 76.42387 153.26976 L 76.91116 153.15534 L 77.39847 153.04088 L 77.88576 152.92336 L 78.37305 152.8045 L 78.86035 152.68434 L 79.34763 152.56243 L 79.83493 152.43918 L 80.32222 152.31284 L 80.80951 152.1868 L 81.2968 152.0577 L 81.7841 151.9268 L 82.27138 151.79343 L 82.75868 151.65978 L 83.24597 151.52349 L 83.73326 151.38555 L 84.22055 151.24454 L 84.70786 151.1021 L 85.19514 150.95845 L 85.68243 150.81156 L 86.16974 150.66323 L 86.65701 150.51374 L 87.14432 150.36096 L 87.63159 150.20708 L 88.1189 150.04993 L 88.60619 149.89131 L 89.09348 149.72992 L 89.58078 149.56558 L 90.06807 149.40125 L 90.55536 149.23239 L 91.04265 149.06232 L 91.52995 148.88906 L 92.01723 148.71446 L 92.50453 148.53691 L 92.99182 148.35643 L 93.47911 148.17436 L 93.9664 147.9895 L 94.4537 147.80168 L 94.941 147.61093 L 95.42828 147.41858 L 95.91559 147.22183 L 96.40286 147.0236 L 96.89017 146.8226 L 97.37746 146.62158 L 97.86475 146.41443 L 98.35204 146.20488 L 98.83934 145.99199 L 99.32661 145.77646 L 99.81392 145.55785 L 100.30121 145.33585 L 100.7885 145.11092 L 101.2758 144.88307 L 101.76309 144.65183 L 102.25038 144.4172 L 102.73767 144.17967 L 103.22496 143.9386 L 103.71225 143.69387 L 104.19955 143.44606 L 104.68683 143.19457 L 105.17413 142.94 L 105.66142 142.68119 L 106.14871 142.41957 L 106.636 142.15372 L 107.1233 141.88448 L 107.6106 141.61083 L 108.09789 141.33368 L 108.58519 141.05269 L 109.07246 140.76792 L 109.55977 140.4793 L 110.04706 140.18628 L 110.53435 139.88904 L 111.02164 139.5881 L 111.50894 139.2822 L 111.99622 138.97289 L 112.48352 138.65918 L 112.97083 138.34067 L 113.4581 138.01772 L 113.9454 137.69025 L 114.4327 137.35834 L 114.91998 137.02133 L 115.40727 136.6805 L 115.89458 136.33422 L 116.38185 135.98326 L 116.86916 135.62761 L 117.35645 135.26653 L 117.84373 134.90059 L 118.33104 134.52924 L 118.81831 134.15303 L 119.30562 133.77155 L 119.79291 133.3848 L 120.2802 132.99304 L 120.76749 132.59511 L 121.25479 132.19207 L 121.74207 131.78241 L 122.22937 131.36777 L 122.71666 130.94757 L 123.20395 130.5206 L 123.69124 130.08879 L 124.17854 129.65038 L 124.66582 129.20508 L 125.15312 128.75464 L 125.64041 128.29746 L 126.1277 127.83423 L 126.61499 127.36385 L 127.1023 126.88773 L 127.58957 126.40413 L 128.07688 125.91408 L 128.56417 125.4177 L 129.05146 124.91373 L 129.53874 124.40282 L 130.02605 123.88431 L 130.51332 123.35931 L 131.00063 122.82642 L 131.48792 122.28648 L 131.9752 121.73949 L 132.46251 121.18341 L 132.9498 120.61983 L 133.43709 120.04938 L 133.92438 119.47028 L 134.41167 118.88367 L 134.89896 118.28752 L 135.38626 117.6845 L 135.87354 117.07178 L 136.36084 116.45143 L 136.84813 115.8211 L 137.33542 115.18361 L 137.82271 114.53728 L 138.31002 113.87996 L 138.79729 113.215 L 139.28459 112.5398 L 139.77188 111.85562 L 140.25917 111.16176 L 140.74646 110.45836 L 141.23377 109.74472 L 141.72104 109.02122 L 142.20835 108.28847 L 142.69564 107.5443 L 143.18292 106.79027 L 143.67021 106.0254 L 144.15752 105.25056 L 144.64479 104.46457 L 145.1321 103.6664 L 145.61939 102.85927 L 146.10668 102.03836 L 146.59397 101.20819 L 147.08127 100.36351 L 147.56856 99.50987 L 148.05585 98.64333 L 148.54315 97.76399 L 149.03043 96.87311 L 149.51773 95.9684 L 150.005 95.05359 L 150.49231 94.12497 L 150.9796 93.18227 L 151.46689 92.22755 L 151.95418 91.25711 L 152.44149 90.27641 L 152.92876 89.2793 L 153.41606 88.26909 L 153.90335 87.24658 L 154.39064 86.2072 L 154.87793 85.15443 L 155.36524 84.0863 L 155.85251 83.00482 L 156.33982 81.906 L 156.8271 80.79208 L 157.31439 79.66466 L 157.80168 78.51901 L 158.28899 77.35887 L 158.77626 76.18144 L 159.26357 74.98799 L 159.75086 73.77928 L 160.23815 72.55106 L 160.72544 71.3074 L 161.21274 70.0453 L 161.70001 68.76646 L 162.18732 67.46843 L 162.67462 66.15405 L 163.1619 64.81828 L 163.6492 63.4674 L 164.13649 62.09598 L 164.62378 60.70534 L 165.11107 59.29445 L 165.59836 57.86435 L 166.08565 56.41603 L 166.57295 54.94557 L 167.06023 53.45383 L 167.54753 51.94183 L 168.03482 50.40903 L 168.52211 48.85625 L 169.0094 47.2781 L 169.4967 45.68115 L 169.852 44.50046 "/>
<path transform="matrix(-.99864,-.05168,-.05168,.99864,34.4273,8.385971)" stroke-width="1" stroke-linecap="round" stroke-linejoin="round" fill="none" stroke="#000000" d="M -1.19551 1.59401 C -1.09587 .99626 0 .09961 .29886 0 C 0 -.09961 -1.09587 -.99626 -1.19551 -1.59401 "/>
<path transform="matrix(.28802,.95757,.95757,-.28802,179.53801,123.42352)" stroke-width="1" stroke-linecap="round" stroke-linejoin="round" fill="none" stroke="#000000" d="M -1.19551 1.59401 C -1.09587 .99626 0 .09961 .29886 0 C 0 -.09961 -1.09587 -.99626 -1.19551 -1.59401 "/>
</g>
<symbol id="font_3_1">
<path d="M .305 .31300003 C .311 .33900003 .334 .43100003 .404 .43100003 C .409 .43100003 .433 .43100003 .454 .418 C .426 .41300003 .40600003 .388 .40600003 .36400003 C .40600003 .34800003 .417 .32900004 .444 .32900004 C .46600003 .32900004 .498 .34700004 .498 .38700003 C .498 .43900005 .439 .45300005 .405 .45300005 C .347 .45300005 .312 .40000005 .3 .37700004 C .275 .44300003 .221 .45300005 .19200002 .45300005 C .08800001 .45300005 .031000002 .32400004 .031000002 .29900003 C .031000002 .28900004 .041 .28900004 .043000007 .28900004 C .051000008 .28900004 .054000006 .291 .056 .3 C .09 .40600003 .156 .43100003 .19000001 .43100003 C .209 .43100003 .244 .42200003 .244 .36400003 C .244 .33300004 .22700002 .26600004 .19000001 .126 C .17400001 .064 .13900002 .022000002 .095000009 .022000002 C .08900001 .022000002 .06600001 .022000002 .045 .035 C .07000001 .040000004 .09200001 .061 .09200001 .089 C .09200001 .116000007 .07000001 .124000009 .055000009 .124000009 C .025 .124000009 0 .098000008 0 .06600001 C 0 .020000002 .050000006 0 .094000007 0 C .16000001 0 .19600001 .07000001 .19900002 .076000008 C .21100001 .039 .24700003 0 .307 0 C .41 0 .467 .12900001 .467 .15400002 C .467 .16400002 .458 .16400002 .455 .16400002 C .446 .16400002 .444 .16000001 .442 .15300001 C .409 .046 .341 .022000002 .30900003 .022000002 C .27 .022000002 .254 .054 .254 .08800001 C .254 .11000001 .26 .13200002 .271 .17600002 L .305 .31300003 Z "/>
</symbol>
<use xlink:href="#font_3_1" transform="matrix(9.9626,0,0,-9.9626,201.39392,148.37358)"/>
<symbol id="font_3_2">
<path d="M .45700003 .586 C .461 .6 .461 .602 .461 .609 C .461 .62700006 .447 .63600006 .432 .63600006 C .42200003 .63600006 .40600003 .63 .397 .615 C .395 .61 .387 .579 .38300003 .561 C .37600003 .535 .36900003 .508 .363 .48100005 L .318 .301 C .314 .286 .271 .21600002 .20500002 .21600002 C .15400002 .21600002 .143 .26000003 .143 .29700003 C .143 .34300003 .16000001 .40500004 .194 .49300004 C .21000001 .53400006 .21400002 .545 .21400002 .56500008 C .21400002 .61 .18200001 .6470001 .13200002 .6470001 C .037 .6470001 0 .50200006 0 .49300004 C 0 .48300005 .01 .48300005 .012 .48300005 C .022000002 .48300005 .023 .485 .028000003 .50100007 C .055000009 .595 .095000009 .625 .12900001 .625 C .13700001 .625 .15400002 .625 .15400002 .59300008 C .15400002 .568 .14400001 .54200008 .13700001 .523 C .097 .41700004 .079 .36 .079 .31300003 C .079 .224 .142 .194 .201 .194 C .24000003 .194 .274 .21100001 .30200003 .23900002 C .289 .187 .277 .13800001 .237 .08500001 C .21100001 .051 .17300001 .022 .127 .022 C .113000009 .022 .068 .025000006 .051000008 .06400001 C .067 .06400001 .080000009 .06400001 .094000007 .076000008 C .104 .08500001 .11400001 .098000008 .11400001 .117000009 C .11400001 .148 .087000008 .15200001 .07700001 .15200001 C .054000006 .15200001 .021 .136 .021 .087000008 C .021 .037 .065000008 0 .127 0 C .23 0 .333 .091000009 .361 .20400001 L .45700003 .586 Z "/>
</symbol>
<use xlink:href="#font_3_2" transform="matrix(9.9626,0,0,-9.9626,110.627918,9.748327)"/>
</svg>
