<?xml version="1.0" encoding="UTF-8" standalone="no"?>
<!DOCTYPE svg PUBLIC "-//W3C//DTD SVG 1.1//EN" "http://www.w3.org/Graphics/SVG/1.1/DTD/svg11.dtd">
<svg xmlns="http://www.w3.org/2000/svg" xmlns:xlink="http://www.w3.org/1999/xlink" version="1.1" width="210.12pt" height="169.469pt" viewBox="0 0 210.12 169.469">
<path transform="matrix(1,0,0,-1,9.686,167.924)" stroke-width="1" stroke-linecap="butt" stroke-miterlimit="10" stroke-linejoin="miter" fill="none" stroke="#808080" d="M 24.28363 13.25464 L 24.28363 16.09004 M 72.8509 13.25464 L 72.8509 16.09004 M 121.4182 13.25464 L 121.4182 16.09004 M 169.98548 13.25464 L 169.98548 16.09004 "/>
<path transform="matrix(1,0,0,-1,9.686,167.924)" stroke-width="1" stroke-linecap="butt" stroke-miterlimit="10" stroke-linejoin="miter" fill="none" stroke="#808080" d="M 0 12.54599 L 0 16.79866 M 48.56728 12.54599 L 48.56728 16.79866 M 145.70183 12.54599 L 145.70183 16.79866 M 194.26912 12.54599 L 194.26912 16.79866 "/>
<path transform="matrix(1,0,0,-1,9.686,167.924)" stroke-width="1" stroke-linecap="butt" stroke-miterlimit="10" stroke-linejoin="miter" fill="none" stroke="#808080" d="M 95.7171 0 L 98.552 0 M 95.7171 29.34468 L 98.552 29.34468 M 95.7171 58.68936 L 98.552 58.68936 M 95.7171 88.03404 L 98.552 88.03404 M 95.7171 117.37872 L 98.552 117.37872 M 95.7171 146.7234 L 98.552 146.7234 "/>
<path transform="matrix(1,0,0,-1,9.686,167.924)" stroke-width="1" stroke-linecap="butt" stroke-miterlimit="10" stroke-linejoin="miter" fill="none" stroke="#808080" d="M 95.0086 44.01701 L 99.26048 44.01701 M 95.0086 73.3617 L 99.26048 73.3617 M 95.0086 102.70638 L 99.26048 102.70638 M 95.0086 132.05107 L 99.26048 132.05107 M 95.0086 161.39575 L 99.26048 161.39575 "/>
<path transform="matrix(1,0,0,-1,9.686,167.924)" stroke-width="1" stroke-linecap="butt" stroke-miterlimit="10" stroke-linejoin="miter" fill="none" stroke="#000000" d="M 0 14.67233 L 192.2766 14.67233 "/>
<path transform="matrix(1,0,0,-1,201.9626,153.25167)" d="M 1.99252 0 L -1.19551 1.59401 L 0 0 L -1.19551 -1.59401 "/>
<path transform="matrix(1,0,0,-1,9.686,167.924)" stroke-width="1" stroke-linecap="butt" stroke-miterlimit="10" stroke-linejoin="miter" fill="none" stroke="#000000" d="M 97.13455 0 L 97.13455 159.40323 "/>
<path transform="matrix(0,-1,-1,-0,106.82055,8.520767)" d="M 1.99252 0 L -1.19551 1.59401 L 0 0 L -1.19551 -1.59401 "/>
<symbol id="font_0_1">
<path d="M .57600006 0 C .59300008 0 .611 0 .611 .019999996 C .611 .040000008 .59300008 .040000008 .57600006 .040000008 L .035000005 .040000008 C .018 .040000008 0 .040000008 0 .019999996 C 0 0 .018 0 .035000005 0 L .57600006 0 Z "/>
</symbol>
<use xlink:href="#font_0_1" transform="matrix(9.9626,0,0,-9.9626,4.147896,163.0266)"/>
<symbol id="font_1_4">
<path d="M .266 .165 L .266 .078 C .266 .042000005 .26400004 .031000002 .19000001 .031000002 L .16900002 .031000002 L .16900002 0 C .21000001 .003 .26200003 .003 .30400003 .003 C .34600003 .003 .39900003 .003 .44000004 0 L .44000004 .031000002 L .41900004 .031000002 C .34500004 .031000002 .34300003 .042000005 .34300003 .078 L .34300003 .165 L .44300003 .165 L .44300003 .19600001 L .34300003 .19600001 L .34300003 .651 C .34300003 .671 .34300003 .67700007 .32700003 .67700007 C .31800003 .67700007 .31500004 .67700007 .307 .665 L 0 .19600001 L 0 .165 L .266 .165 M .272 .19600001 L .028 .19600001 L .272 .569 L .272 .19600001 Z "/>
</symbol>
<use xlink:href="#font_1_4" transform="matrix(9.9626,0,0,-9.9626,11.347953,165.318)"/>
<use xlink:href="#font_0_1" transform="matrix(9.9626,0,0,-9.9626,52.713899,163.0266)"/>
<symbol id="font_1_3">
<path d="M .07700001 .07700001 L .18300002 .18 C .33900003 .31800003 .39900003 .372 .39900003 .47200004 C .39900003 .586 .30900003 .666 .18700002 .666 C .074 .666 0 .574 0 .485 C 0 .42900003 .05 .42900003 .053000008 .42900003 C .07000001 .42900003 .105000007 .441 .105000007 .48200003 C .105000007 .508 .08700001 .53400006 .052000006 .53400006 C .044000005 .53400006 .042000008 .53400006 .039 .53300008 C .062000004 .59800007 .11600001 .63500007 .17400001 .63500007 C .26500003 .63500007 .308 .554 .308 .47200004 C .308 .39200003 .25800003 .31300003 .20300003 .25100003 L .011000004 .037 C 0 .026 0 .024 0 0 L .37100003 0 L .39900003 .17400001 L .374 .17400001 C .36900003 .14400001 .36200003 .1 .352 .085 C .345 .07700001 .279 .07700001 .257 .07700001 L .07700001 .07700001 Z "/>
</symbol>
<use xlink:href="#font_1_3" transform="matrix(9.9626,0,0,-9.9626,60.134134,165.318)"/>
<use xlink:href="#font_1_3" transform="matrix(9.9626,0,0,-9.9626,153.39313,165.318)"/>
<use xlink:href="#font_1_4" transform="matrix(9.9626,0,0,-9.9626,201.74095,165.318)"/>
<use xlink:href="#font_1_3" transform="matrix(9.9626,0,0,-9.9626,96.690128,127.118)"/>
<use xlink:href="#font_1_4" transform="matrix(9.9626,0,0,-9.9626,96.47095,97.772998)"/>
<symbol id="font_1_5">
<path d="M .089999999 .35000003 L .089999999 .37400005 C .089999999 .62700006 .21400002 .66300007 .26500003 .66300007 C .28900004 .66300007 .33100004 .65700009 .35300002 .623 C .33800004 .623 .298 .623 .298 .57800009 C .298 .54700008 .32200004 .53200009 .344 .53200009 C .36 .53200009 .39000003 .54100009 .39000003 .58000007 C .39000003 .64000007 .34600003 .688 .263 .688 C .13499999 .688 0 .559 0 .33800004 C 0 .071 .116000007 0 .20900002 0 C .32000003 0 .41500003 .094000007 .41500003 .22600001 C .41500003 .35300005 .32600004 .44900004 .215 .44900004 C .14700002 .44900004 .11000001 .39800004 .089999999 .35000003 M .20900002 .028 C .146 .028 .116000007 .088 .11000001 .103 C .092 .15 .092 .23 .092 .24800001 C .092 .32600004 .124000009 .42600004 .21400002 .42600004 C .23000002 .42600004 .27600003 .42600004 .307 .36400003 C .32500003 .32700003 .32500003 .27600003 .32500003 .22700002 C .32500003 .179 .32500003 .12900001 .30800004 .093 C .27800004 .033000005 .23200003 .028 .20900002 .028 Z "/>
</symbol>
<use xlink:href="#font_1_5" transform="matrix(9.9626,0,0,-9.9626,96.61042,68.64817)"/>
<symbol id="font_1_6">
<path d="M .121 .47900004 C .075 .509 .071 .54300007 .071 .56000009 C .071 .62100008 .136 .66300007 .20700002 .66300007 C .28000004 .66300007 .344 .61100009 .344 .53900006 C .344 .48200003 .305 .43400005 .245 .39900003 L .121 .47900004 M .26700003 .38400004 C .33900003 .42100004 .388 .47300006 .388 .53900006 C .388 .63100007 .29900003 .688 .208 .688 C .108 .688 .027000003 .614 .027000003 .521 C .027000003 .503 .029 .45800004 .071 .41100005 C .082 .39900003 .11900001 .37400005 .144 .35700003 C .086 .32800005 0 .272 0 .17300001 C 0 .067 .102000009 0 .20700002 0 C .32000003 0 .41500003 .083000008 .41500003 .19000001 C .41500003 .22600001 .404 .27100004 .36600004 .31300003 C .34700004 .33400003 .33100004 .34400005 .26700003 .38400004 M .167 .34200005 L .29000003 .26400004 C .31800003 .245 .365 .215 .365 .154 C .365 .080000009 .29000003 .028 .208 .028 C .122 .028 .050000006 .09 .050000006 .17300001 C .050000006 .231 .082 .29500003 .167 .34200005 Z "/>
</symbol>
<use xlink:href="#font_1_6" transform="matrix(9.9626,0,0,-9.9626,96.61042,39.30417)"/>
<symbol id="font_1_2">
<path d="M .205 .64000007 C .205 .66400006 .205 .666 .18200003 .666 C .120000008 .60200008 .032000007 .60200008 0 .60200008 L 0 .57100006 C .020000004 .57100006 .07900001 .57100006 .13100001 .597 L .13100001 .079 C .13100001 .043 .128 .031000002 .038000004 .031000002 L .0060000049 .031000002 L .0060000049 0 C .04100001 .003 .128 .003 .168 .003 C .20800002 .003 .29500003 .003 .33000005 0 L .33000005 .031000002 L .29800005 .031000002 C .20800002 .031000002 .205 .042000005 .205 .079 L .205 .64000007 Z "/>
</symbol>
<symbol id="font_1_1">
<path d="M .421 .34200005 C .421 .42200003 .416 .50200006 .381 .57600006 C .335 .67200008 .25300003 .688 .211 .688 C .15100001 .688 .07800001 .66200008 .037000006 .56900009 C .0050000029 .5 0 .42200003 0 .34200005 C 0 .26700003 .0040000008 .177 .045000007 .101 C .088 .020000002 .161 0 .21000001 0 C .264 0 .34 .021000002 .384 .116000007 C .416 .185 .421 .263 .421 .34200005 M .21000001 .022000002 C .171 .022000002 .112 .047000003 .094 .143 C .083000008 .20300001 .083000008 .29500003 .083000008 .35400004 C .083000008 .41800005 .083000008 .48400004 .091000009 .53800007 C .11 .65700009 .185 .66600009 .21000001 .66600009 C .243 .66600009 .30900003 .64800009 .328 .549 C .338 .49300004 .338 .41700004 .338 .35400004 C .338 .279 .338 .21100001 .32700003 .147 C .312 .052 .255 .022000002 .21000001 .022000002 Z "/>
</symbol>
<use xlink:href="#font_1_2" transform="matrix(9.9626,0,0,-9.9626,92.09767,9.73999)"/>
<use xlink:href="#font_1_1" transform="matrix(9.9626,0,0,-9.9626,96.58084,9.9591679)"/>
<clipPath id="cp2">
<path transform="matrix(1,0,0,-1,9.686,167.924)" d="M 0 0 L 194.26912 0 L 194.26912 161.39575 L 0 161.39575 Z "/>
</clipPath>
<g clip-path="url(#cp2)">
<path transform="matrix(1,0,0,-1,9.686,167.924)" stroke-width="1" stroke-linecap="butt" stroke-miterlimit="10" stroke-linejoin="miter" fill="none" stroke="#000000" d="M 24.74129 16.53004 L 24.77092 16.5316 L 25.25821 16.55801 L 25.7455 16.58458 L 26.2328 16.611 L 26.72008 16.6387 L 27.20738 16.66675 L 27.69467 16.69461 L 28.18196 16.72235 L 28.66925 16.75171 L 29.15656 16.77971 L 29.64383 16.81038 L 30.13113 16.83972 L 30.61842 16.8707 L 31.10571 16.90149 L 31.593 16.93217 L 32.0803 16.9646 L 32.56758 16.99539 L 33.05489 17.02913 L 33.54218 17.06142 L 34.02946 17.09518 L 34.51675 17.1289 L 35.00406 17.16281 L 35.49133 17.19788 L 35.97864 17.2331 L 36.46593 17.26976 L 36.95322 17.30646 L 37.4405 17.34329 L 37.92781 17.37996 L 38.41508 17.41798 L 38.90239 17.45625 L 39.38968 17.49586 L 39.87697 17.53549 L 40.36427 17.57524 L 40.85155 17.61618 L 41.33885 17.65741 L 41.82614 17.69833 L 42.31343 17.7409 L 42.80072 17.78491 L 43.28802 17.82747 L 43.7753 17.87163 L 44.2626 17.91711 L 44.7499 17.96245 L 45.23718 18.00795 L 45.72447 18.05504 L 46.21178 18.10197 L 46.69905 18.1504 L 47.18636 18.19896 L 47.67365 18.24855 L 48.16093 18.29858 L 48.64822 18.3501 L 49.13553 18.4013 L 49.6228 18.45412 L 50.1101 18.50694 L 50.5974 18.55977 L 51.08469 18.6142 L 51.57198 18.66994 L 52.05928 18.72571 L 52.54655 18.78307 L 53.03386 18.84015 L 53.52115 18.89883 L 54.00844 18.95769 L 54.49573 19.01768 L 54.98303 19.07945 L 55.47032 19.14108 L 55.95761 19.20256 L 56.4449 19.26727 L 56.93219 19.33035 L 57.4195 19.39653 L 57.90677 19.46255 L 58.39407 19.52989 L 58.88136 19.59753 L 59.36865 19.66649 L 59.85594 19.73679 L 60.34325 19.80734 L 60.83052 19.8791 L 61.31783 19.9526 L 61.80511 20.02597 L 62.2924 20.1008 L 62.7797 20.1771 L 63.267 20.25485 L 63.75427 20.33276 L 64.24158 20.41199 L 64.72887 20.49255 L 65.21616 20.5734 L 65.70345 20.65556 L 66.19075 20.73933 L 66.67802 20.82442 L 67.16533 20.911 L 67.65262 20.99904 L 68.13991 21.08707 L 68.6272 21.17657 L 69.1145 21.26753 L 69.60178 21.36014 L 70.08908 21.45387 L 70.57639 21.54926 L 71.06366 21.6446 L 71.55096 21.74292 L 72.03824 21.84152 L 72.52554 21.9426 L 73.01283 22.04385 L 73.50012 22.14818 L 73.98741 22.25235 L 74.47472 22.358 L 74.96199 22.46655 L 75.4493 22.57515 L 75.93658 22.68535 L 76.42387 22.79831 L 76.91116 22.91277 L 77.39847 23.0272 L 77.88576 23.14471 L 78.37305 23.26357 L 78.86035 23.38374 L 79.34763 23.50568 L 79.83493 23.6289 L 80.32222 23.75525 L 80.80951 23.88127 L 81.2968 24.01038 L 81.7841 24.14127 L 82.27138 24.27463 L 82.75868 24.40833 L 83.24597 24.5446 L 83.73326 24.68251 L 84.22055 24.82353 L 84.70786 24.966 L 85.19514 25.10965 L 85.68243 25.25652 L 86.16974 25.40486 L 86.65701 25.55437 L 87.14432 25.7071 L 87.63159 25.86102 L 88.1189 26.01816 L 88.60619 26.17676 L 89.09348 26.33815 L 89.58078 26.50249 L 90.06807 26.66681 L 90.55536 26.83568 L 91.04265 27.00574 L 91.52995 27.17903 L 92.01723 27.35364 L 92.50453 27.53117 L 92.99182 27.71164 L 93.47911 27.8937 L 93.9664 28.0786 L 94.4537 28.2664 L 94.941 28.45714 L 95.42828 28.64949 L 95.91559 28.84624 L 96.40286 29.04446 L 96.89017 29.24548 L 97.37746 29.44649 L 97.86475 29.65367 L 98.35204 29.86319 L 98.83934 30.0761 L 99.32661 30.29163 L 99.81392 30.51024 L 100.30121 30.73222 L 100.7885 30.95715 L 101.2758 31.18503 L 101.76309 31.41624 L 102.25038 31.65086 L 102.73767 31.88843 L 103.22496 32.12947 L 103.71225 32.37422 L 104.19955 32.62204 L 104.68683 32.87352 L 105.17413 33.12807 L 105.66142 33.38692 L 106.14871 33.64851 L 106.636 33.91437 L 107.1233 34.18362 L 107.6106 34.45724 L 108.09789 34.7344 L 108.58519 35.01538 L 109.07246 35.30017 L 109.55977 35.58878 L 110.04706 35.88179 L 110.53435 36.17905 L 111.02164 36.47997 L 111.50894 36.78587 L 111.99622 37.09517 L 112.48352 37.40889 L 112.97083 37.72743 L 113.4581 38.05035 L 113.9454 38.37784 L 114.4327 38.70973 L 114.91998 39.04675 L 115.40727 39.38759 L 115.89458 39.73386 L 116.38185 40.08482 L 116.86916 40.44046 L 117.35645 40.80157 L 117.84373 41.1675 L 118.33104 41.53885 L 118.81831 41.91504 L 119.30562 42.29652 L 119.79291 42.6833 L 120.2802 43.07504 L 120.76749 43.47295 L 121.25479 43.876 L 121.74207 44.28566 L 122.22937 44.7003 L 122.71666 45.12053 L 123.20395 45.54749 L 123.69124 45.9793 L 124.17854 46.4177 L 124.66582 46.86299 L 125.15312 47.31345 L 125.64041 47.77065 L 126.1277 48.23383 L 126.61499 48.70422 L 127.1023 49.18036 L 127.58957 49.66394 L 128.07688 50.15399 L 128.56417 50.65038 L 129.05146 51.15437 L 129.53874 51.66527 L 130.02605 52.18378 L 130.51332 52.70876 L 131.00063 53.24165 L 131.48792 53.78162 L 131.9752 54.32858 L 132.46251 54.88467 L 132.9498 55.44824 L 133.43709 56.01869 L 133.92438 56.5978 L 134.41167 57.1844 L 134.89896 57.78053 L 135.38626 58.38358 L 135.87354 58.99629 L 136.36084 59.61665 L 136.84813 60.24696 L 137.33542 60.88446 L 137.82271 61.53079 L 138.31002 62.18811 L 138.79729 62.85307 L 139.28459 63.5283 L 139.77188 64.21245 L 140.25917 64.90631 L 140.74646 65.60971 L 141.23377 66.32338 L 141.72104 67.04688 L 142.20835 67.77959 L 142.69564 68.52377 L 143.18292 69.2778 L 143.67021 70.04266 L 144.15752 70.8175 L 144.64479 71.6035 L 145.1321 72.40167 L 145.61939 73.2088 L 146.10668 74.02974 L 146.59397 74.85988 L 147.08127 75.70457 L 147.56856 76.55821 L 148.05585 77.42474 L 148.54315 78.30408 L 149.03043 79.19496 L 149.51773 80.09967 L 150.005 81.0145 L 150.49231 81.9431 L 150.9796 82.8858 L 151.46689 83.84055 L 151.95418 84.81096 L 152.44149 85.79166 L 152.92876 86.7888 L 153.41606 87.79897 L 153.90335 88.82149 L 154.39064 89.8609 L 154.87793 90.91364 L 155.36524 91.98177 L 155.85251 93.06328 L 156.33982 94.1621 L 156.8271 95.27602 L 157.31439 96.40341 L 157.80168 97.54906 L 158.28899 98.70918 L 158.77626 99.88664 L 159.26357 101.0801 L 159.75086 102.28879 L 160.23815 103.51703 L 160.72544 104.76065 L 161.21274 106.02277 L 161.70001 107.3016 L 162.18732 108.59967 L 162.67462 109.91402 L 163.1619 111.24979 L 163.6492 112.60066 L 164.13649 113.97209 L 164.62378 115.36275 L 165.11107 116.77362 L 165.59836 118.20375 L 166.08565 119.65204 L 166.57295 121.12251 L 167.06023 122.61424 L 167.54753 124.12624 L 168.03482 125.65904 L 168.52211 127.21182 L 169.0094 128.79 L 169.4967 130.38692 L 169.852 131.56764 "/>
<path transform="matrix(-.99864,.05167,.05167,.99864,34.4273,151.39394)" stroke-width="1" stroke-linecap="round" stroke-linejoin="round" fill="none" stroke="#000000" d="M -1.19551 1.59401 C -1.09587 .99626 0 .09961 .29886 0 C 0 -.09961 -1.09587 -.99626 -1.19551 -1.59401 "/>
<path transform="matrix(.28802,-.95757,-.95757,-.28802,179.53801,36.35637)" stroke-width="1" stroke-linecap="round" stroke-linejoin="round" fill="none" stroke="#000000" d="M -1.19551 1.59401 C -1.09587 .99626 0 .09961 .29886 0 C 0 -.09961 -1.09587 -.99626 -1.19551 -1.59401 "/>
</g>
<symbol id="font_3_1">
<path d="M .305 .31300003 C .311 .33900003 .334 .43100003 .404 .43100003 C .409 .43100003 .433 .43100003 .454 .418 C .426 .41300003 .40600003 .388 .40600003 .36400003 C .40600003 .34800003 .417 .32900004 .444 .32900004 C .46600003 .32900004 .498 .34700004 .498 .38700003 C .498 .43900005 .439 .45300005 .405 .45300005 C .347 .45300005 .312 .40000005 .3 .37700004 C .275 .44300003 .221 .45300005 .19200002 .45300005 C .08800001 .45300005 .031000002 .32400004 .031000002 .29900003 C .031000002 .28900004 .041 .28900004 .043000007 .28900004 C .051000008 .28900004 .054000006 .291 .056 .3 C .09 .40600003 .156 .43100003 .19000001 .43100003 C .209 .43100003 .244 .42200003 .244 .36400003 C .244 .33300004 .22700002 .26600004 .19000001 .126 C .17400001 .064 .13900002 .022000002 .095000009 .022000002 C .08900001 .022000002 .06600001 .022000002 .045 .035 C .07000001 .040000004 .09200001 .061 .09200001 .089 C .09200001 .116000007 .07000001 .124000009 .055000009 .124000009 C .025 .124000009 0 .098000008 0 .06600001 C 0 .020000002 .050000006 0 .094000007 0 C .16000001 0 .19600001 .07000001 .19900002 .076000008 C .21100001 .039 .24700003 0 .307 0 C .41 0 .467 .12900001 .467 .15400002 C .467 .16400002 .458 .16400002 .455 .16400002 C .446 .16400002 .444 .16000001 .442 .15300001 C .409 .046 .341 .022000002 .30900003 .022000002 C .27 .022000002 .254 .054 .254 .08800001 C .254 .11000001 .26 .13200002 .271 .17600002 L .305 .31300003 Z "/>
</symbol>
<use xlink:href="#font_3_1" transform="matrix(9.9626,0,0,-9.9626,201.39392,148.37358)"/>
<symbol id="font_3_2">
<path d="M .45700003 .586 C .461 .6 .461 .602 .461 .609 C .461 .62700006 .447 .63600006 .432 .63600006 C .42200003 .63600006 .40600003 .63 .397 .615 C .395 .61 .387 .579 .38300003 .561 C .37600003 .535 .36900003 .508 .363 .48100005 L .318 .301 C .314 .286 .271 .21600002 .20500002 .21600002 C .15400002 .21600002 .143 .26000003 .143 .29700003 C .143 .34300003 .16000001 .40500004 .194 .49300004 C .21000001 .53400006 .21400002 .545 .21400002 .56500008 C .21400002 .61 .18200001 .6470001 .13200002 .6470001 C .037 .6470001 0 .50200006 0 .49300004 C 0 .48300005 .01 .48300005 .012 .48300005 C .022000002 .48300005 .023 .485 .028000003 .50100007 C .055000009 .595 .095000009 .625 .12900001 .625 C .13700001 .625 .15400002 .625 .15400002 .59300008 C .15400002 .568 .14400001 .54200008 .13700001 .523 C .097 .41700004 .079 .36 .079 .31300003 C .079 .224 .142 .194 .201 .194 C .24000003 .194 .274 .21100001 .30200003 .23900002 C .289 .187 .277 .13800001 .237 .08500001 C .21100001 .051 .17300001 .022 .127 .022 C .113000009 .022 .068 .025000006 .051000008 .06400001 C .067 .06400001 .080000009 .06400001 .094000007 .076000008 C .104 .08500001 .11400001 .098000008 .11400001 .117000009 C .11400001 .148 .087000008 .15200001 .07700001 .15200001 C .054000006 .15200001 .021 .136 .021 .087000008 C .021 .037 .065000008 0 .127 0 C .23 0 .333 .091000009 .361 .20400001 L .45700003 .586 Z "/>
</symbol>
<use xlink:href="#font_3_2" transform="matrix(9.9626,0,0,-9.9626,110.627918,9.748327)"/>
</svg>
