<?xml version="1.0" encoding="UTF-8" standalone="no"?>
<!DOCTYPE svg PUBLIC "-//W3C//DTD SVG 1.1//EN" "http://www.w3.org/Graphics/SVG/1.1/DTD/svg11.dtd">
<svg xmlns="http://www.w3.org/2000/svg" xmlns:xlink="http://www.w3.org/1999/xlink" version="1.1" width="200.63pt" height="168.015pt" viewBox="0 0 200.63 168.015">
<path transform="matrix(1,0,0,-1,.199,167.816)" stroke-width="1" stroke-linecap="butt" stroke-miterlimit="10" stroke-linejoin="miter" fill="none" stroke="#808080" d="M 0 79.27469 L 0 82.1095 M 38.85321 79.27469 L 38.85321 82.1095 M 77.70642 79.27469 L 77.70642 82.1095 M 116.55965 79.27469 L 116.55965 82.1095 M 155.41286 79.27469 L 155.41286 82.1095 M 194.26607 79.27469 L 194.26607 82.1095 "/>
<path transform="matrix(1,0,0,-1,.199,167.816)" stroke-width="1" stroke-linecap="butt" stroke-miterlimit="10" stroke-linejoin="miter" fill="none" stroke="#808080" d="M 19.4266 78.56621 L 19.4266 82.81796 M 58.27982 78.56621 L 58.27982 82.81796 M 135.98625 78.56621 L 135.98625 82.81796 M 174.83946 78.56621 L 174.83946 82.81796 "/>
<path transform="matrix(1,0,0,-1,.199,167.816)" stroke-width="1" stroke-linecap="butt" stroke-miterlimit="10" stroke-linejoin="miter" fill="none" stroke="#808080" d="M 95.71562 0 L 98.55045 0 M 95.71562 32.27684 L 98.55045 32.27684 M 95.71562 64.55368 L 98.55045 64.55368 M 95.71562 96.83052 L 98.55045 96.83052 M 95.71562 129.10736 L 98.55045 129.10736 M 95.71562 161.3842 L 98.55045 161.3842 "/>
<path transform="matrix(1,0,0,-1,.199,167.816)" stroke-width="1" stroke-linecap="butt" stroke-miterlimit="10" stroke-linejoin="miter" fill="none" stroke="#808080" d="M 95.00711 16.13841 L 99.25894 16.13841 M 95.00711 48.41525 L 99.25894 48.41525 M 95.00711 112.96893 L 99.25894 112.96893 M 95.00711 145.24578 L 99.25894 145.24578 "/>
<path transform="matrix(1,0,0,-1,.199,167.816)" stroke-width="1" stroke-linecap="butt" stroke-miterlimit="10" stroke-linejoin="miter" fill="none" stroke="#000000" d="M 0 80.6921 L 192.27355 80.6921 "/>
<path transform="matrix(1,0,0,-1,192.47255,87.12389)" d="M 1.99252 0 L -1.19551 1.59401 L 0 0 L -1.19551 -1.59401 "/>
<path transform="matrix(1,0,0,-1,.199,167.816)" stroke-width="1" stroke-linecap="butt" stroke-miterlimit="10" stroke-linejoin="miter" fill="none" stroke="#000000" d="M 97.13303 0 L 97.13303 159.39168 "/>
<path transform="matrix(0,-1,-1,-0,97.33203,8.424316)" d="M 1.99252 0 L -1.19551 1.59401 L 0 0 L -1.19551 -1.59401 "/>
<symbol id="font_0_1">
<path d="M .57600006 0 C .59300008 0 .611 0 .611 .019999996 C .611 .040000008 .59300008 .040000008 .57600006 .040000008 L .035000005 .040000008 C .018 .040000008 0 .040000008 0 .019999996 C 0 0 .018 0 .035000005 0 L .57600006 0 Z "/>
</symbol>
<use xlink:href="#font_0_1" transform="matrix(9.9626,0,0,-9.9626,14.087896,96.89959)"/>
<symbol id="font_1_2">
<path d="M .266 .165 L .266 .078 C .266 .042000005 .26400004 .031000002 .19000001 .031000002 L .16900002 .031000002 L .16900002 0 C .21000001 .003 .26200003 .003 .30400003 .003 C .34600003 .003 .39900003 .003 .44000004 0 L .44000004 .031000002 L .41900004 .031000002 C .34500004 .031000002 .34300003 .042000005 .34300003 .078 L .34300003 .165 L .44300003 .165 L .44300003 .19600001 L .34300003 .19600001 L .34300003 .651 C .34300003 .671 .34300003 .67700007 .32700003 .67700007 C .31800003 .67700007 .31500004 .67700007 .307 .665 L 0 .19600001 L 0 .165 L .266 .165 M .272 .19600001 L .028 .19600001 L .272 .569 L .272 .19600001 Z "/>
</symbol>
<use xlink:href="#font_1_2" transform="matrix(9.9626,0,0,-9.9626,21.287953,99.19099)"/>
<use xlink:href="#font_0_1" transform="matrix(9.9626,0,0,-9.9626,52.9399,96.89959)"/>
<symbol id="font_1_1">
<path d="M .07700001 .07700001 L .18300002 .18 C .33900003 .31800003 .39900003 .372 .39900003 .47200004 C .39900003 .586 .30900003 .666 .18700002 .666 C .074 .666 0 .574 0 .485 C 0 .42900003 .05 .42900003 .053000008 .42900003 C .07000001 .42900003 .105000007 .441 .105000007 .48200003 C .105000007 .508 .08700001 .53400006 .052000006 .53400006 C .044000005 .53400006 .042000008 .53400006 .039 .53300008 C .062000004 .59800007 .11600001 .63500007 .17400001 .63500007 C .26500003 .63500007 .308 .554 .308 .47200004 C .308 .39200003 .25800003 .31300003 .20300003 .25100003 L .011000004 .037 C 0 .026 0 .024 0 0 L .37100003 0 L .39900003 .17400001 L .374 .17400001 C .36900003 .14400001 .36200003 .1 .352 .085 C .345 .07700001 .279 .07700001 .257 .07700001 L .07700001 .07700001 Z "/>
</symbol>
<use xlink:href="#font_1_1" transform="matrix(9.9626,0,0,-9.9626,60.360136,99.19099)"/>
<use xlink:href="#font_1_1" transform="matrix(9.9626,0,0,-9.9626,134.19113,99.19099)"/>
<use xlink:href="#font_1_2" transform="matrix(9.9626,0,0,-9.9626,172.82495,99.19099)"/>
<use xlink:href="#font_0_1" transform="matrix(9.9626,0,0,-9.9626,79.78189,152.1816)"/>
<use xlink:href="#font_1_2" transform="matrix(9.9626,0,0,-9.9626,86.98295,154.47299)"/>
<use xlink:href="#font_0_1" transform="matrix(9.9626,0,0,-9.9626,79.78189,119.9046)"/>
<use xlink:href="#font_1_1" transform="matrix(9.9626,0,0,-9.9626,87.202129,122.196)"/>
<use xlink:href="#font_1_1" transform="matrix(9.9626,0,0,-9.9626,87.202129,58.058984)"/>
<use xlink:href="#font_1_2" transform="matrix(9.9626,0,0,-9.9626,86.98295,25.781998)"/>
<clipPath id="cp2">
<path transform="matrix(1,0,0,-1,.199,167.816)" d="M 0 0 L 194.26607 0 L 194.26607 161.3842 L 0 161.3842 Z "/>
</clipPath>
<g clip-path="url(#cp2)">
<path transform="matrix(1,0,0,-1,.199,167.816)" stroke-width="1" stroke-linecap="butt" stroke-miterlimit="10" stroke-linejoin="miter" fill="none" stroke="#000000" d="M 10.0198 8.32384 L 10.29803 8.55496 L 10.88278 9.04073 L 11.46753 9.5265 L 12.05228 10.01227 L 12.63702 10.49805 L 13.22176 10.98381 L 13.8065 11.46957 L 14.39125 11.95535 L 14.976 12.44113 L 15.56075 12.92691 L 16.1455 13.41267 L 16.73024 13.89845 L 17.31499 14.38422 L 17.89973 14.86998 L 18.48447 15.35576 L 19.06921 15.84152 L 19.65396 16.3273 L 20.23871 16.81306 L 20.82347 17.29884 L 21.4082 17.7846 L 21.99295 18.27037 L 22.5777 18.75615 L 23.16245 19.24191 L 23.7472 19.72769 L 24.33192 20.21346 L 24.91667 20.69923 L 25.50142 21.185 L 26.08618 21.67076 L 26.67091 22.15654 L 27.25566 22.6423 L 27.84041 23.12808 L 28.42516 23.61385 L 29.0099 24.09962 L 29.59464 24.58539 L 30.17938 25.07115 L 30.76413 25.55693 L 31.34889 26.0427 L 31.93364 26.52847 L 32.51837 27.01424 L 33.10312 27.50002 L 33.68787 27.98578 L 34.27261 28.47154 L 34.85736 28.95734 L 35.4421 29.4431 L 36.02684 29.92888 L 36.6116 30.41464 L 37.19635 30.90042 L 37.78108 31.38618 L 38.36583 31.87195 L 38.95058 32.35773 L 39.53532 32.84349 L 40.12007 33.32927 L 40.7048 33.81503 L 41.28955 34.3008 L 41.87431 34.78658 L 42.45906 35.27234 L 43.04381 35.75812 L 43.62854 36.24388 L 44.21329 36.72966 L 44.79803 37.21542 L 45.38278 37.70119 L 45.96753 38.18697 L 46.55226 38.67273 L 47.13702 39.15851 L 47.72177 39.64427 L 48.30652 40.13005 L 48.89125 40.61581 L 49.476 41.10158 L 50.06075 41.58736 L 50.6455 42.07312 L 51.23024 42.5589 L 51.81497 43.04466 L 52.39973 43.53044 L 52.98448 44.0162 L 53.56923 44.50197 L 54.15398 44.98775 L 54.73871 45.47351 L 55.32346 45.9593 L 55.9082 46.44507 L 56.49295 46.93085 L 57.07768 47.41661 L 57.66245 47.90237 L 58.2472 48.38815 L 58.83194 48.87392 L 59.41669 49.3597 L 60.00142 49.84546 L 60.58617 50.33124 L 61.17091 50.817 L 61.75566 51.30276 L 62.34041 51.78854 L 62.92514 52.2743 L 63.5099 52.76009 L 64.09465 53.24585 L 64.6794 53.73163 L 65.26414 54.21739 L 65.84888 54.70316 L 66.43362 55.18893 L 67.01837 55.6747 L 67.60312 56.16048 L 68.18785 56.64624 L 68.77261 57.132 L 69.35736 57.61778 L 69.94211 58.10355 L 70.52686 58.58932 L 71.11159 59.07509 L 71.69633 59.56087 L 72.28108 60.04663 L 72.86583 60.5324 L 73.45058 61.01817 L 74.03532 61.50394 L 74.62007 61.98972 L 75.20482 62.4755 L 75.78957 62.96127 L 76.37431 63.44704 L 76.95905 63.9328 L 77.5438 64.41858 L 78.12854 64.90434 L 78.71329 65.39012 L 79.29803 65.87589 L 79.88278 66.36166 L 80.46753 66.84743 L 81.05228 67.3332 L 81.63702 67.81897 L 82.22177 68.30475 L 82.80652 68.79051 L 83.39127 69.27629 L 83.97601 69.76205 L 84.56076 70.24782 L 85.1455 70.7336 L 85.73026 71.21936 L 86.315 71.70514 L 86.89975 72.1909 L 87.4845 72.67668 L 88.06923 73.16245 L 88.65398 73.64822 L 89.23874 74.13399 L 89.82349 74.61977 L 90.40822 75.10553 L 90.99297 75.59131 L 91.57771 76.07707 L 92.16246 76.56285 L 92.74722 77.04861 L 93.33195 77.5344 L 93.9167 78.02016 L 94.50145 78.50594 L 95.0862 78.9917 L 95.67094 79.4775 L 96.25569 79.96326 L 96.84044 80.44904 L 97.42519 80.9348 L 98.00993 81.42056 L 98.59467 81.90634 L 99.17941 82.3921 L 99.76418 82.87788 L 100.34892 83.36365 L 100.93367 83.84943 L 101.5184 84.33519 L 102.10315 84.82097 L 102.6879 85.30673 L 103.27266 85.79251 L 103.8574 86.27827 L 104.44214 86.76405 L 105.02689 87.24982 L 105.61163 87.7356 L 106.1964 88.22136 L 106.78114 88.70714 L 107.36588 89.1929 L 107.95062 89.67867 L 108.53537 90.16444 L 109.12012 90.6502 L 109.70485 91.13599 L 110.28961 91.62175 L 110.87436 92.10753 L 111.4591 92.59329 L 112.04385 93.07907 L 112.62859 93.56483 L 113.21333 94.05061 L 113.7981 94.53638 L 114.38284 95.02216 L 114.96759 95.50792 L 115.55232 95.99371 L 116.13707 96.47948 L 116.72182 96.96526 L 117.30658 97.45102 L 117.89133 97.93678 L 118.47606 98.42256 L 119.0608 98.90833 L 119.64555 99.3941 L 120.2303 99.87987 L 120.81503 100.36565 L 121.39978 100.85141 L 121.98453 101.33717 L 122.56929 101.82295 L 123.15404 102.30872 L 123.73877 102.7945 L 124.32352 103.28026 L 124.90826 103.76604 L 125.49301 104.2518 L 126.07776 104.73756 L 126.66249 105.22334 L 127.24724 105.7091 L 127.832 106.19489 L 128.41675 106.68065 L 129.0015 107.16643 L 129.58623 107.65219 L 130.17098 108.13795 L 130.75572 108.62373 L 131.34047 109.1095 L 131.9252 109.59528 L 132.50995 110.08104 L 133.09471 110.56682 L 133.67946 111.05258 L 134.2642 111.53835 L 134.84894 112.02412 L 135.43369 112.50989 L 136.01844 112.99568 L 136.60318 113.48145 L 137.18793 113.96722 L 137.77266 114.45299 L 138.35742 114.93875 L 138.94217 115.42453 L 139.52692 115.9103 L 140.11165 116.39607 L 140.6964 116.88184 L 141.28115 117.36761 L 141.86589 117.85338 L 142.45064 118.33914 L 143.03537 118.82492 L 143.62014 119.31068 L 144.20488 119.79646 L 144.78963 120.28223 L 145.37438 120.76799 L 145.9591 121.25377 L 146.54386 121.73953 L 147.1286 122.22531 L 147.71335 122.71107 L 148.2981 123.19685 L 148.88285 123.68262 L 149.46759 124.16838 L 150.05234 124.65416 L 150.63709 125.13992 L 151.22182 125.6257 L 151.80657 126.11147 L 152.39131 126.59724 L 152.97606 127.08301 L 153.5608 127.56877 L 154.14556 128.05455 L 154.7303 128.54032 L 155.31505 129.0261 L 155.8998 129.51187 L 156.48455 129.99765 L 157.06928 130.48342 L 157.65402 130.96918 L 158.23877 131.45496 L 158.82352 131.94072 L 159.40828 132.4265 L 159.99301 132.91226 L 160.57776 133.39804 L 161.1625 133.8838 L 161.74726 134.36957 L 162.33199 134.85535 L 162.91674 135.34111 L 163.50148 135.82689 L 164.08623 136.31266 L 164.67098 136.79843 L 165.25572 137.2842 L 165.84047 137.76996 L 166.42522 138.25574 L 167.00997 138.7415 L 167.59471 139.22728 L 168.17945 139.71305 L 168.76419 140.19882 L 169.34894 140.68459 L 169.93369 141.17035 L 170.51845 141.65613 L 171.10318 142.14189 L 171.68793 142.62767 L 172.27268 143.11344 L 172.85742 143.5992 L 173.44216 144.08498 L 174.0269 144.57074 L 174.61165 145.05652 L 175.1964 145.54228 L 175.78116 146.02806 L 176.36589 146.51384 L 176.95064 146.9996 L 177.53539 147.48538 L 178.12014 147.97115 L 178.70488 148.45693 L 179.28961 148.94269 L 179.87436 149.42847 L 180.4591 149.91423 L 181.04387 150.4 L 181.62862 150.88578 L 182.21335 151.37154 L 182.7981 151.85732 L 183.38285 152.34308 L 183.96759 152.82886 L 184.24584 153.05998 "/>
<path transform="matrix(-.76915,.63898,.63898,.76915,10.065551,159.61948)" stroke-width="1" stroke-linecap="round" stroke-linejoin="round" fill="none" stroke="#000000" d="M -2.07224 2.39104 C -1.69365 .95639 -.84999 .27895 0 0 C -.84999 -.27895 -1.69365 -.95639 -2.07224 -2.39104 "/>
<path transform="matrix(.76915,-.63898,-.63898,-.76915,184.59809,14.628693)" stroke-width="1" stroke-linecap="round" stroke-linejoin="round" fill="none" stroke="#000000" d="M -2.07224 2.39104 C -1.69365 .95639 -.84999 .27895 0 0 C -.84999 -.27895 -1.69365 -.95639 -2.07224 -2.39104 "/>
</g>
<symbol id="font_3_1">
<path d="M .305 .31300003 C .311 .33900003 .334 .43100003 .404 .43100003 C .409 .43100003 .433 .43100003 .454 .418 C .426 .41300003 .40600003 .388 .40600003 .36400003 C .40600003 .34800003 .417 .32900004 .444 .32900004 C .46600003 .32900004 .498 .34700004 .498 .38700003 C .498 .43900005 .439 .45300005 .405 .45300005 C .347 .45300005 .312 .40000005 .3 .37700004 C .275 .44300003 .221 .45300005 .19200002 .45300005 C .08800001 .45300005 .031000002 .32400004 .031000002 .29900003 C .031000002 .28900004 .041 .28900004 .043000007 .28900004 C .051000008 .28900004 .054000006 .291 .056 .3 C .09 .40600003 .156 .43100003 .19000001 .43100003 C .209 .43100003 .244 .42200003 .244 .36400003 C .244 .33300004 .22700002 .26600004 .19000001 .126 C .17400001 .064 .13900002 .022000002 .095000009 .022000002 C .08900001 .022000002 .06600001 .022000002 .045 .035 C .07000001 .040000004 .09200001 .061 .09200001 .089 C .09200001 .116000007 .07000001 .124000009 .055000009 .124000009 C .025 .124000009 0 .098000008 0 .06600001 C 0 .020000002 .050000006 0 .094000007 0 C .16000001 0 .19600001 .07000001 .19900002 .076000008 C .21100001 .039 .24700003 0 .307 0 C .41 0 .467 .12900001 .467 .15400002 C .467 .16400002 .458 .16400002 .455 .16400002 C .446 .16400002 .444 .16000001 .442 .15300001 C .409 .046 .341 .022000002 .30900003 .022000002 C .27 .022000002 .254 .054 .254 .08800001 C .254 .11000001 .26 .13200002 .271 .17600002 L .305 .31300003 Z "/>
</symbol>
<use xlink:href="#font_3_1" transform="matrix(9.9626,0,0,-9.9626,191.90493,83.714588)"/>
<symbol id="font_3_2">
<path d="M .45700003 .586 C .461 .6 .461 .602 .461 .609 C .461 .62700006 .447 .63600006 .432 .63600006 C .42200003 .63600006 .40600003 .63 .397 .615 C .395 .61 .387 .579 .38300003 .561 C .37600003 .535 .36900003 .508 .363 .48100005 L .318 .301 C .314 .286 .271 .21600002 .20500002 .21600002 C .15400002 .21600002 .143 .26000003 .143 .29700003 C .143 .34300003 .16000001 .40500004 .194 .49300004 C .21000001 .53400006 .21400002 .545 .21400002 .56500008 C .21400002 .61 .18200001 .6470001 .13200002 .6470001 C .037 .6470001 0 .50200006 0 .49300004 C 0 .48300005 .01 .48300005 .012 .48300005 C .022000002 .48300005 .023 .485 .028000003 .50100007 C .055000009 .595 .095000009 .625 .12900001 .625 C .13700001 .625 .15400002 .625 .15400002 .59300008 C .15400002 .568 .14400001 .54200008 .13700001 .523 C .097 .41700004 .079 .36 .079 .31300003 C .079 .224 .142 .194 .201 .194 C .24000003 .194 .274 .21100001 .30200003 .23900002 C .289 .187 .277 .13800001 .237 .08500001 C .21100001 .051 .17300001 .022 .127 .022 C .113000009 .022 .068 .025000006 .051000008 .06400001 C .067 .06400001 .080000009 .06400001 .094000007 .076000008 C .104 .08500001 .11400001 .098000008 .11400001 .117000009 C .11400001 .148 .087000008 .15200001 .07700001 .15200001 C .054000006 .15200001 .021 .136 .021 .087000008 C .021 .037 .065000008 0 .127 0 C .23 0 .333 .091000009 .361 .20400001 L .45700003 .586 Z "/>
</symbol>
<use xlink:href="#font_3_2" transform="matrix(9.9626,0,0,-9.9626,101.139919,9.652334)"/>
</svg>
