<?xml version="1.0" encoding="UTF-8" standalone="no"?>
<!DOCTYPE svg PUBLIC "-//W3C//DTD SVG 1.1//EN" "http://www.w3.org/Graphics/SVG/1.1/DTD/svg11.dtd">
<svg xmlns="http://www.w3.org/2000/svg" xmlns:xlink="http://www.w3.org/1999/xlink" version="1.1" width="200.63pt" height="168.015pt" viewBox="0 0 200.63 168.015">
<path transform="matrix(1,0,0,-1,.199,167.816)" stroke-width="1" stroke-linecap="butt" stroke-miterlimit="10" stroke-linejoin="miter" fill="none" stroke="#808080" d="M 0 79.27469 L 0 82.1095 M 38.85321 79.27469 L 38.85321 82.1095 M 77.70642 79.27469 L 77.70642 82.1095 M 116.55965 79.27469 L 116.55965 82.1095 M 155.41286 79.27469 L 155.41286 82.1095 M 194.26607 79.27469 L 194.26607 82.1095 "/>
<path transform="matrix(1,0,0,-1,.199,167.816)" stroke-width="1" stroke-linecap="butt" stroke-miterlimit="10" stroke-linejoin="miter" fill="none" stroke="#808080" d="M 19.4266 78.56621 L 19.4266 82.81796 M 58.27982 78.56621 L 58.27982 82.81796 M 135.98625 78.56621 L 135.98625 82.81796 M 174.83946 78.56621 L 174.83946 82.81796 "/>
<path transform="matrix(1,0,0,-1,.199,167.816)" stroke-width="1" stroke-linecap="butt" stroke-miterlimit="10" stroke-linejoin="miter" fill="none" stroke="#808080" d="M 95.71562 0 L 98.55045 0 M 95.71562 32.27684 L 98.55045 32.27684 M 95.71562 64.55368 L 98.55045 64.55368 M 95.71562 96.83052 L 98.55045 96.83052 M 95.71562 129.10736 L 98.55045 129.10736 M 95.71562 161.3842 L 98.55045 161.3842 "/>
<path transform="matrix(1,0,0,-1,.199,167.816)" stroke-width="1" stroke-linecap="butt" stroke-miterlimit="10" stroke-linejoin="miter" fill="none" stroke="#808080" d="M 95.00711 16.13841 L 99.25894 16.13841 M 95.00711 48.41525 L 99.25894 48.41525 M 95.00711 112.96893 L 99.25894 112.96893 M 95.00711 145.24578 L 99.25894 145.24578 "/>
<path transform="matrix(1,0,0,-1,.199,167.816)" stroke-width="1" stroke-linecap="butt" stroke-miterlimit="10" stroke-linejoin="miter" fill="none" stroke="#000000" d="M 0 80.6921 L 192.27355 80.6921 "/>
<path transform="matrix(1,0,0,-1,192.47255,87.12389)" d="M 1.99252 0 L -1.19551 1.59401 L 0 0 L -1.19551 -1.59401 "/>
<path transform="matrix(1,0,0,-1,.199,167.816)" stroke-width="1" stroke-linecap="butt" stroke-miterlimit="10" stroke-linejoin="miter" fill="none" stroke="#000000" d="M 97.13303 0 L 97.13303 159.39168 "/>
<path transform="matrix(0,-1,-1,-0,97.33203,8.424316)" d="M 1.99252 0 L -1.19551 1.59401 L 0 0 L -1.19551 -1.59401 "/>
<symbol id="font_0_1">
<path d="M .57600006 0 C .59300008 0 .611 0 .611 .019999996 C .611 .040000008 .59300008 .040000008 .57600006 .040000008 L .035000005 .040000008 C .018 .040000008 0 .040000008 0 .019999996 C 0 0 .018 0 .035000005 0 L .57600006 0 Z "/>
</symbol>
<use xlink:href="#font_0_1" transform="matrix(9.9626,0,0,-9.9626,14.087896,96.89959)"/>
<symbol id="font_1_2">
<path d="M .266 .165 L .266 .078 C .266 .042000005 .26400004 .031000002 .19000001 .031000002 L .16900002 .031000002 L .16900002 0 C .21000001 .003 .26200003 .003 .30400003 .003 C .34600003 .003 .39900003 .003 .44000004 0 L .44000004 .031000002 L .41900004 .031000002 C .34500004 .031000002 .34300003 .042000005 .34300003 .078 L .34300003 .165 L .44300003 .165 L .44300003 .19600001 L .34300003 .19600001 L .34300003 .651 C .34300003 .671 .34300003 .67700007 .32700003 .67700007 C .31800003 .67700007 .31500004 .67700007 .307 .665 L 0 .19600001 L 0 .165 L .266 .165 M .272 .19600001 L .028 .19600001 L .272 .569 L .272 .19600001 Z "/>
</symbol>
<use xlink:href="#font_1_2" transform="matrix(9.9626,0,0,-9.9626,21.287953,99.19099)"/>
<use xlink:href="#font_0_1" transform="matrix(9.9626,0,0,-9.9626,52.9399,96.89959)"/>
<symbol id="font_1_1">
<path d="M .07700001 .07700001 L .18300002 .18 C .33900003 .31800003 .39900003 .372 .39900003 .47200004 C .39900003 .586 .30900003 .666 .18700002 .666 C .074 .666 0 .574 0 .485 C 0 .42900003 .05 .42900003 .053000008 .42900003 C .07000001 .42900003 .105000007 .441 .105000007 .48200003 C .105000007 .508 .08700001 .53400006 .052000006 .53400006 C .044000005 .53400006 .042000008 .53400006 .039 .53300008 C .062000004 .59800007 .11600001 .63500007 .17400001 .63500007 C .26500003 .63500007 .308 .554 .308 .47200004 C .308 .39200003 .25800003 .31300003 .20300003 .25100003 L .011000004 .037 C 0 .026 0 .024 0 0 L .37100003 0 L .39900003 .17400001 L .374 .17400001 C .36900003 .14400001 .36200003 .1 .352 .085 C .345 .07700001 .279 .07700001 .257 .07700001 L .07700001 .07700001 Z "/>
</symbol>
<use xlink:href="#font_1_1" transform="matrix(9.9626,0,0,-9.9626,60.360136,99.19099)"/>
<use xlink:href="#font_1_1" transform="matrix(9.9626,0,0,-9.9626,134.19113,99.19099)"/>
<use xlink:href="#font_1_2" transform="matrix(9.9626,0,0,-9.9626,172.82495,99.19099)"/>
<use xlink:href="#font_0_1" transform="matrix(9.9626,0,0,-9.9626,79.78189,152.1816)"/>
<use xlink:href="#font_1_2" transform="matrix(9.9626,0,0,-9.9626,86.98295,154.47299)"/>
<use xlink:href="#font_0_1" transform="matrix(9.9626,0,0,-9.9626,79.78189,119.9046)"/>
<use xlink:href="#font_1_1" transform="matrix(9.9626,0,0,-9.9626,87.202129,122.196)"/>
<use xlink:href="#font_1_1" transform="matrix(9.9626,0,0,-9.9626,87.202129,58.058984)"/>
<use xlink:href="#font_1_2" transform="matrix(9.9626,0,0,-9.9626,86.98295,25.781998)"/>
<clipPath id="cp2">
<path transform="matrix(1,0,0,-1,.199,167.816)" d="M 0 0 L 194.26607 0 L 194.26607 161.3842 L 0 161.3842 Z "/>
</clipPath>
<g clip-path="url(#cp2)">
<path transform="matrix(1,0,0,-1,.199,167.816)" stroke-width="1" stroke-linecap="butt" stroke-miterlimit="10" stroke-linejoin="miter" fill="none" stroke="#000000" d="M 29.19177 19.89627 L 29.5947 22.96509 L 30.0495 26.36757 L 30.5043 29.70886 L 30.95909 32.9895 L 31.41391 36.20988 L 31.8687 39.37048 L 32.3235 42.47159 L 32.7783 45.51367 L 33.23311 48.49716 L 33.68791 51.42247 L 34.14272 54.29002 L 34.5975 57.10019 L 35.05232 59.85341 L 35.50711 62.5501 L 35.96191 65.19067 L 36.41672 67.77556 L 36.87152 70.30515 L 37.32632 72.77985 L 37.78111 75.20007 L 38.23592 77.56628 L 38.69073 79.87885 L 39.14552 82.1382 L 39.60033 84.34473 L 40.05513 86.49889 L 40.50993 88.60106 L 40.96474 90.65167 L 41.41953 92.65114 L 41.87433 94.59987 L 42.32915 96.49828 L 42.78394 98.34677 L 43.23874 100.1458 L 43.69353 101.89572 L 44.14835 103.597 L 44.60315 105.25003 L 45.05794 106.85521 L 45.51274 108.41298 L 45.96754 109.92374 L 46.42235 111.38791 L 46.87715 112.80591 L 47.33194 114.17813 L 47.78674 115.505 L 48.24156 116.78693 L 48.69635 118.02437 L 49.15115 119.21767 L 49.60594 120.36728 L 50.06076 121.4736 L 50.51556 122.53708 L 50.97035 123.55814 L 51.42516 124.53711 L 51.87996 125.47446 L 52.33476 126.3706 L 52.78957 127.22597 L 53.24435 128.04097 L 53.69917 128.81597 L 54.15398 129.55142 L 54.60876 130.24774 L 55.06357 130.90534 L 55.51837 131.52466 L 55.97318 132.10604 L 56.42798 132.64997 L 56.88277 133.15679 L 57.33759 133.62696 L 57.79237 134.06098 L 58.24718 134.45909 L 58.70198 134.8218 L 59.15678 135.14952 L 59.61159 135.44268 L 60.06639 135.70163 L 60.52118 135.92684 L 60.97598 136.11872 L 61.43079 136.2777 L 61.88559 136.40416 L 62.3404 136.49848 L 62.79518 136.56114 L 63.25 136.59253 L 63.70479 136.59308 L 64.15959 136.56319 L 64.6144 136.50327 L 65.0692 136.41373 L 65.524 136.29497 L 65.9788 136.14745 L 66.4336 135.97153 L 66.88841 135.76773 L 67.3432 135.53633 L 67.798 135.27782 L 68.2528 134.99257 L 68.70761 134.68106 L 69.16241 134.34365 L 69.6172 133.98078 L 70.072 133.59282 L 70.52682 133.18025 L 70.98161 132.74343 L 71.43642 132.2828 L 71.8912 131.79877 L 72.34602 131.2918 L 72.80083 130.76219 L 73.25562 130.21042 L 73.71042 129.637 L 74.16524 129.04216 L 74.62003 128.42642 L 75.07483 127.79018 L 75.52962 127.13388 L 75.98442 126.45792 L 76.43924 125.76265 L 76.89403 125.04854 L 77.34883 124.31602 L 77.80362 123.56552 L 78.25844 122.7974 L 78.71324 122.01204 L 79.16803 121.20996 L 79.62285 120.3915 L 80.07765 119.55707 L 80.53244 118.70718 L 80.98726 117.84207 L 81.44205 116.96231 L 81.89685 116.06828 L 82.35165 115.16037 L 82.80646 114.23901 L 83.26126 113.30457 L 83.71605 112.35751 L 84.17087 111.39824 L 84.62567 110.42715 L 85.08046 109.44469 L 85.53528 108.45125 L 85.99008 107.44724 L 86.44487 106.43307 L 86.89967 105.4092 L 87.35448 104.376 L 87.80928 103.3339 L 88.26408 102.28328 L 88.71889 101.2246 L 89.17369 100.15828 L 89.62848 99.08469 L 90.0833 98.00429 L 90.5381 96.91742 L 90.99289 95.82458 L 91.4477 94.72615 L 91.9025 93.62254 L 92.3573 92.51416 L 92.8121 91.40144 L 93.2669 90.28479 L 93.72171 89.1646 L 94.17651 88.0413 L 94.63132 86.91534 L 95.08612 85.78706 L 95.54091 84.65695 L 95.99573 83.52538 L 96.45053 82.39278 L 96.90532 81.25955 L 97.36012 80.12611 L 97.81493 78.99289 L 98.26973 77.86029 L 98.72453 76.72871 L 99.17934 75.5986 L 99.63414 74.47032 L 100.08894 73.34435 L 100.54375 72.22105 L 100.99855 71.10086 L 101.45334 69.9842 L 101.90814 68.87148 L 102.36296 67.76309 L 102.81775 66.65947 L 103.27255 65.56102 L 103.72736 64.46817 L 104.18216 63.38133 L 104.63696 62.3009 L 105.09177 61.2273 L 105.54657 60.16095 L 106.00137 59.10228 L 106.45616 58.05167 L 106.91098 57.00955 L 107.36577 55.97632 L 107.82057 54.95244 L 108.27539 53.93826 L 108.73018 52.93423 L 109.18498 51.9408 L 109.63979 50.9583 L 110.09459 49.98721 L 110.5494 49.02791 L 111.00418 48.08084 L 111.459 47.14641 L 111.91379 46.225 L 112.36859 45.3171 L 112.82341 44.42299 L 113.2782 43.54323 L 113.733 42.67816 L 114.18782 41.82822 L 114.64261 40.99377 L 115.09741 40.1753 L 115.5522 39.37317 L 116.00702 38.58783 L 116.46182 37.81966 L 116.91661 37.0691 L 117.37143 36.33653 L 117.82622 35.62242 L 118.28102 34.92719 L 118.73582 34.25117 L 119.19063 33.59482 L 119.64543 32.95857 L 120.10023 32.34279 L 120.55502 31.74799 L 121.00984 31.17447 L 121.46463 30.62271 L 121.91943 30.09308 L 122.37424 29.58604 L 122.82904 29.102 L 123.28384 28.64134 L 123.73863 28.2045 L 124.19344 27.79187 L 124.64825 27.4039 L 125.10304 27.041 L 125.55785 26.70354 L 126.01265 26.39198 L 126.46744 26.10672 L 126.92226 25.84816 L 127.37704 25.61676 L 127.83185 25.41287 L 128.28665 25.23694 L 128.74146 25.08939 L 129.19626 24.9706 L 129.65105 24.88103 L 130.10585 24.82108 L 130.56067 24.79112 L 131.01546 24.79163 L 131.47026 24.82297 L 131.92505 24.8856 L 132.37987 24.9799 L 132.83467 25.1063 L 133.28946 25.26521 L 133.74427 25.45705 L 134.19908 25.68222 L 134.65387 25.94115 L 135.10868 26.23424 L 135.56346 26.56194 L 136.01828 26.92458 L 136.47309 27.32271 L 136.92787 27.7566 L 137.38268 28.22673 L 137.83748 28.73354 L 138.29228 29.27737 L 138.74709 29.85878 L 139.20188 30.478 L 139.6567 31.13554 L 140.1115 31.8318 L 140.56629 32.56718 L 141.02109 33.3422 L 141.47588 34.1571 L 141.9307 35.0124 L 142.3855 35.9085 L 142.84029 36.84581 L 143.29509 37.82477 L 143.7499 38.84572 L 144.2047 39.90912 L 144.6595 41.0154 L 145.11429 42.16495 L 145.5691 43.35823 L 146.02391 44.5956 L 146.4787 45.87747 L 146.9335 47.20428 L 147.3883 48.57643 L 147.84311 49.99437 L 148.29792 51.45848 L 148.7527 52.96918 L 149.20752 54.52687 L 149.66231 56.13199 L 150.11711 57.78497 L 150.57192 59.48619 L 151.02672 61.23604 L 151.48152 63.03499 L 151.93631 64.88342 L 152.39112 66.78178 L 152.84593 68.73045 L 153.30072 70.72983 L 153.75553 72.78038 L 154.21033 74.88248 L 154.66513 77.03656 L 155.11994 79.24304 L 155.57472 81.50232 L 156.02953 83.8148 L 156.48435 86.18094 L 156.93914 88.6011 L 157.39394 91.07573 L 157.84873 93.60526 L 158.30353 96.19006 L 158.75835 98.83057 L 159.21314 101.52716 L 159.66794 104.2803 L 160.12274 107.09044 L 160.57755 109.9579 L 161.03235 112.8831 L 161.48714 115.86652 L 161.94194 118.90857 L 162.39676 122.00961 L 162.85155 125.17006 L 163.30635 128.39037 L 163.76114 131.67092 L 164.21596 135.01222 L 164.67076 138.41454 L 165.07369 141.48328 "/>
<path transform="matrix(-.13017,.99144,.99144,.13017,29.36483,148.11727)" stroke-width="1" stroke-linecap="round" stroke-linejoin="round" fill="none" stroke="#000000" d="M -2.07224 2.39104 C -1.69365 .95639 -.84999 .27895 0 0 C -.84999 -.27895 -1.69365 -.95639 -2.07224 -2.39104 "/>
<path transform="matrix(.13017,-.99144,-.99144,-.13017,165.29863,26.135193)" stroke-width="1" stroke-linecap="round" stroke-linejoin="round" fill="none" stroke="#000000" d="M -2.07224 2.39104 C -1.69365 .95639 -.84999 .27895 0 0 C -.84999 -.27895 -1.69365 -.95639 -2.07224 -2.39104 "/>
</g>
<symbol id="font_3_1">
<path d="M .305 .31300003 C .311 .33900003 .334 .43100003 .404 .43100003 C .409 .43100003 .433 .43100003 .454 .418 C .426 .41300003 .40600003 .388 .40600003 .36400003 C .40600003 .34800003 .417 .32900004 .444 .32900004 C .46600003 .32900004 .498 .34700004 .498 .38700003 C .498 .43900005 .439 .45300005 .405 .45300005 C .347 .45300005 .312 .40000005 .3 .37700004 C .275 .44300003 .221 .45300005 .19200002 .45300005 C .08800001 .45300005 .031000002 .32400004 .031000002 .29900003 C .031000002 .28900004 .041 .28900004 .043000007 .28900004 C .051000008 .28900004 .054000006 .291 .056 .3 C .09 .40600003 .156 .43100003 .19000001 .43100003 C .209 .43100003 .244 .42200003 .244 .36400003 C .244 .33300004 .22700002 .26600004 .19000001 .126 C .17400001 .064 .13900002 .022000002 .095000009 .022000002 C .08900001 .022000002 .06600001 .022000002 .045 .035 C .07000001 .040000004 .09200001 .061 .09200001 .089 C .09200001 .116000007 .07000001 .124000009 .055000009 .124000009 C .025 .124000009 0 .098000008 0 .06600001 C 0 .020000002 .050000006 0 .094000007 0 C .16000001 0 .19600001 .07000001 .19900002 .076000008 C .21100001 .039 .24700003 0 .307 0 C .41 0 .467 .12900001 .467 .15400002 C .467 .16400002 .458 .16400002 .455 .16400002 C .446 .16400002 .444 .16000001 .442 .15300001 C .409 .046 .341 .022000002 .30900003 .022000002 C .27 .022000002 .254 .054 .254 .08800001 C .254 .11000001 .26 .13200002 .271 .17600002 L .305 .31300003 Z "/>
</symbol>
<use xlink:href="#font_3_1" transform="matrix(9.9626,0,0,-9.9626,191.90493,83.714588)"/>
<symbol id="font_3_2">
<path d="M .45700003 .586 C .461 .6 .461 .602 .461 .609 C .461 .62700006 .447 .63600006 .432 .63600006 C .42200003 .63600006 .40600003 .63 .397 .615 C .395 .61 .387 .579 .38300003 .561 C .37600003 .535 .36900003 .508 .363 .48100005 L .318 .301 C .314 .286 .271 .21600002 .20500002 .21600002 C .15400002 .21600002 .143 .26000003 .143 .29700003 C .143 .34300003 .16000001 .40500004 .194 .49300004 C .21000001 .53400006 .21400002 .545 .21400002 .56500008 C .21400002 .61 .18200001 .6470001 .13200002 .6470001 C .037 .6470001 0 .50200006 0 .49300004 C 0 .48300005 .01 .48300005 .012 .48300005 C .022000002 .48300005 .023 .485 .028000003 .50100007 C .055000009 .595 .095000009 .625 .12900001 .625 C .13700001 .625 .15400002 .625 .15400002 .59300008 C .15400002 .568 .14400001 .54200008 .13700001 .523 C .097 .41700004 .079 .36 .079 .31300003 C .079 .224 .142 .194 .201 .194 C .24000003 .194 .274 .21100001 .30200003 .23900002 C .289 .187 .277 .13800001 .237 .08500001 C .21100001 .051 .17300001 .022 .127 .022 C .113000009 .022 .068 .025000006 .051000008 .06400001 C .067 .06400001 .080000009 .06400001 .094000007 .076000008 C .104 .08500001 .11400001 .098000008 .11400001 .117000009 C .11400001 .148 .087000008 .15200001 .07700001 .15200001 C .054000006 .15200001 .021 .136 .021 .087000008 C .021 .037 .065000008 0 .127 0 C .23 0 .333 .091000009 .361 .20400001 L .45700003 .586 Z "/>
</symbol>
<use xlink:href="#font_3_2" transform="matrix(9.9626,0,0,-9.9626,101.139919,9.652334)"/>
</svg>
